<svg xmlns="http://www.w3.org/2000/svg">
<defs>
<font id="DFVN-ArthemysDisplay-Light" horiz-adv-x="0" >
  <font-face 
    font-family="DFVN Arthemys Display"
    font-weight="300"
    font-stretch="normal"
    units-per-em="1000"
    panose-1="0 0 0 0 0 0 0 0 0 0"
    ascent="800"
    descent="-200"
    x-height="490"
    cap-height="700"
    bbox="-495 -303 1828 1107"
    underline-thickness="50"
    underline-position="-125"
    unicode-range="U+000D-1F982"
  />
<missing-glyph horiz-adv-x="436" 
d="M50 686h336v-908h-336v908zM349 633l-12 -8v-237q0 -34 -4 -48t-27 -14h-29q8 9 13 20.5t5 28.5q0 18 -7 35.5t-20.5 31t-33 22t-43.5 8.5t-42 -8.5t-31 -22t-19.5 -31t-6.5 -35.5q0 -27 20 -49h-33v-3l33 -83l11 2q-2 5 -5 13.5t-3.5 16.5t3 14t15.5 6h186
q13 0 15.5 -7.5t2.5 -17.5v-436l12 -8v810zM275 496q1 0 4.5 5t8 13.5t8 20t3.5 24.5q0 30 -16.5 50.5t-43.5 20.5q-19 0 -32 -16t-24.5 -35.5t-23.5 -36t-29 -17.5q-16 0 -26.5 9.5t-10.5 21.5q0 17 8.5 26.5t28.5 9.5q6 0 12.5 -1t14.5 -3l3 12l-44 18l-5.5 -4t-12 -11.5
t-12 -19t-5.5 -27.5q0 -21 15.5 -40.5t42.5 -18.5q23 1 36.5 16.5t24.5 34t24 34t35 16.5q13 0 21 -11t7 -28q-1 -20 -14.5 -34.5t-46.5 -22.5v-10zM128 326q-9 7 -15.5 16.5t-6.5 23.5q0 25 24.5 47.5t72.5 22.5q38 0 58.5 -14.5t20.5 -34.5q0 -24 -11 -38.5t-29 -22.5
h-114zM99 12v28t4 15.5t12.5 6.5t24.5 1h83q12 0 25 2t23.5 8t17.5 17t7 29q0 23 -8.5 37t-19.5 21.5t-21 10.5t-14 3h55v73l-13 -9v-7q0 -11 -2.5 -18t-21.5 -7h-166l2 -94l12 -11v38.5t4 22t12.5 10t24.5 2.5h65q11 0 24 -4t24 -12t19 -19t8 -26q0 -23 -18.5 -30t-40.5 -7
l-81 -1h-55l2 -70zM191 -179q23 0 42 8.5t33 23t21.5 33.5t7.5 39q0 21 -7.5 40t-21.5 33.5t-33 23t-42 8.5q-22 0 -41 -8.5t-33 -23t-21.5 -33.5t-7.5 -40q0 -17 7.5 -35t21.5 -33.5t33 -25.5t41 -10zM176 -146q-10 0 -23 3.5t-23.5 11t-18 19t-7.5 28.5q0 13 7.5 27.5
t20.5 26.5t31 19.5t40 7.5q37 0 58 -18t21 -41q0 -19 -9 -34.5t-24 -26.5t-34 -17t-39 -6z" />
    <glyph glyph-name=".notdef" horiz-adv-x="436" 
d="M50 686h336v-908h-336v908zM349 633l-12 -8v-237q0 -34 -4 -48t-27 -14h-29q8 9 13 20.5t5 28.5q0 18 -7 35.5t-20.5 31t-33 22t-43.5 8.5t-42 -8.5t-31 -22t-19.5 -31t-6.5 -35.5q0 -27 20 -49h-33v-3l33 -83l11 2q-2 5 -5 13.5t-3.5 16.5t3 14t15.5 6h186
q13 0 15.5 -7.5t2.5 -17.5v-436l12 -8v810zM275 496q1 0 4.5 5t8 13.5t8 20t3.5 24.5q0 30 -16.5 50.5t-43.5 20.5q-19 0 -32 -16t-24.5 -35.5t-23.5 -36t-29 -17.5q-16 0 -26.5 9.5t-10.5 21.5q0 17 8.5 26.5t28.5 9.5q6 0 12.5 -1t14.5 -3l3 12l-44 18l-5.5 -4t-12 -11.5
t-12 -19t-5.5 -27.5q0 -21 15.5 -40.5t42.5 -18.5q23 1 36.5 16.5t24.5 34t24 34t35 16.5q13 0 21 -11t7 -28q-1 -20 -14.5 -34.5t-46.5 -22.5v-10zM128 326q-9 7 -15.5 16.5t-6.5 23.5q0 25 24.5 47.5t72.5 22.5q38 0 58.5 -14.5t20.5 -34.5q0 -24 -11 -38.5t-29 -22.5
h-114zM99 12v28t4 15.5t12.5 6.5t24.5 1h83q12 0 25 2t23.5 8t17.5 17t7 29q0 23 -8.5 37t-19.5 21.5t-21 10.5t-14 3h55v73l-13 -9v-7q0 -11 -2.5 -18t-21.5 -7h-166l2 -94l12 -11v38.5t4 22t12.5 10t24.5 2.5h65q11 0 24 -4t24 -12t19 -19t8 -26q0 -23 -18.5 -30t-40.5 -7
l-81 -1h-55l2 -70zM191 -179q23 0 42 8.5t33 23t21.5 33.5t7.5 39q0 21 -7.5 40t-21.5 33.5t-33 23t-42 8.5q-22 0 -41 -8.5t-33 -23t-21.5 -33.5t-7.5 -40q0 -17 7.5 -35t21.5 -33.5t33 -25.5t41 -10zM176 -146q-10 0 -23 3.5t-23.5 11t-18 19t-7.5 28.5q0 13 7.5 27.5
t20.5 26.5t31 19.5t40 7.5q37 0 58 -18t21 -41q0 -19 -9 -34.5t-24 -26.5t-34 -17t-39 -6z" />
    <glyph glyph-name="uni0000" 
 />
    <glyph glyph-name="uni000D" unicode="&#xd;" horiz-adv-x="250" 
 />
    <glyph glyph-name="space" unicode=" " horiz-adv-x="250" 
 />
    <glyph glyph-name="exclam" unicode="!" horiz-adv-x="141" 
d="M44 699h50l-19 -542h-11zM71 -20q-6 0 -13 4t-13.5 10t-10.5 13t-4 12q0 6 4 13.5t10.5 14t13.5 10.5t13 4t13 -4t13 -10.5t10 -14t4 -13.5q0 -5 -4 -12t-10 -13t-13 -10t-13 -4z" />
    <glyph glyph-name="quotedbl" unicode="&#x22;" horiz-adv-x="207" 
d="M38 481q0 54 -4.5 85t-9.5 50t-9.5 32t-4.5 31q0 5 3.5 11t9 12t11.5 10t10 4q5 0 10.5 -4t10.5 -10t8.5 -12t3.5 -11q0 -18 -4 -31t-9.5 -32t-9.5 -50t-4 -85h-12zM158 481q0 54 -4.5 85t-9.5 50t-9.5 32t-4.5 31q0 5 3.5 11t9 12t11.5 10t10 4q5 0 10.5 -4t10.5 -10
t8.5 -12t3.5 -11q0 -18 -4 -31t-9.5 -32t-9.5 -50t-4 -85h-12z" />
    <glyph glyph-name="numbersign" unicode="#" horiz-adv-x="606" 
d="M621 171l-244 -1l-75 -170h-14l76 170l-217 -1l-71 -161h-14l71 161l-148 -1l-5 13h159l71 159l-220 -1l-5 13h230l78 176h13l-78 -176l217 1l75 167h13l-74 -167h162l5 -11l-172 -1l-71 -159h233zM369 182l71 159l-217 -1l-70 -159z" />
    <glyph glyph-name="dollar" unicode="$" horiz-adv-x="637" 
d="M547 192q0 -50 -15 -87.5t-40.5 -63t-58.5 -40t-70 -18.5v-69h-12v67q-7 -1 -14 -1h-14q-24 0 -50 6v-72h-12v75q-29 8 -56.5 21t-48.5 26t-34 23t-13 12l-19 219l11 10q3 -45 13.5 -91t30 -87t48.5 -72.5t68 -46.5v371q-27 17 -52 35t-43.5 39.5t-29.5 47.5t-11 58
q0 40 11.5 68.5t31 47.5t44 30t49.5 16v49h12v-47q10 1 19 1.5t18 0.5q20 0 41 -3v48h12v-50q38 -5 75.5 -14t66.5 -9q14 0 24 3l4 -10q-38 -21 -59 -71t-39 -135l-9 12q10 47 13.5 83t-2.5 62.5t-23.5 43t-50.5 23.5v-287q35 -20 68 -42t58.5 -49t41.5 -59.5t16 -73.5z
M311 708q-18 0 -38 -3v-236q18 -12 38 -23.5t40 -22.5v282q-18 3 -40 3zM178 591q0 -35 23.5 -62.5t59.5 -52.5v226q-34 -9 -58.5 -34.5t-24.5 -76.5zM325 -8h13.5t12.5 1v327q-19 12 -38.5 23.5t-39.5 23.5v-368q12 -3 25 -5t27 -2zM363 -5q32 6 54 19.5t36 32.5t20.5 40.5
t6.5 42.5q0 32 -9 58.5t-25 48.5t-37.5 40.5t-45.5 34.5v-317z" />
    <glyph glyph-name="percent" unicode="%" horiz-adv-x="669" 
d="M159 424q-26 0 -49.5 12t-41 32t-28 47.5t-10.5 57.5t11.5 57t30.5 47t42 31.5t45 11.5q26 0 49.5 -11.5t41.5 -31.5t28.5 -47t10.5 -57q0 -34 -10.5 -61.5t-28.5 -47t-41.5 -30t-49.5 -10.5zM64 -27l494 735l13 -2l-494 -736zM172 439q33 0 51 28t18 89
q0 73 -27.5 109.5t-65.5 36.5q-25 0 -39.5 -11t-21.5 -27.5t-8.5 -35t-1.5 -33.5q0 -27 5 -54.5t16.5 -50t29.5 -37t44 -14.5zM509 -16q-26 0 -49.5 12t-41 32t-28 47.5t-10.5 57.5t11.5 57t30.5 47t42 31.5t45 11.5q26 0 49.5 -11.5t41.5 -31.5t28.5 -47t10.5 -57
q0 -34 -10.5 -61.5t-28.5 -47t-41.5 -30t-49.5 -10.5zM522 -1q33 0 51 28t18 89q0 73 -27.5 109.5t-65.5 36.5q-25 0 -39.5 -11t-21.5 -27.5t-8.5 -35t-1.5 -33.5q0 -27 5 -54.5t16.5 -50t29.5 -37t44 -14.5z" />
    <glyph glyph-name="ampersand" unicode="&#x26;" horiz-adv-x="808" 
d="M388 -20q-53 0 -106.5 15.5t-96 45.5t-69 75t-26.5 104q0 50 19 84.5t48.5 56t66 31.5t72.5 10q15 0 29.5 -2t28.5 -5q-34 16 -69 34.5t-64 42t-47.5 54t-18.5 69.5q0 124 204 124q32 0 69 -2t71 -2q19 0 35.5 1t30.5 4l4 -9q-37 -21 -51.5 -66t-17.5 -134l-11 13
q2 35 -3 67.5t-19 58.5t-40 41.5t-67 15.5q-57 0 -93.5 -31t-36.5 -87q0 -34 15 -63t41.5 -55t62.5 -52t78 -54v-15q-23 17 -47.5 24.5t-49.5 7.5q-31 0 -59.5 -11t-51 -31t-36 -49t-13.5 -64q0 -40 18 -81.5t49.5 -75.5t74.5 -55t93 -21q41 0 73 14.5t53 38.5t31.5 54t8 61
t-18 60.5t-45.5 51.5l52 82q15 24 17.5 41.5t-5 29t-22 17.5t-34.5 6h-70l14 12h155q49 0 76.5 19.5t35.5 74.5l12 -1l-11 -105h-98l-88 -145l118 -88q0 -51 -20 -94t-56 -75t-86 -50t-109 -18z" />
    <glyph glyph-name="quotesingle" unicode="'" horiz-adv-x="150" 
d="M20 492q35 20 53.5 46.5t18.5 55.5q0 19 -5 30t-10.5 18.5t-10.5 14.5t-5 17q0 14 9 26.5t18 12.5q14 0 27.5 -16.5t13.5 -40.5q0 -21 -5 -44t-17 -46t-32.5 -45t-52.5 -40z" />
    <glyph glyph-name="parenleft" unicode="(" horiz-adv-x="276" 
d="M243 -200q-27 33 -64 82.5t-70 113t-56 142t-23 170.5q0 83 21.5 156.5t54 135.5t71 112.5t71.5 87.5l8 -6q-37 -45 -73.5 -96t-66 -111t-48 -129t-18.5 -150q0 -93 24 -173t56 -144t65 -109t52 -69z" />
    <glyph glyph-name="parenright" unicode=")" horiz-adv-x="276" 
d="M29 -187q19 24 52 69t65.5 109t56 144t23.5 173q0 81 -18.5 150t-48 129t-66 111t-73.5 96l8 6q33 -37 71.5 -87.5t71 -112.5t54 -135.5t21.5 -156.5q0 -92 -23 -170.5t-56 -142t-70 -113t-64 -82.5z" />
    <glyph glyph-name="asterisk" unicode="*" horiz-adv-x="544" 
d="M425 443l-147 121v-166h-12v166l-147 -121h-19l153 125h-153v12h158l-145 119h18l135 -110v151h12v-151l135 110h18l-145 -119h156v-12h-151l153 -125h-19z" />
    <glyph glyph-name="plus" unicode="+" horiz-adv-x="599" 
d="M509 280h-209v-197h-12v197h-198v12h198v210h12v-210h209v-12z" />
    <glyph glyph-name="comma" unicode="," horiz-adv-x="167" 
d="M-126 414q36 12 54 34t18 49q0 11 -3 19t-6 14t-6 11.5t-3 11.5q0 10 11.5 22.5t20.5 12.5q4 0 10 -4t10.5 -9.5t8 -11.5t3.5 -10q0 -21 -8 -43.5t-23 -42.5t-37 -36.5t-50 -25.5v9z" />
    <glyph glyph-name="hyphen" unicode="-" horiz-adv-x="339" 
d="M20 252h299v-12h-299v12z" />
    <glyph glyph-name="period" unicode="." horiz-adv-x="141" 
d="M71 -20q-6 0 -13 4t-13.5 10t-10.5 13t-4 12q0 6 4 13.5t10.5 14t13.5 10.5t13 4t13 -4t13 -10.5t10 -14t4 -13.5q0 -5 -4 -12t-10 -13t-13 -10t-13 -4z" />
    <glyph glyph-name="slash" unicode="/" horiz-adv-x="412" 
d="M379 700h13l-358 -810h-14z" />
    <glyph glyph-name="zero" unicode="0" horiz-adv-x="629" 
d="M312 -20q-56 0 -105.5 29.5t-86.5 80t-58.5 118t-21.5 143.5t21.5 143t58.5 117.5t86.5 79.5t105.5 29t106 -29t88 -79.5t60.5 -117.5t22.5 -143t-22.5 -143.5t-60.5 -118t-88 -80t-106 -29.5zM346 1q28 0 57 18.5t52 57t38 97t15 138.5q0 91 -20.5 162t-52.5 120.5
t-72 75.5t-78 26q-39 0 -67 -15t-46.5 -39.5t-29.5 -55.5t-16.5 -63t-7 -61.5t-1.5 -51.5q0 -68 15 -140.5t44 -132t71.5 -98t98.5 -38.5z" />
    <glyph glyph-name="one" unicode="1" horiz-adv-x="466" 
d="M79 12h61q26 0 40 6.5t20.5 20t8 35t1.5 52.5v447q0 25 -6 36.5t-21 11.5q-17 0 -49 -14t-84 -40v14l235 119h102l20 -12q-45 0 -69.5 -2t-36 -10.5t-14 -25.5t-2.5 -47v-478q0 -30 1.5 -51.5t8.5 -35t22.5 -20t42.5 -6.5h56l20 -12h-377z" />
    <glyph glyph-name="two" unicode="2" horiz-adv-x="608" 
d="M0 0q90 107 164 190.5t126.5 151.5t81.5 126.5t29 115.5q0 30 -5.5 53t-19.5 38.5t-39.5 23.5t-65.5 8t-62.5 -15.5t-33 -45t-10.5 -72.5t4 -99l-12 -13q-2 44 -10 85t-21 74.5t-29.5 58t-35.5 34.5l2 6q14 -3 28 -4t31 -1q29 0 65.5 2t84.5 2q90 0 141 -41t51 -113
q0 -58 -29 -118.5t-74 -121.5t-99.5 -122t-104.5 -119q-36 -42 -23.5 -57.5t72.5 -15.5h109q52 0 90.5 27.5t68.5 74.5t54.5 108.5t48.5 129.5l11 -2l-113 -349h-475z" />
    <glyph glyph-name="three" unicode="3" horiz-adv-x="569" 
d="M259 -20q-50 0 -86.5 16t-60.5 36q-29 22 -48 51l-14 265l12 8q15 -174 69.5 -268.5t141.5 -94.5q46 0 79 22.5t54.5 56.5t32 74t10.5 75q0 39 -13 69.5t-34.5 51.5t-49.5 32t-58 11q-26 0 -52.5 -8.5t-49.5 -26.5v15q42 28 78 50.5t62.5 46.5t41.5 54.5t15 74.5
q0 32 -10.5 54.5t-28 36t-40 19.5t-45.5 6q-51 0 -79 -14.5t-39.5 -43t-11.5 -71.5t4 -100l-12 -13q-1 45 -6 85.5t-14 73.5t-22.5 56.5t-32.5 33.5l2 6q14 -3 30 -4t34 -1q34 0 71.5 2t75.5 2q105 0 152 -32t47 -97q0 -40 -15 -66.5t-41.5 -47t-63 -39t-79.5 -42.5
q27 6 56 6q37 0 74 -10t67 -32.5t48.5 -57t18.5 -84.5q0 -59 -22.5 -103.5t-60 -74t-86 -44.5t-101.5 -15z" />
    <glyph glyph-name="four" unicode="4" horiz-adv-x="568" 
d="M163 12h61q26 0 40 6.5t20.5 20t8 35t1.5 52.5v74h-294v11l353 509h16v-509q45 0 70.5 12t40 36.5t21.5 61t13 85.5l14 11l-31 -218h-128v-74q0 -30 1.5 -51.5t8.5 -35t22.5 -20t42.5 -6.5h56l20 -12h-377zM295 212v404l-217 -314q-18 -27 -24 -44.5t0 -27.5t23.5 -14
t45.5 -4h172z" />
    <glyph glyph-name="five" unicode="5" horiz-adv-x="550" 
d="M269 -20q-42 0 -81 13t-68.5 29.5t-47.5 31t-18 17.5l-14 219l12 10q2 -53 14.5 -107.5t38.5 -99t67 -73t99 -28.5q38 0 66 16t46 44t27 66t9 81q0 55 -17.5 99t-46 75.5t-64 48.5t-70.5 17q-36 0 -68.5 -20t-52.5 -63l35 344h120q45 0 87 -1t77 -1q24 0 44 1t35 3l2 -6
q-35 -17 -52 -71.5t-29 -140.5l-10 12q8 72 9.5 111t-11 57t-41.5 21t-82 3q-32 0 -49.5 -4t-28 -27t-17 -72.5t-15.5 -141.5q37 13 77 13q43 0 87 -14t80 -43t58.5 -73t22.5 -104q0 -63 -21.5 -108.5t-55.5 -75t-74.5 -44t-78.5 -14.5z" />
    <glyph glyph-name="six" unicode="6" horiz-adv-x="602" 
d="M322 -20q-52 0 -103 25.5t-90.5 73t-64 116.5t-24.5 156q0 68 21.5 134t62 118t98.5 84t130 32q25 0 49 -4t47 -9t44.5 -9t39.5 -4q13 0 25 3l5 -9q-38 -22 -57.5 -74.5t-37.5 -140.5l-9 13q11 50 10.5 91t-12.5 70t-37.5 45t-65.5 16q-74 0 -124.5 -34t-79.5 -92.5
t-38.5 -136.5t-2.5 -165q10 47 31 80.5t50 55.5t63 32.5t69 10.5q44 0 86 -15.5t75 -44.5t53 -71.5t20 -96.5q0 -76 -24.5 -125t-60 -76.5t-76 -38t-72.5 -10.5zM330 -8q26 0 52 12t47 36t34.5 60.5t13.5 84.5q0 62 -16.5 108.5t-43.5 78t-61 47.5t-69 16q-31 0 -60.5 -12.5
t-53.5 -37.5t-39.5 -63.5t-19.5 -89.5q8 -51 28 -95t49 -76t64.5 -50.5t74.5 -18.5z" />
    <glyph glyph-name="seven" unicode="7" horiz-adv-x="564" 
d="M50 12h31q24 0 40.5 7t30 21.5t25.5 37.5t28 55l199 464q12 34 12.5 52.5t-9 27t-28 10t-44.5 1.5h-171q-27 0 -45.5 -15t-30.5 -37t-18.5 -49t-9.5 -50t-3.5 -40t-0.5 -20l-13 -14q0 88 -7.5 152.5t-35.5 93.5l6 8q16 -8 53.5 -12.5t84.5 -4.5h460l20 -13
q-31 0 -53.5 -1.5t-38 -7.5t-26.5 -18.5t-20 -34.5l-209 -504q-13 -32 -19 -53t4.5 -33.5t42 -17.5t92.5 -5h46l20 -12h-433z" />
    <glyph glyph-name="eight" unicode="8" horiz-adv-x="545" 
d="M265 -20q-46 0 -87 14t-71.5 38.5t-48.5 58t-18 71.5q0 44 16 77t41.5 58t58 43.5t65.5 31.5q-29 14 -55.5 29.5t-47 36.5t-32.5 48.5t-12 64.5q0 26 10.5 55.5t33.5 54.5t59 42t88 17q36 0 68 -12.5t56.5 -34.5t39 -50t14.5 -60q0 -35 -12 -61.5t-31.5 -46t-44 -32.5
t-50.5 -21q36 -17 72 -36t64.5 -44.5t46 -60t17.5 -82.5q0 -41 -18.5 -77t-51 -63t-76.5 -43t-94 -16zM293 408q44 19 76 59t32 96q0 29 -9.5 55t-27.5 46t-43 32t-56 12q-30 0 -53.5 -11t-40 -29t-25.5 -40.5t-9 -44.5q0 -38 13 -65t34.5 -47t49.5 -34.5t59 -28.5zM265 -8
q44 0 75 15t51 39t29.5 54t9.5 59q0 47 -17 79.5t-45 55t-62.5 39t-69.5 32.5q-27 -10 -52.5 -25t-45 -38t-31 -54.5t-11.5 -74.5q0 -25 9 -56.5t29 -59.5t52.5 -46.5t78.5 -18.5z" />
    <glyph glyph-name="nine" unicode="9" horiz-adv-x="589" 
d="M277 -20q-47 0 -86.5 14.5t-68.5 31.5q-35 20 -63 46l-16 181l12 8q6 -44 23 -91.5t44.5 -87t66 -65t87.5 -25.5q57 0 97.5 30t65.5 86t35 135t6 178q-10 -46 -31.5 -79.5t-50 -55.5t-61.5 -32.5t-68 -10.5q-43 0 -84 15.5t-73 45.5t-52 74t-20 100q0 68 24 114
t59.5 74.5t75.5 41t72 12.5q64 0 115.5 -25t87.5 -73t55.5 -117t19.5 -157q0 -67 -18 -133t-53 -118.5t-85.5 -84.5t-115.5 -32zM476 479q-5 48 -23 89.5t-45.5 72.5t-62.5 48.5t-74 17.5q-30 0 -58.5 -8t-51 -28.5t-36 -56.5t-13.5 -92q0 -62 16.5 -109.5t43.5 -79.5
t61.5 -48.5t69.5 -16.5q31 0 60.5 13t53.5 39t40 65.5t19 93.5z" />
    <glyph glyph-name="colon" unicode=":" horiz-adv-x="141" 
d="M71 307q-6 0 -13 4t-13.5 10t-10.5 13t-4 12q0 6 4 13.5t10.5 14t13.5 10.5t13 4t13 -4t13 -10.5t10 -14t4 -13.5q0 -5 -4 -12t-10 -13t-13 -10t-13 -4zM71 67q-6 0 -13 4t-13.5 10t-10.5 13t-4 12q0 6 4 13.5t10.5 14t13.5 10.5t13 4t13 -4t13 -10.5t10 -14t4 -13.5
q0 -5 -4 -12t-10 -13t-13 -10t-13 -4z" />
    <glyph glyph-name="semicolon" unicode=";" horiz-adv-x="167" 
d="M97 307q-6 0 -13 4t-13.5 10t-10.5 13t-4 12q0 6 4 13.5t10.5 14t13.5 10.5t13 4t13 -4t13 -10.5t10 -14t4 -13.5q0 -5 -4 -12t-10 -13t-13 -10t-13 -4zM-10 -150q45 16 67.5 43t22.5 61q0 14 -3.5 24t-8 17.5t-8 14t-3.5 14.5q0 6 4.5 13.5t10.5 14.5t13 11.5t12 4.5
q6 0 13 -5t13 -12t10 -14.5t4 -12.5q0 -27 -10 -54.5t-29 -52.5t-46 -45.5t-62 -32.5v11z" />
    <glyph glyph-name="less" unicode="&#x3c;" horiz-adv-x="567" 
d="M90 275l380 220l7 -11l-364 -209l364 -209l-7 -11z" />
    <glyph glyph-name="equal" unicode="=" horiz-adv-x="599" 
d="M90 362h419v-12h-419v12zM90 182h419v-12h-419v12z" />
    <glyph glyph-name="greater" unicode="&#x3e;" horiz-adv-x="567" 
d="M90 66l364 209l-364 209l7 11l380 -220l-380 -220z" />
    <glyph glyph-name="question" unicode="?" horiz-adv-x="502" 
d="M260 225q0 42 11 76t27 62t35.5 53t35.5 49t27 50t11 56q0 36 -11 62t-30.5 42.5t-45.5 24t-57 7.5q-59 0 -89 -14.5t-43 -42.5t-14 -69.5t-1 -95.5l-11 -13q-1 44 -6 82.5t-14.5 70t-23 54t-32.5 32.5l3 9q14 -3 32 -4t38 -1q38 0 80.5 2t80.5 2q106 0 157.5 -36.5
t51.5 -101.5q0 -36 -15 -63t-37 -50.5t-48 -46t-48 -50t-37 -63t-15 -83.5h-12zM271 -20q-6 0 -13 4t-13.5 10t-10.5 13t-4 12q0 6 4 13.5t10.5 14t13.5 10.5t13 4t13 -4t13 -10.5t10 -14t4 -13.5q0 -5 -4 -12t-10 -13t-13 -10t-13 -4z" />
    <glyph glyph-name="at" unicode="@" horiz-adv-x="834" 
d="M417 -65q-74 0 -137.5 28t-110 76.5t-73 114t-26.5 139.5t26.5 139t73 113.5t110 76.5t137.5 28q98 0 160 -40.5t90.5 -103t25 -136.5t-35.5 -142q-13 -27 -28.5 -52t-34 -44.5t-41 -31t-48.5 -11.5q-30 0 -44.5 17t-19.5 39t-4 43.5t3 29.5q-13 -22 -26.5 -43.5
t-29.5 -38t-33.5 -26.5t-37.5 -10q-26 0 -45.5 16t-29 43.5t-8.5 65.5t17 81q16 42 40.5 76.5t53 59t58 38t54.5 13.5q27 0 38 -20t11 -38l15 51h57l-62 -208q-12 -43 -16.5 -71.5t-1.5 -46t13 -25t26 -7.5q29 0 59.5 28.5t52.5 74.5q30 64 34 135.5t-22 132t-85 100
t-154 39.5q-71 0 -132.5 -27t-106.5 -74t-71 -110t-26 -135t26 -134.5t71 -109.5t106.5 -74t132.5 -27q79 0 144 27t111.5 74t72.5 110t26 135h12q0 -74 -26.5 -139.5t-75 -114t-116 -76.5t-149.5 -28zM326 122q20 0 40.5 17.5t39.5 43.5t34 58t24 60l17 59q5 19 7.5 40.5
t0.5 39.5t-11.5 30t-30.5 12q-22 0 -42 -15.5t-37 -38.5t-30 -48.5t-21 -45.5q-13 -36 -21.5 -73.5t-9 -68t9 -50.5t30.5 -20z" />
    <glyph glyph-name="A" unicode="A" horiz-adv-x="667" 
d="M-100 12h50q16 0 32 1.5t31.5 7.5t29 19t23.5 35q8 18 22.5 51.5t33.5 76t40 91t42 96.5q49 113 106 244q-5 15 -23 27q-16 11 -47.5 19t-88.5 8h-135l20 12h317l264 -629q14 -32 39 -45.5t57 -13.5h54l20 -12h-439l19 12h83q33 0 50.5 5t21 21t-5 46.5t-28.5 81.5
q-7 20 -16.5 30.5t-21.5 15t-26 5.5t-31 1h-176q-24 0 -39 -1.5t-26 -8t-19.5 -19.5t-18.5 -36q-21 -46 -30 -74t-4.5 -43t23.5 -19.5t55 -4.5h81l20 -12h-379zM393 230q38 0 47 18t-6 60l-118 310l-139 -320q-9 -21 -12 -34.5t1 -21t16.5 -10t34.5 -2.5h176z" />
    <glyph glyph-name="B" unicode="B" horiz-adv-x="661" 
d="M11 12h49q29 0 45.5 6.5t24 20t9 35t1.5 52.5v471q0 24 -1.5 41.5t-9.5 28.5t-25 16t-49 5h-65l20 12h298q47 0 93.5 -5t83 -21.5t59.5 -47.5t23 -84q0 -26 -7 -47t-19 -36.5t-27 -27.5t-31 -20q-38 -20 -85 -27l-10 -4q67 -3 119 -24q23 -9 44 -23t38 -34t27 -47t10 -63
q0 -67 -31.5 -105t-80 -56.5t-107 -23t-111.5 -4.5h-305zM334 13q102 0 154.5 39t52.5 137q0 46 -14.5 77t-38 51.5t-53.5 31.5t-61.5 16.5t-62 6.5t-54.5 1l16 12q64 0 104.5 11.5t64 32.5t32 50t8.5 64q0 27 -9 53t-28.5 46.5t-50 33t-74.5 12.5q-39 0 -60.5 -5t-31.5 -16
t-11.5 -28.5t-1.5 -41.5v-472q0 -61 26 -86.5t93 -25.5z" />
    <glyph glyph-name="C" unicode="C" horiz-adv-x="759" 
d="M447 -20q-90 0 -165 25.5t-128.5 73.5t-83.5 117t-30 155q0 72 28 138.5t77 117.5t116 81.5t145 30.5q53 0 94 -6.5t72.5 -15t55.5 -15t43 -6.5q7 0 17 2l3 -9q-19 -10 -33.5 -35t-25.5 -58t-20 -71.5t-17 -76.5l-10 12q4 19 6 46t-0.5 57t-12.5 59t-31.5 52.5t-55.5 38
t-85 14.5q-58 0 -101.5 -15.5t-74.5 -40.5t-51 -57t-31 -65t-15.5 -64.5t-4.5 -56.5q0 -48 10 -97.5t29 -95.5t47 -86.5t64 -71t80 -48t95 -17.5q115 0 178.5 68t90.5 206l12 -2l-50 -224q-33 -17 -72 -30q-32 -11 -74.5 -20.5t-90.5 -9.5z" />
    <glyph glyph-name="D" unicode="D" horiz-adv-x="784" 
d="M10 12h50q29 0 45.5 6.5t24 20t9 35t1.5 52.5v471q0 24 -1.5 41.5t-9.5 28.5t-25 16t-49 5h-65l20 12h359q89 0 158.5 -29t117.5 -75.5t73.5 -105.5t25.5 -119q0 -85 -27 -154t-72 -117t-103.5 -74t-122.5 -26h-429zM418 12q30 0 72.5 15t81 49t65.5 88.5t27 132.5
q0 83 -24 154.5t-69 124t-109.5 82.5t-146.5 30q-36 0 -56.5 -1.5t-30 -10.5t-11.5 -27.5t-2 -51.5v-472q0 -30 1.5 -51.5t8.5 -35t22.5 -20t42.5 -6.5h128z" />
    <glyph glyph-name="E" unicode="E" horiz-adv-x="597" 
d="M10 12h50q29 0 45.5 6.5t24 20t9 35t1.5 52.5v471q0 24 -1.5 41.5t-9.5 28.5t-25 16t-49 5h-65l20 12h410q47 0 84.5 4.5t53.5 12.5l5 -8q-28 -29 -37.5 -82.5t-9.5 -141.5l-12 11q0 34 -2 68.5t-10.5 62t-25 44.5t-46.5 17h-135q-26 0 -40.5 -5t-21 -16t-7.5 -28.5
t-1 -41.5v-121q0 -31 1.5 -51t7.5 -31.5t18 -15.5t33 -4h65q28 0 43 5.5t22 19t8 35.5t1 55h12v-267l-12 10q0 23 -1 46t-8 41.5t-22 30.5t-43 12h-65q-21 0 -33 -4t-18 -13.5t-7.5 -24.5t-1.5 -38v-157q0 -30 1.5 -51.5t8.5 -35t22.5 -20t42.5 -6.5q114 0 187 38t120 125
l10 -3l-86 -172h-531z" />
    <glyph glyph-name="F" unicode="F" horiz-adv-x="553" 
d="M10 12h50q29 0 45.5 6.5t24 20t9 35t1.5 52.5v471q0 24 -1.5 41.5t-9.5 28.5t-25 16t-49 5h-65l20 12h410q47 0 84.5 4.5t53.5 12.5l5 -8q-28 -29 -37.5 -82.5t-9.5 -141.5l-12 11q0 34 -2 68.5t-10.5 62t-25 44.5t-46.5 17h-135q-26 0 -40.5 -5t-21 -16t-7.5 -28.5
t-1 -41.5v-121q0 -31 1.5 -51t7.5 -31.5t18 -15.5t33 -4h61q28 0 44 5.5t23.5 19t9 35.5t1.5 55h12v-267l-12 10q0 23 -1.5 46t-9 41.5t-23.5 30.5t-44 12h-61q-21 0 -33 -4t-18 -13.5t-7.5 -24.5t-1.5 -38v-157q0 -30 1.5 -51.5t8.5 -35t22.5 -20t42.5 -6.5h86l17 -12h-403
z" />
    <glyph glyph-name="G" unicode="G" horiz-adv-x="786" 
d="M450 -20q-91 0 -166.5 25t-129.5 72t-84 116.5t-30 157.5q0 72 28 138.5t77 117.5t116 81.5t145 30.5q53 0 94 -6.5t72.5 -15t55.5 -15t43 -6.5q7 0 17 2l3 -9q-19 -10 -33.5 -35t-25.5 -58t-20 -71.5t-17 -76.5l-10 12q4 19 6 46t-0.5 57t-12.5 59t-31.5 52.5t-55.5 38
t-85 14.5q-58 0 -101.5 -15.5t-74.5 -40.5t-51 -57t-31 -65t-15.5 -64.5t-4.5 -56.5q0 -78 23 -152.5t65 -133t101.5 -94.5t132.5 -36q64 0 108 24.5t69 62t29.5 80.5t-10.5 80.5t-50.5 62t-91.5 24.5h-304l20 13h498l38 -339h-12q-8 60 -17 92t-23 32q-9 0 -26 -22.5
t-46.5 -49.5t-74 -49.5t-107.5 -22.5z" />
    <glyph glyph-name="H" unicode="H" horiz-adv-x="825" 
d="M10 12h50q29 0 45.5 6.5t24 20t9 35t1.5 52.5v471q0 24 -1.5 41.5t-9.5 28.5t-25 16t-49 5h-65l20 12h336l10 -12h-71q-26 0 -40.5 -5t-21 -16t-7.5 -28.5t-1 -41.5v-141q0 -31 1.5 -51t7.5 -31.5t18 -15.5t33 -4h255q28 0 44 4t24 15.5t10 32t2 53.5v138q0 24 -1 41.5
t-8 28.5t-22.5 16t-43.5 5h-66l10 12h336l20 -12h-66q-31 0 -48.5 -5t-25 -16t-9 -28.5t-1.5 -41.5v-472q0 -30 1.5 -51.5t9 -35t24 -20t45.5 -6.5h50l20 -12h-366l10 12h61q26 0 40 6.5t20.5 20t8 35t1.5 52.5v136q0 23 -2 38t-10 24.5t-24 13.5t-44 4h-255q-21 0 -33 -4
t-18 -13.5t-7.5 -24.5t-1.5 -38v-137q0 -30 1.5 -51.5t8.5 -35t22.5 -20t42.5 -6.5h56l10 -12h-366z" />
    <glyph glyph-name="I" unicode="I" horiz-adv-x="355" 
d="M10 12h50q29 0 45.5 6.5t24 20t9 35t1.5 52.5v471q0 24 -1.5 41.5t-9.5 28.5t-25 16t-49 5h-65l20 12h335l20 -12h-66q-31 0 -48.5 -5t-25 -16t-9 -28.5t-1.5 -41.5v-472q0 -30 1.5 -51.5t9 -35t24 -20t45.5 -6.5h50l20 -12h-375z" />
    <glyph glyph-name="J" unicode="J" horiz-adv-x="395" 
d="M-60 -210q14 14 22 32.5t12.5 44t6 59t1.5 77.5l13 -3q0 -35 2 -68.5t11 -60t28 -43t52 -16.5q51 0 76.5 76.5t25.5 236.5v472q0 24 -1 41.5t-8 28.5t-22.5 16t-43.5 5h-76l20 12h326l20 -12h-70q-26 0 -40.5 -5t-21 -16t-7.5 -28.5t-1 -41.5v-473q0 -87 -13 -148.5
t-36.5 -100.5t-56.5 -57t-74 -18q-48 0 -86 -4.5t-54 -12.5z" />
    <glyph glyph-name="K" unicode="K" horiz-adv-x="739" 
d="M10 12h50q29 0 45.5 6.5t24 20t9 35t1.5 52.5v471q0 24 -1.5 41.5t-9.5 28.5t-25 16t-49 5h-65l20 12h326l20 -12h-71q-26 0 -40.5 -5t-21 -16t-7.5 -28.5t-1 -41.5v-320l181 185q67 68 107.5 112t50.5 69.5t-12 35t-80 9.5h-106l20 12h440l20 -12h-65q-33 0 -57.5 -1.5
t-46.5 -8.5t-45.5 -22t-55 -43t-74 -70.5t-103.5 -104.5l226 -322q23 -32 39 -52.5t30.5 -32t30.5 -15.5t38 -4h76l10 -12h-405l10 12h85q29 0 34 15t-21 52l-208 302l-119 -121v-135q0 -30 1.5 -51.5t8.5 -35t22.5 -20t42.5 -6.5h46l10 -12h-356z" />
    <glyph glyph-name="L" unicode="L" horiz-adv-x="545" 
d="M10 12h50q29 0 45.5 6.5t24 20t9 35t1.5 52.5v471q0 24 -1.5 41.5t-9.5 28.5t-25 16t-49 5h-65l20 12h336l19 -12h-66q-31 0 -48.5 -5t-25 -16t-9 -28.5t-1.5 -41.5v-472q0 -30 1.5 -51.5t9 -35t24 -20t45.5 -6.5q55 0 93.5 6.5t67.5 25t51.5 50.5t46.5 83l11 -5
l-84 -172h-491z" />
    <glyph glyph-name="M" unicode="M" horiz-adv-x="985" 
d="M466 -20q-67 157 -113.5 266.5t-77.5 182t-49 113.5t-28 61t-14.5 24.5t-7.5 4.5q-4 0 -6.5 -4.5t-5.5 -22.5t-6.5 -54.5t-9.5 -100.5l-27 -315q-4 -45 -1.5 -70t14.5 -36.5t35 -14t62 -2.5h86l10 -12h-387l20 12h51q33 0 51 8t28 23.5t13 38.5t6 54l41 467
q2 24 -0.5 40.5t-15 26.5t-37.5 14t-68 4h-76l20 12h277l126 -297q39 -93 61 -144.5t34 -76t17 -29.5t10 -5q4 0 7 2.5t9 14t16 36.5t26.5 70t41 113.5t60.5 167.5l53 148h293l20 -12h-141q-26 0 -42 -3.5t-23.5 -13.5t-8.5 -27.5t2 -46.5l56 -471q11 -63 39 -88.5t83 -25.5
h56l20 -12h-457l10 12h61q26 0 47.5 4.5t36.5 16.5t22 33t2 54l-34 285q-9 80 -15.5 125.5t-11 68t-8 28t-7.5 5.5q-2 0 -5 -2.5t-7.5 -10.5t-11 -24.5t-17.5 -45.5q-29 -81 -80.5 -226t-123.5 -343z" />
    <glyph glyph-name="N" unicode="N" horiz-adv-x="809" 
d="M404 363q-53 68 -89.5 115.5t-60.5 78t-38 47.5t-21.5 25.5t-11 10t-6.5 1.5q-11 0 -13.5 -17t-3.5 -46l-11 -443q-1 -41 5 -65.5t19.5 -37t35.5 -16.5t53 -4h86l10 -12h-397l20 12h61q22 0 39 4t29 16.5t19 37t8 66.5l12 473q0 19 -2.5 33.5t-15 24.5t-37 15.5
t-67.5 5.5h-67l20 12h270l437 -563v429q0 44 -9 68.5t-26 36.5t-42 14.5t-57 2.5h-41l10 12h297l20 -12h-46q-22 0 -39.5 -2.5t-29.5 -14.5t-18.5 -36t-6.5 -68v-587z" />
    <glyph glyph-name="O" unicode="O" horiz-adv-x="814" 
d="M406 -20q-78 0 -145 29.5t-116 80t-77 118t-28 143.5t28 143t77 117.5t116 79.5t145 29t145.5 -29t117 -79.5t77.5 -117.5t28 -143t-28 -143.5t-77.5 -118t-117 -80t-145.5 -29.5zM447 -1q54 0 99.5 23t78.5 64.5t51 98.5t18 125q0 91 -31 163t-80 122t-109 76.5
t-119 26.5q-55 0 -99 -22.5t-74.5 -62t-47 -92.5t-16.5 -114q0 -79 26.5 -152.5t71.5 -130.5t104.5 -91t126.5 -34z" />
    <glyph glyph-name="P" unicode="P" horiz-adv-x="585" 
d="M11 12h49q29 0 45.5 6.5t24 20t9 35t1.5 52.5v471q0 24 -1.5 41.5t-9.5 28.5t-25 16t-49 5h-65l20 12h350q30 0 64.5 -6t63.5 -24t48 -50t19 -84t-19.5 -90t-51.5 -62.5t-72 -36.5t-81 -12q-36 0 -56 3q-12 1 -20 2v12q7 -1 16 -2q17 -3 40 -3q29 0 58.5 8t53 27.5
t38.5 53.5t15 86t-20 84.5t-47 50.5t-55.5 24.5t-45.5 6.5q-32 0 -50.5 -2.5t-28 -14.5t-12 -36t-2.5 -68v-442q0 -30 1.5 -51.5t8.5 -35t22.5 -20t42.5 -6.5h56l20 -12h-375z" />
    <glyph glyph-name="Q" unicode="Q" horiz-adv-x="829" 
d="M684 -123q-72 0 -147.5 14.5t-147 42.5t-135 69t-111 94t-75.5 117t-28 139q0 74 27 140t76 116.5t116 80t147 29.5q78 0 145.5 -29t117 -79t77.5 -117t28 -143q0 -69 -23.5 -131t-65.5 -110.5t-99.5 -81t-125.5 -42.5q11 -8 35.5 -20t60.5 -23t82.5 -19t100.5 -8
q72 0 155 18t173 66h12q-98 -63 -196 -93t-199 -30zM440 1q57 0 103.5 22.5t80 63t52 97t18.5 123.5q0 84 -27.5 156t-72.5 125.5t-103 84t-119 30.5q-54 0 -100.5 -24t-80.5 -66.5t-53.5 -100t-19.5 -124.5q0 -76 24.5 -146t68 -123.5t102.5 -85.5t127 -32z" />
    <glyph glyph-name="R" unicode="R" horiz-adv-x="665" 
d="M733 -70q-73 0 -126.5 31.5t-93.5 78.5t-70 103t-57 104.5t-54.5 83t-61.5 38.5l-9 13q27 -3 52 -3q33 0 62.5 6.5t52 23t35.5 44t13 69.5q0 52 -15.5 84.5t-40 50.5t-54.5 24.5t-58 6.5q-31 0 -49.5 -2t-28.5 -11t-12.5 -27t-2.5 -51v-472q0 -30 1.5 -51.5t8.5 -35
t22.5 -20t42.5 -6.5h56l10 -12h-366l20 12h50q29 0 45.5 6.5t24 20t9 35t1.5 52.5v471q0 24 -1.5 41.5t-9.5 28.5t-25 16t-49 5h-65l20 12h350q30 0 64.5 -6t63.5 -24t48 -50t19 -84q0 -39 -19 -69.5t-49.5 -51.5t-69 -33t-77.5 -14q47 -13 81.5 -49.5t63 -83.5t54.5 -99
t56 -95t67 -71t88 -28h25l10 -12h-52z" />
    <glyph glyph-name="S" unicode="S" horiz-adv-x="611" 
d="M313 -20q-44 0 -85.5 13t-74 29.5t-52 31t-19.5 17.5l-12 219l12 10q4 -53 17 -107.5t39.5 -99t69.5 -73t107 -28.5q50 0 84 12.5t55 32.5t30 44.5t9 48.5q0 56 -29.5 94t-73.5 67.5t-95.5 54t-95.5 53t-73.5 65.5t-29.5 90q0 50 19.5 82t50.5 51t69.5 26t75.5 7
q28 0 56.5 -4t56 -8.5t52.5 -8.5t46 -4q15 0 27 3l3 -9q-38 -21 -58 -73t-38 -137l-9 12q12 54 13 95t-13.5 68t-47 40.5t-87.5 13.5q-31 0 -60.5 -5t-52 -18.5t-36.5 -36t-14 -57.5q0 -43 30.5 -75t76.5 -59t99 -53t99 -57t76.5 -70.5t30.5 -94.5q0 -53 -20 -91.5t-54 -63
t-79 -36t-95 -11.5z" />
    <glyph glyph-name="T" unicode="T" horiz-adv-x="637" 
d="M147 12h61q26 0 40 6.5t20.5 20t8 35t1.5 52.5v471q0 24 -1 41.5t-8 28.5t-22.5 16t-43.5 5h-80q-34 0 -52 -22t-26.5 -53t-10 -64t-1.5 -55l-12 -4q0 81 -6.5 135.5t-34.5 83.5l5 8q16 -8 53.5 -12.5t84.5 -4.5h391q47 0 84.5 4.5t53.5 12.5l5 -8q-28 -29 -35 -83.5
t-7 -135.5l-12 4q0 22 -1.5 55t-10 64t-26.5 53t-51 22h-91q-26 0 -40.5 -5t-21 -16t-7.5 -28.5t-1 -41.5v-472q0 -30 1.5 -51.5t8.5 -35t22.5 -20t42.5 -6.5h56l20 -12h-377z" />
    <glyph glyph-name="U" unicode="U" horiz-adv-x="752" 
d="M389 -20q-60 0 -110 17t-85 50.5t-54.5 83t-19.5 115.5v351q0 24 -1.5 41.5t-9.5 28.5t-25.5 16t-49.5 5h-64l20 12h366l20 -12h-111q-26 0 -40.5 -5t-21 -16t-7.5 -28.5t-1 -41.5v-323q0 -52 9 -101t33.5 -87t67.5 -61.5t111 -23.5t111.5 23t68.5 60.5t34.5 85t9.5 97.5
v320q0 37 -3 57.5t-14.5 30t-34 11.5t-60.5 2h-152l20 12h396l20 -12h-64q-33 0 -52.5 -2t-29 -11.5t-12 -30t-2.5 -57.5v-320q0 -47 -9 -98t-36.5 -93t-79.5 -69t-138 -27z" />
    <glyph glyph-name="V" unicode="V" horiz-adv-x="675" 
d="M83 604q-7 18 -15.5 33t-20 26.5t-26 18t-35.5 6.5h-106l10 12h401l20 -12h-101q-22 0 -35 -5t-18 -12.5t-4.5 -17t3.5 -18.5l94 -223q42 -98 66 -155t38 -85.5t21 -36t13 -7.5q4 0 7 2t7.5 8.5t10 18.5t13.5 32l174 436q9 24 8.5 36.5t-12.5 18.5t-37 7t-65 1h-182
l20 12h453l10 -12h-81q-25 0 -41.5 -4t-27.5 -12t-18 -19t-13 -26l-258 -647z" />
    <glyph glyph-name="W" unicode="W" horiz-adv-x="1014" 
d="M83 604q-8 18 -16.5 33t-19.5 26.5t-25.5 18t-35.5 6.5h-106l10 12h1234l10 -12h-81q-25 0 -42 -4t-28 -12t-18 -19t-12 -26l-238 -647l-178 447l-178 -447zM393 128q4 0 7 2t6.5 8.5t9 18.5t13.5 32l101 253l-69 162q-7 18 -15.5 33t-20 26.5t-26 18t-35.5 6.5h-151
q-23 0 -37 -2.5t-19.5 -10t-3.5 -19.5t10 -32l90 -212q42 -98 66.5 -155t39 -85.5t21.5 -36t13 -7.5zM616 644q10 25 1 34.5t-43 9.5q-33 0 -42.5 -10t-0.5 -32l44 -105zM748 128q3 0 5.5 2t5.5 8t8 18t12 33l160 436q9 24 8 36.5t-13 18.5t-36.5 7t-64.5 1h-111
q-28 0 -45 -4t-30.5 -20.5t-28 -49t-37.5 -89.5q37 -96 63 -163t43.5 -111.5t28 -69t17 -36.5t9.5 -14.5t6 -2.5z" />
    <glyph glyph-name="X" unicode="X" horiz-adv-x="676" 
d="M-100 12h71q22 0 39 3.5t32 12t29.5 22t29.5 32.5l206 260l-159 248q-20 31 -35 50t-30.5 29.5t-35 14.5t-48.5 4h-65l20 12h407l20 -12h-121q-20 0 -34.5 -1t-20.5 -6t-3.5 -16.5t15.5 -32.5l127 -201q6 -9 8.5 -11.5t4.5 -2.5q3 0 5 2.5l10 12.5l145 192q14 19 19.5 31
t-3 19.5t-32.5 10.5t-69 3h-51l20 12h312l20 -12h-81q-21 0 -37 -3t-29.5 -11.5t-27 -22.5t-30.5 -35l-163 -213l189 -292q18 -27 31.5 -46t26.5 -30.5t27 -17t31 -5.5h96l10 -12h-539l20 12h183q20 0 34.5 1t20.5 6t4 16t-15 32l-135 216q-17 26 -23 34.5t-11 8.5
q-4 0 -10.5 -7.5t-28.5 -35.5l-163 -208q-15 -19 -20 -31.5t4 -19.5t34 -9.5t70 -2.5h15l21 -12h-357z" />
    <glyph glyph-name="Y" unicode="Y" horiz-adv-x="618" 
d="M107 12h101q26 0 40 6.5t20.5 20t8 35t1.5 52.5v189q0 9 -18 44t-43.5 80t-53.5 92t-49 81q-13 22 -23 36.5t-22.5 23.5t-29 12.5t-43.5 3.5h-86l20 12h340l20 -12h-54q-26 0 -40.5 -3t-15.5 -16.5t12 -41.5t41 -77q34 -58 53 -90.5t29.5 -48t15 -19t7.5 -3.5t5.5 1.5
t7 7t11 15.5t17.5 26l122 186q15 23 16.5 35.5t-10 18.5t-36.5 7.5t-65 1.5h-116l20 12h378l20 -12h-81q-26 0 -42.5 -4t-28.5 -12t-21.5 -20t-20.5 -29l-83 -127q-26 -39 -41.5 -62.5t-23.5 -38t-10.5 -22t-2.5 -15.5v-233q0 -30 1.5 -51.5t8.5 -35t22.5 -20t42.5 -6.5h116
l20 -12h-477z" />
    <glyph glyph-name="Z" unicode="Z" horiz-adv-x="700" 
d="M482 589q26 33 35.5 52.5t4.5 30t-22.5 13.5t-46.5 3h-242q-37 0 -57 -22.5t-29 -54t-10.5 -65t-1.5 -55.5l-12 -11q0 88 -7.5 144t-32.5 85l7 8q14 -8 47.5 -12.5t75.5 -4.5h469l-439 -557q-35 -45 -48.5 -71t-7.5 -39.5t31 -17t65 -3.5h146q48 0 83.5 11t64 37.5
t53 71.5t51.5 113l11 -2l-87 -243h-563z" />
    <glyph glyph-name="bracketleft" unicode="[" horiz-adv-x="286" 
d="M42 788v-922h224v-12h-236v946h236v-12h-224z" />
    <glyph glyph-name="backslash" unicode="\" horiz-adv-x="412" 
d="M20 700h13l359 -810h-14z" />
    <glyph glyph-name="bracketright" unicode="]" horiz-adv-x="286" 
d="M256 -146h-236v12h224v922h-224v12h236v-946z" />
    <glyph glyph-name="asciicircum" unicode="^" horiz-adv-x="504" 
d="M253 682l161 -182h-16l-145 164l-147 -164h-16z" />
    <glyph glyph-name="underscore" unicode="_" horiz-adv-x="519" 
d="M20 -68h479v-12h-479v12z" />
    <glyph glyph-name="grave" unicode="`" horiz-adv-x="329" 
d="M10 600l17 17l292 -80v-12z" />
    <glyph glyph-name="a" unicode="a" horiz-adv-x="486" 
d="M152 -20q-51 0 -81.5 25.5t-30.5 70.5q0 31 14.5 53.5t39 39.5t55.5 30t64 26q23 9 43.5 19t36 22.5t25 26.5t9.5 30t-1.5 44t-10 55.5t-27 47.5t-52.5 20q-27 0 -49 -13.5t-37 -39t-21 -60.5t0 -79l-12 -5l-48 141q19 19 46 34q23 13 56.5 23.5t78.5 10.5
q55 0 84.5 -17.5t43 -46.5t16 -65.5t2.5 -74.5v-219q0 -40 15 -53.5t49 -13.5h41l20 -12h-195v105q-16 -35 -40 -62q-21 -24 -53.5 -43.5t-80.5 -19.5zM191 13q35 0 60 17.5t42 41t25 46t8 32.5v136q-6 -12 -17 -22.5t-26 -19.5t-32 -16.5t-34 -14.5q-21 -9 -40 -17t-33 -20
t-22.5 -29.5t-8.5 -44.5q0 -17 4 -33t13 -28.5t24 -20t37 -7.5z" />
    <glyph glyph-name="b" unicode="b" horiz-adv-x="556" 
d="M296 -20q-37 0 -65 10t-48 24.5t-33 29t-19 23.5l-36 -67h-12v557q0 58 -9.5 80.5t-35.5 22.5q-14 0 -31.5 -4t-40.5 -12l-6 11l186 65h6v-276q29 26 65 42t79 16q41 0 82 -17.5t74 -50.5t53.5 -80.5t20.5 -107.5q0 -61 -20.5 -110.5t-53.5 -84t-74 -53t-82 -18.5z
M313 -6q25 0 50 14.5t44.5 43t31.5 70t12 95.5q0 63 -18 111t-45.5 80.5t-61 49t-64.5 16.5q-25 0 -43 -5.5t-31 -14t-21.5 -18.5t-13.5 -19v-282q11 -27 26.5 -52.5t35.5 -45t44.5 -31.5t53.5 -12z" />
    <glyph glyph-name="c" unicode="c" horiz-adv-x="522" 
d="M288 -20q-50 0 -96.5 19.5t-82.5 55t-57.5 84t-21.5 105.5t21.5 104t57.5 81.5t82.5 53.5t96.5 19q37 0 69 -9t56 -20q28 -13 52 -29l-48 -141l-11 4q3 45 -5 79t-24.5 57t-40 35t-52.5 12q-56 0 -90 -23t-52.5 -55.5t-24.5 -68t-6 -61.5q0 -48 15 -96.5t42.5 -88
t66 -64.5t84.5 -25q63 0 109.5 31.5t72.5 106.5l11 -5q-14 -38 -33.5 -68t-46 -50.5t-62 -31.5t-82.5 -11z" />
    <glyph glyph-name="d" unicode="d" horiz-adv-x="580" 
d="M266 -20q-52 0 -95.5 19.5t-75 55t-48.5 84t-17 105.5t20 104t52.5 81.5t73.5 53.5t83 19q52 0 91 -20.5t65 -58.5v134q0 57 -9.5 80t-35.5 23q-14 0 -32.5 -5t-44.5 -14l-6 11l192 68h6v-641q0 -40 15 -53.5t49 -13.5h41l20 -12h-194v61q-27 -38 -64.5 -59.5
t-85.5 -21.5zM294 -2q37 0 70.5 30t50.5 90v197q-11 41 -30 73t-42.5 53.5t-49.5 32.5t-50 11q-49 0 -77 -21.5t-42 -53t-17.5 -66.5t-3.5 -62q0 -48 11.5 -98t35.5 -91.5t60 -68t84 -26.5z" />
    <glyph glyph-name="e" unicode="e" horiz-adv-x="513" 
d="M275 -20q-51 0 -96 20t-78 55t-52 83t-19 104q0 58 19.5 105.5t52.5 82t75.5 53.5t88.5 19q37 0 71.5 -13t63 -36.5t50 -56.5t32.5 -74h-380q-4 -56 9 -112t40 -101t66.5 -73t89.5 -28q37 0 66.5 15.5t50 41.5t31.5 61.5t11 74.5h12q1 -48 -13.5 -89t-41 -70t-64.5 -45.5
t-85 -16.5zM398 334q-26 69 -70.5 109t-95.5 40q-32 0 -55 -14t-38.5 -35.5t-23.5 -48t-11 -51.5h294z" />
    <glyph glyph-name="f" unicode="f" horiz-adv-x="345" 
d="M10 12h37q34 0 48.5 13.5t14.5 53.5v316h-104l11 12q33 0 51.5 6t27.5 17.5t11 27t2 34.5q0 57 19 104t50.5 81.5t73.5 53.5t88 19q25 0 44 -5t33 -11q16 -8 28 -17l-52 -156l-11 2q25 166 -76 166q-42 0 -67 -20.5t-38.5 -51t-17.5 -65t-4 -62.5v-123h118l22 -12h-139
v-316q0 -40 14.5 -53.5t49.5 -13.5h69l22 -12h-345z" />
    <glyph glyph-name="g" unicode="g" horiz-adv-x="538" 
d="M200 -235q-32 0 -59.5 7t-47.5 21t-31.5 35.5t-11.5 50.5q0 24 9 46.5t24.5 41.5t35.5 34t42 24q-15 0 -31.5 4.5t-30 13.5t-22 23.5t-8.5 35.5q0 17 8 32t19 27t22.5 20.5t18.5 13.5q-32 21 -52.5 55.5t-20.5 81.5q0 39 15.5 70t42 53.5t60.5 34.5t71 12q35 0 58 -2
t48.5 -4t61.5 -4t97 -2v-145l-12 -8q0 67 -27 105.5t-73 38.5q-9 0 -17 -1t-14 -3q-7 -2 -12 -5q34 -23 54 -58.5t20 -81.5q0 -42 -17 -73.5t-44.5 -53.5t-61 -33t-66.5 -11q-26 0 -51.5 7t-48.5 20q-20 -18 -25 -31t-5 -26q0 -29 25 -40.5t70 -11.5h102q34 0 62.5 -5.5
t48.5 -18t31.5 -32t11.5 -48.5q0 -40 -21 -78t-58 -67t-85.5 -47t-104.5 -18zM268 175q24 0 41.5 11t29.5 30t17.5 44.5t5.5 53.5q0 42 -12 74t-30.5 54.5t-41.5 34t-45 11.5q-30 0 -48.5 -14t-29 -33.5t-14 -41.5t-3.5 -39q0 -31 8.5 -64t25 -60t41 -44t55.5 -17zM246 -210
q33 0 64 9.5t56 27.5t40 43.5t15 57.5q0 97 -129 97h-88q-38 0 -62 -30.5t-24 -74.5q0 -26 7.5 -49.5t23 -41.5t40 -28.5t57.5 -10.5z" />
    <glyph glyph-name="h" unicode="h" horiz-adv-x="599" 
d="M13 12h39q34 0 48.5 13.5t14.5 53.5v478q0 57 -9.5 79.5t-35.5 22.5q-14 0 -32 -5t-44 -13l-6 11l190 68h7v-375q2 11 12 37t32 52.5t57.5 47t87.5 20.5q45 0 71 -18t39 -45.5t16.5 -60t3.5 -61.5v-260q0 -16 5 -25t14 -13.5t21 -5.5t25 -1h40l20 -12h-318l20 12h45
q26 0 44.5 7t18.5 38v257q0 27 -4 55t-15 50.5t-31.5 36.5t-53.5 14q-21 0 -47 -11.5t-49 -36.5t-38.5 -63.5t-15.5 -92.5v-187q0 -40 15 -53.5t49 -13.5h42l20 -12h-318z" />
    <glyph glyph-name="i" unicode="i" horiz-adv-x="280" 
d="M141 580q-6 0 -13 4t-13.5 10t-10.5 13t-4 12q0 6 4 13.5t10.5 14t13.5 10.5t13 4t13 -4t13 -10.5t10 -14t4 -13.5q0 -5 -4 -12t-10 -13t-13 -10t-13 -4zM15 12h37q34 0 48.5 13.5t14.5 53.5v260q0 47 -9.5 68.5t-38.5 21.5q-25 0 -74 -17l-5 11l190 69h7v-413
q0 -40 15 -53.5t49 -13.5h41l20 -12h-315z" />
    <glyph glyph-name="j" unicode="j" horiz-adv-x="286" 
d="M154 594q-6 0 -13 4t-13.5 10t-10.5 13t-4 12q0 6 4 13.5t10.5 14t13.5 10.5t13 4t13 -4t13 -10.5t10 -14t4 -13.5q0 -5 -4 -12t-10 -13t-13 -10t-13 -4zM-4 -238h36q32 0 50.5 9t28.5 32t12.5 63.5t2.5 103.5v369q0 47 -9.5 68.5t-39.5 21.5q-25 0 -74 -17l-5 11l191 69
h7v-522q0 -100 -41.5 -160t-120.5 -60h-49z" />
    <glyph glyph-name="k" unicode="k" horiz-adv-x="576" 
d="M13 12h39q34 0 48.5 13.5t14.5 53.5v478q0 57 -9.5 79.5t-35.5 22.5q-14 0 -32.5 -5t-44.5 -13l-5 11l191 68h6v-485l184 173q12 12 20 24.5t6 22.5t-17.5 16.5t-51.5 6.5h-18l-21 12h288l-22 -12h-25q-34 0 -64.5 -13t-64.5 -45l-97 -92l199 -269q22 -29 44 -38t39 -9
h26l21 -12h-301l9 12h37q32 0 42 11t-7 36l-163 218l-63 -59v-161q0 -16 5 -25t14 -13.5t20.5 -5.5t24.5 -1h29l10 -12h-295z" />
    <glyph glyph-name="l" unicode="l" horiz-adv-x="280" 
d="M13 12h39q34 0 48.5 13.5t14.5 53.5v478q0 57 -9.5 79.5t-35.5 22.5q-14 0 -32 -5t-44 -13l-6 11l190 68h7v-641q0 -40 15 -53.5t49 -13.5h41l20 -12h-317z" />
    <glyph glyph-name="m" unicode="m" horiz-adv-x="920" 
d="M-5 0l20 12h37q34 0 48.5 13.5t14.5 53.5v260q0 47 -9.5 68.5t-38.5 21.5q-25 0 -74 -17l-5 11l191 69h7v-147q2 11 12 37t32 52.5t57 47t87 20.5q42 0 67.5 -14.5t39.5 -37.5t19.5 -51.5t6.5 -55.5q2 9 11.5 35t31.5 53.5t57.5 49t89.5 21.5q45 0 70.5 -18t38 -45
t16 -59.5t3.5 -61.5v-261q0 -16 5 -25t14 -13.5t20.5 -5.5t24.5 -1h41l20 -12h-310l20 12h37q26 0 44.5 7t18.5 38v257q0 27 -3.5 55t-14.5 50.5t-30.5 36.5t-52.5 14q-21 0 -47.5 -12t-50 -37.5t-39 -63.5t-15.5 -91v-209q0 -16 5 -25t14 -13.5t20.5 -5.5t24.5 -1h49
l20 -12h-331l20 12h45q26 0 44.5 7t18.5 38v257q0 27 -3.5 55t-14.5 50.5t-30.5 36.5t-52.5 14q-21 0 -47.5 -11.5t-49.5 -36t-38.5 -63.5t-15.5 -93v-209q0 -16 5 -25t14 -13.5t20.5 -5.5t24.5 -1h40l20 -12h-314z" />
    <glyph glyph-name="n" unicode="n" horiz-adv-x="599" 
d="M15 12h37q34 0 48.5 13.5t14.5 53.5v260q0 47 -9.5 68.5t-38.5 21.5q-25 0 -74 -17l-5 11l192 69h6v-147q2 11 12.5 37t32.5 52.5t57.5 47t87.5 20.5q44 0 69.5 -18t38.5 -45t16.5 -59.5t3.5 -61.5v-261q0 -16 5 -25t14 -13.5t21 -5.5t25 -1h40l20 -12h-320l20 12h47
q26 0 44.5 7t18.5 38v257q0 27 -3.5 55t-14.5 50.5t-31 36.5t-53 14q-21 0 -47.5 -11.5t-50 -36.5t-39 -63.5t-15.5 -92.5v-209q0 -16 5 -25t14 -13.5t20.5 -5.5t24.5 -1h40l20 -12h-314z" />
    <glyph glyph-name="o" unicode="o" horiz-adv-x="581" 
d="M290 -20q-50 0 -97 19.5t-83 55t-58 83.5t-22 105t22 104.5t58 82t83 53.5t97 19q51 0 98 -19t83 -53.5t58 -82t22 -104.5t-22 -105t-58 -83.5t-83 -55t-98 -19.5zM321 -4q28 0 55.5 14t49 41t35 68t13.5 95q0 63 -19.5 113.5t-50.5 86t-67.5 54t-71.5 18.5
q-48 0 -79 -22.5t-49 -54.5t-25 -67t-7 -61q0 -47 15 -97.5t43 -92t68 -68.5t90 -27z" />
    <glyph glyph-name="p" unicode="p" horiz-adv-x="581" 
d="M15 -238h37q34 0 48.5 13.5t14.5 53.5v520q0 47 -9.5 68.5t-38.5 21.5q-25 0 -74 -17l-5 11l189 69h7v-50q26 23 58 36.5t64 13.5q45 0 88 -17t77 -50t54.5 -81.5t20.5 -110.5q0 -61 -20.5 -109.5t-53.5 -82.5t-74 -52t-82 -18q-47 0 -77.5 12.5t-53.5 28.5v-182
q0 -24 4 -39t15 -24t29.5 -12t47.5 -3h49l21 -12h-357zM333 -5q29 0 54.5 16t44 45t29 69t10.5 89q0 65 -18 115.5t-45.5 84.5t-61 51.5t-64.5 17.5q-33 0 -56.5 -17.5t-40.5 -49.5v-318q20 -44 55.5 -73.5t92.5 -29.5z" />
    <glyph glyph-name="q" unicode="q" horiz-adv-x="527" 
d="M246 -238h49q25 0 43.5 2t30.5 10.5t17.5 26.5t5.5 50v152q-27 -14 -55 -19t-56 -5q-49 0 -94 20t-80 55t-56 83.5t-21 106.5q0 57 21 104t56 81.5t80 53.5t94 19q24 0 43 -5t35 -13t29 -18.5t26 -21.5l33 47h15v-662q0 -40 15 -53.5t49 -13.5h42l19 -12h-373zM313 -6
q40 0 79 33v374q-26 35 -59.5 58t-75.5 23q-54 0 -85 -21.5t-46.5 -52.5t-19.5 -65.5t-4 -60.5q0 -48 14.5 -99t42 -93t66.5 -69t88 -27z" />
    <glyph glyph-name="r" unicode="r" horiz-adv-x="410" 
d="M15 12h37q34 0 48.5 13.5t14.5 53.5v260q0 47 -9.5 68.5t-38.5 21.5q-25 0 -74 -17l-5 11l190 69h7v-146q1 12 5.5 38t17.5 52t37 46t64 20q23 0 40 -7.5t28 -17.5q13 -11 23 -25l-48 -130l-11 3q4 25 4 52.5t-5.5 50.5t-18 38t-33.5 15q-27 0 -46 -20t-31 -53t-18 -75
t-8 -87v-166q0 -41 15 -54.5t49 -13.5h60l22 -12h-336z" />
    <glyph glyph-name="s" unicode="s" horiz-adv-x="435" 
d="M215 -20q-33 0 -61.5 8.5t-50 19.5t-34 20.5t-12.5 11.5l-12 123h12q20 -84 61 -127.5t102 -43.5q48 0 75.5 23.5t27.5 62.5q0 35 -19.5 60t-49 45t-64 38t-64 39t-49 47.5t-19.5 63.5q0 35 13.5 60t34.5 40.5t47.5 23t52.5 7.5q40 0 69 -10.5t47.5 -23.5t27.5 -24t9 -12
l-44 -112l-10 4q7 86 -18.5 126t-79.5 40q-45 0 -67.5 -25t-22.5 -58q0 -31 20 -55t50.5 -44t66 -39t66 -40t50.5 -46t20 -58q0 -32 -13.5 -59t-37 -46t-55.5 -29.5t-69 -10.5z" />
    <glyph glyph-name="t" unicode="t" horiz-adv-x="400" 
d="M244 -10q-78 0 -113.5 42t-35.5 123v323h-90l21 12q25 0 43.5 7.5t33 26.5t26 52t21.5 84h12v-170h162l21 -12h-180v-334q0 -65 21.5 -98t72.5 -33q54 0 84 52t30 147h12q0 -43 -6.5 -83t-22.5 -71t-43 -49.5t-69 -18.5z" />
    <glyph glyph-name="u" unicode="u" horiz-adv-x="579" 
d="M237 -20q-50 0 -78.5 18t-42.5 45t-17.5 59.5t-3.5 60.5v211q0 38 -2.5 59t-15 31t-37.5 12t-70 2l20 12h170v-321q0 -28 4 -56t16 -50.5t34.5 -36.5t59.5 -14q31 0 57 17t44.5 45t28.5 63.5t10 71.5v179q0 33 -5.5 51t-24 26.5t-54.5 10.5t-97 2l21 12h230v-425
q0 -19 5 -29.5t14 -15.5t21 -6.5t25 -1.5h40l20 -12h-194v138q-2 -9 -10.5 -35t-28.5 -53.5t-53.5 -48.5t-85.5 -21z" />
    <glyph glyph-name="v" unicode="v" horiz-adv-x="482" 
d="M53 433q-11 27 -24 36t-39 9h-50l22 12h265l32 -12h-77q-13 0 -25.5 -1t-20.5 -5.5t-10.5 -13.5t3.5 -25l143 -343l119 332q6 20 4 31.5t-11 17t-24 6.5t-35 1h-65l32 12h235l20 -12h-48q-21 0 -35.5 -1.5t-25 -7t-18.5 -16.5t-16 -31l-160 -445z" />
    <glyph glyph-name="w" unicode="w" horiz-adv-x="758" 
d="M828 478h-45q-20 0 -34 -1.5t-24.5 -7t-17.5 -16.5t-14 -31l-151 -445l-154 402l-137 -402l-197 456q-12 27 -26.5 36t-47.5 9h-40l22 12h245l32 -12h-53q-13 0 -26 -1.5t-22 -6t-12 -13.5t4 -24l147 -342l104 306l-14 36q-5 14 -10 22.5t-12.5 13.5t-19 7t-28.5 2h-58
l32 12h252l32 -12h-61q-36 0 -52.5 -7.5t-5.5 -37.5l132 -342l112 331q7 21 5.5 32.5t-9.5 16.5t-21 6t-28 1h-72l31 12h222z" />
    <glyph glyph-name="x" unicode="x" horiz-adv-x="520" 
d="M-19 13h26q20 0 34 1.5t26 7t24 17t27 30.5l116 158l-133 205q-17 27 -37 36t-37 9h-46l20 13h252l32 -13h-55q-27 0 -40.5 -2.5t-17.5 -8t0.5 -14t11.5 -20.5l94 -143l97 132q15 21 20.5 32t0.5 16.5t-20.5 6.5t-42.5 1h-48l32 13h212l20 -13h-46q-21 0 -35.5 -1.5
t-27 -7t-24 -16.5t-26.5 -31l-105 -143l143 -220q17 -26 37 -35.5t38 -9.5h36l21 -13h-329l31 13h38q27 0 40 2.5t16.5 8t0 14t-10.5 20.5l-104 159l-111 -153q-13 -18 -14.5 -28.5t5.5 -15.5t21.5 -6t33.5 -1h18l36 -13h-276z" />
    <glyph glyph-name="y" unicode="y" horiz-adv-x="480" 
d="M6 -238q36 0 66.5 5.5t56.5 22t47.5 46t38.5 76.5l28 76l-179 444q-11 27 -25.5 36.5t-48.5 9.5h-45l20 12h265l33 -12h-71q-17 0 -30 -1.5t-20.5 -6t-8.5 -13.5t5 -25l140 -346l121 335q7 21 5 33t-11 17t-24.5 6t-35.5 1h-70l31 12h241l20 -12h-46q-21 0 -36 -1.5
t-25.5 -7.5t-19 -17t-16.5 -31l-243 -671h-184z" />
    <glyph glyph-name="z" unicode="z" horiz-adv-x="499" 
d="M334 419q25 33 15 46t-64 13h-87q-36 0 -56 -10.5t-30 -28.5t-12.5 -42.5t-2.5 -53.5l-11 -4q-4 38 -7 66t-5 47q-3 22 -5 38h392l-285 -387q-39 -53 -33.5 -72t48.5 -19h81q33 0 60 7t49.5 25t42 49t38.5 79l12 -1l-59 -171h-390z" />
    <glyph glyph-name="braceleft" unicode="{" horiz-adv-x="388" 
d="M367 -200q-48 0 -83 15.5t-58.5 43.5t-37.5 65.5t-21.5 81.5t-10 92.5t-2.5 97.5q0 42 -19.5 63.5t-42.5 30.5q-27 10 -62 9v37q35 0 62 10q23 9 42.5 29.5t19.5 61.5q0 99 9 168t33 112.5t65.5 63t106.5 19.5v-12q-61 0 -99 -18t-59 -59t-28.5 -108.5t-7.5 -166.5
q0 -40 -19 -62.5t-42.5 -33.5t-44.5 -13.5t-26 -2.5v-12q5 0 26.5 -2.5t45 -14t42 -34.5t18.5 -65q0 -74 4.5 -143t23 -122.5t57.5 -86t108 -32.5v-12z" />
    <glyph glyph-name="bar" unicode="|" horiz-adv-x="412" 
d="M200 800h12v-1000h-12v1000z" />
    <glyph glyph-name="braceright" unicode="}" horiz-adv-x="388" 
d="M21 -188q69 0 108 32.5t57.5 86t23 122.5t4.5 143q0 42 18.5 65t42 34.5t45 14t26.5 2.5v12q-5 0 -26 2.5t-44.5 13.5t-42.5 33.5t-19 62.5q0 99 -7.5 166.5t-28.5 108.5t-59 59t-99 18v12q65 0 106.5 -19.5t65.5 -63t33 -112.5t9 -168q0 -41 19.5 -61.5t42.5 -29.5
q27 -10 62 -10v-37q-35 1 -62 -9q-23 -9 -42.5 -30.5t-19.5 -63.5q0 -73 -6 -144.5t-27.5 -127t-64 -90t-115.5 -34.5v12z" />
    <glyph glyph-name="asciitilde" unicode="~" horiz-adv-x="596" 
d="M407 218q-29 0 -50.5 13t-41.5 29t-43 29t-55 13q-29 0 -51 -12.5t-36 -28.5q-18 -18 -30 -41l-10 6q13 25 31 44q16 17 40 30.5t56 13.5q35 0 58.5 -13t43.5 -29t40 -29t48 -13q26 0 42.5 8.5t26.5 18.5q11 12 17 27l13 -6q-8 -17 -21 -30q-12 -11 -30.5 -20.5
t-47.5 -9.5z" />
    <glyph glyph-name="exclamdown" unicode="&#xa1;" horiz-adv-x="127" 
d="M71 510q6 0 13 -4t13 -10t10 -13t4 -12q0 -6 -4 -13.5t-10 -14t-13 -10.5t-13 -4t-13 4t-13.5 10.5t-10.5 14t-4 13.5q0 5 4 12t10.5 13t13.5 10t13 4zM75 333l19 -542h-50l20 542h11z" />
    <glyph glyph-name="cent" unicode="&#xa2;" horiz-adv-x="528" 
d="M488 245q-13 -35 -30.5 -62.5t-42.5 -46.5t-58 -29t-77 -10v-117h-12v117q-45 3 -86 21.5t-72.5 50.5t-50.5 75t-19 94t19 93.5t50.5 74t72.5 50t86 20.5v100h12v-100q35 0 64.5 -8t52.5 -19q26 -12 48 -27l-45 -130l-13 4q11 46 4 77.5t-24 51.5t-40.5 29t-46.5 10v-449
q14 -3 29 -3q57 0 100.5 34.5t67.5 103.5zM115 373q0 -38 11 -78.5t31 -76t48.5 -62.5t62.5 -38v446q-49 -2 -79 -23t-46.5 -50.5t-22 -61.5t-5.5 -56z" />
    <glyph glyph-name="sterling" unicode="&#xa3;" horiz-adv-x="668" 
d="M628 172l-86 -172h-502q54 28 89 58t54.5 60.5t27 60t7.5 57.5q0 23 -6.5 43.5t-17.5 40.5h-114v12h107q-13 23 -28.5 46t-28.5 47.5t-21.5 51.5t-8.5 57q0 33 14.5 66t42.5 59.5t69.5 43t95.5 16.5q59 0 98.5 -16t63 -44.5t33.5 -67.5t10 -84h-12q0 36 -11.5 70
t-35.5 59.5t-60 41t-86 15.5q-43 0 -71 -13.5t-43.5 -33.5t-21.5 -44.5t-6 -47.5q0 -32 10 -60.5t25 -55.5t31.5 -53t29.5 -53h155v-12h-149q16 -37 16 -74q0 -39 -19.5 -75t-50.5 -67t-68 -54.5t-72 -37.5h223q114 0 185.5 39t118.5 126z" />
    <glyph glyph-name="currency" unicode="&#xa4;" horiz-adv-x="542" 
d="M46 69l95 114q-29 26 -46.5 63t-17.5 80q0 44 18 81.5t49 63.5l-104 124l9 7l104 -124q24 18 53.5 28t61.5 10q34 0 64 -10.5t54 -30.5l107 127l9 -7l-107 -128q29 -26 46 -62.5t17 -78.5t-16 -78t-44 -62l98 -117l-9 -7l-98 117q-25 -21 -55.5 -32.5t-65.5 -11.5
q-34 0 -64 10.5t-54 29.5l-95 -113zM268 147q39 0 71.5 15t56.5 39.5t37 57t13 67.5t-13 67.5t-37 57t-56.5 39t-71.5 14.5t-72 -14.5t-56.5 -39t-37 -57t-13.5 -67.5t13.5 -67.5t37 -57t56.5 -39.5t72 -15z" />
    <glyph glyph-name="yen" unicode="&#xa5;" horiz-adv-x="628" 
d="M107 12h101q26 0 40 6.5t20.5 20t8 35t1.5 52.5v134h-198v12h198v46q0 5 -6 18.5t-16 33.5h-176v12h170q-13 25 -31 55.5t-36.5 61.5t-36.5 60.5t-32 52.5q-5 9 -13.5 22t-20.5 25t-28 20.5t-36 8.5h-106l10 12h350l20 -12h-54q-22 0 -33.5 -5t-16 -12t-3.5 -15t4 -15
l125 -231q9 -17 13 -21t10 -4q7 0 18.5 16.5t25.5 37.5l122 186q15 23 17 35.5t-9.5 18.5t-37 7.5t-65.5 1.5h-116l20 12h388l10 -12h-81q-26 0 -42.5 -4t-28.5 -12t-21.5 -20t-20.5 -29l-83 -127q-37 -55 -52.5 -80t-19.5 -34h202v-12h-208v-98h208v-12h-208v-135
q0 -30 1.5 -51.5t8.5 -35t22.5 -20t42.5 -6.5h116l20 -12h-477z" />
    <glyph glyph-name="brokenbar" unicode="&#xa6;" horiz-adv-x="412" 
d="M200 800h12v-346h-12v346zM200 146h12v-346h-12v346z" />
    <glyph glyph-name="section" unicode="&#xa7;" horiz-adv-x="600" 
d="M310 -59q-25 0 -50.5 6.5t-48 14t-42 12.5t-32.5 2l-2 6q26 14 39.5 50t26.5 94l10 -8q-8 -37 -7 -67.5t12 -52.5t34 -33.5t59 -11.5q51 0 76.5 23t25.5 63q0 30 -20.5 50t-50.5 36.5t-66 32.5t-66 36.5t-50.5 50t-20.5 72.5q0 35 14 59.5t37.5 41t52.5 24.5t59 8
q-29 16 -55 32t-46 34t-32 40t-12 50q0 30 11.5 52t30 35.5t41 20t44.5 6.5q25 0 49 -5t45 -10.5t38.5 -9t30.5 -0.5l2 -6q-26 -14 -39.5 -50t-26.5 -94l-10 8q8 38 9 66.5t-8.5 48.5t-31 30t-57.5 10q-18 0 -34.5 -4.5t-29 -13.5t-20.5 -23.5t-8 -34.5q0 -27 19.5 -47.5
t49 -38t63.5 -34.5t63.5 -38.5t49 -49t19.5 -65.5q0 -39 -13 -66.5t-35 -45.5t-52 -26.5t-64 -8.5q29 -16 57 -29t50 -28.5t35.5 -36.5t13.5 -53q0 -61 -39 -92.5t-98 -31.5zM273 222q68 0 101.5 25t33.5 69t-26 72.5t-64 50.5q-60 0 -97 -23t-37 -66q0 -45 25.5 -75
t63.5 -53z" />
    <glyph glyph-name="dieresis" unicode="&#xa8;" horiz-adv-x="258" 
d="M51 555q-6 0 -13 4t-13.5 10t-10.5 13t-4 12q0 6 4 13.5t10.5 14t13.5 10.5t13 4t13 -4t13 -10.5t10 -14t4 -13.5q0 -5 -4 -12t-10 -13t-13 -10t-13 -4zM211 555q-6 0 -13 4t-13.5 10t-10.5 13t-4 12q0 6 4 13.5t10.5 14t13.5 10.5t13 4t13 -4t13 -10.5t10 -14t4 -13.5
q0 -5 -4 -12t-10 -13t-13 -10t-13 -4z" />
    <glyph glyph-name="copyright" unicode="&#xa9;" horiz-adv-x="763" 
d="M382 -85q-75 0 -141 30.5t-115 81.5t-77.5 119t-28.5 143t28.5 140.5t77.5 114.5t115 77.5t141 28.5t140.5 -28.5t114.5 -77.5t77.5 -114.5t28.5 -140.5t-28.5 -143t-77.5 -119t-114.5 -81.5t-140.5 -30.5zM382 -73q72 0 135.5 29.5t111 79t75 115t27.5 138.5
q0 72 -27.5 135.5t-75 111t-111 75t-135.5 27.5q-73 0 -136.5 -27.5t-111 -75t-75 -111t-27.5 -135.5q0 -73 27.5 -138.5t75 -115t111 -79t136.5 -29.5zM390 76q-41 0 -79 15.5t-67 43.5t-46.5 66.5t-17.5 84.5q0 45 17.5 83.5t46.5 66t67 43t79 15.5q30 0 56 -7.5t46 -15.5
q23 -11 42 -24l-40 -113l-10 4q10 41 3.5 68.5t-22.5 44.5t-37 24t-41 7q-45 0 -72 -18t-41 -43.5t-18 -54.5t-4 -50q0 -38 11.5 -77.5t33 -72t51.5 -53t67 -20.5q52 0 88 28.5t58 88.5l11 -5q-23 -61 -64 -95t-118 -34z" />
    <glyph glyph-name="guillemotleft" unicode="&#xab;" horiz-adv-x="428" 
d="M66 290l182 -191h-17l-181 191l181 202h16zM378 99h-17l-181 191l181 202h16l-181 -202z" />
    <glyph glyph-name="logicalnot" unicode="&#xac;" horiz-adv-x="599" 
d="M497 280h-407v12h419v-134h-12v122z" />
    <glyph glyph-name="uni00AD" unicode="&#xad;" horiz-adv-x="299" 
d="M-10 252h299v-12h-299v12z" />
    <glyph glyph-name="registered" unicode="&#xae;" horiz-adv-x="411" 
d="M205 343q-36 0 -68 13t-56 37t-37.5 57.5t-13.5 74.5q0 38 13.5 70t37.5 55t56 36.5t68 13.5t68 -13.5t56 -36.5t38 -55t14 -70q0 -41 -14 -74.5t-38 -57.5t-56 -37t-68 -13zM205 355q35 0 65 13t52 35.5t34.5 53.5t12.5 68q0 33 -12.5 62.5t-34.5 52t-52 35.5t-65 13
q-36 0 -65.5 -13t-51.5 -35.5t-34 -52t-12 -62.5q0 -37 12 -68t34 -53.5t51.5 -35.5t65.5 -13zM294 425q-25 0 -37.5 16.5t-20.5 36.5t-15.5 37t-23.5 19l-2 11h8q19 0 25 9t6 21t-5.5 22.5t-22.5 10.5q-16 0 -19.5 -3.5t-3.5 -20.5v-90q0 -16 2 -28t16 -12h15l13 -12h-121
l4 12h14q13 0 15 12t2 28v90q0 12 -2 18t-16 6h-17l4 12h103q20 0 39 -8t19 -34q0 -20 -14.5 -31.5t-34.5 -12.5q21 -6 31 -21.5t16 -32.5t12.5 -30t21.5 -13l12 -12h-23z" />
    <glyph glyph-name="macron" unicode="&#xaf;" horiz-adv-x="525" 
d="M20 640h485l10 -12h-505z" />
    <glyph glyph-name="degree" unicode="&#xb0;" horiz-adv-x="449" 
d="M200 398q-31 0 -58.5 12t-47.5 32t-32 47.5t-12 58.5t12 58.5t32 47.5t47.5 32t58.5 12t58 -12t47.5 -32t32 -47.5t11.5 -58.5t-11.5 -58.5t-32 -47.5t-47.5 -32t-58 -12zM200 410q28 0 53 11t44 29.5t30 43.5t11 53q0 29 -11 54.5t-30 44.5t-44 29.5t-53 10.5t-53 -10.5
t-44 -29.5t-30 -44.5t-11 -54.5q0 -28 11 -53t30 -43.5t44 -29.5t53 -11z" />
    <glyph glyph-name="plusminus" unicode="&#xb1;" horiz-adv-x="599" 
d="M509 312v-12h-209v-137h-12v137h-198v12h198v140h12v-140h209zM90 102h419v-12h-419v12z" />
    <glyph glyph-name="twosuperior" unicode="&#xb2;" horiz-adv-x="279" 
d="M20 400q49 57 81 94.5t50.5 63.5t25.5 43.5t7 32.5q0 30 -17 42.5t-45 12.5q-21 0 -32 -9t-15 -25t-3.5 -38.5t2.5 -49.5l-12 -5q0 22 -2 42.5t-6 37.5t-9.5 29t-13.5 16v13q16 -3 37 -2t55 1q20 0 38 -4t32 -13t22.5 -22.5t8.5 -32.5q0 -22 -13 -46.5t-30.5 -48.5
t-36 -46t-30 -38.5t-11.5 -26t19 -9.5h58q32 0 51 30.5t39 87.5l9 -1l-38 -129h-221z" />
    <glyph glyph-name="threesuperior" unicode="&#xb3;" horiz-adv-x="278" 
d="M136 380q-20 0 -37 4.5t-29 9.5q-13 5 -24 13l-6 120l12 5q1 -35 9 -61.5t20.5 -44t28.5 -26t33 -8.5q34 0 52 23.5t18 55.5q0 31 -19 50.5t-47 19.5q-17 0 -37 -9l-6 9q35 22 60.5 41.5t25.5 48.5q0 57 -55 57q-22 0 -33 -6t-15 -17t-3 -27.5t2 -37.5l-12 -6
q0 36 -7.5 65t-22.5 37l1 4q5 -2 10 -2h11q13 0 28 1t32 1q15 0 33.5 -2t34.5 -8.5t26.5 -18.5t10.5 -32q0 -29 -27 -48.5t-63 -39.5q12 4 28 4q34 0 61.5 -20t27.5 -57q0 -22 -10.5 -40.5t-28 -31t-39 -19.5t-44.5 -7z" />
    <glyph glyph-name="acute" unicode="&#xb4;" horiz-adv-x="346" 
d="M10 537l292 80l17 -17l-309 -75v12z" />
    <glyph glyph-name="paragraph" unicode="&#xb6;" horiz-adv-x="773" 
d="M216 12h56q27 0 42.5 6.5t22.5 20t8.5 35t1.5 51.5v423q0 36 -1.5 62.5t-11 44t-29.5 25.5t-58 8q-48 0 -80 -13t-51.5 -35.5t-28 -52.5t-8.5 -63q0 -52 14.5 -86t38.5 -53.5t55.5 -27.5t66.5 -8q34 0 53 3q13 1 23 2v-12q-8 -1 -20 -2q-18 -3 -56 -3q-52 0 -98.5 12
t-81 36.5t-54.5 62.5t-20 90q0 45 19 75.5t51 50t75.5 28t92.5 8.5h515l20 -12h-66q-28 0 -43.5 -5t-22.5 -16t-8 -28.5t-1 -41.5v-471q0 -31 1.5 -52.5t8 -35t21 -20t39.5 -6.5h51l20 -12h-567zM487 12q26 0 40 6.5t20.5 20.5t8 35t1.5 51v472q0 24 -1 41t-7 28t-19.5 16.5
t-37.5 5.5q-26 0 -40 -5.5t-21 -16.5t-8 -28t-1 -41v-471q0 -30 1.5 -51.5t7.5 -35.5t19 -20.5t37 -6.5z" />
    <glyph glyph-name="periodcentered" unicode="&#xb7;" horiz-adv-x="292" 
d="M147 249q-6 0 -14.5 5t-15.5 12t-12 14.5t-5 13.5t5 14.5t12 15.5t15.5 12t14.5 5t13.5 -5t14.5 -12t12 -15.5t5 -14.5t-5 -13.5t-12 -14.5t-14.5 -12t-13.5 -5z" />
    <glyph glyph-name="onesuperior" unicode="&#xb9;" horiz-adv-x="258" 
d="M39 412h41q17 0 26.5 3t14 11t5.5 21.5t1 34.5v141q0 21 -16 21q-12 0 -34.5 -9.5t-56.5 -26.5v13l147 79h69l13 -12q-30 0 -46.5 -1t-24.5 -6t-9.5 -14.5t-1.5 -27.5v-158q0 -20 1 -33.5t6 -21.5t15.5 -11t28.5 -3h37l13 -12h-242z" />
    <glyph glyph-name="guillemotright" unicode="&#xbb;" horiz-adv-x="428" 
d="M248 290l-181 -191h-17l182 191l-181 202h16zM378 290l-181 -191h-17l182 191l-181 202h16z" />
    <glyph glyph-name="onequarter" unicode="&#xbc;" horiz-adv-x="644" 
d="M59 412h41q17 0 26.5 3t14 11t5.5 21.5t1 34.5v141q0 21 -16 21q-12 0 -34.5 -9.5t-56.5 -26.5v13l147 79h69l13 -12q-30 0 -46.5 -1t-24.5 -6t-9.5 -14.5t-1.5 -27.5v-158q0 -20 1 -33.5t6 -21.5t15.5 -11t28.5 -3h37l13 -12h-242zM578 700h15l-496 -700h-15zM474 67
h-153v8l181 230h12v-226q23 0 36.5 6t21 18t11.5 30.5t7 43.5l14 12l-17 -123h-73v-81h-40v82zM474 79v171l-98 -125q-8 -10 -14 -18.5t-6 -14.5t7 -9.5t23 -3.5h88z" />
    <glyph glyph-name="onehalf" unicode="&#xbd;" horiz-adv-x="706" 
d="M59 412h41q17 0 26.5 3t14 11t5.5 21.5t1 34.5v141q0 21 -16 21q-12 0 -34.5 -9.5t-56.5 -26.5v13l147 79h69l13 -12q-30 0 -46.5 -1t-24.5 -6t-9.5 -14.5t-1.5 -27.5v-158q0 -20 1 -33.5t6 -21.5t15.5 -11t28.5 -3h37l13 -12h-242zM578 700h15l-496 -700h-15zM377 0
q49 57 81 94.5t50.5 63.5t25.5 43.5t7 32.5q0 30 -17 42.5t-45 12.5q-21 0 -32 -9t-15 -25t-3.5 -38.5t2.5 -49.5l-12 -5q0 22 -2 42.5t-6 37.5t-9.5 29t-13.5 16v13q16 -3 37 -2t55 1q20 0 38 -4t32 -13t22.5 -22.5t8.5 -32.5q0 -22 -13 -46.5t-30.5 -48.5t-36 -46
t-30 -38.5t-11.5 -26t19 -9.5h58q32 0 51 30.5t39 87.5l9 -1l-38 -129h-221z" />
    <glyph glyph-name="threequarters" unicode="&#xbe;" horiz-adv-x="644" 
d="M136 380q-20 0 -37 4.5t-29 9.5q-13 5 -24 13l-6 120l12 5q1 -35 9 -61.5t20.5 -44t28.5 -26t33 -8.5q34 0 52 23.5t18 55.5q0 31 -19 50.5t-47 19.5q-17 0 -37 -9l-6 9q35 22 60.5 41.5t25.5 48.5q0 57 -55 57q-22 0 -33 -6t-15 -17t-3 -27.5t2 -37.5l-12 -6
q0 36 -7.5 65t-22.5 37l1 4q5 -2 10 -2h11q13 0 28 1t32 1q15 0 33.5 -2t34.5 -8.5t26.5 -18.5t10.5 -32q0 -29 -27 -48.5t-63 -39.5q12 4 28 4q34 0 61.5 -20t27.5 -57q0 -22 -10.5 -40.5t-28 -31t-39 -19.5t-44.5 -7zM570 700h15l-496 -700h-15zM474 67h-153v8l181 230h12
v-226q23 0 36.5 6t21 18t11.5 30.5t7 43.5l14 12l-17 -123h-73v-81h-40v82zM474 79v171l-98 -125q-8 -10 -14 -18.5t-6 -14.5t7 -9.5t23 -3.5h88z" />
    <glyph glyph-name="questiondown" unicode="&#xbf;" horiz-adv-x="503" 
d="M231 510q6 0 13 -4t13.5 -10t10.5 -13t4 -12q0 -6 -4 -13.5t-10.5 -14t-13.5 -10.5t-13 -4t-13 4t-13 10.5t-10 14t-4 13.5q0 5 4 12t10 13t13 10t13 4zM242 265q0 -42 -11 -76t-27 -62t-35.5 -53t-35.5 -49t-27 -50t-11 -56q0 -36 11 -62t30.5 -42.5t45.5 -24t57 -7.5
q59 0 89 14.5t43 42.5t14 69.5t1 95.5l11 13q1 -44 6 -82.5t14.5 -70t23 -54t32.5 -32.5l-3 -9q-14 3 -32 4t-38 1q-38 0 -80.5 -2t-80.5 -2q-106 0 -157.5 36.5t-51.5 101.5q0 36 15 63t37 50.5t48 46t48 50t37 63t15 83.5h12z" />
    <glyph glyph-name="Agrave" unicode="&#xc0;" horiz-adv-x="667" 
d="M136 820l13 19l356 -53v-12zM-100 12h50q16 0 32 1.5t31.5 7.5t29 19t23.5 35q8 18 22.5 51.5t33.5 76t40 91t42 96.5q49 113 106 244q-5 15 -23 27q-16 11 -47.5 19t-88.5 8h-135l20 12h317l264 -629q14 -32 39 -45.5t57 -13.5h54l20 -12h-439l19 12h83q33 0 50.5 5
t21 21t-5 46.5t-28.5 81.5q-7 20 -16.5 30.5t-21.5 15t-26 5.5t-31 1h-176q-24 0 -39 -1.5t-26 -8t-19.5 -19.5t-18.5 -36q-21 -46 -30 -74t-4.5 -43t23.5 -19.5t55 -4.5h81l20 -12h-379zM393 230q38 0 47 18t-6 60l-118 310l-139 -320q-9 -21 -12 -34.5t1 -21t16.5 -10
t34.5 -2.5h176z" />
    <glyph glyph-name="Aacute" unicode="&#xc1;" horiz-adv-x="667" 
d="M145 786l356 53l13 -19l-369 -46v12zM-100 12h50q16 0 32 1.5t31.5 7.5t29 19t23.5 35q8 18 22.5 51.5t33.5 76t40 91t42 96.5q49 113 106 244q-5 15 -23 27q-16 11 -47.5 19t-88.5 8h-135l20 12h317l264 -629q14 -32 39 -45.5t57 -13.5h54l20 -12h-439l19 12h83
q33 0 50.5 5t21 21t-5 46.5t-28.5 81.5q-7 20 -16.5 30.5t-21.5 15t-26 5.5t-31 1h-176q-24 0 -39 -1.5t-26 -8t-19.5 -19.5t-18.5 -36q-21 -46 -30 -74t-4.5 -43t23.5 -19.5t55 -4.5h81l20 -12h-379zM393 230q38 0 47 18t-6 60l-118 310l-139 -320q-9 -21 -12 -34.5t1 -21
t16.5 -10t34.5 -2.5h176z" />
    <glyph glyph-name="Acircumflex" unicode="&#xc2;" horiz-adv-x="667" 
d="M323 893l211 -125h-40l-171 111l-173 -111h-40zM-100 12h50q16 0 32 1.5t31.5 7.5t29 19t23.5 35q8 18 22.5 51.5t33.5 76t40 91t42 96.5q49 113 106 244q-5 15 -23 27q-16 11 -47.5 19t-88.5 8h-135l20 12h317l264 -629q14 -32 39 -45.5t57 -13.5h54l20 -12h-439l19 12
h83q33 0 50.5 5t21 21t-5 46.5t-28.5 81.5q-7 20 -16.5 30.5t-21.5 15t-26 5.5t-31 1h-176q-24 0 -39 -1.5t-26 -8t-19.5 -19.5t-18.5 -36q-21 -46 -30 -74t-4.5 -43t23.5 -19.5t55 -4.5h81l20 -12h-379zM393 230q38 0 47 18t-6 60l-118 310l-139 -320q-9 -21 -12 -34.5
t1 -21t16.5 -10t34.5 -2.5h176z" />
    <glyph glyph-name="Atilde" unicode="&#xc3;" horiz-adv-x="667" 
d="M161 783q9 24 22 43q11 16 28.5 29t42.5 13q26 0 45.5 -12.5t36.5 -27.5t35.5 -27.5t42.5 -12.5q17 0 28.5 8t18.5 18q8 11 13 25l10 -4q-5 -17 -15 -30q-8 -11 -23 -20.5t-39 -9.5t-42.5 11.5t-36 25t-36.5 25t-43 11.5q-20 0 -34.5 -10.5t-24.5 -24.5q-11 -15 -18 -35z
M-100 12h50q16 0 32 1.5t31.5 7.5t29 19t23.5 35q8 18 22.5 51.5t33.5 76t40 91t42 96.5q49 113 106 244q-5 15 -23 27q-16 11 -47.5 19t-88.5 8h-135l20 12h317l264 -629q14 -32 39 -45.5t57 -13.5h54l20 -12h-439l19 12h83q33 0 50.5 5t21 21t-5 46.5t-28.5 81.5
q-7 20 -16.5 30.5t-21.5 15t-26 5.5t-31 1h-176q-24 0 -39 -1.5t-26 -8t-19.5 -19.5t-18.5 -36q-21 -46 -30 -74t-4.5 -43t23.5 -19.5t55 -4.5h81l20 -12h-379zM393 230q38 0 47 18t-6 60l-118 310l-139 -320q-9 -21 -12 -34.5t1 -21t16.5 -10t34.5 -2.5h176z" />
    <glyph glyph-name="Adieresis" unicode="&#xc4;" horiz-adv-x="667" 
d="M224 770q-6 0 -13 4t-13.5 10t-10.5 13t-4 12q0 6 4 13.5t10.5 14t13.5 10.5t13 4t13 -4t13 -10.5t10 -14t4 -13.5q0 -5 -4 -12t-10 -13t-13 -10t-13 -4zM425 770q-6 0 -13 4t-13.5 10t-10.5 13t-4 12q0 6 4 13.5t10.5 14t13.5 10.5t13 4t13 -4t13 -10.5t10 -14t4 -13.5
q0 -5 -4 -12t-10 -13t-13 -10t-13 -4zM-100 12h50q16 0 32 1.5t31.5 7.5t29 19t23.5 35q8 18 22.5 51.5t33.5 76t40 91t42 96.5q49 113 106 244q-5 15 -23 27q-16 11 -47.5 19t-88.5 8h-135l20 12h317l264 -629q14 -32 39 -45.5t57 -13.5h54l20 -12h-439l19 12h83
q33 0 50.5 5t21 21t-5 46.5t-28.5 81.5q-7 20 -16.5 30.5t-21.5 15t-26 5.5t-31 1h-176q-24 0 -39 -1.5t-26 -8t-19.5 -19.5t-18.5 -36q-21 -46 -30 -74t-4.5 -43t23.5 -19.5t55 -4.5h81l20 -12h-379zM393 230q38 0 47 18t-6 60l-118 310l-139 -320q-9 -21 -12 -34.5t1 -21
t16.5 -10t34.5 -2.5h176z" />
    <glyph glyph-name="Aring" unicode="&#xc5;" horiz-adv-x="667" 
d="M322 740q-42 0 -70.5 28t-28.5 70t28.5 70t70.5 28t70.5 -28t28.5 -70t-28.5 -70t-70.5 -28zM321 752q37 0 58.5 25t21.5 60t-21.5 61t-58.5 26t-57.5 -26t-20.5 -61t20.5 -60t57.5 -25zM-100 12h50q16 0 32 1.5t31.5 7.5t29 19t23.5 35q8 18 22.5 51.5t33.5 76t40 91
t42 96.5q49 113 106 244q-5 15 -23 27q-16 11 -47.5 19t-88.5 8h-135l20 12h317l264 -629q14 -32 39 -45.5t57 -13.5h54l20 -12h-439l19 12h83q33 0 50.5 5t21 21t-5 46.5t-28.5 81.5q-7 20 -16.5 30.5t-21.5 15t-26 5.5t-31 1h-176q-24 0 -39 -1.5t-26 -8t-19.5 -19.5
t-18.5 -36q-21 -46 -30 -74t-4.5 -43t23.5 -19.5t55 -4.5h81l20 -12h-379zM393 230q38 0 47 18t-6 60l-118 310l-139 -320q-9 -21 -12 -34.5t1 -21t16.5 -10t34.5 -2.5h176z" />
    <glyph glyph-name="AE" unicode="&#xc6;" horiz-adv-x="903" 
d="M913 162l-136 -162h-530l18 12h81q26 0 40 6.5t20.5 20t8 35t1.5 52.5v50q0 17 -3.5 25.5t-12 12.5t-22 4h-33.5h-99q-28 0 -46 -1t-30 -5.5t-20.5 -13t-17.5 -23.5q-28 -46 -47.5 -77.5t-23 -50.5t11.5 -27t55 -8h101l18 -12h-367l10 12h70q31 0 53 13t44 50l298 502
q17 29 24 50t1 34.5t-26 20t-56 6.5h-145l11 12h532q47 0 84.5 4.5t53.5 12.5l2 -5q-28 -29 -36 -84t-8 -143l-12 11q0 34 -2 68.5t-10.5 62t-25 44.5t-46.5 17h-135q-26 0 -40.5 -5t-21 -16t-7.5 -28.5t-1 -41.5v-121q0 -31 1.5 -51t7.5 -31.5t18 -15.5t33 -4h65q28 0 43 4
t22 15.5t8 32t1 53.5l12 10v-267l-12 10q0 23 -1 46t-8 41.5t-22 30.5t-43 12h-65q-21 0 -33 -4t-18 -13.5t-7.5 -24.5t-1.5 -38v-157q0 -30 1.5 -51.5t8.5 -35t22.5 -20t42.5 -6.5q57 0 104.5 8t88 26t75.5 48t66 73zM345 230q29 0 44 3t21 11.5t6 24.5v42v342
q-32 -53 -62 -102q-26 -42 -52.5 -87t-44.5 -75q-31 -53 -48.5 -84.5t-22 -48t4.5 -21.5t30 -5h124z" />
    <glyph glyph-name="Ccedilla" unicode="&#xc7;" horiz-adv-x="759" 
d="M447 -20q-11 0 -21.5 0.5t-21.5 1.5l-47 -88q14 15 35 30t53 15q14 0 28 -5t25.5 -14.5t18.5 -23.5t7 -33q0 -22 -10 -39t-25 -28.5t-33.5 -17.5t-35.5 -6q-23 0 -38.5 6.5t-26 16t-16.5 21t-10 20.5l11 5q8 -21 23.5 -37.5t42.5 -16.5q15 0 27.5 7t21.5 18.5t14 26
t5 28.5q0 25 -10 41.5t-33 16.5q-14 0 -26.5 -7.5t-23.5 -16.5q-13 -10 -24 -23l-15 10l49 95q-78 7 -143 36t-111 76t-71.5 112t-25.5 144q0 72 28 138.5t77 117.5t116 81.5t145 30.5q53 0 94 -6.5t72.5 -15t55.5 -15t43 -6.5q7 0 17 2l3 -9q-19 -10 -33.5 -35t-25.5 -58
t-20 -71.5t-17 -76.5l-10 12q4 19 6 46t-0.5 57t-12.5 59t-31.5 52.5t-55.5 38t-85 14.5q-58 0 -101.5 -15.5t-74.5 -40.5t-51 -57t-31 -65t-15.5 -64.5t-4.5 -56.5q0 -48 10 -97.5t29 -95.5t47 -86.5t64 -71t80 -48t95 -17.5q115 0 178.5 68t90.5 206l12 -2l-50 -224
q-33 -17 -72 -30q-32 -11 -74.5 -20.5t-90.5 -9.5z" />
    <glyph glyph-name="Egrave" unicode="&#xc8;" horiz-adv-x="597" 
d="M127 819l13 19l356 -53v-12zM10 12h50q29 0 45.5 6.5t24 20t9 35t1.5 52.5v471q0 24 -1.5 41.5t-9.5 28.5t-25 16t-49 5h-65l20 12h410q47 0 84.5 4.5t53.5 12.5l5 -8q-28 -29 -37.5 -82.5t-9.5 -141.5l-12 11q0 34 -2 68.5t-10.5 62t-25 44.5t-46.5 17h-135
q-26 0 -40.5 -5t-21 -16t-7.5 -28.5t-1 -41.5v-121q0 -31 1.5 -51t7.5 -31.5t18 -15.5t33 -4h65q28 0 43 5.5t22 19t8 35.5t1 55h12v-267l-12 10q0 23 -1 46t-8 41.5t-22 30.5t-43 12h-65q-21 0 -33 -4t-18 -13.5t-7.5 -24.5t-1.5 -38v-157q0 -30 1.5 -51.5t8.5 -35
t22.5 -20t42.5 -6.5q114 0 187 38t120 125l10 -3l-86 -172h-531z" />
    <glyph glyph-name="Eacute" unicode="&#xc9;" horiz-adv-x="597" 
d="M136 785l356 53l13 -19l-369 -46v12zM10 12h50q29 0 45.5 6.5t24 20t9 35t1.5 52.5v471q0 24 -1.5 41.5t-9.5 28.5t-25 16t-49 5h-65l20 12h410q47 0 84.5 4.5t53.5 12.5l5 -8q-28 -29 -37.5 -82.5t-9.5 -141.5l-12 11q0 34 -2 68.5t-10.5 62t-25 44.5t-46.5 17h-135
q-26 0 -40.5 -5t-21 -16t-7.5 -28.5t-1 -41.5v-121q0 -31 1.5 -51t7.5 -31.5t18 -15.5t33 -4h65q28 0 43 5.5t22 19t8 35.5t1 55h12v-267l-12 10q0 23 -1 46t-8 41.5t-22 30.5t-43 12h-65q-21 0 -33 -4t-18 -13.5t-7.5 -24.5t-1.5 -38v-157q0 -30 1.5 -51.5t8.5 -35
t22.5 -20t42.5 -6.5q114 0 187 38t120 125l10 -3l-86 -172h-531z" />
    <glyph glyph-name="Ecircumflex" unicode="&#xca;" horiz-adv-x="597" 
d="M314 892l211 -125h-40l-171 111l-173 -111h-40zM10 12h50q29 0 45.5 6.5t24 20t9 35t1.5 52.5v471q0 24 -1.5 41.5t-9.5 28.5t-25 16t-49 5h-65l20 12h410q47 0 84.5 4.5t53.5 12.5l5 -8q-28 -29 -37.5 -82.5t-9.5 -141.5l-12 11q0 34 -2 68.5t-10.5 62t-25 44.5
t-46.5 17h-135q-26 0 -40.5 -5t-21 -16t-7.5 -28.5t-1 -41.5v-121q0 -31 1.5 -51t7.5 -31.5t18 -15.5t33 -4h65q28 0 43 5.5t22 19t8 35.5t1 55h12v-267l-12 10q0 23 -1 46t-8 41.5t-22 30.5t-43 12h-65q-21 0 -33 -4t-18 -13.5t-7.5 -24.5t-1.5 -38v-157q0 -30 1.5 -51.5
t8.5 -35t22.5 -20t42.5 -6.5q114 0 187 38t120 125l10 -3l-86 -172h-531z" />
    <glyph glyph-name="Edieresis" unicode="&#xcb;" horiz-adv-x="597" 
d="M215 769q-6 0 -13 4t-13.5 10t-10.5 13t-4 12q0 6 4 13.5t10.5 14t13.5 10.5t13 4t13 -4t13 -10.5t10 -14t4 -13.5q0 -5 -4 -12t-10 -13t-13 -10t-13 -4zM416 769q-6 0 -13 4t-13.5 10t-10.5 13t-4 12q0 6 4 13.5t10.5 14t13.5 10.5t13 4t13 -4t13 -10.5t10 -14t4 -13.5
q0 -5 -4 -12t-10 -13t-13 -10t-13 -4zM10 12h50q29 0 45.5 6.5t24 20t9 35t1.5 52.5v471q0 24 -1.5 41.5t-9.5 28.5t-25 16t-49 5h-65l20 12h410q47 0 84.5 4.5t53.5 12.5l5 -8q-28 -29 -37.5 -82.5t-9.5 -141.5l-12 11q0 34 -2 68.5t-10.5 62t-25 44.5t-46.5 17h-135
q-26 0 -40.5 -5t-21 -16t-7.5 -28.5t-1 -41.5v-121q0 -31 1.5 -51t7.5 -31.5t18 -15.5t33 -4h65q28 0 43 5.5t22 19t8 35.5t1 55h12v-267l-12 10q0 23 -1 46t-8 41.5t-22 30.5t-43 12h-65q-21 0 -33 -4t-18 -13.5t-7.5 -24.5t-1.5 -38v-157q0 -30 1.5 -51.5t8.5 -35
t22.5 -20t42.5 -6.5q114 0 187 38t120 125l10 -3l-86 -172h-531z" />
    <glyph glyph-name="Igrave" unicode="&#xcc;" horiz-adv-x="355" 
d="M17 809l11 19l309 -44l-11 -10zM10 12h50q29 0 45.5 6.5t24 20t9 35t1.5 52.5v471q0 24 -1.5 41.5t-9.5 28.5t-25 16t-49 5h-65l20 12h335l20 -12h-66q-31 0 -48.5 -5t-25 -16t-9 -28.5t-1.5 -41.5v-472q0 -30 1.5 -51.5t9 -35t24 -20t45.5 -6.5h50l20 -12h-375z" />
    <glyph glyph-name="Iacute" unicode="&#xcd;" horiz-adv-x="355" 
d="M15 784l309 44l11 -19l-309 -35zM10 12h50q29 0 45.5 6.5t24 20t9 35t1.5 52.5v471q0 24 -1.5 41.5t-9.5 28.5t-25 16t-49 5h-65l20 12h335l20 -12h-66q-31 0 -48.5 -5t-25 -16t-9 -28.5t-1.5 -41.5v-472q0 -30 1.5 -51.5t9 -35t24 -20t45.5 -6.5h50l20 -12h-375z" />
    <glyph glyph-name="Icircumflex" unicode="&#xce;" horiz-adv-x="355" 
d="M174 893l178 -125h-32l-146 111l-144 -111h-35zM10 12h50q29 0 45.5 6.5t24 20t9 35t1.5 52.5v471q0 24 -1.5 41.5t-9.5 28.5t-25 16t-49 5h-65l20 12h335l20 -12h-66q-31 0 -48.5 -5t-25 -16t-9 -28.5t-1.5 -41.5v-472q0 -30 1.5 -51.5t9 -35t24 -20t45.5 -6.5h50
l20 -12h-375z" />
    <glyph glyph-name="Idieresis" unicode="&#xcf;" horiz-adv-x="355" 
d="M95 770q-6 0 -13 4t-13.5 10t-10.5 13t-4 12q0 6 4 13.5t10.5 14t13.5 10.5t13 4t13 -4t13 -10.5t10 -14t4 -13.5q0 -5 -4 -12t-10 -13t-13 -10t-13 -4zM256 770q-6 0 -13 4t-13.5 10t-10.5 13t-4 12q0 6 4 13.5t10.5 14t13.5 10.5t13 4t13 -4t13 -10.5t10 -14t4 -13.5
q0 -5 -4 -12t-10 -13t-13 -10t-13 -4zM10 12h50q29 0 45.5 6.5t24 20t9 35t1.5 52.5v471q0 24 -1.5 41.5t-9.5 28.5t-25 16t-49 5h-65l20 12h335l20 -12h-66q-31 0 -48.5 -5t-25 -16t-9 -28.5t-1.5 -41.5v-472q0 -30 1.5 -51.5t9 -35t24 -20t45.5 -6.5h50l20 -12h-375z" />
    <glyph glyph-name="Eth" unicode="&#xd0;" horiz-adv-x="785" 
d="M10 12h61q26 0 40 6.5t20.5 20t8 35t1.5 52.5v282h-151l20 12h131v177q0 24 -1 41.5t-8 28.5t-22.5 16t-43.5 5h-76l20 12h360q89 0 158.5 -29t117.5 -75.5t73.5 -105.5t25.5 -119q0 -85 -27 -154t-72 -117t-103.5 -74t-122.5 -26h-430zM419 12q30 0 72.5 15t81 49
t65.5 88.5t27 132.5q0 83 -24 154.5t-69 124t-109.5 82.5t-146.5 30q-36 0 -56.5 -1.5t-30 -10.5t-11.5 -27.5t-2 -51.5v-177h140l10 -12h-150v-283q0 -30 1.5 -51.5t8.5 -35t22.5 -20t42.5 -6.5h128z" />
    <glyph glyph-name="Ntilde" unicode="&#xd1;" horiz-adv-x="809" 
d="M267 783q9 24 22 43q11 16 28.5 29t42.5 13q26 0 45.5 -12.5t36.5 -27.5t35.5 -27.5t42.5 -12.5q17 0 28.5 8t18.5 18q8 11 13 25l10 -4q-5 -17 -15 -30q-8 -11 -23 -20.5t-39 -9.5t-42.5 11.5t-36 25t-36.5 25t-43 11.5q-20 0 -34.5 -10.5t-24.5 -24.5q-11 -15 -18 -35z
M404 363q-53 68 -89.5 115.5t-60.5 78t-38 47.5t-21.5 25.5t-11 10t-6.5 1.5q-11 0 -13.5 -17t-3.5 -46l-11 -443q-1 -41 5 -65.5t19.5 -37t35.5 -16.5t53 -4h86l10 -12h-397l20 12h61q22 0 39 4t29 16.5t19 37t8 66.5l12 473q0 19 -2.5 33.5t-15 24.5t-37 15.5t-67.5 5.5
h-67l20 12h270l437 -563v429q0 44 -9 68.5t-26 36.5t-42 14.5t-57 2.5h-41l10 12h297l20 -12h-46q-22 0 -39.5 -2.5t-29.5 -14.5t-18.5 -36t-6.5 -68v-587z" />
    <glyph glyph-name="Ograve" unicode="&#xd2;" horiz-adv-x="814" 
d="M221 820l13 19l356 -53v-12zM406 -20q-78 0 -145 29.5t-116 80t-77 118t-28 143.5t28 143t77 117.5t116 79.5t145 29t145.5 -29t117 -79.5t77.5 -117.5t28 -143t-28 -143.5t-77.5 -118t-117 -80t-145.5 -29.5zM447 -1q54 0 99.5 23t78.5 64.5t51 98.5t18 125
q0 91 -31 163t-80 122t-109 76.5t-119 26.5q-55 0 -99 -22.5t-74.5 -62t-47 -92.5t-16.5 -114q0 -79 26.5 -152.5t71.5 -130.5t104.5 -91t126.5 -34z" />
    <glyph glyph-name="Oacute" unicode="&#xd3;" horiz-adv-x="814" 
d="M230 786l356 53l13 -19l-369 -46v12zM406 -20q-78 0 -145 29.5t-116 80t-77 118t-28 143.5t28 143t77 117.5t116 79.5t145 29t145.5 -29t117 -79.5t77.5 -117.5t28 -143t-28 -143.5t-77.5 -118t-117 -80t-145.5 -29.5zM447 -1q54 0 99.5 23t78.5 64.5t51 98.5t18 125
q0 91 -31 163t-80 122t-109 76.5t-119 26.5q-55 0 -99 -22.5t-74.5 -62t-47 -92.5t-16.5 -114q0 -79 26.5 -152.5t71.5 -130.5t104.5 -91t126.5 -34z" />
    <glyph glyph-name="Ocircumflex" unicode="&#xd4;" horiz-adv-x="814" 
d="M408 893l211 -125h-40l-171 111l-173 -111h-40zM406 -20q-78 0 -145 29.5t-116 80t-77 118t-28 143.5t28 143t77 117.5t116 79.5t145 29t145.5 -29t117 -79.5t77.5 -117.5t28 -143t-28 -143.5t-77.5 -118t-117 -80t-145.5 -29.5zM447 -1q54 0 99.5 23t78.5 64.5t51 98.5
t18 125q0 91 -31 163t-80 122t-109 76.5t-119 26.5q-55 0 -99 -22.5t-74.5 -62t-47 -92.5t-16.5 -114q0 -79 26.5 -152.5t71.5 -130.5t104.5 -91t126.5 -34z" />
    <glyph glyph-name="Otilde" unicode="&#xd5;" horiz-adv-x="814" 
d="M246 783q9 24 22 43q11 16 28.5 29t42.5 13q26 0 45.5 -12.5t36.5 -27.5t35.5 -27.5t42.5 -12.5q17 0 28.5 8t18.5 18q8 11 13 25l10 -4q-5 -17 -15 -30q-8 -11 -23 -20.5t-39 -9.5t-42.5 11.5t-36 25t-36.5 25t-43 11.5q-20 0 -34.5 -10.5t-24.5 -24.5q-11 -15 -18 -35z
M406 -20q-78 0 -145 29.5t-116 80t-77 118t-28 143.5t28 143t77 117.5t116 79.5t145 29t145.5 -29t117 -79.5t77.5 -117.5t28 -143t-28 -143.5t-77.5 -118t-117 -80t-145.5 -29.5zM447 -1q54 0 99.5 23t78.5 64.5t51 98.5t18 125q0 91 -31 163t-80 122t-109 76.5t-119 26.5
q-55 0 -99 -22.5t-74.5 -62t-47 -92.5t-16.5 -114q0 -79 26.5 -152.5t71.5 -130.5t104.5 -91t126.5 -34z" />
    <glyph glyph-name="Odieresis" unicode="&#xd6;" horiz-adv-x="814" 
d="M309 770q-6 0 -13 4t-13.5 10t-10.5 13t-4 12q0 6 4 13.5t10.5 14t13.5 10.5t13 4t13 -4t13 -10.5t10 -14t4 -13.5q0 -5 -4 -12t-10 -13t-13 -10t-13 -4zM510 770q-6 0 -13 4t-13.5 10t-10.5 13t-4 12q0 6 4 13.5t10.5 14t13.5 10.5t13 4t13 -4t13 -10.5t10 -14t4 -13.5
q0 -5 -4 -12t-10 -13t-13 -10t-13 -4zM406 -20q-78 0 -145 29.5t-116 80t-77 118t-28 143.5t28 143t77 117.5t116 79.5t145 29t145.5 -29t117 -79.5t77.5 -117.5t28 -143t-28 -143.5t-77.5 -118t-117 -80t-145.5 -29.5zM447 -1q54 0 99.5 23t78.5 64.5t51 98.5t18 125
q0 91 -31 163t-80 122t-109 76.5t-119 26.5q-55 0 -99 -22.5t-74.5 -62t-47 -92.5t-16.5 -114q0 -79 26.5 -152.5t71.5 -130.5t104.5 -91t126.5 -34z" />
    <glyph glyph-name="multiply" unicode="&#xd7;" horiz-adv-x="486" 
d="M388 118l-144 144l-145 -145l-9 9l145 145l-143 143l8 9l143 -144l143 143l9 -9l-143 -143l144 -144z" />
    <glyph glyph-name="Oslash" unicode="&#xd8;" horiz-adv-x="814" 
d="M570 682q46 -22 83.5 -56.5t64.5 -77t41.5 -93t14.5 -104.5q0 -76 -28 -143.5t-77.5 -118t-117 -80t-145.5 -29.5q-71 0 -135 25l-27 -60h-14l29 65q-49 22 -89.5 56.5t-69 79t-44.5 96.5t-16 109q0 76 28 143t77 117.5t116 79.5t145 29q42 0 80 -8.5t73 -24.5l30 68h13z
M118 407q0 -52 12 -102.5t33.5 -95.5t51.5 -83t66 -66l255 576q-42 30 -89 46t-92 16q-55 0 -99 -22.5t-74.5 -62t-47 -92.5t-16.5 -114zM447 -1q54 0 99.5 23t78.5 64.5t51 98.5t18 125q0 54 -11.5 101t-31 87t-46.5 73t-59 57l-255 -576q35 -25 74.5 -39t81.5 -14z" />
    <glyph glyph-name="Ugrave" unicode="&#xd9;" horiz-adv-x="752" 
d="M200 820l13 19l356 -53v-12zM389 -20q-60 0 -110 17t-85 50.5t-54.5 83t-19.5 115.5v351q0 24 -1.5 41.5t-9.5 28.5t-25.5 16t-49.5 5h-64l20 12h366l20 -12h-111q-26 0 -40.5 -5t-21 -16t-7.5 -28.5t-1 -41.5v-323q0 -52 9 -101t33.5 -87t67.5 -61.5t111 -23.5t111.5 23
t68.5 60.5t34.5 85t9.5 97.5v320q0 37 -3 57.5t-14.5 30t-34 11.5t-60.5 2h-152l20 12h396l20 -12h-64q-33 0 -52.5 -2t-29 -11.5t-12 -30t-2.5 -57.5v-320q0 -47 -9 -98t-36.5 -93t-79.5 -69t-138 -27z" />
    <glyph glyph-name="Uacute" unicode="&#xda;" horiz-adv-x="752" 
d="M209 786l356 53l13 -19l-369 -46v12zM389 -20q-60 0 -110 17t-85 50.5t-54.5 83t-19.5 115.5v351q0 24 -1.5 41.5t-9.5 28.5t-25.5 16t-49.5 5h-64l20 12h366l20 -12h-111q-26 0 -40.5 -5t-21 -16t-7.5 -28.5t-1 -41.5v-323q0 -52 9 -101t33.5 -87t67.5 -61.5t111 -23.5
t111.5 23t68.5 60.5t34.5 85t9.5 97.5v320q0 37 -3 57.5t-14.5 30t-34 11.5t-60.5 2h-152l20 12h396l20 -12h-64q-33 0 -52.5 -2t-29 -11.5t-12 -30t-2.5 -57.5v-320q0 -47 -9 -98t-36.5 -93t-79.5 -69t-138 -27z" />
    <glyph glyph-name="Ucircumflex" unicode="&#xdb;" horiz-adv-x="752" 
d="M387 893l211 -125h-40l-171 111l-173 -111h-40zM389 -20q-60 0 -110 17t-85 50.5t-54.5 83t-19.5 115.5v351q0 24 -1.5 41.5t-9.5 28.5t-25.5 16t-49.5 5h-64l20 12h366l20 -12h-111q-26 0 -40.5 -5t-21 -16t-7.5 -28.5t-1 -41.5v-323q0 -52 9 -101t33.5 -87t67.5 -61.5
t111 -23.5t111.5 23t68.5 60.5t34.5 85t9.5 97.5v320q0 37 -3 57.5t-14.5 30t-34 11.5t-60.5 2h-152l20 12h396l20 -12h-64q-33 0 -52.5 -2t-29 -11.5t-12 -30t-2.5 -57.5v-320q0 -47 -9 -98t-36.5 -93t-79.5 -69t-138 -27z" />
    <glyph glyph-name="Udieresis" unicode="&#xdc;" horiz-adv-x="752" 
d="M288 770q-6 0 -13 4t-13.5 10t-10.5 13t-4 12q0 6 4 13.5t10.5 14t13.5 10.5t13 4t13 -4t13 -10.5t10 -14t4 -13.5q0 -5 -4 -12t-10 -13t-13 -10t-13 -4zM489 770q-6 0 -13 4t-13.5 10t-10.5 13t-4 12q0 6 4 13.5t10.5 14t13.5 10.5t13 4t13 -4t13 -10.5t10 -14t4 -13.5
q0 -5 -4 -12t-10 -13t-13 -10t-13 -4zM389 -20q-60 0 -110 17t-85 50.5t-54.5 83t-19.5 115.5v351q0 24 -1.5 41.5t-9.5 28.5t-25.5 16t-49.5 5h-64l20 12h366l20 -12h-111q-26 0 -40.5 -5t-21 -16t-7.5 -28.5t-1 -41.5v-323q0 -52 9 -101t33.5 -87t67.5 -61.5t111 -23.5
t111.5 23t68.5 60.5t34.5 85t9.5 97.5v320q0 37 -3 57.5t-14.5 30t-34 11.5t-60.5 2h-152l20 12h396l20 -12h-64q-33 0 -52.5 -2t-29 -11.5t-12 -30t-2.5 -57.5v-320q0 -47 -9 -98t-36.5 -93t-79.5 -69t-138 -27z" />
    <glyph glyph-name="Yacute" unicode="&#xdd;" horiz-adv-x="618" 
d="M146 786l356 53l13 -19l-369 -46v12zM107 12h101q26 0 40 6.5t20.5 20t8 35t1.5 52.5v189q0 9 -18 44t-43.5 80t-53.5 92t-49 81q-13 22 -23 36.5t-22.5 23.5t-29 12.5t-43.5 3.5h-86l20 12h340l20 -12h-54q-26 0 -40.5 -3t-15.5 -16.5t12 -41.5t41 -77q34 -58 53 -90.5
t29.5 -48t15 -19t7.5 -3.5t5.5 1.5t7 7t11 15.5t17.5 26l122 186q15 23 16.5 35.5t-10 18.5t-36.5 7.5t-65 1.5h-116l20 12h378l20 -12h-81q-26 0 -42.5 -4t-28.5 -12t-21.5 -20t-20.5 -29l-83 -127q-26 -39 -41.5 -62.5t-23.5 -38t-10.5 -22t-2.5 -15.5v-233
q0 -30 1.5 -51.5t8.5 -35t22.5 -20t42.5 -6.5h116l20 -12h-477z" />
    <glyph glyph-name="Thorn" unicode="&#xde;" horiz-adv-x="553" 
d="M10 12h51q26 0 40 6.5t20.5 20t8 35t1.5 52.5v471q0 24 -1 41.5t-8 28.5t-22.5 16t-43.5 5h-66l20 12h327l10 -12h-71q-26 0 -40.5 -5t-21 -16t-7.5 -28.5t-1 -41.5v-38h97q45 0 85 -8.5t70 -28t47.5 -50.5t17.5 -76q0 -52 -18.5 -90t-50 -62.5t-74.5 -36.5t-91 -12
q-30 0 -48 3q-10 1 -18 2v12q10 -1 21 -2q20 -3 45 -3q31 0 59 6.5t49.5 25t34 53t12.5 90.5q0 33 -8 63t-24.5 52.5t-42.5 35.5t-63 13t-57.5 -8t-30 -25.5t-11 -44t-1.5 -62.5v-281q0 -30 1.5 -51.5t8.5 -35t22.5 -20t42.5 -6.5h56l10 -12h-357z" />
    <glyph glyph-name="germandbls" unicode="&#xdf;" horiz-adv-x="652" 
d="M446 -13q-32 0 -61 9.5t-50 20.5q-25 13 -46 30l-25 178h12q8 -47 20.5 -88t32.5 -71.5t48.5 -48t68.5 -17.5q31 0 52 10t33.5 26.5t18 37t5.5 40.5q-1 46 -20 74.5t-47.5 48.5t-61 36t-61 35t-47 46.5t-18.5 70.5q0 32 13 58t32 47.5t42 39.5t42 34.5t32 32.5t13 34
q0 23 -25.5 29.5t-79.5 6.5q-39 0 -73 -13.5t-60 -41.5t-41 -72t-15 -105v-396q0 -42 9 -54.5t32 -12.5h8l21 -12h-260l20 12h37q34 0 48.5 13.5t14.5 53.5v237h-114l22 13q28 0 45.5 3t28 10.5t14.5 19t4 27.5v86q0 53 10 97.5t38.5 77.5t79 51.5t130.5 18.5h221
q-8 -20 -30 -38.5t-50 -37.5t-58 -39.5t-55.5 -44.5t-41.5 -51.5t-16 -60.5t21 -54t52.5 -37.5t68.5 -32t68.5 -37t52.5 -52.5t21 -78q0 -33 -12 -64t-34.5 -54.5t-55.5 -37.5t-74 -14z" />
    <glyph glyph-name="agrave" unicode="&#xe0;" horiz-adv-x="486" 
d="M73 654l18 18l313 -87v-13zM152 -20q-51 0 -81.5 25.5t-30.5 70.5q0 31 14.5 53.5t39 39.5t55.5 30t64 26q23 9 43.5 19t36 22.5t25 26.5t9.5 30t-1.5 44t-10 55.5t-27 47.5t-52.5 20q-27 0 -49 -13.5t-37 -39t-21 -60.5t0 -79l-12 -5l-48 141q19 19 46 34
q23 13 56.5 23.5t78.5 10.5q55 0 84.5 -17.5t43 -46.5t16 -65.5t2.5 -74.5v-219q0 -40 15 -53.5t49 -13.5h41l20 -12h-195v105q-16 -35 -40 -62q-21 -24 -53.5 -43.5t-80.5 -19.5zM191 13q35 0 60 17.5t42 41t25 46t8 32.5v136q-6 -12 -17 -22.5t-26 -19.5t-32 -16.5
t-34 -14.5q-21 -9 -40 -17t-33 -20t-22.5 -29.5t-8.5 -44.5q0 -17 4 -33t13 -28.5t24 -20t37 -7.5z" />
    <glyph glyph-name="aacute" unicode="&#xe1;" horiz-adv-x="486" 
d="M85 579l292 80l17 -17l-309 -75v12zM152 -20q-51 0 -81.5 25.5t-30.5 70.5q0 31 14.5 53.5t39 39.5t55.5 30t64 26q23 9 43.5 19t36 22.5t25 26.5t9.5 30t-1.5 44t-10 55.5t-27 47.5t-52.5 20q-27 0 -49 -13.5t-37 -39t-21 -60.5t0 -79l-12 -5l-48 141q19 19 46 34
q23 13 56.5 23.5t78.5 10.5q55 0 84.5 -17.5t43 -46.5t16 -65.5t2.5 -74.5v-219q0 -40 15 -53.5t49 -13.5h41l20 -12h-195v105q-16 -35 -40 -62q-21 -24 -53.5 -43.5t-80.5 -19.5zM191 13q35 0 60 17.5t42 41t25 46t8 32.5v136q-6 -12 -17 -22.5t-26 -19.5t-32 -16.5
t-34 -14.5q-21 -9 -40 -17t-33 -20t-22.5 -29.5t-8.5 -44.5q0 -17 4 -33t13 -28.5t24 -20t37 -7.5z" />
    <glyph glyph-name="acircumflex" unicode="&#xe2;" horiz-adv-x="486" 
d="M240 669l172 -111h-39l-133 94l-134 -94h-41zM152 -20q-51 0 -81.5 25.5t-30.5 70.5q0 31 14.5 53.5t39 39.5t55.5 30t64 26q23 9 43.5 19t36 22.5t25 26.5t9.5 30t-1.5 44t-10 55.5t-27 47.5t-52.5 20q-27 0 -49 -13.5t-37 -39t-21 -60.5t0 -79l-12 -5l-48 141
q19 19 46 34q23 13 56.5 23.5t78.5 10.5q55 0 84.5 -17.5t43 -46.5t16 -65.5t2.5 -74.5v-219q0 -40 15 -53.5t49 -13.5h41l20 -12h-195v105q-16 -35 -40 -62q-21 -24 -53.5 -43.5t-80.5 -19.5zM191 13q35 0 60 17.5t42 41t25 46t8 32.5v136q-6 -12 -17 -22.5t-26 -19.5
t-32 -16.5t-34 -14.5q-21 -9 -40 -17t-33 -20t-22.5 -29.5t-8.5 -44.5q0 -17 4 -33t13 -28.5t24 -20t37 -7.5z" />
    <glyph glyph-name="atilde" unicode="&#xe3;" horiz-adv-x="486" 
d="M74 583q8 24 20 43q11 16 28.5 29t42.5 13q26 0 44 -12t34 -26.5t32.5 -26.5t39.5 -12q20 0 34 8t22 18q11 11 17 25l11 -5q-7 -17 -19 -29q-10 -11 -26 -20.5t-39 -9.5q-25 0 -43.5 10.5t-35.5 23.5t-33.5 23.5t-37.5 10.5t-36 -10.5t-24 -23.5q-12 -15 -19 -34z
M152 -20q-51 0 -81.5 25.5t-30.5 70.5q0 31 14.5 53.5t39 39.5t55.5 30t64 26q23 9 43.5 19t36 22.5t25 26.5t9.5 30t-1.5 44t-10 55.5t-27 47.5t-52.5 20q-27 0 -49 -13.5t-37 -39t-21 -60.5t0 -79l-12 -5l-48 141q19 19 46 34q23 13 56.5 23.5t78.5 10.5q55 0 84.5 -17.5
t43 -46.5t16 -65.5t2.5 -74.5v-219q0 -40 15 -53.5t49 -13.5h41l20 -12h-195v105q-16 -35 -40 -62q-21 -24 -53.5 -43.5t-80.5 -19.5zM191 13q35 0 60 17.5t42 41t25 46t8 32.5v136q-6 -12 -17 -22.5t-26 -19.5t-32 -16.5t-34 -14.5q-21 -9 -40 -17t-33 -20t-22.5 -29.5
t-8.5 -44.5q0 -17 4 -33t13 -28.5t24 -20t37 -7.5z" />
    <glyph glyph-name="adieresis" unicode="&#xe4;" horiz-adv-x="486" 
d="M154 594q-6 0 -14 4.5t-14.5 11t-11 13.5t-4.5 13q0 7 4.5 15t11 15t14.5 11.5t14 4.5t13.5 -4.5t14 -11.5t11 -15t4.5 -15q0 -6 -4.5 -13t-11 -13.5t-14 -11t-13.5 -4.5zM325 594q-6 0 -14 4.5t-14.5 11t-11 13.5t-4.5 13q0 7 4.5 15t11 15t14.5 11.5t14 4.5t13.5 -4.5
t14 -11.5t11 -15t4.5 -15q0 -6 -4.5 -13t-11 -13.5t-14 -11t-13.5 -4.5zM152 -20q-51 0 -81.5 25.5t-30.5 70.5q0 31 14.5 53.5t39 39.5t55.5 30t64 26q23 9 43.5 19t36 22.5t25 26.5t9.5 30t-1.5 44t-10 55.5t-27 47.5t-52.5 20q-27 0 -49 -13.5t-37 -39t-21 -60.5t0 -79
l-12 -5l-48 141q19 19 46 34q23 13 56.5 23.5t78.5 10.5q55 0 84.5 -17.5t43 -46.5t16 -65.5t2.5 -74.5v-219q0 -40 15 -53.5t49 -13.5h41l20 -12h-195v105q-16 -35 -40 -62q-21 -24 -53.5 -43.5t-80.5 -19.5zM191 13q35 0 60 17.5t42 41t25 46t8 32.5v136q-6 -12 -17 -22.5
t-26 -19.5t-32 -16.5t-34 -14.5q-21 -9 -40 -17t-33 -20t-22.5 -29.5t-8.5 -44.5q0 -17 4 -33t13 -28.5t24 -20t37 -7.5z" />
    <glyph glyph-name="aring" unicode="&#xe5;" horiz-adv-x="486" 
d="M236 545q-22 0 -41.5 8.5t-33.5 22.5t-22.5 34t-8.5 42q0 45 30.5 75.5t75.5 30.5t75.5 -30.5t30.5 -75.5q0 -22 -8.5 -42t-22.5 -34t-33.5 -22.5t-41.5 -8.5zM235 558q39 0 62.5 27t23.5 66q0 38 -23.5 66t-62.5 28q-40 0 -62 -28t-22 -66q0 -39 22 -66t62 -27zM152 -20
q-51 0 -81.5 25.5t-30.5 70.5q0 31 14.5 53.5t39 39.5t55.5 30t64 26q23 9 43.5 19t36 22.5t25 26.5t9.5 30t-1.5 44t-10 55.5t-27 47.5t-52.5 20q-27 0 -49 -13.5t-37 -39t-21 -60.5t0 -79l-12 -5l-48 141q19 19 46 34q23 13 56.5 23.5t78.5 10.5q55 0 84.5 -17.5t43 -46.5
t16 -65.5t2.5 -74.5v-219q0 -40 15 -53.5t49 -13.5h41l20 -12h-195v105q-16 -35 -40 -62q-21 -24 -53.5 -43.5t-80.5 -19.5zM191 13q35 0 60 17.5t42 41t25 46t8 32.5v136q-6 -12 -17 -22.5t-26 -19.5t-32 -16.5t-34 -14.5q-21 -9 -40 -17t-33 -20t-22.5 -29.5t-8.5 -44.5
q0 -17 4 -33t13 -28.5t24 -20t37 -7.5z" />
    <glyph glyph-name="ae" unicode="&#xe6;" horiz-adv-x="780" 
d="M564 -20q-30 0 -61 10.5t-58.5 30t-49.5 47.5t-35 62l-6.5 -11.5t-19 -28t-31 -35.5t-41.5 -35t-51 -27t-60 -11q-48 0 -79.5 25.5t-31.5 73.5q0 32 16.5 54t42 38t56.5 28t60 23q23 9 43.5 19.5t36 22.5t25 26.5t9.5 30.5v39.5t-7 56t-25.5 50t-55.5 21.5
q-27 0 -50 -12.5t-39 -36.5t-22.5 -60t-0.5 -83l-12 -5l-48 141q21 19 48 34q23 13 53.5 23.5t68.5 10.5q37 0 63.5 -6.5t44.5 -18.5t29 -29t17 -38q31 45 72 68.5t88 23.5q34 0 65.5 -12.5t57.5 -36t45.5 -56.5t28.5 -74h-344q-4 -57 8.5 -113.5t37.5 -101t60.5 -72.5
t76.5 -28q34 0 60 14.5t44.5 40t29 60.5t12.5 75h11q0 -37 -9 -76t-30 -70.5t-56 -51.5t-87 -20zM675 335q-23 69 -62 106t-81 37q-36 0 -59.5 -13t-37.5 -33.5t-20 -46t-8 -50.5h268zM193 15q34 0 59.5 15t42.5 36.5t25.5 45t8.5 40.5v137q-8 -23 -40 -42t-69 -34
q-20 -7 -39.5 -15.5t-34.5 -20t-24 -28.5t-9 -43q0 -36 18 -63.5t62 -27.5z" />
    <glyph glyph-name="ccedilla" unicode="&#xe7;" horiz-adv-x="522" 
d="M287 -20l-83 -96q14 17 37 33t57 16q15 0 30 -5.5t27.5 -16t20 -26t7.5 -35.5q0 -24 -10.5 -42t-27 -31t-36 -19.5t-38.5 -6.5q-24 0 -40.5 7t-27.5 17.5t-17.5 23t-11.5 22.5l12 5q8 -23 24.5 -40.5t45.5 -17.5q16 0 29.5 7.5t23 20t15 28t5.5 31.5q0 26 -11 44.5
t-35 18.5q-14 0 -28.5 -8t-25.5 -18q-13 -11 -25 -26l-18 14l85 101q-48 3 -91.5 24t-76.5 55.5t-53 81.5t-20 102q0 57 21.5 104t57.5 81.5t82.5 53.5t96.5 19q37 0 69 -9t56 -20q28 -13 52 -29l-48 -141l-11 4q3 45 -5 79t-24.5 57t-40 35t-52.5 12q-56 0 -90 -23
t-52.5 -55.5t-24.5 -68t-6 -61.5q0 -48 15 -96.5t42.5 -88t66 -64.5t84.5 -25q63 0 109.5 31.5t72.5 106.5l11 -5q-14 -38 -33.5 -68t-46 -50.5t-62 -31.5t-82.5 -11h-1z" />
    <glyph glyph-name="egrave" unicode="&#xe8;" horiz-adv-x="513" 
d="M99 655l18 18l313 -87v-13zM275 -20q-51 0 -96 20t-78 55t-52 83t-19 104q0 58 19.5 105.5t52.5 82t75.5 53.5t88.5 19q37 0 71.5 -13t63 -36.5t50 -56.5t32.5 -74h-380q-4 -56 9 -112t40 -101t66.5 -73t89.5 -28q37 0 66.5 15.5t50 41.5t31.5 61.5t11 74.5h12
q1 -48 -13.5 -89t-41 -70t-64.5 -45.5t-85 -16.5zM398 334q-26 69 -70.5 109t-95.5 40q-32 0 -55 -14t-38.5 -35.5t-23.5 -48t-11 -51.5h294z" />
    <glyph glyph-name="eacute" unicode="&#xe9;" horiz-adv-x="513" 
d="M100 586l313 87l18 -18l-331 -82v13zM275 -20q-51 0 -96 20t-78 55t-52 83t-19 104q0 58 19.5 105.5t52.5 82t75.5 53.5t88.5 19q37 0 71.5 -13t63 -36.5t50 -56.5t32.5 -74h-380q-4 -56 9 -112t40 -101t66.5 -73t89.5 -28q37 0 66.5 15.5t50 41.5t31.5 61.5t11 74.5h12
q1 -48 -13.5 -89t-41 -70t-64.5 -45.5t-85 -16.5zM398 334q-26 69 -70.5 109t-95.5 40q-32 0 -55 -14t-38.5 -35.5t-23.5 -48t-11 -51.5h294z" />
    <glyph glyph-name="ecircumflex" unicode="&#xea;" horiz-adv-x="513" 
d="M266 670l172 -111h-39l-133 94l-134 -94h-41zM275 -20q-51 0 -96 20t-78 55t-52 83t-19 104q0 58 19.5 105.5t52.5 82t75.5 53.5t88.5 19q37 0 71.5 -13t63 -36.5t50 -56.5t32.5 -74h-380q-4 -56 9 -112t40 -101t66.5 -73t89.5 -28q37 0 66.5 15.5t50 41.5t31.5 61.5
t11 74.5h12q1 -48 -13.5 -89t-41 -70t-64.5 -45.5t-85 -16.5zM398 334q-26 69 -70.5 109t-95.5 40q-32 0 -55 -14t-38.5 -35.5t-23.5 -48t-11 -51.5h294z" />
    <glyph glyph-name="edieresis" unicode="&#xeb;" horiz-adv-x="513" 
d="M180 595q-6 0 -14 4.5t-14.5 11t-11 13.5t-4.5 13q0 7 4.5 15t11 15t14.5 11.5t14 4.5t13.5 -4.5t14 -11.5t11 -15t4.5 -15q0 -6 -4.5 -13t-11 -13.5t-14 -11t-13.5 -4.5zM351 595q-6 0 -14 4.5t-14.5 11t-11 13.5t-4.5 13q0 7 4.5 15t11 15t14.5 11.5t14 4.5t13.5 -4.5
t14 -11.5t11 -15t4.5 -15q0 -6 -4.5 -13t-11 -13.5t-14 -11t-13.5 -4.5zM275 -20q-51 0 -96 20t-78 55t-52 83t-19 104q0 58 19.5 105.5t52.5 82t75.5 53.5t88.5 19q37 0 71.5 -13t63 -36.5t50 -56.5t32.5 -74h-380q-4 -56 9 -112t40 -101t66.5 -73t89.5 -28q37 0 66.5 15.5
t50 41.5t31.5 61.5t11 74.5h12q1 -48 -13.5 -89t-41 -70t-64.5 -45.5t-85 -16.5zM398 334q-26 69 -70.5 109t-95.5 40q-32 0 -55 -14t-38.5 -35.5t-23.5 -48t-11 -51.5h294z" />
    <glyph glyph-name="igrave" unicode="&#xec;" horiz-adv-x="280" 
d="M36 648l18 18l206 -87v-13zM15 12h37q34 0 48.5 13.5t14.5 53.5v260q0 47 -9.5 68.5t-38.5 21.5q-25 0 -74 -17l-5 11l190 69h7v-413q0 -40 15 -53.5t49 -13.5h41l20 -12h-315z" />
    <glyph glyph-name="iacute" unicode="&#xed;" horiz-adv-x="280" 
d="M30 579l206 87l18 -18l-224 -82v13zM15 12h37q34 0 48.5 13.5t14.5 53.5v260q0 47 -9.5 68.5t-38.5 21.5q-25 0 -74 -17l-5 11l190 69h7v-413q0 -40 15 -53.5t49 -13.5h41l20 -12h-315z" />
    <glyph glyph-name="icircumflex" unicode="&#xee;" horiz-adv-x="280" 
d="M153 663l130 -111h-29l-101 94l-102 -94h-30zM15 12h37q34 0 48.5 13.5t14.5 53.5v260q0 47 -9.5 68.5t-38.5 21.5q-25 0 -74 -17l-5 11l190 69h7v-413q0 -40 15 -53.5t49 -13.5h41l20 -12h-315z" />
    <glyph glyph-name="idieresis" unicode="&#xef;" horiz-adv-x="280" 
d="M78 587q-6 0 -14 4.5t-14.5 11t-11 13.5t-4.5 13q0 7 4.5 15t11 15t14.5 11.5t14 4.5t13.5 -4.5t14 -11.5t11 -15t4.5 -15q0 -6 -4.5 -13t-11 -13.5t-14 -11t-13.5 -4.5zM228 587q-6 0 -14 4.5t-14.5 11t-11 13.5t-4.5 13q0 7 4.5 15t11 15t14.5 11.5t14 4.5t13.5 -4.5
t14 -11.5t11 -15t4.5 -15q0 -6 -4.5 -13t-11 -13.5t-14 -11t-13.5 -4.5zM15 12h37q34 0 48.5 13.5t14.5 53.5v260q0 47 -9.5 68.5t-38.5 21.5q-25 0 -74 -17l-5 11l190 69h7v-413q0 -40 15 -53.5t49 -13.5h41l20 -12h-315z" />
    <glyph glyph-name="eth" unicode="&#xf0;" horiz-adv-x="554" 
d="M271 -19q-36 0 -78 12t-78 39.5t-60.5 73.5t-24.5 113q0 56 20 100.5t52 76t73 48.5t84 17q30 0 59 -9t54.5 -27.5t47 -47t36.5 -67.5q0 51 -13 102.5t-37 99t-57.5 89t-73.5 72.5l-202 -104l-6 12l196 101q-43 31 -94.5 49t-111.5 16l-2 13q70 2 131 -13.5t114 -45.5
l208 107l7 -19l-202 -96q86 -54 139.5 -138t66.5 -178q12 -84 -3.5 -156.5t-50.5 -125.5t-85 -83.5t-109 -30.5zM269 -8q50 0 84.5 22.5t57 60t33 86.5t12.5 101q-11 46 -29 79.5t-41 56t-49 33.5t-52 11q-32 0 -62.5 -16t-54.5 -47t-38.5 -76.5t-14.5 -105.5q0 -56 15 -95
t38 -63.5t50 -35.5t51 -11z" />
    <glyph glyph-name="ntilde" unicode="&#xf1;" horiz-adv-x="599" 
d="M158 583q8 24 20 43q11 16 28.5 29t42.5 13q26 0 44 -12t34 -26.5t32.5 -26.5t39.5 -12q20 0 34 8t22 18q11 11 17 25l11 -5q-7 -17 -19 -29q-10 -11 -26 -20.5t-39 -9.5q-25 0 -43.5 10.5t-35.5 23.5t-33.5 23.5t-37.5 10.5t-36 -10.5t-24 -23.5q-12 -15 -19 -34zM15 12
h37q34 0 48.5 13.5t14.5 53.5v260q0 47 -9.5 68.5t-38.5 21.5q-25 0 -74 -17l-5 11l192 69h6v-147q2 11 12.5 37t32.5 52.5t57.5 47t87.5 20.5q44 0 69.5 -18t38.5 -45t16.5 -59.5t3.5 -61.5v-261q0 -16 5 -25t14 -13.5t21 -5.5t25 -1h40l20 -12h-320l20 12h47q26 0 44.5 7
t18.5 38v257q0 27 -3.5 55t-14.5 50.5t-31 36.5t-53 14q-21 0 -47.5 -11.5t-50 -36.5t-39 -63.5t-15.5 -92.5v-209q0 -16 5 -25t14 -13.5t20.5 -5.5t24.5 -1h40l20 -12h-314z" />
    <glyph glyph-name="ograve" unicode="&#xf2;" horiz-adv-x="581" 
d="M124 648l18 18l313 -87v-13zM290 -20q-50 0 -97 19.5t-83 55t-58 83.5t-22 105t22 104.5t58 82t83 53.5t97 19q51 0 98 -19t83 -53.5t58 -82t22 -104.5t-22 -105t-58 -83.5t-83 -55t-98 -19.5zM321 -4q28 0 55.5 14t49 41t35 68t13.5 95q0 63 -19.5 113.5t-50.5 86
t-67.5 54t-71.5 18.5q-48 0 -79 -22.5t-49 -54.5t-25 -67t-7 -61q0 -47 15 -97.5t43 -92t68 -68.5t90 -27z" />
    <glyph glyph-name="oacute" unicode="&#xf3;" horiz-adv-x="581" 
d="M125 579l313 87l18 -18l-331 -82v13zM290 -20q-50 0 -97 19.5t-83 55t-58 83.5t-22 105t22 104.5t58 82t83 53.5t97 19q51 0 98 -19t83 -53.5t58 -82t22 -104.5t-22 -105t-58 -83.5t-83 -55t-98 -19.5zM321 -4q28 0 55.5 14t49 41t35 68t13.5 95q0 63 -19.5 113.5
t-50.5 86t-67.5 54t-71.5 18.5q-48 0 -79 -22.5t-49 -54.5t-25 -67t-7 -61q0 -47 15 -97.5t43 -92t68 -68.5t90 -27z" />
    <glyph glyph-name="ocircumflex" unicode="&#xf4;" horiz-adv-x="581" 
d="M291 663l172 -111h-39l-133 94l-134 -94h-41zM290 -20q-50 0 -97 19.5t-83 55t-58 83.5t-22 105t22 104.5t58 82t83 53.5t97 19q51 0 98 -19t83 -53.5t58 -82t22 -104.5t-22 -105t-58 -83.5t-83 -55t-98 -19.5zM321 -4q28 0 55.5 14t49 41t35 68t13.5 95
q0 63 -19.5 113.5t-50.5 86t-67.5 54t-71.5 18.5q-48 0 -79 -22.5t-49 -54.5t-25 -67t-7 -61q0 -47 15 -97.5t43 -92t68 -68.5t90 -27z" />
    <glyph glyph-name="otilde" unicode="&#xf5;" horiz-adv-x="581" 
d="M125 577q8 24 20 43q11 16 28.5 29t42.5 13q26 0 44 -12t34 -26.5t32.5 -26.5t39.5 -12q20 0 34 8t22 18q11 11 17 25l11 -5q-7 -17 -19 -29q-10 -11 -26 -20.5t-39 -9.5q-25 0 -43.5 10.5t-35.5 23.5t-33.5 23.5t-37.5 10.5t-36 -10.5t-24 -23.5q-12 -15 -19 -34z
M290 -20q-50 0 -97 19.5t-83 55t-58 83.5t-22 105t22 104.5t58 82t83 53.5t97 19q51 0 98 -19t83 -53.5t58 -82t22 -104.5t-22 -105t-58 -83.5t-83 -55t-98 -19.5zM321 -4q28 0 55.5 14t49 41t35 68t13.5 95q0 63 -19.5 113.5t-50.5 86t-67.5 54t-71.5 18.5q-48 0 -79 -22.5
t-49 -54.5t-25 -67t-7 -61q0 -47 15 -97.5t43 -92t68 -68.5t90 -27z" />
    <glyph glyph-name="odieresis" unicode="&#xf6;" horiz-adv-x="581" 
d="M205 588q-6 0 -14 4.5t-14.5 11t-11 13.5t-4.5 13q0 7 4.5 15t11 15t14.5 11.5t14 4.5t13.5 -4.5t14 -11.5t11 -15t4.5 -15q0 -6 -4.5 -13t-11 -13.5t-14 -11t-13.5 -4.5zM376 588q-6 0 -14 4.5t-14.5 11t-11 13.5t-4.5 13q0 7 4.5 15t11 15t14.5 11.5t14 4.5t13.5 -4.5
t14 -11.5t11 -15t4.5 -15q0 -6 -4.5 -13t-11 -13.5t-14 -11t-13.5 -4.5zM290 -20q-50 0 -97 19.5t-83 55t-58 83.5t-22 105t22 104.5t58 82t83 53.5t97 19q51 0 98 -19t83 -53.5t58 -82t22 -104.5t-22 -105t-58 -83.5t-83 -55t-98 -19.5zM321 -4q28 0 55.5 14t49 41t35 68
t13.5 95q0 63 -19.5 113.5t-50.5 86t-67.5 54t-71.5 18.5q-48 0 -79 -22.5t-49 -54.5t-25 -67t-7 -61q0 -47 15 -97.5t43 -92t68 -68.5t90 -27z" />
    <glyph glyph-name="divide" unicode="&#xf7;" horiz-adv-x="599" 
d="M302 374q-6 0 -13 4t-13.5 10t-10.5 13t-4 12q0 6 4 13.5t10.5 14t13.5 10.5t13 4t13 -4t13 -10.5t10 -14t4 -13.5q0 -5 -4 -12t-10 -13t-13 -10t-13 -4zM90 292h419v-12h-419v12zM303 110q-6 0 -13 4t-13.5 10t-10.5 13t-4 12q0 6 4 13.5t10.5 14t13.5 10.5t13 4t13 -4
t13 -10.5t10 -14t4 -13.5q0 -5 -4 -12t-10 -13t-13 -10t-13 -4z" />
    <glyph glyph-name="oslash" unicode="&#xf8;" horiz-adv-x="581" 
d="M406 475q31 -16 57.5 -39t46 -53t30.5 -65t11 -75q0 -57 -22 -105t-58 -83.5t-83 -55t-98 -19.5q-48 0 -92 18l-27 -62h-16l30 67q-33 15 -61.5 39t-49 55t-32.5 67.5t-12 78.5q0 57 22 104.5t58 82t83 53.5t97 19q52 0 104 -22l32 73h14zM105 281q0 -31 6.5 -64t19 -64
t31 -59t41.5 -49l174 395q-27 23 -56 34.5t-56 11.5q-48 0 -79 -22.5t-49 -54.5t-25 -67t-7 -61zM321 -4q28 0 55.5 14t49 41t35 68t13.5 95q0 72 -25 127t-62 90l-173 -396q23 -18 49.5 -28.5t57.5 -10.5z" />
    <glyph glyph-name="ugrave" unicode="&#xf9;" horiz-adv-x="579" 
d="M106 648l18 18l313 -87v-13zM237 -20q-50 0 -78.5 18t-42.5 45t-17.5 59.5t-3.5 60.5v211q0 38 -2.5 59t-15 31t-37.5 12t-70 2l20 12h170v-321q0 -28 4 -56t16 -50.5t34.5 -36.5t59.5 -14q31 0 57 17t44.5 45t28.5 63.5t10 71.5v179q0 33 -5.5 51t-24 26.5t-54.5 10.5
t-97 2l21 12h230v-425q0 -19 5 -29.5t14 -15.5t21 -6.5t25 -1.5h40l20 -12h-194v138q-2 -9 -10.5 -35t-28.5 -53.5t-53.5 -48.5t-85.5 -21z" />
    <glyph glyph-name="uacute" unicode="&#xfa;" horiz-adv-x="579" 
d="M107 579l313 87l18 -18l-331 -82v13zM237 -20q-50 0 -78.5 18t-42.5 45t-17.5 59.5t-3.5 60.5v211q0 38 -2.5 59t-15 31t-37.5 12t-70 2l20 12h170v-321q0 -28 4 -56t16 -50.5t34.5 -36.5t59.5 -14q31 0 57 17t44.5 45t28.5 63.5t10 71.5v179q0 33 -5.5 51t-24 26.5
t-54.5 10.5t-97 2l21 12h230v-425q0 -19 5 -29.5t14 -15.5t21 -6.5t25 -1.5h40l20 -12h-194v138q-2 -9 -10.5 -35t-28.5 -53.5t-53.5 -48.5t-85.5 -21z" />
    <glyph glyph-name="ucircumflex" unicode="&#xfb;" horiz-adv-x="579" 
d="M273 663l172 -111h-39l-133 94l-134 -94h-41zM237 -20q-50 0 -78.5 18t-42.5 45t-17.5 59.5t-3.5 60.5v211q0 38 -2.5 59t-15 31t-37.5 12t-70 2l20 12h170v-321q0 -28 4 -56t16 -50.5t34.5 -36.5t59.5 -14q31 0 57 17t44.5 45t28.5 63.5t10 71.5v179q0 33 -5.5 51
t-24 26.5t-54.5 10.5t-97 2l21 12h230v-425q0 -19 5 -29.5t14 -15.5t21 -6.5t25 -1.5h40l20 -12h-194v138q-2 -9 -10.5 -35t-28.5 -53.5t-53.5 -48.5t-85.5 -21z" />
    <glyph glyph-name="udieresis" unicode="&#xfc;" horiz-adv-x="579" 
d="M187 588q-6 0 -14 4.5t-14.5 11t-11 13.5t-4.5 13q0 7 4.5 15t11 15t14.5 11.5t14 4.5t13.5 -4.5t14 -11.5t11 -15t4.5 -15q0 -6 -4.5 -13t-11 -13.5t-14 -11t-13.5 -4.5zM358 588q-6 0 -14 4.5t-14.5 11t-11 13.5t-4.5 13q0 7 4.5 15t11 15t14.5 11.5t14 4.5t13.5 -4.5
t14 -11.5t11 -15t4.5 -15q0 -6 -4.5 -13t-11 -13.5t-14 -11t-13.5 -4.5zM237 -20q-50 0 -78.5 18t-42.5 45t-17.5 59.5t-3.5 60.5v211q0 38 -2.5 59t-15 31t-37.5 12t-70 2l20 12h170v-321q0 -28 4 -56t16 -50.5t34.5 -36.5t59.5 -14q31 0 57 17t44.5 45t28.5 63.5t10 71.5
v179q0 33 -5.5 51t-24 26.5t-54.5 10.5t-97 2l21 12h230v-425q0 -19 5 -29.5t14 -15.5t21 -6.5t25 -1.5h40l20 -12h-194v138q-2 -9 -10.5 -35t-28.5 -53.5t-53.5 -48.5t-85.5 -21z" />
    <glyph glyph-name="yacute" unicode="&#xfd;" horiz-adv-x="480" 
d="M91 579l313 87l18 -18l-331 -82v13zM6 -238q36 0 66.5 5.5t56.5 22t47.5 46t38.5 76.5l28 76l-179 444q-11 27 -25.5 36.5t-48.5 9.5h-45l20 12h265l33 -12h-71q-17 0 -30 -1.5t-20.5 -6t-8.5 -13.5t5 -25l140 -346l121 335q7 21 5 33t-11 17t-24.5 6t-35.5 1h-70l31 12
h241l20 -12h-46q-21 0 -36 -1.5t-25.5 -7.5t-19 -17t-16.5 -31l-243 -671h-184z" />
    <glyph glyph-name="thorn" unicode="&#xfe;" horiz-adv-x="581" 
d="M15 -238h37q34 0 48.5 13.5t14.5 53.5v719q0 47 -9.5 68.5t-38.5 21.5q-25 0 -74 -17l-5 11l189 69h7v-249q26 23 58 36.5t64 13.5q45 0 88 -17t77 -50t54.5 -81.5t20.5 -110.5q0 -61 -20.5 -109.5t-53.5 -82.5t-74 -52t-82 -18q-47 0 -77.5 12.5t-53.5 28.5v-182
q0 -24 4 -39t15 -24t29.5 -12t47.5 -3h49l21 -12h-357zM333 -5q29 0 54.5 16t44 45t29 69t10.5 89q0 65 -18 115.5t-45.5 84.5t-61 51.5t-64.5 17.5q-33 0 -56.5 -17.5t-40.5 -49.5v-318q20 -44 55.5 -73.5t92.5 -29.5z" />
    <glyph glyph-name="ydieresis" unicode="&#xff;" horiz-adv-x="480" 
d="M171 588q-6 0 -14 4.5t-14.5 11t-11 13.5t-4.5 13q0 7 4.5 15t11 15t14.5 11.5t14 4.5t13.5 -4.5t14 -11.5t11 -15t4.5 -15q0 -6 -4.5 -13t-11 -13.5t-14 -11t-13.5 -4.5zM342 588q-6 0 -14 4.5t-14.5 11t-11 13.5t-4.5 13q0 7 4.5 15t11 15t14.5 11.5t14 4.5t13.5 -4.5
t14 -11.5t11 -15t4.5 -15q0 -6 -4.5 -13t-11 -13.5t-14 -11t-13.5 -4.5zM6 -238q36 0 66.5 5.5t56.5 22t47.5 46t38.5 76.5l28 76l-179 444q-11 27 -25.5 36.5t-48.5 9.5h-45l20 12h265l33 -12h-71q-17 0 -30 -1.5t-20.5 -6t-8.5 -13.5t5 -25l140 -346l121 335q7 21 5 33
t-11 17t-24.5 6t-35.5 1h-70l31 12h241l20 -12h-46q-21 0 -36 -1.5t-25.5 -7.5t-19 -17t-16.5 -31l-243 -671h-184z" />
    <glyph glyph-name="Amacron" unicode="&#x100;" horiz-adv-x="667" 
d="M87 810h465l10 -12h-485zM-100 12h50q16 0 32 1.5t31.5 7.5t29 19t23.5 35q8 18 22.5 51.5t33.5 76t40 91t42 96.5q49 113 106 244q-5 15 -23 27q-16 11 -47.5 19t-88.5 8h-135l20 12h317l264 -629q14 -32 39 -45.5t57 -13.5h54l20 -12h-439l19 12h83q33 0 50.5 5t21 21
t-5 46.5t-28.5 81.5q-7 20 -16.5 30.5t-21.5 15t-26 5.5t-31 1h-176q-24 0 -39 -1.5t-26 -8t-19.5 -19.5t-18.5 -36q-21 -46 -30 -74t-4.5 -43t23.5 -19.5t55 -4.5h81l20 -12h-379zM393 230q38 0 47 18t-6 60l-118 310l-139 -320q-9 -21 -12 -34.5t1 -21t16.5 -10t34.5 -2.5
h176z" />
    <glyph glyph-name="amacron" unicode="&#x101;" horiz-adv-x="486" 
d="M13 643h445v-13h-445v13zM152 -20q-51 0 -81.5 25.5t-30.5 70.5q0 31 14.5 53.5t39 39.5t55.5 30t64 26q23 9 43.5 19t36 22.5t25 26.5t9.5 30t-1.5 44t-10 55.5t-27 47.5t-52.5 20q-27 0 -49 -13.5t-37 -39t-21 -60.5t0 -79l-12 -5l-48 141q19 19 46 34q23 13 56.5 23.5
t78.5 10.5q55 0 84.5 -17.5t43 -46.5t16 -65.5t2.5 -74.5v-219q0 -40 15 -53.5t49 -13.5h41l20 -12h-195v105q-16 -35 -40 -62q-21 -24 -53.5 -43.5t-80.5 -19.5zM191 13q35 0 60 17.5t42 41t25 46t8 32.5v136q-6 -12 -17 -22.5t-26 -19.5t-32 -16.5t-34 -14.5
q-21 -9 -40 -17t-33 -20t-22.5 -29.5t-8.5 -44.5q0 -17 4 -33t13 -28.5t24 -20t37 -7.5z" />
    <glyph glyph-name="Abreve" unicode="&#x102;" horiz-adv-x="667" 
d="M326 742q-36 0 -64.5 12.5t-48.5 33.5t-30.5 49t-10.5 59h12q0 -25 10 -49.5t28.5 -43t44.5 -30t59 -11.5t59.5 11.5t45 30t28 43t9.5 49.5h12q0 -31 -10.5 -59t-30 -49t-48.5 -33.5t-65 -12.5zM-100 12h50q16 0 32 1.5t31.5 7.5t29 19t23.5 35q8 18 22.5 51.5t33.5 76
t40 91t42 96.5q49 113 106 244q-5 15 -23 27q-16 11 -47.5 19t-88.5 8h-135l20 12h317l264 -629q14 -32 39 -45.5t57 -13.5h54l20 -12h-439l19 12h83q33 0 50.5 5t21 21t-5 46.5t-28.5 81.5q-7 20 -16.5 30.5t-21.5 15t-26 5.5t-31 1h-176q-24 0 -39 -1.5t-26 -8
t-19.5 -19.5t-18.5 -36q-21 -46 -30 -74t-4.5 -43t23.5 -19.5t55 -4.5h81l20 -12h-379zM393 230q38 0 47 18t-6 60l-118 310l-139 -320q-9 -21 -12 -34.5t1 -21t16.5 -10t34.5 -2.5h176z" />
    <glyph glyph-name="abreve" unicode="&#x103;" horiz-adv-x="486" 
d="M240 547q-51 0 -86.5 34.5t-35.5 100.5h13q0 -28 10 -49t26 -35t35 -21.5t38 -7.5q20 0 39.5 7.5t35.5 21.5t25.5 35t9.5 49h12q0 -66 -35 -100.5t-87 -34.5zM152 -20q-51 0 -81.5 25.5t-30.5 70.5q0 31 14.5 53.5t39 39.5t55.5 30t64 26q23 9 43.5 19t36 22.5t25 26.5
t9.5 30t-1.5 44t-10 55.5t-27 47.5t-52.5 20q-27 0 -49 -13.5t-37 -39t-21 -60.5t0 -79l-12 -5l-48 141q19 19 46 34q23 13 56.5 23.5t78.5 10.5q55 0 84.5 -17.5t43 -46.5t16 -65.5t2.5 -74.5v-219q0 -40 15 -53.5t49 -13.5h41l20 -12h-195v105q-16 -35 -40 -62
q-21 -24 -53.5 -43.5t-80.5 -19.5zM191 13q35 0 60 17.5t42 41t25 46t8 32.5v136q-6 -12 -17 -22.5t-26 -19.5t-32 -16.5t-34 -14.5q-21 -9 -40 -17t-33 -20t-22.5 -29.5t-8.5 -44.5q0 -17 4 -33t13 -28.5t24 -20t37 -7.5z" />
    <glyph glyph-name="Aogonek" unicode="&#x104;" horiz-adv-x="667" 
d="M577 -112q0 -33 17 -53.5t49 -21.5q27 0 43.5 19.5t16.5 44.5h12q0 -35 -24.5 -60t-67.5 -25q-21 0 -39 7.5t-30.5 20t-20 29.5t-7.5 36q0 26 11.5 45.5t29.5 33t39 22.5t40 14h-298l19 12h83q33 0 50.5 5t21 21t-5 46.5t-28.5 81.5q-7 20 -16.5 30.5t-21.5 15t-26 5.5
t-31 1h-176q-24 0 -39 -1.5t-26 -8t-19.5 -19.5t-18.5 -36q-21 -46 -30 -74t-4.5 -43t23.5 -19.5t55 -4.5h81l20 -12h-379l20 12h50q16 0 32 1.5t31.5 7.5t29 19t23.5 35q8 18 22.5 51.5t33.5 76t40 91t42 96.5q49 113 106 244q-5 15 -23 27q-16 11 -47.5 19t-88.5 8h-135
l20 12h317l264 -629q14 -32 39 -45.5t57 -13.5h54l20 -12h-124q-42 -17 -64 -45.5t-22 -66.5zM393 230q38 0 47 18t-6 60l-118 310l-139 -320q-9 -21 -12 -34.5t1 -21t16.5 -10t34.5 -2.5h176z" />
    <glyph glyph-name="aogonek" unicode="&#x105;" horiz-adv-x="486" 
d="M529 -134q0 -38 -26.5 -65t-72.5 -27q-22 0 -41.5 8t-33 22t-21.5 32t-8 39q0 28 12.5 49t31.5 36t42 24.5t43 15.5h-129v105q-16 -35 -40 -62q-21 -24 -53.5 -43.5t-80.5 -19.5q-51 0 -81.5 25.5t-30.5 70.5q0 31 14.5 53.5t39 39.5t55.5 30t64 26q23 9 43.5 19t36 22.5
t25 26.5t9.5 30t-1.5 44t-10 55.5t-27 47.5t-52.5 20q-27 0 -49 -13.5t-37 -39t-21 -60.5t0 -79l-12 -5l-48 141q19 19 46 34q23 13 56.5 23.5t78.5 10.5q55 0 84.5 -17.5t43 -46.5t16 -65.5t2.5 -74.5v-219q0 -40 15 -53.5t49 -13.5h41l20 -12h-48q-45 -18 -69 -49t-24 -73
q0 -35 18 -57.5t51 -23.5q31 0 49 21t18 48h13zM326 286q-6 -12 -17 -22.5t-26 -19.5t-32 -16.5t-34 -14.5q-21 -9 -40 -17t-33 -20t-22.5 -29.5t-8.5 -44.5q0 -17 4 -33t13 -28.5t24 -20t37 -7.5q35 0 60 17.5t42 41t25 46t8 32.5v136z" />
    <glyph glyph-name="Cacute" unicode="&#x106;" horiz-adv-x="759" 
d="M236 805l356 53l13 -19l-369 -46v12zM447 -20q-90 0 -165 25.5t-128.5 73.5t-83.5 117t-30 155q0 72 28 138.5t77 117.5t116 81.5t145 30.5q53 0 94 -6.5t72.5 -15t55.5 -15t43 -6.5q7 0 17 2l3 -9q-19 -10 -33.5 -35t-25.5 -58t-20 -71.5t-17 -76.5l-10 12q4 19 6 46
t-0.5 57t-12.5 59t-31.5 52.5t-55.5 38t-85 14.5q-58 0 -101.5 -15.5t-74.5 -40.5t-51 -57t-31 -65t-15.5 -64.5t-4.5 -56.5q0 -48 10 -97.5t29 -95.5t47 -86.5t64 -71t80 -48t95 -17.5q115 0 178.5 68t90.5 206l12 -2l-50 -224q-33 -17 -72 -30q-32 -11 -74.5 -20.5
t-90.5 -9.5z" />
    <glyph glyph-name="cacute" unicode="&#x107;" horiz-adv-x="522" 
d="M118 580l313 87l18 -18l-331 -82v13zM288 -20q-50 0 -96.5 19.5t-82.5 55t-57.5 84t-21.5 105.5t21.5 104t57.5 81.5t82.5 53.5t96.5 19q37 0 69 -9t56 -20q28 -13 52 -29l-48 -141l-11 4q3 45 -5 79t-24.5 57t-40 35t-52.5 12q-56 0 -90 -23t-52.5 -55.5t-24.5 -68
t-6 -61.5q0 -48 15 -96.5t42.5 -88t66 -64.5t84.5 -25q63 0 109.5 31.5t72.5 106.5l11 -5q-14 -38 -33.5 -68t-46 -50.5t-62 -31.5t-82.5 -11z" />
    <glyph glyph-name="Ccircumflex" unicode="&#x108;" horiz-adv-x="759" 
d="M414 912l211 -125h-40l-171 111l-173 -111h-40zM447 -20q-90 0 -165 25.5t-128.5 73.5t-83.5 117t-30 155q0 72 28 138.5t77 117.5t116 81.5t145 30.5q53 0 94 -6.5t72.5 -15t55.5 -15t43 -6.5q7 0 17 2l3 -9q-19 -10 -33.5 -35t-25.5 -58t-20 -71.5t-17 -76.5l-10 12
q4 19 6 46t-0.5 57t-12.5 59t-31.5 52.5t-55.5 38t-85 14.5q-58 0 -101.5 -15.5t-74.5 -40.5t-51 -57t-31 -65t-15.5 -64.5t-4.5 -56.5q0 -48 10 -97.5t29 -95.5t47 -86.5t64 -71t80 -48t95 -17.5q115 0 178.5 68t90.5 206l12 -2l-50 -224q-33 -17 -72 -30
q-32 -11 -74.5 -20.5t-90.5 -9.5z" />
    <glyph glyph-name="ccircumflex" unicode="&#x109;" horiz-adv-x="522" 
d="M284 650l161 -102h-37l-124 87l-125 -87h-38zM288 -20q-50 0 -96.5 19.5t-82.5 55t-57.5 84t-21.5 105.5t21.5 104t57.5 81.5t82.5 53.5t96.5 19q37 0 69 -9t56 -20q28 -13 52 -29l-48 -141l-11 4q3 45 -5 79t-24.5 57t-40 35t-52.5 12q-56 0 -90 -23t-52.5 -55.5
t-24.5 -68t-6 -61.5q0 -48 15 -96.5t42.5 -88t66 -64.5t84.5 -25q63 0 109.5 31.5t72.5 106.5l11 -5q-14 -38 -33.5 -68t-46 -50.5t-62 -31.5t-82.5 -11z" />
    <glyph glyph-name="Cdotaccent" unicode="&#x10a;" horiz-adv-x="759" 
d="M415 767q-26 0 -44 18t-18 44t18 44t44 18t44 -18t18 -44t-18 -44t-44 -18zM447 -20q-90 0 -165 25.5t-128.5 73.5t-83.5 117t-30 155q0 72 28 138.5t77 117.5t116 81.5t145 30.5q53 0 94 -6.5t72.5 -15t55.5 -15t43 -6.5q7 0 17 2l3 -9q-19 -10 -33.5 -35t-25.5 -58
t-20 -71.5t-17 -76.5l-10 12q4 19 6 46t-0.5 57t-12.5 59t-31.5 52.5t-55.5 38t-85 14.5q-58 0 -101.5 -15.5t-74.5 -40.5t-51 -57t-31 -65t-15.5 -64.5t-4.5 -56.5q0 -48 10 -97.5t29 -95.5t47 -86.5t64 -71t80 -48t95 -17.5q115 0 178.5 68t90.5 206l12 -2l-50 -224
q-33 -17 -72 -30q-32 -11 -74.5 -20.5t-90.5 -9.5z" />
    <glyph glyph-name="cdotaccent" unicode="&#x10b;" horiz-adv-x="522" 
d="M280 576q-27 0 -46.5 19.5t-19.5 47.5t19.5 48t46.5 20q28 0 47.5 -20t19.5 -48t-19.5 -47.5t-47.5 -19.5zM288 -20q-50 0 -96.5 19.5t-82.5 55t-57.5 84t-21.5 105.5t21.5 104t57.5 81.5t82.5 53.5t96.5 19q37 0 69 -9t56 -20q28 -13 52 -29l-48 -141l-11 4q3 45 -5 79
t-24.5 57t-40 35t-52.5 12q-56 0 -90 -23t-52.5 -55.5t-24.5 -68t-6 -61.5q0 -48 15 -96.5t42.5 -88t66 -64.5t84.5 -25q63 0 109.5 31.5t72.5 106.5l11 -5q-14 -38 -33.5 -68t-46 -50.5t-62 -31.5t-82.5 -11z" />
    <glyph glyph-name="Ccaron" unicode="&#x10c;" horiz-adv-x="759" 
d="M243 904l173 -111l171 111h40l-211 -125l-213 125h40zM447 -20q-90 0 -165 25.5t-128.5 73.5t-83.5 117t-30 155q0 72 28 138.5t77 117.5t116 81.5t145 30.5q53 0 94 -6.5t72.5 -15t55.5 -15t43 -6.5q7 0 17 2l3 -9q-19 -10 -33.5 -35t-25.5 -58t-20 -71.5t-17 -76.5
l-10 12q4 19 6 46t-0.5 57t-12.5 59t-31.5 52.5t-55.5 38t-85 14.5q-58 0 -101.5 -15.5t-74.5 -40.5t-51 -57t-31 -65t-15.5 -64.5t-4.5 -56.5q0 -48 10 -97.5t29 -95.5t47 -86.5t64 -71t80 -48t95 -17.5q115 0 178.5 68t90.5 206l12 -2l-50 -224q-33 -17 -72 -30
q-32 -11 -74.5 -20.5t-90.5 -9.5z" />
    <glyph glyph-name="ccaron" unicode="&#x10d;" horiz-adv-x="522" 
d="M109 662h41l134 -95l133 95h39l-172 -111zM288 -20q-50 0 -96.5 19.5t-82.5 55t-57.5 84t-21.5 105.5t21.5 104t57.5 81.5t82.5 53.5t96.5 19q37 0 69 -9t56 -20q28 -13 52 -29l-48 -141l-11 4q3 45 -5 79t-24.5 57t-40 35t-52.5 12q-56 0 -90 -23t-52.5 -55.5t-24.5 -68
t-6 -61.5q0 -48 15 -96.5t42.5 -88t66 -64.5t84.5 -25q63 0 109.5 31.5t72.5 106.5l11 -5q-14 -38 -33.5 -68t-46 -50.5t-62 -31.5t-82.5 -11z" />
    <glyph glyph-name="Dcaron" unicode="&#x10e;" horiz-adv-x="784" 
d="M214 885l173 -111l171 111h40l-211 -125l-213 125h40zM10 12h50q29 0 45.5 6.5t24 20t9 35t1.5 52.5v471q0 24 -1.5 41.5t-9.5 28.5t-25 16t-49 5h-65l20 12h359q89 0 158.5 -29t117.5 -75.5t73.5 -105.5t25.5 -119q0 -85 -27 -154t-72 -117t-103.5 -74t-122.5 -26h-429z
M418 12q30 0 72.5 15t81 49t65.5 88.5t27 132.5q0 83 -24 154.5t-69 124t-109.5 82.5t-146.5 30q-36 0 -56.5 -1.5t-30 -10.5t-11.5 -27.5t-2 -51.5v-472q0 -30 1.5 -51.5t8.5 -35t22.5 -20t42.5 -6.5h128z" />
    <glyph glyph-name="dcaron" unicode="&#x10f;" horiz-adv-x="580" 
d="M589 740q6 0 12.5 -3.5t12 -8t9.5 -10t5 -9.5q8 -46 -10.5 -91.5t-74.5 -81.5l-2 11q35 23 46.5 51t4.5 54q-2 9 -6.5 13.5t-9 8.5t-8.5 9t-6 15q-1 5 1.5 11.5t6.5 13t9.5 11.5t9.5 6zM266 -20q-52 0 -95.5 19.5t-75 55t-48.5 84t-17 105.5t20 104t52.5 81.5t73.5 53.5
t83 19q52 0 91 -20.5t65 -58.5v134q0 57 -9.5 80t-35.5 23q-14 0 -32.5 -5t-44.5 -14l-6 11l192 68h6v-641q0 -40 15 -53.5t49 -13.5h41l20 -12h-194v61q-27 -38 -64.5 -59.5t-85.5 -21.5zM294 -2q37 0 70.5 30t50.5 90v197q-11 41 -30 73t-42.5 53.5t-49.5 32.5t-50 11
q-49 0 -77 -21.5t-42 -53t-17.5 -66.5t-3.5 -62q0 -48 11.5 -98t35.5 -91.5t60 -68t84 -26.5z" />
    <glyph glyph-name="Dcroat" unicode="&#x110;" horiz-adv-x="785" 
d="M10 12h61q26 0 40 6.5t20.5 20t8 35t1.5 52.5v282h-151l20 12h131v177q0 24 -1 41.5t-8 28.5t-22.5 16t-43.5 5h-76l20 12h360q89 0 158.5 -29t117.5 -75.5t73.5 -105.5t25.5 -119q0 -85 -27 -154t-72 -117t-103.5 -74t-122.5 -26h-430zM419 12q30 0 72.5 15t81 49
t65.5 88.5t27 132.5q0 83 -24 154.5t-69 124t-109.5 82.5t-146.5 30q-36 0 -56.5 -1.5t-30 -10.5t-11.5 -27.5t-2 -51.5v-177h140l10 -12h-150v-283q0 -30 1.5 -51.5t8.5 -35t22.5 -20t42.5 -6.5h128z" />
    <glyph glyph-name="dcroat" unicode="&#x111;" horiz-adv-x="580" 
d="M416 0v61q-27 -38 -64.5 -59.5t-85.5 -21.5q-52 0 -95.5 19.5t-75 55t-48.5 84t-17 105.5t20 104t52.5 81.5t73.5 53.5t83 19q52 0 91 -20.5t65 -58.5v131h-163l11 12h152q-1 52 -10 73t-35 21q-14 0 -32.5 -5.5t-44.5 -13.5l-6 11l192 68h6v-154h78l11 -12h-89v-475
q0 -40 15 -53.5t49 -13.5h41l20 -12h-194zM415 315q-11 41 -30 73t-42.5 53.5t-49.5 32.5t-50 11q-49 0 -77 -21.5t-42 -53t-17.5 -66.5t-3.5 -62q0 -48 11.5 -98t35.5 -91.5t60 -68t84 -26.5q37 0 70.5 30t50.5 90v197z" />
    <glyph glyph-name="Emacron" unicode="&#x112;" horiz-adv-x="597" 
d="M78 809h465l10 -12h-485zM10 12h50q29 0 45.5 6.5t24 20t9 35t1.5 52.5v471q0 24 -1.5 41.5t-9.5 28.5t-25 16t-49 5h-65l20 12h410q47 0 84.5 4.5t53.5 12.5l5 -8q-28 -29 -37.5 -82.5t-9.5 -141.5l-12 11q0 34 -2 68.5t-10.5 62t-25 44.5t-46.5 17h-135q-26 0 -40.5 -5
t-21 -16t-7.5 -28.5t-1 -41.5v-121q0 -31 1.5 -51t7.5 -31.5t18 -15.5t33 -4h65q28 0 43 5.5t22 19t8 35.5t1 55h12v-267l-12 10q0 23 -1 46t-8 41.5t-22 30.5t-43 12h-65q-21 0 -33 -4t-18 -13.5t-7.5 -24.5t-1.5 -38v-157q0 -30 1.5 -51.5t8.5 -35t22.5 -20t42.5 -6.5
q114 0 187 38t120 125l10 -3l-86 -172h-531z" />
    <glyph glyph-name="emacron" unicode="&#x113;" horiz-adv-x="513" 
d="M39 644h445v-13h-445v13zM275 -20q-51 0 -96 20t-78 55t-52 83t-19 104q0 58 19.5 105.5t52.5 82t75.5 53.5t88.5 19q37 0 71.5 -13t63 -36.5t50 -56.5t32.5 -74h-380q-4 -56 9 -112t40 -101t66.5 -73t89.5 -28q37 0 66.5 15.5t50 41.5t31.5 61.5t11 74.5h12
q1 -48 -13.5 -89t-41 -70t-64.5 -45.5t-85 -16.5zM398 334q-26 69 -70.5 109t-95.5 40q-32 0 -55 -14t-38.5 -35.5t-23.5 -48t-11 -51.5h294z" />
    <glyph glyph-name="Edotaccent" unicode="&#x116;" horiz-adv-x="597" 
d="M315 747q-26 0 -44 18t-18 44t18 44t44 18t44 -18t18 -44t-18 -44t-44 -18zM10 12h50q29 0 45.5 6.5t24 20t9 35t1.5 52.5v471q0 24 -1.5 41.5t-9.5 28.5t-25 16t-49 5h-65l20 12h410q47 0 84.5 4.5t53.5 12.5l5 -8q-28 -29 -37.5 -82.5t-9.5 -141.5l-12 11q0 34 -2 68.5
t-10.5 62t-25 44.5t-46.5 17h-135q-26 0 -40.5 -5t-21 -16t-7.5 -28.5t-1 -41.5v-121q0 -31 1.5 -51t7.5 -31.5t18 -15.5t33 -4h65q28 0 43 5.5t22 19t8 35.5t1 55h12v-267l-12 10q0 23 -1 46t-8 41.5t-22 30.5t-43 12h-65q-21 0 -33 -4t-18 -13.5t-7.5 -24.5t-1.5 -38v-157
q0 -30 1.5 -51.5t8.5 -35t22.5 -20t42.5 -6.5q114 0 187 38t120 125l10 -3l-86 -172h-531z" />
    <glyph glyph-name="edotaccent" unicode="&#x117;" horiz-adv-x="513" 
d="M262 582q-27 0 -46.5 19.5t-19.5 47.5t19.5 48t46.5 20q28 0 47.5 -20t19.5 -48t-19.5 -47.5t-47.5 -19.5zM275 -20q-51 0 -96 20t-78 55t-52 83t-19 104q0 58 19.5 105.5t52.5 82t75.5 53.5t88.5 19q37 0 71.5 -13t63 -36.5t50 -56.5t32.5 -74h-380q-4 -56 9 -112
t40 -101t66.5 -73t89.5 -28q37 0 66.5 15.5t50 41.5t31.5 61.5t11 74.5h12q1 -48 -13.5 -89t-41 -70t-64.5 -45.5t-85 -16.5zM398 334q-26 69 -70.5 109t-95.5 40q-32 0 -55 -14t-38.5 -35.5t-23.5 -48t-11 -51.5h294z" />
    <glyph glyph-name="Eogonek" unicode="&#x118;" horiz-adv-x="597" 
d="M435 -112q0 -33 17 -53.5t49 -21.5q27 0 43.5 19.5t16.5 44.5h12q0 -35 -24.5 -60t-67.5 -25q-21 0 -39 7.5t-30.5 20t-20 29.5t-7.5 36q0 26 11.5 45.5t29.5 33t39 22.5t40 14h-514l20 12h50q29 0 45.5 6.5t24 20t9 35t1.5 52.5v471q0 24 -1.5 41.5t-9.5 28.5t-25 16
t-49 5h-65l20 12h410q47 0 84.5 4.5t53.5 12.5l5 -8q-28 -29 -37.5 -82.5t-9.5 -141.5l-12 11q0 34 -2 68.5t-10.5 62t-25 44.5t-46.5 17h-135q-26 0 -40.5 -5t-21 -16t-7.5 -28.5t-1 -41.5v-121q0 -31 1.5 -51t7.5 -31.5t18 -15.5t33 -4h65q28 0 43 5.5t22 19t8 35.5t1 55
h12v-267l-12 10q0 23 -1 46t-8 41.5t-22 30.5t-43 12h-65q-21 0 -33 -4t-18 -13.5t-7.5 -24.5t-1.5 -38v-157q0 -30 1.5 -51.5t8.5 -35t22.5 -20t42.5 -6.5q114 0 187 38t120 125l10 -3l-86 -172q-42 -17 -64 -45.5t-22 -66.5z" />
    <glyph glyph-name="eogonek" unicode="&#x119;" horiz-adv-x="513" 
d="M479 201q2 -79 -36 -135.5t-104 -76.5h3q-45 -18 -69 -49t-24 -73q0 -35 18 -57.5t51 -23.5q31 0 49 21t18 48h13q0 -38 -26.5 -65t-72.5 -27q-22 0 -41.5 8t-33 22t-21.5 32t-8 39q0 24 9.5 43t24.5 33t33.5 24t37.5 17q-6 -1 -12.5 -1h-12.5q-51 0 -96 20t-78 55
t-52 83t-19 104q0 58 19.5 105.5t52.5 82t75.5 53.5t88.5 19q37 0 71.5 -13t63 -36.5t50 -56.5t32.5 -74h-380q-4 -56 9 -112t40 -101t66.5 -73t89.5 -28q37 0 66.5 15.5t50 41.5t31.5 61.5t11 74.5h12zM232 483q-32 0 -55 -14t-38.5 -35.5t-23.5 -48t-11 -51.5h294
q-26 69 -70.5 109t-95.5 40z" />
    <glyph glyph-name="Ecaron" unicode="&#x11a;" horiz-adv-x="597" 
d="M143 884l173 -111l171 111h40l-211 -125l-213 125h40zM10 12h50q29 0 45.5 6.5t24 20t9 35t1.5 52.5v471q0 24 -1.5 41.5t-9.5 28.5t-25 16t-49 5h-65l20 12h410q47 0 84.5 4.5t53.5 12.5l5 -8q-28 -29 -37.5 -82.5t-9.5 -141.5l-12 11q0 34 -2 68.5t-10.5 62t-25 44.5
t-46.5 17h-135q-26 0 -40.5 -5t-21 -16t-7.5 -28.5t-1 -41.5v-121q0 -31 1.5 -51t7.5 -31.5t18 -15.5t33 -4h65q28 0 43 5.5t22 19t8 35.5t1 55h12v-267l-12 10q0 23 -1 46t-8 41.5t-22 30.5t-43 12h-65q-21 0 -33 -4t-18 -13.5t-7.5 -24.5t-1.5 -38v-157q0 -30 1.5 -51.5
t8.5 -35t22.5 -20t42.5 -6.5q114 0 187 38t120 125l10 -3l-86 -172h-531z" />
    <glyph glyph-name="ecaron" unicode="&#x11b;" horiz-adv-x="513" 
d="M91 668h41l134 -95l133 95h39l-172 -111zM275 -20q-51 0 -96 20t-78 55t-52 83t-19 104q0 58 19.5 105.5t52.5 82t75.5 53.5t88.5 19q37 0 71.5 -13t63 -36.5t50 -56.5t32.5 -74h-380q-4 -56 9 -112t40 -101t66.5 -73t89.5 -28q37 0 66.5 15.5t50 41.5t31.5 61.5t11 74.5
h12q1 -48 -13.5 -89t-41 -70t-64.5 -45.5t-85 -16.5zM398 334q-26 69 -70.5 109t-95.5 40q-32 0 -55 -14t-38.5 -35.5t-23.5 -48t-11 -51.5h294z" />
    <glyph glyph-name="Gcircumflex" unicode="&#x11c;" horiz-adv-x="786" 
d="M404 912l211 -125h-40l-171 111l-173 -111h-40zM450 -20q-91 0 -166.5 25t-129.5 72t-84 116.5t-30 157.5q0 72 28 138.5t77 117.5t116 81.5t145 30.5q53 0 94 -6.5t72.5 -15t55.5 -15t43 -6.5q7 0 17 2l3 -9q-19 -10 -33.5 -35t-25.5 -58t-20 -71.5t-17 -76.5l-10 12
q4 19 6 46t-0.5 57t-12.5 59t-31.5 52.5t-55.5 38t-85 14.5q-58 0 -101.5 -15.5t-74.5 -40.5t-51 -57t-31 -65t-15.5 -64.5t-4.5 -56.5q0 -78 23 -152.5t65 -133t101.5 -94.5t132.5 -36q64 0 108 24.5t69 62t29.5 80.5t-10.5 80.5t-50.5 62t-91.5 24.5h-304l20 13h498
l38 -339h-12q-8 60 -17 92t-23 32q-9 0 -26 -22.5t-46.5 -49.5t-74 -49.5t-107.5 -22.5z" />
    <glyph glyph-name="gcircumflex" unicode="&#x11d;" horiz-adv-x="538" 
d="M254 655l161 -102h-37l-124 87l-125 -87h-38zM200 -235q-32 0 -59.5 7t-47.5 21t-31.5 35.5t-11.5 50.5q0 24 9 46.5t24.5 41.5t35.5 34t42 24q-15 0 -31.5 4.5t-30 13.5t-22 23.5t-8.5 35.5q0 17 8 32t19 27t22.5 20.5t18.5 13.5q-32 21 -52.5 55.5t-20.5 81.5
q0 39 15.5 70t42 53.5t60.5 34.5t71 12q35 0 58 -2t48.5 -4t61.5 -4t97 -2v-145l-12 -8q0 67 -27 105.5t-73 38.5q-9 0 -17 -1t-14 -3q-7 -2 -12 -5q34 -23 54 -58.5t20 -81.5q0 -42 -17 -73.5t-44.5 -53.5t-61 -33t-66.5 -11q-26 0 -51.5 7t-48.5 20q-20 -18 -25 -31
t-5 -26q0 -29 25 -40.5t70 -11.5h102q34 0 62.5 -5.5t48.5 -18t31.5 -32t11.5 -48.5q0 -40 -21 -78t-58 -67t-85.5 -47t-104.5 -18zM268 175q24 0 41.5 11t29.5 30t17.5 44.5t5.5 53.5q0 42 -12 74t-30.5 54.5t-41.5 34t-45 11.5q-30 0 -48.5 -14t-29 -33.5t-14 -41.5
t-3.5 -39q0 -31 8.5 -64t25 -60t41 -44t55.5 -17zM246 -210q33 0 64 9.5t56 27.5t40 43.5t15 57.5q0 97 -129 97h-88q-38 0 -62 -30.5t-24 -74.5q0 -26 7.5 -49.5t23 -41.5t40 -28.5t57.5 -10.5z" />
    <glyph glyph-name="Gbreve" unicode="&#x11e;" horiz-adv-x="786" 
d="M407 761q-36 0 -64.5 12.5t-48.5 33.5t-30.5 49t-10.5 59h12q0 -25 10 -49.5t28.5 -43t44.5 -30t59 -11.5t59.5 11.5t45 30t28 43t9.5 49.5h12q0 -31 -10.5 -59t-30 -49t-48.5 -33.5t-65 -12.5zM450 -20q-91 0 -166.5 25t-129.5 72t-84 116.5t-30 157.5q0 72 28 138.5
t77 117.5t116 81.5t145 30.5q53 0 94 -6.5t72.5 -15t55.5 -15t43 -6.5q7 0 17 2l3 -9q-19 -10 -33.5 -35t-25.5 -58t-20 -71.5t-17 -76.5l-10 12q4 19 6 46t-0.5 57t-12.5 59t-31.5 52.5t-55.5 38t-85 14.5q-58 0 -101.5 -15.5t-74.5 -40.5t-51 -57t-31 -65t-15.5 -64.5
t-4.5 -56.5q0 -78 23 -152.5t65 -133t101.5 -94.5t132.5 -36q64 0 108 24.5t69 62t29.5 80.5t-10.5 80.5t-50.5 62t-91.5 24.5h-304l20 13h498l38 -339h-12q-8 60 -17 92t-23 32q-9 0 -26 -22.5t-46.5 -49.5t-74 -49.5t-107.5 -22.5z" />
    <glyph glyph-name="gbreve" unicode="&#x11f;" horiz-adv-x="538" 
d="M254 547q-51 0 -86.5 34.5t-35.5 100.5h13q0 -28 10 -49t26 -35t35 -21.5t38 -7.5q20 0 39.5 7.5t35.5 21.5t25.5 35t9.5 49h12q0 -66 -35 -100.5t-87 -34.5zM200 -235q-32 0 -59.5 7t-47.5 21t-31.5 35.5t-11.5 50.5q0 24 9 46.5t24.5 41.5t35.5 34t42 24
q-15 0 -31.5 4.5t-30 13.5t-22 23.5t-8.5 35.5q0 17 8 32t19 27t22.5 20.5t18.5 13.5q-32 21 -52.5 55.5t-20.5 81.5q0 39 15.5 70t42 53.5t60.5 34.5t71 12q35 0 58 -2t48.5 -4t61.5 -4t97 -2v-145l-12 -8q0 67 -27 105.5t-73 38.5q-9 0 -17 -1t-14 -3q-7 -2 -12 -5
q34 -23 54 -58.5t20 -81.5q0 -42 -17 -73.5t-44.5 -53.5t-61 -33t-66.5 -11q-26 0 -51.5 7t-48.5 20q-20 -18 -25 -31t-5 -26q0 -29 25 -40.5t70 -11.5h102q34 0 62.5 -5.5t48.5 -18t31.5 -32t11.5 -48.5q0 -40 -21 -78t-58 -67t-85.5 -47t-104.5 -18zM268 175q24 0 41.5 11
t29.5 30t17.5 44.5t5.5 53.5q0 42 -12 74t-30.5 54.5t-41.5 34t-45 11.5q-30 0 -48.5 -14t-29 -33.5t-14 -41.5t-3.5 -39q0 -31 8.5 -64t25 -60t41 -44t55.5 -17zM246 -210q33 0 64 9.5t56 27.5t40 43.5t15 57.5q0 97 -129 97h-88q-38 0 -62 -30.5t-24 -74.5
q0 -26 7.5 -49.5t23 -41.5t40 -28.5t57.5 -10.5z" />
    <glyph glyph-name="Gdotaccent" unicode="&#x120;" horiz-adv-x="786" 
d="M405 767q-26 0 -44 18t-18 44t18 44t44 18t44 -18t18 -44t-18 -44t-44 -18zM450 -20q-91 0 -166.5 25t-129.5 72t-84 116.5t-30 157.5q0 72 28 138.5t77 117.5t116 81.5t145 30.5q53 0 94 -6.5t72.5 -15t55.5 -15t43 -6.5q7 0 17 2l3 -9q-19 -10 -33.5 -35t-25.5 -58
t-20 -71.5t-17 -76.5l-10 12q4 19 6 46t-0.5 57t-12.5 59t-31.5 52.5t-55.5 38t-85 14.5q-58 0 -101.5 -15.5t-74.5 -40.5t-51 -57t-31 -65t-15.5 -64.5t-4.5 -56.5q0 -78 23 -152.5t65 -133t101.5 -94.5t132.5 -36q64 0 108 24.5t69 62t29.5 80.5t-10.5 80.5t-50.5 62
t-91.5 24.5h-304l20 13h498l38 -339h-12q-8 60 -17 92t-23 32q-9 0 -26 -22.5t-46.5 -49.5t-74 -49.5t-107.5 -22.5z" />
    <glyph glyph-name="gdotaccent" unicode="&#x121;" horiz-adv-x="538" 
d="M250 581q-27 0 -46.5 19.5t-19.5 47.5t19.5 48t46.5 20q28 0 47.5 -20t19.5 -48t-19.5 -47.5t-47.5 -19.5zM200 -235q-32 0 -59.5 7t-47.5 21t-31.5 35.5t-11.5 50.5q0 24 9 46.5t24.5 41.5t35.5 34t42 24q-15 0 -31.5 4.5t-30 13.5t-22 23.5t-8.5 35.5q0 17 8 32t19 27
t22.5 20.5t18.5 13.5q-32 21 -52.5 55.5t-20.5 81.5q0 39 15.5 70t42 53.5t60.5 34.5t71 12q35 0 58 -2t48.5 -4t61.5 -4t97 -2v-145l-12 -8q0 67 -27 105.5t-73 38.5q-9 0 -17 -1t-14 -3q-7 -2 -12 -5q34 -23 54 -58.5t20 -81.5q0 -42 -17 -73.5t-44.5 -53.5t-61 -33
t-66.5 -11q-26 0 -51.5 7t-48.5 20q-20 -18 -25 -31t-5 -26q0 -29 25 -40.5t70 -11.5h102q34 0 62.5 -5.5t48.5 -18t31.5 -32t11.5 -48.5q0 -40 -21 -78t-58 -67t-85.5 -47t-104.5 -18zM268 175q24 0 41.5 11t29.5 30t17.5 44.5t5.5 53.5q0 42 -12 74t-30.5 54.5t-41.5 34
t-45 11.5q-30 0 -48.5 -14t-29 -33.5t-14 -41.5t-3.5 -39q0 -31 8.5 -64t25 -60t41 -44t55.5 -17zM246 -210q33 0 64 9.5t56 27.5t40 43.5t15 57.5q0 97 -129 97h-88q-38 0 -62 -30.5t-24 -74.5q0 -26 7.5 -49.5t23 -41.5t40 -28.5t57.5 -10.5z" />
    <glyph glyph-name="uni0122" unicode="&#x122;" horiz-adv-x="786" 
d="M450 -20q-91 0 -166.5 25t-129.5 72t-84 116.5t-30 157.5q0 72 28 138.5t77 117.5t116 81.5t145 30.5q53 0 94 -6.5t72.5 -15t55.5 -15t43 -6.5q7 0 17 2l3 -9q-19 -10 -33.5 -35t-25.5 -58t-20 -71.5t-17 -76.5l-10 12q4 19 6 46t-0.5 57t-12.5 59t-31.5 52.5t-55.5 38
t-85 14.5q-58 0 -101.5 -15.5t-74.5 -40.5t-51 -57t-31 -65t-15.5 -64.5t-4.5 -56.5q0 -78 23 -152.5t65 -133t101.5 -94.5t132.5 -36q64 0 108 24.5t69 62t29.5 80.5t-10.5 80.5t-50.5 62t-91.5 24.5h-304l20 13h498l38 -339h-12q-8 60 -17 92t-23 32q-9 0 -26 -22.5
t-46.5 -49.5t-74 -49.5t-107.5 -22.5zM355 -260q45 16 68 46.5t23 64.5q0 12 -3 18.5t-7 12t-7 11.5t-3 16q0 4 3.5 10.5t9 12.5t11.5 10t10 4q5 0 10.5 -4t10.5 -10t8.5 -12.5t3.5 -10.5q0 -62 -34.5 -109t-103.5 -71v11z" />
    <glyph glyph-name="uni0123" unicode="&#x123;" horiz-adv-x="538" 
d="M268 552q-6 0 -13 3.5t-13 9t-10.5 11.5t-5.5 10q-8 51 11.5 99.5t79.5 88.5l2 -12q-37 -26 -49.5 -56.5t-4.5 -57.5q2 -9 6.5 -14t9.5 -9.5t9.5 -10t6.5 -16.5q1 -5 -1.5 -12.5t-7 -14.5t-10 -12.5t-10.5 -6.5zM200 -235q-32 0 -59.5 7t-47.5 21t-31.5 35.5t-11.5 50.5
q0 24 9 46.5t24.5 41.5t35.5 34t42 24q-15 0 -31.5 4.5t-30 13.5t-22 23.5t-8.5 35.5q0 17 8 32t19 27t22.5 20.5t18.5 13.5q-32 21 -52.5 55.5t-20.5 81.5q0 39 15.5 70t42 53.5t60.5 34.5t71 12q35 0 58 -2t48.5 -4t61.5 -4t97 -2v-145l-12 -8q0 67 -27 105.5t-73 38.5
q-9 0 -17 -1t-14 -3q-7 -2 -12 -5q34 -23 54 -58.5t20 -81.5q0 -42 -17 -73.5t-44.5 -53.5t-61 -33t-66.5 -11q-26 0 -51.5 7t-48.5 20q-20 -18 -25 -31t-5 -26q0 -29 25 -40.5t70 -11.5h102q34 0 62.5 -5.5t48.5 -18t31.5 -32t11.5 -48.5q0 -40 -21 -78t-58 -67t-85.5 -47
t-104.5 -18zM268 175q24 0 41.5 11t29.5 30t17.5 44.5t5.5 53.5q0 42 -12 74t-30.5 54.5t-41.5 34t-45 11.5q-30 0 -48.5 -14t-29 -33.5t-14 -41.5t-3.5 -39q0 -31 8.5 -64t25 -60t41 -44t55.5 -17zM246 -210q33 0 64 9.5t56 27.5t40 43.5t15 57.5q0 97 -129 97h-88
q-38 0 -62 -30.5t-24 -74.5q0 -26 7.5 -49.5t23 -41.5t40 -28.5t57.5 -10.5z" />
    <glyph glyph-name="Hcircumflex" unicode="&#x124;" horiz-adv-x="825" 
d="M412 893l211 -125h-40l-171 111l-173 -111h-40zM10 12h50q29 0 45.5 6.5t24 20t9 35t1.5 52.5v471q0 24 -1.5 41.5t-9.5 28.5t-25 16t-49 5h-65l20 12h336l10 -12h-71q-26 0 -40.5 -5t-21 -16t-7.5 -28.5t-1 -41.5v-141q0 -31 1.5 -51t7.5 -31.5t18 -15.5t33 -4h255
q28 0 44 4t24 15.5t10 32t2 53.5v138q0 24 -1 41.5t-8 28.5t-22.5 16t-43.5 5h-66l10 12h336l20 -12h-66q-31 0 -48.5 -5t-25 -16t-9 -28.5t-1.5 -41.5v-472q0 -30 1.5 -51.5t9 -35t24 -20t45.5 -6.5h50l20 -12h-366l10 12h61q26 0 40 6.5t20.5 20t8 35t1.5 52.5v136
q0 23 -2 38t-10 24.5t-24 13.5t-44 4h-255q-21 0 -33 -4t-18 -13.5t-7.5 -24.5t-1.5 -38v-137q0 -30 1.5 -51.5t8.5 -35t22.5 -20t42.5 -6.5h56l10 -12h-366z" />
    <glyph glyph-name="hcircumflex" unicode="&#x125;" horiz-adv-x="599" 
d="M178 813l161 -102h-37l-124 87l-125 -87h-38zM13 12h39q34 0 48.5 13.5t14.5 53.5v478q0 57 -9.5 79.5t-35.5 22.5q-14 0 -32 -5t-44 -13l-6 11l190 68h7v-375q2 11 12 37t32 52.5t57.5 47t87.5 20.5q45 0 71 -18t39 -45.5t16.5 -60t3.5 -61.5v-260q0 -16 5 -25t14 -13.5
t21 -5.5t25 -1h40l20 -12h-318l20 12h45q26 0 44.5 7t18.5 38v257q0 27 -4 55t-15 50.5t-31.5 36.5t-53.5 14q-21 0 -47 -11.5t-49 -36.5t-38.5 -63.5t-15.5 -92.5v-187q0 -40 15 -53.5t49 -13.5h42l20 -12h-318z" />
    <glyph glyph-name="Hbar" unicode="&#x126;" horiz-adv-x="825" 
d="M815 12l20 -12h-366l10 12h61q26 0 40 6.5t20.5 20t8 35t1.5 52.5v136q0 23 -2 38t-10 24.5t-24 13.5t-44 4h-255q-21 0 -33 -4t-18 -13.5t-7.5 -24.5t-1.5 -38v-137q0 -30 1.5 -51.5t8.5 -35t22.5 -20t42.5 -6.5h56l10 -12h-366l20 12h50q29 0 45.5 6.5t24 20t9 35
t1.5 52.5v450h-96l20 12h76v9q0 24 -1.5 41.5t-9.5 28.5t-25 16t-49 5h-65l20 12h336l10 -12h-71q-26 0 -40.5 -5t-21 -16t-7.5 -28.5t-1 -41.5v-9h395v9q0 24 -1 41.5t-8 28.5t-22.5 16t-43.5 5h-66l10 12h336l20 -12h-66q-31 0 -48.5 -5t-25 -16t-9 -28.5t-1.5 -41.5v-9
h69l20 -12h-89v-451q0 -30 1.5 -51.5t9 -35t24 -20t45.5 -6.5h50zM530 354q28 0 44 4t24 15.5t10 32t2 53.5v117h-395v-120q0 -31 1.5 -51t7.5 -31.5t18 -15.5t33 -4h255z" />
    <glyph glyph-name="hbar" unicode="&#x127;" horiz-adv-x="591" 
d="M621 0h-308l32 12h31q26 0 44 7t18 38v257q0 27 -3.5 55t-14 50.5t-30.5 36.5t-53 14q-21 0 -47 -11.5t-49 -36.5t-38.5 -63.5t-15.5 -92.5v-209q0 -16 7 -25t17.5 -13.5t24 -5.5t26.5 -1h19l32 -12h-309l22 12h28q26 0 44.5 7t18.5 38v519h-69l22 13h46q-2 38 -12 54
t-33 16q-14 0 -32.5 -5t-44.5 -13l-6 11l192 68h7v-131h173l21 -13h-194v-231q2 11 12 37t32 52.5t57.5 47t87.5 20.5q47 0 73 -18t39.5 -45.5t16.5 -60t3 -61.5v-260q0 -16 5 -25t14 -13.5t20.5 -5.5t24.5 -1h28z" />
    <glyph glyph-name="Itilde" unicode="&#x128;" horiz-adv-x="355" 
d="M10 12h50q29 0 45.5 6.5t24 20t9 35t1.5 52.5v471q0 24 -1.5 41.5t-9.5 28.5t-25 16t-49 5h-65l20 12h335l20 -12h-66q-31 0 -48.5 -5t-25 -16t-9 -28.5t-1.5 -41.5v-472q0 -30 1.5 -51.5t9 -35t24 -20t45.5 -6.5h50l20 -12h-375zM17 783q9 24 22 43q11 16 28.5 29
t42.5 13q26 0 45.5 -12.5t36.5 -27.5t35.5 -27.5t42.5 -12.5q17 0 28.5 8t18.5 18q8 11 13 25l10 -4q-5 -17 -15 -30q-8 -11 -23 -20.5t-39 -9.5t-42.5 11.5t-36 25t-36.5 25t-43 11.5q-20 0 -34.5 -10.5t-24.5 -24.5q-11 -15 -18 -35z" />
    <glyph glyph-name="itilde" unicode="&#x129;" horiz-adv-x="280" 
d="M15 12h37q34 0 48.5 13.5t14.5 53.5v260q0 47 -9.5 68.5t-38.5 21.5q-25 0 -74 -17l-5 11l190 69h7v-413q0 -40 15 -53.5t49 -13.5h41l20 -12h-315zM-18 583q8 24 20 43q11 16 28.5 29t42.5 13q26 0 44 -12t34 -26.5t32.5 -26.5t39.5 -12q20 0 34 8t22 18q11 11 17 25
l11 -5q-7 -17 -19 -29q-10 -11 -26 -20.5t-39 -9.5q-25 0 -43.5 10.5t-35.5 23.5t-33.5 23.5t-37.5 10.5t-36 -10.5t-24 -23.5q-12 -15 -19 -34z" />
    <glyph glyph-name="Imacron" unicode="&#x12a;" horiz-adv-x="355" 
d="M8 810h335l10 -12h-355zM10 12h50q29 0 45.5 6.5t24 20t9 35t1.5 52.5v471q0 24 -1.5 41.5t-9.5 28.5t-25 16t-49 5h-65l20 12h335l20 -12h-66q-31 0 -48.5 -5t-25 -16t-9 -28.5t-1.5 -41.5v-472q0 -30 1.5 -51.5t9 -35t24 -20t45.5 -6.5h50l20 -12h-375z" />
    <glyph glyph-name="imacron" unicode="&#x12b;" horiz-adv-x="280" 
d="M18 605h263l11 -13h-284zM15 12h37q34 0 48.5 13.5t14.5 53.5v260q0 47 -9.5 68.5t-38.5 21.5q-25 0 -74 -17l-5 11l190 69h7v-413q0 -40 15 -53.5t49 -13.5h41l20 -12h-315z" />
    <glyph glyph-name="Iogonek" unicode="&#x12e;" horiz-adv-x="355" 
d="M384 -123q0 -35 -24.5 -60t-67.5 -25q-21 0 -39 7.5t-30.5 20t-20 29.5t-7.5 36q0 26 11.5 45.5t29.5 33t39 22.5t40 14h-325l20 12h50q29 0 45.5 6.5t24 20t9 35t1.5 52.5v471q0 24 -1.5 41.5t-9.5 28.5t-25 16t-49 5h-65l20 12h335l20 -12h-66q-31 0 -48.5 -5t-25 -16
t-9 -28.5t-1.5 -41.5v-472q0 -30 1.5 -51.5t9 -35t24 -20t45.5 -6.5h50l20 -12h-33q-42 -17 -64 -45.5t-22 -66.5q0 -33 16.5 -53.5t47.5 -21.5q29 0 45.5 19.5t16.5 44.5h12z" />
    <glyph glyph-name="iogonek" unicode="&#x12f;" horiz-adv-x="280" 
d="M141 594q-6 0 -13 4t-13.5 10t-10.5 13t-4 12q0 6 4 13.5t10.5 14t13.5 10.5t13 4t13 -4t13 -10.5t10 -14t4 -13.5q0 -5 -4 -12t-10 -13t-13 -10t-13 -4zM110 -122q0 -35 18 -57.5t53 -23.5q29 0 47 21t18 48h13q0 -38 -26.5 -65t-72.5 -27q-22 0 -41.5 8t-33 22
t-21.5 32t-8 39q0 28 12.5 49t31.5 36t42 24.5t43 15.5h-190l20 12h37q34 0 48.5 13.5t14.5 53.5v260q0 47 -9.5 68.5t-38.5 21.5q-25 0 -74 -17l-5 11l190 69h7v-413q0 -40 15 -53.5t49 -13.5h41l20 -12h-107q-45 -18 -69 -49t-24 -73z" />
    <glyph glyph-name="Idotaccent" unicode="&#x130;" horiz-adv-x="355" 
d="M175 748q-26 0 -44 18t-18 44t18 44t44 18t44 -18t18 -44t-18 -44t-44 -18zM10 12h50q29 0 45.5 6.5t24 20t9 35t1.5 52.5v471q0 24 -1.5 41.5t-9.5 28.5t-25 16t-49 5h-65l20 12h335l20 -12h-66q-31 0 -48.5 -5t-25 -16t-9 -28.5t-1.5 -41.5v-472q0 -30 1.5 -51.5t9 -35
t24 -20t45.5 -6.5h50l20 -12h-375z" />
    <glyph glyph-name="dotlessi" unicode="&#x131;" horiz-adv-x="280" 
d="M15 12h37q34 0 48.5 13.5t14.5 53.5v260q0 47 -9.5 68.5t-38.5 21.5q-25 0 -74 -17l-5 11l190 69h7v-413q0 -40 15 -53.5t49 -13.5h41l20 -12h-315z" />
    <glyph glyph-name="Jcircumflex" unicode="&#x134;" horiz-adv-x="395" 
d="M223 893l178 -125h-32l-146 111l-144 -111h-35zM-60 -210q14 14 22 32.5t12.5 44t6 59t1.5 77.5l13 -3q0 -35 2 -68.5t11 -60t28 -43t52 -16.5q51 0 76.5 76.5t25.5 236.5v472q0 24 -1 41.5t-8 28.5t-22.5 16t-43.5 5h-76l20 12h326l20 -12h-70q-26 0 -40.5 -5t-21 -16
t-7.5 -28.5t-1 -41.5v-473q0 -87 -13 -148.5t-36.5 -100.5t-56.5 -57t-74 -18q-48 0 -86 -4.5t-54 -12.5z" />
    <glyph glyph-name="jcircumflex" unicode="&#x135;" horiz-adv-x="286" 
d="M123 682l121 -102h-27l-94 87l-95 -87h-28zM-14 -238h37q32 0 52 9t31 32t15.5 63.5t4.5 103.5v369q0 47 -9.5 68.5t-39.5 21.5q-25 0 -74 -17l-5 11l191 69h7v-522q0 -50 -12 -90.5t-34.5 -69.5t-54 -44.5t-70.5 -15.5h-50z" />
    <glyph glyph-name="uni0136" unicode="&#x136;" horiz-adv-x="739" 
d="M10 12h50q29 0 45.5 6.5t24 20t9 35t1.5 52.5v471q0 24 -1.5 41.5t-9.5 28.5t-25 16t-49 5h-65l20 12h326l20 -12h-71q-26 0 -40.5 -5t-21 -16t-7.5 -28.5t-1 -41.5v-320l181 185q67 68 107.5 112t50.5 69.5t-12 35t-80 9.5h-106l20 12h440l20 -12h-65q-33 0 -57.5 -1.5
t-46.5 -8.5t-45.5 -22t-55 -43t-74 -70.5t-103.5 -104.5l226 -322q23 -32 39 -52.5t30.5 -32t30.5 -15.5t38 -4h76l10 -12h-405l10 12h85q29 0 34 15t-21 52l-208 302l-119 -121v-135q0 -30 1.5 -51.5t8.5 -35t22.5 -20t42.5 -6.5h46l10 -12h-356zM291 -240q45 16 68 46.5
t23 64.5q0 12 -3 18.5t-7 12t-7 11.5t-3 16q0 4 3.5 10.5t9 12.5t11.5 10t10 4q5 0 10.5 -4t10.5 -10t8.5 -12.5t3.5 -10.5q0 -62 -34.5 -109t-103.5 -71v11z" />
    <glyph glyph-name="uni0137" unicode="&#x137;" horiz-adv-x="576" 
d="M13 12h39q34 0 48.5 13.5t14.5 53.5v478q0 57 -9.5 79.5t-35.5 22.5q-14 0 -32.5 -5t-44.5 -13l-5 11l191 68h6v-485l184 173q12 12 20 24.5t6 22.5t-17.5 16.5t-51.5 6.5h-18l-21 12h288l-22 -12h-25q-34 0 -64.5 -13t-64.5 -45l-97 -92l199 -269q22 -29 44 -38t39 -9
h26l21 -12h-301l9 12h37q32 0 42 11t-7 36l-163 218l-63 -59v-161q0 -16 5 -25t14 -13.5t20.5 -5.5t24.5 -1h29l10 -12h-295zM202 -261q48 17 72.5 50.5t24.5 70.5q0 13 -3.5 20.5t-7 13.5l-7 12t-3.5 17q0 5 4 12t9.5 13t12 10.5t10.5 4.5q5 0 11.5 -4.5t12 -10.5t9 -13
t3.5 -12q0 -67 -37 -118.5t-111 -77.5v12z" />
    <glyph glyph-name="Lacute" unicode="&#x139;" horiz-adv-x="545" 
d="M-3 786l356 53l13 -19l-369 -46v12zM10 12h50q29 0 45.5 6.5t24 20t9 35t1.5 52.5v471q0 24 -1.5 41.5t-9.5 28.5t-25 16t-49 5h-65l20 12h336l19 -12h-66q-31 0 -48.5 -5t-25 -16t-9 -28.5t-1.5 -41.5v-472q0 -30 1.5 -51.5t9 -35t24 -20t45.5 -6.5q55 0 93.5 6.5
t67.5 25t51.5 50.5t46.5 83l11 -5l-84 -172h-491z" />
    <glyph glyph-name="lacute" unicode="&#x13a;" horiz-adv-x="280" 
d="M11 763l206 87l18 -18l-224 -82v13zM13 12h39q34 0 48.5 13.5t14.5 53.5v478q0 57 -9.5 79.5t-35.5 22.5q-14 0 -32 -5t-44 -13l-6 11l190 68h7v-641q0 -40 15 -53.5t49 -13.5h41l20 -12h-317z" />
    <glyph glyph-name="uni013B" unicode="&#x13b;" horiz-adv-x="545" 
d="M10 12h50q29 0 45.5 6.5t24 20t9 35t1.5 52.5v471q0 24 -1.5 41.5t-9.5 28.5t-25 16t-49 5h-65l20 12h336l19 -12h-66q-31 0 -48.5 -5t-25 -16t-9 -28.5t-1.5 -41.5v-472q0 -30 1.5 -51.5t9 -35t24 -20t45.5 -6.5q55 0 93.5 6.5t67.5 25t51.5 50.5t46.5 83l11 -5
l-84 -172h-491zM172 -240q45 16 68 46.5t23 64.5q0 12 -3 18.5t-7 12t-7 11.5t-3 16q0 4 3.5 10.5t9 12.5t11.5 10t10 4q5 0 10.5 -4t10.5 -10t8.5 -12.5t3.5 -10.5q0 -62 -34.5 -109t-103.5 -71v11z" />
    <glyph glyph-name="uni013C" unicode="&#x13c;" horiz-adv-x="280" 
d="M13 12h39q34 0 48.5 13.5t14.5 53.5v478q0 57 -9.5 79.5t-35.5 22.5q-14 0 -32 -5t-44 -13l-6 11l190 68h7v-641q0 -40 15 -53.5t49 -13.5h41l20 -12h-317zM39 -261q48 17 72.5 50.5t24.5 70.5q0 13 -3.5 20.5t-7 13.5l-7 12t-3.5 17q0 5 4 12t9.5 13t12 10.5t10.5 4.5
q5 0 11.5 -4.5t12 -10.5t9 -13t3.5 -12q0 -67 -37 -118.5t-111 -77.5v12z" />
    <glyph glyph-name="Lcaron" unicode="&#x13d;" horiz-adv-x="545" 
d="M4 885l173 -111l171 111h40l-211 -125l-213 125h40zM10 12h50q29 0 45.5 6.5t24 20t9 35t1.5 52.5v471q0 24 -1.5 41.5t-9.5 28.5t-25 16t-49 5h-65l20 12h336l19 -12h-66q-31 0 -48.5 -5t-25 -16t-9 -28.5t-1.5 -41.5v-472q0 -30 1.5 -51.5t9 -35t24 -20t45.5 -6.5
q55 0 93.5 6.5t67.5 25t51.5 50.5t46.5 83l11 -5l-84 -172h-491z" />
    <glyph glyph-name="lcaron" unicode="&#x13e;" horiz-adv-x="330" 
d="M289 740q6 0 12.5 -3.5t12 -8t9.5 -10t5 -9.5q8 -46 -10.5 -91.5t-74.5 -81.5l-2 11q35 23 46.5 51t4.5 54q-2 9 -6.5 13.5t-9 8.5t-8.5 9t-6 15q-1 5 1.5 11.5t6.5 13t9.5 11.5t9.5 6zM13 12h39q34 0 48.5 13.5t14.5 53.5v478q0 57 -9.5 79.5t-35.5 22.5q-14 0 -32 -5
t-44 -13l-6 11l190 68h7v-641q0 -40 15 -53.5t49 -13.5h41l20 -12h-317z" />
    <glyph glyph-name="Ldot" unicode="&#x13f;" horiz-adv-x="545" 
d="M10 12h50q29 0 45.5 6.5t24 20t9 35t1.5 52.5v471q0 24 -1.5 41.5t-9.5 28.5t-25 16t-49 5h-65l20 12h336l19 -12h-66q-31 0 -48.5 -5t-25 -16t-9 -28.5t-1.5 -41.5v-472q0 -30 1.5 -51.5t9 -35t24 -20t45.5 -6.5q55 0 93.5 6.5t67.5 25t51.5 50.5t46.5 83l11 -5
l-84 -172h-491zM449 291q-6 0 -14.5 5t-15.5 12t-12 14.5t-5 13.5t5 14.5t12 15.5t15.5 12t14.5 5t13.5 -5t14.5 -12t12 -15.5t5 -14.5t-5 -13.5t-12 -14.5t-14.5 -12t-13.5 -5z" />
    <glyph glyph-name="ldot" unicode="&#x140;" horiz-adv-x="356" 
d="M13 12h39q34 0 48.5 13.5t14.5 53.5v478q0 57 -9.5 79.5t-35.5 22.5q-14 0 -32 -5t-44 -13l-6 11l190 68h7v-641q0 -40 15 -53.5t49 -13.5h41l20 -12h-317zM291 241q-6 0 -14.5 5t-15.5 12t-12 14.5t-5 13.5t5 14.5t12 15.5t15.5 12t14.5 5t13.5 -5t14.5 -12t12 -15.5
t5 -14.5t-5 -13.5t-12 -14.5t-14.5 -12t-13.5 -5z" />
    <glyph glyph-name="Lslash" unicode="&#x141;" horiz-adv-x="545" 
d="M565 172l-84 -172h-491l20 12h50q29 0 45.5 6.5t24 20t9 35t1.5 52.5v229l-89 -75l-8 9l97 82v226q0 24 -1.5 41.5t-9.5 28.5t-25 16t-49 5h-65l20 12h336l19 -12h-66q-31 0 -48.5 -5t-25 -16t-9 -28.5t-1.5 -41.5v-163l109 92l7 -9l-116 -98v-294q0 -30 1.5 -51.5t9 -35
t24 -20t45.5 -6.5q55 0 93.5 6.5t67.5 25t51.5 50.5t46.5 83z" />
    <glyph glyph-name="lslash" unicode="&#x142;" horiz-adv-x="280" 
d="M52 12q34 0 48.5 13.5t14.5 53.5v335l-92 -77l-8 9l100 84v127q0 57 -9.5 79.5t-35.5 22.5q-14 0 -32 -5t-44 -13l-6 11l190 68h7v-231l99 83l8 -10l-107 -89v-394q0 -40 15 -53.5t49 -13.5h41l20 -12h-317l20 12h39z" />
    <glyph glyph-name="Nacute" unicode="&#x143;" horiz-adv-x="809" 
d="M251 786l356 53l13 -19l-369 -46v12zM404 363q-53 68 -89.5 115.5t-60.5 78t-38 47.5t-21.5 25.5t-11 10t-6.5 1.5q-11 0 -13.5 -17t-3.5 -46l-11 -443q-1 -41 5 -65.5t19.5 -37t35.5 -16.5t53 -4h86l10 -12h-397l20 12h61q22 0 39 4t29 16.5t19 37t8 66.5l12 473
q0 19 -2.5 33.5t-15 24.5t-37 15.5t-67.5 5.5h-67l20 12h270l437 -563v429q0 44 -9 68.5t-26 36.5t-42 14.5t-57 2.5h-41l10 12h297l20 -12h-46q-22 0 -39.5 -2.5t-29.5 -14.5t-18.5 -36t-6.5 -68v-587z" />
    <glyph glyph-name="nacute" unicode="&#x144;" horiz-adv-x="599" 
d="M158 585l313 87l18 -18l-331 -82v13zM15 12h37q34 0 48.5 13.5t14.5 53.5v260q0 47 -9.5 68.5t-38.5 21.5q-25 0 -74 -17l-5 11l192 69h6v-147q2 11 12.5 37t32.5 52.5t57.5 47t87.5 20.5q44 0 69.5 -18t38.5 -45t16.5 -59.5t3.5 -61.5v-261q0 -16 5 -25t14 -13.5
t21 -5.5t25 -1h40l20 -12h-320l20 12h47q26 0 44.5 7t18.5 38v257q0 27 -3.5 55t-14.5 50.5t-31 36.5t-53 14q-21 0 -47.5 -11.5t-50 -36.5t-39 -63.5t-15.5 -92.5v-209q0 -16 5 -25t14 -13.5t20.5 -5.5t24.5 -1h40l20 -12h-314z" />
    <glyph glyph-name="uni0145" unicode="&#x145;" horiz-adv-x="809" 
d="M404 363q-53 68 -89.5 115.5t-60.5 78t-38 47.5t-21.5 25.5t-11 10t-6.5 1.5q-11 0 -13.5 -17t-3.5 -46l-11 -443q-1 -41 5 -65.5t19.5 -37t35.5 -16.5t53 -4h86l10 -12h-397l20 12h61q22 0 39 4t29 16.5t19 37t8 66.5l12 473q0 19 -2.5 33.5t-15 24.5t-37 15.5
t-67.5 5.5h-67l20 12h270l437 -563v429q0 44 -9 68.5t-26 36.5t-42 14.5t-57 2.5h-41l10 12h297l20 -12h-46q-22 0 -39.5 -2.5t-29.5 -14.5t-18.5 -36t-6.5 -68v-587zM343 -240q45 16 68 46.5t23 64.5q0 12 -3 18.5t-7 12t-7 11.5t-3 16q0 4 3.5 10.5t9 12.5t11.5 10t10 4
q5 0 10.5 -4t10.5 -10t8.5 -12.5t3.5 -10.5q0 -62 -34.5 -109t-103.5 -71v11z" />
    <glyph glyph-name="uni0146" unicode="&#x146;" horiz-adv-x="599" 
d="M15 12h37q34 0 48.5 13.5t14.5 53.5v260q0 47 -9.5 68.5t-38.5 21.5q-25 0 -74 -17l-5 11l192 69h6v-147q2 11 12.5 37t32.5 52.5t57.5 47t87.5 20.5q44 0 69.5 -18t38.5 -45t16.5 -59.5t3.5 -61.5v-261q0 -16 5 -25t14 -13.5t21 -5.5t25 -1h40l20 -12h-320l20 12h47
q26 0 44.5 7t18.5 38v257q0 27 -3.5 55t-14.5 50.5t-31 36.5t-53 14q-21 0 -47.5 -11.5t-50 -36.5t-39 -63.5t-15.5 -92.5v-209q0 -16 5 -25t14 -13.5t20.5 -5.5t24.5 -1h40l20 -12h-314zM201 -261q48 17 72.5 50.5t24.5 70.5q0 13 -3.5 20.5t-7 13.5l-7 12t-3.5 17
q0 5 4 12t9.5 13t12 10.5t10.5 4.5q5 0 11.5 -4.5t12 -10.5t9 -13t3.5 -12q0 -67 -37 -118.5t-111 -77.5v12z" />
    <glyph glyph-name="Ncaron" unicode="&#x147;" horiz-adv-x="809" 
d="M258 885l173 -111l171 111h40l-211 -125l-213 125h40zM404 363q-53 68 -89.5 115.5t-60.5 78t-38 47.5t-21.5 25.5t-11 10t-6.5 1.5q-11 0 -13.5 -17t-3.5 -46l-11 -443q-1 -41 5 -65.5t19.5 -37t35.5 -16.5t53 -4h86l10 -12h-397l20 12h61q22 0 39 4t29 16.5t19 37
t8 66.5l12 473q0 19 -2.5 33.5t-15 24.5t-37 15.5t-67.5 5.5h-67l20 12h270l437 -563v429q0 44 -9 68.5t-26 36.5t-42 14.5t-57 2.5h-41l10 12h297l20 -12h-46q-22 0 -39.5 -2.5t-29.5 -14.5t-18.5 -36t-6.5 -68v-587z" />
    <glyph glyph-name="ncaron" unicode="&#x148;" horiz-adv-x="599" 
d="M161 654h38l125 -87l124 87h37l-161 -102zM15 12h37q34 0 48.5 13.5t14.5 53.5v260q0 47 -9.5 68.5t-38.5 21.5q-25 0 -74 -17l-5 11l192 69h6v-147q2 11 12.5 37t32.5 52.5t57.5 47t87.5 20.5q44 0 69.5 -18t38.5 -45t16.5 -59.5t3.5 -61.5v-261q0 -16 5 -25t14 -13.5
t21 -5.5t25 -1h40l20 -12h-320l20 12h47q26 0 44.5 7t18.5 38v257q0 27 -3.5 55t-14.5 50.5t-31 36.5t-53 14q-21 0 -47.5 -11.5t-50 -36.5t-39 -63.5t-15.5 -92.5v-209q0 -16 5 -25t14 -13.5t20.5 -5.5t24.5 -1h40l20 -12h-314z" />
    <glyph glyph-name="Eng" unicode="&#x14a;" horiz-adv-x="809" 
d="M839 688h-46q-22 0 -39.5 -2.5t-29.5 -14.5t-18.5 -36t-6.5 -68v-737h-192l20 12h26q30 0 55 4.5t43 17t28 34.5t10 56v39l-285 370q-53 68 -89.5 115.5t-60.5 78t-38 47.5t-21.5 25.5t-11 10t-6.5 1.5q-11 0 -13.5 -17t-3.5 -46l-11 -443q-1 -41 5 -65.5t19.5 -37
t35.5 -16.5t53 -4h86l10 -12h-397l20 12h61q22 0 39 4t29 16.5t19 37t8 66.5l12 473q0 19 -2.5 33.5t-15 24.5t-37 15.5t-67.5 5.5h-67l20 12h270l437 -563v429q0 44 -9 68.5t-26 36.5t-42 14.5t-57 2.5h-41l10 12h297z" />
    <glyph glyph-name="eng" unicode="&#x14b;" horiz-adv-x="598" 
d="M345 -173q29 0 47 2t28 10.5t14 27t4 51.5v396q0 27 -3.5 55t-14.5 50.5t-31 36.5t-53 14q-21 0 -47.5 -11.5t-49.5 -36.5t-38.5 -64.5t-15.5 -94.5v-206q0 -16 5 -25t14 -13.5t21 -5.5t25 -1h42l20 -12h-317l20 12h37q34 0 48.5 13.5t14.5 53.5v260q0 47 -9.5 68.5
t-38.5 21.5q-25 0 -74 -17l-5 11l191 69h7v-147q2 11 12.5 37t32 52.5t57 47t87.5 20.5q47 0 73.5 -18t40 -45t16.5 -59.5t3 -61.5v-503h-195z" />
    <glyph glyph-name="Omacron" unicode="&#x14c;" horiz-adv-x="814" 
d="M172 810h465l10 -12h-485zM406 -20q-78 0 -145 29.5t-116 80t-77 118t-28 143.5t28 143t77 117.5t116 79.5t145 29t145.5 -29t117 -79.5t77.5 -117.5t28 -143t-28 -143.5t-77.5 -118t-117 -80t-145.5 -29.5zM447 -1q54 0 99.5 23t78.5 64.5t51 98.5t18 125q0 91 -31 163
t-80 122t-109 76.5t-119 26.5q-55 0 -99 -22.5t-74.5 -62t-47 -92.5t-16.5 -114q0 -79 26.5 -152.5t71.5 -130.5t104.5 -91t126.5 -34z" />
    <glyph glyph-name="omacron" unicode="&#x14d;" horiz-adv-x="581" 
d="M64 637h445v-13h-445v13zM290 -20q-50 0 -97 19.5t-83 55t-58 83.5t-22 105t22 104.5t58 82t83 53.5t97 19q51 0 98 -19t83 -53.5t58 -82t22 -104.5t-22 -105t-58 -83.5t-83 -55t-98 -19.5zM321 -4q28 0 55.5 14t49 41t35 68t13.5 95q0 63 -19.5 113.5t-50.5 86t-67.5 54
t-71.5 18.5q-48 0 -79 -22.5t-49 -54.5t-25 -67t-7 -61q0 -47 15 -97.5t43 -92t68 -68.5t90 -27z" />
    <glyph glyph-name="Ohungarumlaut" unicode="&#x150;" horiz-adv-x="814" 
d="M334 770q7 8 15.5 18t16 20.5t12.5 22t5 21.5q0 17 -5.5 28t-5.5 25q0 12 9 22.5t18 10.5q10 0 20.5 -11t10.5 -26q0 -13 -9 -30.5t-21.5 -35.5t-26 -35.5t-23.5 -29.5h-16zM434 770q7 8 15.5 18t16 20.5t12.5 22t5 21.5q0 17 -5.5 28t-5.5 25q0 12 9 22.5t18 10.5
q10 0 20.5 -11t10.5 -26q0 -13 -9 -30.5t-21.5 -35.5t-26 -35.5t-23.5 -29.5h-16zM406 -20q-78 0 -145 29.5t-116 80t-77 118t-28 143.5t28 143t77 117.5t116 79.5t145 29t145.5 -29t117 -79.5t77.5 -117.5t28 -143t-28 -143.5t-77.5 -118t-117 -80t-145.5 -29.5zM447 -1
q54 0 99.5 23t78.5 64.5t51 98.5t18 125q0 91 -31 163t-80 122t-109 76.5t-119 26.5q-55 0 -99 -22.5t-74.5 -62t-47 -92.5t-16.5 -114q0 -79 26.5 -152.5t71.5 -130.5t104.5 -91t126.5 -34z" />
    <glyph glyph-name="ohungarumlaut" unicode="&#x151;" horiz-adv-x="581" 
d="M209 572q7 9 16 19.5t17 22t13.5 23.5t5.5 24q0 18 -5.5 30.5t-5.5 26.5t9.5 25t18.5 11q11 0 22.5 -11.5t11.5 -28.5q0 -14 -9.5 -33t-23 -39t-28 -38.5t-25.5 -31.5h-17zM316 572q7 9 16 19.5t17.5 22t14 23.5t5.5 24q0 18 -6 30.5t-6 26.5t9.5 25t19.5 11
q11 0 22 -11.5t11 -28.5q0 -14 -9.5 -33t-23 -39t-28 -38.5t-25.5 -31.5h-17zM290 -20q-50 0 -97 19.5t-83 55t-58 83.5t-22 105t22 104.5t58 82t83 53.5t97 19q51 0 98 -19t83 -53.5t58 -82t22 -104.5t-22 -105t-58 -83.5t-83 -55t-98 -19.5zM321 -4q28 0 55.5 14t49 41
t35 68t13.5 95q0 63 -19.5 113.5t-50.5 86t-67.5 54t-71.5 18.5q-48 0 -79 -22.5t-49 -54.5t-25 -67t-7 -61q0 -47 15 -97.5t43 -92t68 -68.5t90 -27z" />
    <glyph glyph-name="OE" unicode="&#x152;" horiz-adv-x="988" 
d="M406 -20q-78 0 -145 29.5t-116 80t-77 118t-28 143.5t28 143t77 117.5t116 79.5t145 29q32 0 68.5 -5t65.5 -15h271q47 0 84.5 4.5t53.5 12.5l5 -8q-28 -29 -37.5 -82.5t-9.5 -141.5l-12 11q0 34 -2 68.5t-10.5 62t-25 44.5t-46.5 17h-125q-26 0 -40.5 -5t-21 -16
t-7.5 -28.5t-1 -41.5v-121q0 -31 1.5 -51t7.5 -31.5t18 -15.5t33 -4h55q28 0 43 5.5t22 19t8 35.5t1 55h12v-267l-12 10q0 23 -1 46t-8 41.5t-22 30.5t-43 12h-55q-21 0 -33 -4t-18 -13.5t-7.5 -24.5t-1.5 -38v-157q0 -30 1.5 -51.5t8.5 -35t22.5 -20t42.5 -6.5
q107 0 178.5 38t118.5 125l10 -3l-86 -172h-371q-29 -11 -65 -15.5t-70 -4.5zM453 -2h25t29 4t24 14t10 29v524q0 32 -17 56t-43 40t-56.5 23.5t-57.5 7.5q-58 0 -99.5 -14.5t-69 -38.5t-43.5 -54.5t-24.5 -62.5t-10.5 -62.5t-2 -55.5q0 -68 23 -140.5t66.5 -132.5
t105.5 -98.5t140 -38.5z" />
    <glyph glyph-name="oe" unicode="&#x153;" horiz-adv-x="806" 
d="M278 -20q-49 0 -93.5 20t-79 55.5t-55 83.5t-20.5 104q0 57 20.5 104.5t55 82t79 53.5t93.5 19q45 0 86.5 -18t74.5 -49q20 24 56.5 45.5t82.5 21.5q35 0 66.5 -12.5t57.5 -36t45.5 -56.5t28.5 -74h-344q-4 -55 8 -111t36.5 -101.5t60 -74t78.5 -28.5q34 0 60 14.5
t44.5 40t29 60.5t12.5 75h11q0 -37 -9 -76t-30.5 -70.5t-56.5 -51.5t-88 -20q-42 0 -79.5 17t-68.5 47q-34 -30 -76 -47t-86 -17zM308 -3q30 0 60 16.5t51 54.5q-26 35 -41.5 80t-15.5 94q0 43 10.5 79.5t29.5 68.5q-31 42 -72.5 67t-86.5 25q-46 0 -74 -21.5t-43.5 -53
t-20.5 -66t-5 -60.5q0 -46 14.5 -96t41.5 -92t65.5 -69t86.5 -27zM701 335q-23 69 -62 106t-81 37q-36 0 -59 -13t-37 -33.5t-20.5 -46t-8.5 -50.5h268z" />
    <glyph glyph-name="Racute" unicode="&#x154;" horiz-adv-x="665" 
d="M127 786l356 53l13 -19l-369 -46v12zM733 -70q-73 0 -126.5 31.5t-93.5 78.5t-70 103t-57 104.5t-54.5 83t-61.5 38.5l-9 13q27 -3 52 -3q33 0 62.5 6.5t52 23t35.5 44t13 69.5q0 52 -15.5 84.5t-40 50.5t-54.5 24.5t-58 6.5q-31 0 -49.5 -2t-28.5 -11t-12.5 -27
t-2.5 -51v-472q0 -30 1.5 -51.5t8.5 -35t22.5 -20t42.5 -6.5h56l10 -12h-366l20 12h50q29 0 45.5 6.5t24 20t9 35t1.5 52.5v471q0 24 -1.5 41.5t-9.5 28.5t-25 16t-49 5h-65l20 12h350q30 0 64.5 -6t63.5 -24t48 -50t19 -84q0 -39 -19 -69.5t-49.5 -51.5t-69 -33t-77.5 -14
q47 -13 81.5 -49.5t63 -83.5t54.5 -99t56 -95t67 -71t88 -28h25l10 -12h-52z" />
    <glyph glyph-name="racute" unicode="&#x155;" horiz-adv-x="410" 
d="M62 585l313 87l18 -18l-331 -82v13zM15 12h37q34 0 48.5 13.5t14.5 53.5v260q0 47 -9.5 68.5t-38.5 21.5q-25 0 -74 -17l-5 11l190 69h7v-146q1 12 5.5 38t17.5 52t37 46t64 20q23 0 40 -7.5t28 -17.5q13 -11 23 -25l-48 -130l-11 3q4 25 4 52.5t-5.5 50.5t-18 38
t-33.5 15q-27 0 -46 -20t-31 -53t-18 -75t-8 -87v-166q0 -41 15 -54.5t49 -13.5h60l22 -12h-336z" />
    <glyph glyph-name="uni0156" unicode="&#x156;" horiz-adv-x="665" 
d="M733 -70q-73 0 -126.5 31.5t-93.5 78.5t-70 103t-57 104.5t-54.5 83t-61.5 38.5l-9 13q27 -3 52 -3q33 0 62.5 6.5t52 23t35.5 44t13 69.5q0 52 -15.5 84.5t-40 50.5t-54.5 24.5t-58 6.5q-31 0 -49.5 -2t-28.5 -11t-12.5 -27t-2.5 -51v-472q0 -30 1.5 -51.5t8.5 -35
t22.5 -20t42.5 -6.5h56l10 -12h-366l20 12h50q29 0 45.5 6.5t24 20t9 35t1.5 52.5v471q0 24 -1.5 41.5t-9.5 28.5t-25 16t-49 5h-65l20 12h350q30 0 64.5 -6t63.5 -24t48 -50t19 -84q0 -39 -19 -69.5t-49.5 -51.5t-69 -33t-77.5 -14q47 -13 81.5 -49.5t63 -83.5t54.5 -99
t56 -95t67 -71t88 -28h25l10 -12h-52zM251 -240q45 16 68 46.5t23 64.5q0 12 -3 18.5t-7 12t-7 11.5t-3 16q0 4 3.5 10.5t9 12.5t11.5 10t10 4q5 0 10.5 -4t10.5 -10t8.5 -12.5t3.5 -10.5q0 -62 -34.5 -109t-103.5 -71v11z" />
    <glyph glyph-name="uni0157" unicode="&#x157;" horiz-adv-x="410" 
d="M15 12h37q34 0 48.5 13.5t14.5 53.5v260q0 47 -9.5 68.5t-38.5 21.5q-25 0 -74 -17l-5 11l190 69h7v-146q1 12 5.5 38t17.5 52t37 46t64 20q23 0 40 -7.5t28 -17.5q13 -11 23 -25l-48 -130l-11 3q4 25 4 52.5t-5.5 50.5t-18 38t-33.5 15q-27 0 -46 -20t-31 -53t-18 -75
t-8 -87v-166q0 -41 15 -54.5t49 -13.5h60l22 -12h-336zM46 -261q48 17 72.5 50.5t24.5 70.5q0 13 -3.5 20.5t-7 13.5l-7 12t-3.5 17q0 5 4 12t9.5 13t12 10.5t10.5 4.5q5 0 11.5 -4.5t12 -10.5t9 -13t3.5 -12q0 -67 -37 -118.5t-111 -77.5v12z" />
    <glyph glyph-name="Rcaron" unicode="&#x158;" horiz-adv-x="665" 
d="M134 885l173 -111l171 111h40l-211 -125l-213 125h40zM733 -70q-73 0 -126.5 31.5t-93.5 78.5t-70 103t-57 104.5t-54.5 83t-61.5 38.5l-9 13q27 -3 52 -3q33 0 62.5 6.5t52 23t35.5 44t13 69.5q0 52 -15.5 84.5t-40 50.5t-54.5 24.5t-58 6.5q-31 0 -49.5 -2t-28.5 -11
t-12.5 -27t-2.5 -51v-472q0 -30 1.5 -51.5t8.5 -35t22.5 -20t42.5 -6.5h56l10 -12h-366l20 12h50q29 0 45.5 6.5t24 20t9 35t1.5 52.5v471q0 24 -1.5 41.5t-9.5 28.5t-25 16t-49 5h-65l20 12h350q30 0 64.5 -6t63.5 -24t48 -50t19 -84q0 -39 -19 -69.5t-49.5 -51.5t-69 -33
t-77.5 -14q47 -13 81.5 -49.5t63 -83.5t54.5 -99t56 -95t67 -71t88 -28h25l10 -12h-52z" />
    <glyph glyph-name="rcaron" unicode="&#x159;" horiz-adv-x="410" 
d="M53 667h41l134 -95l133 95h39l-172 -111zM15 12h37q34 0 48.5 13.5t14.5 53.5v260q0 47 -9.5 68.5t-38.5 21.5q-25 0 -74 -17l-5 11l190 69h7v-146q1 12 5.5 38t17.5 52t37 46t64 20q23 0 40 -7.5t28 -17.5q13 -11 23 -25l-48 -130l-11 3q4 25 4 52.5t-5.5 50.5t-18 38
t-33.5 15q-27 0 -46 -20t-31 -53t-18 -75t-8 -87v-166q0 -41 15 -54.5t49 -13.5h60l22 -12h-336z" />
    <glyph glyph-name="Sacute" unicode="&#x15a;" horiz-adv-x="611" 
d="M132 802l356 53l13 -19l-369 -46v12zM313 -20q-44 0 -85.5 13t-74 29.5t-52 31t-19.5 17.5l-12 219l12 10q4 -53 17 -107.5t39.5 -99t69.5 -73t107 -28.5q50 0 84 12.5t55 32.5t30 44.5t9 48.5q0 56 -29.5 94t-73.5 67.5t-95.5 54t-95.5 53t-73.5 65.5t-29.5 90
q0 50 19.5 82t50.5 51t69.5 26t75.5 7q28 0 56.5 -4t56 -8.5t52.5 -8.5t46 -4q15 0 27 3l3 -9q-38 -21 -58 -73t-38 -137l-9 12q12 54 13 95t-13.5 68t-47 40.5t-87.5 13.5q-31 0 -60.5 -5t-52 -18.5t-36.5 -36t-14 -57.5q0 -43 30.5 -75t76.5 -59t99 -53t99 -57t76.5 -70.5
t30.5 -94.5q0 -53 -20 -91.5t-54 -63t-79 -36t-95 -11.5z" />
    <glyph glyph-name="sacute" unicode="&#x15b;" horiz-adv-x="435" 
d="M41 585l313 87l18 -18l-331 -82v13zM215 -20q-33 0 -61.5 8.5t-50 19.5t-34 20.5t-12.5 11.5l-12 123h12q20 -84 61 -127.5t102 -43.5q48 0 75.5 23.5t27.5 62.5q0 35 -19.5 60t-49 45t-64 38t-64 39t-49 47.5t-19.5 63.5q0 35 13.5 60t34.5 40.5t47.5 23t52.5 7.5
q40 0 69 -10.5t47.5 -23.5t27.5 -24t9 -12l-44 -112l-10 4q7 86 -18.5 126t-79.5 40q-45 0 -67.5 -25t-22.5 -58q0 -31 20 -55t50.5 -44t66 -39t66 -40t50.5 -46t20 -58q0 -32 -13.5 -59t-37 -46t-55.5 -29.5t-69 -10.5z" />
    <glyph glyph-name="Scedilla" unicode="&#x15e;" horiz-adv-x="611" 
d="M561 182q0 -51 -18.5 -88.5t-50.5 -62.5t-75 -37.5t-91 -13.5l-73 -84q14 15 35 30t53 15q14 0 28 -5t25.5 -14.5t18.5 -23.5t7 -33q0 -22 -10 -39t-25 -28.5t-33.5 -17.5t-35.5 -6q-23 0 -38.5 6.5t-26 16t-16.5 21t-10 20.5l11 5q8 -21 23.5 -37.5t42.5 -16.5
q15 0 27.5 7t21.5 18.5t14 26t5 28.5q0 25 -10 41.5t-33 16.5q-14 0 -26.5 -7.5t-23.5 -16.5q-13 -10 -24 -23l-17 12l75 88q-43 0 -84.5 13.5t-73.5 29.5t-51.5 30.5t-19.5 17.5l-12 219l12 10q4 -53 17 -107.5t39.5 -99t69.5 -73t107 -28.5q50 0 84 12.5t55 32.5t30 44.5
t9 48.5q0 56 -29.5 94t-73.5 67.5t-95.5 54t-95.5 53t-73.5 65.5t-29.5 90q0 50 19.5 82t50.5 51t69.5 26t75.5 7q28 0 56.5 -4t56 -8.5t52.5 -8.5t46 -4q15 0 27 3l3 -9q-38 -21 -58 -73t-38 -137l-9 12q12 54 13 95t-13.5 68t-47 40.5t-87.5 13.5q-31 0 -60.5 -5
t-52 -18.5t-36.5 -36t-14 -57.5q0 -43 30.5 -75t76.5 -59t99 -53t99 -57t76.5 -70.5t30.5 -94.5z" />
    <glyph glyph-name="scedilla" unicode="&#x15f;" horiz-adv-x="435" 
d="M390 125q0 -32 -13 -58.5t-35.5 -45.5t-54 -29.5t-67.5 -11.5l-81 -94q14 17 37 33t57 16q15 0 30 -5.5t27.5 -16t20 -26t7.5 -35.5q0 -24 -10.5 -42t-27 -31t-36 -19.5t-38.5 -6.5q-24 0 -40.5 7t-27.5 17.5t-17.5 23t-11.5 22.5l12 5q8 -23 24.5 -40.5t45.5 -17.5
q16 0 29.5 7.5t23 20t15 28t5.5 31.5q0 26 -11 44.5t-35 18.5q-14 0 -28.5 -8t-25.5 -18q-13 -11 -25 -26l-18 14l83 98q-31 1 -57.5 10t-46.5 19.5t-31.5 19.5t-11.5 11l-12 123h12q20 -84 61 -127.5t102 -43.5q48 0 75.5 23.5t27.5 62.5q0 35 -19.5 60t-49 45t-64 38
t-64 39t-49 47.5t-19.5 63.5q0 35 13.5 60t34.5 40.5t47.5 23t52.5 7.5q40 0 69 -10.5t47.5 -23.5t27.5 -24t9 -12l-44 -112l-10 4q7 86 -18.5 126t-79.5 40q-45 0 -67.5 -25t-22.5 -58q0 -31 20 -55t50.5 -44t66 -39t66 -40t50.5 -46t20 -58z" />
    <glyph glyph-name="Scaron" unicode="&#x160;" horiz-adv-x="611" 
d="M139 901l173 -111l171 111h40l-211 -125l-213 125h40zM313 -20q-44 0 -85.5 13t-74 29.5t-52 31t-19.5 17.5l-12 219l12 10q4 -53 17 -107.5t39.5 -99t69.5 -73t107 -28.5q50 0 84 12.5t55 32.5t30 44.5t9 48.5q0 56 -29.5 94t-73.5 67.5t-95.5 54t-95.5 53t-73.5 65.5
t-29.5 90q0 50 19.5 82t50.5 51t69.5 26t75.5 7q28 0 56.5 -4t56 -8.5t52.5 -8.5t46 -4q15 0 27 3l3 -9q-38 -21 -58 -73t-38 -137l-9 12q12 54 13 95t-13.5 68t-47 40.5t-87.5 13.5q-31 0 -60.5 -5t-52 -18.5t-36.5 -36t-14 -57.5q0 -43 30.5 -75t76.5 -59t99 -53t99 -57
t76.5 -70.5t30.5 -94.5q0 -53 -20 -91.5t-54 -63t-79 -36t-95 -11.5z" />
    <glyph glyph-name="scaron" unicode="&#x161;" horiz-adv-x="435" 
d="M32 667h41l134 -95l133 95h39l-172 -111zM215 -20q-33 0 -61.5 8.5t-50 19.5t-34 20.5t-12.5 11.5l-12 123h12q20 -84 61 -127.5t102 -43.5q48 0 75.5 23.5t27.5 62.5q0 35 -19.5 60t-49 45t-64 38t-64 39t-49 47.5t-19.5 63.5q0 35 13.5 60t34.5 40.5t47.5 23t52.5 7.5
q40 0 69 -10.5t47.5 -23.5t27.5 -24t9 -12l-44 -112l-10 4q7 86 -18.5 126t-79.5 40q-45 0 -67.5 -25t-22.5 -58q0 -31 20 -55t50.5 -44t66 -39t66 -40t50.5 -46t20 -58q0 -32 -13.5 -59t-37 -46t-55.5 -29.5t-69 -10.5z" />
    <glyph glyph-name="uni0162" unicode="&#x162;" horiz-adv-x="637" 
d="M657 709q-28 -29 -35 -83.5t-7 -135.5l-12 4q0 22 -1.5 55t-10 64t-26.5 53t-51 22h-91q-26 0 -40.5 -5t-21 -16t-7.5 -28.5t-1 -41.5v-472q0 -30 1.5 -51.5t8.5 -35t22.5 -20t42.5 -6.5h56l20 -12h-190l-75 -86q14 15 35 30t53 15q14 0 28 -5t25.5 -14.5t18.5 -23.5
t7 -33q0 -22 -10 -39t-25 -28.5t-33.5 -17.5t-35.5 -6q-23 0 -38.5 6.5t-26 16t-16.5 21t-10 20.5l11 5q8 -21 23.5 -37.5t42.5 -16.5q15 0 27.5 7t21.5 18.5t14 26t5 28.5q0 25 -10 41.5t-33 16.5q-14 0 -26.5 -7.5t-23.5 -16.5q-13 -10 -24 -23l-17 12l77 90h-172l20 12
h61q26 0 40 6.5t20.5 20t8 35t1.5 52.5v471q0 24 -1 41.5t-8 28.5t-22.5 16t-43.5 5h-80q-34 0 -52 -22t-26.5 -53t-10 -64t-1.5 -55l-12 -4q0 81 -6.5 135.5t-34.5 83.5l5 8q16 -8 53.5 -12.5t84.5 -4.5h391q47 0 84.5 4.5t53.5 12.5z" />
    <glyph glyph-name="uni0163" unicode="&#x163;" horiz-adv-x="400" 
d="M244 -10h-9t-9 1l-80 -93q14 17 37 33t57 16q15 0 30 -5.5t27.5 -16t20 -26t7.5 -35.5q0 -24 -10.5 -42t-27 -31t-36 -19.5t-38.5 -6.5q-24 0 -40.5 7t-27.5 17.5t-17.5 23t-11.5 22.5l12 5q8 -23 24.5 -40.5t45.5 -17.5q16 0 29.5 7.5t23 20t15 28t5.5 31.5
q0 26 -11 44.5t-35 18.5q-14 0 -28.5 -8t-25.5 -18q-13 -11 -25 -26l-18 14l83 98q-60 9 -88 50t-28 113v323h-90l21 12q25 0 43.5 7.5t33 26.5t26 52t21.5 84h12v-170h162l21 -12h-180v-334q0 -65 21.5 -98t72.5 -33q54 0 84 52t30 147h12q0 -43 -6.5 -83t-22.5 -71
t-43 -49.5t-69 -18.5z" />
    <glyph glyph-name="Tcaron" unicode="&#x164;" horiz-adv-x="637" 
d="M144 885l173 -111l171 111h40l-211 -125l-213 125h40zM147 12h61q26 0 40 6.5t20.5 20t8 35t1.5 52.5v471q0 24 -1 41.5t-8 28.5t-22.5 16t-43.5 5h-80q-34 0 -52 -22t-26.5 -53t-10 -64t-1.5 -55l-12 -4q0 81 -6.5 135.5t-34.5 83.5l5 8q16 -8 53.5 -12.5t84.5 -4.5h391
q47 0 84.5 4.5t53.5 12.5l5 -8q-28 -29 -35 -83.5t-7 -135.5l-12 4q0 22 -1.5 55t-10 64t-26.5 53t-51 22h-91q-26 0 -40.5 -5t-21 -16t-7.5 -28.5t-1 -41.5v-472q0 -30 1.5 -51.5t8.5 -35t22.5 -20t42.5 -6.5h56l20 -12h-377z" />
    <glyph glyph-name="tcaron" unicode="&#x165;" horiz-adv-x="400" 
d="M279 740q6 0 12.5 -3.5t12 -8t9.5 -10t5 -9.5q8 -46 -10.5 -91.5t-74.5 -81.5l-2 11q35 23 46.5 51t4.5 54q-2 9 -6.5 13.5t-9 8.5t-8.5 9t-6 15q-1 5 1.5 11.5t6.5 13t9.5 11.5t9.5 6zM244 -10q-78 0 -113.5 42t-35.5 123v323h-90l21 12q25 0 43.5 7.5t33 26.5t26 52
t21.5 84h12v-170h162l21 -12h-180v-334q0 -65 21.5 -98t72.5 -33q54 0 84 52t30 147h12q0 -43 -6.5 -83t-22.5 -71t-43 -49.5t-69 -18.5z" />
    <glyph glyph-name="Tbar" unicode="&#x166;" horiz-adv-x="637" 
d="M657 709q-28 -29 -35 -83.5t-7 -135.5l-12 4q1 54 -7 97q-4 18 -10 35.5t-16 31t-23.5 22t-32.5 8.5h-91q-26 0 -40.5 -5t-21 -16t-7.5 -28.5t-1 -41.5v-217h124l20 -12h-144v-243q0 -30 1.5 -51.5t8.5 -35t22.5 -20t42.5 -6.5h56l10 -12h-357l10 12h61q26 0 40 6.5
t20.5 20t8 35t1.5 52.5v242h-145l20 12h125v217q0 24 -1 41.5t-8 28.5t-22.5 16t-43.5 5h-80q-25 0 -41 -14.5t-26 -36t-14.5 -46.5t-6.5 -46.5t-2 -36v-14.5l-11 -4q0 81 -7 135.5t-35 83.5l5 8q16 -8 53.5 -12.5t84.5 -4.5h391q47 0 84.5 4.5t53.5 12.5z" />
    <glyph glyph-name="tbar" unicode="&#x167;" horiz-adv-x="401" 
d="M386 212q0 -43 -6.5 -83t-22.5 -71t-43 -49.5t-69 -18.5q-78 0 -113.5 42t-35.5 123v169h-91l21 13h70v140l-91 1l21 12q25 0 44 7.5t33.5 26.5t26 52t21.5 84h12v-170h162l21 -12h-180v-141h165l21 -13h-186v-180q0 -65 21.5 -98t72.5 -33q54 0 84 52t30 147h12z" />
    <glyph glyph-name="Utilde" unicode="&#x168;" horiz-adv-x="752" 
d="M225 783q9 24 22 43q11 16 28.5 29t42.5 13q26 0 45.5 -12.5t36.5 -27.5t35.5 -27.5t42.5 -12.5q17 0 28.5 8t18.5 18q8 11 13 25l10 -4q-5 -17 -15 -30q-8 -11 -23 -20.5t-39 -9.5t-42.5 11.5t-36 25t-36.5 25t-43 11.5q-20 0 -34.5 -10.5t-24.5 -24.5q-11 -15 -18 -35z
M389 -20q-60 0 -110 17t-85 50.5t-54.5 83t-19.5 115.5v351q0 24 -1.5 41.5t-9.5 28.5t-25.5 16t-49.5 5h-64l20 12h366l20 -12h-111q-26 0 -40.5 -5t-21 -16t-7.5 -28.5t-1 -41.5v-323q0 -52 9 -101t33.5 -87t67.5 -61.5t111 -23.5t111.5 23t68.5 60.5t34.5 85t9.5 97.5
v320q0 37 -3 57.5t-14.5 30t-34 11.5t-60.5 2h-152l20 12h396l20 -12h-64q-33 0 -52.5 -2t-29 -11.5t-12 -30t-2.5 -57.5v-320q0 -47 -9 -98t-36.5 -93t-79.5 -69t-138 -27z" />
    <glyph glyph-name="utilde" unicode="&#x169;" horiz-adv-x="579" 
d="M118 571q7 22 19 39q11 15 27 27t39 12q24 0 40.5 -11t31.5 -24.5t31 -24.5t37 -11q19 0 31.5 7.5t20.5 16.5q10 10 16 23l10 -4q-7 -15 -18 -27q-9 -11 -23.5 -19.5t-36.5 -8.5q-23 0 -40.5 10t-33.5 21.5t-31.5 21.5t-34.5 10q-20 0 -33.5 -10t-22.5 -21
q-11 -14 -18 -32zM237 -20q-50 0 -78.5 18t-42.5 45t-17.5 59.5t-3.5 60.5v211q0 38 -2.5 59t-15 31t-37.5 12t-70 2l20 12h170v-321q0 -28 4 -56t16 -50.5t34.5 -36.5t59.5 -14q31 0 57 17t44.5 45t28.5 63.5t10 71.5v179q0 33 -5.5 51t-24 26.5t-54.5 10.5t-97 2l21 12
h230v-425q0 -19 5 -29.5t14 -15.5t21 -6.5t25 -1.5h40l20 -12h-194v138q-2 -9 -10.5 -35t-28.5 -53.5t-53.5 -48.5t-85.5 -21z" />
    <glyph glyph-name="Umacron" unicode="&#x16a;" horiz-adv-x="752" 
d="M151 810h465l10 -12h-485zM389 -20q-60 0 -110 17t-85 50.5t-54.5 83t-19.5 115.5v351q0 24 -1.5 41.5t-9.5 28.5t-25.5 16t-49.5 5h-64l20 12h366l20 -12h-111q-26 0 -40.5 -5t-21 -16t-7.5 -28.5t-1 -41.5v-323q0 -52 9 -101t33.5 -87t67.5 -61.5t111 -23.5t111.5 23
t68.5 60.5t34.5 85t9.5 97.5v320q0 37 -3 57.5t-14.5 30t-34 11.5t-60.5 2h-152l20 12h396l20 -12h-64q-33 0 -52.5 -2t-29 -11.5t-12 -30t-2.5 -57.5v-320q0 -47 -9 -98t-36.5 -93t-79.5 -69t-138 -27z" />
    <glyph glyph-name="umacron" unicode="&#x16b;" horiz-adv-x="579" 
d="M46 637h445v-13h-445v13zM237 -20q-50 0 -78.5 18t-42.5 45t-17.5 59.5t-3.5 60.5v211q0 38 -2.5 59t-15 31t-37.5 12t-70 2l20 12h170v-321q0 -28 4 -56t16 -50.5t34.5 -36.5t59.5 -14q31 0 57 17t44.5 45t28.5 63.5t10 71.5v179q0 33 -5.5 51t-24 26.5t-54.5 10.5
t-97 2l21 12h230v-425q0 -19 5 -29.5t14 -15.5t21 -6.5t25 -1.5h40l20 -12h-194v138q-2 -9 -10.5 -35t-28.5 -53.5t-53.5 -48.5t-85.5 -21z" />
    <glyph glyph-name="ubreve" unicode="&#x16d;" horiz-adv-x="579" 
d="M273 538q-24 0 -44.5 8t-36 24t-24.5 39t-9 53h12q0 -25 9.5 -44.5t24 -33t32.5 -20t36 -6.5t36.5 6.5t33 20t23.5 33t9 44.5h12q0 -60 -33 -92t-81 -32zM237 -20q-50 0 -78.5 18t-42.5 45t-17.5 59.5t-3.5 60.5v211q0 38 -2.5 59t-15 31t-37.5 12t-70 2l20 12h170v-321
q0 -28 4 -56t16 -50.5t34.5 -36.5t59.5 -14q31 0 57 17t44.5 45t28.5 63.5t10 71.5v179q0 33 -5.5 51t-24 26.5t-54.5 10.5t-97 2l21 12h230v-425q0 -19 5 -29.5t14 -15.5t21 -6.5t25 -1.5h40l20 -12h-194v138q-2 -9 -10.5 -35t-28.5 -53.5t-53.5 -48.5t-85.5 -21z" />
    <glyph glyph-name="Uring" unicode="&#x16e;" horiz-adv-x="752" 
d="M386 740q-42 0 -70.5 28t-28.5 70t28.5 70t70.5 28t70.5 -28t28.5 -70t-28.5 -70t-70.5 -28zM385 752q37 0 58.5 25t21.5 60t-21.5 61t-58.5 26t-57.5 -26t-20.5 -61t20.5 -60t57.5 -25zM389 -20q-60 0 -110 17t-85 50.5t-54.5 83t-19.5 115.5v351q0 24 -1.5 41.5
t-9.5 28.5t-25.5 16t-49.5 5h-64l20 12h366l20 -12h-111q-26 0 -40.5 -5t-21 -16t-7.5 -28.5t-1 -41.5v-323q0 -52 9 -101t33.5 -87t67.5 -61.5t111 -23.5t111.5 23t68.5 60.5t34.5 85t9.5 97.5v320q0 37 -3 57.5t-14.5 30t-34 11.5t-60.5 2h-152l20 12h396l20 -12h-64
q-33 0 -52.5 -2t-29 -11.5t-12 -30t-2.5 -57.5v-320q0 -47 -9 -98t-36.5 -93t-79.5 -69t-138 -27z" />
    <glyph glyph-name="uring" unicode="&#x16f;" horiz-adv-x="579" 
d="M269 539q-22 0 -41.5 8.5t-33.5 22.5t-22.5 34t-8.5 42q0 45 30.5 75.5t75.5 30.5t75.5 -30.5t30.5 -75.5q0 -22 -8.5 -42t-22.5 -34t-33.5 -22.5t-41.5 -8.5zM268 552q39 0 62.5 27t23.5 66q0 38 -23.5 66t-62.5 28q-40 0 -62 -28t-22 -66q0 -39 22 -66t62 -27zM237 -20
q-50 0 -78.5 18t-42.5 45t-17.5 59.5t-3.5 60.5v211q0 38 -2.5 59t-15 31t-37.5 12t-70 2l20 12h170v-321q0 -28 4 -56t16 -50.5t34.5 -36.5t59.5 -14q31 0 57 17t44.5 45t28.5 63.5t10 71.5v179q0 33 -5.5 51t-24 26.5t-54.5 10.5t-97 2l21 12h230v-425q0 -19 5 -29.5
t14 -15.5t21 -6.5t25 -1.5h40l20 -12h-194v138q-2 -9 -10.5 -35t-28.5 -53.5t-53.5 -48.5t-85.5 -21z" />
    <glyph glyph-name="Uhungarumlaut" unicode="&#x170;" horiz-adv-x="752" 
d="M313 770q7 8 15.5 18t16 20.5t12.5 22t5 21.5q0 17 -5.5 28t-5.5 25q0 12 9 22.5t18 10.5q10 0 20.5 -11t10.5 -26q0 -13 -9 -30.5t-21.5 -35.5t-26 -35.5t-23.5 -29.5h-16zM413 770q7 8 15.5 18t16 20.5t12.5 22t5 21.5q0 17 -5.5 28t-5.5 25q0 12 9 22.5t18 10.5
q10 0 20.5 -11t10.5 -26q0 -13 -9 -30.5t-21.5 -35.5t-26 -35.5t-23.5 -29.5h-16zM389 -20q-60 0 -110 17t-85 50.5t-54.5 83t-19.5 115.5v351q0 24 -1.5 41.5t-9.5 28.5t-25.5 16t-49.5 5h-64l20 12h366l20 -12h-111q-26 0 -40.5 -5t-21 -16t-7.5 -28.5t-1 -41.5v-323
q0 -52 9 -101t33.5 -87t67.5 -61.5t111 -23.5t111.5 23t68.5 60.5t34.5 85t9.5 97.5v320q0 37 -3 57.5t-14.5 30t-34 11.5t-60.5 2h-152l20 12h396l20 -12h-64q-33 0 -52.5 -2t-29 -11.5t-12 -30t-2.5 -57.5v-320q0 -47 -9 -98t-36.5 -93t-79.5 -69t-138 -27z" />
    <glyph glyph-name="uhungarumlaut" unicode="&#x171;" horiz-adv-x="579" 
d="M191 572q7 9 16 19.5t17 22t13.5 23.5t5.5 24q0 18 -5.5 30.5t-5.5 26.5t9.5 25t18.5 11q11 0 22.5 -11.5t11.5 -28.5q0 -14 -9.5 -33t-23 -39t-28 -38.5t-25.5 -31.5h-17zM298 572q7 9 16 19.5t17.5 22t14 23.5t5.5 24q0 18 -6 30.5t-6 26.5t9.5 25t19.5 11
q11 0 22 -11.5t11 -28.5q0 -14 -9.5 -33t-23 -39t-28 -38.5t-25.5 -31.5h-17zM237 -20q-50 0 -78.5 18t-42.5 45t-17.5 59.5t-3.5 60.5v211q0 38 -2.5 59t-15 31t-37.5 12t-70 2l20 12h170v-321q0 -28 4 -56t16 -50.5t34.5 -36.5t59.5 -14q31 0 57 17t44.5 45t28.5 63.5
t10 71.5v179q0 33 -5.5 51t-24 26.5t-54.5 10.5t-97 2l21 12h230v-425q0 -19 5 -29.5t14 -15.5t21 -6.5t25 -1.5h40l20 -12h-194v138q-2 -9 -10.5 -35t-28.5 -53.5t-53.5 -48.5t-85.5 -21z" />
    <glyph glyph-name="Uogonek" unicode="&#x172;" horiz-adv-x="752" 
d="M812 688h-64q-33 0 -52.5 -2t-29 -11.5t-12 -30t-2.5 -57.5v-320q0 -37 -5 -77t-20.5 -76t-43.5 -66t-73 -48h2q-42 -17 -64 -45.5t-22 -66.5q0 -33 16.5 -53.5t47.5 -21.5q29 0 45.5 19.5t16.5 44.5h12q0 -35 -24.5 -60t-67.5 -25q-21 0 -39 7.5t-30.5 20t-20 29.5
t-7.5 36t6.5 34.5t17.5 28t24.5 21.5t28.5 16q-14 -2 -30 -3.5t-33 -1.5q-60 0 -110 17t-85 50.5t-54.5 83t-19.5 115.5v351q0 24 -1.5 41.5t-9.5 28.5t-25.5 16t-49.5 5h-64l20 12h366l20 -12h-111q-26 0 -40.5 -5t-21 -16t-7.5 -28.5t-1 -41.5v-323q0 -52 9 -101t33.5 -87
t67.5 -61.5t111 -23.5t111.5 23t68.5 60.5t34.5 85t9.5 97.5v320q0 37 -3 57.5t-14.5 30t-34 11.5t-60.5 2h-152l20 12h396z" />
    <glyph glyph-name="uogonek" unicode="&#x173;" horiz-adv-x="579" 
d="M653 -134q0 -38 -26.5 -65t-72.5 -27q-22 0 -41.5 8t-33 22t-21.5 32t-8 39q0 28 12.5 49t31.5 36t42 24.5t43 15.5h-164v138q-2 -9 -10.5 -35t-28.5 -53.5t-53.5 -48.5t-85.5 -21q-50 0 -78.5 18t-42.5 45t-17.5 59.5t-3.5 60.5v211q0 38 -2.5 59t-15 31t-37.5 12t-70 2
l20 12h170v-321q0 -28 4 -56t16 -50.5t34.5 -36.5t59.5 -14q31 0 57 17t44.5 45t28.5 63.5t10 71.5v179q0 33 -5.5 51t-24 26.5t-54.5 10.5t-97 2l21 12h230v-425q0 -19 5 -29.5t14 -15.5t21 -6.5t25 -1.5h40l20 -12h-12q-45 -18 -69 -49t-24 -73q0 -35 18 -57.5t51 -23.5
q31 0 49 21t18 48h13z" />
    <glyph glyph-name="Wcircumflex" unicode="&#x174;" horiz-adv-x="1014" 
d="M549 893l211 -125h-40l-171 111l-173 -111h-40zM83 604q-8 18 -16.5 33t-19.5 26.5t-25.5 18t-35.5 6.5h-106l10 12h1234l10 -12h-81q-25 0 -42 -4t-28 -12t-18 -19t-12 -26l-238 -647l-178 447l-178 -447zM393 128q4 0 7 2t6.5 8.5t9 18.5t13.5 32l101 253l-69 162
q-7 18 -15.5 33t-20 26.5t-26 18t-35.5 6.5h-151q-23 0 -37 -2.5t-19.5 -10t-3.5 -19.5t10 -32l90 -212q42 -98 66.5 -155t39 -85.5t21.5 -36t13 -7.5zM616 644q10 25 1 34.5t-43 9.5q-33 0 -42.5 -10t-0.5 -32l44 -105zM748 128q3 0 5.5 2t5.5 8t8 18t12 33l160 436
q9 24 8 36.5t-13 18.5t-36.5 7t-64.5 1h-111q-28 0 -45 -4t-30.5 -20.5t-28 -49t-37.5 -89.5q37 -96 63 -163t43.5 -111.5t28 -69t17 -36.5t9.5 -14.5t6 -2.5z" />
    <glyph glyph-name="wcircumflex" unicode="&#x175;" horiz-adv-x="758" 
d="M828 478h-45q-20 0 -34 -1.5t-24.5 -7t-17.5 -16.5t-14 -31l-151 -445l-154 402l-137 -402l-197 456q-12 27 -26.5 36t-47.5 9h-40l22 12h245l32 -12h-53q-13 0 -26 -1.5t-22 -6t-12 -13.5t4 -24l147 -342l104 306l-14 36q-5 14 -10 22.5t-12.5 13.5t-19 7t-28.5 2h-58
l32 12h252l32 -12h-61q-36 0 -52.5 -7.5t-5.5 -37.5l132 -342l112 331q7 21 5.5 32.5t-9.5 16.5t-21 6t-28 1h-72l31 12h222zM268 546h-41l175 111l172 -111h-39l-133 94z" />
    <glyph glyph-name="Ycircumflex" unicode="&#x176;" horiz-adv-x="618" 
d="M324 893l211 -125h-40l-171 111l-173 -111h-40zM107 12h101q26 0 40 6.5t20.5 20t8 35t1.5 52.5v189q0 9 -18 44t-43.5 80t-53.5 92t-49 81q-13 22 -23 36.5t-22.5 23.5t-29 12.5t-43.5 3.5h-86l20 12h340l20 -12h-54q-26 0 -40.5 -3t-15.5 -16.5t12 -41.5t41 -77
q34 -58 53 -90.5t29.5 -48t15 -19t7.5 -3.5t5.5 1.5t7 7t11 15.5t17.5 26l122 186q15 23 16.5 35.5t-10 18.5t-36.5 7.5t-65 1.5h-116l20 12h378l20 -12h-81q-26 0 -42.5 -4t-28.5 -12t-21.5 -20t-20.5 -29l-83 -127q-26 -39 -41.5 -62.5t-23.5 -38t-10.5 -22t-2.5 -15.5
v-233q0 -30 1.5 -51.5t8.5 -35t22.5 -20t42.5 -6.5h116l20 -12h-477z" />
    <glyph glyph-name="ycircumflex" unicode="&#x177;" horiz-adv-x="480" 
d="M257 663l172 -111h-39l-133 94l-134 -94h-41zM6 -238q36 0 66.5 5.5t56.5 22t47.5 46t38.5 76.5l28 76l-179 444q-11 27 -25.5 36.5t-48.5 9.5h-45l20 12h265l33 -12h-71q-17 0 -30 -1.5t-20.5 -6t-8.5 -13.5t5 -25l140 -346l121 335q7 21 5 33t-11 17t-24.5 6t-35.5 1
h-70l31 12h241l20 -12h-46q-21 0 -36 -1.5t-25.5 -7.5t-19 -17t-16.5 -31l-243 -671h-184z" />
    <glyph glyph-name="Ydieresis" unicode="&#x178;" horiz-adv-x="618" 
d="M225 770q-6 0 -13 4t-13.5 10t-10.5 13t-4 12q0 6 4 13.5t10.5 14t13.5 10.5t13 4t13 -4t13 -10.5t10 -14t4 -13.5q0 -5 -4 -12t-10 -13t-13 -10t-13 -4zM426 770q-6 0 -13 4t-13.5 10t-10.5 13t-4 12q0 6 4 13.5t10.5 14t13.5 10.5t13 4t13 -4t13 -10.5t10 -14t4 -13.5
q0 -5 -4 -12t-10 -13t-13 -10t-13 -4zM107 12h101q26 0 40 6.5t20.5 20t8 35t1.5 52.5v189q0 9 -18 44t-43.5 80t-53.5 92t-49 81q-13 22 -23 36.5t-22.5 23.5t-29 12.5t-43.5 3.5h-86l20 12h340l20 -12h-54q-26 0 -40.5 -3t-15.5 -16.5t12 -41.5t41 -77q34 -58 53 -90.5
t29.5 -48t15 -19t7.5 -3.5t5.5 1.5t7 7t11 15.5t17.5 26l122 186q15 23 16.5 35.5t-10 18.5t-36.5 7.5t-65 1.5h-116l20 12h378l20 -12h-81q-26 0 -42.5 -4t-28.5 -12t-21.5 -20t-20.5 -29l-83 -127q-26 -39 -41.5 -62.5t-23.5 -38t-10.5 -22t-2.5 -15.5v-233
q0 -30 1.5 -51.5t8.5 -35t22.5 -20t42.5 -6.5h116l20 -12h-477z" />
    <glyph glyph-name="Zacute" unicode="&#x179;" horiz-adv-x="700" 
d="M188 786l356 53l13 -19l-369 -46v12zM482 589q26 33 35.5 52.5t4.5 30t-22.5 13.5t-46.5 3h-242q-37 0 -57 -22.5t-29 -54t-10.5 -65t-1.5 -55.5l-12 -11q0 88 -7.5 144t-32.5 85l7 8q14 -8 47.5 -12.5t75.5 -4.5h469l-439 -557q-35 -45 -48.5 -71t-7.5 -39.5t31 -17
t65 -3.5h146q48 0 83.5 11t64 37.5t53 71.5t51.5 113l11 -2l-87 -243h-563z" />
    <glyph glyph-name="zacute" unicode="&#x17a;" horiz-adv-x="499" 
d="M100 571l313 87l18 -18l-331 -82v13zM334 419q25 33 15 46t-64 13h-87q-36 0 -56 -10.5t-30 -28.5t-12.5 -42.5t-2.5 -53.5l-11 -4q-4 38 -7 66t-5 47q-3 22 -5 38h392l-285 -387q-39 -53 -33.5 -72t48.5 -19h81q33 0 60 7t49.5 25t42 49t38.5 79l12 -1l-59 -171h-390z
" />
    <glyph glyph-name="Zdotaccent" unicode="&#x17b;" horiz-adv-x="700" 
d="M367 748q-26 0 -44 18t-18 44t18 44t44 18t44 -18t18 -44t-18 -44t-44 -18zM482 589q26 33 35.5 52.5t4.5 30t-22.5 13.5t-46.5 3h-242q-37 0 -57 -22.5t-29 -54t-10.5 -65t-1.5 -55.5l-12 -11q0 88 -7.5 144t-32.5 85l7 8q14 -8 47.5 -12.5t75.5 -4.5h469l-439 -557
q-35 -45 -48.5 -71t-7.5 -39.5t31 -17t65 -3.5h146q48 0 83.5 11t64 37.5t53 71.5t51.5 113l11 -2l-87 -243h-563z" />
    <glyph glyph-name="zdotaccent" unicode="&#x17c;" horiz-adv-x="499" 
d="M262 567q-27 0 -46.5 19.5t-19.5 47.5t19.5 48t46.5 20q28 0 47.5 -20t19.5 -48t-19.5 -47.5t-47.5 -19.5zM334 419q25 33 15 46t-64 13h-87q-36 0 -56 -10.5t-30 -28.5t-12.5 -42.5t-2.5 -53.5l-11 -4q-4 38 -7 66t-5 47q-3 22 -5 38h392l-285 -387q-39 -53 -33.5 -72
t48.5 -19h81q33 0 60 7t49.5 25t42 49t38.5 79l12 -1l-59 -171h-390z" />
    <glyph glyph-name="Zcaron" unicode="&#x17d;" horiz-adv-x="700" 
d="M195 885l173 -111l171 111h40l-211 -125l-213 125h40zM482 589q26 33 35.5 52.5t4.5 30t-22.5 13.5t-46.5 3h-242q-37 0 -57 -22.5t-29 -54t-10.5 -65t-1.5 -55.5l-12 -11q0 88 -7.5 144t-32.5 85l7 8q14 -8 47.5 -12.5t75.5 -4.5h469l-439 -557q-35 -45 -48.5 -71
t-7.5 -39.5t31 -17t65 -3.5h146q48 0 83.5 11t64 37.5t53 71.5t51.5 113l11 -2l-87 -243h-563z" />
    <glyph glyph-name="zcaron" unicode="&#x17e;" horiz-adv-x="499" 
d="M91 653h41l134 -95l133 95h39l-172 -111zM334 419q25 33 15 46t-64 13h-87q-36 0 -56 -10.5t-30 -28.5t-12.5 -42.5t-2.5 -53.5l-11 -4q-4 38 -7 66t-5 47q-3 22 -5 38h392l-285 -387q-39 -53 -33.5 -72t48.5 -19h81q33 0 60 7t49.5 25t42 49t38.5 79l12 -1l-59 -171
h-390z" />
    <glyph glyph-name="Ohorn" unicode="&#x1a0;" horiz-adv-x="814" 
d="M406 -20q-78 0 -145 29.5t-116 80t-77 118t-28 143.5t28 143t77 117.5t116 79.5t145 29q63 0 119 -19t102 -54q12 14 23 30.5t11 32.5t-5.5 26.5t-5.5 24.5q0 11 9 21t17 10q10 0 20 -10.5t10 -24.5q0 -12 -7 -27t-17.5 -31t-23 -31.5t-22.5 -27.5q64 -51 101 -126
t37 -163q0 -76 -28 -143.5t-77.5 -118t-117 -80t-145.5 -29.5zM447 -1q54 0 99.5 23t78.5 64.5t51 98.5t18 125q0 91 -31 163t-80 122t-109 76.5t-119 26.5q-55 0 -99 -22.5t-74.5 -62t-47 -92.5t-16.5 -114q0 -79 26.5 -152.5t71.5 -130.5t104.5 -91t126.5 -34z" />
    <glyph glyph-name="ohorn" unicode="&#x1a1;" horiz-adv-x="581" 
d="M290 -20q-50 0 -97 19.5t-83 55t-58 83.5t-22 105t22 104.5t58 82t83 53.5t97 19t96.5 -18.5t82.5 -52.5q11 14 20 29t9 29q0 16 -5.5 26.5t-5.5 24.5q0 11 9 21t17 10q10 0 20 -10.5t10 -24.5q0 -11 -6.5 -25.5t-16.5 -29.5t-21.5 -30t-21.5 -27q34 -35 54 -80.5
t20 -100.5q0 -57 -22 -105t-58 -83.5t-83 -55t-98 -19.5zM321 -4q28 0 55.5 14t49 41t35 68t13.5 95q0 63 -19.5 113.5t-50.5 86t-67.5 54t-71.5 18.5q-48 0 -79 -22.5t-49 -54.5t-25 -67t-7 -61q0 -47 15 -97.5t43 -92t68 -68.5t90 -27z" />
    <glyph glyph-name="Uhorn" unicode="&#x1af;" horiz-adv-x="752" 
d="M652 267q0 -47 -9 -98t-36.5 -93t-79.5 -69t-138 -27q-60 0 -110 17t-85 50.5t-54.5 83t-19.5 115.5v351q0 24 -1.5 41.5t-9.5 28.5t-25.5 16t-49.5 5h-64l20 12h366l20 -12h-111q-26 0 -40.5 -5t-21 -16t-7.5 -28.5t-1 -41.5v-323q0 -52 9 -101t33.5 -87t67.5 -61.5
t111 -23.5t111.5 23t68.5 60.5t34.5 85t9.5 97.5v320q0 35 -3 55.5t-14.5 30.5t-33.5 12.5t-61 2.5h-152l20 12h256v-49q11 14 21.5 30t10.5 31q0 16 -5.5 26.5t-5.5 24.5q0 11 9 21t17 10q10 0 20 -10.5t10 -24.5q0 -13 -8.5 -29.5t-20.5 -34t-25.5 -34t-22.5 -28.5v-366z
" />
    <glyph glyph-name="uhorn" unicode="&#x1b0;" horiz-adv-x="579" 
d="M237 -20q-50 0 -78.5 18t-42.5 45t-17.5 59.5t-3.5 60.5v211q0 38 -2.5 59t-15 31t-37.5 12t-70 2l20 12h170v-321q0 -28 4 -56t16 -50.5t34.5 -36.5t59.5 -14q31 0 57 17t44.5 45t28.5 63.5t10 71.5v179q0 33 -5.5 51t-24 26.5t-54.5 10.5t-97 2l21 12h230v-50
q11 14 20.5 29.5t9.5 29.5q0 16 -5.5 26.5t-5.5 24.5q0 11 9 21t17 10q10 0 20 -10.5t10 -24.5q0 -12 -8 -28.5t-19.5 -33.5t-24.5 -33t-23 -28v-358q0 -19 5 -29.5t14 -15.5t21 -6.5t25 -1.5h40l20 -12h-194v138q-2 -9 -10.5 -35t-28.5 -53.5t-53.5 -48.5t-85.5 -21z" />
    <glyph glyph-name="Gcaron" unicode="&#x1e6;" horiz-adv-x="786" 
d="M233 904l173 -111l171 111h40l-211 -125l-213 125h40zM450 -20q-91 0 -166.5 25t-129.5 72t-84 116.5t-30 157.5q0 72 28 138.5t77 117.5t116 81.5t145 30.5q53 0 94 -6.5t72.5 -15t55.5 -15t43 -6.5q7 0 17 2l3 -9q-19 -10 -33.5 -35t-25.5 -58t-20 -71.5t-17 -76.5
l-10 12q4 19 6 46t-0.5 57t-12.5 59t-31.5 52.5t-55.5 38t-85 14.5q-58 0 -101.5 -15.5t-74.5 -40.5t-51 -57t-31 -65t-15.5 -64.5t-4.5 -56.5q0 -78 23 -152.5t65 -133t101.5 -94.5t132.5 -36q64 0 108 24.5t69 62t29.5 80.5t-10.5 80.5t-50.5 62t-91.5 24.5h-304l20 13
h498l38 -339h-12q-8 60 -17 92t-23 32q-9 0 -26 -22.5t-46.5 -49.5t-74 -49.5t-107.5 -22.5z" />
    <glyph glyph-name="gcaron" unicode="&#x1e7;" horiz-adv-x="538" 
d="M91 654h38l125 -87l124 87h37l-161 -102zM200 -235q-32 0 -59.5 7t-47.5 21t-31.5 35.5t-11.5 50.5q0 24 9 46.5t24.5 41.5t35.5 34t42 24q-15 0 -31.5 4.5t-30 13.5t-22 23.5t-8.5 35.5q0 17 8 32t19 27t22.5 20.5t18.5 13.5q-32 21 -52.5 55.5t-20.5 81.5q0 39 15.5 70
t42 53.5t60.5 34.5t71 12q35 0 58 -2t48.5 -4t61.5 -4t97 -2v-145l-12 -8q0 67 -27 105.5t-73 38.5q-9 0 -17 -1t-14 -3q-7 -2 -12 -5q34 -23 54 -58.5t20 -81.5q0 -42 -17 -73.5t-44.5 -53.5t-61 -33t-66.5 -11q-26 0 -51.5 7t-48.5 20q-20 -18 -25 -31t-5 -26
q0 -29 25 -40.5t70 -11.5h102q34 0 62.5 -5.5t48.5 -18t31.5 -32t11.5 -48.5q0 -40 -21 -78t-58 -67t-85.5 -47t-104.5 -18zM268 175q24 0 41.5 11t29.5 30t17.5 44.5t5.5 53.5q0 42 -12 74t-30.5 54.5t-41.5 34t-45 11.5q-30 0 -48.5 -14t-29 -33.5t-14 -41.5t-3.5 -39
q0 -31 8.5 -64t25 -60t41 -44t55.5 -17zM246 -210q33 0 64 9.5t56 27.5t40 43.5t15 57.5q0 97 -129 97h-88q-38 0 -62 -30.5t-24 -74.5q0 -26 7.5 -49.5t23 -41.5t40 -28.5t57.5 -10.5z" />
    <glyph glyph-name="Aringacute" unicode="&#x1fa;" horiz-adv-x="667" 
d="M144 966l356 53l13 -19l-369 -46v12zM322 740q-42 0 -70.5 28t-28.5 70t28.5 70t70.5 28t70.5 -28t28.5 -70t-28.5 -70t-70.5 -28zM321 752q37 0 58.5 25t21.5 60t-21.5 61t-58.5 26t-57.5 -26t-20.5 -61t20.5 -60t57.5 -25zM-100 12h50q16 0 32 1.5t31.5 7.5t29 19
t23.5 35q8 18 22.5 51.5t33.5 76t40 91t42 96.5q49 113 106 244q-5 15 -23 27q-16 11 -47.5 19t-88.5 8h-135l20 12h317l264 -629q14 -32 39 -45.5t57 -13.5h54l20 -12h-439l19 12h83q33 0 50.5 5t21 21t-5 46.5t-28.5 81.5q-7 20 -16.5 30.5t-21.5 15t-26 5.5t-31 1h-176
q-24 0 -39 -1.5t-26 -8t-19.5 -19.5t-18.5 -36q-21 -46 -30 -74t-4.5 -43t23.5 -19.5t55 -4.5h81l20 -12h-379zM393 230q38 0 47 18t-6 60l-118 310l-139 -320q-9 -21 -12 -34.5t1 -21t16.5 -10t34.5 -2.5h176z" />
    <glyph glyph-name="aringacute" unicode="&#x1fb;" horiz-adv-x="486" 
d="M81 764l292 80l17 -17l-309 -75v12zM236 542q-42 0 -70.5 28t-28.5 70t28.5 70t70.5 28t70.5 -28t28.5 -70t-28.5 -70t-70.5 -28zM235 554q37 0 58.5 25t21.5 60t-21.5 61t-58.5 26t-57.5 -26t-20.5 -61t20.5 -60t57.5 -25zM152 -20q-51 0 -81.5 25.5t-30.5 70.5
q0 31 14.5 53.5t39 39.5t55.5 30t64 26q23 9 43.5 19t36 22.5t25 26.5t9.5 30t-1.5 44t-10 55.5t-27 47.5t-52.5 20q-27 0 -49 -13.5t-37 -39t-21 -60.5t0 -79l-12 -5l-48 141q19 19 46 34q23 13 56.5 23.5t78.5 10.5q55 0 84.5 -17.5t43 -46.5t16 -65.5t2.5 -74.5v-219
q0 -40 15 -53.5t49 -13.5h41l20 -12h-195v105q-16 -35 -40 -62q-21 -24 -53.5 -43.5t-80.5 -19.5zM191 13q35 0 60 17.5t42 41t25 46t8 32.5v136q-6 -12 -17 -22.5t-26 -19.5t-32 -16.5t-34 -14.5q-21 -9 -40 -17t-33 -20t-22.5 -29.5t-8.5 -44.5q0 -17 4 -33t13 -28.5
t24 -20t37 -7.5z" />
    <glyph glyph-name="AEacute" unicode="&#x1fc;" horiz-adv-x="903" 
d="M708 820l-369 -46v12l356 53zM913 162l-136 -162h-530l18 12h81q26 0 40 6.5t20.5 20t8 35t1.5 52.5v50q0 17 -3.5 25.5t-12 12.5t-22 4h-33.5h-99q-28 0 -46 -1t-30 -5.5t-20.5 -13t-17.5 -23.5q-28 -46 -47.5 -77.5t-23 -50.5t11.5 -27t55 -8h101l18 -12h-367l10 12h70
q31 0 53 13t44 50l298 502q17 29 24 50t1 34.5t-26 20t-56 6.5h-145l11 12h532q47 0 84.5 4.5t53.5 12.5l2 -5q-28 -29 -36 -84t-8 -143l-12 11q0 34 -2 68.5t-10.5 62t-25 44.5t-46.5 17h-135q-26 0 -40.5 -5t-21 -16t-7.5 -28.5t-1 -41.5v-121q0 -31 1.5 -51t7.5 -31.5
t18 -15.5t33 -4h65q28 0 43 4t22 15.5t8 32t1 53.5l12 10v-267l-12 10q0 23 -1 46t-8 41.5t-22 30.5t-43 12h-65q-21 0 -33 -4t-18 -13.5t-7.5 -24.5t-1.5 -38v-157q0 -30 1.5 -51.5t8.5 -35t22.5 -20t42.5 -6.5q57 0 104.5 8t88 26t75.5 48t66 73zM345 230q29 0 44 3
t21 11.5t6 24.5v42v342q-32 -53 -62 -102q-26 -42 -52.5 -87t-44.5 -75q-31 -53 -48.5 -84.5t-22 -48t4.5 -21.5t30 -5h124z" />
    <glyph glyph-name="aeacute" unicode="&#x1fd;" horiz-adv-x="780" 
d="M245 579l292 80l17 -17l-309 -75v12zM564 -20q-30 0 -61 10.5t-58.5 30t-49.5 47.5t-35 62l-6.5 -11.5t-19 -28t-31 -35.5t-41.5 -35t-51 -27t-60 -11q-48 0 -79.5 25.5t-31.5 73.5q0 32 16.5 54t42 38t56.5 28t60 23q23 9 43.5 19.5t36 22.5t25 26.5t9.5 30.5v39.5
t-7 56t-25.5 50t-55.5 21.5q-27 0 -50 -12.5t-39 -36.5t-22.5 -60t-0.5 -83l-12 -5l-48 141q21 19 48 34q23 13 53.5 23.5t68.5 10.5q37 0 63.5 -6.5t44.5 -18.5t29 -29t17 -38q31 45 72 68.5t88 23.5q34 0 65.5 -12.5t57.5 -36t45.5 -56.5t28.5 -74h-344q-4 -57 8.5 -113.5
t37.5 -101t60.5 -72.5t76.5 -28q34 0 60 14.5t44.5 40t29 60.5t12.5 75h11q0 -37 -9 -76t-30 -70.5t-56 -51.5t-87 -20zM675 335q-23 69 -62 106t-81 37q-36 0 -59.5 -13t-37.5 -33.5t-20 -46t-8 -50.5h268zM193 15q34 0 59.5 15t42.5 36.5t25.5 45t8.5 40.5v137
q-8 -23 -40 -42t-69 -34q-20 -7 -39.5 -15.5t-34.5 -20t-24 -28.5t-9 -43q0 -36 18 -63.5t62 -27.5z" />
    <glyph glyph-name="oslashacute" unicode="&#x1ff;" horiz-adv-x="581" 
d="M435 636l-309 -75v12l292 80zM406 475q31 -16 57.5 -39t46 -53t30.5 -65t11 -75q0 -57 -22 -105t-58 -83.5t-83 -55t-98 -19.5q-48 0 -92 18l-27 -62h-16l30 67q-33 15 -61.5 39t-49 55t-32.5 67.5t-12 78.5q0 57 22 104.5t58 82t83 53.5t97 19q52 0 104 -22l32 73h14z
M105 281q0 -31 6.5 -64t19 -64t31 -59t41.5 -49l174 395q-27 23 -56 34.5t-56 11.5q-48 0 -79 -22.5t-49 -54.5t-25 -67t-7 -61zM321 -4q28 0 55.5 14t49 41t35 68t13.5 95q0 72 -25 127t-62 90l-173 -396q23 -18 49.5 -28.5t57.5 -10.5z" />
    <glyph glyph-name="uni0218" unicode="&#x218;" horiz-adv-x="611" 
d="M313 -20q-44 0 -85.5 13t-74 29.5t-52 31t-19.5 17.5l-12 219l12 10q4 -53 17 -107.5t39.5 -99t69.5 -73t107 -28.5q50 0 84 12.5t55 32.5t30 44.5t9 48.5q0 56 -29.5 94t-73.5 67.5t-95.5 54t-95.5 53t-73.5 65.5t-29.5 90q0 50 19.5 82t50.5 51t69.5 26t75.5 7
q28 0 56.5 -4t56 -8.5t52.5 -8.5t46 -4q15 0 27 3l3 -9q-38 -21 -58 -73t-38 -137l-9 12q12 54 13 95t-13.5 68t-47 40.5t-87.5 13.5q-31 0 -60.5 -5t-52 -18.5t-36.5 -36t-14 -57.5q0 -43 30.5 -75t76.5 -59t99 -53t99 -57t76.5 -70.5t30.5 -94.5q0 -53 -20 -91.5t-54 -63
t-79 -36t-95 -11.5zM220 -258q45 16 68 46.5t23 64.5q0 12 -3 18.5t-7 12t-7 11.5t-3 16q0 4 3.5 10.5t9 12.5t11.5 10t10 4q5 0 10.5 -4t10.5 -10t8.5 -12.5t3.5 -10.5q0 -62 -34.5 -109t-103.5 -71v11z" />
    <glyph glyph-name="uni0219" unicode="&#x219;" horiz-adv-x="435" 
d="M215 -20q-33 0 -61.5 8.5t-50 19.5t-34 20.5t-12.5 11.5l-12 123h12q20 -84 61 -127.5t102 -43.5q48 0 75.5 23.5t27.5 62.5q0 35 -19.5 60t-49 45t-64 38t-64 39t-49 47.5t-19.5 63.5q0 35 13.5 60t34.5 40.5t47.5 23t52.5 7.5q40 0 69 -10.5t47.5 -23.5t27.5 -24t9 -12
l-44 -112l-10 4q7 86 -18.5 126t-79.5 40q-45 0 -67.5 -25t-22.5 -58q0 -31 20 -55t50.5 -44t66 -39t66 -40t50.5 -46t20 -58q0 -32 -13.5 -59t-37 -46t-55.5 -29.5t-69 -10.5zM104 -282q48 17 72.5 50.5t24.5 70.5q0 13 -3.5 20.5t-7 13.5l-7 12t-3.5 17q0 5 4 12t9.5 13
t12 10.5t10.5 4.5q5 0 11.5 -4.5t12 -10.5t9 -13t3.5 -12q0 -67 -37 -118.5t-111 -77.5v12z" />
    <glyph glyph-name="uni021A" unicode="&#x21a;" horiz-adv-x="637" 
d="M147 12h61q26 0 40 6.5t20.5 20t8 35t1.5 52.5v471q0 24 -1 41.5t-8 28.5t-22.5 16t-43.5 5h-80q-34 0 -52 -22t-26.5 -53t-10 -64t-1.5 -55l-12 -4q0 81 -6.5 135.5t-34.5 83.5l5 8q16 -8 53.5 -12.5t84.5 -4.5h391q47 0 84.5 4.5t53.5 12.5l5 -8q-28 -29 -35 -83.5
t-7 -135.5l-12 4q0 22 -1.5 55t-10 64t-26.5 53t-51 22h-91q-26 0 -40.5 -5t-21 -16t-7.5 -28.5t-1 -41.5v-472q0 -30 1.5 -51.5t8.5 -35t22.5 -20t42.5 -6.5h56l20 -12h-377zM206 -240q45 16 68 46.5t23 64.5q0 12 -3 18.5t-7 12t-7 11.5t-3 16q0 4 3.5 10.5t9 12.5
t11.5 10t10 4q5 0 10.5 -4t10.5 -10t8.5 -12.5t3.5 -10.5q0 -62 -34.5 -109t-103.5 -71v11z" />
    <glyph glyph-name="uni021B" unicode="&#x21b;" horiz-adv-x="400" 
d="M244 -10q-78 0 -113.5 42t-35.5 123v323h-90l21 12q25 0 43.5 7.5t33 26.5t26 52t21.5 84h12v-170h162l21 -12h-180v-334q0 -65 21.5 -98t72.5 -33q54 0 84 52t30 147h12q0 -43 -6.5 -83t-22.5 -71t-43 -49.5t-69 -18.5zM111 -270q48 17 72.5 50.5t24.5 70.5
q0 13 -3.5 20.5t-7 13.5l-7 12t-3.5 17q0 5 4 12t9.5 13t12 10.5t10.5 4.5q5 0 11.5 -4.5t12 -10.5t9 -13t3.5 -12q0 -67 -37 -118.5t-111 -77.5v12z" />
    <glyph glyph-name="uni0233" unicode="&#x233;" horiz-adv-x="480" 
d="M45 626h415v-12h-415v12zM6 -238q36 0 66.5 5.5t56.5 22t47.5 46t38.5 76.5l28 76l-179 444q-11 27 -25.5 36.5t-48.5 9.5h-45l20 12h265l33 -12h-71q-17 0 -30 -1.5t-20.5 -6t-8.5 -13.5t5 -25l140 -346l121 335q7 21 5 33t-11 17t-24.5 6t-35.5 1h-70l31 12h241l20 -12
h-46q-21 0 -36 -1.5t-25.5 -7.5t-19 -17t-16.5 -31l-243 -671h-184z" />
    <glyph glyph-name="circumflex" unicode="&#x2c6;" horiz-adv-x="344" 
d="M173 622l161 -102h-37l-124 87l-125 -87h-38z" />
    <glyph glyph-name="caron" unicode="&#x2c7;" horiz-adv-x="444" 
d="M50 655l173 -111l171 111h40l-211 -125l-213 125h40z" />
    <glyph glyph-name="breve" unicode="&#x2d8;" horiz-adv-x="368" 
d="M184 498q-36 0 -67.5 13.5t-55.5 37.5t-37.5 55.5t-13.5 67.5l12 -2q0 -32 13 -61t35 -51t51 -35t61 -13t62 13t52.5 35t36 51t13.5 61l12 2q0 -36 -13.5 -67.5t-37 -55.5t-55.5 -37.5t-68 -13.5z" />
    <glyph glyph-name="dotaccent" unicode="&#x2d9;" horiz-adv-x="144" 
d="M72 522q-26 0 -44 18t-18 44t18 44t44 18t44 -18t18 -44t-18 -44t-44 -18z" />
    <glyph glyph-name="ring" unicode="&#x2da;" horiz-adv-x="218" 
d="M109 512q-42 0 -70.5 28t-28.5 70t28.5 70t70.5 28t70.5 -28t28.5 -70t-28.5 -70t-70.5 -28zM108 524q37 0 58.5 25t21.5 60t-21.5 61t-58.5 26t-57.5 -26t-20.5 -61t20.5 -60t57.5 -25z" />
    <glyph glyph-name="ogonek" unicode="&#x2db;" horiz-adv-x="219" 
d="M111 -208q-15 0 -33 4.5t-33 16t-25 30t-10 46.5q0 44 31 71t75 40h17q-46 -18 -61 -48t-15 -61q0 -29 18.5 -50.5t51.5 -21.5q21 0 34.5 9.5t21.5 21.5q9 14 14 31h12q-3 -25 -15 -45q-10 -17 -29 -30.5t-54 -13.5z" />
    <glyph glyph-name="tilde" unicode="&#x2dc;" horiz-adv-x="333" 
d="M10 547q7 22 19 39q11 15 27 27t39 12q24 0 40.5 -11t31.5 -24.5t31 -24.5t37 -11q19 0 31.5 7.5t20.5 16.5q10 10 16 23l10 -4q-7 -15 -18 -27q-9 -11 -23.5 -19.5t-36.5 -8.5q-23 0 -40.5 10t-33.5 21.5t-31.5 21.5t-34.5 10q-20 0 -33.5 -10t-22.5 -21
q-11 -14 -18 -32z" />
    <glyph glyph-name="hungarumlaut" unicode="&#x2dd;" horiz-adv-x="216" 
d="M10 540q7 8 15.5 18t16 20.5t12.5 22t5 21.5q0 17 -5.5 28t-5.5 25q0 12 9 22.5t18 10.5q10 0 20.5 -11t10.5 -26q0 -13 -9 -30.5t-21.5 -35.5t-26 -35.5t-23.5 -29.5h-16zM110 540q7 8 15.5 18t16 20.5t12.5 22t5 21.5q0 17 -5.5 28t-5.5 25q0 12 9 22.5t18 10.5
q10 0 20.5 -11t10.5 -26q0 -13 -9 -30.5t-21.5 -35.5t-26 -35.5t-23.5 -29.5h-16z" />
    <glyph glyph-name="gravecomb" unicode="&#x300;" 
d="M-319 600l17 17l292 -80v-12z" />
    <glyph glyph-name="acutecomb" unicode="&#x301;" 
d="M-319 537l292 80l17 -17l-309 -75v12z" />
    <glyph glyph-name="uni0302" unicode="&#x302;" 
d="M-171 622l161 -102h-37l-124 87l-125 -87h-38z" />
    <glyph glyph-name="tildecomb" unicode="&#x303;" 
d="M-313 547q7 22 19 39q11 15 27 27t39 12q24 0 40.5 -11t31.5 -24.5t31 -24.5t37 -11q18 0 31 7.5t21 16.5q10 10 16 23l10 -4q-7 -15 -18 -27q-9 -11 -24 -19.5t-36 -8.5q-23 0 -40.5 10t-33.5 21.5t-31.5 21.5t-34.5 10q-20 0 -34 -10t-23 -21q-10 -14 -17 -32z" />
    <glyph glyph-name="uni0304" unicode="&#x304;" 
d="M-425 580h415v-12h-415v12z" />
    <glyph glyph-name="uni0306" unicode="&#x306;" 
d="M-124 512q-24 0 -44.5 8t-36 24t-24.5 39t-9 53h12q0 -25 9.5 -44.5t24 -33t32.5 -20t36 -6.5t36.5 6.5t33 20t23.5 33t9 44.5h12q0 -60 -33 -92t-81 -32z" />
    <glyph glyph-name="uni0307" unicode="&#x307;" 
d="M-72 522q-26 0 -44 18t-18 44t18 44t44 18t44 -18t18 -44t-18 -44t-44 -18z" />
    <glyph glyph-name="uni0308" unicode="&#x308;" 
d="M-210 555q-6 0 -13 4t-13.5 10t-10.5 13t-4 12q0 6 4 13.5t10.5 14t13.5 10.5t13 4t13 -4t13 -10.5t10 -14t4 -13.5q0 -5 -4 -12t-10 -13t-13 -10t-13 -4zM-50 555q-6 0 -13 4t-13.5 10t-10.5 13t-4 12q0 6 4 13.5t10.5 14t13.5 10.5t13 4t13 -4t13 -10.5t10 -14t4 -13.5
q0 -5 -4 -12t-10 -13t-13 -10t-13 -4z" />
    <glyph glyph-name="uni030A" unicode="&#x30a;" 
d="M-109 512q-42 0 -70.5 28t-28.5 70t28.5 70t70.5 28t70.5 -28t28.5 -70t-28.5 -70t-70.5 -28zM-110 524q37 0 58.5 25t21.5 60t-21.5 61t-58.5 26t-57.5 -26t-20.5 -61t20.5 -60t57.5 -25z" />
    <glyph glyph-name="uni030B" unicode="&#x30b;" 
d="M-206 540q7 8 15.5 18t16 20.5t12.5 22t5 21.5q0 17 -5.5 28t-5.5 25q0 12 9 22.5t18 10.5q10 0 20.5 -11t10.5 -26q0 -13 -9 -30.5t-21.5 -35.5t-26 -35.5t-23.5 -29.5h-16zM-106 540q7 8 15.5 18t16 20.5t12.5 22t5 21.5q0 17 -5.5 28t-5.5 25q0 12 9 22.5t18 10.5
q10 0 20.5 -11t10.5 -26q0 -13 -9 -30.5t-21.5 -35.5t-26 -35.5t-23.5 -29.5h-16z" />
    <glyph glyph-name="uni030C" unicode="&#x30c;" 
d="M-334 622h38l125 -87l124 87h37l-161 -102z" />
    <glyph glyph-name="uni0312" unicode="&#x312;" 
d="M-58 533q-6 0 -12.5 3.5t-12 8t-9.5 10t-5 9.5q-8 47 10.5 92t74.5 81l2 -11q-35 -23 -46.5 -51t-4.5 -54q2 -9 6.5 -13.5t9 -8.5t8.5 -9t6 -15q1 -4 -1.5 -11t-6.5 -13.5t-9.5 -11.5t-9.5 -6z" />
    <glyph glyph-name="dotbelowcomb" unicode="&#x323;" horiz-adv-x="144" 
d="M79 -203q-7 0 -16 5t-16.5 12t-12.5 15t-5 14q0 7 5 16t12.5 17t16.5 13t16 5t15 -5t15 -13t12 -17t5 -16q0 -6 -5 -14t-12 -15t-15 -12t-15 -5z" />
    <glyph glyph-name="uni0326" unicode="&#x326;" 
d="M-148 -240q45 16 68 46.5t23 64.5q0 12 -3 18.5t-7 12t-7 11.5t-3 16q0 4 3.5 10.5t9 12.5t11 10t10.5 4t10.5 -4t10.5 -10t8.5 -12.5t3.5 -10.5q0 -62 -34.5 -109t-103.5 -71v11z" />
    <glyph glyph-name="uni0327" unicode="&#x327;" 
d="M-114 -228q-23 0 -38.5 6.5t-26 16t-16.5 21t-10 20.5l11 5q8 -21 23.5 -37.5t42.5 -16.5q15 0 27.5 7t21.5 18.5t14 26t5 28.5q0 25 -10 41.5t-33 16.5q-14 0 -27 -7.5t-24 -16.5q-12 -10 -23 -23l-17 12l84 98h15l-82 -94q14 15 35 30t53 15q14 0 28 -5t25.5 -14.5
t18.5 -23.5t7 -33q0 -22 -10 -39t-25 -28.5t-33.5 -17.5t-35.5 -6z" />
    <glyph glyph-name="uni0328" unicode="&#x328;" 
d="M-62 0q-42 -17 -64 -45.5t-22 -66.5q0 -33 16.5 -53.5t47.5 -21.5q29 0 45.5 19.5t16.5 44.5h12q0 -35 -24.5 -60t-67.5 -25q-21 0 -39 7.5t-30.5 20t-20 29.5t-7.5 36q0 26 11.5 45.5t29.5 33t39 22.5t40 14h17z" />
    <glyph glyph-name="uni037E" unicode="&#x37e;" horiz-adv-x="600" 
d="M97 307q-6 0 -13 4t-13.5 10t-10.5 13t-4 12q0 6 4 13.5t10.5 14t13.5 10.5t13 4t13 -4t13 -10.5t10 -14t4 -13.5q0 -5 -4 -12t-10 -13t-13 -10t-13 -4zM-10 -150q45 16 67.5 43t22.5 61q0 14 -3.5 24t-8 17.5t-8 14t-3.5 14.5q0 6 4.5 13.5t10.5 14.5t13 11.5t12 4.5
q6 0 13 -5t13 -12t10 -14.5t4 -12.5q0 -27 -10 -54.5t-29 -52.5t-46 -45.5t-62 -32.5v11z" />
    <glyph glyph-name="tonos" unicode="&#x384;" horiz-adv-x="346" 
d="M10 537l292 80l17 -17l-309 -75v12z" />
    <glyph glyph-name="anoteleia" unicode="&#x387;" horiz-adv-x="600" 
d="M147 249q-6 0 -14.5 5t-15.5 12t-12 14.5t-5 13.5t5 14.5t12 15.5t15.5 12t14.5 5t13.5 -5t14.5 -12t12 -15.5t5 -14.5t-5 -13.5t-12 -14.5t-14.5 -12t-13.5 -5z" />
    <glyph glyph-name="Alpha" unicode="&#x391;" horiz-adv-x="667" 
d="M-100 12h50q16 0 32 1.5t31.5 7.5t29 19t23.5 35q8 18 22.5 51.5t33.5 76t40 91t42 96.5q49 113 106 244q-5 15 -23 27q-16 11 -47.5 19t-88.5 8h-135l20 12h317l264 -629q14 -32 39 -45.5t57 -13.5h54l20 -12h-439l19 12h83q33 0 50.5 5t21 21t-5 46.5t-28.5 81.5
q-7 20 -16.5 30.5t-21.5 15t-26 5.5t-31 1h-176q-24 0 -39 -1.5t-26 -8t-19.5 -19.5t-18.5 -36q-21 -46 -30 -74t-4.5 -43t23.5 -19.5t55 -4.5h81l20 -12h-379zM393 230q38 0 47 18t-6 60l-118 310l-139 -320q-9 -21 -12 -34.5t1 -21t16.5 -10t34.5 -2.5h176z" />
    <glyph glyph-name="Beta" unicode="&#x392;" horiz-adv-x="661" 
d="M11 12h49q29 0 45.5 6.5t24 20t9 35t1.5 52.5v471q0 24 -1.5 41.5t-9.5 28.5t-25 16t-49 5h-65l20 12h298q47 0 93.5 -5t83 -21.5t59.5 -47.5t23 -84q0 -26 -7 -47t-19 -36.5t-27 -27.5t-31 -20q-38 -20 -85 -27l-10 -4q67 -3 119 -24q23 -9 44 -23t38 -34t27 -47t10 -63
q0 -67 -31.5 -105t-80 -56.5t-107 -23t-111.5 -4.5h-305zM334 13q102 0 154.5 39t52.5 137q0 46 -14.5 77t-38 51.5t-53.5 31.5t-61.5 16.5t-62 6.5t-54.5 1l16 12q64 0 104.5 11.5t64 32.5t32 50t8.5 64q0 27 -9 53t-28.5 46.5t-50 33t-74.5 12.5q-39 0 -60.5 -5t-31.5 -16
t-11.5 -28.5t-1.5 -41.5v-472q0 -61 26 -86.5t93 -25.5z" />
    <glyph glyph-name="Gamma" unicode="&#x393;" horiz-adv-x="546" 
d="M9 12h51q29 0 45.5 6.5t24 20t9 35t1.5 52.5v471q0 24 -1.5 41.5t-9.5 28.5t-25 16t-49 5h-64l19 12h416q47 0 84.5 4.5t53.5 12.5l2 -5q-28 -29 -33.5 -86.5t-5.5 -145.5l-12 17q0 25 -1.5 58t-11 62.5t-29.5 50t-57 20.5h-131q-26 0 -40.5 -5t-21 -16t-7.5 -28.5
t-1 -41.5v-472q0 -30 1.5 -51.5t8.5 -35t22.5 -20t42.5 -6.5h56l10 -12h-366z" />
    <glyph glyph-name="uni0394" unicode="&#x394;" horiz-adv-x="667" 
d="M291 720l336 -720h-677zM422 12q50 0 66 20t-6 71q-11 26 -26.5 62t-33.5 77t-37.5 84.5t-37.5 85.5q-44 98 -91 205q-48 -100 -92 -193q-19 -40 -39 -82.5t-39.5 -83t-36.5 -77t-31 -65.5q-15 -31 -17 -51t6 -32t25 -16.5t39 -4.5h351z" />
    <glyph glyph-name="Epsilon" unicode="&#x395;" horiz-adv-x="597" 
d="M10 12h50q29 0 45.5 6.5t24 20t9 35t1.5 52.5v471q0 24 -1.5 41.5t-9.5 28.5t-25 16t-49 5h-65l20 12h410q47 0 84.5 4.5t53.5 12.5l5 -8q-28 -29 -37.5 -82.5t-9.5 -141.5l-12 11q0 34 -2 68.5t-10.5 62t-25 44.5t-46.5 17h-135q-26 0 -40.5 -5t-21 -16t-7.5 -28.5
t-1 -41.5v-121q0 -31 1.5 -51t7.5 -31.5t18 -15.5t33 -4h65q28 0 43 5.5t22 19t8 35.5t1 55h12v-267l-12 10q0 23 -1 46t-8 41.5t-22 30.5t-43 12h-65q-21 0 -33 -4t-18 -13.5t-7.5 -24.5t-1.5 -38v-157q0 -30 1.5 -51.5t8.5 -35t22.5 -20t42.5 -6.5q114 0 187 38t120 125
l10 -3l-86 -172h-531z" />
    <glyph glyph-name="Zeta" unicode="&#x396;" horiz-adv-x="700" 
d="M482 589q26 33 35.5 52.5t4.5 30t-22.5 13.5t-46.5 3h-242q-37 0 -57 -22.5t-29 -54t-10.5 -65t-1.5 -55.5l-12 -11q0 88 -7.5 144t-32.5 85l7 8q14 -8 47.5 -12.5t75.5 -4.5h469l-439 -557q-35 -45 -48.5 -71t-7.5 -39.5t31 -17t65 -3.5h146q48 0 83.5 11t64 37.5
t53 71.5t51.5 113l11 -2l-87 -243h-563z" />
    <glyph glyph-name="Eta" unicode="&#x397;" horiz-adv-x="825" 
d="M10 12h50q29 0 45.5 6.5t24 20t9 35t1.5 52.5v471q0 24 -1.5 41.5t-9.5 28.5t-25 16t-49 5h-65l20 12h336l10 -12h-71q-26 0 -40.5 -5t-21 -16t-7.5 -28.5t-1 -41.5v-141q0 -31 1.5 -51t7.5 -31.5t18 -15.5t33 -4h255q28 0 44 4t24 15.5t10 32t2 53.5v138q0 24 -1 41.5
t-8 28.5t-22.5 16t-43.5 5h-66l10 12h336l20 -12h-66q-31 0 -48.5 -5t-25 -16t-9 -28.5t-1.5 -41.5v-472q0 -30 1.5 -51.5t9 -35t24 -20t45.5 -6.5h50l20 -12h-366l10 12h61q26 0 40 6.5t20.5 20t8 35t1.5 52.5v136q0 23 -2 38t-10 24.5t-24 13.5t-44 4h-255q-21 0 -33 -4
t-18 -13.5t-7.5 -24.5t-1.5 -38v-137q0 -30 1.5 -51.5t8.5 -35t22.5 -20t42.5 -6.5h56l10 -12h-366z" />
    <glyph glyph-name="Theta" unicode="&#x398;" horiz-adv-x="814" 
d="M406 -20q-78 0 -145 29.5t-116 80t-77 118t-28 143.5t28 143t77 117.5t116 79.5t145 29t145.5 -29t117 -79.5t77.5 -117.5t28 -143t-28 -143.5t-77.5 -118t-117 -80t-145.5 -29.5zM447 -1q54 0 99.5 23t78.5 64.5t51 98.5t18 125q0 91 -31 163t-80 122t-109 76.5
t-119 26.5q-55 0 -99 -22.5t-74.5 -62t-47 -92.5t-16.5 -114q0 -79 26.5 -152.5t71.5 -130.5t104.5 -91t126.5 -34zM209 434h12q0 -25 2.5 -41.5t11.5 -26t25.5 -13.5t44.5 -4h199q28 0 44.5 4t25.5 13.5t11.5 26t2.5 41.5h12v-190l-12 10q0 19 -2.5 33.5t-11.5 25t-25.5 16
t-44.5 5.5h-199q-28 0 -44.5 -5.5t-25.5 -16t-11.5 -25t-2.5 -33.5l-12 -10v190z" />
    <glyph glyph-name="Iota" unicode="&#x399;" horiz-adv-x="355" 
d="M10 12h50q29 0 45.5 6.5t24 20t9 35t1.5 52.5v471q0 24 -1.5 41.5t-9.5 28.5t-25 16t-49 5h-65l20 12h335l20 -12h-66q-31 0 -48.5 -5t-25 -16t-9 -28.5t-1.5 -41.5v-472q0 -30 1.5 -51.5t9 -35t24 -20t45.5 -6.5h50l20 -12h-375z" />
    <glyph glyph-name="Kappa" unicode="&#x39a;" horiz-adv-x="739" 
d="M10 12h50q29 0 45.5 6.5t24 20t9 35t1.5 52.5v471q0 24 -1.5 41.5t-9.5 28.5t-25 16t-49 5h-65l20 12h326l20 -12h-71q-26 0 -40.5 -5t-21 -16t-7.5 -28.5t-1 -41.5v-320l181 185q67 68 107.5 112t50.5 69.5t-12 35t-80 9.5h-106l20 12h440l20 -12h-65q-33 0 -57.5 -1.5
t-46.5 -8.5t-45.5 -22t-55 -43t-74 -70.5t-103.5 -104.5l226 -322q23 -32 39 -52.5t30.5 -32t30.5 -15.5t38 -4h76l10 -12h-405l10 12h85q29 0 34 15t-21 52l-208 302l-119 -121v-135q0 -30 1.5 -51.5t8.5 -35t22.5 -20t42.5 -6.5h46l10 -12h-356z" />
    <glyph glyph-name="Lambda" unicode="&#x39b;" horiz-adv-x="662" 
d="M450 12q36 0 53 8t13 42t-28.5 102.5t-70.5 189.5l-101 264q-32 -75 -56.5 -131.5t-43.5 -100t-33 -76t-25.5 -59t-22 -50t-21.5 -48.5q-19 -42 -29 -69.5t-7 -43.5t21.5 -22t58.5 -6h81l20 -12h-379l20 12h50q16 0 32 1.5t31.5 7.5t29 19t23.5 35q8 18 29 66t48 110
t56.5 129t54 123.5t40.5 93t16 37.5q-5 15 -24 27q-16 11 -47 19t-87 8h-139l21 12h322l266 -629q14 -32 36 -45.5t60 -13.5h54l10 -12h-444l19 12h93z" />
    <glyph glyph-name="Mu" unicode="&#x39c;" horiz-adv-x="985" 
d="M466 -20q-67 157 -113.5 266.5t-77.5 182t-49 113.5t-28 61t-14.5 24.5t-7.5 4.5q-4 0 -6.5 -4.5t-5.5 -22.5t-6.5 -54.5t-9.5 -100.5l-27 -315q-4 -45 -1.5 -70t14.5 -36.5t35 -14t62 -2.5h86l10 -12h-387l20 12h51q33 0 51 8t28 23.5t13 38.5t6 54l41 467
q2 24 -0.5 40.5t-15 26.5t-37.5 14t-68 4h-76l20 12h277l126 -297q39 -93 61 -144.5t34 -76t17 -29.5t10 -5q4 0 7 2.5t9 14t16 36.5t26.5 70t41 113.5t60.5 167.5l53 148h293l20 -12h-141q-26 0 -42 -3.5t-23.5 -13.5t-8.5 -27.5t2 -46.5l56 -471q11 -63 39 -88.5t83 -25.5
h56l20 -12h-457l10 12h61q26 0 47.5 4.5t36.5 16.5t22 33t2 54l-34 285q-9 80 -15.5 125.5t-11 68t-8 28t-7.5 5.5q-2 0 -5 -2.5t-7.5 -10.5t-11 -24.5t-17.5 -45.5q-29 -81 -80.5 -226t-123.5 -343z" />
    <glyph glyph-name="Nu" unicode="&#x39d;" horiz-adv-x="809" 
d="M404 363q-53 68 -89.5 115.5t-60.5 78t-38 47.5t-21.5 25.5t-11 10t-6.5 1.5q-11 0 -13.5 -17t-3.5 -46l-11 -443q-1 -41 5 -65.5t19.5 -37t35.5 -16.5t53 -4h86l10 -12h-397l20 12h61q22 0 39 4t29 16.5t19 37t8 66.5l12 473q0 19 -2.5 33.5t-15 24.5t-37 15.5
t-67.5 5.5h-67l20 12h270l437 -563v429q0 44 -9 68.5t-26 36.5t-42 14.5t-57 2.5h-41l10 12h297l20 -12h-46q-22 0 -39.5 -2.5t-29.5 -14.5t-18.5 -36t-6.5 -68v-587z" />
    <glyph glyph-name="Xi" unicode="&#x39e;" horiz-adv-x="600" 
d="M51 700h501v-159l-12 10q0 27 -2.5 44t-11.5 27t-25.5 14t-44.5 4h-309q-28 0 -44.5 -3.5t-25.5 -13.5t-11.5 -27.5t-2.5 -44.5l-12 -10v159zM85 446l12 -10q0 -25 2.5 -40t10.5 -22.5t24.5 -10t44.5 -2.5h239q28 0 45 2.5t26.5 10t12.5 22.5t3 40l11 10v-190l-12 10
q0 19 -2.5 33.5t-11.5 25t-25.5 16t-44.5 5.5h-239q-28 0 -44.5 -5.5t-25.5 -16t-11.5 -25t-2.5 -33.5l-12 -10v190zM52 159l12 -10q0 -27 2.5 -44.5t11 -27.5t25 -13.5t44.5 -3.5h309q28 0 44.5 4t25.5 14t11.5 27t2.5 44l12 10v-159h-500v159z" />
    <glyph glyph-name="Omicron" unicode="&#x39f;" horiz-adv-x="814" 
d="M406 -20q-78 0 -145 29.5t-116 80t-77 118t-28 143.5t28 143t77 117.5t116 79.5t145 29t145.5 -29t117 -79.5t77.5 -117.5t28 -143t-28 -143.5t-77.5 -118t-117 -80t-145.5 -29.5zM447 -1q54 0 99.5 23t78.5 64.5t51 98.5t18 125q0 91 -31 163t-80 122t-109 76.5
t-119 26.5q-55 0 -99 -22.5t-74.5 -62t-47 -92.5t-16.5 -114q0 -79 26.5 -152.5t71.5 -130.5t104.5 -91t126.5 -34z" />
    <glyph glyph-name="Pi" unicode="&#x3a0;" horiz-adv-x="827" 
d="M10 12h61q26 0 40 6.5t20.5 20t8 35t1.5 52.5v471q0 24 -1 41.5t-8 28.5t-22.5 16t-43.5 5h-76l20 12h807l20 -12h-81q-26 0 -40.5 -5t-21 -16t-7.5 -28.5t-1 -41.5v-472q0 -30 1.5 -51.5t8.5 -35t22.5 -20t42.5 -6.5h56l20 -12h-367l10 12h61q26 0 40 6.5t20.5 20t8 35
t1.5 52.5v471q0 24 -1 41.5t-8 28.5t-22.5 16t-43.5 5h-250q-26 0 -40.5 -5t-21 -16t-7.5 -28.5t-1 -41.5v-472q0 -30 1.5 -51.5t8.5 -35t22.5 -20t42.5 -6.5h56l10 -12h-367z" />
    <glyph glyph-name="Rho" unicode="&#x3a1;" horiz-adv-x="585" 
d="M11 12h49q29 0 45.5 6.5t24 20t9 35t1.5 52.5v471q0 24 -1.5 41.5t-9.5 28.5t-25 16t-49 5h-65l20 12h350q30 0 64.5 -6t63.5 -24t48 -50t19 -84t-19.5 -90t-51.5 -62.5t-72 -36.5t-81 -12q-36 0 -56 3q-12 1 -20 2v12q7 -1 16 -2q17 -3 40 -3q29 0 58.5 8t53 27.5
t38.5 53.5t15 86t-20 84.5t-47 50.5t-55.5 24.5t-45.5 6.5q-32 0 -50.5 -2.5t-28 -14.5t-12 -36t-2.5 -68v-442q0 -30 1.5 -51.5t8.5 -35t22.5 -20t42.5 -6.5h56l20 -12h-375z" />
    <glyph glyph-name="Sigma" unicode="&#x3a3;" horiz-adv-x="613" 
d="M319 361l-309 339h457q42 0 75.5 4.5t47.5 12.5l2 -5q-25 -29 -30 -86.5t-5 -145.5l-12 14q0 29 -1.5 63t-10.5 63t-29 48.5t-57 19.5h-183q-39 0 -66.5 -1.5t-40 -8t-8.5 -20.5t28 -40l199 -213l-230 -251q-19 -21 -20 -36.5t12 -25t38 -14.5t58 -5h125q51 0 87 2.5
t64 19t52 51.5t49 99l12 -2l-87 -243h-546z" />
    <glyph glyph-name="Tau" unicode="&#x3a4;" horiz-adv-x="637" 
d="M147 12h61q26 0 40 6.5t20.5 20t8 35t1.5 52.5v471q0 24 -1 41.5t-8 28.5t-22.5 16t-43.5 5h-80q-34 0 -52 -22t-26.5 -53t-10 -64t-1.5 -55l-12 -4q0 81 -6.5 135.5t-34.5 83.5l5 8q16 -8 53.5 -12.5t84.5 -4.5h391q47 0 84.5 4.5t53.5 12.5l5 -8q-28 -29 -35 -83.5
t-7 -135.5l-12 4q0 22 -1.5 55t-10 64t-26.5 53t-51 22h-91q-26 0 -40.5 -5t-21 -16t-7.5 -28.5t-1 -41.5v-472q0 -30 1.5 -51.5t8.5 -35t22.5 -20t42.5 -6.5h56l20 -12h-377z" />
    <glyph glyph-name="Upsilon" unicode="&#x3a5;" horiz-adv-x="709" 
d="M146 12h101q26 0 40 6.5t20.5 20t8 35t1.5 52.5q0 137 -8 241.5t-27.5 175t-51 106.5t-78.5 36q-45 0 -72.5 -22.5t-42.5 -49.5q-18 -32 -25 -73h-12q0 16 10 45.5t30.5 59t51.5 51t73 21.5t72.5 -20t53 -54.5t38 -79.5t27.5 -96q13 51 29 96t38.5 79.5t52 54.5t68.5 20
q42 0 73 -21.5t51.5 -51t30.5 -59t10 -45.5h-12q-7 41 -25 73q-15 27 -42.5 49.5t-72.5 22.5q-47 0 -79 -36t-51 -107t-27 -175.5t-8 -241.5q0 -30 1.5 -51.5t8.5 -35t22.5 -20t42.5 -6.5h116l20 -12h-477z" />
    <glyph glyph-name="Phi" unicode="&#x3a6;" horiz-adv-x="761" 
d="M209 12h61q44 0 56.5 19.5t13.5 64.5q-67 5 -122 27.5t-94.5 57t-61.5 79.5t-22 94q0 50 22 94t61.5 78.5t94.5 56.5t122 27q0 21 -2 36t-9.5 24t-22.5 13.5t-41 4.5h-76l20 12h337l20 -12h-81q-24 0 -38 -4.5t-21 -13.5t-9 -23.5t-2 -35.5q68 -5 124 -27t96.5 -56.5
t63 -79t22.5 -94.5t-22.5 -94.5t-63 -79.5t-96.5 -57.5t-124 -27.5q1 -22 4 -38t11 -26t22 -14.5t38 -4.5h56l20 -12h-377zM340 585q-80 2 -126 -16.5t-69 -47t-29 -60.5t-7 -58q-1 -41 13.5 -85t43.5 -83t73 -69.5t101 -44.5v464zM415 112q43 -1 84 10.5t74 36.5t53.5 64
t22.5 93t-17.5 97.5t-52.5 76t-76 54.5t-88 32v-464z" />
    <glyph glyph-name="Chi" unicode="&#x3a7;" horiz-adv-x="676" 
d="M-100 12h71q22 0 39 3.5t32 12t29.5 22t29.5 32.5l206 260l-159 248q-20 31 -35 50t-30.5 29.5t-35 14.5t-48.5 4h-65l20 12h407l20 -12h-121q-20 0 -34.5 -1t-20.5 -6t-3.5 -16.5t15.5 -32.5l127 -201q6 -9 8.5 -11.5t4.5 -2.5q3 0 5 2.5l10 12.5l145 192q14 19 19.5 31
t-3 19.5t-32.5 10.5t-69 3h-51l20 12h312l20 -12h-81q-21 0 -37 -3t-29.5 -11.5t-27 -22.5t-30.5 -35l-163 -213l189 -292q18 -27 31.5 -46t26.5 -30.5t27 -17t31 -5.5h96l10 -12h-539l20 12h183q20 0 34.5 1t20.5 6t4 16t-15 32l-135 216q-17 26 -23 34.5t-11 8.5
q-4 0 -10.5 -7.5t-28.5 -35.5l-163 -208q-15 -19 -20 -31.5t4 -19.5t34 -9.5t70 -2.5h15l21 -12h-357z" />
    <glyph glyph-name="Psi" unicode="&#x3a8;" horiz-adv-x="650" 
d="M159 12h61q26 0 40 6.5t20.5 20t8 35t1.5 52.5v144q0 11 -2 19.5t-10 14t-24 8.5t-44 3q-49 0 -78.5 19.5t-45 49.5t-20.5 66t-5 68q0 33 -1.5 63.5t-10 54t-27 38t-51.5 14.5h-46l20 12h27q60 0 93 -15.5t48.5 -41.5t19 -59.5t3.5 -68.5q0 -31 1.5 -64.5t9.5 -61t25 -45
t49 -17.5q24 0 37.5 1t20.5 6t9 16t2 31v216q0 24 -1 41.5t-8 28.5t-22.5 16t-43.5 5h-76l20 12h337l20 -12h-81q-26 0 -40.5 -5t-21 -16t-7.5 -28.5t-1 -41.5v-216q0 -20 2 -31t9 -16t20.5 -6t37.5 -1q32 0 49 17.5t25 45t9.5 61t1.5 64.5q0 35 2.5 68.5t17.5 59.5t47 41.5
t92 15.5h27l20 -12h-46q-33 0 -51.5 -14.5t-27 -38t-10 -54t-1.5 -63.5q0 -32 -4 -68t-19 -66t-43.5 -49.5t-77.5 -19.5q-28 0 -44 -3t-24 -8.5t-10 -14t-2 -19.5v-145q0 -30 1.5 -51.5t8.5 -35t22.5 -20t42.5 -6.5h56l20 -12h-377z" />
    <glyph glyph-name="uni03A9" unicode="&#x3a9;" horiz-adv-x="832" 
d="M10 243l11 2q23 -58 41.5 -92.5t38.5 -52t44.5 -22.5t59.5 -5q36 0 57 1.5t32 7t14 17t3 32.5q-65 29 -115 69q-22 18 -42.5 39.5t-37 47.5t-26.5 56.5t-10 65.5q0 68 26.5 125.5t71 98.5t103 64t122.5 23q67 0 126 -22.5t103 -64t69.5 -98.5t25.5 -126q0 -33 -8.5 -62
t-22 -55t-31.5 -48t-36 -40q-43 -42 -98 -73q0 -22 6 -33.5t18.5 -17t32 -6.5t46.5 -1q33 0 56 5t42 22.5t37.5 52t41.5 92.5l11 -2l-87 -243h-215v131q35 45 62 95q23 44 42.5 99t19.5 115q0 41 -16 87.5t-46.5 87t-75.5 67t-103 26.5q-57 0 -102 -26.5t-76 -67t-47.5 -87
t-16.5 -87.5q0 -63 25 -119t56 -98q35 -50 80 -92v-131h-225z" />
    <glyph glyph-name="Iotadieresis" unicode="&#x3aa;" horiz-adv-x="355" 
d="M75 770q-6 0 -13 4t-13.5 10t-10.5 13t-4 12q0 6 4 13.5t10.5 14t13.5 10.5t13 4t13 -4t13 -10.5t10 -14t4 -13.5q0 -5 -4 -12t-10 -13t-13 -10t-13 -4zM276 770q-6 0 -13 4t-13.5 10t-10.5 13t-4 12q0 6 4 13.5t10.5 14t13.5 10.5t13 4t13 -4t13 -10.5t10 -14t4 -13.5
q0 -5 -4 -12t-10 -13t-13 -10t-13 -4zM10 12h50q29 0 45.5 6.5t24 20t9 35t1.5 52.5v471q0 24 -1.5 41.5t-9.5 28.5t-25 16t-49 5h-65l20 12h335l20 -12h-66q-31 0 -48.5 -5t-25 -16t-9 -28.5t-1.5 -41.5v-472q0 -30 1.5 -51.5t9 -35t24 -20t45.5 -6.5h50l20 -12h-375z" />
    <glyph glyph-name="Upsilondieresis" unicode="&#x3ab;" horiz-adv-x="709" 
d="M256 770q-6 0 -13 4t-13.5 10t-10.5 13t-4 12q0 6 4 13.5t10.5 14t13.5 10.5t13 4t13 -4t13 -10.5t10 -14t4 -13.5q0 -5 -4 -12t-10 -13t-13 -10t-13 -4zM457 770q-6 0 -13 4t-13.5 10t-10.5 13t-4 12q0 6 4 13.5t10.5 14t13.5 10.5t13 4t13 -4t13 -10.5t10 -14t4 -13.5
q0 -5 -4 -12t-10 -13t-13 -10t-13 -4zM146 12h101q26 0 40 6.5t20.5 20t8 35t1.5 52.5q0 137 -8 241.5t-27.5 175t-51 106.5t-78.5 36q-45 0 -72.5 -22.5t-42.5 -49.5q-18 -32 -25 -73h-12q0 16 10 45.5t30.5 59t51.5 51t73 21.5t72.5 -20t53 -54.5t38 -79.5t27.5 -96
q13 51 29 96t38.5 79.5t52 54.5t68.5 20q42 0 73 -21.5t51.5 -51t30.5 -59t10 -45.5h-12q-7 41 -25 73q-15 27 -42.5 49.5t-72.5 22.5q-47 0 -79 -36t-51 -107t-27 -175.5t-8 -241.5q0 -30 1.5 -51.5t8.5 -35t22.5 -20t42.5 -6.5h116l20 -12h-477z" />
    <glyph glyph-name="uni03BC" unicode="&#x3bc;" horiz-adv-x="579" 
d="M415 0v138q-2 -9 -10.5 -35t-28.5 -53.5t-53.5 -48.5t-85.5 -21q-50 0 -81 20v-76q0 -26 2 -42t8 -25t18 -12t31 -3h28l20 -12h-167v297q-1 9 -1 18.5v17.5v211q0 38 -2.5 59t-15 31t-37.5 12t-70 2l20 12h170v-321q0 -28 4 -56t16 -50.5t34.5 -36.5t59.5 -14q31 0 57 17
t44.5 45t28.5 63.5t10 71.5v179q0 33 -5.5 51t-24 26.5t-54.5 10.5t-97 2l21 12h230v-425q0 -19 5 -29.5t14 -15.5t21 -6.5t25 -1.5h40l20 -12h-194z" />
    <glyph glyph-name="uni03CF" unicode="&#x3cf;" horiz-adv-x="727" 
d="M334 -168q42 0 87 10.5t82 31.5t61 52.5t24 73.5l-263 381l-119 -121v-135q0 -30 1.5 -51.5t8.5 -35t22.5 -20t42.5 -6.5h46l20 -12h-357l20 12h51q26 0 40 6.5t20.5 20t8 35t1.5 52.5v471q0 24 -1 41.5t-8 28.5t-22.5 16t-43.5 5h-66l20 12h317l20 -12h-71
q-26 0 -40.5 -5t-21 -16t-7.5 -28.5t-1 -41.5v-320l181 185q67 68 105.5 112t47.5 69.5t-12.5 35t-74.5 9.5h-106l20 12h440l20 -12h-65q-33 0 -57.5 -1.5t-47 -9t-46 -23t-55 -43t-74 -70t-102.5 -103.5l306 -438l-212 -180h-160z" />
    <glyph glyph-name="Wgrave" unicode="&#x1e80;" horiz-adv-x="1014" 
d="M362 820l13 19l356 -53v-12zM83 604q-8 18 -16.5 33t-19.5 26.5t-25.5 18t-35.5 6.5h-106l10 12h1234l10 -12h-81q-25 0 -42 -4t-28 -12t-18 -19t-12 -26l-238 -647l-178 447l-178 -447zM393 128q4 0 7 2t6.5 8.5t9 18.5t13.5 32l101 253l-69 162q-7 18 -15.5 33
t-20 26.5t-26 18t-35.5 6.5h-151q-23 0 -37 -2.5t-19.5 -10t-3.5 -19.5t10 -32l90 -212q42 -98 66.5 -155t39 -85.5t21.5 -36t13 -7.5zM616 644q10 25 1 34.5t-43 9.5q-33 0 -42.5 -10t-0.5 -32l44 -105zM748 128q3 0 5.5 2t5.5 8t8 18t12 33l160 436q9 24 8 36.5t-13 18.5
t-36.5 7t-64.5 1h-111q-28 0 -45 -4t-30.5 -20.5t-28 -49t-37.5 -89.5q37 -96 63 -163t43.5 -111.5t28 -69t17 -36.5t9.5 -14.5t6 -2.5z" />
    <glyph glyph-name="wgrave" unicode="&#x1e81;" horiz-adv-x="758" 
d="M828 478h-45q-20 0 -34 -1.5t-24.5 -7t-17.5 -16.5t-14 -31l-151 -445l-154 402l-137 -402l-197 456q-12 27 -26.5 36t-47.5 9h-40l22 12h245l32 -12h-53q-13 0 -26 -1.5t-22 -6t-12 -13.5t4 -24l147 -342l104 306l-14 36q-5 14 -10 22.5t-12.5 13.5t-19 7t-28.5 2h-58
l32 12h252l32 -12h-61q-36 0 -52.5 -7.5t-5.5 -37.5l132 -342l112 331q7 21 5.5 32.5t-9.5 16.5t-21 6t-28 1h-72l31 12h222zM566 560l-331 82l18 18l313 -87v-13z" />
    <glyph glyph-name="Wacute" unicode="&#x1e82;" horiz-adv-x="1014" 
d="M371 786l356 53l13 -19l-369 -46v12zM83 604q-8 18 -16.5 33t-19.5 26.5t-25.5 18t-35.5 6.5h-106l10 12h1234l10 -12h-81q-25 0 -42 -4t-28 -12t-18 -19t-12 -26l-238 -647l-178 447l-178 -447zM393 128q4 0 7 2t6.5 8.5t9 18.5t13.5 32l101 253l-69 162q-7 18 -15.5 33
t-20 26.5t-26 18t-35.5 6.5h-151q-23 0 -37 -2.5t-19.5 -10t-3.5 -19.5t10 -32l90 -212q42 -98 66.5 -155t39 -85.5t21.5 -36t13 -7.5zM616 644q10 25 1 34.5t-43 9.5q-33 0 -42.5 -10t-0.5 -32l44 -105zM748 128q3 0 5.5 2t5.5 8t8 18t12 33l160 436q9 24 8 36.5t-13 18.5
t-36.5 7t-64.5 1h-111q-28 0 -45 -4t-30.5 -20.5t-28 -49t-37.5 -89.5q37 -96 63 -163t43.5 -111.5t28 -69t17 -36.5t9.5 -14.5t6 -2.5z" />
    <glyph glyph-name="wacute" unicode="&#x1e83;" horiz-adv-x="758" 
d="M828 478h-45q-20 0 -34 -1.5t-24.5 -7t-17.5 -16.5t-14 -31l-151 -445l-154 402l-137 -402l-197 456q-12 27 -26.5 36t-47.5 9h-40l22 12h245l32 -12h-53q-13 0 -26 -1.5t-22 -6t-12 -13.5t4 -24l147 -342l104 306l-14 36q-5 14 -10 22.5t-12.5 13.5t-19 7t-28.5 2h-58
l32 12h252l32 -12h-61q-36 0 -52.5 -7.5t-5.5 -37.5l132 -342l112 331q7 21 5.5 32.5t-9.5 16.5t-21 6t-28 1h-72l31 12h222zM567 642l-331 -82v13l313 87z" />
    <glyph glyph-name="Wdieresis" unicode="&#x1e84;" horiz-adv-x="1014" 
d="M450 770q-6 0 -13 4t-13.5 10t-10.5 13t-4 12q0 6 4 13.5t10.5 14t13.5 10.5t13 4t13 -4t13 -10.5t10 -14t4 -13.5q0 -5 -4 -12t-10 -13t-13 -10t-13 -4zM651 770q-6 0 -13 4t-13.5 10t-10.5 13t-4 12q0 6 4 13.5t10.5 14t13.5 10.5t13 4t13 -4t13 -10.5t10 -14t4 -13.5
q0 -5 -4 -12t-10 -13t-13 -10t-13 -4zM83 604q-8 18 -16.5 33t-19.5 26.5t-25.5 18t-35.5 6.5h-106l10 12h1234l10 -12h-81q-25 0 -42 -4t-28 -12t-18 -19t-12 -26l-238 -647l-178 447l-178 -447zM393 128q4 0 7 2t6.5 8.5t9 18.5t13.5 32l101 253l-69 162q-7 18 -15.5 33
t-20 26.5t-26 18t-35.5 6.5h-151q-23 0 -37 -2.5t-19.5 -10t-3.5 -19.5t10 -32l90 -212q42 -98 66.5 -155t39 -85.5t21.5 -36t13 -7.5zM616 644q10 25 1 34.5t-43 9.5q-33 0 -42.5 -10t-0.5 -32l44 -105zM748 128q3 0 5.5 2t5.5 8t8 18t12 33l160 436q9 24 8 36.5t-13 18.5
t-36.5 7t-64.5 1h-111q-28 0 -45 -4t-30.5 -20.5t-28 -49t-37.5 -89.5q37 -96 63 -163t43.5 -111.5t28 -69t17 -36.5t9.5 -14.5t6 -2.5z" />
    <glyph glyph-name="wdieresis" unicode="&#x1e85;" horiz-adv-x="758" 
d="M828 478h-45q-20 0 -34 -1.5t-24.5 -7t-17.5 -16.5t-14 -31l-151 -445l-154 402l-137 -402l-197 456q-12 27 -26.5 36t-47.5 9h-40l22 12h245l32 -12h-53q-13 0 -26 -1.5t-22 -6t-12 -13.5t4 -24l147 -342l104 306l-14 36q-5 14 -10 22.5t-12.5 13.5t-19 7t-28.5 2h-58
l32 12h252l32 -12h-61q-36 0 -52.5 -7.5t-5.5 -37.5l132 -342l112 331q7 21 5.5 32.5t-9.5 16.5t-21 6t-28 1h-72l31 12h222zM487 582q-6 0 -14 4.5t-14.5 11t-11 13.5t-4.5 13q0 7 4.5 15t11 15t14.5 11.5t14 4.5t13.5 -4.5t14 -11.5t11 -15t4.5 -15q0 -6 -4.5 -13
t-11 -13.5t-14 -11t-13.5 -4.5zM316 582q-6 0 -14 4.5t-14.5 11t-11 13.5t-4.5 13q0 7 4.5 15t11 15t14.5 11.5t14 4.5t13.5 -4.5t14 -11.5t11 -15t4.5 -15q0 -6 -4.5 -13t-11 -13.5t-14 -11t-13.5 -4.5z" />
    <glyph glyph-name="Germandbls" unicode="&#x1e9e;" horiz-adv-x="757" 
d="M502 -20q-39 0 -75.5 13t-65 29.5t-46.5 31t-18 17.5l-14 219l12 10q2 -53 11.5 -107.5t32 -99t62.5 -73t103 -28.5q38 0 64 13.5t42.5 34t24 44.5t7.5 45q0 47 -20.5 79t-50.5 56t-66 42t-66 36t-50.5 39t-20.5 51t15 53t37.5 41t49 33t49.5 29t38 29.5t16 33.5
q0 15 -9 23t-24.5 11t-37 3h-46.5q-29 0 -70.5 -8t-79 -29t-64 -57.5t-26.5 -93.5v-375q0 -30 1 -51.5t6.5 -35t16.5 -20t31 -6.5h26l20 -12h-327l20 12h61q26 0 40 6.5t20.5 20t8 35t1.5 52.5v374q0 98 81.5 149t232.5 51h226q-20 -30 -48.5 -53.5t-59.5 -43t-61 -37
t-54 -35.5t-39 -37.5t-15 -43.5q0 -29 23.5 -49t59 -37t76.5 -34t76.5 -39.5t59 -54t23.5 -77.5q0 -51 -20 -85.5t-52 -55.5t-71 -29.5t-77 -8.5z" />
    <glyph glyph-name="uni1EA0" unicode="&#x1ea0;" horiz-adv-x="667" 
d="M-100 12h50q16 0 32 1.5t31.5 7.5t29 19t23.5 35q8 18 22.5 51.5t33.5 76t40 91t42 96.5q49 113 106 244q-5 15 -23 27q-16 11 -47.5 19t-88.5 8h-135l20 12h317l264 -629q14 -32 39 -45.5t57 -13.5h54l20 -12h-439l19 12h83q33 0 50.5 5t21 21t-5 46.5t-28.5 81.5
q-7 20 -16.5 30.5t-21.5 15t-26 5.5t-31 1h-176q-24 0 -39 -1.5t-26 -8t-19.5 -19.5t-18.5 -36q-21 -46 -30 -74t-4.5 -43t23.5 -19.5t55 -4.5h81l20 -12h-379zM393 230q38 0 47 18t-6 60l-118 310l-139 -320q-9 -21 -12 -34.5t1 -21t16.5 -10t34.5 -2.5h176zM329 -175
q-7 0 -16 5t-16.5 12t-12.5 15t-5 14q0 7 5 16t12.5 17t16.5 13t16 5t15 -5t15 -13t12 -17t5 -16q0 -6 -5 -14t-12 -15t-15 -12t-15 -5z" />
    <glyph glyph-name="uni1EA1" unicode="&#x1ea1;" horiz-adv-x="486" 
d="M152 -20q-51 0 -81.5 25.5t-30.5 70.5q0 31 14.5 53.5t39 39.5t55.5 30t64 26q23 9 43.5 19t36 22.5t25 26.5t9.5 30t-1.5 44t-10 55.5t-27 47.5t-52.5 20q-27 0 -49 -13.5t-37 -39t-21 -60.5t0 -79l-12 -5l-48 141q19 19 46 34q23 13 56.5 23.5t78.5 10.5
q55 0 84.5 -17.5t43 -46.5t16 -65.5t2.5 -74.5v-219q0 -40 15 -53.5t49 -13.5h41l20 -12h-195v105q-16 -35 -40 -62q-21 -24 -53.5 -43.5t-80.5 -19.5zM191 13q35 0 60 17.5t42 41t25 46t8 32.5v136q-6 -12 -17 -22.5t-26 -19.5t-32 -16.5t-34 -14.5q-21 -9 -40 -17t-33 -20
t-22.5 -29.5t-8.5 -44.5q0 -17 4 -33t13 -28.5t24 -20t37 -7.5zM245 -173q-7 0 -16 5t-16.5 12t-12.5 15t-5 14q0 7 5 16t12.5 17t16.5 13t16 5t15 -5t15 -13t12 -17t5 -16q0 -6 -5 -14t-12 -15t-15 -12t-15 -5z" />
    <glyph glyph-name="uni1EA2" unicode="&#x1ea2;" horiz-adv-x="667" 
d="M-100 12h50q16 0 32 1.5t31.5 7.5t29 19t23.5 35q8 18 22.5 51.5t33.5 76t40 91t42 96.5q49 113 106 244q-5 15 -23 27q-16 11 -47.5 19t-88.5 8h-135l20 12h317l264 -629q14 -32 39 -45.5t57 -13.5h54l20 -12h-439l19 12h83q33 0 50.5 5t21 21t-5 46.5t-28.5 81.5
q-7 20 -16.5 30.5t-21.5 15t-26 5.5t-31 1h-176q-24 0 -39 -1.5t-26 -8t-19.5 -19.5t-18.5 -36q-21 -46 -30 -74t-4.5 -43t23.5 -19.5t55 -4.5h81l20 -12h-379zM393 230q38 0 47 18t-6 60l-118 310l-139 -320q-9 -21 -12 -34.5t1 -21t16.5 -10t34.5 -2.5h176zM295 784
q21 8 38 23t28 34.5t14 42.5t-5 46q-10 27 -30 45t-46 18q-9 0 -21.5 -3t-20.5 -8l-4 5q33 25 75 25q29 0 54 -15t36 -47q12 -33 4 -61t-26.5 -49.5t-44 -37.5t-49.5 -27z" />
    <glyph glyph-name="uni1EA3" unicode="&#x1ea3;" horiz-adv-x="486" 
d="M152 -20q-51 0 -81.5 25.5t-30.5 70.5q0 31 14.5 53.5t39 39.5t55.5 30t64 26q23 9 43.5 19t36 22.5t25 26.5t9.5 30t-1.5 44t-10 55.5t-27 47.5t-52.5 20q-27 0 -49 -13.5t-37 -39t-21 -60.5t0 -79l-12 -5l-48 141q19 19 46 34q23 13 56.5 23.5t78.5 10.5
q55 0 84.5 -17.5t43 -46.5t16 -65.5t2.5 -74.5v-219q0 -40 15 -53.5t49 -13.5h41l20 -12h-195v105q-16 -35 -40 -62q-21 -24 -53.5 -43.5t-80.5 -19.5zM191 13q35 0 60 17.5t42 41t25 46t8 32.5v136q-6 -12 -17 -22.5t-26 -19.5t-32 -16.5t-34 -14.5q-21 -9 -40 -17t-33 -20
t-22.5 -29.5t-8.5 -44.5q0 -17 4 -33t13 -28.5t24 -20t37 -7.5zM212 553q17 7 31.5 19.5t24 29t12 35.5t-4.5 39q-8 23 -25 38t-40 15q-8 0 -17.5 -2.5t-16.5 -6.5l-3 3q28 22 63 22q24 0 45 -12.5t30 -40.5q10 -28 3.5 -51t-22 -41t-37 -31.5t-41.5 -22.5z" />
    <glyph glyph-name="uni1EA4" unicode="&#x1ea4;" horiz-adv-x="667" 
d="M323 893l211 -125h-40l-171 111l-173 -111h-40zM-100 12h50q16 0 32 1.5t31.5 7.5t29 19t23.5 35q8 18 22.5 51.5t33.5 76t40 91t42 96.5q49 113 106 244q-5 15 -23 27q-16 11 -47.5 19t-88.5 8h-135l20 12h317l264 -629q14 -32 39 -45.5t57 -13.5h54l20 -12h-439l19 12
h83q33 0 50.5 5t21 21t-5 46.5t-28.5 81.5q-7 20 -16.5 30.5t-21.5 15t-26 5.5t-31 1h-176q-24 0 -39 -1.5t-26 -8t-19.5 -19.5t-18.5 -36q-21 -46 -30 -74t-4.5 -43t23.5 -19.5t55 -4.5h81l20 -12h-379zM393 230q38 0 47 18t-6 60l-118 310l-139 -320q-9 -21 -12 -34.5
t1 -21t16.5 -10t34.5 -2.5h176zM445 892l292 80l17 -17l-309 -75v12z" />
    <glyph glyph-name="uni1EA5" unicode="&#x1ea5;" horiz-adv-x="486" 
d="M240 669l172 -111h-39l-133 94l-134 -94h-41zM152 -20q-51 0 -81.5 25.5t-30.5 70.5q0 31 14.5 53.5t39 39.5t55.5 30t64 26q23 9 43.5 19t36 22.5t25 26.5t9.5 30t-1.5 44t-10 55.5t-27 47.5t-52.5 20q-27 0 -49 -13.5t-37 -39t-21 -60.5t0 -79l-12 -5l-48 141
q19 19 46 34q23 13 56.5 23.5t78.5 10.5q55 0 84.5 -17.5t43 -46.5t16 -65.5t2.5 -74.5v-219q0 -40 15 -53.5t49 -13.5h41l20 -12h-195v105q-16 -35 -40 -62q-21 -24 -53.5 -43.5t-80.5 -19.5zM191 13q35 0 60 17.5t42 41t25 46t8 32.5v136q-6 -12 -17 -22.5t-26 -19.5
t-32 -16.5t-34 -14.5q-21 -9 -40 -17t-33 -20t-22.5 -29.5t-8.5 -44.5q0 -17 4 -33t13 -28.5t24 -20t37 -7.5zM360 675l292 80l17 -17l-309 -75v12z" />
    <glyph glyph-name="uni1EA6" unicode="&#x1ea6;" horiz-adv-x="667" 
d="M323 893l211 -125h-40l-171 111l-173 -111h-40zM-100 12h50q16 0 32 1.5t31.5 7.5t29 19t23.5 35q8 18 22.5 51.5t33.5 76t40 91t42 96.5q49 113 106 244q-5 15 -23 27q-16 11 -47.5 19t-88.5 8h-135l20 12h317l264 -629q14 -32 39 -45.5t57 -13.5h54l20 -12h-439l19 12
h83q33 0 50.5 5t21 21t-5 46.5t-28.5 81.5q-7 20 -16.5 30.5t-21.5 15t-26 5.5t-31 1h-176q-24 0 -39 -1.5t-26 -8t-19.5 -19.5t-18.5 -36q-21 -46 -30 -74t-4.5 -43t23.5 -19.5t55 -4.5h81l20 -12h-379zM393 230q38 0 47 18t-6 60l-118 310l-139 -320q-9 -21 -12 -34.5
t1 -21t16.5 -10t34.5 -2.5h176zM222 968l17 17l292 -80v-12z" />
    </font>
</defs>
</svg>
