<?xml version="1.0" standalone="no"?>
<!DOCTYPE svg PUBLIC "-//W3C//DTD SVG 1.1//EN" "http://www.w3.org/Graphics/SVG/1.1/DTD/svg11.dtd" >
<svg xmlns="http://www.w3.org/2000/svg" xmlns:xlink="http://www.w3.org/1999/xlink" version="1.1">
<metadata>
Created by FontForge 20201107 at Sat Mar 30 03:53:58 2024
 By 
Typeface (c) ARToni. 2021. All Rights Reserved
</metadata>
<defs>
<font id="KDHidayatullah" horiz-adv-x="1173" >
  <font-face 
    font-family="KD Hidayatullah"
    font-weight="400"
    font-stretch="normal"
    units-per-em="2048"
    panose-1="2 0 0 0 0 0 0 0 0 0"
    ascent="1638"
    descent="-410"
    x-height="1225"
    cap-height="1753"
    bbox="-984 -1019 5202 2800"
    underline-thickness="150"
    underline-position="-292"
    unicode-range="U+000D-E132"
  />
<missing-glyph horiz-adv-x="1024" 
 />
    <glyph glyph-name="eth" unicode="&#x111;&#x32;" horiz-adv-x="1057" 
d="M529 -13q-76 0 -145.5 26t-126 86t-81.5 126.5t-30.5 137.5t-5.5 146v22q0 113 35.5 194.5t92.5 140t125 101.5q63 35 119.5 55t110.5 20h7l-2 3q-58 91 -102 180q-53 -16 -100 -37q-100 -43 -123 -116l-1 1q-10 17 -10 40q0 49 25.5 88.5t71.5 66.5t104 50
q-10 42 -10 82q0 48 16 93q27 78 97.5 145t182.5 84q-28 -19 -50 -59q-20 -42 -20 -86q0 -67 46 -160q59 24 116 59q88 55 88 123l-1 18q25 -36 28 -81q0 -108 -185 -204q31 -53 70 -113q103 -154 144 -277t43 -308v-18q0 -143 -40.5 -271t-128.5 -218.5t-229 -124.5
q-64 -15 -131 -15zM599 193q40 0 76 34t55 104t19 200v199q0 53 -22 103t-70 74q-30 15 -58 15t-58 -15q-48 -24 -69.5 -74t-21.5 -103v-199q0 -48 3 -101.5t15 -100.5q19 -68 55 -102t76 -34z" />
    <glyph glyph-name="uniE00A" unicode="H&#x34;" horiz-adv-x="1657" 
d="M402 -590q-95 0 -161 37q-27 15 -35.5 27t-10.5 22q106 0 167 22q42 16 86 47.5t78 77.5q82 121 83 384q0 1389 1 1398q-93 -45 -154.5 -105t-81.5 -160q-6 -34 -6 -66q0 -101 60 -182q17 -23 36 -36l3 -2q-12 -13 -26.5 -25t-37.5 -21q-37 -13 -77 -13q-55 0 -106.5 26
t-85.5 77q-34 56 -34 128q0 29 6 59q21 107 108 199q77 77 181 132t207 99l73 33q106 49 163 92q53 41 81 93v-765h44l169 168l168 -168h44v515q0 121 42.5 270t127.5 236q65 60 147 94q106 45 200 45q95 0 161 -37q27 -15 35.5 -26.5t10.5 -22.5q-31 0 -78 -3t-88.5 -19
t-85.5 -47t-79 -78q-38 -54 -55.5 -128t-22.5 -158t-5 -165v-1294q0 -60 -21 -97t-54 -61.5t-73 -46.5q-45 -24 -87.5 -56.5t-74.5 -86.5v1064h-44l-168 -168l-169 168h-44v-830q0 -121 -42 -270.5t-127 -236.5q-65 -59 -147 -94q-107 -45 -201 -45z" />
    <glyph glyph-name="uniE00B" unicode="H&#x33;" horiz-adv-x="1774" 
d="M514 -590q-93 0 -161 37q-41 23 -46 49q105 0 167 22q100 38 164 125q83 122 83 384v1413q-187 -105 -296 -313q-71 -149 -71 -308q0 -112 42 -196q58 -118 194 -118l25 1q-13 -73 -71 -114t-127 -41q-31 0 -60 9q-71 23 -130 76q-127 114 -127 340q0 125 45 248t130 221
q98 108 221 178t238 120q136 59 216 117q53 42 81 94v-766h44l169 168l168 -168h44v515q0 121 42.5 270t127.5 236q65 60 147 95q105 44 200 44q93 0 161 -37q41 -23 46 -49q-109 0 -167 -22q-100 -39 -164 -125q-67 -95 -78 -286q-5 -84 -5 -165v-1294q0 -103 -75 -158
q-33 -25 -73 -47q-45 -24 -87.5 -56.5t-74.5 -86.5v1064h-44l-168 -168l-169 168h-44v-830q0 -121 -42 -270.5t-127 -236.5q-65 -59 -147 -94q-105 -45 -201 -45z" />
    <glyph glyph-name="uniE011" unicode="L&#x31;" horiz-adv-x="1033" 
d="M-50 -306q71 176 222 222q52 17 117 17q26 0 53 -3q60 -5 155 -37.5t219 -76.5q3 27 4 54v1730q-66 -37 -142 -105q-84 -74 -154 -208q-32 -67 -51.5 -147.5t-19.5 -160.5q0 -113 42 -197q59 -117 194 -117l25 1q-13 -73 -71 -114t-127 -41q-31 0 -60 9q-71 23 -130 76
t-88 124q-39 103 -39 215q0 125 45.5 248.5t130.5 221.5q98 108 220.5 178t238.5 120q135 59 215 117q53 42 81 94v-1821q0 -187 -119 -388q508 -240 655 -245q70 0 126 17t94.5 40.5t58.5 47.5q16 19 34 49q-4 -62 -37 -135q-54 -102 -166 -164q-117 -65 -256 -66
q-100 0 -200.5 28.5t-245 89.5t-241.5 114l-284 143q-70 35 -125 59.5t-97 39.5t-74 22t-58 7q-43 0 -75 -16.5t-70 -41.5z" />
    <glyph glyph-name="uniE014" unicode="H&#x31;" horiz-adv-x="1719" 
d="M1922 -590q-93 0 -200 45q-82 35 -147 94q-85 87 -127 236.5t-42 270.5v830h-45l-168 -168l-169 168h-44v-395q0 -538 -595 -735q-96 -33 -216 -33q-47 0 -93 7q-112 21 -169 85t-57 148q0 55 25.5 113t77.5 112q23 24 48 48l41 40q-37 -50 -37 -94q0 -53 43 -93.5
t106 -64.5t127 -28l42 -1q123 0 199 25q68 23 100 55t40.5 76.5t8.5 104.5v26l-1 -1q0 1135 1 1144q-93 -45 -154.5 -105t-81.5 -160q-6 -34 -6 -66q0 -101 61 -182q12 -16 21 -24t17 -14q-12 -13 -26.5 -25t-37.5 -21q-37 -13 -76 -13q-56 0 -107.5 26t-84.5 77
q-35 57 -35 128q0 29 6 59q21 107 109 199q76 77 180 132t207 99l73 33q106 49 163 92q53 41 81 93v-765h44l169 168l168 -168h45v417q0 116 105 180l33 19q53 27 96 59.5t76 89.5v-1726q1 -263 82 -384q75 -92 164 -125q42 -15 89 -18.5t79 -3.5l-1 -2q-2 -10 -10.5 -21.5
t-33.5 -25t-66 -25.5t-97 -12z" />
    <glyph glyph-name="uniE015" unicode="H&#x32;" horiz-adv-x="1768" 
d="M720 281v1159q-66 -37 -142 -105q-84 -74 -154 -208q-32 -67 -51.5 -147.5t-19.5 -160.5q0 -42 6 -82q10 -62 36 -114.5t73.5 -85t120.5 -32.5l25 1q-13 -73 -71 -114t-127 -41q-31 0 -60 9q-71 23 -130 76t-88 124q-39 103 -39 216q0 125 45 248t130 221q98 108 221 178
t238 120q136 59 216 117q53 42 81 94v-766h44l169 168l168 -168h45v515q0 121 42.5 270t127.5 236q65 60 147 95q105 44 200 44q93 0 161 -37q41 -23 46 -49q-109 0 -167 -22q-100 -39 -164 -125q-67 -95 -78 -286q-5 -84 -5 -165v-1294q0 -60 -21 -97t-54 -61.5t-73 -46.5
q-45 -24 -87.5 -56.5t-74.5 -86.5v1064h-45l-168 -168l-169 168h-44v-395q0 -539 -595 -735q-96 -33 -216 -33q-180 0 -262 92q-57 64 -57 148q0 118 103 225q23 24 48 48l41 40q-37 -50 -37 -94q0 -53 43 -93.5t106 -64.5t127 -28l42 -1q219 0 299 80q32 32 40.5 76.5
t8.5 130.5z" />
    <glyph glyph-name="uniE016" unicode="K&#x31;" horiz-adv-x="1599" 
d="M1803 -590q-94 0 -200 45q-82 35 -148 94q-122 112 -151 362q-22 209 -23 434l-3 121q-3 224 -55 292q-58 79 -187 79v-346q0 -538 -595 -735q-96 -33 -216 -33q-47 0 -93 7q-112 21 -169 85t-57 148q0 55 25.5 113t77.5 112q23 24 48 48l41 40q-37 -50 -37 -94
q0 -53 43 -93.5t106 -64.5t127 -28l42 -1q123 0 199 25q66 22 98.5 53.5t41.5 72t9 89.5q-1 89 -1 1204q-66 -37 -142 -105q-84 -73 -154 -207q-32 -68 -52 -149.5t-20 -161.5q0 -110 43 -194q60 -118 196 -118l23 1q-13 -73 -71.5 -114t-126.5 -41q-31 0 -60 9
q-71 23 -130 76t-88 124q-40 104 -40 217q0 125 45.5 247.5t130.5 220.5q98 108 221 178.5t238 120.5q136 59 216 117q53 41 81 93v-789q38 32 87 136q48 108 105 262q59 160 115 288q52 118 100.5 179t104.5 90q95 49 196 49q113 0 181 -60q18 -16 25.5 -30t11.5 -28
q-15 7 -31.5 12.5t-38.5 5.5h-5q-86 -6 -152.5 -83.5t-117.5 -184.5q-47 -99 -96 -220q-39 -95 -77 -179q-43 -96 -89.5 -165t-109.5 -110q54 -13 89 -33.5t72 -49.5q112 -85 150.5 -210t42.5 -287q3 -92 4 -192q0 -133 7 -243q13 -183 77 -268q108 -132 248 -144
q44 -3 75 -3q-2 -10 -10.5 -22t-35.5 -27q-66 -37 -161 -37z" />
    <glyph glyph-name="uniE017" unicode="L&#x32;" horiz-adv-x="1113" 
d="M1678 -503l-40 2q-128 13 -241.5 79.5t-220.5 149.5q-87 66 -173 121q-78 47 -140 69q-104 38 -180 38l-34 -2q40 67 53.5 119t16.5 134l2 45v1187q-66 -37 -142 -105q-84 -73 -154 -207q-32 -68 -52 -149.5t-20 -161.5q0 -110 43 -194q60 -118 196 -118l23 1
q-13 -73 -71.5 -114t-126.5 -41q-31 0 -60 9q-71 23 -130 76t-88 124q-39 104 -39 216q0 125 45 248t130 221q98 108 221 178.5t238 120.5q136 59 216 117q53 41 81 93v-1743q155 -48 321 -118l37 -15q213 -95 335 -95q57 0 97 15q60 23 79 72q11 24 11 53q43 -22 72 -66
q21 -39 21 -84q0 -60 -33 -119.5t-88 -98.5q-89 -57 -205 -57z" />
    <glyph glyph-name="uniE018" unicode="M&#x31;" horiz-adv-x="1720" 
d="M1922 -590q-96 0 -200 45q-82 35 -147 94q-123 112 -152 362q-20 179 -22 378v883q0 85 -22.5 142t-57.5 85.5t-74 28.5q-38 0 -73.5 -28.5t-58 -85.5t-22.5 -142l-1 -1002q0 -60 -21 -97t-54 -61.5t-73 -46.5q-45 -24 -87.5 -56.5t-74.5 -86.5v1350q0 85 -22.5 142
t-57.5 85.5t-74 28.5q-38 0 -73.5 -28.5t-58 -85.5t-22.5 -142q-1 -340 -1 -681q0 -195 -73 -337q-140 -272 -521 -398q-96 -33 -217 -33q-47 0 -92 7q-112 21 -169 85.5t-57 147.5q0 55 25.5 113.5t76.5 111.5l90 88q-37 -50 -37 -94q0 -53 43 -93.5t106 -64.5t127 -28
l42 -1q122 0 199 25q66 22 98 53.5t41 72t9 88.5q-1 90 -1 814q0 233 196 377l204 143q65 41 112.5 84.5t64.5 100.5q215 -149 285 -294q65 50 130 91q74 46 129.5 93.5t73.5 109.5q150 -104 225.5 -200.5t101.5 -209.5t27 -268v-786l2 -157q0 -115 7 -221q12 -177 77 -268
q75 -92 164 -125q62 -22 167 -22q-2 -10 -10.5 -22t-34 -26t-66 -26t-96.5 -12z" />
    <glyph glyph-name="uniE019" unicode="N&#x31;" horiz-adv-x="1208" 
d="M1412 -590q-95 0 -200 45q-82 35 -147 94q-63 61 -100.5 157.5t-51.5 204.5q-16 147 -16 274v15l-1 89v883q0 76 -30.5 147t-99.5 106q-42 21 -82 21q-41 0 -83 -21q-68 -35 -99 -106t-31 -147l-1 -681q0 -195 -73 -337q-140 -272 -522 -398q-96 -33 -216 -33
q-47 0 -93 7q-112 21 -169 85t-57 148q0 55 25.5 113t77.5 112q26 28 55 55l34 33q-37 -50 -37 -94q0 -53 43 -93.5t106 -64.5t127 -28l42 -1q124 0 199 25q66 22 98.5 53.5t41.5 72t9 89.5l-1 89q0 415 -1 699q0 127 60 230t170 168l211 121q91 45 167 100q67 48 86 111
q150 -104 225.5 -200.5t101 -209.5t26.5 -268q0 -69 -4 -117q0 -667 2 -789q0 -135 8 -258q11 -177 77 -268q34 -46 78 -77.5t86 -47.5q62 -22 167 -22q-2 -10 -10.5 -22t-34 -26t-66.5 -26t-97 -12z" />
    <glyph glyph-name="uniE01C" unicode="P&#x31;" horiz-adv-x="1680" 
d="M443 -590q-56 0 -97 12t-66.5 26t-34 26t-10.5 22q106 0 167 22q42 16 86 47.5t78 77.5q66 91 77 268q8 123 8 258q2 202 2 970q0 59 20.5 96t54 62t73.5 46q44 25 87 57.5t75 86.5v-937q119 57 216.5 133.5t149.5 214.5q28 83 28 168q0 56 -10 112q-24 132 -98 217
t-182 126.5t-231 41.5l-41 -1q-149 -11 -248 -78t-148.5 -164t-49.5 -193q0 -86 40.5 -155t121.5 -96q-9 -20 -22.5 -39t-39.5 -38q-57 -42 -123 -42q-15 0 -30 3q-99 19 -158 118q-38 82 -38 165q0 101 47.5 197.5t123.5 180t166 146.5t178 99q205 87 415 87q118 0 230 -33
q143 -46 236 -121.5t138.5 -171.5t45.5 -202q0 -154 -91 -310t-266 -281q-169 -115 -336 -187l-24 -12v-137q0 -110 -8 -255q-19 -348 -165 -494q-65 -59 -147 -94q-107 -45 -200 -45z" />
    <glyph glyph-name="uniE01D" unicode="Q&#x31;" horiz-adv-x="1460" 
d="M1631 -483q-42 0 -86 11q-280 80 -539 493q-141 -103 -306 -103q-74 0 -157 22q-143 41 -234.5 130.5t-135 211t-43.5 255.5q0 165 61.5 325.5t176 278.5t275.5 161q-55 -85 -100 -187.5t-72.5 -215.5t-27.5 -229q0 -100 25 -200q15 -57 37 -105q19 30 52 57.5t81 45
t115 17.5q109 -2 193.5 -38t154.5 -98q30 55 49 115q39 122 39 231q0 119 -40.5 224t-111.5 197t-166 173q-55 48 -121 80.5t-133 32.5q-25 0 -49 -6l76 45q85 52 154 85.5t136 33.5q61 0 127.5 -37.5t147.5 -124.5q119 -128 183 -271.5t64 -296.5q0 -101 -30 -205
q-50 -172 -212 -390q26 -30 60 -72q132 -163 233 -256q153 -141 273 -141q71 0 137 58l1 -24q0 -83 -39 -147t-104.5 -100t-143.5 -36zM799 141q58 0 113 24q-49 72 -97.5 124t-100.5 72q-27 10 -52 10q-39 0 -64.5 -22t-25.5 -54q0 -51 62 -98q76 -56 165 -56z" />
    <glyph glyph-name="uniE01E" unicode="R&#x32;" horiz-adv-x="1685" 
d="M1831 -589q-95 0 -201 45q-82 34 -147 94q-87 89 -130.5 242t-47.5 278q-3 224 -54 292q-55 70 -208 70q-48 0 -72 -3l-8 -1v-375q0 -115 -48 -269.5t-125 -233.5q-65 -60 -147 -94q-106 -45 -200 -45q-56 0 -97 12t-66 25.5t-33.5 25t-11.5 22.5v1q32 0 79 3t88.5 19
t85.5 47t78 78q66 92 78 267q7 107 7 222l2 156v851q0 59 20.5 96t54 61.5t72.5 46.5q45 24 88 56.5t75 87.5v-939q119 58 216.5 134.5t149.5 213.5q29 84 29 169q0 55 -10 111q-25 132 -99.5 217.5t-182.5 127t-232 41.5l-38 -1q-149 -11 -248.5 -78.5t-149 -164.5
t-49.5 -193q0 -86 40.5 -155t121.5 -96q-9 -20 -22 -39t-39 -38q-59 -41 -126 -41q-14 0 -28 2q-99 19 -158 119q-38 82 -38 164q0 101 47.5 197.5t124 180t166.5 147t177 99.5q210 87 415 87q118 0 231 -34q143 -46 236 -121.5t138 -171.5t45 -202q0 -153 -91 -309
q-128 -220 -427 -382q230 -18 343 -150q81 -96 107 -267q8 -56 13 -119q7 -95 25 -188q30 -163 144 -243q85 -60 170 -66q43 -3 74 -3q-2 -11 -10.5 -22.5t-34 -25.5t-66 -26t-96.5 -12z" />
    <glyph glyph-name="uniE01F" unicode="R&#x33;" horiz-adv-x="1685" 
d="M1835 -589q-94 0 -201 45q-82 34 -147 94q-87 89 -130.5 242t-47.5 278q-3 224 -54 292q-55 70 -209 70q-34 0 -56.5 -2t-24.5 -3q-21 -261 -177 -423.5t-415 -246.5q-96 -33 -217 -33q-47 0 -92 7q-112 21 -169 85t-57 148q0 55 25.5 113t76.5 112q29 29 60 58l30 29
q-37 -50 -37 -94q0 -53 43 -93.5t106 -64.5t127 -27q22 -1 46 -1q117 0 195 24q118 41 140 154q10 52 10 109q0 32 -1.5 65.5t-1.5 791.5q0 59 20.5 96t54 61.5t72.5 46.5q45 24 88 56.5t75 87.5l1 -938q119 57 216 133.5t149 213.5q29 84 29 169q0 55 -10 111
q-25 132 -99.5 217.5t-182.5 127t-232 41.5l-38 -1q-149 -11 -248.5 -78.5t-149 -164.5t-49.5 -193q0 -86 40.5 -155t121.5 -96q-9 -20 -22 -39t-37.5 -36.5t-57 -30t-70.5 -12.5q-14 0 -28 2q-98 19 -158 119q-38 82 -38 164q0 101 47.5 197.5t124 180t166.5 147t177 99.5
q211 87 416 87q40 0 79 -4l2 5l8 -6q72 -8 141 -29q143 -46 236 -121.5t138 -171.5t45 -202q0 -153 -91 -309q-128 -219 -427 -382q65 -5 123 -20q139 -35 220 -130.5t107 -266.5q8 -56 13 -119q7 -95 24.5 -188.5t65.5 -164.5q35 -47 79 -78t85 -47t84.5 -19t74.5 -3
q-2 -11 -10.5 -22.5t-35.5 -26.5q-66 -37 -161 -37z" />
    <glyph glyph-name="uniE020" unicode="R&#x31;" horiz-adv-x="1662" 
d="M1830 -589q-93 0 -200 45q-82 34 -147 94q-87 89 -130.5 242t-47.5 278q-3 224 -54 292q-56 70 -209 70q-59 0 -79 -5v-219q0 -59 -20.5 -96t-54 -61.5t-72.5 -46.5q-45 -24 -88 -56.5t-75 -87.5v1280q0 59 20.5 96t54 61.5t72.5 46.5q45 24 88 56.5t75 87.5v-938
q119 57 216.5 133.5t148.5 213.5q29 84 29 169q0 55 -10 111q-24 132 -98.5 217.5t-183 127t-232.5 41.5l-38 -1q-149 -11 -248 -78.5t-148.5 -164.5t-49.5 -193q0 -86 40.5 -155t121.5 -96q-9 -20 -22.5 -39t-39.5 -38q-57 -41 -125 -41q-14 0 -29 2q-98 19 -157 119
q-38 82 -38 165q0 101 47.5 197.5t123.5 180t166 146.5t178 99q214 89 408 89q119 0 237 -36q143 -46 236 -121.5t138.5 -171.5t45.5 -202q0 -153 -91 -309q-128 -219 -427 -382q65 -5 122 -20q139 -35 220.5 -130.5t106.5 -266.5q8 -55 13 -118q7 -95 25 -189t66 -165
q34 -47 78 -78t85.5 -47t84.5 -19t75 -3q-5 -14 -12.5 -24.5t-33.5 -24.5q-67 -37 -162 -37z" />
    <glyph glyph-name="uniE021" unicode="S&#x31;" horiz-adv-x="1437" 
d="M637 -141q-28 0 -56 2q-228 23 -373 168q-55 60 -82 132.5t-27 139.5q0 26 4 50q25 124 134 202q36 27 63 38t51 17q-34 -51 -45 -127l-1 -26q0 -37 11 -78q26 -99 128 -164q84 -53 200 -53q128 0 269 57q173 69 285 183q54 58 85 115t33 97q0 32 -33.5 43.5t-116.5 18.5
l-126 13q-173 15 -326 37q-100 15 -156.5 42.5t-78.5 83.5t-22 131q0 92 29 194q56 179 174 313.5t258 205.5q118 61 221 61q85 0 150 -49q90 -66 90 -164q0 -28 -6 -49.5t-14.5 -33t-18.5 -18.5q-17 11 -37 20.5t-53.5 16.5t-80.5 7q-146 0 -296 -77q-99 -48 -170 -125
q-75 -87 -87 -162l-1 -13q0 -28 18.5 -46t55.5 -31q84 -26 256 -45l100 -12q141 -16 239 -31q61 -11 88 -22.5t40 -23.5q28 -19 45 -65q19 -58 19 -137v-18q-2 -107 -50 -245q-51 -136 -160 -267q-106 -133 -279 -222q-170 -84 -350 -84z" />
    <glyph glyph-name="uniE022" unicode="T&#x31;" horiz-adv-x="1132" 
d="M594 -589q-95 0 -161 37q-27 15 -35.5 26.5t-10.5 22.5q32 0 78.5 3t88.5 19t86 47t78 78q65 92 77 267q11 185 11 378q0 73 -0.5 145t-0.5 1048l-50 1q-142 0 -237 -56q-67 -42 -96.5 -105t-29.5 -134q0 -133 85 -244q47 -53 107 -92q-79 -48 -164 -48q-36 0 -71 9
q-129 38 -188.5 132.5t-59.5 209.5q0 107 48 213q68 140 203 217q179 101 413 101q112 0 231 -15l21 -2q101 -13 193 -13q68 0 137.5 12.5t147.5 46.5q88 39 146 105t61 146q80 -81 80 -194q0 -77 -38.5 -150.5t-109 -123.5t-138 -69t-134.5 -19q-49 0 -99.5 6.5
t-102.5 15.5l-45 7q0 -915 1 -973l1 -131q0 -146 -11 -299q-25 -349 -164 -486q-65 -60 -147 -94q-107 -45 -201 -45z" />
    <glyph glyph-name="uniE023" unicode="U&#x31;" horiz-adv-x="1213" 
d="M1396 -584q-94 0 -201 45q-82 35 -147 94q-63 61 -100.5 157.5t-51.5 204.5q-9 75 -12 140q-55 -70 -147 -119t-195 -49q-77 0 -151.5 36.5t-136.5 120.5q-64 92 -86.5 200t-24 252.5t-1.5 287.5l2 679q0 81 -5 165q-11 190 -78 286q-75 93 -164 125q-61 22 -167 22
q2 10 10.5 22t35.5 27q64 37 158 37q97 0 204 -45q81 -35 147 -94q85 -87 127 -236t42 -271v-1100q0 -76 31 -147t99 -106q42 -20 83 -20q40 0 82 20q69 35 99.5 106t30.5 147l1 1003q0 59 20.5 96t54 61.5t72.5 46.5q45 24 88 56.5t75 87.5v-1745q2 -242 82 -360
q34 -46 78 -77.5t86 -47.5q61 -22 167 -22q-2 -11 -10.5 -22.5t-34 -25.5t-66 -26t-96.5 -12z" />
    <glyph glyph-name="uniE025" unicode="V&#x31;" horiz-adv-x="1810" 
d="M1112 -178q-126 88 -199 170t-106 169.5t-41.5 191t-8.5 236.5l1 307q0 116 -3 230q-2 97 -26 212t-88.5 199t-186.5 89q-96 0 -161.5 -42.5t-98.5 -108.5t-33 -135q0 -83 49.5 -150t150.5 -83q16 -2 31 -2q46 0 90 18.5t80 56.5q23 -53 23 -99q0 -64 -36.5 -112.5
t-95 -75.5t-125.5 -27t-133 31t-116 99.5t-72 178.5q-7 37 -7 74q0 61 16 119q51 184 200 290t325 106q146 0 270 -75q87 -55 146 -139q59 -88 85 -221.5t26 -229.5v-696q0 -76 31 -147t100 -106q42 -20 82 -20t82 20q69 35 100 106t31 147q0 772 -1 912q0 122 10 255
q23 305 160 440q65 59 147 94q107 45 203 45q55 0 95 -12t65 -25.5t33.5 -25t10.5 -21.5l1 -2q-32 0 -79 -3.5t-88.5 -19t-85.5 -47t-79 -77.5q-36 -52 -54 -120t-23.5 -144t-5.5 -150q1 -151 1 -942q0 -130 -61 -235.5t-173 -171.5l-262 -151q-75 -40 -127.5 -82.5
t-68.5 -97.5z" />
    <glyph glyph-name="uniE026" unicode="W&#x31;" horiz-adv-x="2309" 
d="M1729 -178q-216 149 -285 294q-65 -49 -128 -89q-75 -47 -131 -94.5t-75 -110.5q-150 104 -225.5 200.5t-101 210t-26.5 267.5l1 358q0 135 -3 268q-2 97 -26.5 212t-88.5 199t-186 89q-96 0 -161.5 -42.5t-99 -108.5t-33.5 -135q0 -83 49.5 -150t150.5 -83q16 -2 32 -2
q46 0 90 18.5t79 56.5q23 -53 23 -99q0 -64 -36 -112.5t-95 -75.5t-126 -27t-133 31t-116 99.5t-72 178.5q-6 36 -6 72q0 62 15 121q51 184 200 290t326 106q145 0 270 -75q88 -55 145 -139q59 -88 85.5 -221.5t26.5 -229.5v-696q0 -85 22.5 -141.5t58 -85t73.5 -28.5
q39 0 74 28.5t57.5 85t22.5 141.5v1351q32 -55 75 -87.5t88 -56.5q39 -22 72.5 -46.5t54 -61.5t20.5 -96l1 -1003q0 -85 22.5 -141.5t58 -85t73.5 -28.5q39 0 74 28.5t57.5 85t22.5 141.5v1100q0 122 42 271t127 236q65 59 147 94q107 45 203 45q55 0 95 -12t65 -25.5
t33.5 -25t10.5 -21.5l1 -2q-32 0 -79 -3.5t-88.5 -19t-85.5 -47t-79 -77.5q-37 -54 -55 -128t-22.5 -158t-4.5 -164v-937q0 -235 -200 -383l-174 -122q-73 -46 -128 -93t-74 -109z" />
    <glyph glyph-name="uniE027" unicode="X&#x32;" horiz-adv-x="1204" 
d="M-58 -584q-95 0 -161 37q-27 15 -35.5 26.5t-10.5 22.5q106 0 167 22q42 16 86 48q137 97 149 300q4 60 4 119v275q0 129 61 234.5t174 171.5l110 63l-110 64q-113 66 -174 171.5t-61 234.5v549q32 -55 75 -87.5t88 -56.5q40 -22 73.5 -46.5t54 -61.5t20.5 -96v-174
q0 -76 31 -147t99 -106l163 -94q69 36 100.5 104.5t31.5 149.5l-1 364q0 122 42 271t127 236q65 59 147 94q107 45 204 45q54 0 94 -12t65.5 -26t34 -26t10.5 -22q-31 0 -78 -3.5t-89 -19t-86 -47t-78 -77.5q-38 -54 -55.5 -128t-22.5 -158t-5 -165v-215q-25 -236 -233 -361
l-107 -62l107 -62q113 -66 174 -171.5t61 -235.5v-536q-32 55 -75 87.5t-88 56.5q-40 22 -73.5 46.5t-54 61.5t-20.5 96v162q0 76 -30.5 147t-99.5 106l-161 92q-70 -36 -102 -103.5t-32 -151.5v-233q0 -106 -6.5 -224t-41.5 -225q-63 -195 -261 -279q-107 -45 -201 -45z
" />
    <glyph glyph-name="uniE028" unicode="X&#x33;" horiz-adv-x="1208" 
d="M1394 -584q-93 0 -200 45q-82 35 -147 94q-138 134 -155 399q-7 114 -7 216v162q0 76 -31 147t-100 106l-160 92l-5 -2q-68 -35 -99 -105.5t-31 -147.5v-252q0 -59 -20.5 -96t-54 -61.5t-73.5 -46.5q-44 -24 -87.5 -56.5t-75.5 -87.5v444q3 131 61 235t174 171l110 63
l-110 64q-112 66 -173.5 171.5t-61.5 234.5l1 260q0 81 -5 165t-22.5 158t-55.5 128q-34 46 -78 77.5t-86 47t-88.5 19t-78.5 3.5q2 10 10.5 22t34 26t65.5 26t94 12q97 0 204 -45q82 -35 147 -94q85 -87 127 -236t42 -271v-271q0 -76 31 -147t99 -106l163 -94
q70 35 101.5 106.5t31.5 147.5v267q0 59 20.5 96t54 61.5t73.5 46.5q45 24 88 56.5t75 87.5q0 -456 -2 -495q-21 -243 -233 -370l-108 -62l108 -62q112 -66 173 -171.5t61 -235.5v-351q0 -61 3.5 -124t19.5 -122.5t52 -111.5q35 -46 79 -77.5t85.5 -47t88.5 -19t79 -3.5
q-5 -14 -12.5 -24.5t-33.5 -24.5q-67 -37 -162 -37z" />
    <glyph glyph-name="uniE029" unicode="X&#x31;" horiz-adv-x="1213" 
d="M1401 -585q-96 0 -201 45q-82 35 -147 94q-130 127 -152 379q-10 108 -10 205v330q0 76 -31 147t-100 106q-42 21 -82 21t-82 -21q-69 -35 -100 -106t-31 -147v-299q0 -59 -20.5 -96t-54 -61.5t-72.5 -46.5q-45 -24 -88 -56.5t-75 -87.5v490q0 126 57.5 229.5
t164.5 169.5q-132 119 -176 245.5t-45 294.5q-2 98 -2 197q0 84 -4.5 171t-22 164t-56.5 133q-34 46 -78 77.5t-86 47t-88.5 19t-78.5 3.5q2 10 10.5 22t34 26t66 26t96.5 12q96 0 201 -45q82 -35 147 -94q85 -87 127 -236t42 -271l1 -314q0 -76 31 -147t100 -106
q42 -21 82 -21t83 21q69 35 99.5 106t30.5 147v217q0 59 20.5 96t54 61.5t73.5 46.5q45 24 88 56.5t75 87.5v-417q-9 -254 -222 -391q140 -127 181 -263q40 -129 40 -292v-16q1 -89 1 -377q0 -60 3.5 -121t19.5 -119q32 -116 130 -186q44 -32 86 -48q62 -22 167 -22
q-2 -10 -10.5 -22t-34 -26t-66 -26t-96.5 -12z" />
    <glyph glyph-name="uniE02A" unicode="Y&#x31;" horiz-adv-x="1810" 
d="M880 -836q-80 0 -166 17t-156 60.5t-105 120.5q-18 45 -18 91q0 72 34 141t84.5 128t103.5 102q101 86 230 116q69 16 138 16q118 0 232.5 -39t220.5 -96l10 -5q6 55 6 113l-1 233q-56 -68 -146.5 -115t-190.5 -47q-77 0 -152 36.5t-136 121.5q-64 91 -86.5 199.5
t-23.5 254.5l-1 142v140q0 111 -3 222q-2 97 -26 212t-88 198.5t-186 88.5q-97 0 -162.5 -42.5t-98.5 -108t-33 -134.5q0 -83 49.5 -150.5t150.5 -83.5q15 -2 30 -2q46 0 90.5 18.5t80.5 56.5q23 -53 23 -99q0 -64 -36 -112t-95 -75.5t-126 -27.5t-133 31.5t-116 99.5
t-72 179q-6 36 -6 71q0 63 15 121q51 184 200 290.5t325 106.5q146 0 270 -76q89 -55 146 -138q59 -89 85 -222.5t26 -228.5v-574q0 -76 31 -147t100 -106q42 -21 82 -21t83 21q68 35 99 106t31 147l1 880q0 60 21 97t54 61.5t73 46.5q45 24 87.5 56.5t74.5 86.5l-1 -1650
q0 -183 -119 -388q129 -77 266 -140q151 -70 298 -75q70 0 126 17t94.5 40.5t59 47.5t34.5 49q-4 -72 -38 -145q-54 -102 -166 -164q-117 -65 -256 -66q-100 0 -200 28.5t-199.5 74.5t-196.5 99q-123 -128 -270 -210q-173 -97 -356 -97zM1048 -638q79 0 156.5 31.5
t139.5 93.5q22 24 42 51q-123 69 -244 124t-235 77q-46 7 -86 7q-126 0 -126 -85q0 -37 25 -94q49 -103 138 -154t190 -51z" />
    <glyph glyph-name="uniE02B" unicode="Y&#x32;" horiz-adv-x="1801" 
d="M1915 -613q-147 0 -436 117q-244 98 -350 98q-94 0 -151 -47q-9 -8 -12 -8q-2 0 -2 4q0 9 12 34q84 166 272 208q86 20 135.5 44t73.5 55t30 72.5t6 96.5v101q-56 -68 -146 -115t-190 -47q-77 0 -152 36.5t-137 121.5q-64 91 -86.5 199.5t-23.5 254.5l-1 135v177
q0 96 -2 192.5t-26 211.5t-88.5 198.5t-186.5 88.5q-97 0 -162 -42.5t-98.5 -108t-33.5 -134.5q0 -83 50 -150.5t151 -83.5q15 -2 30 -2q46 0 90.5 18.5t79.5 56.5q23 -53 23 -99q0 -64 -36 -112t-95 -75.5t-126 -27.5t-133 31.5t-116 99.5t-72 179q-6 35 -6 71q0 62 16 121
q51 184 200 290.5t325 106.5q146 0 270 -76q87 -55 146 -138q59 -89 85 -222.5t26 -228.5v-574q0 -76 31 -147t99 -106q42 -21 83 -21q40 0 82 21q69 35 99.5 106t30.5 147l1 880q0 60 21 97t54 61.5t73 46.5q45 24 87.5 56.5t74.5 86.5l-1 -1527q0 -129 -61.5 -234.5
t-173.5 -171.5l-51 -30q76 -21 162 -51q98 -35 200.5 -63.5t198.5 -28.5q53 0 103 12q63 16 115 58q13 12 19 12q2 0 4 -2l2 -12q0 -29 -28.5 -91.5t-94 -123t-176.5 -90.5q-51 -13 -107 -13z" />
    <glyph glyph-name="uniE09B" unicode="x&#x31;" horiz-adv-x="975" 
d="M215 -324h-12q-80 7 -125 45t-61.5 95t-16.5 109q0 98 44 186.5t108.5 168t130.5 150.5l44 48q-54 133 -90 240l-144 412h321l138 -397q123 143 158 230q23 66 23 124q0 171 -183 260q28 54 88.5 94t128.5 40q82 -2 131 -38q82 -61 82 -193q0 -75 -24.5 -153t-62.5 -139
q-47 -74 -125.5 -167t-167.5 -192q31 -86 76.5 -177.5t102.5 -156.5t124 -70h3q70 0 129 56q0 -73 -26 -133t-77 -95.5t-126 -35.5h-17q-242 22 -406 366q-37 -43 -67 -84.5t-48.5 -87t-18.5 -100.5q0 -183 185 -270q-28 -54 -89.5 -94.5t-129.5 -40.5z" />
    <glyph glyph-name="uniE0DE" unicode="y&#x31;" horiz-adv-x="1053" 
d="M804 -692q-139 0 -279.5 56t-282.5 146q-112 73 -206.5 114t-185.5 41q-60 0 -122 -19.5t-133 -51.5l-3 -1q64 65 130 122q175 159 365 159q84 0 174 -32q77 -26 137 -61t126 -82q31 -19 65 -19q30 0 59 15q49 27 69.5 77t20.5 101l3 253q-99 -140 -288 -140
q-147 0 -221 92q-67 92 -67 242v560q0 116 105 180l48 28q48 25 85.5 54t72.5 87v-885q0 -37 7 -75q7 -42 34.5 -58t70.5 -16q50 0 81.5 28.5t50 72.5t21.5 89v495q0 75 37 121q26 32 55 51.5t60 35.5q41 20 81.5 50.5t76.5 90.5v-1158q0 -226 -163 -367q-77 -67 -176 -120
q224 -111 420 -111q55 2 102 8q-204 -173 -430 -173z" />
    <glyph glyph-name="uniE0DF" unicode="g&#x31;" horiz-adv-x="1076" 
d="M826 -692q-140 0 -280.5 56t-282.5 146q-112 73 -206.5 114t-185.5 41q-60 0 -122 -19.5t-133 -51.5l-3 -1q64 65 130 122q175 159 365 159q85 0 175 -32q77 -28 130 -58q42 -24 132 -85q30 -20 64 -20q55 0 101 49t50 145q0 78 2 157l1 76q-42 -59 -99 -90.5t-136 -31.5
q-118 0 -202 61.5t-129 160t-45 209.5q0 200 143 352q97 96 228 166q67 38 142 75q129 61 243.5 136.5t164.5 183.5v-1257q0 -225 -163 -367q-78 -67 -176 -120q223 -111 419 -111q55 2 103 8q-204 -173 -430 -173zM612 190q40 0 76 25t54 67q21 52 21 106v530
q-86 -49 -132 -81q-58 -41 -98 -99q-69 -107 -69 -283q0 -142 65 -225q38 -40 83 -40z" />
    <glyph glyph-name="uniE0E0" unicode="a&#x31;" horiz-adv-x="1123" 
d="M1234 -442q-115 0 -219 61q-145 91 -196 217t-53 278q-86 -127 -237 -127q-153 0 -258 110q-59 63 -88.5 148t-29.5 173q0 53 11 104q36 153 132.5 248t227.5 166q67 37 143 75q128 61 242 136t164 183v-1191q0 -56 4.5 -134t22.5 -158.5t56 -148.5q58 -101 150 -128
q-12 -12 -72 -12zM613 192q27 0 59 15q50 26 70.5 77.5t20.5 106.5v529l-54 -31q-122 -69 -175 -149q-69 -103 -69 -279q0 -151 64 -229q33 -40 84 -40z" />
    <glyph glyph-name="uniE0E1" unicode="b&#x31;" horiz-adv-x="1059" 
d="M548 -13q-85 0 -162 29t-134 87q-83 91 -87 220l1 1030q0 214 40 334q53 158 212 255q105 61 219 61q59 0 71 -12q-92 -27 -150 -128q-38 -68 -56 -148.5t-22.5 -158.5t-4.5 -135v-419q43 25 85 47q80 42 138 83.5t75 96.5q188 -130 248.5 -255.5t60.5 -312.5l1 -50
q0 -122 -25.5 -231.5t-93 -197t-190.5 -145.5q-113 -50 -226 -50zM585 196q66 0 105 47q67 81 79 269q5 80 5 218q0 53 -22 102.5t-70 74.5q-27 15 -57 15q-27 0 -58 -15q-48 -25 -70 -74.5t-22 -102.5q0 -180 -0.5 -216t-0.5 -121q0 -47 7 -92.5t30.5 -75t73.5 -29.5z" />
    <glyph glyph-name="uniE0E2" unicode="d&#x31;" horiz-adv-x="1177" 
d="M1059 -15q-47 0 -90 13q-119 34 -158 185q-89 -198 -278 -198q-151 0 -257 110q-122 135 -122 388q0 177 73 295q67 109 175.5 183.5t236.5 140.5q64 34 129 71q0 248 3 266q6 153 38 248q53 158 212 255q105 61 219 61q59 0 71 -12q-92 -27 -150 -128
q-38 -68 -56 -148.5t-22.5 -158.5t-4.5 -135v-1078q0 -51 8 -84t32.5 -49t71.5 -16q48 0 81 28.5t51 71.5t21 90h90q-16 -132 -60 -210q-36 -67 -87 -113q-86 -76 -227 -76zM625 194q26 0 52 12q48 25 69.5 74.5t21.5 103.5v642l-54 -32q-105 -60 -158 -126t-70 -152.5
t-17 -211.5q0 -114 17 -178q12 -44 34 -81q30 -51 105 -51z" />
    <glyph glyph-name="uniE0E3" unicode="f&#x31;" horiz-adv-x="566" 
d="M3 -442q-59 0 -72 12q93 27 151 128q38 68 55.5 148.5t22 158.5t4.5 134v819h-123l21 47q31 63 106 63q0 301 2 311q27 216 223 348q83 56 164 98t140 84t76 97q56 -38 98 -74q61 -53 90 -111.5t29 -114.5q0 -82 -57.5 -140.5t-158.5 -58.5q0 53 -21.5 103t-69.5 74
q-28 15 -58 15q-27 0 -58 -15q-48 -24 -70 -74t-22 -103l-1 -439h153l-22 -46q-33 -64 -99 -64h-32v-750q0 -121 -15.5 -229.5t-70 -199t-166.5 -160.5q-103 -61 -219 -61z" />
    <glyph glyph-name="uniE0E6" unicode="h&#x32;" horiz-adv-x="1183" 
d="M475 170q0 -60 -21 -97t-54 -61.5t-73 -46.5q-45 -24 -87.5 -56.5t-74.5 -86.5v1567q0 27 4.5 115t36.5 183q53 158 212 255q105 61 219 61q59 0 71 -12q-92 -27 -150 -128q-38 -68 -56 -148.5t-22.5 -158.5t-4.5 -135v-421q44 25 86 48q79 41 137 82.5t74 96.5
q188 -130 249 -255.5t61 -312.5l2 -135l-1 -180q0 -51 8 -84t32.5 -49t71.5 -16q48 0 81 28.5t51 71.5t21 90h91q-18 -132 -61 -210q-36 -67 -87.5 -113t-118.5 -62q-56 -13 -111 -13q-68 0 -126.5 21.5t-94.5 69.5q-67 92 -67 242v408q0 53 -21.5 103t-69.5 74
q-28 15 -58 15q-27 0 -58 -15q-48 -24 -69.5 -74t-21.5 -103v-558z" />
    <glyph glyph-name="uniE0E7" unicode="h&#x31;" horiz-adv-x="1093" 
d="M1243 -443q-115 0 -218 61q-160 98 -211 256q-40 120 -40 333v521q0 54 -22 103.5t-70 74.5q-28 15 -57 15q-27 0 -59 -15q-48 -25 -69.5 -74.5t-21.5 -103.5v-558q0 -60 -21 -97t-54 -61.5t-73 -46.5q-45 -24 -87.5 -56.5t-74.5 -86.5v1493q0 94 5 182.5t29 168.5
q50 172 217 275q103 60 219 60q60 0 72 -11q-93 -27 -151 -128q-38 -68 -55.5 -149t-21.5 -158.5t-4 -134.5v-419l80 44q81 42 141 84.5t77 98.5q134 -94 201 -181t89 -188q20 -97 20 -228v-493q0 -56 4.5 -134t22 -158.5t55.5 -148.5q58 -101 150 -128q-12 -12 -72 -12z
" />
    <glyph glyph-name="uniE0E8" unicode="i&#x31;" horiz-adv-x="514" 
d="M320 1260l-220 220l220 219l219 -219zM475 170q0 -60 -21 -97t-54 -61.5t-73 -46.5q-45 -24 -87.5 -56.5t-74.5 -86.5v1058q0 116 105 180q17 10 33 19q53 27 96 59.5t76 89.5v-1058z" />
    <glyph glyph-name="uniE0E9" unicode="j&#x31;" horiz-adv-x="540" 
d="M320 1260l-219 220l219 219l220 -219zM475 56q0 -157 -47 -297t-151.5 -232.5t-274.5 -113.5q-23 -2 -43 -2q-94 0 -162 37q-41 23 -46 49q32 0 79 3q88 6 174 66q116 82 144 254q11 64 15 130q0 40 1 79q0 31 1 61v790q0 116 105 180q17 9 32 18q54 28 97 60t76 90
v-1172z" />
    <glyph glyph-name="uniE0EC" unicode="k&#x31;" horiz-adv-x="1032" 
d="M1232 -442q-43 0 -101 13t-117 48q-87 53 -138 119t-76 141.5t-32 158t-7 169.5l1 115q0 47 -9.5 92.5t-39.5 75t-89 31.5q-26 0 -59 -15q-47 -24 -69 -73t-22 -102v-161q0 -60 -20.5 -96.5t-54 -61.5t-73.5 -47q-44 -24 -87 -57t-75 -87v1557q0 108 15.5 210.5t69.5 193
t166 160.5q103 60 219 60q60 0 72 -11q-93 -27 -151 -128q-38 -68 -55.5 -149t-21.5 -158.5t-4 -134.5v-420q43 25 84 47q80 41 139 83.5t76 97.5q69 -46 125.5 -100.5t81.5 -132.5q10 -34 10 -66q0 -102 -97 -197q71 -48 110 -108.5t53.5 -133t14.5 -154.5v-198
q0 -56 4.5 -134t22.5 -158.5t56 -148.5q58 -101 150 -128q-12 -12 -72 -12zM475 602l127 70q68 42 100.5 87.5t32.5 83.5q0 34 -25.5 56.5t-73.5 22.5q-14 0 -29 -2q-53 -8 -92.5 -56t-39.5 -135v-127z" />
    <glyph glyph-name="uniE0EE" unicode="l&#x31;" horiz-adv-x="544" 
d="M636 -442q-116 0 -219 61q-112 70 -166.5 160.5t-70 199t-15.5 229.5v1197q0 116 105 180l31 17q54 28 97.5 60.5t76.5 90.5v-1614q0 -56 4.5 -134t22 -158.5t55.5 -148.5q58 -101 151 -128q-13 -12 -72 -12z" />
    <glyph glyph-name="uniE0EF" unicode="m&#x31;" horiz-adv-x="1533" 
d="M1531 139q0 -56 4.5 -134t22 -158.5t55.5 -148.5q58 -101 151 -128q-13 -12 -72 -12q-44 0 -102 13t-117 48q-112 70 -166.5 160.5t-70 199t-15.5 229.5v520q0 47 -17 92t-54 73q-19 13 -39 13q-17 0 -34 -10q-39 -28 -56.5 -74t-17.5 -94v-558q0 -60 -21 -97t-54 -61.5
t-73 -46.5q-45 -24 -87.5 -56.5t-76.5 -86.5v906q0 47 -17 92t-54 73q-19 13 -39 13q-17 0 -33 -10q-39 -28 -56.5 -74t-17.5 -94v-558q0 -60 -21 -97t-54 -61.5t-73 -46.5q-45 -24 -87.5 -56.5t-73.5 -86.5v770q0 78 29.5 140t78 111.5t108 91.5t119.5 80l32 20
q70 45 106.5 89t51.5 103q203 -140 260 -278q51 49 107 84q53 32 97 75t66 119q188 -130 248.5 -255.5t60.5 -312.5q2 -94 2 -189v-331z" />
    <glyph glyph-name="uniE0F0" unicode="n&#x31;" horiz-adv-x="1086" 
d="M1084 139q0 -56 4.5 -134t22 -158.5t55.5 -148.5q58 -101 151 -128q-13 -12 -72 -12q-44 0 -102 13t-117 48q-112 70 -166.5 160.5t-70 199t-15.5 229.5v520q0 53 -22 103t-70 74q-28 15 -58 15q-27 0 -58 -15q-48 -24 -69.5 -74t-21.5 -103l1 -316v-242q0 -60 -21 -97
t-54 -61.5t-73 -46.5q-45 -24 -87.5 -56.5t-75.5 -86.5v711q6 165 83.5 268.5t169.5 160.5q51 33 116 68q82 43 151 91.5t88 105.5q188 -130 248.5 -255.5t60.5 -312.5q2 -94 2 -189v-331z" />
    <glyph glyph-name="uniE0F1" unicode="o&#x31;" horiz-adv-x="1098" 
d="M594 -18q-80 0 -159 30.5t-137 85.5q-71 70 -107.5 168.5t-36.5 203.5q0 117 46.5 224.5t142.5 176.5t244 75q-68 -72 -105 -179t-37 -213q0 -79 22 -147q35 -99 92.5 -146t118.5 -47q56 0 106 36t81.5 103t31.5 161q0 34 -5 71q-30 182 -166 310.5t-317 182.5
q152 92 221 126q53 25 100 25q58 0 109.5 -34t101.5 -89q94 -103 137.5 -228.5t43.5 -249.5q0 -240 -147 -438q-69 -92 -164.5 -150t-216.5 -58z" />
    <glyph glyph-name="uniE0F2" unicode="p&#x31;" horiz-adv-x="1058" 
d="M3 -590q-59 0 -72 12q94 27 151 128q38 68 55 149q27 121 27 292q0 428 -1 538q0 114 36 196t94.5 140.5t127 102t135.5 78.5q80 41 139 83t76 98q132 -92 198 -176.5t88.5 -183.5t23.5 -235v-28q0 -255 -95 -432q-45 -82 -121.5 -132.5t-190.5 -50.5q-82 0 -129 22.5
t-71 52.5q0 -92 -7.5 -176.5t-32.5 -159.5q-52 -159 -212 -257q-103 -61 -219 -61zM571 176q119 0 167 131q34 93 34 222v198q0 54 -22 103.5t-70 74.5q-30 15 -58 15t-57 -15q-48 -25 -70 -74.5t-22 -103.5l1 -430q1 -32 9.5 -59.5t29 -44.5t58.5 -17z" />
    <glyph glyph-name="uniE0F3" unicode="q&#x31;" horiz-adv-x="1122" 
d="M1232 -590q-115 0 -218 61q-154 97 -203 230.5t-49 294.5v115q-86 -124 -235 -124q-147 0 -257 110q-55 59 -80 121.5t-31 129t-6 181.5q0 206 131 337q58 58 126.5 101.5t135.5 78.5q80 41 139 83t76 98q132 -92 198 -176.5t88.5 -183.5t23.5 -235q1 -100 1 -641
q0 -56 5 -134q10 -188 77 -307q58 -101 150 -128q-12 -12 -72 -12zM611 193q27 0 59 15q50 26 71 77t21 106v336q0 54 -22 103.5t-70 74.5q-30 15 -58 15t-57 -15q-48 -25 -70 -74.5t-22 -103.5l-1 -150q0 -177 18 -248q14 -56 47.5 -96t83.5 -40z" />
    <glyph glyph-name="uniE0F4" unicode="t&#x31;" horiz-adv-x="469" 
d="M160 -178v1200h-123l22 47q34 63 101 63v45q0 115 105 180l33 19q53 27 96 59.5t76 89.5v-393h153l-21 -47q-34 -63 -100 -63h-32v-852q0 -104 -75 -158q-42 -30 -81 -52q-43 -23 -81.5 -53t-72.5 -85z" />
    <glyph glyph-name="uniE0F5" unicode="u&#x31;" horiz-adv-x="1097" 
d="M1208 -441q-115 0 -218 61q-149 94 -199.5 224t-51.5 287q-69 -100 -178 -129q-55 -13 -110 -13q-68 0 -126.5 22t-94.5 69q-67 92 -67 243v559q0 116 105 181l31 17q54 27 97.5 59.5t76.5 90.5v-884q0 -51 8 -83.5t32.5 -48.5t71.5 -16q48 0 80.5 28.5t50.5 71.5t22 89
v495q0 116 105 181l31 17q54 27 97.5 59.5t76.5 90.5v-1090q0 -56 4.5 -134t22 -158.5t55.5 -149.5q58 -101 150 -127q-12 -12 -72 -12z" />
    <glyph glyph-name="uniE0F6" unicode="v&#x31;" horiz-adv-x="1061" 
d="M164 881q0 129 139 198q53 28 95.5 60t75.5 90v-884q0 -39 7 -73t27 -55t59 -21q103 0 163 133q50 113 78 300q15 104 15 211q0 125 -28 242t-94.5 207t-180.5 137q30 56 94 95t136 39q60 0 119 -32t104 -95q47 -70 67.5 -174t20.5 -222q0 -154 -26 -306.5t-62.5 -257.5
t-82.5 -184t-97 -140q-55 -77 -127.5 -119.5t-173.5 -42.5q-108 0 -181 46t-110 126.5t-37 185.5v536z" />
    <glyph glyph-name="uniE0F7" unicode="w&#x31;" horiz-adv-x="1542" 
d="M998 -178q-87 61 -154 130.5t-107 153.5q-40 -42 -87 -79q-59 -46 -108.5 -96t-66.5 -109q-95 65 -165 141.5t-109 170.5t-39 212v536q0 116 105 181l31 17q54 27 97.5 59.5t76.5 90.5l2 -908q0 -107 98 -176q41 32 75 69q38 45 38 103v564q0 116 105 181l29 16
q55 28 98.5 60t77.5 91l3 -908q0 -108 98 -176q96 75 147.5 178t73 219.5t25.5 233.5l2 65q0 124 -28 241t-94.5 207t-180.5 138q29 55 93.5 94.5t136.5 39.5q61 -1 119.5 -32.5t103.5 -95.5q88 -129 88 -394q0 -117 -16 -236q-27 -228 -115.5 -422.5t-264.5 -344.5l-10 -8
q-60 -47 -110 -97t-68 -110z" />
    <glyph glyph-name="uniE0F8" unicode="z&#x31;" horiz-adv-x="952" 
d="M552 -18q-42 0 -84 7q-133 22 -220 105q-92 88 -95 235q0 144 116 269q94 101 244 183l-58 31q-68 35 -137 78.5t-117 102.5q-50 62 -51 145q0 59 23.5 104.5t60.5 81t78 64.5q-11 -33 -11 -62q0 -59 63 -116q61 -52 179 -116t240 -124q127 -63 202 -106
q-95 -34 -225 -107.5t-196 -136.5q-54 -57 -79.5 -114t-25.5 -107q0 -73 45 -123q55 -60 163 -60q114 0 195 65.5t115 180.5q28 -65 28 -124q0 -101 -65 -181.5t-168.5 -127.5t-219.5 -47z" />
    <glyph glyph-name="uniE0F9" unicode="y&#x32;" horiz-adv-x="1054" 
d="M533 -589q-94 0 -162 37q-41 23 -46 49q32 0 79 3q88 6 174 66q116 82 144 254q11 64 15 130l2 177q-97 -140 -287 -140q-152 0 -220 92t-68 242v560q0 114 105 180l33 19q53 27 96 59.5t76 89.5v-884q0 -51 8 -84t32.5 -49t71.5 -16q48 0 80.5 28.5t51 71.5t21.5 90v495
q0 114 105 180l33 19q53 27 96 59.5t76 89.5v-1173q0 -157 -47 -297t-151.5 -232.5t-274.5 -113.5q-23 -2 -43 -2z" />
    <glyph glyph-name="uniE132" unicode="Th" horiz-adv-x="2494" 
d="M1581 1810q57 76 148 132q105 61 219 61q59 0 71 -12q-92 -27 -150 -128q-38 -68 -56 -148.5t-22.5 -158.5t-4.5 -135v-421q44 25 86 48q79 41 137 82.5t74 96.5q188 -130 249 -255.5t61 -312.5l2 -135l-1 -180q0 -51 8 -84t32.5 -49t71.5 -16q48 0 81 28.5t51 71.5
t21 90h91q-18 -132 -61 -210q-36 -67 -87.5 -113t-118.5 -62q-56 -13 -111 -13q-68 0 -126.5 21.5t-94.5 69.5q-67 92 -67 242v408q0 53 -21.5 103t-69.5 74q-28 15 -58 15q-27 0 -58 -15q-48 -24 -69.5 -74t-21.5 -103v-558q0 -60 -21 -97t-54 -61.5t-73 -46.5
q-45 -24 -87.5 -56.5t-74.5 -86.5v1567q0 15 1 51q-16 -7 -31 -11q-68 -19 -135 -19q-49 0 -99.5 6.5t-102.5 15.5q-22 3 -45 7v-865q0 -50 1 -108q1 -63 1 -131q0 -146 -11 -299t-49 -281.5t-115 -204.5q-65 -60 -147 -94.5t-157 -42.5q-23 -2 -44 -2q-56 0 -96.5 12
t-64.5 25q-27 15 -35.5 26.5t-10.5 22.5q32 0 78.5 3t88.5 19t86 47t78 78q65 92 77 267q11 185 11 378v146q-1 71 -1 139v908q-25 1 -50 1q-65 0 -125 -12.5t-112 -43.5q-67 -42 -96.5 -105t-29.5 -134q0 -133 85 -244q47 -53 107 -92q-79 -48 -164 -48q-36 0 -71 9
q-129 38 -188.5 132.5t-59.5 209.5q0 107 48 213q68 140 203 216.5t295 94.5q59 7 118 7q112 0 231 -15q10 -1 21 -2q101 -13 193 -13q68 0 137.5 12.5t147.5 46.5q82 36 137 95z" />
    <glyph glyph-name="A.alt1" unicode="A&#x31;" horiz-adv-x="1713" 
d="M1016 -368q-62 1 -129 32.5t-114 95.5q-53 78 -78.5 196.5t-25.5 249.5q0 94 12 188q40 300 181 548q-60 10 -118 10q-145 -3 -246 -58q-133 -72 -133 -211q0 -41 11 -76q27 -60 65 -76q35 -18 65 -22l-3 -4q-39 -55 -102 -92q-49 -28 -112 -28q-30 0 -62 8
q-104 28 -169 135q-39 73 -39 160q0 185 162 316q126 99 314 131q63 10 129 10q128 0 263 -42l62 -23q244 338 632 546q39 22 72 51t60 76v-1931q-32 54 -74.5 86.5t-87.5 56.5q-40 22 -73 46.5t-54 61.5t-21 97l-1 92q-2 59 -9 119.5t-29 122.5q-48 131 -153 244
q-71 77 -159 126q-109 -253 -109 -522q0 -124 27.5 -241t94 -206.5t181.5 -137.5q-30 -56 -94 -95.5t-136 -39.5zM1402 694l1 639q-176 -130 -291 -339q181 -120 290 -300z" />
    <glyph glyph-name="K.alt2" unicode="K&#x32;" horiz-adv-x="1499" 
d="M1689 -834q-95 1 -204 46q-82 34 -147 93q-123 111 -152 362q-22 209 -23 678q-1 65 -3 121q-3 224 -55 293.5t-169 76.5l-17 1l-1 -563q0 -538 -594 -734q-97 -34 -217 -34q-179 0 -261 93q-57 64 -57 147q0 119 102 225l89 88q-37 -50 -37 -93q0 -54 43 -94.5
t106 -64.5t128 -28l42 -1q216 0 297 78q32 31 41 73.5t9 135.5l-1 -1q0 1341 1 1361q-92 -45 -153.5 -105t-81.5 -160q-7 -35 -7 -67q0 -100 61 -181q17 -22 34 -35l4 -3q-50 -59 -140 -59q-55 0 -107 26t-85 77q-34 58 -34 130q0 135 114 256q77 77 181 132t207 100t159 76
q114 62 158 141v-789q38 32 86 136q51 114 111 276q56 152 109 274q53 118 101.5 179t103.5 90q92 49 200 49q82 -4 124 -25q77 -37 90 -93q-39 18 -79 18q-48 0 -115 -51.5t-150 -216.5q-49 -102 -100 -227q-38 -91 -74 -172q-42 -94 -86 -161t-104 -109q-5 -2 -8 -5
q54 -13 89 -33.5t73 -50.5q84 -59 137 -175q47 -116 54 -321q3 -88 4 -428q0 -137 8 -251q12 -182 76.5 -268.5t164.5 -124.5q60 -22 159 -22q-5 -26 -46 -49q-66 -37 -153 -37h-5z" />
    <glyph glyph-name="O.alt1" unicode="O&#x31;" horiz-adv-x="1415" 
d="M669 -83q-74 0 -156 22q-143 41 -234.5 130.5t-135 211.5t-43.5 255q0 165 61.5 325.5t176 278.5t275.5 161q-55 -85 -100 -187t-72.5 -215t-27.5 -229q0 -101 25 -201q46 -165 137 -247t194 -82q105 0 200.5 81.5t150.5 241.5q34 106 34 219q0 131 -44 257t-130 221
q-85 88 -199 178l-75 62q-35 25 -75 51q-96 61 -183.5 135t-115.5 163q-8 30 -8 58q0 68 37 126t90.5 107t108.5 92q30 23 56 45q-40 -51 -60 -83q-27 -42 -27 -90q0 -75 95 -157q72 -62 177 -136q150 -103 313 -249q149 -139 230.5 -299t81.5 -333q0 -208 -123 -415
q-132 -223 -266 -345q-168 -153 -368 -153z" />
    <glyph glyph-name="T.alt2" unicode="T&#x32;" horiz-adv-x="1114" 
d="M1114 170q0 -60 -21 -97t-54 -61.5t-73 -46.5q-45 -24 -87.5 -56.5t-74.5 -86.5v1660q-25 1 -49 1q-65 0 -125 -12.5t-112 -43.5q-67 -42 -96.5 -105t-29.5 -134q0 -133 85 -244q47 -54 107 -92q-79 -48 -164 -48q-36 0 -71 9q-129 38 -188.5 132.5t-59.5 208.5
q0 108 48 214q68 140 203 216.5t295 94.5q59 7 118 7q112 0 231 -15q10 -1 21 -2q101 -13 193 -13q68 0 137 12.5t147 46.5q88 38 146.5 104t61.5 146q41 -42 60.5 -91.5t19.5 -101.5q0 -78 -38.5 -151t-108.5 -124q-71 -49 -138.5 -68t-134.5 -19q-49 0 -99.5 6.5
t-103.5 15.5q-22 3 -45 7v-1269z" />
    <glyph glyph-name="f.alt2" unicode="f&#x32;" horiz-adv-x="566" 
d="M163 -623v1581h-123l22 46q31 64 105 64l3 83q5 125 73 207.5t150.5 138.5t163.5 98t140 84t76 97q55 -39 98 -75q61 -53 89.5 -111.5t28.5 -113.5q0 -83 -57 -141.5t-158 -58.5q0 54 -22 103.5t-70 74.5q-28 14 -58 14q-27 0 -58 -14q-48 -25 -69.5 -74.5t-21.5 -103.5
q0 -67 -2 -207v-1h154l-22 -47q-34 -63 -100 -63h-32v-1233q0 -114 -105 -180l-33 -19q-53 -27 -96 -59.5t-76 -89.5z" />
    <glyph glyph-name="dcroat.alt1" unicode="&#x111;&#x31;" horiz-adv-x="1177" 
d="M1059 -15q-47 0 -90 13q-119 34 -158 185q-89 -198 -278 -198q-151 0 -257 110q-122 135 -122 388q0 177 73 295q67 109 175.5 183.5t236.5 140.5q64 34 129 71v104h-224q23 8 32 19.5t14 23t12 20.5t22 15t44 6h101q0 69 2 78q6 153 38 248q53 158 212 255
q105 61 219 61q59 0 71 -12q-92 -27 -150 -128q-38 -68 -56 -148.5t-22.5 -158.5t-4.5 -135v-60h150q-22 -9 -31.5 -20.5t-14.5 -23t-12 -20.5t-22 -14.5t-45 -5.5h-25v-934q0 -51 8 -84t32.5 -49t71.5 -16q48 0 81 28.5t51 71.5t21 90h90q-16 -132 -60 -210
q-36 -67 -87 -113q-86 -76 -227 -76zM625 194q26 0 52 12q48 25 69.5 74.5t21.5 103.5v642l-54 -32q-105 -60 -158 -126t-70 -152.5t-17 -211.5q0 -114 17 -178q12 -44 34 -81q30 -51 105 -51z" />
    <glyph glyph-name="Doan" unicode="jumps" horiz-adv-x="4946" 
d="M813 472v-302q0 -60 -20.5 -96.5t-54 -61.5t-73.5 -46q-64 -33 -121 -88q94 -25 196 -25q79 0 158 14q147 28 236.5 109.5t130 199.5t40.5 252q0 132 -34 267q-61 238 -185.5 396t-310.5 309q-35 25 -75 51q-96 62 -183.5 135.5t-115.5 162.5q-8 30 -8 58q0 68 37 126
t90.5 107t108.5 92q30 23 56 45q-1 -1 -2 -3q-31 -36 -58 -79t-27 -91q0 -17 4 -35q18 -60 90 -122.5t177 -135.5q119 -82 249.5 -191t242.5 -258q99 -137 154.5 -310.5t55.5 -351.5q0 -118 -27 -230.5t-85 -210.5q-137 -223 -376 -369t-492 -158h-28q-153 0 -281 41
t-205 116t-77 178q0 79 55.5 173t179.5 199l66 56q-46 -109 -46 -196q0 -78 31.5 -138t87.5 -103t129 -68v582h-324q32 18 51.5 43.5t33.5 52.5q13 23 27.5 43t36.5 32.5t57 12.5h118v300q0 60 21 97t54 61.5t73 46.5q45 24 87.5 56.5t74.5 86.5v-648h341
q-32 -19 -51.5 -44.5t-33.5 -52.5q-13 -23 -27.5 -43t-36.5 -32t-57 -12h-135zM2085 -17q-76 0 -145.5 26t-126 86t-81.5 126.5t-30.5 137.5t-5.5 146v22q0 114 36 196t94.5 140.5t127 102t135.5 78.5q80 41 139 83t76 98q132 -92 198 -176.5t88.5 -183.5t23.5 -235v-18
q0 -143 -40.5 -271t-128.5 -218.5t-229 -124.5q-63 -15 -131 -15zM2156 189q40 0 76 34t55 102q18 72 18 202v199q0 53 -22 103t-70 74q-30 15 -58 15t-58 -15q-48 -24 -69.5 -74t-21.5 -103v-199q0 -48 3 -101.5t15 -100.5q19 -68 55 -102t77 -34zM3645 -15
q-105 0 -164.5 53t-83.5 145q-40 -89 -106.5 -143.5t-171.5 -54.5q-73 0 -138.5 27.5t-118.5 82.5q-59 63 -88.5 148t-29.5 173q0 53 11 105q36 152 132 247t227 166q67 37 142 74q129 61 243.5 136.5t164.5 183.5v-985q0 -51 8 -84t32.5 -49t71.5 -16q48 0 81 28.5t51 71.5
t21 90h90q-16 -132 -60 -210q-36 -67 -88 -113q-84 -76 -226 -76zM3204 191q27 0 59 15q50 26 70.5 77t20.5 106v530l-54 -31q-122 -70 -175 -149q-69 -103 -69 -283q0 -148 64 -225q33 -40 84 -40zM3443 1270q-46 0 -95 8.5t-95 26t-86.5 45t-70.5 65.5q-51 62 -51 123
q0 74 72 120q39 21 64 25.5t32 4.5q-3 -26 -1 -55q2 -26 8.5 -58.5t23.5 -67.5q35 -75 93 -135t127 -102h-21zM4239 170q0 -60 -21 -97t-54 -61.5t-73 -46.5q-45 -24 -87.5 -56.5t-75.5 -86.5v711q6 165 83.5 268.5t169.5 160.5q51 33 116 68q82 43 151 91.5t88 105.5
q188 -130 248.5 -255.5t60.5 -312.5q2 -94 2 -189v-126q0 -51 8 -84t32 -49t72 -16t80.5 28.5t50.5 71.5t22 90h90q-18 -132 -60 -210q-36 -67 -87.5 -113t-119.5 -62q-56 -13 -111 -13q-68 0 -126.5 21.5t-94.5 69.5q-66 92 -66 242v408q0 53 -22 103t-70 74q-28 15 -58 15
q-27 0 -58 -15q-48 -24 -69.5 -74t-21.5 -103l1 -316v-242z" />
    <glyph glyph-name="Kem" unicode="fox" horiz-adv-x="4102" 
d="M1689 -590q-95 0 -204 46q-82 34 -147 93q-122 112 -152 362q-22 209 -23 434q-1 65 -3 121q-3 224 -55 293.5t-169 76.5l-17 1l-1 -563q0 -538 -594 -734q-97 -34 -217 -34q-179 0 -261 93q-57 64 -57 147q0 119 102 225l89 88q-37 -50 -37 -93q0 -54 43 -94.5
t106 -64.5t128 -28l42 -1q216 0 297 78q32 31 41 73.5t9 135.5l-1 -1q0 1341 1 1361q-92 -45 -153.5 -105t-81.5 -160q-7 -35 -7 -67q0 -100 61 -181q17 -22 34 -35l4 -3q-50 -59 -140 -59q-55 0 -107 26t-85 77q-34 58 -34 130q0 135 114 256q77 77 181 132t207 100t159 76
q114 62 158 141v-789q38 32 86 136q51 114 111 276q56 152 109 274q53 118 101.5 179t103.5 90q92 49 200 49q82 -4 124 -25q77 -37 90 -93q-39 18 -79 18q-48 0 -115 -51.5t-150 -216.5q-49 -102 -100 -227q-38 -91 -74 -172q-42 -94 -86 -161t-104 -109q-5 -2 -8 -5
q54 -13 89 -33.5t73 -50.5q84 -59 137 -175q47 -116 54 -321q3 -88 4 -184q0 -137 8 -251q12 -182 76.5 -268.5t164.5 -124.5q60 -22 159 -22q-5 -26 -46 -49q-68 -37 -158 -37zM2105 -17h-22q-118 0 -217 55.5t-156 174.5q-57 130 -57 265v51q0 114 36 196t94.5 141
t127 102t135.5 78q80 42 139 84t76 97q51 -36 93 -70q134 -116 134 -282l-2 -37q-11 -101 -64.5 -172t-132 -123.5t-163.5 -98.5q-97 -53 -119 -67l-26 -15q23 -107 82 -155.5t137 -49.5l26 -1q130 0 248 54.5t187 173.5h73q-46 -125 -146.5 -212.5t-227.5 -135t-255 -53.5z
M1963 499l52 28q28 14 67 37q65 38 114.5 98t49.5 124q0 44 -32 85q-46 49 -101 49q-37 0 -71.5 -22t-56.5 -65t-22 -105v-229zM2946 170q0 -60 -21 -97t-54 -61.5t-73 -46.5q-45 -24 -87.5 -56.5t-73.5 -86.5v770q0 78 29.5 140t78 111.5t108 91.5t119.5 80l32 20
q70 45 106.5 89t51.5 103q203 -140 260 -278q51 49 107 84q53 32 97 75t66 119q188 -130 248.5 -255.5t60.5 -312.5q2 -94 2 -189v-126q0 -51 8 -84t32 -49t72 -16t80.5 28.5t50.5 71.5t22 90h90q-18 -132 -60 -210q-36 -67 -87.5 -113t-119.5 -62q-56 -13 -111 -13
q-68 0 -126.5 21.5t-94.5 69.5q-66 92 -66 242v408q0 47 -17 92t-54 73q-19 13 -39 13q-17 0 -34 -10q-39 -28 -56.5 -74t-17.5 -94v-558q0 -60 -21 -97t-54 -61.5t-73 -46.5q-45 -24 -87.5 -56.5t-76.5 -86.5v906q0 47 -17 92t-54 73q-19 13 -39 13q-17 0 -33 -10
q-39 -28 -56.5 -74t-17.5 -94v-558z" />
    <glyph glyph-name="Viet" unicode="The" horiz-adv-x="3350" 
d="M501 -178q-126 88 -198.5 170t-106 169t-41.5 190.5t-8 236.5v1165q32 -54 75 -86.5t87 -57.5q40 -21 73.5 -46t54 -62t20.5 -96l1 -1002q0 -76 31 -147t99 -106q42 -21 83 -21q40 0 82 21q69 35 99.5 106t30.5 147v738q0 105 10 231q25 294 159 426q65 59 147 94
q107 45 201 45q95 0 161 -37q27 -15 35.5 -27t10.5 -22q-106 0 -167 -22q-42 -16 -86 -47q-99 -71 -132 -198q-29 -109 -29 -294q1 -151 1 -731q0 -129 -61 -234.5t-174 -171.5q-129 -76 -261 -152q-75 -40 -128 -82t-69 -97zM1553 1260l-179 180l179 179l180 -179z
M1685 -13q-68 0 -126.5 21.5t-94.5 69.5q-66 92 -66 242v560q0 116 105 180l33 19q53 27 96 59.5t76 89.5v-884q0 -51 8 -84t32 -49t72 -16t80.5 28.5t50.5 71.5t22 90h90q-18 -132 -60 -210q-36 -67 -88 -113q-84 -75 -230 -75zM2413 -17h-22q-118 0 -217 55.5t-156 174.5
q-57 130 -57 265v51q0 114 36 196t94.5 141t127 102t135.5 78q80 42 139 84t76 97q51 -36 93 -70q134 -116 134 -282l-2 -37q-11 -101 -64.5 -172t-132 -123.5t-163.5 -98.5q-97 -53 -119 -67l-26 -15q23 -107 82 -155.5t137 -49.5l26 -1q130 0 248 54.5t187 173.5h73
q-46 -125 -146.5 -212.5t-227.5 -135t-255 -53.5zM2271 499l52 28q28 14 67 37q65 38 114.5 98t49.5 124q0 44 -32 85q-46 49 -101 49q-37 0 -71.5 -22t-56.5 -65t-22 -105v-229zM2407 -469l-164 164l164 165l165 -165zM2625 1268q-44 0 -80.5 23.5t-64 58.5t-46 77
t-27.5 79q-26 -110 -86 -173q-60 -65 -129 -65q-57 0 -108 53q-37 44 -47 90q69 7 127.5 35t105 70.5t81 97.5t56.5 116q22 -61 56.5 -116t81 -97.5t105.5 -70.5t129 -35q-10 -46 -45 -90q-53 -53 -109 -53zM3240 -13q-166 0 -232.5 91.5t-66.5 242.5v699h-123l21 47
q35 63 102 63v46q0 115 105 180l33 18q53 28 96 60t76 90v-394h153l-21 -46q-34 -64 -100 -64h-32v-675q0 -86 23.5 -117.5t88.5 -31.5t105.5 54.5t47.5 135.5h90q-33 -239 -157 -331q-90 -68 -209 -68z" />
    <glyph glyph-name="boi" unicode="brown" horiz-adv-x="2681" 
d="M548 -15q-85 0 -162 29t-134 87q-84 91 -87 220l1 1087q5 116 105 175l32 18q53 28 96 60t76 89v-750q43 25 85 47q80 42 138 83.5t75 96.5q188 -130 248.5 -255.5t60.5 -312.5l1 -50q0 -122 -25.5 -231.5t-93 -197t-190.5 -145.5q-113 -50 -226 -50zM585 194
q119 0 161 165q28 110 28 296v73q0 53 -22 103t-70 74q-28 15 -57 15q-27 0 -58 -15q-48 -24 -70 -74t-22 -103l-1 -337q0 -47 7 -92.5t30.5 -75t73.5 -29.5zM1602 -17q-76 0 -145.5 26t-126 86t-81.5 126.5t-30.5 137.5t-5.5 146v22q0 114 36 196t94.5 140.5t127 102
t135.5 78.5q80 41 139 83t76 98q132 -92 198 -176.5t88.5 -183.5t23.5 -235v-18q0 -143 -40.5 -271t-128.5 -218.5t-229 -124.5q-63 -15 -131 -15zM1673 189q40 0 76 34t55 102q18 72 18 202v199q0 53 -22 103t-70 74q-30 15 -58 15t-58 -15q-48 -24 -69.5 -74t-21.5 -103
v-199q0 -48 3 -101.5t15 -100.5q19 -68 55 -102t77 -34zM1833 900l51 137q94 81 94 165.5t-94 122.5l141 148l136 -143q0 -9 -3 -20q-8 -40 -33.5 -82.5t-60.5 -84.5q-42 -51 -72.5 -84.5t-56.5 -58.5t-49.5 -47.5t-52.5 -52.5zM1629 1370q3 5 12 19t19.5 31t21 33.5
t15.5 26.5q12 21 17.5 38t7.5 29q2 14 1 25q0 10 -3 24.5t-11 28t-22.5 23.5t-37.5 10q-19 0 -32 -8.5t-21 -20.5t-12 -25t-4 -23q0 -17 4 -32.5t22 -32.5q11 -8 19.5 -12t13.5 -6q7 -2 12 -1q-23 -33 -49 -44.5t-52 -11.5q-23 0 -43 12.5t-34.5 32.5t-22.5 45.5t-7 52.5
q1 31 14.5 55.5t31 42.5t35.5 30t27 16q25 11 49.5 22t42.5 23q37 26 40 62q37 -15 74.5 -36t68 -49.5t49.5 -64.5t19 -81q0 -32 -12.5 -62.5t-32 -60t-42.5 -57t-46 -54.5q-22 -26 -35 -50t-18 -43t-3.5 -32t8.5 -19q-13 0 -34 12.5t-37.5 32.5t-22.5 46t10 53zM2427 1260
l-179 180l179 179l180 -179zM2559 -13q-68 0 -126.5 21.5t-94.5 69.5q-66 92 -66 242v560q0 116 105 180l33 19q53 27 96 59.5t76 89.5v-884q0 -51 8 -84t32 -49t72 -16t80.5 28.5t50.5 71.5t22 90h90q-18 -132 -60 -210q-36 -67 -88 -113q-84 -75 -230 -75z" />
    <glyph glyph-name="hoa" unicode="quick" horiz-adv-x="3404" 
d="M475 170q0 -60 -21 -97t-54 -61.5t-73 -46.5q-45 -24 -87.5 -56.5t-74.5 -86.5v1594q8 111 105 167q17 10 33 19q53 27 96 59.5t76 89.5v-751q44 25 86 48q79 41 137 82.5t74 96.5q188 -130 249 -255.5t61 -312.5l2 -135l-1 -180q0 -51 8 -84t32.5 -49t71.5 -16
q48 0 81 28.5t51 71.5t21 90h91q-18 -132 -61 -210q-36 -67 -87.5 -113t-118.5 -62q-56 -13 -111 -13q-68 0 -126.5 21.5t-94.5 69.5q-67 92 -67 242v408q0 53 -21.5 103t-69.5 74q-28 15 -58 15q-27 0 -58 -15q-48 -24 -69.5 -74t-21.5 -103v-558zM1726 -17
q-76 0 -145.5 26t-126 86t-81.5 126.5t-30.5 137.5t-5.5 146v22q0 114 36 196t94.5 140.5t127 102t135.5 78.5q80 41 139 83t76 98q132 -92 198 -176.5t88.5 -183.5t23.5 -235v-18q0 -143 -40.5 -271t-128.5 -218.5t-229 -124.5q-63 -15 -131 -15zM1797 189q40 0 76 34
t55 102q18 72 18 202v199q0 53 -22 103t-70 74q-30 15 -58 15t-58 -15q-48 -24 -69.5 -74t-21.5 -103v-199q0 -48 3 -101.5t15 -100.5q19 -68 55 -102t77 -34zM1637 1310q69 42 126.5 102t92.5 135q17 35 23.5 67.5t8.5 58.5q2 29 -1 55q7 0 32.5 -4.5t64.5 -25.5
q72 -46 72 -120q0 -39 -17.5 -73.5t-45.5 -63.5t-62 -51.5t-66 -37.5q-90 -42 -207 -42h-21zM3286 -15q-105 0 -164.5 53t-83.5 145q-40 -89 -106.5 -143.5t-171.5 -54.5q-73 0 -138.5 27.5t-118.5 82.5q-59 63 -88.5 148t-29.5 173q0 53 11 105q36 152 132 247t227 166
q67 37 142 74q129 61 243.5 136.5t164.5 183.5v-985q0 -51 8 -84t32.5 -49t71.5 -16q48 0 81 28.5t51 71.5t21 90h90q-16 -132 -60 -210q-36 -67 -88 -113q-84 -76 -226 -76zM2845 191q27 0 59 15q50 26 70.5 77t20.5 106v530l-54 -31q-122 -70 -175 -149q-69 -103 -69 -283
q0 -148 64 -225q33 -40 84 -40z" />
    <glyph glyph-name="transparents" unicode="dog" horiz-adv-x="683" 
 />
    <glyph glyph-name=".notdef" horiz-adv-x="1024" 
 />
    <glyph glyph-name=".null" horiz-adv-x="0" 
 />
    <glyph glyph-name=".null" horiz-adv-x="0" 
 />
    <glyph glyph-name="uni000D" unicode="&#xd;" horiz-adv-x="512" 
 />
    <glyph glyph-name="space" unicode=" " horiz-adv-x="508" 
 />
    <glyph glyph-name="space" unicode="&#xa0;" horiz-adv-x="508" 
 />
    <glyph glyph-name="exclam" unicode="!" horiz-adv-x="638" 
d="M164 470v935q0 115 105 180l33 18q53 28 96 60t76 90v-934q0 -116 -105 -181l-33 -18q-53 -28 -96 -60t-76 -90zM319 0l-219 219l219 219l219 -219z" />
    <glyph glyph-name="quotedbl" unicode="&#x22;" horiz-adv-x="1042" 
d="M328 1131l-164 456l164 163l163 -163zM715 1131l-163 456l163 163l163 -163z" />
    <glyph glyph-name="numbersign" unicode="#" horiz-adv-x="1637" 
d="M791 -179l128 724h-287l-66 -376q-17 -86 -67.5 -129.5t-116.5 -74.5q-49 -24 -97.5 -56.5t-90.5 -87.5l128 724h-222l21 47q34 63 102 63h118l47 264h-288l21 47q34 63 102 63h184l67 376q17 87 67.5 130t115.5 74q49 24 98 56.5t90 87.5l-128 -724h287l66 376
q17 87 67.5 130t116.5 74q49 24 97.5 56.5t90.5 87.5l-128 -724h223l-22 -46q-34 -64 -100 -64h-120l-47 -264h289l-22 -47q-34 -63 -100 -63h-186l-67 -376q-17 -86 -67 -129.5t-116 -74.5q-49 -24 -98 -56.5t-90 -87.5zM938 655l47 264h-287l-47 -264h287z" />
    <glyph glyph-name="dollar" unicode="$" horiz-adv-x="1253" 
d="M572 -309v254q-75 -51 -104 -124q-304 211 -304 392q0 65 35.5 128t94 97t131.5 34v-69q0 -76 31 -147t99 -106l17 -8v495l-24 14q-113 59 -209.5 142t-130.5 226q-11 57 -11 107q0 122 63 207.5t180 156.5q39 23 88 49l44 23v200q0 66 63 100l47 21v-254q76 52 103 124
q304 -210 304 -392q0 -65 -35 -128q-80 -130 -225 -130v69q0 76 -31 147t-100 106l-16 7v-494l28 -16q112 -60 207 -142.5t128 -224.5q11 -57 11 -107q0 -122 -63 -207t-180 -156q-36 -22 -81 -45l-50 -27v-199q0 -67 -64 -101zM572 1007v433q-30 -7 -55 -23
q-46 -32 -69.5 -76.5t-23.5 -94.5q0 -51 24 -102q41 -81 124 -137zM682 135q29 7 55 22q46 32 69 76.5t23 94.5q0 51 -24 102q-41 82 -123 137v-432z" />
    <glyph glyph-name="percent" unicode="%" horiz-adv-x="1613" 
d="M336 750q-47 0 -89 16t-76 50q-34 37 -49 77.5t-18.5 83t-3.5 87.5v201q0 92 37 150.5t91.5 96.5t108.5 66q49 25 85 50.5t46 59.5q117 -81 152 -159t35 -195q0 -46 -2 -69v-186q-8 -116 -65.5 -203.5t-172.5 -116.5q-38 -9 -79 -9zM485 -67h-175l818 1753h175zM378 861
q30 0 57 25.5t41.5 77.5t14.5 153v262q0 41 -16.5 78.5t-53.5 55.5q-22 11 -43 11t-44 -11q-36 -18 -52.5 -55.5t-16.5 -78.5v-272q0 -36 2 -73.5t11 -70.5q15 -51 42 -76.5t58 -25.5zM1194 -69q-47 0 -89 16t-76 50q-34 37 -49 77.5t-18.5 83t-3.5 87.5v201q0 92 37 150.5
t91.5 96.5t108.5 66q49 25 85 50.5t46 59.5q117 -81 152 -159t35 -195q0 -46 -2 -69v-186q-8 -116 -65.5 -203.5t-172.5 -116.5q-38 -9 -79 -9zM1236 42q30 0 57 25.5t41.5 77.5t14.5 153v262q0 41 -16.5 78.5t-53.5 55.5q-22 11 -43 11t-44 -11q-36 -18 -52.5 -55.5
t-16.5 -78.5v-272q0 -36 2 -73.5t11 -70.5q15 -51 42 -76.5t58 -25.5z" />
    <glyph glyph-name="ampersand" unicode="&#x26;" horiz-adv-x="1628" 
d="M629 -117q-66 0 -130 15q-202 51 -300.5 168t-98.5 262q0 105 50 214t149 209q26 26 66 60l2 1q-105 50 -151.5 116t-46.5 139q0 81 46.5 163.5t123.5 155t170 125.5l65 35q91 47 158.5 95t86.5 112q304 -208 304 -393q0 -67 -33.5 -125.5t-92 -95t-135.5 -36.5v69
q0 76 -30.5 147t-99.5 106q-42 21 -82 21q-41 0 -83 -21q-54 -27 -89 -82t-35 -115q0 -28 8 -54q44 -130 193 -163l81 -18q-88 -72 -151 -128q-60 -53 -110 -112q-112 -134 -112 -266q0 -65 29 -136q46 -104 131 -151t184 -47q108 0 214 49q111 49 174 151q56 108 56 234v4
l-67 11q-90 19 -147 19q-71 -3 -102 -32q-35 -35 -35 -76l1 -21q-23 21 -43.5 45t-30 52.5t-9.5 58.5q0 40 16 78q27 61 101 91q63 25 142 25l41 -2q58 -8 117 -23q43 -11 84 -19q50 -9 94 -9t80 9q70 21 99 60q26 36 33 73l2 -10q10 -39 12 -82q0 -33 -15 -76
q-21 -61 -82 -117q-80 -64 -196 -64q15 -55 15 -111q0 -134 -68 -260t-173 -203q-177 -125 -380 -125z" />
    <glyph glyph-name="quotesingle" unicode="'" horiz-adv-x="499" 
d="M327 1131l-163 456l163 163l164 -163z" />
    <glyph glyph-name="parenleft" unicode="(" horiz-adv-x="573" 
d="M673 1576q-41 0 -82 -21q-69 -35 -100 -106t-31 -147v-1476q0 -76 31 -147t100 -106q41 -21 82 -21v-142q-36 20 -76 41q-76 40 -154 89t-144.5 116t-107.5 160.5t-41 223.5v1048q0 130 41 223t107.5 160t144.5 116.5t154 88.5q40 21 76 42v-142z" />
    <glyph glyph-name="parenright" unicode=")" horiz-adv-x="623" 
d="M0 1576v142q36 -21 76 -42q76 -39 154 -88.5t144.5 -116.5t107.5 -160t41 -223v-1048q0 -130 -41 -223.5t-107.5 -160.5t-144.5 -116t-154 -89q-40 -21 -76 -41v142q41 0 82 21q69 35 100 106t31 147v1476q0 76 -31 147t-100 106q-41 21 -82 21z" />
    <glyph glyph-name="asterisk" unicode="*" horiz-adv-x="1030" 
d="M771 899l-230 36l32 201l-58 81l-59 -81l32 -201l-230 -36l-36 230l201 32l58 80l-94 30l-181 -92l-106 207l207 106l93 -181l94 -31v99l-144 144l165 165l164 -165l-144 -144v-99l95 31l92 181l208 -106l-106 -207l-182 92l-94 -30l58 -80l201 -32z" />
    <glyph glyph-name="plus" unicode="+" horiz-adv-x="974" 
d="M579 423h-184v295h-295v184h295v295h184v-295h295v-184h-295v-295z" />
    <glyph glyph-name="comma" unicode="," horiz-adv-x="889" 
d="M581 -265q78 121 78 211q0 72 -42 136t-117 137l219 219l220 -219l-132 -132q4 -21 4 -42q0 -100 -66.5 -192.5t-163.5 -117.5z" />
    <glyph glyph-name="hyphen" unicode="-" horiz-adv-x="841" 
d="M620 517h-525q32 19 51.5 44.5t33 50.5t28.5 44.5t36.5 32t57.5 12.5h524q-32 -19 -51.5 -44.5t-33 -50.5t-28 -45t-36.5 -32t-57 -12z" />
    <glyph glyph-name="hyphen" unicode="&#xad;" horiz-adv-x="841" 
d="M620 517h-525q32 19 51.5 44.5t33 50.5t28.5 44.5t36.5 32t57.5 12.5h524q-32 -19 -51.5 -44.5t-33 -50.5t-28 -45t-36.5 -32t-57 -12z" />
    <glyph glyph-name="period" unicode="." horiz-adv-x="888" 
d="M719 0l-219 219l219 219l219 -219z" />
    <glyph glyph-name="slash" unicode="/" horiz-adv-x="1673" 
d="M120 -178l1031 1785q64 103 178 103l41 -1q47 0 91 8t92 36l-1030 -1785q-67 -104 -181 -104l-43 1q-46 0 -89 -8t-90 -35z" />
    <glyph glyph-name="zero" unicode="0" horiz-adv-x="1202" 
d="M542 -12q-86 0 -165 28q-80 31 -143.5 99t-92 143t-35 155.5t-6.5 165.5v379q0 130 41 223t107.5 160t144.5 116.5t154 89.5q92 47 159 95t86 111q150 -104 225.5 -200.5t101 -209.5t26.5 -268v-28q0 -45 -4 -89v-350q-17 -220 -125 -384.5t-324 -218.5q-73 -17 -150 -17
zM623 197q57 0 108 48.5t78 144.5q17 67 21.5 143.5t4.5 144.5v494q0 76 -30.5 147t-99.5 106q-42 21 -82 21q-41 0 -83 -21q-68 -35 -99 -106t-31 -147v-484q0 -74 4 -152t22 -146q27 -96 78.5 -144.5t108.5 -48.5z" />
    <glyph glyph-name="one" unicode="1" horiz-adv-x="934" 
d="M460 -122v1416q-102 -36 -150 -102q-32 -52 -32 -101q1 -54 25 -104l-32 1q-59 5 -111 69q-36 47 -36 112l1 17q8 87 80 177q75 84 199 143q44 22 90 42l48 22q10 8 59 35q45 23 82 49l51 47q20 22 36 52v-1527q0 -115 -105 -181l-29 -16q-55 -28 -98.5 -60t-77.5 -91z
" />
    <glyph glyph-name="two" unicode="2" horiz-adv-x="1142" 
d="M0 0l3 23q10 76 31 165q43 175 115.5 303t175 236.5t234.5 222.5q67 60 94 88q38 39 62.5 83.5t24.5 97.5q0 31 -10 66q-22 71 -74.5 114.5t-120.5 43.5q-34 0 -71 -13q-66 -27 -104.5 -96t-38.5 -141q0 -36 11 -68q14 -39 33.5 -56t60.5 -17q-26 -66 -85 -107
q-51 -33 -106 -33q-58 0 -107 33t-68 93q-11 38 -11 74q0 72 36 133q64 110 211 207q75 49 166 96q73 37 145 87t96 118q73 -51 141 -111.5t117 -135.5q34 -55 58.5 -126.5t25.5 -137.5q0 -90 -37.5 -166t-99.5 -142t-139 -125.5t-159 -116.5q-96 -67 -182 -136t-145 -146
q-45 -67 -60 -120q19 18 61 36q78 31 169 31q75 0 153 -19q51 -13 110 -32.5t118 -35t109 -15.5q70 0 114 44q28 28 35 58l-2 -10q-14 -102 -53 -189q-47 -93 -140 -134q-51 -19 -106 -19q-61 0 -126.5 16t-131.5 36q-160 52 -262 52q-56 0 -101.5 -10t-76.5 -24
q-38 -17 -58.5 -36t-34.5 -39z" />
    <glyph glyph-name="three" unicode="3" horiz-adv-x="1145" 
d="M519 -5q-142 0 -259 69q-93 55 -151.5 139t-58.5 182q0 86 55 175q38 55 94 88t119 33t126 -38q30 -20 47 -44.5t29 -50.5q-22 2 -45 2q-49 0 -83 -21q-12 -7 -22 -17q-66 -60 -66 -138q0 -69 52 -123.5t137 -54.5q25 0 53 6q113 29 167 126t54 204q0 31 -4 61
q-26 139 -129.5 209.5t-237.5 78.5l17 8q62 29 125 67q67 41 108.5 94.5t49.5 132.5l1 24q0 69 -28 117t-71 73.5t-87 25.5q-54 0 -96 -40q-35 -42 -35 -91q0 -81 71 -144q22 -17 44 -23.5t44 -8.5l-3 -3q-41 -60 -98 -95q-39 -19 -78 -19q-103 0 -173 100q-30 58 -30 107
l-1 19q0 125 117 229q59 51 130 90q93 48 161.5 96.5t88.5 112.5q165 -115 242 -223q74 -105 74 -214q0 -113 -70.5 -210t-181.5 -164q88 -27 174 -82q154 -107 195 -290q9 -47 9 -92q0 -109 -49.5 -198t-132.5 -152.5t-186 -98t-208 -34.5z" />
    <glyph glyph-name="four" unicode="4" horiz-adv-x="1169" 
d="M681 -122v531h-681q70 119 141 281t119.5 341t48.5 342q0 160 -55 273q-19 38 -35 55.5t-31 28.5l8 3q44 17 120 20q87 0 150 -42t97 -139q19 -59 19 -136q0 -138 -49 -309t-117.5 -325.5t-131.5 -250.5l397 -2v856q0 116 105 180l33 19q53 27 96 59.5t76 89.5v-1204h154
l-29 -88q-22 -52 -72 -52h-53v-183q0 -115 -106 -181l-31 -17q-54 -27 -97 -59.5t-76 -90.5z" />
    <glyph glyph-name="five" unicode="5" horiz-adv-x="1147" 
d="M467 -5q-94 0 -184 34q-107 43 -170 132.5t-63 195.5q0 72 34 145q28 50 83 79.5t114 29.5q68 0 136 -45q45 -30 69 -70h-13q-117 0 -151 -122q-6 -26 -6 -50q0 -40 21 -78q28 -49 74.5 -73.5t97.5 -24.5q80 0 150 56q63 56 94.5 143.5t31.5 183.5q0 120 -46.5 230
t-137.5 169q-71 43 -169 43q-139 0 -310 -93q58 337 101 701l9 73q133 -51 312 -51q88 0 175 13.5t148 43.5q55 26 83.5 57.5t28.5 86.5l-1 19q12 -5 20 -9.5t28 -26.5q57 -75 57 -161q0 -50 -19 -97.5t-56 -82.5q-112 -103 -302 -103q-94 0 -185 21q-83 20 -176 51
l-38 -297q160 57 297 57q43 0 76 -5q139 -19 226.5 -92t128.5 -181t41 -228q0 -211 -112 -402q-81 -126 -215.5 -199t-281.5 -73z" />
    <glyph glyph-name="six" unicode="6" horiz-adv-x="1199" 
d="M545 -13q-78 0 -149 23q-102 35 -162 99t-88.5 147t-36.5 176.5t-8 186.5l-1 222l1 110q3 149 52 251.5t138 178.5q98 83 252 163q74 36 149 87.5t101 120.5q54 -33 116 -88.5t91 -88.5q47 -76 47 -150q0 -88 -56.5 -157t-154.5 -87q-5 117 -64.5 190.5t-144.5 73.5
q-42 0 -86 -20q-57 -29 -86 -79.5t-37.5 -114.5t-8.5 -131q0 -37 1 -72.5t1 -68.5q64 66 147.5 100.5t172.5 34.5q81 0 160 -31q90 -37 146 -100.5t82 -146t26 -173.5l-1 -36q-9 -147 -68.5 -279.5t-176.5 -224.5q-72 -55 -165.5 -85.5t-188.5 -30.5zM625 196q82 4 126 65.5
t60.5 151t16.5 172.5q0 69 -7 120q-8 60 -32.5 109.5t-62.5 79.5t-88 30t-111 -37q-33 -25 -57 -60q-58 -86 -58 -242q0 -143 48 -257q14 -33 37.5 -63t55 -49.5t69.5 -19.5h3z" />
    <glyph glyph-name="seven" unicode="7" horiz-adv-x="957" 
d="M548 -6q-151 0 -240.5 98.5t-89.5 263.5v9q9 221 216 539q140 215 316 438q-77 5 -171 26q-46 10 -95.5 18.5t-95.5 8.5q-63 0 -111 -26q-35 -23 -46.5 -58.5t-11.5 -75.5h-4q-19 0 -55.5 12t-69.5 39q-68 62 -68 141q6 103 104 163q60 37 155 37q86 0 249 -38
q72 -16 137 -27q73 -12 133 -12q84 0 157 21.5t161 61.5q-80 -126 -155 -251q-102 -164 -212.5 -372.5t-153.5 -383.5q-17 -80 -17 -166q0 -179 65 -345q22 -49 49 -96q-68 -25 -146 -25z" />
    <glyph glyph-name="eight" unicode="8" horiz-adv-x="1045" 
d="M498 -42q-25 0 -50 2q-328 23 -392 310q-13 64 -13 121q0 106 41 192t110.5 159.5t158.5 142.5q-62 52 -116 108t-88.5 122t-34.5 148q0 26 4 53q14 102 62 175.5t147 111.5q94 34 195 34q115 0 221.5 -48t169.5 -149q49 -87 49 -169q0 -73 -31 -140t-81.5 -125.5
t-112.5 -105.5l19 -13q91 -61 159 -131q56 -58 88.5 -127.5t32.5 -156.5q0 -31 -5 -65q-34 -209 -183.5 -329t-349.5 -120zM553 1040q7 0 35 27q57 55 86 116q27 57 27 117q0 57 -29 113q-29 52 -70 78t-82 26q-43 0 -79 -29t-51 -88q-8 -31 -8 -61q0 -58 23.5 -111
t60.5 -99.5t79 -84.5zM511 194q68 0 132 43.5t93 122.5q13 39 13 75q0 66 -34.5 121t-85.5 102q-39 36 -113 96l-14 -11q-83 -60 -135 -154q-42 -78 -42 -168q5 -126 65 -179q54 -48 121 -48z" />
    <glyph glyph-name="nine" unicode="9" horiz-adv-x="1202" 
d="M451 -128q-54 33 -115.5 88.5t-91.5 88.5q-47 76 -47 150q0 88 56.5 157t154.5 87q5 -117 64.5 -190.5t144.5 -73.5q42 0 86 20q57 29 86 79.5t37.5 114.5t8.5 131q0 37 -1 73t-1 69q-64 -66 -147.5 -101t-172.5 -35q-81 0 -160 31q-90 37 -146 100t-81.5 145t-25.5 172
l1 39q8 147 68 279.5t177 224.5q72 55 165 85.5t188 30.5q78 0 149 -23q102 -35 162 -99t88.5 -147t36.5 -176.5t8 -186.5l1 -222l-1 -110q-3 -149 -52 -251.5t-138 -178.5q-98 -83 -252 -163q-74 -36 -149 -87.5t-101 -120.5zM606 700q50 0 111 37q33 26 57 60
q58 86 58 241q0 143 -48 258q-14 33 -37.5 63t-55 49.5t-69.5 19.5q-83 -1 -129 -65q-77 -106 -77 -323q0 -70 7 -121q8 -60 32.5 -109.5t62.5 -79.5t88 -30z" />
    <glyph glyph-name="colon" unicode=":" horiz-adv-x="766" 
d="M383 0l-219 220l219 219l219 -219zM383 524l-219 219l219 220l219 -220z" />
    <glyph glyph-name="semicolon" unicode=";" horiz-adv-x="766" 
d="M383 524l-219 219l219 220l219 -220zM244 -264q79 121 79 211q0 72 -42 136t-117 137l219 219l219 -219l-132 -132q4 -22 4 -44q0 -99 -66.5 -191t-163.5 -117z" />
    <glyph glyph-name="less" unicode="&#x3c;" horiz-adv-x="873" 
d="M709 52q-47 20 -108 20q-20 0 -38.5 -1t-36.5 -1q-34 0 -66 10t-61 44l-235 280l235 281q29 34 61 44t66 10q18 0 36.5 -1t38.5 -1q61 0 108 20l-296 -353z" />
    <glyph glyph-name="equal" unicode="=" horiz-adv-x="1102" 
d="M938 313h-774v184h774v-184zM938 644h-774v184h774v-184z" />
    <glyph glyph-name="greater" unicode="&#x3e;" horiz-adv-x="873" 
d="M164 52l296 352l-296 353q47 -20 108 -20q20 0 38.5 1t36.5 1q34 0 66 -10t61 -44l235 -281l-235 -280q-29 -34 -61 -44t-66 -10q-18 0 -36.5 1t-38.5 1q-61 0 -108 -20z" />
    <glyph glyph-name="question" unicode="?" horiz-adv-x="1013" 
d="M517 513q-53 0 -97 30t-56 97q-3 18 -3 35q0 54 22 102t55.5 93t70.5 88q50 56 87.5 111.5t43.5 114.5l1 24q0 69 -28 116.5t-71 73t-87 25.5q-54 0 -96 -40q-35 -42 -35 -91q0 -81 71 -144q22 -17 44 -23.5t44 -8.5l-3 -3q-41 -60 -98 -95q-39 -19 -78 -19
q-103 0 -172 100q-30 60 -31 107l-1 19q0 125 117 229q59 51 130 90q93 48 161.5 96.5t88.5 112.5q166 -115 241 -221.5t75 -215.5q0 -95 -52 -180q-45 -69 -101 -124q-48 -48 -86.5 -103.5t-50.5 -135.5q-2 -19 -2 -35q0 -42 20 -64.5t68 -33.5q-19 -43 -57 -79
q-62 -48 -135 -48zM507 0l-219 219l219 219l219 -219z" />
    <glyph glyph-name="at" unicode="@" horiz-adv-x="2188" 
d="M1094 -368q-206 0 -386.5 77.5t-316.5 213.5t-213.5 316.5t-77.5 386.5t77.5 386t213.5 316t316.5 213.5t386.5 77.5q209 -2 388.5 -79t315.5 -213.5t213 -316.5t77 -387q-1 -183 -88 -328q-85 -141 -227 -224.5t-316 -83.5q-106 0 -166 52.5t-84 145.5
q-40 -90 -106.5 -144t-170.5 -54q-153 0 -258 110q-59 64 -88.5 148.5t-29.5 172.5q0 53 11 104q36 153 132.5 248t227.5 166q67 37 143 75q128 61 242 136t164 183v-986q0 -84 23 -116t96 -32q167 5 271 108.5t118 268.5q2 30 2 60q0 250 -136.5 464.5t-364.5 328.5
q-185 89 -389 89q-184 0 -345.5 -69.5t-283 -191t-191 -283t-69.5 -345.5t69.5 -345.5t191 -283.5t283 -191.5t345.5 -69.5q204 0 380 86h204q-124 -91 -272 -140.5t-312 -49.5zM1014 193q27 0 59 15q50 26 70.5 77t20.5 106v530l-54 -32q-122 -69 -175 -149
q-69 -103 -69 -282q0 -148 64 -225q33 -40 84 -40z" />
    <glyph glyph-name="A" unicode="A" horiz-adv-x="1210" 
d="M-43 -590q-56 0 -96.5 12t-66 26t-34 26t-10.5 22q106 0 167 22q42 16 86 48q99 70 132 195q29 108 29 291q-1 384 -1 964q0 129 61.5 234.5t173.5 171.5q130 76 262 152q74 40 127 82t69 97q126 -88 198.5 -170t106 -169t41.5 -190.5t8 -236.5v-1165q-32 55 -75 87.5
t-88 56.5q-39 22 -72.5 46.5t-54 61.5t-20.5 96v465h-38l-175 -165l-175 165h-38v-152q0 -126 -9 -489q-8 -309 -160 -445q-65 -59 -147 -94q-107 -45 -201 -45zM900 737l-1 435q0 77 -30.5 147.5t-99.5 105.5q-42 21 -82 21q-41 0 -83 -21q-68 -35 -99 -105.5t-31 -147.5
v-435h38l175 171l175 -171h38z" />
    <glyph glyph-name="B" unicode="B" horiz-adv-x="1495" 
d="M559 -368h-27q-154 0 -281.5 41t-204.5 116t-77 177q0 174 235 373l66 56q-46 -109 -46 -196q0 -78 31.5 -138t87.5 -103t129 -68v1066q0 116 105 181l35 19q53 27 95.5 59t74.5 89v-479q85 70 97 82q106 103 106 196q0 98 -117 199q-101 87 -216 161l-40 27
q-72 47 -144 111t-98 148q-8 30 -8 59q0 68 37 126t91.5 107.5t109.5 91.5l54 44q-39 -49 -60 -82q-27 -43 -27 -91q0 -79 104 -167q80 -67 185 -139q131 -89 243 -188t139 -213q4 -23 4 -45q0 -66 -31.5 -125t-79 -109.5t-96.5 -91.5q224 -27 352 -159t128 -314
q0 -141 -87 -294q-138 -223 -376.5 -369t-492.5 -158zM709 -147q289 0 445 171q110 122 110 272q0 125 -82 233q-134 166 -400 172v-531q0 -60 -20.5 -96.5t-54 -61.5t-73.5 -46q-64 -33 -121 -88q94 -25 196 -25z" />
    <glyph glyph-name="C" unicode="C" horiz-adv-x="1104" 
d="M751 -12q-286 0 -445 203.5t-159 603.5v163q0 130 41 223.5t107.5 160.5t144.5 116t154 89q92 47 159 95t86 111q304 -210 304 -392q0 -65 -35.5 -128t-94 -96.5t-131.5 -33.5v69q0 77 -30.5 147.5t-99.5 105.5q-42 21 -82 21q-41 0 -83 -21q-68 -35 -99 -105.5
t-31 -147.5v-362q0 -104 18.5 -223.5t69 -219.5t144.5 -145q77 -32 172 -32q70 0 139 16.5t119 47.5q101 63 156 170l56 -23q-35 -137 -121 -229t-205.5 -138t-253.5 -46z" />
    <glyph glyph-name="D" unicode="D" horiz-adv-x="1592" 
d="M641 -368h-28q-153 0 -281 41t-205 116t-77 178q0 173 235 372l66 56q-46 -109 -46 -196q0 -78 31.5 -138t87.5 -103t129 -68v1066q0 60 21 97t54 61.5t73 46.5q45 24 87.5 56.5t74.5 86.5v-1134q0 -60 -20.5 -96.5t-54 -61.5t-73.5 -46q-64 -33 -121 -88q94 -25 196 -25
q79 0 158 14q147 28 236.5 109.5t130 199.5t40.5 252q0 132 -34 267q-61 238 -185.5 396t-310.5 309q-35 25 -75 51q-96 62 -183.5 135.5t-115.5 162.5q-8 30 -8 58q0 68 37 126t90.5 107t108.5 92q30 23 56 45q-39 -49 -60 -82q-27 -43 -27 -91q0 -76 94 -157
q72 -63 177 -136q119 -82 249.5 -191t242.5 -258q99 -137 154.5 -310.5t55.5 -351.5q0 -251 -112 -441q-137 -223 -376 -369t-492 -158z" />
    <glyph glyph-name="E" unicode="E" horiz-adv-x="1107" 
d="M619 -111q-89 0 -180 28q-134 42 -225 134t-111 234q-3 22 -3 43q0 87 35.5 173.5t91.5 162t120 129.5l23 19q-105 50 -151.5 115.5t-46.5 139.5q0 81 46.5 163.5t123.5 155t170 125.5l65 36q92 47 159 95t86 111q304 -210 304 -392q0 -67 -33 -126t-92 -95.5t-135 -36.5
v69q0 77 -31 147.5t-100 105.5q-42 21 -82 21t-83 -21q-54 -27 -89 -82t-35 -117q0 -26 8 -52q43 -131 194 -163l80 -18l-49 -40q-56 -46 -112.5 -96t-104 -107t-76.5 -121.5t-29 -139.5q0 -23 3 -46q17 -118 93 -192.5t187 -108.5q100 -32 182 -32q87 0 158 30.5t136 80
t131 108.5l73 63l52 -54l-25 -28q-94 -108 -208.5 -203.5t-246 -156.5t-273.5 -61z" />
    <glyph glyph-name="F" unicode="F" horiz-adv-x="1136" 
d="M66 -590q-92 0 -158 37q-27 15 -35.5 27t-10.5 22q106 0 167 22q42 16 86 47.5t78 77.5q82 121 83 384v343q0 131 50.5 226.5t148.5 179.5l-74 36q-105 50 -151.5 115.5t-46.5 139.5q0 81 46.5 163.5t123.5 155t170 125.5l65 36q92 47 159 95t86 111q304 -210 304 -392
q0 -67 -33 -126t-92 -95.5t-135 -36.5v69q0 77 -31 147.5t-100 105.5q-42 21 -82 21t-82 -21q-55 -27 -90 -82t-35 -117q0 -26 8 -52q23 -68 74 -108t116.5 -56.5t128.5 -16.5h71q-48 -40 -91 -72q-59 -43 -103.5 -85t-69.5 -97.5t-25 -142.5v-540q0 -121 -42 -270.5
t-127 -236.5q-65 -59 -147 -94q-107 -45 -204 -45z" />
    <glyph glyph-name="G" unicode="G" horiz-adv-x="1224" 
d="M585 -621q-54 39 -98 75q-61 53 -89.5 111.5t-28.5 113.5q0 83 57 141.5t158 58.5q0 -54 22 -103.5t70 -74.5q28 -15 58 -15q27 0 58 15q48 25 69.5 74.5t21.5 103.5q0 38 1 81t1 88v67q-122 -111 -280 -111q-98 0 -196 49q-93 50 -162 137q-44 57 -65.5 131t-27.5 164
t-6 195l1 278q0 233 149 384q66 67 144 116t154 89q92 47 159 95t86 111q304 -210 304 -392q0 -67 -33 -126t-92 -95.5t-135 -36.5v69q0 77 -31 147.5t-100 105.5q-42 21 -82 21t-83 -21q-68 -35 -99 -105.5t-31 -147.5v-433q0 -78 4 -161q9 -191 81 -288q58 -79 159 -79
q69 0 121 47.5t58 127.5q3 37 3 77v133q0 116 105 180l33 19q53 27 96 59.5t76 89.5v-867q0 -114 -36.5 -196t-94.5 -140.5t-127 -102t-136 -78.5q-81 -41 -140 -83t-76 -98z" />
    <glyph glyph-name="H" unicode="H" horiz-adv-x="1719" 
d="M1716 1464v-1294q0 -60 -21 -97t-54 -61.5t-73 -46.5q-45 -24 -87.5 -56.5t-74.5 -86.5v1064h-45l-168 -168l-169 168h-44v-395q0 -539 -595 -735q-96 -33 -216 -33q-180 0 -262 92q-57 64 -57 148q0 118 103 225q23 24 48 48l41 40q-37 -50 -37 -94q0 -53 43 -93.5
t106 -64.5t127 -28l42 -1q219 0 299 80q32 32 40.5 76.5t8.5 130.5l-1 -1q0 1135 1 1144q-93 -45 -154.5 -105t-81.5 -160q-6 -34 -6 -66q0 -101 61 -182q20 -26 37 -37l1 -1q-12 -13 -27 -25q-41 -34 -113 -34q-56 0 -107.5 26t-84.5 77q-35 57 -35 128q0 138 115 258
q76 77 180 132t207 100t159 76q116 62 158 141v-765h44l169 168l168 -168h45v515q0 121 42.5 270t127.5 236q65 60 147 95q105 44 200 44q93 0 161 -37q41 -23 46 -49q-109 0 -167 -22q-100 -39 -164 -125q-67 -95 -78 -286q-5 -84 -5 -165z" />
    <glyph glyph-name="I" unicode="I" horiz-adv-x="1019" 
d="M609 -178v1583q0 11 1 20l-57 -31q-80 -47 -123 -104q-62 -86 -62 -196q0 -38 9 -75q30 -92 73 -131l17 -14q-18 -26 -64 -46q-33 -13 -78 -13q-28 0 -57 7q-81 20 -133 96q-35 57 -35 129q0 28 6 58q21 107 109 199q89 89 217 151q87 44 171 80q100 45 136 65
q72 36 99 60q31 26 48.5 45.5t32.5 47.5v-1583q0 -60 -21 -97t-54 -61.5t-73 -46.5q-45 -24 -87.5 -56.5t-74.5 -86.5z" />
    <glyph glyph-name="J" unicode="J" horiz-adv-x="971" 
d="M-7 -590q-193 0 -316.5 79.5t-123.5 210.5q0 81 56 177t180 201l45 38h14q-36 -92 -36 -171q0 -102 50.5 -178t132.5 -117.5t175 -41.5q89 0 176 41.5t155 130.5q102 143 110 336q0 1300 1 1309q-92 -45 -154 -105t-82 -160q-6 -34 -6 -65q0 -102 61 -183q12 -16 21 -24
t17 -14q-18 -26 -64 -46q-37 -13 -76 -13q-56 0 -107.5 26t-84.5 77q-35 58 -35 130q0 28 6 57q21 107 109 199q76 77 180 132t207 99l73 33q109 50 162.5 91.5t81.5 93.5v-1413q0 -150 -76.5 -308t-202 -294t-277.5 -224.5t-307 -101.5q-33 -2 -65 -2z" />
    <glyph glyph-name="K" unicode="K" horiz-adv-x="1499" 
d="M1689 -590q-95 0 -204 46q-82 34 -147 93q-122 112 -152 362q-22 209 -23 434q-1 65 -3 121q-3 224 -55 293.5t-169 76.5l-17 1l-1 -563q0 -538 -594 -734q-97 -34 -217 -34q-179 0 -261 93q-57 64 -57 147q0 119 102 225l89 88q-37 -50 -37 -93q0 -54 43 -94.5
t106 -64.5t128 -28l42 -1q216 0 297 78q32 31 41 73.5t9 135.5l-1 -1q0 1341 1 1361q-92 -45 -153.5 -105t-81.5 -160q-7 -35 -7 -67q0 -100 61 -181q17 -22 34 -35l4 -3q-50 -59 -140 -59q-55 0 -107 26t-85 77q-34 58 -34 130q0 135 114 256q77 77 181 132t207 100t159 76
q114 62 158 141v-789q38 32 86 136q51 114 111 276q56 152 109 274q53 118 101.5 179t103.5 90q92 49 200 49q82 -4 124 -25q77 -37 90 -93q-39 18 -79 18q-48 0 -115 -51.5t-150 -216.5q-49 -102 -100 -227q-38 -91 -74 -172q-42 -94 -86 -161t-104 -109q-5 -2 -8 -5
q54 -13 89 -33.5t73 -50.5q84 -59 137 -175q47 -116 54 -321q3 -88 4 -184q0 -137 8 -251q12 -182 76.5 -268.5t164.5 -124.5q60 -22 159 -22q-5 -26 -46 -49q-68 -37 -158 -37z" />
    <glyph glyph-name="L" unicode="L" horiz-adv-x="934" 
d="M1515 -503l-39 2q-128 13 -241 79t-219 149q-193 147 -315 191q-104 38 -179 38l-34 -2q39 67 52.5 119t16.5 134l2 45q0 1164 1 1173q-92 -45 -154 -105t-82 -160q-6 -34 -6 -65q0 -102 61 -183q12 -16 21 -24t17 -14q-18 -26 -64 -46q-37 -13 -76 -13q-56 0 -107.5 26
t-84.5 77q-35 58 -35 130q0 28 6 57q21 107 109 199q76 77 180 132t207 99l73 33q109 50 162.5 91.5t81.5 93.5v-1743q155 -48 321 -118l37 -15q213 -95 335 -95q57 0 97 15q60 23 79 72q11 24 11 53q43 -22 72 -66q21 -39 21 -84q0 -60 -33 -119.5t-88 -98.5
q-89 -57 -206 -57z" />
    <glyph glyph-name="M" unicode="M" horiz-adv-x="2393" 
d="M2566 -590q-97 0 -204 45q-82 35 -147 94q-122 112 -152 362q-19 179 -22 378v883q0 85 -22.5 142t-57.5 85.5t-74 28.5q-57 0 -104 -64t-50 -192v-1002q-2 -87 -45 -130.5t-103 -74.5q-45 -24 -87.5 -56.5t-74.5 -86.5v1350q0 85 -22.5 142t-57.5 85.5t-74 28.5
q-38 0 -73.5 -28.5t-58 -85.5t-22.5 -142l-1 -1002q0 -60 -21 -97t-54 -61.5t-73 -46.5q-45 -24 -87.5 -56.5t-74.5 -86.5q-1 1232 -2 1298q-2 97 -26 212q-59 279 -275 288q-97 0 -162 -42.5t-98.5 -108t-33.5 -134.5q0 -83 49.5 -150.5t150.5 -83.5q16 -2 32 -2
q46 0 90 18.5t79 56.5q23 -53 23 -99q0 -64 -36 -112.5t-95 -75.5t-126 -27t-133 31t-116 99.5t-72 178.5q-6 36 -6 72q0 63 15 121q51 184 200 290t326 106q145 0 270 -75q129 -84 194 -220q62 47 123 85q75 47 130.5 94.5t74.5 110.5q217 -149 285 -294q65 50 129 90
q75 47 130.5 94.5t74.5 109.5q150 -104 225.5 -200.5t101 -209.5t26.5 -268q0 -704 2 -906q0 -135 8 -258q11 -176 77 -268q34 -46 78 -77.5t86 -47.5q61 -22 167 -22q-2 -10 -10.5 -22t-34 -26t-65.5 -26t-94 -12z" />
    <glyph glyph-name="N" unicode="N" horiz-adv-x="1891" 
d="M2060 -590q-95 0 -204 46q-82 34 -147 93q-63 61 -100.5 157.5t-51.5 204.5q-16 147 -16 274v15l-1 89v883q0 77 -30.5 147.5t-99.5 105.5q-43 21 -83 21t-82 -21q-69 -35 -100 -105.5t-31 -147.5v-1002q0 -60 -21 -97t-54 -61.5t-73 -46.5q-45 -24 -87.5 -56.5
t-74.5 -86.5q0 1190 -3 1298q-2 97 -26 212t-88 199t-186 89q-97 0 -162.5 -42.5t-98.5 -108t-33 -134.5q0 -83 49.5 -150.5t150.5 -83.5q16 -2 31 -2q46 0 90 18.5t80 56.5q23 -53 23 -99q0 -64 -36 -112.5t-95 -75.5t-126 -27t-133 31t-116 99.5t-72 178.5q-6 36 -6 72
q0 63 15 121q51 184 200 290t325 106q147 0 270 -75q144 -94 207 -248q95 64 187.5 111.5t159.5 95.5t86 111q150 -104 225.5 -200.5t101 -209.5t26.5 -268q0 -58 -4 -117v-669l2 -128q0 -131 7 -250q12 -176 78 -268q34 -46 78 -77.5t86 -47t89 -19t78 -3.5
q-2 -10 -10.5 -22t-34 -26t-65.5 -26t-94 -12z" />
    <glyph glyph-name="O" unicode="O" horiz-adv-x="1442" 
d="M695 -83q-74 0 -156 22q-143 41 -234.5 130.5t-135 241.5t-43.5 286q0 164 61.5 324.5t176 278.5t275.5 161q-54 -85 -99.5 -187.5t-73 -215.5t-27.5 -230q0 -100 25 -259q46 -165 137 -247t194 -82q105 0 201 81.5t151 241.5q39 181 39 291q0 105 -32 199
q-72 213 -287 396q-54 47 -120 79.5t-132 32.5q-25 0 -50 -6l76 45q86 51 154.5 85t134.5 34q62 0 128 -37.5t147 -124.5q119 -128 183.5 -271t64.5 -323.5t-115.5 -431.5t-279 -382.5t-363.5 -131.5z" />
    <glyph glyph-name="P" unicode="P" horiz-adv-x="1323" 
d="M128 -590q-56 0 -97 12t-66.5 26t-34 26t-10.5 22q32 0 78.5 3.5t88.5 19t86 47t78 77.5q66 91 78 268q7 119 7 250q2 232 2 795q0 60 21 97t54 61.5t73 46.5q45 24 87.5 56.5t74.5 86.5v-774q85 1 160 14.5t135 59.5q94 75 94 193q0 183 -201 394q-148 156 -349 292
q-85 56 -157 123q-103 95 -103 201q0 69 37 126.5t91.5 107t109.5 92.5l55 44q-31 -37 -59 -80.5t-28 -93.5q0 -75 94 -156q72 -63 176 -136q87 -61 182 -135.5t187 -167.5q70 -71 129 -151q129 -178 129 -348q0 -43 -8 -86q-25 -127 -143 -223q-139 -113 -352 -158
q-93 -15 -179 -15v-374q0 -115 -48 -270t-125 -234q-65 -59 -147 -94q-107 -45 -200 -45z" />
    <glyph glyph-name="Q" unicode="Q" horiz-adv-x="1395" 
d="M1601 -484q-42 0 -85 11q-94 27 -178 85.5t-146 124.5q-124 137 -215 284q-142 -104 -308 -104q-73 0 -156 22q-143 41 -234.5 130.5t-135 211.5t-43.5 256q0 164 61.5 324.5t176 278.5t275.5 161q-54 -85 -99 -187t-72.5 -215t-27.5 -229q0 -101 25 -201q15 -57 37 -105
q19 30 51.5 57.5t81 45.5t114.5 18q110 -2 194.5 -38.5t154.5 -97.5q28 51 49 114q34 106 34 219q0 131 -44 257t-130 221q-85 88 -199 178l-75 62q-35 25 -76 52q-96 61 -183 134.5t-115 162.5q-8 30 -8 58q0 68 37 126t90.5 107t108.5 92q30 23 56 45q-40 -51 -60 -83
q-27 -42 -27 -90q0 -76 95 -158q72 -62 178 -136q149 -102 312 -248q149 -139 230.5 -299t81.5 -333q0 -101 -30 -205q-49 -170 -212 -391q27 -31 62 -74q132 -163 232 -255q152 -140 271 -140q72 0 137 58l1 -25q0 -83 -39 -146.5t-104.5 -99.5t-143.5 -36zM770 140
q56 0 112 24q-48 73 -96.5 124.5t-100.5 71.5q-28 10 -52 10q-39 0 -64.5 -22t-25.5 -54q0 -54 70 -104q76 -50 157 -50z" />
    <glyph glyph-name="R" unicode="R" horiz-adv-x="1159" 
d="M469 274q0 -538 -594 -734q-97 -34 -217 -34q-179 0 -261 93q-57 64 -57 147q0 119 102 225l89 88q-37 -50 -37 -93q0 -54 43 -94.5t106 -64.5t128 -28l42 -1q122 0 199 25q66 22 98 53t41 73.5t9 135.5l-1 -1v892q0 60 21 97t54 61.5t73 46.5q45 24 87.5 56.5t74.5 86.5
v-774q84 1 160 15q128 23 194 125q34 53 34 128q0 184 -200 394q-150 156 -350 291q-85 56 -156 123q-103 96 -103 201q0 68 37 126t90.5 107t108.5 92q30 23 56 45l-4 -6q-30 -35 -56.5 -77t-26.5 -90q0 -75 95 -157q72 -63 176 -136q87 -61 182 -135q194 -152 316 -319
q129 -177 129 -348q0 -265 -305 -403q47 -21 96 -61q80 -60 120 -141t55 -189q8 -55 13 -118q7 -95 25 -189t66 -165q64 -87 164 -125q60 -22 159 -22l-1 -2q-5 -26 -45 -47q-68 -37 -162 -37q-95 0 -200 45q-82 35 -147 94q-87 89 -130.5 242t-47.5 278q-3 224 -54 293
q-32 43 -76.5 56t-92.5 13q-32 0 -62 -2t-57 -2v-153z" />
    <glyph glyph-name="S" unicode="S" horiz-adv-x="1385" 
d="M602 -125q-186 0 -321 68t-208 177.5t-73 234.5q0 79 32.5 158.5t100.5 152.5q-18 -65 -18 -122q0 -112 60 -189.5t160.5 -118t222.5 -40.5q164 0 341 77q142 68 230 186t88 227q0 55 -26.5 100.5t-83.5 73.5q-78 35 -160 35q-102 0 -199.5 -42t-170.5 -106
q-72 -66 -100 -116l-5 -7q-30 32 -48 77q-31 84 -31 168q0 207 159 424q70 95 150 169q163 146 312 248q106 74 178 136q95 82 95 158q0 48 -27 90q-20 32 -60 83q26 -22 56 -45q55 -43 108.5 -92t90.5 -107t37 -126q0 -28 -8 -58q-28 -89 -115 -162.5t-183 -134.5
q-41 -27 -76 -52l-81 -67q-98 -76 -175 -154t-127 -189q117 40 222 40q136 0 243 -59.5t169 -164t62 -238.5q0 -80 -25 -168q-74 -245 -262.5 -372t-447.5 -149q-44 -4 -86 -4z" />
    <glyph glyph-name="T" unicode="T" horiz-adv-x="1407" 
d="M804 1592q-25 1 -49 1q-65 0 -125 -12.5t-112 -43.5q-67 -42 -96.5 -105t-29.5 -134q0 -133 85 -244q47 -54 107 -92q-79 -48 -164 -48q-36 0 -71 9q-129 38 -188.5 132.5t-59.5 208.5q0 108 48 214q68 140 203 218.5t295 92.5q59 5 118 7q53 2 109 2q64 0 106 -1.5
t56 -1.5q109 0 178 30q88 38 146.5 104t61.5 146q71 -62 96.5 -111.5t29.5 -101.5q1 -8 1 -15q0 -67 -42 -130.5t-126.5 -94t-222.5 -30.5q-21 0 -44 1h-2l-4 -1555q-13 -350 -167 -488q-65 -60 -147 -94q-107 -45 -201 -45q-95 0 -161 37q-27 15 -35.5 26.5t-10.5 22.5
q32 0 78.5 3t88.5 19t86 47t78 78q65 92 77 267q11 184 11 1681h-1z" />
    <glyph glyph-name="U" unicode="U" horiz-adv-x="1890" 
d="M2059 -590q-96 0 -202 45q-82 35 -147 94q-63 61 -100.5 157.5t-51.5 204.5q-9 74 -12 140q-55 -70 -147 -119t-194 -49q-78 0 -153 36.5t-136 121.5q-65 91 -87.5 199.5t-23.5 253.5q-1 117 -1 235v236q0 82 -2 156q-2 97 -26 211.5t-88 198.5t-186 89
q-97 0 -162.5 -42.5t-98.5 -108t-33 -134.5q0 -83 49.5 -150.5t150.5 -83.5q16 -2 31 -2q46 0 90 18.5t80 56.5q23 -53 23 -99q0 -64 -36 -112.5t-95 -75.5t-126 -27t-133 31t-116 99.5t-72 178.5q-7 36 -7 72q0 62 16 121q51 184 200 290.5t325 106.5q146 0 270 -76
q87 -56 146 -138q59 -89 85 -222.5t26 -229.5v-695q0 -77 31 -147.5t100 -105.5q42 -21 82 -21t82 21q69 35 100 105.5t31 147.5v1002q0 59 20.5 96t54 62t73.5 46q44 25 87 57.5t75 86.5v-1745q3 -245 83 -360q34 -46 78 -77.5t84 -46.5t83 -19q33 -3 86 -4l-1 -2
q-2 -10 -10.5 -21.5t-33.5 -25t-65.5 -25.5t-95.5 -12z" />
    <glyph glyph-name="V" unicode="V" horiz-adv-x="1233" 
d="M501 -178q-126 88 -198.5 170t-106 169t-41.5 190.5t-8 236.5v1165q32 -54 75 -86.5t87 -57.5q40 -21 73.5 -46t54 -62t20.5 -96l1 -1002q0 -76 31 -147t99 -106q42 -21 83 -21q40 0 82 21q69 35 99.5 106t30.5 147v738q0 105 10 231q25 294 159 426q65 59 147 94
q107 45 201 45q95 0 161 -37q27 -15 35.5 -27t10.5 -22q-106 0 -167 -22q-42 -16 -86 -47q-99 -71 -132 -198q-29 -109 -29 -294q1 -151 1 -731q0 -129 -61 -234.5t-174 -171.5q-129 -76 -261 -152q-75 -40 -128 -82t-69 -97z" />
    <glyph glyph-name="W" unicode="W" horiz-adv-x="1749" 
d="M1119 -178q-217 149 -285 293q-65 -49 -128 -89q-75 -46 -131.5 -93.5t-74.5 -110.5q-150 104 -225.5 200t-101.5 209.5t-26 267.5v1254q32 -54 75 -86.5t87 -57.5q40 -21 73.5 -46t54 -62t20.5 -96v-1002q0 -85 22.5 -142t58 -85.5t73.5 -28.5q39 0 74 28.5t57.5 85.5
t22.5 142v1350q32 -54 75 -86.5t88 -56.5q39 -22 72.5 -47t54.5 -61.5t21 -96.5v-1002q0 -85 22.5 -142t58 -85.5t73.5 -28.5q39 0 74 28.5t57.5 85.5t22.5 142v507q0 344 22 526q30 250 152 362q65 59 147 94q105 45 200 45q56 0 97 -12t66 -25.5t33.5 -25t10.5 -21.5l1 -2
q-32 0 -78.5 -3.5t-88.5 -19t-86 -47t-78 -77.5q-66 -91 -78 -268q-7 -106 -7 -221l-2 -157v-529q-4 -242 -200 -383l-175 -122q-73 -46 -128 -93t-73 -109z" />
    <glyph glyph-name="X" unicode="X" horiz-adv-x="1217" 
d="M-49 -585q-56 0 -96.5 12t-66 26t-34 26t-10.5 22q105 0 167 22q42 16 86 48q138 98 150 305q3 61 3 121v314q0 126 58 229.5t164 169.5q-146 133 -186 277q-36 131 -36 312v454q32 -55 75.5 -87.5t87.5 -56.5q40 -22 73.5 -46.5t54 -61.5t20.5 -96v-217q0 -76 31 -147
t99 -106q43 -21 83 -21t82 21q69 35 100 106t31 147l1 314q0 122 42 271t127 236q65 59 147 94q105 45 201 45q56 0 96.5 -12t66 -26t34 -26t10.5 -22q-105 0 -167 -22q-42 -16 -86 -47q-130 -93 -150 -299q-11 -114 -11 -229v-35q0 -49 -1 -94q-8 -254 -222 -391
q104 -94 151.5 -189.5t59 -209t11.5 -264.5v-461q-32 55 -75 87.5t-88 56.5q-39 22 -72.5 46.5t-54 61.5t-20.5 96v170q-1 6 -1 17v112q0 76 -30.5 147t-99.5 106q-42 21 -82 21q-41 0 -83 -21q-68 -35 -99 -106t-31 -147v-330q0 -97 -9 -205.5t-44 -207.5
q-65 -183 -256 -265q-105 -45 -201 -45z" />
    <glyph glyph-name="Y" unicode="Y" horiz-adv-x="1889" 
d="M1339 -590q-55 0 -95 12t-64 25q-27 15 -35.5 27t-10.5 22h9q33 0 76 4t83.5 19t84.5 46.5t78 78.5t50.5 102.5t20.5 114.5t4 117v67q-56 -68 -146.5 -115t-190.5 -47q-77 0 -152 36.5t-136 121.5q-64 91 -86.5 199.5t-23.5 253.5q-2 140 -2 376q0 177 -1 251
q-2 97 -26.5 211.5t-88.5 198.5t-186 89q-97 0 -162 -42.5t-98.5 -108.5t-33.5 -135q0 -83 49.5 -150t150.5 -83q16 -2 32 -2q46 0 90 18.5t79 56.5q23 -53 23 -99q0 -64 -36 -112.5t-95 -75.5t-126 -27t-133 31t-116 99.5t-72 178.5q-6 36 -6 72q0 63 15 121
q51 184 200 290.5t326 106.5q145 0 270 -76q88 -56 145 -138q59 -89 85.5 -222.5t26.5 -229.5v-695q0 -77 31 -147.5t99 -105.5q42 -21 83 -21q40 0 82 21q69 35 99.5 105.5t30.5 147.5l1 1002q0 59 20.5 96t54 62t73.5 46q44 25 87 57.5t75 86.5v-1615q0 -98 -9 -206
t-44 -207q-66 -185 -256 -265q-107 -45 -203 -45z" />
    <glyph glyph-name="Z" unicode="Z" horiz-adv-x="1355" 
d="M674 -133q-197 0 -346 104q-156 116 -209 300q-19 71 -19 143q0 194 119 398q133 229 358 378q132 87 275 165l40 22q-83 17 -172 39q-219 56 -331 56q-65 0 -123.5 -15t-120.5 -45q52 90 96 158q62 99 126 140q68 45 158 45q112 -4 294 -64q84 -26 167 -47
q96 -25 183 -27q81 0 152.5 24.5t116.5 75.5l-154 -331q-55 -21 -102 -37q-92 -32 -177.5 -69.5t-198.5 -109.5q-202 -129 -319 -304q-103 -159 -103 -317q0 -107 51 -198q74 -134 244 -173q69 -15 139 -15q57 0 111 10q152 31 252 131t122 235q4 30 4 54l-1 37
q50 -80 50 -172q0 -60 -17.5 -115.5t-43 -103t-51.5 -84.5q-79 -122 -221 -200q-166 -88 -349 -88z" />
    <glyph glyph-name="bracketleft" unicode="[" horiz-adv-x="692" 
d="M571 -621h-471v2240h592l-22 -46q-34 -64 -99 -64h-161v-2020h282l-22 -47q-34 -63 -99 -63z" />
    <glyph glyph-name="backslash" unicode="\" horiz-adv-x="1373" 
d="M1403 -178q-47 27 -90 35t-89 8l-43 -1q-114 0 -181 104l-1030 1785q48 -28 92 -36t91 -8l41 1q114 0 178 -103z" />
    <glyph glyph-name="bracketright" unicode="]" horiz-adv-x="692" 
d="M592 -621h-470q-66 0 -100 63l-22 47h282v2020h-160q-66 0 -100 64l-22 46h592v-2240z" />
    <glyph glyph-name="underscore" unicode="_" horiz-adv-x="909" 
d="M667 0h-667q33 18 52 43.5t33 50.5t28.5 45t36.5 32.5t57 12.5h667q-32 -19 -51.5 -44.5t-33 -50.5t-28.5 -45t-36.5 -32t-57.5 -12z" />
    <glyph glyph-name="grave" unicode="`" horiz-adv-x="619" 
d="M498 1269q-46 0 -95 8.5t-95 26t-86.5 45t-70.5 65.5q-51 62 -51 123q0 74 72 120q39 21 64 25.5t32 4.5q-3 -26 -1 -55q2 -26 8.5 -58.5t23.5 -67.5q35 -75 93 -135t127 -102h-21z" />
    <glyph glyph-name="a" unicode="a" 
d="M1055 -15q-105 0 -164.5 53t-83.5 145q-40 -89 -106.5 -143.5t-171.5 -54.5q-73 0 -138.5 27.5t-118.5 82.5q-59 63 -88.5 148t-29.5 173q0 53 11 105q36 152 132 247t227 166q67 37 142 74q129 61 243.5 136.5t164.5 183.5v-985q0 -51 8 -84t32.5 -49t71.5 -16
q48 0 81 28.5t51 71.5t21 90h90q-16 -132 -60 -210q-36 -67 -88 -113q-84 -76 -226 -76zM614 191q27 0 59 15q50 26 70.5 77t20.5 106v530l-54 -31q-122 -70 -175 -149q-69 -103 -69 -283q0 -148 64 -225q33 -40 84 -40z" />
    <glyph glyph-name="b" unicode="b" horiz-adv-x="1059" 
d="M548 -15q-85 0 -162 29t-134 87q-84 91 -87 220l1 1087q5 116 105 175l32 18q53 28 96 60t76 89v-750q43 25 85 47q80 42 138 83.5t75 96.5q188 -130 248.5 -255.5t60.5 -312.5l1 -50q0 -122 -25.5 -231.5t-93 -197t-190.5 -145.5q-113 -50 -226 -50zM585 194
q119 0 161 165q28 110 28 296v73q0 53 -22 103t-70 74q-28 15 -57 15q-27 0 -58 -15q-48 -24 -70 -74t-22 -103l-1 -337q0 -47 7 -92.5t30.5 -75t73.5 -29.5z" />
    <glyph glyph-name="c" unicode="c" horiz-adv-x="945" 
d="M582 -18q-126 0 -222 59t-149 172q-36 80 -46.5 154.5t-10.5 161.5q0 114 36 196t94.5 140.5t127 102t134.5 78.5q81 41 139.5 83t75.5 98q56 -38 98 -74q61 -53 90 -112t29 -114q0 -82 -57 -140.5t-159 -58.5q0 53 -21.5 103t-69.5 74q-28 15 -58 15q-27 0 -58 -15
q-48 -24 -69.5 -74t-21.5 -103l-2 -163q0 -100 13 -192q15 -90 71 -150t154 -66l26 -1q131 0 249 54.5t187 173.5h73q-46 -125 -146.5 -212.5t-227.5 -135.5q-135 -50 -279 -54z" />
    <glyph glyph-name="d" unicode="d" horiz-adv-x="1177" 
d="M1059 -15q-105 0 -164.5 53t-83.5 145q-40 -89 -106.5 -143.5t-171.5 -54.5q-73 0 -138.5 27.5t-118.5 82.5q-66 73 -94 176.5t-28 211.5q1 178 72 294q68 110 176.5 184.5t236.5 140.5q64 34 129 71v230q0 114 105 180l31 17q54 28 97.5 60.5t76.5 90.5v-1408
q0 -51 8 -84t32.5 -49t71.5 -16q48 0 81 28.5t51 71.5t21 90h90q-16 -132 -60 -210q-36 -67 -88 -113q-84 -76 -226 -76zM625 194q26 0 52 12q48 25 69.5 74.5t21.5 103.5v642l-54 -32q-105 -60 -158 -126t-70 -152.5t-17 -211.5q0 -114 17 -178q29 -111 95 -127
q24 -5 44 -5z" />
    <glyph glyph-name="e" unicode="e" horiz-adv-x="973" 
d="M606 -17h-22q-118 0 -217 55.5t-156 174.5q-57 130 -57 265v51q0 114 36 196t94.5 141t127 102t135.5 78q80 42 139 84t76 97q51 -36 93 -70q134 -116 134 -282l-2 -37q-11 -101 -64.5 -172t-132 -123.5t-163.5 -98.5q-97 -53 -119 -67l-26 -15q23 -107 82 -155.5
t137 -49.5l26 -1q130 0 248 54.5t187 173.5h73q-46 -125 -146.5 -212.5t-227.5 -135t-255 -53.5zM464 499l52 28q28 14 67 37q65 38 114.5 98t49.5 124q0 44 -32 85q-46 49 -101 49q-37 0 -71.5 -22t-56.5 -65t-22 -105v-229z" />
    <glyph glyph-name="f" unicode="f" horiz-adv-x="566" 
d="M163 -623v1581h-123l22 46q31 64 105 64l3 313q1 125 71 207.5t152.5 138.5t163.5 98t140 84t76 97q55 -38 98 -75q61 -52 89.5 -111t28.5 -114q0 -83 -57 -141.5t-158 -58.5q0 54 -22 103.5t-70 74.5q-28 14 -58 14q-27 0 -58 -14q-48 -25 -69.5 -74.5t-21.5 -103.5
q0 -67 -2 -437v-1h154l-22 -47q-34 -63 -100 -63h-32v-1233q0 -114 -105 -180l-33 -19q-53 -27 -96 -59.5t-76 -89.5z" />
    <glyph glyph-name="g" unicode="g" horiz-adv-x="1072" 
d="M847 -788q-59 0 -115 39q66 5 121 38q35 23 54.5 55t19.5 64q0 37 -27 66.5t-86 38.5q-24 3 -70 3q-12 0 -19 1q-131 2 -227 23.5t-179 86.5t-177 200q44 12 79 52.5t67 97.5l40 70q-29 21 -56 48q-57 61 -82 127.5t-30.5 138t-5.5 168.5q0 206 131 337
q58 58 126.5 101.5t135.5 78.5q80 41 139 83t76 98q137 -95 203.5 -182.5t86.5 -192.5q20 -100 20 -238v-13q0 -260 -94.5 -407t-302.5 -194q-63 -15 -131 -15q-58 0 -113 14l-32 -56l-1 -7q0 -11 5 -19q25 -48 74.5 -69.5t103.5 -21.5h215q118 0 193.5 -40.5t112 -106
t36.5 -140.5q0 -99 -61 -194q-37 -55 -99.5 -94t-130.5 -39zM614 191q27 0 59 15q43 22 64.5 63t25.5 89v370q0 53 -22 102.5t-70 74.5q-28 15 -57 15q-27 0 -58 -15q-48 -25 -70 -74.5t-22 -102.5v-199q0 -130 18 -203q15 -55 48 -95t84 -40z" />
    <glyph glyph-name="h" unicode="h" horiz-adv-x="1183" 
d="M475 170q0 -60 -21 -97t-54 -61.5t-73 -46.5q-45 -24 -87.5 -56.5t-74.5 -86.5v1594q8 111 105 167q17 10 33 19q53 27 96 59.5t76 89.5v-751q44 25 86 48q79 41 137 82.5t74 96.5q188 -130 249 -255.5t61 -312.5l2 -135l-1 -180q0 -51 8 -84t32.5 -49t71.5 -16
q48 0 81 28.5t51 71.5t21 90h91q-18 -132 -61 -210q-36 -67 -87.5 -113t-118.5 -62q-56 -13 -111 -13q-68 0 -126.5 21.5t-94.5 69.5q-67 92 -67 242v408q0 53 -21.5 103t-69.5 74q-28 15 -58 15q-27 0 -58 -15q-48 -24 -69.5 -74t-21.5 -103v-558z" />
    <glyph glyph-name="i" unicode="i" horiz-adv-x="574" 
d="M320 1260l-179 180l179 179l180 -179zM452 -13q-68 0 -126.5 21.5t-94.5 69.5q-66 92 -66 242v560q0 116 105 180l33 19q53 27 96 59.5t76 89.5v-884q0 -51 8 -84t32 -49t72 -16t80.5 28.5t50.5 71.5t22 90h90q-18 -132 -60 -210q-36 -67 -88 -113q-84 -75 -230 -75z" />
    <glyph glyph-name="j" unicode="j" horiz-adv-x="515" 
d="M320 1260l-179 180l179 179l180 -179zM-134 -623q-55 39 -98 75q-61 53 -90 111.5t-29 114.5q0 82 57.5 140.5t158.5 58.5q0 -53 22 -103t70 -75q28 -14 57 -14q27 0 58 14q48 25 70 75t22 103l1 158v845q0 116 105 180l32 18q54 28 97 60t76 90v-1152q0 -114 -36.5 -196
t-94.5 -141t-127 -102.5t-136 -78.5q-80 -41 -139 -83t-76 -98z" />
    <glyph glyph-name="k" unicode="k" horiz-adv-x="1161" 
d="M474 170q0 -60 -21 -97t-54 -61.5t-73 -46.5q-45 -24 -87.5 -56.5t-74.5 -86.5v1593q8 112 105 169q15 8 29 16q55 28 98.5 60t77.5 91v-752q43 25 84 47q80 41 139 83.5t76 97.5q69 -46 125.5 -100.5t81.5 -132.5q10 -34 10 -65q0 -55 -26 -104t-71 -94
q116 -78 146.5 -179t33.5 -241q2 -60 25 -88t86 -28q48 0 81 28.5t51 71.5t21 90h90q-16 -132 -60 -210q-36 -67 -87.5 -113t-119.5 -62q-56 -13 -111 -13q-68 0 -126 21.5t-94 69.5q-67 92 -67 242q0 48 -9 92.5t-37.5 73.5t-85.5 33h-6q-27 0 -59 -14q-48 -25 -69.5 -75
t-21.5 -103v-157zM475 600l127 70q68 42 100.5 87.5t32.5 83.5q0 35 -25.5 57t-72.5 22q-14 0 -30 -2q-53 -7 -92.5 -55.5t-39.5 -134.5v-128z" />
    <glyph glyph-name="l" unicode="l" horiz-adv-x="574" 
d="M464 -13q-165 0 -232 91.5t-67 241.5v1083q0 115 105 181l33 18q53 27 96 59.5t76 89.5v-1407q0 -86 24 -117.5t88 -31.5q65 0 105.5 54.5t47.5 135.5h90q-33 -239 -156 -331q-90 -67 -210 -67z" />
    <glyph glyph-name="m" unicode="m" horiz-adv-x="1630" 
d="M474 170q0 -60 -21 -97t-54 -61.5t-73 -46.5q-45 -24 -87.5 -56.5t-73.5 -86.5v770q0 78 29.5 140t78 111.5t108 91.5t119.5 80l32 20q70 45 106.5 89t51.5 103q203 -140 260 -278q51 49 107 84q53 32 97 75t66 119q188 -130 248.5 -255.5t60.5 -312.5q2 -94 2 -189v-126
q0 -51 8 -84t32 -49t72 -16t80.5 28.5t50.5 71.5t22 90h90q-18 -132 -60 -210q-36 -67 -87.5 -113t-119.5 -62q-56 -13 -111 -13q-68 0 -126.5 21.5t-94.5 69.5q-66 92 -66 242v408q0 47 -17 92t-54 73q-19 13 -39 13q-17 0 -34 -10q-39 -28 -56.5 -74t-17.5 -94v-558
q0 -60 -21 -97t-54 -61.5t-73 -46.5q-45 -24 -87.5 -56.5t-76.5 -86.5v906q0 47 -17 92t-54 73q-19 13 -39 13q-17 0 -33 -10q-39 -28 -56.5 -74t-17.5 -94v-558z" />
    <glyph glyph-name="n" unicode="n" horiz-adv-x="1183" 
d="M476 170q0 -60 -21 -97t-54 -61.5t-73 -46.5q-45 -24 -87.5 -56.5t-75.5 -86.5v711q6 165 83.5 268.5t169.5 160.5q51 33 116 68q82 43 151 91.5t88 105.5q188 -130 248.5 -255.5t60.5 -312.5q2 -94 2 -189v-126q0 -51 8 -84t32 -49t72 -16t80.5 28.5t50.5 71.5t22 90h90
q-18 -132 -60 -210q-36 -67 -87.5 -113t-119.5 -62q-56 -13 -111 -13q-68 0 -126.5 21.5t-94.5 69.5q-66 92 -66 242v408q0 53 -22 103t-70 74q-28 15 -58 15q-27 0 -58 -15q-48 -24 -69.5 -74t-21.5 -103l1 -316v-242z" />
    <glyph glyph-name="o" unicode="o" horiz-adv-x="1048" 
d="M543 -17q-76 0 -145.5 26t-126 86t-81.5 126.5t-30.5 137.5t-5.5 146v22q0 114 36 196t94.5 140.5t127 102t135.5 78.5q80 41 139 83t76 98q132 -92 198 -176.5t88.5 -183.5t23.5 -235v-18q0 -143 -40.5 -271t-128.5 -218.5t-229 -124.5q-63 -15 -131 -15zM614 189
q40 0 76 34t55 102q18 72 18 202v199q0 53 -22 103t-70 74q-30 15 -58 15t-58 -15q-48 -24 -69.5 -74t-21.5 -103v-199q0 -48 3 -101.5t15 -100.5q19 -68 55 -102t77 -34z" />
    <glyph glyph-name="p" unicode="p" horiz-adv-x="1058" 
d="M165 -622v1039l-1 110q0 114 36 196t94.5 140.5t127 102t135.5 78.5q80 41 139 83t76 98q132 -92 198 -176.5t88.5 -183.5t23.5 -235v-28q0 -112 -21 -223t-74 -209q-45 -81 -121.5 -132t-190.5 -51q-141 0 -201 76v-310q0 -67 -21 -119.5t-84 -88.5l-33 -19
q-53 -27 -95.5 -59t-75.5 -89zM571 175q120 0 168 131q34 92 34 221v199q0 53 -22 103t-70 74q-30 15 -58 15t-58 -15q-48 -24 -69.5 -74t-21.5 -103v-413q0 -35 7 -67t28 -51.5t62 -19.5z" />
    <glyph glyph-name="q" unicode="q" horiz-adv-x="1122" 
d="M1072 -622q-33 58 -75.5 90t-95.5 60l-33 18q-106 65 -106 180v383q-84 -123 -234 -123q-73 0 -139 27.5t-119.5 84t-78.5 118t-31 126.5t-6 136v49q0 114 36 196t94.5 140.5t127 102t134.5 78.5q81 41 139.5 83t75.5 98q132 -92 198.5 -176.5t89 -183.5t23.5 -235v-1252
zM612 192q27 0 59 15q50 26 70.5 77t20.5 106v336q0 53 -21.5 103t-69.5 74q-30 15 -58 15t-58 -15q-48 -24 -69.5 -74t-21.5 -103l-1 -155q0 -174 17 -244q15 -55 48 -95t84 -40z" />
    <glyph glyph-name="r" unicode="r" horiz-adv-x="933" 
d="M474 170q0 -60 -21 -97t-54 -61.5t-73 -46.5q-45 -24 -87.5 -56.5t-74.5 -86.5v673q0 57 6 108q18 124 79.5 207t144 139t164.5 98q81 42 139.5 84t75.5 97q55 -39 98 -75q61 -53 90 -111.5t29 -113.5q0 -83 -57.5 -141.5t-158.5 -58.5q0 54 -21.5 103.5t-69.5 74.5
q-28 15 -58 15q-27 0 -58 -15q-48 -25 -70 -74.5t-22 -103.5l-1 -145v-413z" />
    <glyph glyph-name="s" unicode="s" horiz-adv-x="1030" 
d="M583 -13q-109 0 -205 37q-123 52 -185 154q-39 64 -39 130q1 77 38 139q50 77 147 119q26 11 36 11q5 0 5 -4t-6 -14t-11 -23q-10 -22 -10 -55q0 -94 76 -175q63 -58 164 -74q27 -4 55 -4q74 0 144 24q45 16 76.5 39t31.5 49q-2 30 -47 61q-57 40 -244 130
q-62 30 -121 60q-88 46 -239 130l19 32l118 226q100 8 188 54q51 24 92.5 55t68 66.5t44.5 73.5l2 -4q28 -37 45 -90q9 -32 9 -70q0 -33 -9 -66q-41 -112 -126 -171q38 -24 92 -54q60 -31 132 -81q36 -24 67 -56q72 -74 72 -200q0 -43 -8 -87q-16 -111 -102 -205
q-45 -48 -109 -87q-115 -70 -261 -70z" />
    <glyph glyph-name="t" unicode="t" horiz-adv-x="570" 
d="M460 -13q-166 0 -232.5 91.5t-66.5 242.5v699h-123l21 47q35 63 102 63v46q0 115 105 180l33 18q53 28 96 60t76 90v-394h153l-21 -46q-34 -64 -100 -64h-32v-675q0 -86 23.5 -117.5t88.5 -31.5t105.5 54.5t47.5 135.5h90q-33 -239 -157 -331q-90 -68 -209 -68z" />
    <glyph glyph-name="u" unicode="u" horiz-adv-x="1149" 
d="M1028 -13q-68 0 -126 22q-100 37 -139 155q-71 -128 -200 -164q-55 -13 -110 -13q-68 0 -126.5 22t-94.5 70q-67 92 -67 242v560q0 114 105 180l31 17q54 28 97.5 60.5t76.5 90.5v-884q0 -51 8 -84t32.5 -49t71.5 -16q48 0 81 28.5t51 71.5t21 90v495q0 114 105 180
l31 17q54 28 97.5 60.5t76.5 90.5v-884q0 -51 8 -84t32.5 -49t71.5 -16q48 0 81 28.5t51 71.5t21 90h90q-16 -132 -60 -210q-78 -144 -207 -176q-55 -13 -110 -13z" />
    <glyph glyph-name="v" unicode="v" horiz-adv-x="1028" 
d="M478 -178q-95 65 -165 141.5t-109 170.5t-39 212v536q0 116 105 181l31 17q54 27 97.5 59.5t76.5 90.5l2 -908q0 -107 98 -176q96 75 148 178t73.5 219.5t25.5 233.5l2 64q0 125 -28 242t-94.5 207t-180.5 138q29 55 93 94.5t137 39.5q60 -1 118.5 -32.5t104.5 -95.5
q88 -130 88 -396q0 -116 -16 -234q-27 -228 -115.5 -422.5t-264.5 -344.5l-10 -8q-60 -47 -110 -97t-68 -110z" />
    <glyph glyph-name="w" unicode="w" horiz-adv-x="1584" 
d="M1015 -13q-97 0 -166 37.5t-109 104.5q-68 -100 -178 -129q-55 -13 -110 -13q-68 0 -126.5 22t-94.5 70q-67 92 -67 242v560q0 114 105 180l31 17q54 28 97.5 60.5t76.5 90.5v-884q0 -51 8 -84t32.5 -49t71.5 -16q35 0 56 28.5t31.5 71.5t13.5 90v495q0 114 106 180
l33 18q53 28 95.5 60t75.5 90v-884q0 -39 7 -73t27 -55t59 -21q59 0 98 39q68 67 102 200q56 204 56 405q0 125 -28 242t-94.5 207t-180.5 137q30 56 94 95t136 39q60 0 119 -32t104 -95q88 -130 88 -396q0 -154 -26 -306.5t-62.5 -257.5t-82.5 -184t-97 -140
q-55 -77 -127 -119.5t-174 -42.5z" />
    <glyph glyph-name="x" unicode="x" horiz-adv-x="926" 
d="M206 -323h-13q-80 7 -125 45t-61 94.5t-16 108.5q0 98 44 186.5t108 168.5t130 150l44 49q-52 129 -87 235l-146 416h321l137 -396q123 142 159 229q23 66 23 124q0 171 -183 261q28 54 88.5 94t128.5 40q82 -2 131 -38q82 -61 82 -193q0 -75 -24.5 -153t-62.5 -139
q-47 -74 -125.5 -167t-168.5 -193q83 -224 180 -334q61 -68 127 -69q75 0 130.5 57t64.5 133h90q-17 -129 -59 -207q-51 -93 -135.5 -142.5t-188.5 -49.5q-97 0 -175 51.5t-140 134t-110 180.5q-37 -43 -67 -84t-48.5 -86t-18.5 -100q0 -184 184 -271q-28 -54 -88.5 -94.5
t-129.5 -40.5z" />
    <glyph glyph-name="y" unicode="y" horiz-adv-x="1054" 
d="M440 -626q-56 39 -98 75q-61 53 -90 111.5t-29 113.5q0 84 57.5 142t158.5 58q0 -54 21.5 -103.5t69.5 -74.5q28 -15 58 -15q27 0 58 15q48 25 69.5 74.5t21.5 103.5l2 253q-68 -98 -177 -127q-55 -13 -110 -13q-68 0 -126.5 22t-94.5 70q-67 92 -67 242v560
q0 114 105 180l33 19q53 27 96 59.5t76 89.5v-884q0 -51 8 -84t32.5 -49t71.5 -16q48 0 80.5 28.5t51 71.5t21.5 90v495q0 114 105 180l33 19q53 27 96 59.5t76 89.5v-1157q0 -114 -36.5 -196t-94.5 -140.5t-127 -102t-136 -78.5q-80 -41 -139 -83t-76 -98z" />
    <glyph glyph-name="z" unicode="z" horiz-adv-x="952" 
d="M799 -245q-5 0 -5 2q0 5 5 14q21 39 21 82q0 19 -4 42q-19 87 -80.5 141t-155.5 63q-47 4 -87 4q-89 0 -162 -19.5t-123 -42t-71 -34.5l-13 -7q8 116 63.5 241.5t133.5 235t153 176.5q35 31 81 66q-4 3 -9 5q-28 19 -89 50q-72 36 -141 81q-67 43 -114 101
q-51 63 -51 145t55 153q48 61 107 97q-11 -26 -11 -58l1 -17q0 -44 62 -104q62 -52 181 -116.5t242 -125.5q176 -86 238 -129q-86 -43 -197.5 -119t-206 -167t-128.5 -179q48 8 98 8q108 0 204 -36q68 -29 114 -70q80 -74 101 -152q8 -32 8 -75q-11 -171 -185 -245
q-26 -11 -35 -11z" />
    <glyph glyph-name="braceleft" unicode="{" horiz-adv-x="1074" 
d="M1013 -625q-19 63 -86.5 111t-158.5 95q-76 40 -154.5 89t-144.5 116t-107.5 160.5t-41.5 223.5v74q0 49 -4.5 99.5t-20.5 95.5q-32 87 -122 121l-9 4l9 4q39 15 72 43q34 34 50 78.5t20.5 95t4.5 99.5v74q0 130 41 223t107.5 160t145 116.5t154.5 89.5q91 47 158.5 95
t86.5 111q66 -42 66 -129q0 -56 -26.5 -98t-61 -68t-62.5 -35q-44 23 -85 23t-83 -21q-69 -35 -100 -106t-31 -147v-207q0 -62 -4 -121t-22 -112t-59 -96t-113 -72q72 -29 113 -72t59 -96t22 -112t4 -121v-207q0 -76 31 -147t100 -106q42 -21 83 -21t85 23q28 -9 62.5 -35
t61 -68t26.5 -99q0 -85 -66 -128z" />
    <glyph glyph-name="braceright" unicode="}" horiz-adv-x="1243" 
d="M231 -625q-67 43 -67 127q0 57 26.5 99t61 68.5t62.5 35.5q44 -23 86 -23q40 0 83 21q69 35 99.5 106t30.5 147v203q0 62 4 122t22 113.5t59 97t113 72.5q-72 29 -113 72.5t-59 97t-22 113.5t-4 122v203q0 76 -30.5 147t-99.5 106q-43 21 -83 21q-42 0 -86 -23
q-28 9 -62.5 35.5t-61 68t-26.5 99.5q0 84 67 127q19 -63 86 -111t159 -95q76 -40 154 -89.5t144.5 -116.5t107.5 -160t41 -223v-73q0 -50 4.5 -100.5t20.5 -95.5q32 -87 119 -120l12 -5l-12 -5q-124 -48 -140 -216q-4 -50 -4 -100v-73q0 -130 -41 -223.5t-107.5 -160.5
t-144.5 -116t-154 -89q-92 -47 -159 -95t-86 -111z" />
    <glyph glyph-name="acute" unicode="&#xb4;" horiz-adv-x="619" 
d="M100 1269q69 42 126.5 102t92.5 135q17 35 23.5 67.5t8.5 58.5q2 29 -1 55q7 0 32.5 -4.5t64.5 -25.5q72 -46 72 -120q0 -39 -17.5 -73.5t-45.5 -63.5t-62 -51.5t-66 -37.5q-90 -42 -207 -42h-21z" />
    <glyph glyph-name="onequarter" unicode="&#xbc;" horiz-adv-x="1612" 
d="M332 815v708q-47 -14 -75 -51q-16 -25 -16 -50q1 -32 12 -52q-15 0 -34 5.5t-37 29.5q-18 20 -18 53q0 50 40 100q47 51 150 94q19 9 21.5 11t24.5 14q40 22 62 43l7 7q9 11 18 26v-764q0 -57 -53 -90l-18 -10q-26 -14 -47 -30t-37 -44zM309 0h-127l1012 1753h127z
M1216 -87v266h-340q35 59 70.5 140t59.5 171t24 171q0 76 -27 136q-14 28 -33 42q24 12 65 12q91 0 122 -91q10 -30 10 -68q0 -69 -24.5 -154.5t-59 -162.5t-65.5 -125l198 -2v428q0 59 53 91l15 8q27 14 49 30.5t38 45.5v-603h77l-14 -44q-10 -25 -36 -25h-27v-92
q0 -58 -52 -90l-17 -9q-27 -14 -48.5 -30.5t-37.5 -44.5z" />
    <glyph glyph-name="onehalf" unicode="&#xbd;" horiz-adv-x="1529" 
d="M332 815v708q-45 -13 -75 -51q-16 -25 -16 -50q1 -32 12 -52q-15 0 -34 5.5t-37 29.5q-18 21 -18 56q4 103 139 168q35 17 70 32q5 5 22 14q40 20 65 44l9 8q9 11 18 26v-764q0 -57 -53 -90l-18 -10q-26 -14 -47 -30t-37 -44zM308 0h-127l1013 1753h127zM819 -26
q24 190 115 307q66 84 164 168l6 5q33 27 59 58t26 71q0 16 -5 33q-30 80 -98 80q-17 0 -35 -7q-33 -13 -52 -47.5t-19 -70.5q0 -18 5 -34q7 -20 16.5 -28.5t30.5 -8.5q-13 -33 -42 -53q-26 -17 -54 -17q-29 0 -53 17q-39 26 -39 83q0 83 102 156q45 31 99 60q37 18 74.5 44
t50.5 61q121 -78 159 -186q12 -35 13 -68q0 -61 -32 -109t-82 -89t-105 -79q-47 -34 -90 -68q-83 -66 -103 -133q10 9 31 18q39 15 84 15q38 0 77 -9q25 -6 54 -16t59 -18t55 -8q36 0 58 22q14 14 17 29q-7 -53 -29 -99.5t-68 -66.5q-25 -9 -53 -9q-30 0 -62.5 7.5
t-65.5 17.5q-82 26 -134 26q-55 0 -87 -17q-30 -12 -47 -37z" />
    <glyph glyph-name="threequarters" unicode="&#xbe;" horiz-adv-x="1663" 
d="M398 874q-99 0 -172 66q-62 55 -62 129q0 42 28 87q43 61 107 61q31 0 63 -19q28 -20 37 -48l-21 1q-22 0 -43 -10l-11 -9q-33 -33 -33 -69q0 -35 26 -62t68 -27q13 0 27 3q56 14 83.5 62.5t27.5 102.5q0 16 -2 31q-13 69 -65 104.5t-119 39.5q36 16 71 37q70 38 79 114
l1 13q0 51 -30 79t-63 28q-27 0 -48 -20q-18 -21 -18 -46q0 -40 36 -72q17 -13 44 -16q-40 -58 -90 -58q-51 0 -86 50q-15 29 -15 53v10q0 90 112 153l14 7q45 24 78.5 48.5t43.5 55.5q83 -58 121 -111q37 -55 37 -107q0 -57 -35 -105.5t-91 -82.5q44 -13 87 -41
q77 -53 97 -145q5 -24 5 -47q0 -72 -43 -126.5t-109.5 -84t-136.5 -29.5zM359 0h-127l1012 1753h127zM1267 -87v266h-341q35 59 70.5 140t60 170.5t24.5 170.5q0 76 -28 137q-14 28 -33 42q26 12 66 12q90 0 122 -91q10 -30 10 -68q0 -69 -25 -154.5t-59 -162.5t-66 -125
l199 -2v428q0 59 52 91l13 7q28 14 50.5 30.5t39.5 46.5v-603h77l-15 -44q-11 -25 -35 -25h-27v-92q0 -58 -53 -90l-18 -10q-26 -14 -47 -30t-37 -44z" />
    <glyph glyph-name="questiondown" unicode="&#xbf;" horiz-adv-x="898" 
d="M570 520l-219 219l219 219l219 -219zM480 -795q-166 115 -241 221t-75 216q0 95 52 180q45 69 101 124q48 48 86.5 103.5t50.5 135.5q2 19 2 35q0 41 -20 63.5t-68 34.5q20 43 57 79q62 48 135 48q53 0 97 -30t56 -97q3 -18 3 -35q0 -54 -22 -102t-55.5 -93t-70.5 -88
q-50 -56 -87.5 -111.5t-43.5 -114.5l-1 -24q0 -69 28 -117t71 -73t87 -25q54 0 96 40q35 42 35 90q0 82 -71 145q-22 17 -44 23t-44 9l3 3q41 60 98 95q39 19 78 19q103 0 172 -100q31 -60 31 -107l1 -19q0 -125 -117 -229q-59 -52 -130 -90q-93 -48 -161.5 -96.5
t-88.5 -112.5z" />
    <glyph glyph-name="Agrave" unicode="&#xc0;" horiz-adv-x="1210" 
d="M-43 -590q-56 0 -96.5 12t-66 26t-34 26t-10.5 22q106 0 167 22q42 16 86 48q99 70 132 195q29 108 29 291q-1 384 -1 964q0 129 61.5 234.5t173.5 171.5q130 76 262 152q74 40 127 82t69 97q126 -88 198.5 -170t106 -169t41.5 -190.5t8 -236.5v-1165q-32 55 -75 87.5
t-88 56.5q-39 22 -72.5 46.5t-54 61.5t-20.5 96v465h-38l-175 -165l-175 165h-38v-152q0 -126 -9 -489q-8 -309 -160 -445q-65 -59 -147 -94q-107 -45 -201 -45zM900 737l-1 435q0 77 -30.5 147.5t-99.5 105.5q-42 21 -82 21q-41 0 -83 -21q-68 -35 -99 -105.5t-31 -147.5
v-435h38l175 171l175 -171h38zM835 1853q-46 0 -95 8.5t-95 26t-86.5 45t-70.5 65.5q-51 62 -51 123q0 74 72 120q39 21 64 25.5t32 4.5q-3 -26 -1 -55q2 -26 8.5 -58.5t23.5 -67.5q35 -75 93 -135t127 -102h-21z" />
    <glyph glyph-name="Aacute" unicode="&#xc1;" horiz-adv-x="1210" 
d="M-43 -590q-56 0 -96.5 12t-66 26t-34 26t-10.5 22q106 0 167 22q42 16 86 48q99 70 132 195q29 108 29 291q-1 384 -1 964q0 129 61.5 234.5t173.5 171.5q130 76 262 152q74 40 127 82t69 97q126 -88 198.5 -170t106 -169t41.5 -190.5t8 -236.5v-1165q-32 55 -75 87.5
t-88 56.5q-39 22 -72.5 46.5t-54 61.5t-20.5 96v465h-38l-175 -165l-175 165h-38v-152q0 -126 -9 -489q-8 -309 -160 -445q-65 -59 -147 -94q-107 -45 -201 -45zM900 737l-1 435q0 77 -30.5 147.5t-99.5 105.5q-42 21 -82 21q-41 0 -83 -21q-68 -35 -99 -105.5t-31 -147.5
v-435h38l175 171l175 -171h38zM491 1850q69 42 126.5 102t92.5 135q17 35 23.5 67.5t8.5 58.5q2 29 -1 55q7 0 32.5 -4.5t64.5 -25.5q72 -46 72 -120q0 -39 -17.5 -73.5t-45.5 -63.5t-62 -51.5t-66 -37.5q-90 -42 -207 -42h-21z" />
    <glyph glyph-name="Acircumflex" unicode="&#xc2;" horiz-adv-x="1210" 
d="M-43 -590q-56 0 -96.5 12t-66 26t-34 26t-10.5 22q106 0 167 22q42 16 86 48q99 70 132 195q29 108 29 291q-1 384 -1 964q0 129 61.5 234.5t173.5 171.5q130 76 262 152q74 40 127 82t69 97q126 -88 198.5 -170t106 -169t41.5 -190.5t8 -236.5v-1165q-32 55 -75 87.5
t-88 56.5q-39 22 -72.5 46.5t-54 61.5t-20.5 96v465h-38l-175 -165l-175 165h-38v-152q0 -126 -9 -489q-8 -309 -160 -445q-65 -59 -147 -94q-107 -45 -201 -45zM900 737l-1 435q0 77 -30.5 147.5t-99.5 105.5q-42 21 -82 21q-41 0 -83 -21q-68 -35 -99 -105.5t-31 -147.5
v-435h38l175 171l175 -171h38zM905 1854q-44 0 -80.5 23.5t-64 58.5t-46 77t-27.5 79q-26 -110 -86 -173q-60 -65 -129 -65q-57 0 -108 53q-37 44 -47 90q69 7 127.5 35t105 70.5t81 97.5t56.5 116q22 -61 56.5 -116t81 -97.5t105.5 -70.5t129 -35q-10 -46 -45 -90
q-53 -53 -109 -53z" />
    <glyph glyph-name="Atilde" unicode="&#xc3;" horiz-adv-x="1210" 
d="M-43 -590q-56 0 -96.5 12t-66 26t-34 26t-10.5 22q106 0 167 22q42 16 86 48q99 70 132 195q29 108 29 291q-1 384 -1 964q0 129 61.5 234.5t173.5 171.5q130 76 262 152q74 40 127 82t69 97q126 -88 198.5 -170t106 -169t41.5 -190.5t8 -236.5v-1165q-32 55 -75 87.5
t-88 56.5q-39 22 -72.5 46.5t-54 61.5t-20.5 96v465h-38l-175 -165l-175 165h-38v-152q0 -126 -9 -489q-8 -309 -160 -445q-65 -59 -147 -94q-107 -45 -201 -45zM900 737l-1 435q0 77 -30.5 147.5t-99.5 105.5q-42 21 -82 21q-41 0 -83 -21q-68 -35 -99 -105.5t-31 -147.5
v-435h38l175 171l175 -171h38zM987 1954q-35 -46 -88.5 -73.5t-111.5 -27.5q-28 0 -54.5 6.5t-47.5 14.5t-35.5 15.5t-17.5 8.5q-96 47 -163 47q-40 0 -66.5 -12.5t-43.5 -26.5q-18 -18 -29 -40q3 14 10 32q5 15 15.5 36t27.5 47q16 23 39 41.5t49 31.5t54.5 20.5t56.5 7.5
q29 0 55.5 -6.5t47.5 -14.5t35 -15.5t17 -9.5q97 -46 163 -46q41 0 67.5 12t42.5 26q19 17 29 38q-3 -14 -9 -31q-6 -14 -16 -34.5t-27 -46.5z" />
    <glyph glyph-name="Egrave" unicode="&#xc8;" horiz-adv-x="1107" 
d="M619 -111q-89 0 -180 28q-134 42 -225 134t-111 234q-3 22 -3 43q0 87 35.5 173.5t91.5 162t120 129.5l23 19q-105 50 -151.5 115.5t-46.5 139.5q0 81 46.5 163.5t123.5 155t170 125.5l65 36q92 47 159 95t86 111q304 -210 304 -392q0 -67 -33 -126t-92 -95.5t-135 -36.5
v69q0 77 -31 147.5t-100 105.5q-42 21 -82 21t-83 -21q-54 -27 -89 -82t-35 -117q0 -26 8 -52q43 -131 194 -163l80 -18l-49 -40q-56 -46 -112.5 -96t-104 -107t-76.5 -121.5t-29 -139.5q0 -23 3 -46q17 -118 93 -192.5t187 -108.5q100 -32 182 -32q87 0 158 30.5t136 80
t131 108.5l73 63l52 -54l-25 -28q-94 -108 -208.5 -203.5t-246 -156.5t-273.5 -61zM857 1853q-46 0 -95 8.5t-95 26t-86.5 45t-70.5 65.5q-51 62 -51 123q0 74 72 120q39 21 64 25.5t32 4.5q-3 -26 -1 -55q2 -26 8.5 -58.5t23.5 -67.5q35 -75 93 -135t127 -102h-21z" />
    <glyph glyph-name="Eacute" unicode="&#xc9;" horiz-adv-x="1107" 
d="M619 -111q-89 0 -180 28q-134 42 -225 134t-111 234q-3 22 -3 43q0 87 35.5 173.5t91.5 162t120 129.5l23 19q-105 50 -151.5 115.5t-46.5 139.5q0 81 46.5 163.5t123.5 155t170 125.5l65 36q92 47 159 95t86 111q304 -210 304 -392q0 -67 -33 -126t-92 -95.5t-135 -36.5
v69q0 77 -31 147.5t-100 105.5q-42 21 -82 21t-83 -21q-54 -27 -89 -82t-35 -117q0 -26 8 -52q43 -131 194 -163l80 -18l-49 -40q-56 -46 -112.5 -96t-104 -107t-76.5 -121.5t-29 -139.5q0 -23 3 -46q17 -118 93 -192.5t187 -108.5q100 -32 182 -32q87 0 158 30.5t136 80
t131 108.5l73 63l52 -54l-25 -28q-94 -108 -208.5 -203.5t-246 -156.5t-273.5 -61zM588 1853q69 42 126.5 102t92.5 135q17 35 23.5 67.5t8.5 58.5q2 29 -1 55q7 0 32.5 -4.5t64.5 -25.5q72 -46 72 -120q0 -39 -17.5 -73.5t-45.5 -63.5t-62 -51.5t-66 -37.5
q-90 -42 -207 -42h-21z" />
    <glyph glyph-name="Ecircumflex" unicode="&#xca;" horiz-adv-x="1107" 
d="M619 -111q-89 0 -180 28q-134 42 -225 134t-111 234q-3 22 -3 43q0 87 35.5 173.5t91.5 162t120 129.5l23 19q-105 50 -151.5 115.5t-46.5 139.5q0 81 46.5 163.5t123.5 155t170 125.5l65 36q92 47 159 95t86 111q304 -210 304 -392q0 -67 -33 -126t-92 -95.5t-135 -36.5
v69q0 77 -31 147.5t-100 105.5q-42 21 -82 21t-83 -21q-54 -27 -89 -82t-35 -117q0 -26 8 -52q43 -131 194 -163l80 -18l-49 -40q-56 -46 -112.5 -96t-104 -107t-76.5 -121.5t-29 -139.5q0 -23 3 -46q17 -118 93 -192.5t187 -108.5q100 -32 182 -32q87 0 158 30.5t136 80
t131 108.5l73 63l52 -54l-25 -28q-94 -108 -208.5 -203.5t-246 -156.5t-273.5 -61zM907 1854q-44 0 -80.5 23.5t-64 58.5t-46 77t-27.5 79q-26 -110 -86 -173q-60 -65 -129 -65q-57 0 -108 53q-37 44 -47 90q69 7 127.5 35t105 70.5t81 97.5t56.5 116q22 -61 56.5 -116
t81 -97.5t105.5 -70.5t129 -35q-10 -46 -45 -90q-53 -53 -109 -53z" />
    <glyph glyph-name="Igrave" unicode="&#xcc;" horiz-adv-x="1019" 
d="M609 -178v1583q0 11 1 20l-57 -31q-80 -47 -123 -104q-62 -86 -62 -196q0 -38 9 -75q30 -92 73 -131l17 -14q-18 -26 -64 -46q-33 -13 -78 -13q-28 0 -57 7q-81 20 -133 96q-35 57 -35 129q0 28 6 58q21 107 109 199q89 89 217 151q87 44 171 80q100 45 136 65
q72 36 99 60q31 26 48.5 45.5t32.5 47.5v-1583q0 -60 -21 -97t-54 -61.5t-73 -46.5q-45 -24 -87.5 -56.5t-74.5 -86.5zM938 1852q-46 0 -95 8.5t-95 26t-86.5 45t-70.5 65.5q-51 62 -51 123q0 74 72 120q39 21 64 25.5t32 4.5q-3 -26 -1 -55q2 -26 8.5 -58.5t23.5 -67.5
q35 -75 93 -135t127 -102h-21z" />
    <glyph glyph-name="Iacute" unicode="&#xcd;" horiz-adv-x="1019" 
d="M609 -178v1583q0 11 1 20l-57 -31q-80 -47 -123 -104q-62 -86 -62 -196q0 -38 9 -75q30 -92 73 -131l17 -14q-18 -26 -64 -46q-33 -13 -78 -13q-28 0 -57 7q-81 20 -133 96q-35 57 -35 129q0 28 6 58q21 107 109 199q89 89 217 151q87 44 171 80q100 45 136 65
q72 36 99 60q31 26 48.5 45.5t32.5 47.5v-1583q0 -60 -21 -97t-54 -61.5t-73 -46.5q-45 -24 -87.5 -56.5t-74.5 -86.5zM540 1852q69 42 126.5 102t92.5 135q17 35 23.5 67.5t8.5 58.5q2 29 -1 55q7 0 32.5 -4.5t64.5 -25.5q72 -46 72 -120q0 -39 -17.5 -73.5t-45.5 -63.5
t-62 -51.5t-66 -37.5q-90 -42 -207 -42h-21z" />
    <glyph glyph-name="Ograve" unicode="&#xd2;" horiz-adv-x="1442" 
d="M695 -83q-74 0 -156 22q-143 41 -234.5 130.5t-135 241.5t-43.5 286q0 164 61.5 324.5t176 278.5t275.5 161q-54 -85 -99.5 -187.5t-73 -215.5t-27.5 -230q0 -100 25 -259q46 -165 137 -247t194 -82q105 0 201 81.5t151 241.5q39 181 39 291q0 105 -32 199
q-72 213 -287 396q-54 47 -120 79.5t-132 32.5q-25 0 -50 -6l76 45q86 51 154.5 85t134.5 34q62 0 128 -37.5t147 -124.5q119 -128 183.5 -271t64.5 -323.5t-115.5 -431.5t-279 -382.5t-363.5 -131.5zM1072 1769q-46 0 -95 8.5t-95 26t-86.5 45t-70.5 65.5q-51 62 -51 123
q0 74 72 120q39 21 64 25.5t32 4.5q-3 -26 -1 -55q2 -26 8.5 -58.5t23.5 -67.5q35 -75 93 -135t127 -102h-21z" />
    <glyph glyph-name="Oacute" unicode="&#xd3;" horiz-adv-x="1442" 
d="M695 -83q-74 0 -156 22q-143 41 -234.5 130.5t-135 241.5t-43.5 286q0 164 61.5 324.5t176 278.5t275.5 161q-54 -85 -99.5 -187.5t-73 -215.5t-27.5 -230q0 -100 25 -259q46 -165 137 -247t194 -82q105 0 201 81.5t151 241.5q39 181 39 291q0 105 -32 199
q-72 213 -287 396q-54 47 -120 79.5t-132 32.5q-25 0 -50 -6l76 45q86 51 154.5 85t134.5 34q62 0 128 -37.5t147 -124.5q119 -128 183.5 -271t64.5 -323.5t-115.5 -431.5t-279 -382.5t-363.5 -131.5zM724 1768q69 42 126.5 102t92.5 135q17 35 23.5 67.5t8.5 58.5
q2 29 -1 55q7 0 32.5 -4.5t64.5 -25.5q72 -46 72 -120q0 -39 -17.5 -73.5t-45.5 -63.5t-62 -51.5t-66 -37.5q-90 -42 -207 -42h-21z" />
    <glyph glyph-name="Ocircumflex" unicode="&#xd4;" horiz-adv-x="1442" 
d="M695 -83q-74 0 -156 22q-143 41 -234.5 130.5t-135 241.5t-43.5 286q0 164 61.5 324.5t176 278.5t275.5 161q-54 -85 -99.5 -187.5t-73 -215.5t-27.5 -230q0 -100 25 -259q46 -165 137 -247t194 -82q105 0 201 81.5t151 241.5q39 181 39 291q0 105 -32 199
q-72 213 -287 396q-54 47 -120 79.5t-132 32.5q-25 0 -50 -6l76 45q86 51 154.5 85t134.5 34q62 0 128 -37.5t147 -124.5q119 -128 183.5 -271t64.5 -323.5t-115.5 -431.5t-279 -382.5t-363.5 -131.5zM1028 1719q-44 0 -80.5 23.5t-64 58.5t-46 77t-27.5 79
q-26 -110 -86 -173q-60 -65 -129 -65q-57 0 -108 53q-37 44 -47 90q69 7 127.5 35t105 70.5t81 97.5t56.5 116q22 -61 56.5 -116t81 -97.5t105.5 -70.5t129 -35q-10 -46 -45 -90q-53 -53 -109 -53z" />
    <glyph glyph-name="Otilde" unicode="&#xd5;" horiz-adv-x="1442" 
d="M695 -83q-74 0 -156 22q-143 41 -234.5 130.5t-135 241.5t-43.5 286q0 164 61.5 324.5t176 278.5t275.5 161q-54 -85 -99.5 -187.5t-73 -215.5t-27.5 -230q0 -100 25 -259q46 -165 137 -247t194 -82q105 0 201 81.5t151 241.5q39 181 39 291q0 105 -32 199
q-72 213 -287 396q-54 47 -120 79.5t-132 32.5q-25 0 -50 -6l76 45q86 51 154.5 85t134.5 34q62 0 128 -37.5t147 -124.5q119 -128 183.5 -271t64.5 -323.5t-115.5 -431.5t-279 -382.5t-363.5 -131.5zM1140 1870q-35 -46 -88.5 -73.5t-111.5 -27.5q-28 0 -54.5 6.5
t-47.5 14.5t-35.5 15.5t-17.5 8.5q-96 47 -163 47q-40 0 -66.5 -12.5t-43.5 -26.5q-18 -18 -29 -40q3 14 10 32q5 15 15.5 36t27.5 47q16 23 39 41.5t49 31.5t54.5 20.5t56.5 7.5q29 0 55.5 -6.5t47.5 -14.5t35 -15.5t17 -9.5q97 -46 163 -46q41 0 67.5 12t42.5 26
q19 17 29 38q-3 -14 -9 -31q-6 -14 -16 -34.5t-27 -46.5z" />
    <glyph glyph-name="Ugrave" unicode="&#xd9;" horiz-adv-x="1890" 
d="M2059 -590q-96 0 -202 45q-82 35 -147 94q-63 61 -100.5 157.5t-51.5 204.5q-9 74 -12 140q-55 -70 -147 -119t-194 -49q-78 0 -153 36.5t-136 121.5q-65 91 -87.5 199.5t-23.5 253.5q-1 117 -1 235v236q0 82 -2 156q-2 97 -26 211.5t-88 198.5t-186 89
q-97 0 -162.5 -42.5t-98.5 -108t-33 -134.5q0 -83 49.5 -150.5t150.5 -83.5q16 -2 31 -2q46 0 90 18.5t80 56.5q23 -53 23 -99q0 -64 -36 -112.5t-95 -75.5t-126 -27t-133 31t-116 99.5t-72 178.5q-7 36 -7 72q0 62 16 121q51 184 200 290.5t325 106.5q146 0 270 -76
q87 -56 146 -138q59 -89 85 -222.5t26 -229.5v-695q0 -77 31 -147.5t100 -105.5q42 -21 82 -21t82 21q69 35 100 105.5t31 147.5v1002q0 59 20.5 96t54 62t73.5 46q44 25 87 57.5t75 86.5v-1745q3 -245 83 -360q34 -46 78 -77.5t84 -46.5t83 -19q33 -3 86 -4l-1 -2
q-2 -10 -10.5 -21.5t-33.5 -25t-65.5 -25.5t-95.5 -12zM1607 1720q-46 0 -95 8.5t-95 26t-86.5 45t-70.5 65.5q-51 62 -51 123q0 74 72 120q39 21 64 25.5t32 4.5q-3 -26 -1 -55q2 -26 8.5 -58.5t23.5 -67.5q35 -75 93 -135t127 -102h-21z" />
    <glyph glyph-name="Uacute" unicode="&#xda;" horiz-adv-x="1890" 
d="M2059 -590q-96 0 -202 45q-82 35 -147 94q-63 61 -100.5 157.5t-51.5 204.5q-9 74 -12 140q-55 -70 -147 -119t-194 -49q-78 0 -153 36.5t-136 121.5q-65 91 -87.5 199.5t-23.5 253.5q-1 117 -1 235v236q0 82 -2 156q-2 97 -26 211.5t-88 198.5t-186 89
q-97 0 -162.5 -42.5t-98.5 -108t-33 -134.5q0 -83 49.5 -150.5t150.5 -83.5q16 -2 31 -2q46 0 90 18.5t80 56.5q23 -53 23 -99q0 -64 -36 -112.5t-95 -75.5t-126 -27t-133 31t-116 99.5t-72 178.5q-7 36 -7 72q0 62 16 121q51 184 200 290.5t325 106.5q146 0 270 -76
q87 -56 146 -138q59 -89 85 -222.5t26 -229.5v-695q0 -77 31 -147.5t100 -105.5q42 -21 82 -21t82 21q69 35 100 105.5t31 147.5v1002q0 59 20.5 96t54 62t73.5 46q44 25 87 57.5t75 86.5v-1745q3 -245 83 -360q34 -46 78 -77.5t84 -46.5t83 -19q33 -3 86 -4l-1 -2
q-2 -10 -10.5 -21.5t-33.5 -25t-65.5 -25.5t-95.5 -12zM1261 1721q69 42 126.5 102t92.5 135q17 35 23.5 67.5t8.5 58.5q2 29 -1 55q7 0 32.5 -4.5t64.5 -25.5q72 -46 72 -120q0 -39 -17.5 -73.5t-45.5 -63.5t-62 -51.5t-66 -37.5q-90 -42 -207 -42h-21z" />
    <glyph glyph-name="Yacute" unicode="&#xdd;" horiz-adv-x="1889" 
d="M1339 -590q-55 0 -95 12t-64 25q-27 15 -35.5 27t-10.5 22h9q33 0 76 4t83.5 19t84.5 46.5t78 78.5t50.5 102.5t20.5 114.5t4 117v67q-56 -68 -146.5 -115t-190.5 -47q-77 0 -152 36.5t-136 121.5q-64 91 -86.5 199.5t-23.5 253.5q-2 140 -2 376q0 177 -1 251
q-2 97 -26.5 211.5t-88.5 198.5t-186 89q-97 0 -162 -42.5t-98.5 -108.5t-33.5 -135q0 -83 49.5 -150t150.5 -83q16 -2 32 -2q46 0 90 18.5t79 56.5q23 -53 23 -99q0 -64 -36 -112.5t-95 -75.5t-126 -27t-133 31t-116 99.5t-72 178.5q-6 36 -6 72q0 63 15 121
q51 184 200 290.5t326 106.5q145 0 270 -76q88 -56 145 -138q59 -89 85.5 -222.5t26.5 -229.5v-695q0 -77 31 -147.5t99 -105.5q42 -21 83 -21q40 0 82 21q69 35 99.5 105.5t30.5 147.5l1 1002q0 59 20.5 96t54 62t73.5 46q44 25 87 57.5t75 86.5v-1615q0 -98 -9 -206
t-44 -207q-66 -185 -256 -265q-107 -45 -203 -45zM1261 1771q69 42 126.5 102t92.5 135q17 35 23.5 67.5t8.5 58.5q2 29 -1 55q7 0 32.5 -4.5t64.5 -25.5q72 -46 72 -120q0 -39 -17.5 -73.5t-45.5 -63.5t-62 -51.5t-66 -37.5q-90 -42 -207 -42h-21z" />
    <glyph glyph-name="agrave" unicode="&#xe0;" 
d="M1055 -15q-105 0 -164.5 53t-83.5 145q-40 -89 -106.5 -143.5t-171.5 -54.5q-73 0 -138.5 27.5t-118.5 82.5q-59 63 -88.5 148t-29.5 173q0 53 11 105q36 152 132 247t227 166q67 37 142 74q129 61 243.5 136.5t164.5 183.5v-985q0 -51 8 -84t32.5 -49t71.5 -16
q48 0 81 28.5t51 71.5t21 90h90q-16 -132 -60 -210q-36 -67 -88 -113q-84 -76 -226 -76zM614 191q27 0 59 15q50 26 70.5 77t20.5 106v530l-54 -31q-122 -70 -175 -149q-69 -103 -69 -283q0 -148 64 -225q33 -40 84 -40zM853 1270q-46 0 -95 8.5t-95 26t-86.5 45t-70.5 65.5
q-51 62 -51 123q0 74 72 120q39 21 64 25.5t32 4.5q-3 -26 -1 -55q2 -26 8.5 -58.5t23.5 -67.5q35 -75 93 -135t127 -102h-21z" />
    <glyph glyph-name="aacute" unicode="&#xe1;" 
d="M1055 -15q-105 0 -164.5 53t-83.5 145q-40 -89 -106.5 -143.5t-171.5 -54.5q-73 0 -138.5 27.5t-118.5 82.5q-59 63 -88.5 148t-29.5 173q0 53 11 105q36 152 132 247t227 166q67 37 142 74q129 61 243.5 136.5t164.5 183.5v-985q0 -51 8 -84t32.5 -49t71.5 -16
q48 0 81 28.5t51 71.5t21 90h90q-16 -132 -60 -210q-36 -67 -88 -113q-84 -76 -226 -76zM614 191q27 0 59 15q50 26 70.5 77t20.5 106v530l-54 -31q-122 -70 -175 -149q-69 -103 -69 -283q0 -148 64 -225q33 -40 84 -40zM555 1270q69 42 126.5 102t92.5 135q17 35 23.5 67.5
t8.5 58.5q2 29 -1 55q7 0 32.5 -4.5t64.5 -25.5q72 -46 72 -120q0 -39 -17.5 -73.5t-45.5 -63.5t-62 -51.5t-66 -37.5q-90 -42 -207 -42h-21z" />
    <glyph glyph-name="acircumflex" unicode="&#xe2;" 
d="M1055 -15q-105 0 -164.5 53t-83.5 145q-40 -89 -106.5 -143.5t-171.5 -54.5q-73 0 -138.5 27.5t-118.5 82.5q-59 63 -88.5 148t-29.5 173q0 53 11 105q36 152 132 247t227 166q67 37 142 74q129 61 243.5 136.5t164.5 183.5v-985q0 -51 8 -84t32.5 -49t71.5 -16
q48 0 81 28.5t51 71.5t21 90h90q-16 -132 -60 -210q-36 -67 -88 -113q-84 -76 -226 -76zM614 191q27 0 59 15q50 26 70.5 77t20.5 106v530l-54 -31q-122 -70 -175 -149q-69 -103 -69 -283q0 -148 64 -225q33 -40 84 -40zM869 1268q-44 0 -80.5 23.5t-64 58.5t-46 77
t-27.5 79q-26 -110 -86 -173q-60 -65 -129 -65q-57 0 -108 53q-37 44 -47 90q69 7 127.5 35t105 70.5t81 97.5t56.5 116q22 -61 56.5 -116t81 -97.5t105.5 -70.5t129 -35q-10 -46 -45 -90q-53 -53 -109 -53z" />
    <glyph glyph-name="atilde" unicode="&#xe3;" 
d="M1055 -15q-105 0 -164.5 53t-83.5 145q-40 -89 -106.5 -143.5t-171.5 -54.5q-73 0 -138.5 27.5t-118.5 82.5q-59 63 -88.5 148t-29.5 173q0 53 11 105q36 152 132 247t227 166q67 37 142 74q129 61 243.5 136.5t164.5 183.5v-985q0 -51 8 -84t32.5 -49t71.5 -16
q48 0 81 28.5t51 71.5t21 90h90q-16 -132 -60 -210q-36 -67 -88 -113q-84 -76 -226 -76zM614 191q27 0 59 15q50 26 70.5 77t20.5 106v530l-54 -31q-122 -70 -175 -149q-69 -103 -69 -283q0 -148 64 -225q33 -40 84 -40zM951 1381q-35 -46 -88.5 -73.5t-111.5 -27.5
q-28 0 -54.5 6.5t-47.5 14.5t-35.5 15.5t-17.5 8.5q-96 47 -163 47q-40 0 -66.5 -12.5t-43.5 -26.5q-18 -18 -29 -40q3 14 10 32q5 15 15.5 36t27.5 47q16 23 39 41.5t49 31.5t54.5 20.5t56.5 7.5q29 0 55.5 -6.5t47.5 -14.5t35 -15.5t17 -9.5q97 -46 163 -46q41 0 67.5 12
t42.5 26q19 17 29 38q-3 -14 -9 -31q-6 -14 -16 -34.5t-27 -46.5z" />
    <glyph glyph-name="egrave" unicode="&#xe8;" horiz-adv-x="973" 
d="M606 -17h-22q-118 0 -217 55.5t-156 174.5q-57 130 -57 265v51q0 114 36 196t94.5 141t127 102t135.5 78q80 42 139 84t76 97q51 -36 93 -70q134 -116 134 -282l-2 -37q-11 -101 -64.5 -172t-132 -123.5t-163.5 -98.5q-97 -53 -119 -67l-26 -15q23 -107 82 -155.5
t137 -49.5l26 -1q130 0 248 54.5t187 173.5h73q-46 -125 -146.5 -212.5t-227.5 -135t-255 -53.5zM464 499l52 28q28 14 67 37q65 38 114.5 98t49.5 124q0 44 -32 85q-46 49 -101 49q-37 0 -71.5 -22t-56.5 -65t-22 -105v-229zM692 1270q-46 0 -95 8.5t-95 26t-86.5 45
t-70.5 65.5q-51 62 -51 123q0 74 72 120q39 21 64 25.5t32 4.5q-3 -26 -1 -55q2 -26 8.5 -58.5t23.5 -67.5q35 -75 93 -135t127 -102h-21z" />
    <glyph glyph-name="eacute" unicode="&#xe9;" horiz-adv-x="973" 
d="M606 -17h-22q-118 0 -217 55.5t-156 174.5q-57 130 -57 265v51q0 114 36 196t94.5 141t127 102t135.5 78q80 42 139 84t76 97q51 -36 93 -70q134 -116 134 -282l-2 -37q-11 -101 -64.5 -172t-132 -123.5t-163.5 -98.5q-97 -53 -119 -67l-26 -15q23 -107 82 -155.5
t137 -49.5l26 -1q130 0 248 54.5t187 173.5h73q-46 -125 -146.5 -212.5t-227.5 -135t-255 -53.5zM464 499l52 28q28 14 67 37q65 38 114.5 98t49.5 124q0 44 -32 85q-46 49 -101 49q-37 0 -71.5 -22t-56.5 -65t-22 -105v-229zM453 1270q69 42 126.5 102t92.5 135
q17 35 23.5 67.5t8.5 58.5q2 29 -1 55q7 0 32.5 -4.5t64.5 -25.5q72 -46 72 -120q0 -39 -17.5 -73.5t-45.5 -63.5t-62 -51.5t-66 -37.5q-90 -42 -207 -42h-21z" />
    <glyph glyph-name="ecircumflex" unicode="&#xea;" horiz-adv-x="973" 
d="M606 -17h-22q-118 0 -217 55.5t-156 174.5q-57 130 -57 265v51q0 114 36 196t94.5 141t127 102t135.5 78q80 42 139 84t76 97q51 -36 93 -70q134 -116 134 -282l-2 -37q-11 -101 -64.5 -172t-132 -123.5t-163.5 -98.5q-97 -53 -119 -67l-26 -15q23 -107 82 -155.5
t137 -49.5l26 -1q130 0 248 54.5t187 173.5h73q-46 -125 -146.5 -212.5t-227.5 -135t-255 -53.5zM464 499l52 28q28 14 67 37q65 38 114.5 98t49.5 124q0 44 -32 85q-46 49 -101 49q-37 0 -71.5 -22t-56.5 -65t-22 -105v-229zM818 1268q-44 0 -80.5 23.5t-64 58.5t-46 77
t-27.5 79q-26 -110 -86 -173q-60 -65 -129 -65q-57 0 -108 53q-37 44 -47 90q69 7 127.5 35t105 70.5t81 97.5t56.5 116q22 -61 56.5 -116t81 -97.5t105.5 -70.5t129 -35q-10 -46 -45 -90q-53 -53 -109 -53z" />
    <glyph glyph-name="igrave" unicode="&#xec;" horiz-adv-x="574" 
d="M547 1269q-48 0 -96 8.5t-93.5 26t-85.5 44.5t-72 65q-50 64 -50 123q0 75 72 120q38 22 63.5 26.5t32.5 4.5q-3 -26 -1 -55q2 -26 8.5 -58.5t23.5 -68.5q35 -75 93 -134.5t126 -101.5h-21zM452 -13q-68 0 -126.5 21.5t-94.5 69.5q-66 92 -66 242v560q0 116 105 180
l33 19q53 27 96 59.5t76 89.5v-884q0 -51 8 -84t32 -49t72 -16t80.5 28.5t50.5 71.5t22 90h90q-18 -132 -60 -210q-36 -67 -88 -113q-84 -75 -230 -75z" />
    <glyph glyph-name="iacute" unicode="&#xed;" horiz-adv-x="574" 
d="M128 1269q69 41 126.5 101t92.5 135q17 35 23.5 67.5t8.5 58.5q2 29 -1 55q7 0 32.5 -4.5t63.5 -25.5q72 -46 72 -120q0 -39 -17.5 -74t-45 -64t-61.5 -51t-66 -37q-88 -41 -207 -41h-21zM452 -13q-68 0 -126.5 21.5t-94.5 69.5q-66 92 -66 242v560q0 116 105 180l33 19
q53 27 96 59.5t76 89.5v-884q0 -51 8 -84t32 -49t72 -16t80.5 28.5t50.5 71.5t22 90h90q-18 -132 -60 -210q-36 -67 -88 -113q-84 -75 -230 -75z" />
    <glyph glyph-name="ograve" unicode="&#xf2;" horiz-adv-x="1048" 
d="M543 -17q-76 0 -145.5 26t-126 86t-81.5 126.5t-30.5 137.5t-5.5 146v22q0 114 36 196t94.5 140.5t127 102t135.5 78.5q80 41 139 83t76 98q132 -92 198 -176.5t88.5 -183.5t23.5 -235v-18q0 -143 -40.5 -271t-128.5 -218.5t-229 -124.5q-63 -15 -131 -15zM614 189
q40 0 76 34t55 102q18 72 18 202v199q0 53 -22 103t-70 74q-30 15 -58 15t-58 -15q-48 -24 -69.5 -74t-21.5 -103v-199q0 -48 3 -101.5t15 -100.5q19 -68 55 -102t77 -34zM731 1326q-46 0 -95 8.5t-95 26t-86.5 45t-70.5 65.5q-51 62 -51 123q0 74 72 120q39 21 64 25.5
t32 4.5q-3 -26 -1 -55q2 -26 8.5 -58.5t23.5 -67.5q35 -75 93 -135t127 -102h-21z" />
    <glyph glyph-name="oacute" unicode="&#xf3;" horiz-adv-x="1048" 
d="M543 -17q-76 0 -145.5 26t-126 86t-81.5 126.5t-30.5 137.5t-5.5 146v22q0 114 36 196t94.5 140.5t127 102t135.5 78.5q80 41 139 83t76 98q132 -92 198 -176.5t88.5 -183.5t23.5 -235v-18q0 -143 -40.5 -271t-128.5 -218.5t-229 -124.5q-63 -15 -131 -15zM614 189
q40 0 76 34t55 102q18 72 18 202v199q0 53 -22 103t-70 74q-30 15 -58 15t-58 -15q-48 -24 -69.5 -74t-21.5 -103v-199q0 -48 3 -101.5t15 -100.5q19 -68 55 -102t77 -34zM454 1310q69 42 126.5 102t92.5 135q17 35 23.5 67.5t8.5 58.5q2 29 -1 55q7 0 32.5 -4.5t64.5 -25.5
q72 -46 72 -120q0 -39 -17.5 -73.5t-45.5 -63.5t-62 -51.5t-66 -37.5q-90 -42 -207 -42h-21z" />
    <glyph glyph-name="ocircumflex" unicode="&#xf4;" horiz-adv-x="1048" 
d="M543 -17q-76 0 -145.5 26t-126 86t-81.5 126.5t-30.5 137.5t-5.5 146v22q0 114 36 196t94.5 140.5t127 102t135.5 78.5q80 41 139 83t76 98q132 -92 198 -176.5t88.5 -183.5t23.5 -235v-18q0 -143 -40.5 -271t-128.5 -218.5t-229 -124.5q-63 -15 -131 -15zM614 189
q40 0 76 34t55 102q18 72 18 202v199q0 53 -22 103t-70 74q-30 15 -58 15t-58 -15q-48 -24 -69.5 -74t-21.5 -103v-199q0 -48 3 -101.5t15 -100.5q19 -68 55 -102t77 -34zM819 1268q-44 0 -80.5 23.5t-64 58.5t-46 77t-27.5 79q-26 -110 -86 -173q-60 -65 -129 -65
q-57 0 -108 53q-37 44 -47 90q69 7 127.5 35t105 70.5t81 97.5t56.5 116q22 -61 56.5 -116t81 -97.5t105.5 -70.5t129 -35q-10 -46 -45 -90q-53 -53 -109 -53z" />
    <glyph glyph-name="otilde" unicode="&#xf5;" horiz-adv-x="1048" 
d="M543 -17q-76 0 -145.5 26t-126 86t-81.5 126.5t-30.5 137.5t-5.5 146v22q0 114 36 196t94.5 140.5t127 102t135.5 78.5q80 41 139 83t76 98q132 -92 198 -176.5t88.5 -183.5t23.5 -235v-18q0 -143 -40.5 -271t-128.5 -218.5t-229 -124.5q-63 -15 -131 -15zM614 189
q40 0 76 34t55 102q18 72 18 202v199q0 53 -22 103t-70 74q-30 15 -58 15t-58 -15q-48 -24 -69.5 -74t-21.5 -103v-199q0 -48 3 -101.5t15 -100.5q19 -68 55 -102t77 -34zM921 1419q-35 -46 -88.5 -73.5t-111.5 -27.5q-28 0 -54.5 6.5t-47.5 14.5t-35.5 15.5t-17.5 8.5
q-96 47 -163 47q-40 0 -66.5 -12.5t-43.5 -26.5q-18 -18 -29 -40q3 14 10 32q5 15 15.5 36t27.5 47q16 23 39 41.5t49 31.5t54.5 20.5t56.5 7.5q29 0 55.5 -6.5t47.5 -14.5t35 -15.5t17 -9.5q97 -46 163 -46q41 0 67.5 12t42.5 26q19 17 29 38q-3 -14 -9 -31
q-6 -14 -16 -34.5t-27 -46.5z" />
    <glyph glyph-name="divide" unicode="&#xf7;" horiz-adv-x="1102" 
d="M543 383l-130 131l130 130l130 -130zM543 974l-130 130l130 130l130 -130zM930 717h-774v184h774v-184z" />
    <glyph glyph-name="ugrave" unicode="&#xf9;" horiz-adv-x="1149" 
d="M1028 -13q-68 0 -126 22q-100 37 -139 155q-71 -128 -200 -164q-55 -13 -110 -13q-68 0 -126.5 22t-94.5 70q-67 92 -67 242v560q0 114 105 180l31 17q54 28 97.5 60.5t76.5 90.5v-884q0 -51 8 -84t32.5 -49t71.5 -16q48 0 81 28.5t51 71.5t21 90v495q0 114 105 180
l31 17q54 28 97.5 60.5t76.5 90.5v-884q0 -51 8 -84t32.5 -49t71.5 -16q48 0 81 28.5t51 71.5t21 90h90q-16 -132 -60 -210q-78 -144 -207 -176q-55 -13 -110 -13zM882 1269q-46 0 -95 8.5t-95 26t-86.5 45t-70.5 65.5q-51 62 -51 123q0 74 72 120q39 21 64 25.5t32 4.5
q-3 -26 -1 -55q2 -26 8.5 -58.5t23.5 -67.5q35 -75 93 -135t127 -102h-21z" />
    <glyph glyph-name="uacute" unicode="&#xfa;" horiz-adv-x="1149" 
d="M1028 -13q-68 0 -126 22q-100 37 -139 155q-71 -128 -200 -164q-55 -13 -110 -13q-68 0 -126.5 22t-94.5 70q-67 92 -67 242v560q0 114 105 180l31 17q54 28 97.5 60.5t76.5 90.5v-884q0 -51 8 -84t32.5 -49t71.5 -16q48 0 81 28.5t51 71.5t21 90v495q0 114 105 180
l31 17q54 28 97.5 60.5t76.5 90.5v-884q0 -51 8 -84t32.5 -49t71.5 -16q48 0 81 28.5t51 71.5t21 90h90q-16 -132 -60 -210q-78 -144 -207 -176q-55 -13 -110 -13zM584 1269q69 42 126.5 102t92.5 135q17 35 23.5 67.5t8.5 58.5q2 29 -1 55q7 0 32.5 -4.5t64.5 -25.5
q72 -46 72 -120q0 -39 -17.5 -73.5t-45.5 -63.5t-62 -51.5t-66 -37.5q-90 -42 -207 -42h-21z" />
    <glyph glyph-name="yacute" unicode="&#xfd;" horiz-adv-x="1054" 
d="M440 -626q-56 39 -98 75q-61 53 -90 111.5t-29 113.5q0 84 57.5 142t158.5 58q0 -54 21.5 -103.5t69.5 -74.5q28 -15 58 -15q27 0 58 15q48 25 69.5 74.5t21.5 103.5l2 253q-68 -98 -177 -127q-55 -13 -110 -13q-68 0 -126.5 22t-94.5 70q-67 92 -67 242v560
q0 114 105 180l33 19q53 27 96 59.5t76 89.5v-884q0 -51 8 -84t32.5 -49t71.5 -16q48 0 80.5 28.5t51 71.5t21.5 90v495q0 114 105 180l33 19q53 27 96 59.5t76 89.5v-1157q0 -114 -36.5 -196t-94.5 -140.5t-127 -102t-136 -78.5q-80 -41 -139 -83t-76 -98zM584 1269
q69 42 126.5 102t92.5 135q17 35 23.5 67.5t8.5 58.5q2 29 -1 55q7 0 32.5 -4.5t64.5 -25.5q72 -46 72 -120q0 -39 -17.5 -73.5t-45.5 -63.5t-62 -51.5t-66 -37.5q-90 -42 -207 -42h-21z" />
    <glyph glyph-name="Abreve" unicode="&#x102;" horiz-adv-x="1210" 
d="M-43 -590q-56 0 -96.5 12t-66 26t-34 26t-10.5 22q106 0 167 22q42 16 86 48q99 70 132 195q29 108 29 291q-1 384 -1 964q0 129 61.5 234.5t173.5 171.5q130 76 262 152q74 40 127 82t69 97q126 -88 198.5 -170t106 -169t41.5 -190.5t8 -236.5v-1165q-32 55 -75 87.5
t-88 56.5q-39 22 -72.5 46.5t-54 61.5t-20.5 96v465h-38l-175 -165l-175 165h-38v-152q0 -126 -9 -489q-8 -309 -160 -445q-65 -59 -147 -94q-107 -45 -201 -45zM900 737l-1 435q0 77 -30.5 147.5t-99.5 105.5q-42 21 -82 21q-41 0 -83 -21q-68 -35 -99 -105.5t-31 -147.5
v-435h38l175 171l175 -171h38zM675 1854q-65 0 -115.5 15t-88.5 39.5t-65.5 55.5t-45.5 64q-43 77 -55 174q2 2 6 5q3 2 7.5 4t9.5 4q13 5 31 8t38 3q25 0 49 -7.5t44 -21t35.5 -33t22.5 -44.5q-1 0 -6.5 -1t-12 -6.5t-11.5 -17t-5 -32.5q0 -35 16 -58.5t39.5 -38t52 -20.5
t54.5 -6t55 6t53 20.5t39.5 38t15.5 58.5q0 21 -5.5 32.5t-11.5 17t-11.5 6.5t-6.5 1q6 16 16 32q8 14 22 29t35 26q19 11 38.5 15t38.5 4q22 0 48 -5.5t45 -18.5q-12 -97 -55 -174q-18 -33 -45.5 -64t-65.5 -55.5t-89 -39.5t-116 -15z" />
    <glyph glyph-name="abreve" unicode="&#x103;" 
d="M1055 -15q-105 0 -164.5 53t-83.5 145q-40 -89 -106.5 -143.5t-171.5 -54.5q-73 0 -138.5 27.5t-118.5 82.5q-59 63 -88.5 148t-29.5 173q0 53 11 105q36 152 132 247t227 166q67 37 142 74q129 61 243.5 136.5t164.5 183.5v-985q0 -51 8 -84t32.5 -49t71.5 -16
q48 0 81 28.5t51 71.5t21 90h90q-16 -132 -60 -210q-36 -67 -88 -113q-84 -76 -226 -76zM614 191q27 0 59 15q50 26 70.5 77t20.5 106v530l-54 -31q-122 -70 -175 -149q-69 -103 -69 -283q0 -148 64 -225q33 -40 84 -40zM653 1205q-65 0 -115.5 15t-88.5 39.5t-65.5 55.5
t-45.5 64q-43 77 -55 174q2 2 6 5q3 2 7.5 4t9.5 4q13 5 31 8t38 3q25 0 49 -7.5t44 -21t35.5 -33t22.5 -44.5q-1 0 -6.5 -1t-12 -6.5t-11.5 -17t-5 -32.5q0 -35 16 -58.5t39.5 -38t52 -20.5t54.5 -6t55 6t53 20.5t39.5 38t15.5 58.5q0 21 -5.5 32.5t-11.5 17t-11.5 6.5
t-6.5 1q6 16 16 32q8 14 22 29t35 26q19 11 38.5 15t38.5 4q22 0 48 -5.5t45 -18.5q-12 -97 -55 -174q-18 -33 -45.5 -64t-65.5 -55.5t-89 -39.5t-116 -15z" />
    <glyph glyph-name="Dcroat" unicode="&#x110;" horiz-adv-x="1592" 
d="M863 472v-302q0 -60 -20.5 -96.5t-54 -61.5t-73.5 -46q-64 -33 -121 -88q94 -25 196 -25q79 0 158 14q147 28 236.5 109.5t130 199.5t40.5 252q0 132 -34 267q-61 238 -185.5 396t-310.5 309q-35 25 -75 51q-96 62 -183.5 135.5t-115.5 162.5q-8 30 -8 58q0 68 37 126
t90.5 107t108.5 92q30 23 56 45q-1 -1 -2 -3q-31 -36 -58 -79t-27 -91q0 -17 4 -35q18 -60 90 -122.5t177 -135.5q119 -82 249.5 -191t242.5 -258q99 -137 154.5 -310.5t55.5 -351.5q0 -118 -27 -230.5t-85 -210.5q-137 -223 -376 -369t-492 -158h-28q-153 0 -281 41
t-205 116t-77 178q0 79 55.5 173t179.5 199l66 56q-46 -109 -46 -196q0 -78 31.5 -138t87.5 -103t129 -68v582h-324q32 18 51.5 43.5t33.5 52.5q13 23 27.5 43t36.5 32.5t57 12.5h118v300q0 60 21 97t54 61.5t73 46.5q45 24 87.5 56.5t74.5 86.5v-648h341
q-32 -19 -51.5 -44.5t-33.5 -52.5q-13 -23 -27.5 -43t-36.5 -32t-57 -12h-135z" />
    <glyph glyph-name="dcroat" unicode="&#x111;" horiz-adv-x="1177" 
d="M1059 -15q-105 0 -164.5 53t-83.5 145q-40 -89 -106.5 -143.5t-171.5 -54.5q-73 0 -138.5 27.5t-118.5 82.5q-66 73 -94 176.5t-28 211.5q1 178 72 294q68 110 176.5 184.5t236.5 140.5q64 34 129 71v106h-204q23 8 32 19.5t14 23t12 20.5t22 15t44 6h80v40
q0 114 105 180l31 17q54 28 97.5 60.5t76.5 90.5v-388h170q-22 -9 -31.5 -20.5t-14.5 -23t-12 -20.5t-22 -14.5t-45 -5.5h-45v-936q0 -51 8 -84t32.5 -49t71.5 -16q48 0 81 28.5t51 71.5t21 90h90q-16 -132 -60 -210q-36 -67 -88 -113q-84 -76 -226 -76zM625 194q26 0 52 12
q48 25 69.5 74.5t21.5 103.5v642l-54 -32q-105 -60 -158 -126t-70 -152.5t-17 -211.5q0 -114 17 -178q29 -111 95 -127q24 -5 44 -5z" />
    <glyph glyph-name="Itilde" unicode="&#x128;" horiz-adv-x="1019" 
d="M609 -178v1583q0 11 1 20l-57 -31q-80 -47 -123 -104q-62 -86 -62 -196q0 -38 9 -75q30 -92 73 -131l17 -14q-18 -26 -64 -46q-33 -13 -78 -13q-28 0 -57 7q-81 20 -133 96q-35 57 -35 129q0 28 6 58q21 107 109 199q89 89 217 151q87 44 171 80q100 45 136 65
q72 36 99 60q31 26 48.5 45.5t32.5 47.5v-1583q0 -60 -21 -97t-54 -61.5t-73 -46.5q-45 -24 -87.5 -56.5t-74.5 -86.5zM967 1954q-35 -46 -88.5 -73.5t-111.5 -27.5q-28 0 -54.5 6.5t-47.5 14.5t-35.5 15.5t-17.5 8.5q-96 47 -163 47q-40 0 -66.5 -12.5t-43.5 -26.5
q-18 -18 -29 -40q3 14 10 32q5 15 15.5 36t27.5 47q16 23 39 41.5t49 31.5t54.5 20.5t56.5 7.5q29 0 55.5 -6.5t47.5 -14.5t35 -15.5t17 -9.5q97 -46 163 -46q41 0 67.5 12t42.5 26q19 17 29 38q-3 -14 -9 -31q-6 -14 -16 -34.5t-27 -46.5z" />
    <glyph glyph-name="itilde" unicode="&#x129;" horiz-adv-x="574" 
d="M635 1370q-33 -46 -87.5 -73.5t-111.5 -27.5q-28 0 -55 6.5t-48 14.5t-35 15.5t-17 8.5q-48 23 -90 35t-74 12q-40 0 -66.5 -12.5t-43.5 -26.5q-18 -18 -29 -40q3 14 10 32q6 15 16 36t27 47q34 45 88 73t111 28q29 0 55.5 -6.5t47.5 -14.5t35 -15t17 -9q97 -47 164 -47
q41 0 67 12t43 26q18 17 29 38q-3 -14 -10 -31q-6 -14 -16 -34.5t-27 -46.5zM452 -13q-68 0 -126.5 21.5t-94.5 69.5q-66 92 -66 242v560q0 116 105 180l33 19q53 27 96 59.5t76 89.5v-884q0 -51 8 -84t32 -49t72 -16t80.5 28.5t50.5 71.5t22 90h90q-18 -132 -60 -210
q-36 -67 -88 -113q-84 -75 -230 -75z" />
    <glyph glyph-name="Utilde" unicode="&#x168;" horiz-adv-x="1890" 
d="M2059 -590q-96 0 -202 45q-82 35 -147 94q-63 61 -100.5 157.5t-51.5 204.5q-9 74 -12 140q-55 -70 -147 -119t-194 -49q-78 0 -153 36.5t-136 121.5q-65 91 -87.5 199.5t-23.5 253.5q-1 117 -1 235v236q0 82 -2 156q-2 97 -26 211.5t-88 198.5t-186 89
q-97 0 -162.5 -42.5t-98.5 -108t-33 -134.5q0 -83 49.5 -150.5t150.5 -83.5q16 -2 31 -2q46 0 90 18.5t80 56.5q23 -53 23 -99q0 -64 -36 -112.5t-95 -75.5t-126 -27t-133 31t-116 99.5t-72 178.5q-7 36 -7 72q0 62 16 121q51 184 200 290.5t325 106.5q146 0 270 -76
q87 -56 146 -138q59 -89 85 -222.5t26 -229.5v-695q0 -77 31 -147.5t100 -105.5q42 -21 82 -21t82 21q69 35 100 105.5t31 147.5v1002q0 59 20.5 96t54 62t73.5 46q44 25 87 57.5t75 86.5v-1745q3 -245 83 -360q34 -46 78 -77.5t84 -46.5t83 -19q33 -3 86 -4l-1 -2
q-2 -10 -10.5 -21.5t-33.5 -25t-65.5 -25.5t-95.5 -12zM1697 1872q-35 -46 -88.5 -73.5t-111.5 -27.5q-28 0 -54.5 6.5t-47.5 14.5t-35.5 15.5t-17.5 8.5q-96 47 -163 47q-40 0 -66.5 -12.5t-43.5 -26.5q-18 -18 -29 -40q3 14 10 32q5 15 15.5 36t27.5 47q16 23 39 41.5
t49 31.5t54.5 20.5t56.5 7.5q29 0 55.5 -6.5t47.5 -14.5t35 -15.5t17 -9.5q97 -46 163 -46q41 0 67.5 12t42.5 26q19 17 29 38q-3 -14 -9 -31q-6 -14 -16 -34.5t-27 -46.5z" />
    <glyph glyph-name="utilde" unicode="&#x169;" horiz-adv-x="1149" 
d="M1028 -13q-68 0 -126 22q-100 37 -139 155q-71 -128 -200 -164q-55 -13 -110 -13q-68 0 -126.5 22t-94.5 70q-67 92 -67 242v560q0 114 105 180l31 17q54 28 97.5 60.5t76.5 90.5v-884q0 -51 8 -84t32.5 -49t71.5 -16q48 0 81 28.5t51 71.5t21 90v495q0 114 105 180
l31 17q54 28 97.5 60.5t76.5 90.5v-884q0 -51 8 -84t32.5 -49t71.5 -16q48 0 81 28.5t51 71.5t21 90h90q-16 -132 -60 -210q-78 -144 -207 -176q-55 -13 -110 -13zM961 1370q-35 -46 -88.5 -73.5t-111.5 -27.5q-28 0 -54.5 6.5t-47.5 14.5t-35.5 15.5t-17.5 8.5
q-96 47 -163 47q-40 0 -66.5 -12.5t-43.5 -26.5q-18 -18 -29 -40q3 14 10 32q5 15 15.5 36t27.5 47q16 23 39 41.5t49 31.5t54.5 20.5t56.5 7.5q29 0 55.5 -6.5t47.5 -14.5t35 -15.5t17 -9.5q97 -46 163 -46q41 0 67.5 12t42.5 26q19 17 29 38q-3 -14 -9 -31
q-6 -14 -16 -34.5t-27 -46.5z" />
    <glyph glyph-name="Ohorn" unicode="&#x1a0;" horiz-adv-x="1442" 
d="M695 -83q-74 0 -156 22q-143 41 -234.5 130.5t-135 241.5t-43.5 286q0 164 61.5 324.5t176 278.5t275.5 161q-54 -85 -99.5 -187.5t-73 -215.5t-27.5 -230q0 -100 25 -259q46 -165 137 -247t194 -82q105 0 201 81.5t151 241.5q39 181 39 291q0 105 -32 199
q-72 213 -287 396q-54 47 -120 79.5t-132 32.5q-25 0 -50 -6l76 45q86 51 154.5 85t134.5 34q62 0 128 -37.5t147 -124.5q119 -128 183.5 -271t64.5 -323.5t-115.5 -431.5t-279 -382.5t-363.5 -131.5zM1116 1338l51 137q94 81 94 165.5t-94 122.5l141 148l136 -143
q0 -9 -3 -20q-8 -40 -33.5 -82.5t-60.5 -84.5q-42 -51 -72.5 -84.5t-56.5 -58.5t-49.5 -47.5t-52.5 -52.5z" />
    <glyph glyph-name="ohorn" unicode="&#x1a1;" horiz-adv-x="1048" 
d="M543 -17q-76 0 -145.5 26t-126 86t-81.5 126.5t-30.5 137.5t-5.5 146v22q0 114 36 196t94.5 140.5t127 102t135.5 78.5q80 41 139 83t76 98q132 -92 198 -176.5t88.5 -183.5t23.5 -235v-18q0 -143 -40.5 -271t-128.5 -218.5t-229 -124.5q-63 -15 -131 -15zM614 189
q40 0 76 34t55 102q18 72 18 202v199q0 53 -22 103t-70 74q-30 15 -58 15t-58 -15q-48 -24 -69.5 -74t-21.5 -103v-199q0 -48 3 -101.5t15 -100.5q19 -68 55 -102t77 -34zM774 900l51 137q94 81 94 165.5t-94 122.5l141 148l136 -143q0 -9 -3 -20q-8 -40 -33.5 -82.5
t-60.5 -84.5q-42 -51 -72.5 -84.5t-56.5 -58.5t-49.5 -47.5t-52.5 -52.5z" />
    <glyph glyph-name="Uhorn" unicode="&#x1af;" horiz-adv-x="1890" 
d="M2059 -590q-96 0 -202 45q-82 35 -147 94q-63 61 -100.5 157.5t-51.5 204.5q-9 74 -12 140q-55 -70 -147 -119t-194 -49q-78 0 -153 36.5t-136 121.5q-65 91 -87.5 199.5t-23.5 253.5q-1 117 -1 235v236q0 82 -2 156q-2 97 -26 211.5t-88 198.5t-186 89
q-97 0 -162.5 -42.5t-98.5 -108t-33 -134.5q0 -83 49.5 -150.5t150.5 -83.5q16 -2 31 -2q46 0 90 18.5t80 56.5q23 -53 23 -99q0 -64 -36 -112.5t-95 -75.5t-126 -27t-133 31t-116 99.5t-72 178.5q-7 36 -7 72q0 62 16 121q51 184 200 290.5t325 106.5q146 0 270 -76
q87 -56 146 -138q59 -89 85 -222.5t26 -229.5v-695q0 -77 31 -147.5t100 -105.5q42 -21 82 -21t82 21q69 35 100 105.5t31 147.5v1002q0 59 20.5 96t54 62t73.5 46q44 25 87 57.5t75 86.5v-1745q3 -245 83 -360q34 -46 78 -77.5t84 -46.5t83 -19q33 -3 86 -4l-1 -2
q-2 -10 -10.5 -21.5t-33.5 -25t-65.5 -25.5t-95.5 -12zM1791 1461l51 137q94 81 94 165.5t-94 122.5l141 148l136 -143q0 -9 -3 -20q-8 -40 -33.5 -82.5t-60.5 -84.5q-42 -51 -72.5 -84.5t-56.5 -58.5t-49.5 -47.5t-52.5 -52.5z" />
    <glyph glyph-name="uhorn" unicode="&#x1b0;" horiz-adv-x="1149" 
d="M1028 -13q-68 0 -126 22q-100 37 -139 155q-71 -128 -200 -164q-55 -13 -110 -13q-68 0 -126.5 22t-94.5 70q-67 92 -67 242v560q0 114 105 180l31 17q54 28 97.5 60.5t76.5 90.5v-884q0 -51 8 -84t32.5 -49t71.5 -16q48 0 81 28.5t51 71.5t21 90v495q0 114 105 180
l31 17q54 28 97.5 60.5t76.5 90.5v-884q0 -51 8 -84t32.5 -49t71.5 -16q48 0 81 28.5t51 71.5t21 90h90q-16 -132 -60 -210q-78 -144 -207 -176q-55 -13 -110 -13zM942 900l51 137q94 81 94 165.5t-94 122.5l141 148l136 -143q0 -9 -3 -20q-8 -40 -33.5 -82.5t-60.5 -84.5
q-42 -51 -72.5 -84.5t-56.5 -58.5t-49.5 -47.5t-52.5 -52.5z" />
    <glyph glyph-name="circumflex" unicode="&#x2c6;" horiz-adv-x="943" 
d="M688 1275q-44 0 -80.5 23.5t-64 58.5t-46 77t-27.5 79q-26 -110 -86 -173q-60 -65 -129 -65q-57 0 -108 53q-37 44 -47 90q69 7 127.5 35t105 70.5t81 97.5t56.5 116q22 -61 56.5 -116t81 -97.5t105.5 -70.5t129 -35q-10 -46 -45 -90q-53 -53 -109 -53z" />
    <glyph glyph-name="breve" unicode="&#x2d8;" horiz-adv-x="943" 
d="M471 1268q-65 0 -115.5 15t-88.5 39.5t-65.5 55.5t-45.5 64q-43 77 -55 174q2 2 6 5q3 2 7.5 4t9.5 4q13 5 31 8t38 3q25 0 49 -7.5t44 -21t35.5 -33t22.5 -44.5q-1 0 -6.5 -1t-12 -6.5t-11.5 -17t-5 -32.5q0 -35 16 -58.5t39.5 -38t52 -20.5t54.5 -6t55 6t53 20.5
t39.5 38t15.5 58.5q0 21 -5.5 32.5t-11.5 17t-11.5 6.5t-6.5 1q6 16 16 32q8 14 22 29t35 26q19 11 38.5 15t38.5 4q22 0 48 -5.5t45 -18.5q-12 -97 -55 -174q-18 -33 -45.5 -64t-65.5 -55.5t-89 -39.5t-116 -15z" />
    <glyph glyph-name="tilde" unicode="&#x2dc;" horiz-adv-x="980" 
d="M827 1467q-35 -46 -88.5 -73.5t-111.5 -27.5q-28 0 -54.5 6.5t-47.5 14.5t-35.5 15.5t-17.5 8.5q-96 47 -163 47q-40 0 -66.5 -12.5t-43.5 -26.5q-18 -18 -29 -40q3 14 10 32q5 15 15.5 36t27.5 47q16 23 39 41.5t49 31.5t54.5 20.5t56.5 7.5q29 0 55.5 -6.5t47.5 -14.5
t35 -15.5t17 -9.5q97 -46 163 -46q41 0 67.5 12t42.5 26q19 17 29 38q-3 -14 -9 -31q-6 -14 -16 -34.5t-27 -46.5z" />
    <glyph glyph-name="hookabovecomb" unicode="&#x309;" horiz-adv-x="652" 
d="M287 1310q3 5 12 19t19.5 31t21 33.5t15.5 26.5q12 21 17.5 38t7.5 29q2 14 1 25q0 10 -3 24.5t-11 28t-22.5 23.5t-37.5 10q-19 0 -32 -8.5t-21 -20.5t-12 -25t-4 -23q0 -17 4 -32.5t22 -32.5q11 -8 19.5 -12t13.5 -6q7 -2 12 -1q-23 -33 -49 -44.5t-52 -11.5
q-23 0 -43 12.5t-34.5 32.5t-22.5 45.5t-7 52.5q1 31 14.5 55.5t31 42.5t35.5 30t27 16q25 11 49.5 22t42.5 23q37 26 40 62q37 -15 74.5 -36t68 -49.5t49.5 -64.5t19 -81q0 -32 -12.5 -62.5t-32 -60t-42.5 -57t-46 -54.5q-22 -26 -35 -50t-18 -43t-3.5 -32t8.5 -19
q-13 0 -34 12.5t-37.5 32.5t-22.5 46t10 53z" />
    <glyph glyph-name="uni031B" unicode="&#x31b;" horiz-adv-x="569" 
d="M528 900l51 137q94 81 94 165.5t-94 122.5l141 148l136 -143q0 -9 -3 -20q-8 -40 -33.5 -82.5t-60.5 -84.5q-42 -51 -72.5 -84.5t-56.5 -58.5t-49.5 -47.5t-52.5 -52.5z" />
    <glyph glyph-name="dotbelowcomb" unicode="&#x323;" horiz-adv-x="530" 
d="M264 -469l-164 164l164 165l165 -165z" />
    <glyph glyph-name="uni1EA0" unicode="&#x1ea0;" horiz-adv-x="1210" 
d="M-43 -590q-56 0 -96.5 12t-66 26t-34 26t-10.5 22q106 0 167 22q42 16 86 48q99 70 132 195q29 108 29 291q-1 384 -1 964q0 129 61.5 234.5t173.5 171.5q130 76 262 152q74 40 127 82t69 97q126 -88 198.5 -170t106 -169t41.5 -190.5t8 -236.5v-1165q-32 55 -75 87.5
t-88 56.5q-39 22 -72.5 46.5t-54 61.5t-20.5 96v465h-38l-175 -165l-175 165h-38v-152q0 -126 -9 -489q-8 -309 -160 -445q-65 -59 -147 -94q-107 -45 -201 -45zM900 737l-1 435q0 77 -30.5 147.5t-99.5 105.5q-42 21 -82 21q-41 0 -83 -21q-68 -35 -99 -105.5t-31 -147.5
v-435h38l175 171l175 -171h38zM688 -600l-164 164l164 165l165 -165z" />
    <glyph glyph-name="uni1EA1" unicode="&#x1ea1;" 
d="M1055 -15q-105 0 -164.5 53t-83.5 145q-40 -89 -106.5 -143.5t-171.5 -54.5q-73 0 -138.5 27.5t-118.5 82.5q-59 63 -88.5 148t-29.5 173q0 53 11 105q36 152 132 247t227 166q67 37 142 74q129 61 243.5 136.5t164.5 183.5v-985q0 -51 8 -84t32.5 -49t71.5 -16
q48 0 81 28.5t51 71.5t21 90h90q-16 -132 -60 -210q-36 -67 -88 -113q-84 -76 -226 -76zM614 191q27 0 59 15q50 26 70.5 77t20.5 106v530l-54 -31q-122 -70 -175 -149q-69 -103 -69 -283q0 -148 64 -225q33 -40 84 -40zM651 -469l-164 164l164 165l165 -165z" />
    <glyph glyph-name="uni1EA2" unicode="&#x1ea2;" horiz-adv-x="1210" 
d="M-43 -590q-56 0 -96.5 12t-66 26t-34 26t-10.5 22q106 0 167 22q42 16 86 48q99 70 132 195q29 108 29 291q-1 384 -1 964q0 129 61.5 234.5t173.5 171.5q130 76 262 152q74 40 127 82t69 97q126 -88 198.5 -170t106 -169t41.5 -190.5t8 -236.5v-1165q-32 55 -75 87.5
t-88 56.5q-39 22 -72.5 46.5t-54 61.5t-20.5 96v465h-38l-175 -165l-175 165h-38v-152q0 -126 -9 -489q-8 -309 -160 -445q-65 -59 -147 -94q-107 -45 -201 -45zM900 737l-1 435q0 77 -30.5 147.5t-99.5 105.5q-42 21 -82 21q-41 0 -83 -21q-68 -35 -99 -105.5t-31 -147.5
v-435h38l175 171l175 -171h38zM643 1971q3 5 12 19t19.5 31t21 33.5t15.5 26.5q12 21 17.5 38t7.5 29q2 14 1 25q0 10 -3 24.5t-11 28t-22.5 23.5t-37.5 10q-19 0 -32 -8.5t-21 -20.5t-12 -25t-4 -23q0 -17 4 -32.5t22 -32.5q11 -8 19.5 -12t13.5 -6q7 -2 12 -1
q-23 -33 -49 -44.5t-52 -11.5q-23 0 -43 12.5t-34.5 32.5t-22.5 45.5t-7 52.5q1 31 14.5 55.5t31 42.5t35.5 30t27 16q25 11 49.5 22t42.5 23q37 26 40 62q37 -15 74.5 -36t68 -49.5t49.5 -64.5t19 -81q0 -32 -12.5 -62.5t-32 -60t-42.5 -57t-46 -54.5q-22 -26 -35 -50
t-18 -43t-3.5 -32t8.5 -19q-13 0 -34 12.5t-37.5 32.5t-22.5 46t10 53z" />
    <glyph glyph-name="uni1EA3" unicode="&#x1ea3;" 
d="M1055 -15q-105 0 -164.5 53t-83.5 145q-40 -89 -106.5 -143.5t-171.5 -54.5q-73 0 -138.5 27.5t-118.5 82.5q-59 63 -88.5 148t-29.5 173q0 53 11 105q36 152 132 247t227 166q67 37 142 74q129 61 243.5 136.5t164.5 183.5v-985q0 -51 8 -84t32.5 -49t71.5 -16
q48 0 81 28.5t51 71.5t21 90h90q-16 -132 -60 -210q-36 -67 -88 -113q-84 -76 -226 -76zM614 191q27 0 59 15q50 26 70.5 77t20.5 106v530l-54 -31q-122 -70 -175 -149q-69 -103 -69 -283q0 -148 64 -225q33 -40 84 -40zM721 1349q3 5 12 19t19.5 31t21 33.5t15.5 26.5
q12 21 17.5 38t7.5 29q2 14 1 25q0 10 -3 24.5t-11 28t-22.5 23.5t-37.5 10q-19 0 -32 -8.5t-21 -20.5t-12 -25t-4 -23q0 -17 4 -32.5t22 -32.5q11 -8 19.5 -12t13.5 -6q7 -2 12 -1q-23 -33 -49 -44.5t-52 -11.5q-23 0 -43 12.5t-34.5 32.5t-22.5 45.5t-7 52.5
q1 31 14.5 55.5t31 42.5t35.5 30t27 16q25 11 49.5 22t42.5 23q37 26 40 62q37 -15 74.5 -36t68 -49.5t49.5 -64.5t19 -81q0 -32 -12.5 -62.5t-32 -60t-42.5 -57t-46 -54.5q-22 -26 -35 -50t-18 -43t-3.5 -32t8.5 -19q-13 0 -34 12.5t-37.5 32.5t-22.5 46t10 53z" />
    <glyph glyph-name="uni1EA4" unicode="&#x1ea4;" horiz-adv-x="1211" 
d="M890 2182q69 42 126.5 102t92.5 135q17 35 23.5 67.5t8.5 58.5q2 29 -1 55q7 0 32.5 -4.5t64.5 -25.5q72 -46 72 -120q0 -39 -17.5 -73.5t-45.5 -63.5t-62 -51.5t-66 -37.5q-90 -42 -207 -42h-21zM-43 -590q-56 0 -96.5 12t-66 26t-34 26t-10.5 22q106 0 167 22
q42 16 86 48q99 70 132 195q29 108 29 291q-1 384 -1 964q0 129 61.5 234.5t173.5 171.5q130 76 262 152q74 40 127 82t69 97q126 -88 198.5 -170t106 -169t41.5 -190.5t8 -236.5v-1165q-32 55 -75 87.5t-88 56.5q-39 22 -72.5 46.5t-54 61.5t-20.5 96v465h-38l-175 -165
l-175 165h-38v-152q0 -126 -9 -489q-8 -309 -160 -445q-65 -59 -147 -94q-107 -45 -201 -45zM900 737l-1 435q0 77 -30.5 147.5t-99.5 105.5q-42 21 -82 21q-41 0 -83 -21q-68 -35 -99 -105.5t-31 -147.5v-435h38l175 171l175 -171h38zM905 1854q-44 0 -80.5 23.5t-64 58.5
t-46 77t-27.5 79q-26 -110 -86 -173q-60 -65 -129 -65q-57 0 -108 53q-37 44 -47 90q69 7 127.5 35t105 70.5t81 97.5t56.5 116q22 -61 56.5 -116t81 -97.5t105.5 -70.5t129 -35q-10 -46 -45 -90q-53 -53 -109 -53z" />
    <glyph glyph-name="uni1EA5" unicode="&#x1ea5;" 
d="M1055 -15q-105 0 -164.5 53t-83.5 145q-40 -89 -106.5 -143.5t-171.5 -54.5q-73 0 -138.5 27.5t-118.5 82.5q-59 63 -88.5 148t-29.5 173q0 53 11 105q36 152 132 247t227 166q67 37 142 74q129 61 243.5 136.5t164.5 183.5v-985q0 -51 8 -84t32.5 -49t71.5 -16
q48 0 81 28.5t51 71.5t21 90h90q-16 -132 -60 -210q-36 -67 -88 -113q-84 -76 -226 -76zM614 191q27 0 59 15q50 26 70.5 77t20.5 106v530l-54 -31q-122 -70 -175 -149q-69 -103 -69 -283q0 -148 64 -225q33 -40 84 -40zM869 1268q-44 0 -80.5 23.5t-64 58.5t-46 77
t-27.5 79q-26 -110 -86 -173q-60 -65 -129 -65q-57 0 -108 53q-37 44 -47 90q69 7 127.5 35t105 70.5t81 97.5t56.5 116q22 -61 56.5 -116t81 -97.5t105.5 -70.5t129 -35q-10 -46 -45 -90q-53 -53 -109 -53zM854 1602q69 42 126.5 102t92.5 135q17 35 23.5 67.5t8.5 58.5
q2 29 -1 55q7 0 32.5 -4.5t64.5 -25.5q72 -46 72 -120q0 -39 -17.5 -73.5t-45.5 -63.5t-62 -51.5t-66 -37.5q-90 -42 -207 -42h-21z" />
    <glyph glyph-name="uni1EA6" unicode="&#x1ea6;" horiz-adv-x="1211" 
d="M1178 2192q-46 0 -95 8.5t-95 26t-86.5 45t-70.5 65.5q-51 62 -51 123q0 74 72 120q39 21 64 25.5t32 4.5q-3 -26 -1 -55q2 -26 8.5 -58.5t23.5 -67.5q35 -75 93 -135t127 -102h-21zM-43 -590q-56 0 -96.5 12t-66 26t-34 26t-10.5 22q106 0 167 22q42 16 86 48
q99 70 132 195q29 108 29 291q-1 384 -1 964q0 129 61.5 234.5t173.5 171.5q130 76 262 152q74 40 127 82t69 97q126 -88 198.5 -170t106 -169t41.5 -190.5t8 -236.5v-1165q-32 55 -75 87.5t-88 56.5q-39 22 -72.5 46.5t-54 61.5t-20.5 96v465h-38l-175 -165l-175 165h-38
v-152q0 -126 -9 -489q-8 -309 -160 -445q-65 -59 -147 -94q-107 -45 -201 -45zM900 737l-1 435q0 77 -30.5 147.5t-99.5 105.5q-42 21 -82 21q-41 0 -83 -21q-68 -35 -99 -105.5t-31 -147.5v-435h38l175 171l175 -171h38zM905 1854q-44 0 -80.5 23.5t-64 58.5t-46 77
t-27.5 79q-26 -110 -86 -173q-60 -65 -129 -65q-57 0 -108 53q-37 44 -47 90q69 7 127.5 35t105 70.5t81 97.5t56.5 116q22 -61 56.5 -116t81 -97.5t105.5 -70.5t129 -35q-10 -46 -45 -90q-53 -53 -109 -53z" />
    <glyph glyph-name="uni1EA7" unicode="&#x1ea7;" 
d="M1055 -15q-105 0 -164.5 53t-83.5 145q-40 -89 -106.5 -143.5t-171.5 -54.5q-73 0 -138.5 27.5t-118.5 82.5q-59 63 -88.5 148t-29.5 173q0 53 11 105q36 152 132 247t227 166q67 37 142 74q129 61 243.5 136.5t164.5 183.5v-985q0 -51 8 -84t32.5 -49t71.5 -16
q48 0 81 28.5t51 71.5t21 90h90q-16 -132 -60 -210q-36 -67 -88 -113q-84 -76 -226 -76zM614 191q27 0 59 15q50 26 70.5 77t20.5 106v530l-54 -31q-122 -70 -175 -149q-69 -103 -69 -283q0 -148 64 -225q33 -40 84 -40zM869 1268q-44 0 -80.5 23.5t-64 58.5t-46 77
t-27.5 79q-26 -110 -86 -173q-60 -65 -129 -65q-57 0 -108 53q-37 44 -47 90q69 7 127.5 35t105 70.5t81 97.5t56.5 116q22 -61 56.5 -116t81 -97.5t105.5 -70.5t129 -35q-10 -46 -45 -90q-53 -53 -109 -53zM1142 1602q-46 0 -95 8.5t-95 26t-86.5 45t-70.5 65.5
q-51 62 -51 123q0 74 72 120q39 21 64 25.5t32 4.5q-3 -26 -1 -55q2 -26 8.5 -58.5t23.5 -67.5q35 -75 93 -135t127 -102h-21z" />
    <glyph glyph-name="uni1EA8" unicode="&#x1ea8;" horiz-adv-x="1211" 
d="M939 2282q3 5 12 19t19.5 31t21 33.5t15.5 26.5q12 21 17.5 38t7.5 29q2 14 1 25q0 10 -3 24.5t-11 28t-22.5 23.5t-37.5 10q-19 0 -32 -8.5t-21 -20.5t-12 -25t-4 -23q0 -17 4 -32.5t22 -32.5q11 -8 19.5 -12t13.5 -6q7 -2 12 -1q-23 -33 -49 -44.5t-52 -11.5
q-23 0 -43 12.5t-34.5 32.5t-22.5 45.5t-7 52.5q1 31 14.5 55.5t31 42.5t35.5 30t27 16q25 11 49.5 22t42.5 23q37 26 40 62q37 -15 74.5 -36t68 -49.5t49.5 -64.5t19 -81q0 -32 -12.5 -62.5t-32 -60t-42.5 -57t-46 -54.5q-22 -26 -35 -50t-18 -43t-3.5 -32t8.5 -19
q-13 0 -34 12.5t-37.5 32.5t-22.5 46t10 53zM-43 -590q-56 0 -96.5 12t-66 26t-34 26t-10.5 22q106 0 167 22q42 16 86 48q99 70 132 195q29 108 29 291q-1 384 -1 964q0 129 61.5 234.5t173.5 171.5q130 76 262 152q74 40 127 82t69 97q126 -88 198.5 -170t106 -169
t41.5 -190.5t8 -236.5v-1165q-32 55 -75 87.5t-88 56.5q-39 22 -72.5 46.5t-54 61.5t-20.5 96v465h-38l-175 -165l-175 165h-38v-152q0 -126 -9 -489q-8 -309 -160 -445q-65 -59 -147 -94q-107 -45 -201 -45zM900 737l-1 435q0 77 -30.5 147.5t-99.5 105.5q-42 21 -82 21
q-41 0 -83 -21q-68 -35 -99 -105.5t-31 -147.5v-435h38l175 171l175 -171h38zM905 1854q-44 0 -80.5 23.5t-64 58.5t-46 77t-27.5 79q-26 -110 -86 -173q-60 -65 -129 -65q-57 0 -108 53q-37 44 -47 90q69 7 127.5 35t105 70.5t81 97.5t56.5 116q22 -61 56.5 -116t81 -97.5
t105.5 -70.5t129 -35q-10 -46 -45 -90q-53 -53 -109 -53z" />
    <glyph glyph-name="uni1EA9" unicode="&#x1ea9;" 
d="M1055 -15q-105 0 -164.5 53t-83.5 145q-40 -89 -106.5 -143.5t-171.5 -54.5q-73 0 -138.5 27.5t-118.5 82.5q-59 63 -88.5 148t-29.5 173q0 53 11 105q36 152 132 247t227 166q67 37 142 74q129 61 243.5 136.5t164.5 183.5v-985q0 -51 8 -84t32.5 -49t71.5 -16
q48 0 81 28.5t51 71.5t21 90h90q-16 -132 -60 -210q-36 -67 -88 -113q-84 -76 -226 -76zM614 191q27 0 59 15q50 26 70.5 77t20.5 106v530l-54 -31q-122 -70 -175 -149q-69 -103 -69 -283q0 -148 64 -225q33 -40 84 -40zM869 1268q-44 0 -80.5 23.5t-64 58.5t-46 77
t-27.5 79q-26 -110 -86 -173q-60 -65 -129 -65q-57 0 -108 53q-37 44 -47 90q69 7 127.5 35t105 70.5t81 97.5t56.5 116q22 -61 56.5 -116t81 -97.5t105.5 -70.5t129 -35q-10 -46 -45 -90q-53 -53 -109 -53zM903 1686q3 5 12 19t19.5 31t21 33.5t15.5 26.5q12 21 17.5 38
t7.5 29q2 14 1 25q0 10 -3 24.5t-11 28t-22.5 23.5t-37.5 10q-19 0 -32 -8.5t-21 -20.5t-12 -25t-4 -23q0 -17 4 -32.5t22 -32.5q11 -8 19.5 -12t13.5 -6q7 -2 12 -1q-23 -33 -49 -44.5t-52 -11.5q-23 0 -43 12.5t-34.5 32.5t-22.5 45.5t-7 52.5q1 31 14.5 55.5t31 42.5
t35.5 30t27 16q25 11 49.5 22t42.5 23q37 26 40 62q37 -15 74.5 -36t68 -49.5t49.5 -64.5t19 -81q0 -32 -12.5 -62.5t-32 -60t-42.5 -57t-46 -54.5q-22 -26 -35 -50t-18 -43t-3.5 -32t8.5 -19q-13 0 -34 12.5t-37.5 32.5t-22.5 46t10 53z" />
    <glyph glyph-name="uni1EAA" unicode="&#x1eaa;" horiz-adv-x="1211" 
d="M1177 2426q-35 -46 -88.5 -73.5t-111.5 -27.5q-28 0 -54.5 6.5t-47.5 14.5t-35.5 15.5t-17.5 8.5q-96 47 -163 47q-40 0 -66.5 -12.5t-43.5 -26.5q-18 -18 -29 -40q3 14 10 32q5 15 15.5 36t27.5 47q16 23 39 41.5t49 31.5t54.5 20.5t56.5 7.5q29 0 55.5 -6.5t47.5 -14.5
t35 -15.5t17 -9.5q97 -46 163 -46q41 0 67.5 12t42.5 26q19 17 29 38q-3 -14 -9 -31q-6 -14 -16 -34.5t-27 -46.5zM-43 -590q-56 0 -96.5 12t-66 26t-34 26t-10.5 22q106 0 167 22q42 16 86 48q99 70 132 195q29 108 29 291q-1 384 -1 964q0 129 61.5 234.5t173.5 171.5
q130 76 262 152q74 40 127 82t69 97q126 -88 198.5 -170t106 -169t41.5 -190.5t8 -236.5v-1165q-32 55 -75 87.5t-88 56.5q-39 22 -72.5 46.5t-54 61.5t-20.5 96v465h-38l-175 -165l-175 165h-38v-152q0 -126 -9 -489q-8 -309 -160 -445q-65 -59 -147 -94q-107 -45 -201 -45
zM900 737l-1 435q0 77 -30.5 147.5t-99.5 105.5q-42 21 -82 21q-41 0 -83 -21q-68 -35 -99 -105.5t-31 -147.5v-435h38l175 171l175 -171h38zM905 1854q-44 0 -80.5 23.5t-64 58.5t-46 77t-27.5 79q-26 -110 -86 -173q-60 -65 -129 -65q-57 0 -108 53q-37 44 -47 90
q69 7 127.5 35t105 70.5t81 97.5t56.5 116q22 -61 56.5 -116t81 -97.5t105.5 -70.5t129 -35q-10 -46 -45 -90q-53 -53 -109 -53z" />
    <glyph glyph-name="uni1EAB" unicode="&#x1eab;" 
d="M1055 -15q-105 0 -164.5 53t-83.5 145q-40 -89 -106.5 -143.5t-171.5 -54.5q-73 0 -138.5 27.5t-118.5 82.5q-59 63 -88.5 148t-29.5 173q0 53 11 105q36 152 132 247t227 166q67 37 142 74q129 61 243.5 136.5t164.5 183.5v-985q0 -51 8 -84t32.5 -49t71.5 -16
q48 0 81 28.5t51 71.5t21 90h90q-16 -132 -60 -210q-36 -67 -88 -113q-84 -76 -226 -76zM614 191q27 0 59 15q50 26 70.5 77t20.5 106v530l-54 -31q-122 -70 -175 -149q-69 -103 -69 -283q0 -148 64 -225q33 -40 84 -40zM869 1268q-44 0 -80.5 23.5t-64 58.5t-46 77
t-27.5 79q-26 -110 -86 -173q-60 -65 -129 -65q-57 0 -108 53q-37 44 -47 90q69 7 127.5 35t105 70.5t81 97.5t56.5 116q22 -61 56.5 -116t81 -97.5t105.5 -70.5t129 -35q-10 -46 -45 -90q-53 -53 -109 -53zM1141 1829q-35 -46 -88.5 -73.5t-111.5 -27.5q-28 0 -54.5 6.5
t-47.5 14.5t-35.5 15.5t-17.5 8.5q-96 47 -163 47q-40 0 -66.5 -12.5t-43.5 -26.5q-18 -18 -29 -40q3 14 10 32q5 15 15.5 36t27.5 47q16 23 39 41.5t49 31.5t54.5 20.5t56.5 7.5q29 0 55.5 -6.5t47.5 -14.5t35 -15.5t17 -9.5q97 -46 163 -46q41 0 67.5 12t42.5 26
q19 17 29 38q-3 -14 -9 -31q-6 -14 -16 -34.5t-27 -46.5z" />
    <glyph glyph-name="uni1EAC" unicode="&#x1eac;" horiz-adv-x="1210" 
d="M-43 -590q-56 0 -96.5 12t-66 26t-34 26t-10.5 22q106 0 167 22q42 16 86 48q99 70 132 195q29 108 29 291q-1 384 -1 964q0 129 61.5 234.5t173.5 171.5q130 76 262 152q74 40 127 82t69 97q126 -88 198.5 -170t106 -169t41.5 -190.5t8 -236.5v-1165q-32 55 -75 87.5
t-88 56.5q-39 22 -72.5 46.5t-54 61.5t-20.5 96v465h-38l-175 -165l-175 165h-38v-152q0 -126 -9 -489q-8 -309 -160 -445q-65 -59 -147 -94q-107 -45 -201 -45zM900 737l-1 435q0 77 -30.5 147.5t-99.5 105.5q-42 21 -82 21q-41 0 -83 -21q-68 -35 -99 -105.5t-31 -147.5
v-435h38l175 171l175 -171h38zM905 1854q-44 0 -80.5 23.5t-64 58.5t-46 77t-27.5 79q-26 -110 -86 -173q-60 -65 -129 -65q-57 0 -108 53q-37 44 -47 90q69 7 127.5 35t105 70.5t81 97.5t56.5 116q22 -61 56.5 -116t81 -97.5t105.5 -70.5t129 -35q-10 -46 -45 -90
q-53 -53 -109 -53zM687 -570l-164 164l164 165l165 -165z" />
    <glyph glyph-name="uni1EAD" unicode="&#x1ead;" 
d="M1055 -15q-105 0 -164.5 53t-83.5 145q-40 -89 -106.5 -143.5t-171.5 -54.5q-73 0 -138.5 27.5t-118.5 82.5q-59 63 -88.5 148t-29.5 173q0 53 11 105q36 152 132 247t227 166q67 37 142 74q129 61 243.5 136.5t164.5 183.5v-985q0 -51 8 -84t32.5 -49t71.5 -16
q48 0 81 28.5t51 71.5t21 90h90q-16 -132 -60 -210q-36 -67 -88 -113q-84 -76 -226 -76zM614 191q27 0 59 15q50 26 70.5 77t20.5 106v530l-54 -31q-122 -70 -175 -149q-69 -103 -69 -283q0 -148 64 -225q33 -40 84 -40zM651 -469l-164 164l164 165l165 -165zM869 1268
q-44 0 -80.5 23.5t-64 58.5t-46 77t-27.5 79q-26 -110 -86 -173q-60 -65 -129 -65q-57 0 -108 53q-37 44 -47 90q69 7 127.5 35t105 70.5t81 97.5t56.5 116q22 -61 56.5 -116t81 -97.5t105.5 -70.5t129 -35q-10 -46 -45 -90q-53 -53 -109 -53z" />
    <glyph glyph-name="uni1EAE" unicode="&#x1eae;" horiz-adv-x="1211" 
d="M534 2251q69 42 126.5 102t92.5 135q17 35 23.5 67.5t8.5 58.5q2 29 -1 55q7 0 32.5 -4.5t64.5 -25.5q72 -46 72 -120q0 -39 -17.5 -73.5t-45.5 -63.5t-62 -51.5t-66 -37.5q-90 -42 -207 -42h-21zM-43 -590q-56 0 -96.5 12t-66 26t-34 26t-10.5 22q106 0 167 22
q42 16 86 48q99 70 132 195q29 108 29 291q-1 384 -1 964q0 129 61.5 234.5t173.5 171.5q130 76 262 152q74 40 127 82t69 97q126 -88 198.5 -170t106 -169t41.5 -190.5t8 -236.5v-1165q-32 55 -75 87.5t-88 56.5q-39 22 -72.5 46.5t-54 61.5t-20.5 96v465h-38l-175 -165
l-175 165h-38v-152q0 -126 -9 -489q-8 -309 -160 -445q-65 -59 -147 -94q-107 -45 -201 -45zM900 737l-1 435q0 77 -30.5 147.5t-99.5 105.5q-42 21 -82 21q-41 0 -83 -21q-68 -35 -99 -105.5t-31 -147.5v-435h38l175 171l175 -171h38zM675 1854q-65 0 -115.5 15t-88.5 39.5
t-65.5 55.5t-45.5 64q-43 77 -55 174q2 2 6 5q3 2 7.5 4t9.5 4q13 5 31 8t38 3q25 0 49 -7.5t44 -21t35.5 -33t22.5 -44.5q-1 0 -6.5 -1t-12 -6.5t-11.5 -17t-5 -32.5q0 -35 16 -58.5t39.5 -38t52 -20.5t54.5 -6t55 6t53 20.5t39.5 38t15.5 58.5q0 21 -5.5 32.5t-11.5 17
t-11.5 6.5t-6.5 1q6 16 16 32q8 14 22 29t35 26q19 11 38.5 15t38.5 4q22 0 48 -5.5t45 -18.5q-12 -97 -55 -174q-18 -33 -45.5 -64t-65.5 -55.5t-89 -39.5t-116 -15z" />
    <glyph glyph-name="uni1EAF" unicode="&#x1eaf;" 
d="M1055 -15q-105 0 -164.5 53t-83.5 145q-40 -89 -106.5 -143.5t-171.5 -54.5q-73 0 -138.5 27.5t-118.5 82.5q-59 63 -88.5 148t-29.5 173q0 53 11 105q36 152 132 247t227 166q67 37 142 74q129 61 243.5 136.5t164.5 183.5v-985q0 -51 8 -84t32.5 -49t71.5 -16
q48 0 81 28.5t51 71.5t21 90h90q-16 -132 -60 -210q-36 -67 -88 -113q-84 -76 -226 -76zM614 191q27 0 59 15q50 26 70.5 77t20.5 106v530l-54 -31q-122 -70 -175 -149q-69 -103 -69 -283q0 -148 64 -225q33 -40 84 -40zM653 1205q-65 0 -115.5 15t-88.5 39.5t-65.5 55.5
t-45.5 64q-43 77 -55 174q2 2 6 5q3 2 7.5 4t9.5 4q13 5 31 8t38 3q25 0 49 -7.5t44 -21t35.5 -33t22.5 -44.5q-1 0 -6.5 -1t-12 -6.5t-11.5 -17t-5 -32.5q0 -35 16 -58.5t39.5 -38t52 -20.5t54.5 -6t55 6t53 20.5t39.5 38t15.5 58.5q0 21 -5.5 32.5t-11.5 17t-11.5 6.5
t-6.5 1q6 16 16 32q8 14 22 29t35 26q19 11 38.5 15t38.5 4q22 0 48 -5.5t45 -18.5q-12 -97 -55 -174q-18 -33 -45.5 -64t-65.5 -55.5t-89 -39.5t-116 -15zM512 1602q69 42 126.5 102t92.5 135q17 35 23.5 67.5t8.5 58.5q2 29 -1 55q7 0 32.5 -4.5t64.5 -25.5
q72 -46 72 -120q0 -39 -17.5 -73.5t-45.5 -63.5t-62 -51.5t-66 -37.5q-90 -42 -207 -42h-21z" />
    <glyph glyph-name="uni1EB0" unicode="&#x1eb0;" horiz-adv-x="1211" 
d="M795 2251q-46 0 -95 8.5t-95 26t-86.5 45t-70.5 65.5q-51 62 -51 123q0 74 72 120q39 21 64 25.5t32 4.5q-3 -26 -1 -55q2 -26 8.5 -58.5t23.5 -67.5q35 -75 93 -135t127 -102h-21zM-43 -590q-56 0 -96.5 12t-66 26t-34 26t-10.5 22q106 0 167 22q42 16 86 48
q99 70 132 195q29 108 29 291q-1 384 -1 964q0 129 61.5 234.5t173.5 171.5q130 76 262 152q74 40 127 82t69 97q126 -88 198.5 -170t106 -169t41.5 -190.5t8 -236.5v-1165q-32 55 -75 87.5t-88 56.5q-39 22 -72.5 46.5t-54 61.5t-20.5 96v465h-38l-175 -165l-175 165h-38
v-152q0 -126 -9 -489q-8 -309 -160 -445q-65 -59 -147 -94q-107 -45 -201 -45zM900 737l-1 435q0 77 -30.5 147.5t-99.5 105.5q-42 21 -82 21q-41 0 -83 -21q-68 -35 -99 -105.5t-31 -147.5v-435h38l175 171l175 -171h38zM675 1854q-65 0 -115.5 15t-88.5 39.5t-65.5 55.5
t-45.5 64q-43 77 -55 174q2 2 6 5q3 2 7.5 4t9.5 4q13 5 31 8t38 3q25 0 49 -7.5t44 -21t35.5 -33t22.5 -44.5q-1 0 -6.5 -1t-12 -6.5t-11.5 -17t-5 -32.5q0 -35 16 -58.5t39.5 -38t52 -20.5t54.5 -6t55 6t53 20.5t39.5 38t15.5 58.5q0 21 -5.5 32.5t-11.5 17t-11.5 6.5
t-6.5 1q6 16 16 32q8 14 22 29t35 26q19 11 38.5 15t38.5 4q22 0 48 -5.5t45 -18.5q-12 -97 -55 -174q-18 -33 -45.5 -64t-65.5 -55.5t-89 -39.5t-116 -15z" />
    <glyph glyph-name="uni1EB1" unicode="&#x1eb1;" 
d="M1055 -15q-105 0 -164.5 53t-83.5 145q-40 -89 -106.5 -143.5t-171.5 -54.5q-73 0 -138.5 27.5t-118.5 82.5q-59 63 -88.5 148t-29.5 173q0 53 11 105q36 152 132 247t227 166q67 37 142 74q129 61 243.5 136.5t164.5 183.5v-985q0 -51 8 -84t32.5 -49t71.5 -16
q48 0 81 28.5t51 71.5t21 90h90q-16 -132 -60 -210q-36 -67 -88 -113q-84 -76 -226 -76zM614 191q27 0 59 15q50 26 70.5 77t20.5 106v530l-54 -31q-122 -70 -175 -149q-69 -103 -69 -283q0 -148 64 -225q33 -40 84 -40zM653 1205q-65 0 -115.5 15t-88.5 39.5t-65.5 55.5
t-45.5 64q-43 77 -55 174q2 2 6 5q3 2 7.5 4t9.5 4q13 5 31 8t38 3q25 0 49 -7.5t44 -21t35.5 -33t22.5 -44.5q-1 0 -6.5 -1t-12 -6.5t-11.5 -17t-5 -32.5q0 -35 16 -58.5t39.5 -38t52 -20.5t54.5 -6t55 6t53 20.5t39.5 38t15.5 58.5q0 21 -5.5 32.5t-11.5 17t-11.5 6.5
t-6.5 1q6 16 16 32q8 14 22 29t35 26q19 11 38.5 15t38.5 4q22 0 48 -5.5t45 -18.5q-12 -97 -55 -174q-18 -33 -45.5 -64t-65.5 -55.5t-89 -39.5t-116 -15zM813 1602q-46 0 -95 8.5t-95 26t-86.5 45t-70.5 65.5q-51 62 -51 123q0 74 72 120q39 21 64 25.5t32 4.5
q-3 -26 -1 -55q2 -26 8.5 -58.5t23.5 -67.5q35 -75 93 -135t127 -102h-21z" />
    <glyph glyph-name="uni1EB2" unicode="&#x1eb2;" horiz-adv-x="1211" 
d="M636 2335q3 5 12 19t19.5 31t21 33.5t15.5 26.5q12 21 17.5 38t7.5 29q2 14 1 25q0 10 -3 24.5t-11 28t-22.5 23.5t-37.5 10q-19 0 -32 -8.5t-21 -20.5t-12 -25t-4 -23q0 -17 4 -32.5t22 -32.5q11 -8 19.5 -12t13.5 -6q7 -2 12 -1q-23 -33 -49 -44.5t-52 -11.5
q-23 0 -43 12.5t-34.5 32.5t-22.5 45.5t-7 52.5q1 31 14.5 55.5t31 42.5t35.5 30t27 16q25 11 49.5 22t42.5 23q37 26 40 62q37 -15 74.5 -36t68 -49.5t49.5 -64.5t19 -81q0 -32 -12.5 -62.5t-32 -60t-42.5 -57t-46 -54.5q-22 -26 -35 -50t-18 -43t-3.5 -32t8.5 -19
q-13 0 -34 12.5t-37.5 32.5t-22.5 46t10 53zM-43 -590q-56 0 -96.5 12t-66 26t-34 26t-10.5 22q106 0 167 22q42 16 86 48q99 70 132 195q29 108 29 291q-1 384 -1 964q0 129 61.5 234.5t173.5 171.5q130 76 262 152q74 40 127 82t69 97q126 -88 198.5 -170t106 -169
t41.5 -190.5t8 -236.5v-1165q-32 55 -75 87.5t-88 56.5q-39 22 -72.5 46.5t-54 61.5t-20.5 96v465h-38l-175 -165l-175 165h-38v-152q0 -126 -9 -489q-8 -309 -160 -445q-65 -59 -147 -94q-107 -45 -201 -45zM900 737l-1 435q0 77 -30.5 147.5t-99.5 105.5q-42 21 -82 21
q-41 0 -83 -21q-68 -35 -99 -105.5t-31 -147.5v-435h38l175 171l175 -171h38zM675 1854q-65 0 -115.5 15t-88.5 39.5t-65.5 55.5t-45.5 64q-43 77 -55 174q2 2 6 5q3 2 7.5 4t9.5 4q13 5 31 8t38 3q25 0 49 -7.5t44 -21t35.5 -33t22.5 -44.5q-1 0 -6.5 -1t-12 -6.5
t-11.5 -17t-5 -32.5q0 -35 16 -58.5t39.5 -38t52 -20.5t54.5 -6t55 6t53 20.5t39.5 38t15.5 58.5q0 21 -5.5 32.5t-11.5 17t-11.5 6.5t-6.5 1q6 16 16 32q8 14 22 29t35 26q19 11 38.5 15t38.5 4q22 0 48 -5.5t45 -18.5q-12 -97 -55 -174q-18 -33 -45.5 -64t-65.5 -55.5
t-89 -39.5t-116 -15z" />
    <glyph glyph-name="uni1EB3" unicode="&#x1eb3;" 
d="M1055 -15q-105 0 -164.5 53t-83.5 145q-40 -89 -106.5 -143.5t-171.5 -54.5q-73 0 -138.5 27.5t-118.5 82.5q-59 63 -88.5 148t-29.5 173q0 53 11 105q36 152 132 247t227 166q67 37 142 74q129 61 243.5 136.5t164.5 183.5v-985q0 -51 8 -84t32.5 -49t71.5 -16
q48 0 81 28.5t51 71.5t21 90h90q-16 -132 -60 -210q-36 -67 -88 -113q-84 -76 -226 -76zM614 191q27 0 59 15q50 26 70.5 77t20.5 106v530l-54 -31q-122 -70 -175 -149q-69 -103 -69 -283q0 -148 64 -225q33 -40 84 -40zM653 1205q-65 0 -115.5 15t-88.5 39.5t-65.5 55.5
t-45.5 64q-43 77 -55 174q2 2 6 5q3 2 7.5 4t9.5 4q13 5 31 8t38 3q25 0 49 -7.5t44 -21t35.5 -33t22.5 -44.5q-1 0 -6.5 -1t-12 -6.5t-11.5 -17t-5 -32.5q0 -35 16 -58.5t39.5 -38t52 -20.5t54.5 -6t55 6t53 20.5t39.5 38t15.5 58.5q0 21 -5.5 32.5t-11.5 17t-11.5 6.5
t-6.5 1q6 16 16 32q8 14 22 29t35 26q19 11 38.5 15t38.5 4q22 0 48 -5.5t45 -18.5q-12 -97 -55 -174q-18 -33 -45.5 -64t-65.5 -55.5t-89 -39.5t-116 -15zM644 1686q3 5 12 19t19.5 31t21 33.5t15.5 26.5q12 21 17.5 38t7.5 29q2 14 1 25q0 10 -3 24.5t-11 28t-22.5 23.5
t-37.5 10q-19 0 -32 -8.5t-21 -20.5t-12 -25t-4 -23q0 -17 4 -32.5t22 -32.5q11 -8 19.5 -12t13.5 -6q7 -2 12 -1q-23 -33 -49 -44.5t-52 -11.5q-23 0 -43 12.5t-34.5 32.5t-22.5 45.5t-7 52.5q1 31 14.5 55.5t31 42.5t35.5 30t27 16q25 11 49.5 22t42.5 23q37 26 40 62
q37 -15 74.5 -36t68 -49.5t49.5 -64.5t19 -81q0 -32 -12.5 -62.5t-32 -60t-42.5 -57t-46 -54.5q-22 -26 -35 -50t-18 -43t-3.5 -32t8.5 -19q-13 0 -34 12.5t-37.5 32.5t-22.5 46t10 53z" />
    <glyph glyph-name="uni1EB4" unicode="&#x1eb4;" horiz-adv-x="1211" 
d="M1302 2419q-35 -46 -88.5 -73.5t-111.5 -27.5q-28 0 -54.5 6.5t-47.5 14.5t-35.5 15.5t-17.5 8.5q-96 47 -163 47q-40 0 -66.5 -12.5t-43.5 -26.5q-18 -18 -29 -40q3 14 10 32q5 15 15.5 36t27.5 47q16 23 39 41.5t49 31.5t54.5 20.5t56.5 7.5q29 0 55.5 -6.5t47.5 -14.5
t35 -15.5t17 -9.5q97 -46 163 -46q41 0 67.5 12t42.5 26q19 17 29 38q-3 -14 -9 -31q-6 -14 -16 -34.5t-27 -46.5zM-43 -590q-56 0 -96.5 12t-66 26t-34 26t-10.5 22q106 0 167 22q42 16 86 48q99 70 132 195q29 108 29 291q-1 384 -1 964q0 129 61.5 234.5t173.5 171.5
q130 76 262 152q74 40 127 82t69 97q126 -88 198.5 -170t106 -169t41.5 -190.5t8 -236.5v-1165q-32 55 -75 87.5t-88 56.5q-39 22 -72.5 46.5t-54 61.5t-20.5 96v465h-38l-175 -165l-175 165h-38v-152q0 -126 -9 -489q-8 -309 -160 -445q-65 -59 -147 -94q-107 -45 -201 -45
zM900 737l-1 435q0 77 -30.5 147.5t-99.5 105.5q-42 21 -82 21q-41 0 -83 -21q-68 -35 -99 -105.5t-31 -147.5v-435h38l175 171l175 -171h38zM675 1854q-65 0 -115.5 15t-88.5 39.5t-65.5 55.5t-45.5 64q-43 77 -55 174q2 2 6 5q3 2 7.5 4t9.5 4q13 5 31 8t38 3
q25 0 49 -7.5t44 -21t35.5 -33t22.5 -44.5q-1 0 -6.5 -1t-12 -6.5t-11.5 -17t-5 -32.5q0 -35 16 -58.5t39.5 -38t52 -20.5t54.5 -6t55 6t53 20.5t39.5 38t15.5 58.5q0 21 -5.5 32.5t-11.5 17t-11.5 6.5t-6.5 1q6 16 16 32q8 14 22 29t35 26q19 11 38.5 15t38.5 4
q22 0 48 -5.5t45 -18.5q-12 -97 -55 -174q-18 -33 -45.5 -64t-65.5 -55.5t-89 -39.5t-116 -15z" />
    <glyph glyph-name="uni1EB5" unicode="&#x1eb5;" 
d="M1055 -15q-105 0 -164.5 53t-83.5 145q-40 -89 -106.5 -143.5t-171.5 -54.5q-73 0 -138.5 27.5t-118.5 82.5q-59 63 -88.5 148t-29.5 173q0 53 11 105q36 152 132 247t227 166q67 37 142 74q129 61 243.5 136.5t164.5 183.5v-985q0 -51 8 -84t32.5 -49t71.5 -16
q48 0 81 28.5t51 71.5t21 90h90q-16 -132 -60 -210q-36 -67 -88 -113q-84 -76 -226 -76zM614 191q27 0 59 15q50 26 70.5 77t20.5 106v530l-54 -31q-122 -70 -175 -149q-69 -103 -69 -283q0 -148 64 -225q33 -40 84 -40zM653 1205q-65 0 -115.5 15t-88.5 39.5t-65.5 55.5
t-45.5 64q-43 77 -55 174q2 2 6 5q3 2 7.5 4t9.5 4q13 5 31 8t38 3q25 0 49 -7.5t44 -21t35.5 -33t22.5 -44.5q-1 0 -6.5 -1t-12 -6.5t-11.5 -17t-5 -32.5q0 -35 16 -58.5t39.5 -38t52 -20.5t54.5 -6t55 6t53 20.5t39.5 38t15.5 58.5q0 21 -5.5 32.5t-11.5 17t-11.5 6.5
t-6.5 1q6 16 16 32q8 14 22 29t35 26q19 11 38.5 15t38.5 4q22 0 48 -5.5t45 -18.5q-12 -97 -55 -174q-18 -33 -45.5 -64t-65.5 -55.5t-89 -39.5t-116 -15zM1280 1770q-35 -46 -88.5 -73.5t-111.5 -27.5q-28 0 -54.5 6.5t-47.5 14.5t-35.5 15.5t-17.5 8.5q-96 47 -163 47
q-40 0 -66.5 -12.5t-43.5 -26.5q-18 -18 -29 -40q3 14 10 32q5 15 15.5 36t27.5 47q16 23 39 41.5t49 31.5t54.5 20.5t56.5 7.5q29 0 55.5 -6.5t47.5 -14.5t35 -15.5t17 -9.5q97 -46 163 -46q41 0 67.5 12t42.5 26q19 17 29 38q-3 -14 -9 -31q-6 -14 -16 -34.5t-27 -46.5z
" />
    <glyph glyph-name="uni1EB6" unicode="&#x1eb6;" horiz-adv-x="1210" 
d="M-43 -590q-56 0 -96.5 12t-66 26t-34 26t-10.5 22q106 0 167 22q42 16 86 48q99 70 132 195q29 108 29 291q-1 384 -1 964q0 129 61.5 234.5t173.5 171.5q130 76 262 152q74 40 127 82t69 97q126 -88 198.5 -170t106 -169t41.5 -190.5t8 -236.5v-1165q-32 55 -75 87.5
t-88 56.5q-39 22 -72.5 46.5t-54 61.5t-20.5 96v465h-38l-175 -165l-175 165h-38v-152q0 -126 -9 -489q-8 -309 -160 -445q-65 -59 -147 -94q-107 -45 -201 -45zM900 737l-1 435q0 77 -30.5 147.5t-99.5 105.5q-42 21 -82 21q-41 0 -83 -21q-68 -35 -99 -105.5t-31 -147.5
v-435h38l175 171l175 -171h38zM675 1854q-65 0 -115.5 15t-88.5 39.5t-65.5 55.5t-45.5 64q-43 77 -55 174q2 2 6 5q3 2 7.5 4t9.5 4q13 5 31 8t38 3q25 0 49 -7.5t44 -21t35.5 -33t22.5 -44.5q-1 0 -6.5 -1t-12 -6.5t-11.5 -17t-5 -32.5q0 -35 16 -58.5t39.5 -38t52 -20.5
t54.5 -6t55 6t53 20.5t39.5 38t15.5 58.5q0 21 -5.5 32.5t-11.5 17t-11.5 6.5t-6.5 1q6 16 16 32q8 14 22 29t35 26q19 11 38.5 15t38.5 4q22 0 48 -5.5t45 -18.5q-12 -97 -55 -174q-18 -33 -45.5 -64t-65.5 -55.5t-89 -39.5t-116 -15zM688 -600l-164 164l164 165l165 -165z
" />
    <glyph glyph-name="uni1EB7" unicode="&#x1eb7;" horiz-adv-x="1174" 
d="M1055 -15q-105 0 -164.5 53t-83.5 145q-40 -89 -106.5 -143.5t-171.5 -54.5q-73 0 -138.5 27.5t-118.5 82.5q-59 63 -88.5 148t-29.5 173q0 53 11 105q36 152 132 247t227 166q67 37 142 74q129 61 243.5 136.5t164.5 183.5v-985q0 -51 8 -84t32.5 -49t71.5 -16
q48 0 81 28.5t51 71.5t21 90h90q-16 -132 -60 -210q-36 -67 -88 -113q-84 -76 -226 -76zM614 191q27 0 59 15q50 26 70.5 77t20.5 106v530l-54 -31q-122 -70 -175 -149q-69 -103 -69 -283q0 -148 64 -225q33 -40 84 -40zM651 -469l-164 164l164 165l165 -165zM653 1205
q-65 0 -115.5 15t-88.5 39.5t-65.5 55.5t-45.5 64q-43 77 -55 174q2 2 6 5q3 2 7.5 4t9.5 4q13 5 31 8t38 3q25 0 49 -7.5t44 -21t35.5 -33t22.5 -44.5q-1 0 -6.5 -1t-12 -6.5t-11.5 -17t-5 -32.5q0 -35 16 -58.5t39.5 -38t52 -20.5t54.5 -6t55 6t53 20.5t39.5 38t15.5 58.5
q0 21 -5.5 32.5t-11.5 17t-11.5 6.5t-6.5 1q6 16 16 32q8 14 22 29t35 26q19 11 38.5 15t38.5 4q22 0 48 -5.5t45 -18.5q-12 -97 -55 -174q-18 -33 -45.5 -64t-65.5 -55.5t-89 -39.5t-116 -15z" />
    <glyph glyph-name="uni1EB8" unicode="&#x1eb8;" horiz-adv-x="1107" 
d="M619 -111q-89 0 -180 28q-134 42 -225 134t-111 234q-3 22 -3 43q0 87 35.5 173.5t91.5 162t120 129.5l23 19q-105 50 -151.5 115.5t-46.5 139.5q0 81 46.5 163.5t123.5 155t170 125.5l65 36q92 47 159 95t86 111q304 -210 304 -392q0 -67 -33 -126t-92 -95.5t-135 -36.5
v69q0 77 -31 147.5t-100 105.5q-42 21 -82 21t-83 -21q-54 -27 -89 -82t-35 -117q0 -26 8 -52q43 -131 194 -163l80 -18l-49 -40q-56 -46 -112.5 -96t-104 -107t-76.5 -121.5t-29 -139.5q0 -23 3 -46q17 -118 93 -192.5t187 -108.5q100 -32 182 -32q87 0 158 30.5t136 80
t131 108.5l73 63l52 -54l-25 -28q-94 -108 -208.5 -203.5t-246 -156.5t-273.5 -61zM689 -570l-164 164l164 165l165 -165z" />
    <glyph glyph-name="uni1EB9" unicode="&#x1eb9;" horiz-adv-x="973" 
d="M606 -17h-22q-118 0 -217 55.5t-156 174.5q-57 130 -57 265v51q0 114 36 196t94.5 141t127 102t135.5 78q80 42 139 84t76 97q51 -36 93 -70q134 -116 134 -282l-2 -37q-11 -101 -64.5 -172t-132 -123.5t-163.5 -98.5q-97 -53 -119 -67l-26 -15q23 -107 82 -155.5
t137 -49.5l26 -1q130 0 248 54.5t187 173.5h73q-46 -125 -146.5 -212.5t-227.5 -135t-255 -53.5zM464 499l52 28q28 14 67 37q65 38 114.5 98t49.5 124q0 44 -32 85q-46 49 -101 49q-37 0 -71.5 -22t-56.5 -65t-22 -105v-229zM600 -469l-164 164l164 165l165 -165z" />
    <glyph glyph-name="uni1EBA" unicode="&#x1eba;" horiz-adv-x="1107" 
d="M619 -111q-89 0 -180 28q-134 42 -225 134t-111 234q-3 22 -3 43q0 87 35.5 173.5t91.5 162t120 129.5l23 19q-105 50 -151.5 115.5t-46.5 139.5q0 81 46.5 163.5t123.5 155t170 125.5l65 36q92 47 159 95t86 111q304 -210 304 -392q0 -67 -33 -126t-92 -95.5t-135 -36.5
v69q0 77 -31 147.5t-100 105.5q-42 21 -82 21t-83 -21q-54 -27 -89 -82t-35 -117q0 -26 8 -52q43 -131 194 -163l80 -18l-49 -40q-56 -46 -112.5 -96t-104 -107t-76.5 -121.5t-29 -139.5q0 -23 3 -46q17 -118 93 -192.5t187 -108.5q100 -32 182 -32q87 0 158 30.5t136 80
t131 108.5l73 63l52 -54l-25 -28q-94 -108 -208.5 -203.5t-246 -156.5t-273.5 -61zM681 1968q3 5 12 19t19.5 31t21 33.5t15.5 26.5q12 21 17.5 38t7.5 29q2 14 1 25q0 10 -3 24.5t-11 28t-22.5 23.5t-37.5 10q-19 0 -32 -8.5t-21 -20.5t-12 -25t-4 -23q0 -17 4 -32.5
t22 -32.5q11 -8 19.5 -12t13.5 -6q7 -2 12 -1q-23 -33 -49 -44.5t-52 -11.5q-23 0 -43 12.5t-34.5 32.5t-22.5 45.5t-7 52.5q1 31 14.5 55.5t31 42.5t35.5 30t27 16q25 11 49.5 22t42.5 23q37 26 40 62q37 -15 74.5 -36t68 -49.5t49.5 -64.5t19 -81q0 -32 -12.5 -62.5
t-32 -60t-42.5 -57t-46 -54.5q-22 -26 -35 -50t-18 -43t-3.5 -32t8.5 -19q-13 0 -34 12.5t-37.5 32.5t-22.5 46t10 53z" />
    <glyph glyph-name="uni1EBB" unicode="&#x1ebb;" horiz-adv-x="973" 
d="M606 -17h-22q-118 0 -217 55.5t-156 174.5q-57 130 -57 265v51q0 114 36 196t94.5 141t127 102t135.5 78q80 42 139 84t76 97q51 -36 93 -70q134 -116 134 -282l-2 -37q-11 -101 -64.5 -172t-132 -123.5t-163.5 -98.5q-97 -53 -119 -67l-26 -15q23 -107 82 -155.5
t137 -49.5l26 -1q130 0 248 54.5t187 173.5h73q-46 -125 -146.5 -212.5t-227.5 -135t-255 -53.5zM464 499l52 28q28 14 67 37q65 38 114.5 98t49.5 124q0 44 -32 85q-46 49 -101 49q-37 0 -71.5 -22t-56.5 -65t-22 -105v-229zM532 1369q3 5 12 19t19.5 31t21 33.5t15.5 26.5
q12 21 17.5 38t7.5 29q2 14 1 25q0 10 -3 24.5t-11 28t-22.5 23.5t-37.5 10q-19 0 -32 -8.5t-21 -20.5t-12 -25t-4 -23q0 -17 4 -32.5t22 -32.5q11 -8 19.5 -12t13.5 -6q7 -2 12 -1q-23 -33 -49 -44.5t-52 -11.5q-23 0 -43 12.5t-34.5 32.5t-22.5 45.5t-7 52.5
q1 31 14.5 55.5t31 42.5t35.5 30t27 16q25 11 49.5 22t42.5 23q37 26 40 62q37 -15 74.5 -36t68 -49.5t49.5 -64.5t19 -81q0 -32 -12.5 -62.5t-32 -60t-42.5 -57t-46 -54.5q-22 -26 -35 -50t-18 -43t-3.5 -32t8.5 -19q-13 0 -34 12.5t-37.5 32.5t-22.5 46t10 53z" />
    <glyph glyph-name="uni1EBC" unicode="&#x1ebc;" horiz-adv-x="1107" 
d="M619 -111q-89 0 -180 28q-134 42 -225 134t-111 234q-3 22 -3 43q0 87 35.5 173.5t91.5 162t120 129.5l23 19q-105 50 -151.5 115.5t-46.5 139.5q0 81 46.5 163.5t123.5 155t170 125.5l65 36q92 47 159 95t86 111q304 -210 304 -392q0 -67 -33 -126t-92 -95.5t-135 -36.5
v69q0 77 -31 147.5t-100 105.5q-42 21 -82 21t-83 -21q-54 -27 -89 -82t-35 -117q0 -26 8 -52q43 -131 194 -163l80 -18l-49 -40q-56 -46 -112.5 -96t-104 -107t-76.5 -121.5t-29 -139.5q0 -23 3 -46q17 -118 93 -192.5t187 -108.5q100 -32 182 -32q87 0 158 30.5t136 80
t131 108.5l73 63l52 -54l-25 -28q-94 -108 -208.5 -203.5t-246 -156.5t-273.5 -61zM1004 1954q-35 -46 -88.5 -73.5t-111.5 -27.5q-28 0 -54.5 6.5t-47.5 14.5t-35.5 15.5t-17.5 8.5q-96 47 -163 47q-40 0 -66.5 -12.5t-43.5 -26.5q-18 -18 -29 -40q3 14 10 32q5 15 15.5 36
t27.5 47q16 23 39 41.5t49 31.5t54.5 20.5t56.5 7.5q29 0 55.5 -6.5t47.5 -14.5t35 -15.5t17 -9.5q97 -46 163 -46q41 0 67.5 12t42.5 26q19 17 29 38q-3 -14 -9 -31q-6 -14 -16 -34.5t-27 -46.5z" />
    <glyph glyph-name="uni1EBD" unicode="&#x1ebd;" horiz-adv-x="973" 
d="M606 -17h-22q-118 0 -217 55.5t-156 174.5q-57 130 -57 265v51q0 114 36 196t94.5 141t127 102t135.5 78q80 42 139 84t76 97q51 -36 93 -70q134 -116 134 -282l-2 -37q-11 -101 -64.5 -172t-132 -123.5t-163.5 -98.5q-97 -53 -119 -67l-26 -15q23 -107 82 -155.5
t137 -49.5l26 -1q130 0 248 54.5t187 173.5h73q-46 -125 -146.5 -212.5t-227.5 -135t-255 -53.5zM464 499l52 28q28 14 67 37q65 38 114.5 98t49.5 124q0 44 -32 85q-46 49 -101 49q-37 0 -71.5 -22t-56.5 -65t-22 -105v-229zM921 1435q-35 -46 -88.5 -73.5t-111.5 -27.5
q-28 0 -54.5 6.5t-47.5 14.5t-35.5 15.5t-17.5 8.5q-96 47 -163 47q-40 0 -66.5 -12.5t-43.5 -26.5q-18 -18 -29 -40q3 14 10 32q5 15 15.5 36t27.5 47q16 23 39 41.5t49 31.5t54.5 20.5t56.5 7.5q29 0 55.5 -6.5t47.5 -14.5t35 -15.5t17 -9.5q97 -46 163 -46q41 0 67.5 12
t42.5 26q19 17 29 38q-3 -14 -9 -31q-6 -14 -16 -34.5t-27 -46.5z" />
    <glyph glyph-name="uni1EBE" unicode="&#x1ebe;" horiz-adv-x="1108" 
d="M893 2188q69 42 126.5 102t92.5 135q17 35 23.5 67.5t8.5 58.5q2 29 -1 55q7 0 32.5 -4.5t64.5 -25.5q72 -46 72 -120q0 -39 -17.5 -73.5t-45.5 -63.5t-62 -51.5t-66 -37.5q-90 -42 -207 -42h-21zM619 -111q-89 0 -180 28q-134 42 -225 134t-111 234q-3 22 -3 43
q0 87 35.5 173.5t91.5 162t120 129.5l23 19q-105 50 -151.5 115.5t-46.5 139.5q0 81 46.5 163.5t123.5 155t170 125.5l65 36q92 47 159 95t86 111q304 -210 304 -392q0 -67 -33 -126t-92 -95.5t-135 -36.5v69q0 77 -31 147.5t-100 105.5q-42 21 -82 21t-83 -21
q-54 -27 -89 -82t-35 -117q0 -26 8 -52q43 -131 194 -163l80 -18l-49 -40q-56 -46 -112.5 -96t-104 -107t-76.5 -121.5t-29 -139.5q0 -23 3 -46q17 -118 93 -192.5t187 -108.5q100 -32 182 -32q87 0 158 30.5t136 80t131 108.5l73 63l52 -54l-25 -28q-94 -108 -208.5 -203.5
t-246 -156.5t-273.5 -61zM907 1854q-44 0 -80.5 23.5t-64 58.5t-46 77t-27.5 79q-26 -110 -86 -173q-60 -65 -129 -65q-57 0 -108 53q-37 44 -47 90q69 7 127.5 35t105 70.5t81 97.5t56.5 116q22 -61 56.5 -116t81 -97.5t105.5 -70.5t129 -35q-10 -46 -45 -90
q-53 -53 -109 -53z" />
    <glyph glyph-name="uni1EBF" unicode="&#x1ebf;" horiz-adv-x="973" 
d="M606 -17h-22q-118 0 -217 55.5t-156 174.5q-57 130 -57 265v51q0 114 36 196t94.5 141t127 102t135.5 78q80 42 139 84t76 97q51 -36 93 -70q134 -116 134 -282l-2 -37q-11 -101 -64.5 -172t-132 -123.5t-163.5 -98.5q-97 -53 -119 -67l-26 -15q23 -107 82 -155.5
t137 -49.5l26 -1q130 0 248 54.5t187 173.5h73q-46 -125 -146.5 -212.5t-227.5 -135t-255 -53.5zM464 499l52 28q28 14 67 37q65 38 114.5 98t49.5 124q0 44 -32 85q-46 49 -101 49q-37 0 -71.5 -22t-56.5 -65t-22 -105v-229zM818 1268q-44 0 -80.5 23.5t-64 58.5t-46 77
t-27.5 79q-26 -110 -86 -173q-60 -65 -129 -65q-57 0 -108 53q-37 44 -47 90q69 7 127.5 35t105 70.5t81 97.5t56.5 116q22 -61 56.5 -116t81 -97.5t105.5 -70.5t129 -35q-10 -46 -45 -90q-53 -53 -109 -53zM803 1602q69 42 126.5 102t92.5 135q17 35 23.5 67.5t8.5 58.5
q2 29 -1 55q7 0 32.5 -4.5t64.5 -25.5q72 -46 72 -120q0 -39 -17.5 -73.5t-45.5 -63.5t-62 -51.5t-66 -37.5q-90 -42 -207 -42h-21z" />
    <glyph glyph-name="uni1EC0" unicode="&#x1ec0;" horiz-adv-x="1108" 
d="M1181 2188q-46 0 -95 8.5t-95 26t-86.5 45t-70.5 65.5q-51 62 -51 123q0 74 72 120q39 21 64 25.5t32 4.5q-3 -26 -1 -55q2 -26 8.5 -58.5t23.5 -67.5q35 -75 93 -135t127 -102h-21zM619 -111q-89 0 -180 28q-134 42 -225 134t-111 234q-3 22 -3 43q0 87 35.5 173.5
t91.5 162t120 129.5l23 19q-105 50 -151.5 115.5t-46.5 139.5q0 81 46.5 163.5t123.5 155t170 125.5l65 36q92 47 159 95t86 111q304 -210 304 -392q0 -67 -33 -126t-92 -95.5t-135 -36.5v69q0 77 -31 147.5t-100 105.5q-42 21 -82 21t-83 -21q-54 -27 -89 -82t-35 -117
q0 -26 8 -52q43 -131 194 -163l80 -18l-49 -40q-56 -46 -112.5 -96t-104 -107t-76.5 -121.5t-29 -139.5q0 -23 3 -46q17 -118 93 -192.5t187 -108.5q100 -32 182 -32q87 0 158 30.5t136 80t131 108.5l73 63l52 -54l-25 -28q-94 -108 -208.5 -203.5t-246 -156.5t-273.5 -61z
M907 1854q-44 0 -80.5 23.5t-64 58.5t-46 77t-27.5 79q-26 -110 -86 -173q-60 -65 -129 -65q-57 0 -108 53q-37 44 -47 90q69 7 127.5 35t105 70.5t81 97.5t56.5 116q22 -61 56.5 -116t81 -97.5t105.5 -70.5t129 -35q-10 -46 -45 -90q-53 -53 -109 -53z" />
    <glyph glyph-name="uni1EC1" unicode="&#x1ec1;" horiz-adv-x="974" 
d="M606 -17h-22q-118 0 -217 55.5t-156 174.5q-57 130 -57 265v51q0 114 36 196t94.5 141t127 102t135.5 78q80 42 139 84t76 97q51 -36 93 -70q134 -116 134 -282l-2 -37q-11 -101 -64.5 -172t-132 -123.5t-163.5 -98.5q-97 -53 -119 -67l-26 -15q23 -107 82 -155.5
t137 -49.5l26 -1q130 0 248 54.5t187 173.5h73q-46 -125 -146.5 -212.5t-227.5 -135t-255 -53.5zM464 499l52 28q28 14 67 37q65 38 114.5 98t49.5 124q0 44 -32 85q-46 49 -101 49q-37 0 -71.5 -22t-56.5 -65t-22 -105v-229zM818 1268q-44 0 -80.5 23.5t-64 58.5t-46 77
t-27.5 79q-26 -110 -86 -173q-60 -65 -129 -65q-57 0 -108 53q-37 44 -47 90q69 7 127.5 35t105 70.5t81 97.5t56.5 116q22 -61 56.5 -116t81 -97.5t105.5 -70.5t129 -35q-10 -46 -45 -90q-53 -53 -109 -53zM1091 1602q-46 0 -95 8.5t-95 26t-86.5 45t-70.5 65.5
q-51 62 -51 123q0 74 72 120q39 21 64 25.5t32 4.5q-3 -26 -1 -55q2 -26 8.5 -58.5t23.5 -67.5q35 -75 93 -135t127 -102h-21z" />
    <glyph glyph-name="uni1EC2" unicode="&#x1ec2;" horiz-adv-x="1108" 
d="M942 2282q3 5 12 19t19.5 31t21 33.5t15.5 26.5q12 21 17.5 38t7.5 29q2 14 1 25q0 10 -3 24.5t-11 28t-22.5 23.5t-37.5 10q-19 0 -32 -8.5t-21 -20.5t-12 -25t-4 -23q0 -17 4 -32.5t22 -32.5q11 -8 19.5 -12t13.5 -6q7 -2 12 -1q-23 -33 -49 -44.5t-52 -11.5
q-23 0 -43 12.5t-34.5 32.5t-22.5 45.5t-7 52.5q1 31 14.5 55.5t31 42.5t35.5 30t27 16q25 11 49.5 22t42.5 23q37 26 40 62q37 -15 74.5 -36t68 -49.5t49.5 -64.5t19 -81q0 -32 -12.5 -62.5t-32 -60t-42.5 -57t-46 -54.5q-22 -26 -35 -50t-18 -43t-3.5 -32t8.5 -19
q-13 0 -34 12.5t-37.5 32.5t-22.5 46t10 53zM619 -111q-89 0 -180 28q-134 42 -225 134t-111 234q-3 22 -3 43q0 87 35.5 173.5t91.5 162t120 129.5l23 19q-105 50 -151.5 115.5t-46.5 139.5q0 81 46.5 163.5t123.5 155t170 125.5l65 36q92 47 159 95t86 111
q304 -210 304 -392q0 -67 -33 -126t-92 -95.5t-135 -36.5v69q0 77 -31 147.5t-100 105.5q-42 21 -82 21t-83 -21q-54 -27 -89 -82t-35 -117q0 -26 8 -52q43 -131 194 -163l80 -18l-49 -40q-56 -46 -112.5 -96t-104 -107t-76.5 -121.5t-29 -139.5q0 -23 3 -46
q17 -118 93 -192.5t187 -108.5q100 -32 182 -32q87 0 158 30.5t136 80t131 108.5l73 63l52 -54l-25 -28q-94 -108 -208.5 -203.5t-246 -156.5t-273.5 -61zM907 1854q-44 0 -80.5 23.5t-64 58.5t-46 77t-27.5 79q-26 -110 -86 -173q-60 -65 -129 -65q-57 0 -108 53
q-37 44 -47 90q69 7 127.5 35t105 70.5t81 97.5t56.5 116q22 -61 56.5 -116t81 -97.5t105.5 -70.5t129 -35q-10 -46 -45 -90q-53 -53 -109 -53z" />
    <glyph glyph-name="uni1EC3" unicode="&#x1ec3;" horiz-adv-x="973" 
d="M606 -17h-22q-118 0 -217 55.5t-156 174.5q-57 130 -57 265v51q0 114 36 196t94.5 141t127 102t135.5 78q80 42 139 84t76 97q51 -36 93 -70q134 -116 134 -282l-2 -37q-11 -101 -64.5 -172t-132 -123.5t-163.5 -98.5q-97 -53 -119 -67l-26 -15q23 -107 82 -155.5
t137 -49.5l26 -1q130 0 248 54.5t187 173.5h73q-46 -125 -146.5 -212.5t-227.5 -135t-255 -53.5zM464 499l52 28q28 14 67 37q65 38 114.5 98t49.5 124q0 44 -32 85q-46 49 -101 49q-37 0 -71.5 -22t-56.5 -65t-22 -105v-229zM818 1268q-44 0 -80.5 23.5t-64 58.5t-46 77
t-27.5 79q-26 -110 -86 -173q-60 -65 -129 -65q-57 0 -108 53q-37 44 -47 90q69 7 127.5 35t105 70.5t81 97.5t56.5 116q22 -61 56.5 -116t81 -97.5t105.5 -70.5t129 -35q-10 -46 -45 -90q-53 -53 -109 -53zM852 1686q3 5 12 19t19.5 31t21 33.5t15.5 26.5q12 21 17.5 38
t7.5 29q2 14 1 25q0 10 -3 24.5t-11 28t-22.5 23.5t-37.5 10q-19 0 -32 -8.5t-21 -20.5t-12 -25t-4 -23q0 -17 4 -32.5t22 -32.5q11 -8 19.5 -12t13.5 -6q7 -2 12 -1q-23 -33 -49 -44.5t-52 -11.5q-23 0 -43 12.5t-34.5 32.5t-22.5 45.5t-7 52.5q1 31 14.5 55.5t31 42.5
t35.5 30t27 16q25 11 49.5 22t42.5 23q37 26 40 62q37 -15 74.5 -36t68 -49.5t49.5 -64.5t19 -81q0 -32 -12.5 -62.5t-32 -60t-42.5 -57t-46 -54.5q-22 -26 -35 -50t-18 -43t-3.5 -32t8.5 -19q-13 0 -34 12.5t-37.5 32.5t-22.5 46t10 53z" />
    <glyph glyph-name="uni1EC4" unicode="&#x1ec4;" horiz-adv-x="1108" 
d="M1180 2426q-35 -46 -88.5 -73.5t-111.5 -27.5q-28 0 -54.5 6.5t-47.5 14.5t-35.5 15.5t-17.5 8.5q-96 47 -163 47q-40 0 -66.5 -12.5t-43.5 -26.5q-18 -18 -29 -40q3 14 10 32q5 15 15.5 36t27.5 47q16 23 39 41.5t49 31.5t54.5 20.5t56.5 7.5q29 0 55.5 -6.5t47.5 -14.5
t35 -15.5t17 -9.5q97 -46 163 -46q41 0 67.5 12t42.5 26q19 17 29 38q-3 -14 -9 -31q-6 -14 -16 -34.5t-27 -46.5zM619 -111q-89 0 -180 28q-134 42 -225 134t-111 234q-3 22 -3 43q0 87 35.5 173.5t91.5 162t120 129.5l23 19q-105 50 -151.5 115.5t-46.5 139.5
q0 81 46.5 163.5t123.5 155t170 125.5l65 36q92 47 159 95t86 111q304 -210 304 -392q0 -67 -33 -126t-92 -95.5t-135 -36.5v69q0 77 -31 147.5t-100 105.5q-42 21 -82 21t-83 -21q-54 -27 -89 -82t-35 -117q0 -26 8 -52q43 -131 194 -163l80 -18l-49 -40
q-56 -46 -112.5 -96t-104 -107t-76.5 -121.5t-29 -139.5q0 -23 3 -46q17 -118 93 -192.5t187 -108.5q100 -32 182 -32q87 0 158 30.5t136 80t131 108.5l73 63l52 -54l-25 -28q-94 -108 -208.5 -203.5t-246 -156.5t-273.5 -61zM907 1854q-44 0 -80.5 23.5t-64 58.5t-46 77
t-27.5 79q-26 -110 -86 -173q-60 -65 -129 -65q-57 0 -108 53q-37 44 -47 90q69 7 127.5 35t105 70.5t81 97.5t56.5 116q22 -61 56.5 -116t81 -97.5t105.5 -70.5t129 -35q-10 -46 -45 -90q-53 -53 -109 -53z" />
    <glyph glyph-name="uni1EC5" unicode="&#x1ec5;" horiz-adv-x="973" 
d="M606 -17h-22q-118 0 -217 55.5t-156 174.5q-57 130 -57 265v51q0 114 36 196t94.5 141t127 102t135.5 78q80 42 139 84t76 97q51 -36 93 -70q134 -116 134 -282l-2 -37q-11 -101 -64.5 -172t-132 -123.5t-163.5 -98.5q-97 -53 -119 -67l-26 -15q23 -107 82 -155.5
t137 -49.5l26 -1q130 0 248 54.5t187 173.5h73q-46 -125 -146.5 -212.5t-227.5 -135t-255 -53.5zM464 499l52 28q28 14 67 37q65 38 114.5 98t49.5 124q0 44 -32 85q-46 49 -101 49q-37 0 -71.5 -22t-56.5 -65t-22 -105v-229zM818 1268q-44 0 -80.5 23.5t-64 58.5t-46 77
t-27.5 79q-26 -110 -86 -173q-60 -65 -129 -65q-57 0 -108 53q-37 44 -47 90q69 7 127.5 35t105 70.5t81 97.5t56.5 116q22 -61 56.5 -116t81 -97.5t105.5 -70.5t129 -35q-10 -46 -45 -90q-53 -53 -109 -53zM1090 1829q-35 -46 -88.5 -73.5t-111.5 -27.5q-28 0 -54.5 6.5
t-47.5 14.5t-35.5 15.5t-17.5 8.5q-96 47 -163 47q-40 0 -66.5 -12.5t-43.5 -26.5q-18 -18 -29 -40q3 14 10 32q5 15 15.5 36t27.5 47q16 23 39 41.5t49 31.5t54.5 20.5t56.5 7.5q29 0 55.5 -6.5t47.5 -14.5t35 -15.5t17 -9.5q97 -46 163 -46q41 0 67.5 12t42.5 26
q19 17 29 38q-3 -14 -9 -31q-6 -14 -16 -34.5t-27 -46.5z" />
    <glyph glyph-name="uni1EC6" unicode="&#x1ec6;" horiz-adv-x="1107" 
d="M619 -111q-89 0 -180 28q-134 42 -225 134t-111 234q-3 22 -3 43q0 87 35.5 173.5t91.5 162t120 129.5l23 19q-105 50 -151.5 115.5t-46.5 139.5q0 81 46.5 163.5t123.5 155t170 125.5l65 36q92 47 159 95t86 111q304 -210 304 -392q0 -67 -33 -126t-92 -95.5t-135 -36.5
v69q0 77 -31 147.5t-100 105.5q-42 21 -82 21t-83 -21q-54 -27 -89 -82t-35 -117q0 -26 8 -52q43 -131 194 -163l80 -18l-49 -40q-56 -46 -112.5 -96t-104 -107t-76.5 -121.5t-29 -139.5q0 -23 3 -46q17 -118 93 -192.5t187 -108.5q100 -32 182 -32q87 0 158 30.5t136 80
t131 108.5l73 63l52 -54l-25 -28q-94 -108 -208.5 -203.5t-246 -156.5t-273.5 -61zM907 1854q-44 0 -80.5 23.5t-64 58.5t-46 77t-27.5 79q-26 -110 -86 -173q-60 -65 -129 -65q-57 0 -108 53q-37 44 -47 90q69 7 127.5 35t105 70.5t81 97.5t56.5 116q22 -61 56.5 -116
t81 -97.5t105.5 -70.5t129 -35q-10 -46 -45 -90q-53 -53 -109 -53zM689 -570l-164 164l164 165l165 -165z" />
    <glyph glyph-name="uni1EC7" unicode="&#x1ec7;" horiz-adv-x="973" 
d="M606 -17h-22q-118 0 -217 55.5t-156 174.5q-57 130 -57 265v51q0 114 36 196t94.5 141t127 102t135.5 78q80 42 139 84t76 97q51 -36 93 -70q134 -116 134 -282l-2 -37q-11 -101 -64.5 -172t-132 -123.5t-163.5 -98.5q-97 -53 -119 -67l-26 -15q23 -107 82 -155.5
t137 -49.5l26 -1q130 0 248 54.5t187 173.5h73q-46 -125 -146.5 -212.5t-227.5 -135t-255 -53.5zM464 499l52 28q28 14 67 37q65 38 114.5 98t49.5 124q0 44 -32 85q-46 49 -101 49q-37 0 -71.5 -22t-56.5 -65t-22 -105v-229zM600 -469l-164 164l164 165l165 -165zM818 1268
q-44 0 -80.5 23.5t-64 58.5t-46 77t-27.5 79q-26 -110 -86 -173q-60 -65 -129 -65q-57 0 -108 53q-37 44 -47 90q69 7 127.5 35t105 70.5t81 97.5t56.5 116q22 -61 56.5 -116t81 -97.5t105.5 -70.5t129 -35q-10 -46 -45 -90q-53 -53 -109 -53z" />
    <glyph glyph-name="uni1EC8" unicode="&#x1ec8;" horiz-adv-x="1019" 
d="M609 -178v1583q0 11 1 20l-57 -31q-80 -47 -123 -104q-62 -86 -62 -196q0 -38 9 -75q30 -92 73 -131l17 -14q-18 -26 -64 -46q-33 -13 -78 -13q-28 0 -57 7q-81 20 -133 96q-35 57 -35 129q0 28 6 58q21 107 109 199q89 89 217 151q87 44 171 80q100 45 136 65
q72 36 99 60q31 26 48.5 45.5t32.5 47.5v-1583q0 -60 -21 -97t-54 -61.5t-73 -46.5q-45 -24 -87.5 -56.5t-74.5 -86.5zM693 1858q3 5 12 19t19.5 31t21 33.5t15.5 26.5q12 21 17.5 38t7.5 29q2 14 1 25q0 10 -3 24.5t-11 28t-22.5 23.5t-37.5 10q-19 0 -32 -8.5t-21 -20.5
t-12 -25t-4 -23q0 -17 4 -32.5t22 -32.5q11 -8 19.5 -12t13.5 -6q7 -2 12 -1q-23 -33 -49 -44.5t-52 -11.5q-23 0 -43 12.5t-34.5 32.5t-22.5 45.5t-7 52.5q1 31 14.5 55.5t31 42.5t35.5 30t27 16q25 11 49.5 22t42.5 23q37 26 40 62q37 -15 74.5 -36t68 -49.5t49.5 -64.5
t19 -81q0 -32 -12.5 -62.5t-32 -60t-42.5 -57t-46 -54.5q-22 -26 -35 -50t-18 -43t-3.5 -32t8.5 -19q-13 0 -34 12.5t-37.5 32.5t-22.5 46t10 53z" />
    <glyph glyph-name="uni1EC9" unicode="&#x1ec9;" horiz-adv-x="574" 
d="M278 1369q3 5 12 19t19.5 31t21 33.5t15.5 26.5q12 21 17 38t7 29q2 14 1 25q0 10 -3 24.5t-11 28t-22 23.5t-37 10q-19 0 -32 -8.5t-21 -20.5t-12 -25t-4 -22q0 -17 3.5 -33t22.5 -33q11 -8 19.5 -12t13.5 -6q7 -2 12 -1q-23 -33 -49 -44.5t-52 -11.5q-23 0 -43 12.5
t-35 32.5t-23 45.5t-7 52.5q2 31 15.5 55.5t31 42.5t35.5 30t27 16q25 11 49.5 22t42.5 24q37 25 40 61q37 -15 74.5 -36t68 -49.5t49.5 -64.5t19 -81q0 -32 -12.5 -62.5t-32 -60t-43 -57t-46.5 -54.5q-22 -26 -34.5 -50t-18 -43t-3.5 -32t9 -19q-13 0 -34 12.5t-37.5 32.5
t-22.5 46t10 53zM452 -13q-68 0 -126.5 21.5t-94.5 69.5q-66 92 -66 242v560q0 116 105 180l33 19q53 27 96 59.5t76 89.5v-884q0 -51 8 -84t32 -49t72 -16t80.5 28.5t50.5 71.5t22 90h90q-18 -132 -60 -210q-36 -67 -88 -113q-84 -75 -230 -75z" />
    <glyph glyph-name="uni1ECA" unicode="&#x1eca;" horiz-adv-x="1019" 
d="M609 -178v1583q0 11 1 20l-57 -31q-80 -47 -123 -104q-62 -86 -62 -196q0 -38 9 -75q30 -92 73 -131l17 -14q-18 -26 -64 -46q-33 -13 -78 -13q-28 0 -57 7q-81 20 -133 96q-35 57 -35 129q0 28 6 58q21 107 109 199q89 89 217 151q87 44 171 80q100 45 136 65
q72 36 99 60q31 26 48.5 45.5t32.5 47.5v-1583q0 -60 -21 -97t-54 -61.5t-73 -46.5q-45 -24 -87.5 -56.5t-74.5 -86.5zM763 -570l-164 164l164 165l165 -165z" />
    <glyph glyph-name="uni1ECB" unicode="&#x1ecb;" horiz-adv-x="574" 
d="M320 1260l-179 180l179 179l180 -179zM452 -13q-68 0 -126.5 21.5t-94.5 69.5q-66 92 -66 242v560q0 116 105 180l33 19q53 27 96 59.5t76 89.5v-884q0 -51 8 -84t32 -49t72 -16t80.5 28.5t50.5 71.5t22 90h90q-18 -132 -60 -210q-36 -67 -88 -113q-84 -75 -230 -75z
M401 -469l-164 164l164 165l165 -165z" />
    <glyph glyph-name="uni1ECC" unicode="&#x1ecc;" horiz-adv-x="1442" 
d="M695 -83q-74 0 -156 22q-143 41 -234.5 130.5t-135 241.5t-43.5 286q0 164 61.5 324.5t176 278.5t275.5 161q-54 -85 -99.5 -187.5t-73 -215.5t-27.5 -230q0 -100 25 -259q46 -165 137 -247t194 -82q105 0 201 81.5t151 241.5q39 181 39 291q0 105 -32 199
q-72 213 -287 396q-54 47 -120 79.5t-132 32.5q-25 0 -50 -6l76 45q86 51 154.5 85t134.5 34q62 0 128 -37.5t147 -124.5q119 -128 183.5 -271t64.5 -323.5t-115.5 -431.5t-279 -382.5t-363.5 -131.5zM810 -600l-164 164l164 165l165 -165z" />
    <glyph glyph-name="uni1ECD" unicode="&#x1ecd;" horiz-adv-x="1048" 
d="M543 -17q-76 0 -145.5 26t-126 86t-81.5 126.5t-30.5 137.5t-5.5 146v22q0 114 36 196t94.5 140.5t127 102t135.5 78.5q80 41 139 83t76 98q132 -92 198 -176.5t88.5 -183.5t23.5 -235v-18q0 -143 -40.5 -271t-128.5 -218.5t-229 -124.5q-63 -15 -131 -15zM614 189
q40 0 76 34t55 102q18 72 18 202v199q0 53 -22 103t-70 74q-30 15 -58 15t-58 -15q-48 -24 -69.5 -74t-21.5 -103v-199q0 -48 3 -101.5t15 -100.5q19 -68 55 -102t77 -34zM600 -469l-164 164l164 165l165 -165z" />
    <glyph glyph-name="uni1ECE" unicode="&#x1ece;" horiz-adv-x="1442" 
d="M695 -83q-74 0 -156 22q-143 41 -234.5 130.5t-135 241.5t-43.5 286q0 164 61.5 324.5t176 278.5t275.5 161q-54 -85 -99.5 -187.5t-73 -215.5t-27.5 -230q0 -100 25 -259q46 -165 137 -247t194 -82q105 0 201 81.5t151 241.5q39 181 39 291q0 105 -32 199
q-72 213 -287 396q-54 47 -120 79.5t-132 32.5q-25 0 -50 -6l76 45q86 51 154.5 85t134.5 34q62 0 128 -37.5t147 -124.5q119 -128 183.5 -271t64.5 -323.5t-115.5 -431.5t-279 -382.5t-363.5 -131.5zM838 1862q3 5 12 19t19.5 31t21 33.5t15.5 26.5q12 21 17.5 38t7.5 29
q2 14 1 25q0 10 -3 24.5t-11 28t-22.5 23.5t-37.5 10q-19 0 -32 -8.5t-21 -20.5t-12 -25t-4 -23q0 -17 4 -32.5t22 -32.5q11 -8 19.5 -12t13.5 -6q7 -2 12 -1q-23 -33 -49 -44.5t-52 -11.5q-23 0 -43 12.5t-34.5 32.5t-22.5 45.5t-7 52.5q1 31 14.5 55.5t31 42.5t35.5 30
t27 16q25 11 49.5 22t42.5 23q37 26 40 62q37 -15 74.5 -36t68 -49.5t49.5 -64.5t19 -81q0 -32 -12.5 -62.5t-32 -60t-42.5 -57t-46 -54.5q-22 -26 -35 -50t-18 -43t-3.5 -32t8.5 -19q-13 0 -34 12.5t-37.5 32.5t-22.5 46t10 53z" />
    <glyph glyph-name="uni1ECF" unicode="&#x1ecf;" horiz-adv-x="1048" 
d="M543 -17q-76 0 -145.5 26t-126 86t-81.5 126.5t-30.5 137.5t-5.5 146v22q0 114 36 196t94.5 140.5t127 102t135.5 78.5q80 41 139 83t76 98q132 -92 198 -176.5t88.5 -183.5t23.5 -235v-18q0 -143 -40.5 -271t-128.5 -218.5t-229 -124.5q-63 -15 -131 -15zM614 189
q40 0 76 34t55 102q18 72 18 202v199q0 53 -22 103t-70 74q-30 15 -58 15t-58 -15q-48 -24 -69.5 -74t-21.5 -103v-199q0 -48 3 -101.5t15 -100.5q19 -68 55 -102t77 -34zM570 1370q3 5 12 19t19.5 31t21 33.5t15.5 26.5q12 21 17.5 38t7.5 29q2 14 1 25q0 10 -3 24.5
t-11 28t-22.5 23.5t-37.5 10q-19 0 -32 -8.5t-21 -20.5t-12 -25t-4 -23q0 -17 4 -32.5t22 -32.5q11 -8 19.5 -12t13.5 -6q7 -2 12 -1q-23 -33 -49 -44.5t-52 -11.5q-23 0 -43 12.5t-34.5 32.5t-22.5 45.5t-7 52.5q1 31 14.5 55.5t31 42.5t35.5 30t27 16q25 11 49.5 22
t42.5 23q37 26 40 62q37 -15 74.5 -36t68 -49.5t49.5 -64.5t19 -81q0 -32 -12.5 -62.5t-32 -60t-42.5 -57t-46 -54.5q-22 -26 -35 -50t-18 -43t-3.5 -32t8.5 -19q-13 0 -34 12.5t-37.5 32.5t-22.5 46t10 53z" />
    <glyph glyph-name="uni1ED0" unicode="&#x1ed0;" horiz-adv-x="1443" 
d="M695 -83q-74 0 -156 22q-143 41 -234.5 130.5t-135 241.5t-43.5 286q0 164 61.5 324.5t176 278.5t275.5 161q-54 -85 -99.5 -187.5t-73 -215.5t-27.5 -230q0 -100 25 -259q46 -165 137 -247t194 -82q105 0 201 81.5t151 241.5q39 181 39 291q0 105 -32 199
q-72 213 -287 396q-54 47 -120 79.5t-132 32.5q-25 0 -50 -6l76 45q86 51 154.5 85t134.5 34q62 0 128 -37.5t147 -124.5q119 -128 183.5 -271t64.5 -323.5t-115.5 -431.5t-279 -382.5t-363.5 -131.5zM1028 1719q-44 0 -80.5 23.5t-64 58.5t-46 77t-27.5 79
q-26 -110 -86 -173q-60 -65 -129 -65q-57 0 -108 53q-37 44 -47 90q69 7 127.5 35t105 70.5t81 97.5t56.5 116q22 -61 56.5 -116t81 -97.5t105.5 -70.5t129 -35q-10 -46 -45 -90q-53 -53 -109 -53zM1013 2053q69 42 126.5 102t92.5 135q17 35 23.5 67.5t8.5 58.5q2 29 -1 55
q7 0 32.5 -4.5t64.5 -25.5q72 -46 72 -120q0 -39 -17.5 -73.5t-45.5 -63.5t-62 -51.5t-66 -37.5q-90 -42 -207 -42h-21z" />
    <glyph glyph-name="uni1ED1" unicode="&#x1ed1;" horiz-adv-x="1049" 
d="M544 -17q-76 0 -145.5 26t-126 86t-81.5 126.5t-30.5 137.5t-5.5 146v22q0 114 36 196t94.5 140.5t127 102t135.5 78.5q80 41 139 83t76 98q132 -92 198 -176.5t88.5 -183.5t23.5 -235v-18q0 -143 -40.5 -271t-128.5 -218.5t-229 -124.5q-63 -15 -131 -15zM615 189
q40 0 76 34t55 102q18 72 18 202v199q0 53 -22 103t-70 74q-30 15 -58 15t-58 -15q-48 -24 -69.5 -74t-21.5 -103v-199q0 -48 3 -101.5t15 -100.5q19 -68 55 -102t77 -34zM820 1268q-44 0 -80.5 23.5t-64 58.5t-46 77t-27.5 79q-26 -110 -86 -173q-60 -65 -129 -65
q-57 0 -108 53q-37 44 -47 90q69 7 127.5 35t105 70.5t81 97.5t56.5 116q22 -61 56.5 -116t81 -97.5t105.5 -70.5t129 -35q-10 -46 -45 -90q-53 -53 -109 -53zM804 1602q69 42 126.5 102t92.5 135q17 35 23.5 67.5t8.5 58.5q2 29 -1 55q7 0 32.5 -4.5t64.5 -25.5
q72 -46 72 -120q0 -39 -17.5 -73.5t-45.5 -63.5t-62 -51.5t-66 -37.5q-90 -42 -207 -42h-21z" />
    <glyph glyph-name="uni1ED2" unicode="&#x1ed2;" horiz-adv-x="1443" 
d="M695 -83q-74 0 -156 22q-143 41 -234.5 130.5t-135 241.5t-43.5 286q0 164 61.5 324.5t176 278.5t275.5 161q-54 -85 -99.5 -187.5t-73 -215.5t-27.5 -230q0 -100 25 -259q46 -165 137 -247t194 -82q105 0 201 81.5t151 241.5q39 181 39 291q0 105 -32 199
q-72 213 -287 396q-54 47 -120 79.5t-132 32.5q-25 0 -50 -6l76 45q86 51 154.5 85t134.5 34q62 0 128 -37.5t147 -124.5q119 -128 183.5 -271t64.5 -323.5t-115.5 -431.5t-279 -382.5t-363.5 -131.5zM1028 1719q-44 0 -80.5 23.5t-64 58.5t-46 77t-27.5 79
q-26 -110 -86 -173q-60 -65 -129 -65q-57 0 -108 53q-37 44 -47 90q69 7 127.5 35t105 70.5t81 97.5t56.5 116q22 -61 56.5 -116t81 -97.5t105.5 -70.5t129 -35q-10 -46 -45 -90q-53 -53 -109 -53zM1301 2053q-46 0 -95 8.5t-95 26t-86.5 45t-70.5 65.5q-51 62 -51 123
q0 74 72 120q39 21 64 25.5t32 4.5q-3 -26 -1 -55q2 -26 8.5 -58.5t23.5 -67.5q35 -75 93 -135t127 -102h-21z" />
    <glyph glyph-name="uni1ED3" unicode="&#x1ed3;" horiz-adv-x="1049" 
d="M544 -17q-76 0 -145.5 26t-126 86t-81.5 126.5t-30.5 137.5t-5.5 146v22q0 114 36 196t94.5 140.5t127 102t135.5 78.5q80 41 139 83t76 98q132 -92 198 -176.5t88.5 -183.5t23.5 -235v-18q0 -143 -40.5 -271t-128.5 -218.5t-229 -124.5q-63 -15 -131 -15zM615 189
q40 0 76 34t55 102q18 72 18 202v199q0 53 -22 103t-70 74q-30 15 -58 15t-58 -15q-48 -24 -69.5 -74t-21.5 -103v-199q0 -48 3 -101.5t15 -100.5q19 -68 55 -102t77 -34zM820 1268q-44 0 -80.5 23.5t-64 58.5t-46 77t-27.5 79q-26 -110 -86 -173q-60 -65 -129 -65
q-57 0 -108 53q-37 44 -47 90q69 7 127.5 35t105 70.5t81 97.5t56.5 116q22 -61 56.5 -116t81 -97.5t105.5 -70.5t129 -35q-10 -46 -45 -90q-53 -53 -109 -53zM1092 1602q-46 0 -95 8.5t-95 26t-86.5 45t-70.5 65.5q-51 62 -51 123q0 74 72 120q39 21 64 25.5t32 4.5
q-3 -26 -1 -55q2 -26 8.5 -58.5t23.5 -67.5q35 -75 93 -135t127 -102h-21z" />
    <glyph glyph-name="uni1ED4" unicode="&#x1ed4;" horiz-adv-x="1443" 
d="M695 -83q-74 0 -156 22q-143 41 -234.5 130.5t-135 241.5t-43.5 286q0 164 61.5 324.5t176 278.5t275.5 161q-54 -85 -99.5 -187.5t-73 -215.5t-27.5 -230q0 -100 25 -259q46 -165 137 -247t194 -82q105 0 201 81.5t151 241.5q39 181 39 291q0 105 -32 199
q-72 213 -287 396q-54 47 -120 79.5t-132 32.5q-25 0 -50 -6l76 45q86 51 154.5 85t134.5 34q62 0 128 -37.5t147 -124.5q119 -128 183.5 -271t64.5 -323.5t-115.5 -431.5t-279 -382.5t-363.5 -131.5zM1028 1719q-44 0 -80.5 23.5t-64 58.5t-46 77t-27.5 79
q-26 -110 -86 -173q-60 -65 -129 -65q-57 0 -108 53q-37 44 -47 90q69 7 127.5 35t105 70.5t81 97.5t56.5 116q22 -61 56.5 -116t81 -97.5t105.5 -70.5t129 -35q-10 -46 -45 -90q-53 -53 -109 -53zM1062 2147q3 5 12 19t19.5 31t21 33.5t15.5 26.5q12 21 17.5 38t7.5 29
q2 14 1 25q0 10 -3 24.5t-11 28t-22.5 23.5t-37.5 10q-19 0 -32 -8.5t-21 -20.5t-12 -25t-4 -23q0 -17 4 -32.5t22 -32.5q11 -8 19.5 -12t13.5 -6q7 -2 12 -1q-23 -33 -49 -44.5t-52 -11.5q-23 0 -43 12.5t-34.5 32.5t-22.5 45.5t-7 52.5q1 31 14.5 55.5t31 42.5t35.5 30
t27 16q25 11 49.5 22t42.5 23q37 26 40 62q37 -15 74.5 -36t68 -49.5t49.5 -64.5t19 -81q0 -32 -12.5 -62.5t-32 -60t-42.5 -57t-46 -54.5q-22 -26 -35 -50t-18 -43t-3.5 -32t8.5 -19q-13 0 -34 12.5t-37.5 32.5t-22.5 46t10 53z" />
    <glyph glyph-name="uni1ED5" unicode="&#x1ed5;" horiz-adv-x="1049" 
d="M544 -17q-76 0 -145.5 26t-126 86t-81.5 126.5t-30.5 137.5t-5.5 146v22q0 114 36 196t94.5 140.5t127 102t135.5 78.5q80 41 139 83t76 98q132 -92 198 -176.5t88.5 -183.5t23.5 -235v-18q0 -143 -40.5 -271t-128.5 -218.5t-229 -124.5q-63 -15 -131 -15zM615 189
q40 0 76 34t55 102q18 72 18 202v199q0 53 -22 103t-70 74q-30 15 -58 15t-58 -15q-48 -24 -69.5 -74t-21.5 -103v-199q0 -48 3 -101.5t15 -100.5q19 -68 55 -102t77 -34zM820 1268q-44 0 -80.5 23.5t-64 58.5t-46 77t-27.5 79q-26 -110 -86 -173q-60 -65 -129 -65
q-57 0 -108 53q-37 44 -47 90q69 7 127.5 35t105 70.5t81 97.5t56.5 116q22 -61 56.5 -116t81 -97.5t105.5 -70.5t129 -35q-10 -46 -45 -90q-53 -53 -109 -53zM853 1686q3 5 12 19t19.5 31t21 33.5t15.5 26.5q12 21 17.5 38t7.5 29q2 14 1 25q0 10 -3 24.5t-11 28
t-22.5 23.5t-37.5 10q-19 0 -32 -8.5t-21 -20.5t-12 -25t-4 -23q0 -17 4 -32.5t22 -32.5q11 -8 19.5 -12t13.5 -6q7 -2 12 -1q-23 -33 -49 -44.5t-52 -11.5q-23 0 -43 12.5t-34.5 32.5t-22.5 45.5t-7 52.5q1 31 14.5 55.5t31 42.5t35.5 30t27 16q25 11 49.5 22t42.5 23
q37 26 40 62q37 -15 74.5 -36t68 -49.5t49.5 -64.5t19 -81q0 -32 -12.5 -62.5t-32 -60t-42.5 -57t-46 -54.5q-22 -26 -35 -50t-18 -43t-3.5 -32t8.5 -19q-13 0 -34 12.5t-37.5 32.5t-22.5 46t10 53z" />
    <glyph glyph-name="uni1ED6" unicode="&#x1ed6;" horiz-adv-x="1443" 
d="M696 -83q-74 0 -156 22q-143 41 -234.5 130.5t-135 241.5t-43.5 286q0 164 61.5 324.5t176 278.5t275.5 161q-54 -85 -99.5 -187.5t-73 -215.5t-27.5 -230q0 -100 25 -259q46 -165 137 -247t194 -82q105 0 201 81.5t151 241.5q39 181 39 291q0 105 -32 199
q-72 213 -287 396q-54 47 -120 79.5t-132 32.5q-25 0 -50 -6l76 45q86 51 154.5 85t134.5 34q62 0 128 -37.5t147 -124.5q119 -128 183.5 -271t64.5 -323.5t-115.5 -431.5t-279 -382.5t-363.5 -131.5zM1029 1719q-44 0 -80.5 23.5t-64 58.5t-46 77t-27.5 79
q-26 -110 -86 -173q-60 -65 -129 -65q-57 0 -108 53q-37 44 -47 90q69 7 127.5 35t105 70.5t81 97.5t56.5 116q22 -61 56.5 -116t81 -97.5t105.5 -70.5t129 -35q-10 -46 -45 -90q-53 -53 -109 -53zM1300 2291q-35 -46 -88.5 -73.5t-111.5 -27.5q-28 0 -54.5 6.5t-47.5 14.5
t-35.5 15.5t-17.5 8.5q-96 47 -163 47q-40 0 -66.5 -12.5t-43.5 -26.5q-18 -18 -29 -40q3 14 10 32q5 15 15.5 36t27.5 47q16 23 39 41.5t49 31.5t54.5 20.5t56.5 7.5q29 0 55.5 -6.5t47.5 -14.5t35 -15.5t17 -9.5q97 -46 163 -46q41 0 67.5 12t42.5 26q19 17 29 38
q-3 -14 -9 -31q-6 -14 -16 -34.5t-27 -46.5z" />
    <glyph glyph-name="uni1ED7" unicode="&#x1ed7;" horiz-adv-x="1048" 
d="M543 -17q-76 0 -145.5 26t-126 86t-81.5 126.5t-30.5 137.5t-5.5 146v22q0 114 36 196t94.5 140.5t127 102t135.5 78.5q80 41 139 83t76 98q132 -92 198 -176.5t88.5 -183.5t23.5 -235v-18q0 -143 -40.5 -271t-128.5 -218.5t-229 -124.5q-63 -15 -131 -15zM614 189
q40 0 76 34t55 102q18 72 18 202v199q0 53 -22 103t-70 74q-30 15 -58 15t-58 -15q-48 -24 -69.5 -74t-21.5 -103v-199q0 -48 3 -101.5t15 -100.5q19 -68 55 -102t77 -34zM819 1268q-44 0 -80.5 23.5t-64 58.5t-46 77t-27.5 79q-26 -110 -86 -173q-60 -65 -129 -65
q-57 0 -108 53q-37 44 -47 90q69 7 127.5 35t105 70.5t81 97.5t56.5 116q22 -61 56.5 -116t81 -97.5t105.5 -70.5t129 -35q-10 -46 -45 -90q-53 -53 -109 -53zM1090 1830q-35 -46 -88.5 -73.5t-111.5 -27.5q-28 0 -54.5 6.5t-47.5 14.5t-35.5 15.5t-17.5 8.5q-96 47 -163 47
q-40 0 -66.5 -12.5t-43.5 -26.5q-18 -18 -29 -40q3 14 10 32q5 15 15.5 36t27.5 47q16 23 39 41.5t49 31.5t54.5 20.5t56.5 7.5q29 0 55.5 -6.5t47.5 -14.5t35 -15.5t17 -9.5q97 -46 163 -46q41 0 67.5 12t42.5 26q19 17 29 38q-3 -14 -9 -31q-6 -14 -16 -34.5t-27 -46.5z
" />
    <glyph glyph-name="uni1ED8" unicode="&#x1ed8;" horiz-adv-x="1442" 
d="M695 -83q-74 0 -156 22q-143 41 -234.5 130.5t-135 241.5t-43.5 286q0 164 61.5 324.5t176 278.5t275.5 161q-54 -85 -99.5 -187.5t-73 -215.5t-27.5 -230q0 -100 25 -259q46 -165 137 -247t194 -82q105 0 201 81.5t151 241.5q39 181 39 291q0 105 -32 199
q-72 213 -287 396q-54 47 -120 79.5t-132 32.5q-25 0 -50 -6l76 45q86 51 154.5 85t134.5 34q62 0 128 -37.5t147 -124.5q119 -128 183.5 -271t64.5 -323.5t-115.5 -431.5t-279 -382.5t-363.5 -131.5zM810 -600l-164 164l164 165l165 -165zM1028 1719q-44 0 -80.5 23.5
t-64 58.5t-46 77t-27.5 79q-26 -110 -86 -173q-60 -65 -129 -65q-57 0 -108 53q-37 44 -47 90q69 7 127.5 35t105 70.5t81 97.5t56.5 116q22 -61 56.5 -116t81 -97.5t105.5 -70.5t129 -35q-10 -46 -45 -90q-53 -53 -109 -53z" />
    <glyph glyph-name="uni1ED9" unicode="&#x1ed9;" horiz-adv-x="1048" 
d="M543 -17q-76 0 -145.5 26t-126 86t-81.5 126.5t-30.5 137.5t-5.5 146v22q0 114 36 196t94.5 140.5t127 102t135.5 78.5q80 41 139 83t76 98q132 -92 198 -176.5t88.5 -183.5t23.5 -235v-18q0 -143 -40.5 -271t-128.5 -218.5t-229 -124.5q-63 -15 -131 -15zM614 189
q40 0 76 34t55 102q18 72 18 202v199q0 53 -22 103t-70 74q-30 15 -58 15t-58 -15q-48 -24 -69.5 -74t-21.5 -103v-199q0 -48 3 -101.5t15 -100.5q19 -68 55 -102t77 -34zM600 -469l-164 164l164 165l165 -165zM819 1268q-44 0 -80.5 23.5t-64 58.5t-46 77t-27.5 79
q-26 -110 -86 -173q-60 -65 -129 -65q-57 0 -108 53q-37 44 -47 90q69 7 127.5 35t105 70.5t81 97.5t56.5 116q22 -61 56.5 -116t81 -97.5t105.5 -70.5t129 -35q-10 -46 -45 -90q-53 -53 -109 -53z" />
    <glyph glyph-name="uni1EDA" unicode="&#x1eda;" horiz-adv-x="1442" 
d="M695 -83q-74 0 -156 22q-143 41 -234.5 130.5t-135 241.5t-43.5 286q0 164 61.5 324.5t176 278.5t275.5 161q-54 -85 -99.5 -187.5t-73 -215.5t-27.5 -230q0 -100 25 -259q46 -165 137 -247t194 -82q105 0 201 81.5t151 241.5q39 181 39 291q0 105 -32 199
q-72 213 -287 396q-54 47 -120 79.5t-132 32.5q-25 0 -50 -6l76 45q86 51 154.5 85t134.5 34q62 0 128 -37.5t147 -124.5q119 -128 183.5 -271t64.5 -323.5t-115.5 -431.5t-279 -382.5t-363.5 -131.5zM1116 1338l51 137q94 81 94 165.5t-94 122.5l141 148l136 -143
q0 -9 -3 -20q-8 -40 -33.5 -82.5t-60.5 -84.5q-42 -51 -72.5 -84.5t-56.5 -58.5t-49.5 -47.5t-52.5 -52.5zM724 1768q69 42 126.5 102t92.5 135q17 35 23.5 67.5t8.5 58.5q2 29 -1 55q7 0 32.5 -4.5t64.5 -25.5q72 -46 72 -120q0 -39 -17.5 -73.5t-45.5 -63.5t-62 -51.5
t-66 -37.5q-90 -42 -207 -42h-21z" />
    <glyph glyph-name="uni1EDB" unicode="&#x1edb;" horiz-adv-x="1048" 
d="M543 -17q-76 0 -145.5 26t-126 86t-81.5 126.5t-30.5 137.5t-5.5 146v22q0 114 36 196t94.5 140.5t127 102t135.5 78.5q80 41 139 83t76 98q132 -92 198 -176.5t88.5 -183.5t23.5 -235v-18q0 -143 -40.5 -271t-128.5 -218.5t-229 -124.5q-63 -15 -131 -15zM614 189
q40 0 76 34t55 102q18 72 18 202v199q0 53 -22 103t-70 74q-30 15 -58 15t-58 -15q-48 -24 -69.5 -74t-21.5 -103v-199q0 -48 3 -101.5t15 -100.5q19 -68 55 -102t77 -34zM774 900l51 137q94 81 94 165.5t-94 122.5l141 148l136 -143q0 -9 -3 -20q-8 -40 -33.5 -82.5
t-60.5 -84.5q-42 -51 -72.5 -84.5t-56.5 -58.5t-49.5 -47.5t-52.5 -52.5zM437 1323q69 42 126.5 102t92.5 135q17 35 23.5 67.5t8.5 58.5q2 29 -1 55q7 0 32.5 -4.5t64.5 -25.5q72 -46 72 -120q0 -39 -17.5 -73.5t-45.5 -63.5t-62 -51.5t-66 -37.5q-90 -42 -207 -42h-21z
" />
    <glyph glyph-name="uni1EDC" unicode="&#x1edc;" horiz-adv-x="1442" 
d="M695 -83q-74 0 -156 22q-143 41 -234.5 130.5t-135 241.5t-43.5 286q0 164 61.5 324.5t176 278.5t275.5 161q-54 -85 -99.5 -187.5t-73 -215.5t-27.5 -230q0 -100 25 -259q46 -165 137 -247t194 -82q105 0 201 81.5t151 241.5q39 181 39 291q0 105 -32 199
q-72 213 -287 396q-54 47 -120 79.5t-132 32.5q-25 0 -50 -6l76 45q86 51 154.5 85t134.5 34q62 0 128 -37.5t147 -124.5q119 -128 183.5 -271t64.5 -323.5t-115.5 -431.5t-279 -382.5t-363.5 -131.5zM1116 1338l51 137q94 81 94 165.5t-94 122.5l141 148l136 -143
q0 -9 -3 -20q-8 -40 -33.5 -82.5t-60.5 -84.5q-42 -51 -72.5 -84.5t-56.5 -58.5t-49.5 -47.5t-52.5 -52.5zM1072 1769q-46 0 -95 8.5t-95 26t-86.5 45t-70.5 65.5q-51 62 -51 123q0 74 72 120q39 21 64 25.5t32 4.5q-3 -26 -1 -55q2 -26 8.5 -58.5t23.5 -67.5
q35 -75 93 -135t127 -102h-21z" />
    <glyph glyph-name="uni1EDD" unicode="&#x1edd;" horiz-adv-x="1048" 
d="M543 -17q-76 0 -145.5 26t-126 86t-81.5 126.5t-30.5 137.5t-5.5 146v22q0 114 36 196t94.5 140.5t127 102t135.5 78.5q80 41 139 83t76 98q132 -92 198 -176.5t88.5 -183.5t23.5 -235v-18q0 -143 -40.5 -271t-128.5 -218.5t-229 -124.5q-63 -15 -131 -15zM614 189
q40 0 76 34t55 102q18 72 18 202v199q0 53 -22 103t-70 74q-30 15 -58 15t-58 -15q-48 -24 -69.5 -74t-21.5 -103v-199q0 -48 3 -101.5t15 -100.5q19 -68 55 -102t77 -34zM774 900l51 137q94 81 94 165.5t-94 122.5l141 148l136 -143q0 -9 -3 -20q-8 -40 -33.5 -82.5
t-60.5 -84.5q-42 -51 -72.5 -84.5t-56.5 -58.5t-49.5 -47.5t-52.5 -52.5zM731 1326q-46 0 -95 8.5t-95 26t-86.5 45t-70.5 65.5q-51 62 -51 123q0 74 72 120q39 21 64 25.5t32 4.5q-3 -26 -1 -55q2 -26 8.5 -58.5t23.5 -67.5q35 -75 93 -135t127 -102h-21z" />
    </font>
</defs>
</svg>
