<?xml version="1.0" standalone="no"?>
<!DOCTYPE svg PUBLIC "-//W3C//DTD SVG 1.1//EN" "http://www.w3.org/Graphics/SVG/1.1/DTD/svg11.dtd" >
<svg xmlns="http://www.w3.org/2000/svg" xmlns:xlink="http://www.w3.org/1999/xlink" version="1.1">
<metadata>
Created by FontForge 20201107 at Wed Feb 14 18:22:46 2024
 By 
</metadata>
<defs>
<font id="KK7-VCROSDBold" horiz-adv-x="1200" >
  <font-face 
    font-family="KK7-VCR OSD Bold"
    font-weight="400"
    font-stretch="normal"
    units-per-em="2048"
    panose-1="2 0 6 9 0 0 0 0 0 0"
    ascent="1638"
    descent="-410"
    x-height="1200"
    cap-height="1500"
    bbox="-100 -300 2500 2200"
    underline-thickness="100"
    underline-position="-255"
    unicode-range="U+001D-25C4"
  />
<missing-glyph horiz-adv-x="1100" 
d="M100 1500h400v-500h-100v400h-200v-400h-100v500zM600 1500h400v-500h-400v500zM900 1100v300h-200v-300h200zM400 500h-300v-100h200v200h-200v100h100v100h200v-300zM600 900v-500h-100v500h100zM800 800v-100h100v100h100v-300h-300v-100h200v200h-200v200h100z
M300 300v-100h-100v-100h100v-100h-100v-100h-100v400h200zM400 200v-100h-100v100h100zM600 300v-100h100v-300h100v200h-200v-200h-100v400h100zM1000 0v-100h-100v100h100z" />
    <glyph glyph-name=".notdef" horiz-adv-x="1100" 
d="M100 1500h400v-500h-100v400h-200v-400h-100v500zM600 1500h400v-500h-400v500zM900 1100v300h-200v-300h200zM400 500h-300v-100h200v200h-200v100h100v100h200v-300zM600 900v-500h-100v500h100zM800 800v-100h100v100h100v-300h-300v-100h200v200h-200v200h100z
M300 300v-100h-100v-100h100v-100h-100v-100h-100v400h200zM400 200v-100h-100v100h100zM600 300v-100h100v-300h100v200h-200v-200h-100v400h100zM1000 0v-100h-100v100h100z" />
    <glyph glyph-name=".null" horiz-adv-x="0" 
 />
    <glyph glyph-name=".null" horiz-adv-x="0" 
 />
    <glyph glyph-name="uni000D" 
 />
    <glyph glyph-name="space" unicode=" " horiz-adv-x="500" 
 />
    <glyph glyph-name="space" unicode="&#xa0;" horiz-adv-x="500" 
 />
    <glyph glyph-name="exclam" unicode="!" horiz-adv-x="400" 
d="M300 300v-200h-200v200h200zM100 1600h200v-1100h-200v1100z" />
    <glyph glyph-name="quotedbl" unicode="&#x22;" horiz-adv-x="1000" 
d="M800 1200v-100h-100v100h-100v300h300v-300h-100zM100 1500h300v-300h-100v-100h-100v100h-100v300z" />
    <glyph glyph-name="numbersign" unicode="#" 
d="M300 900h-200v200h200v300h200v-200h200v300h200v-200h200v-200h-200v-300h200v-200h-200v-300h-200v200h-200v-300h-200v200h-200v200h200v300zM700 700v300h-200v-300h200z" />
    <glyph glyph-name="dollar" unicode="$" 
d="M700 1400h200v-100h100v-100h100v-200h-200v100h-100v100h-100v-300h200v-100h100v-100h100v-300h-100v-100h-100v-100h-200v-100h-200v100h-200v100h-100v100h-100v200h200v-100h100v-100h100v300h-200v100h-100v100h-100v300h100v100h100v100h200v100h200v-100z
M400 1000v-100h100v300h-100v-100h-100v-100h100zM800 400v100h100v100h-100v100h-100v-300h100z" />
    <glyph glyph-name="percent" unicode="%" 
d="M300 1100h100v200h-100v-200zM100 500h100v100h100v100h100v100h100v100h-300v100h-100v400h100v100h300v-100h100v-400h100v100h100v100h100v300h200v-400h-100v-100h-100v-100h-100v-100h-100v-100h300v-100h100v-400h-100v-100h-300v100h-100v400h-100v-100h-100v-100
h-100v-300h-200v400zM600 900v100h-100v-100h100zM700 600v100h-100v-100h100zM900 300v200h-100v-200h100z" />
    <glyph glyph-name="ampersand" unicode="&#x26;" 
d="M700 1300h-300v-300h100v-100h100v100h100v300zM100 700h100v100h100v200h-100v300h100v100h100v100h300v-100h100v-100h100v-300h-100v-200h-100v-100h100v-100h100v100h200v-200h-100v-200h100v-200h-200v100h-100v-100h-500v100h-100v100h-100v400zM400 400v-100h300
v200h-100v100h-100v100h-200v-300h100z" />
    <glyph glyph-name="quotesingle" unicode="'" horiz-adv-x="500" 
d="M400 1500v-300h-100v-100h-100v100h-100v300h300z" />
    <glyph glyph-name="parenleft" unicode="(" horiz-adv-x="700" 
d="M500 200h100v-100h-200v100h-100v100h-100v100h-100v1000h100v100h100v100h100v100h200v-100h-100v-100h-100v-100h-100v-1000h100v-100h100v-100z" />
    <glyph glyph-name="parenright" unicode=")" horiz-adv-x="700" 
d="M300 200v-100h-200v100h100v100h100v100h100v1000h-100v100h-100v100h-100v100h200v-100h100v-100h100v-100h100v-1000h-100v-100h-100v-100h-100z" />
    <glyph glyph-name="asterisk" unicode="*" horiz-adv-x="1000" 
d="M200 900v-100h-100v200h100v100h100v100h-100v100h-100v200h100v-100h100v-100h100v300h200v-300h100v100h100v100h100v-200h-100v-100h-100v-100h100v-100h100v-200h-100v100h-100v100h-100v-300h-200v300h-100v-100h-100z" />
    <glyph glyph-name="plus" unicode="+" 
d="M500 900v400h200v-400h400v-200h-400v-400h-200v400h-400v200h400z" />
    <glyph glyph-name="comma" unicode="," horiz-adv-x="600" 
d="M300 200v200h200v-200h-100v-100h-100v-100h-200v100h100v100h100z" />
    <glyph glyph-name="hyphen" unicode="-" horiz-adv-x="1000" 
d="M900 900v-200h-800v200h800z" />
    <glyph glyph-name="hyphen" unicode="&#xad;" horiz-adv-x="1000" 
d="M900 900v-200h-800v200h800z" />
    <glyph glyph-name="period" unicode="." horiz-adv-x="400" 
d="M300 300v-200h-200v200h200z" />
    <glyph glyph-name="slash" unicode="/" 
d="M900 1500h200v-400h-100v-100h-100v-100h-100v-100h-100v-100h-100v-100h-100v-100h-100v-100h-100v-300h-200v400h100v100h100v100h100v100h100v100h100v100h100v100h100v100h100v300z" />
    <glyph glyph-name="zero" unicode="0" 
d="M400 700v100h100v100h100v100h100v100h200v100h-100v100h-400v-100h-100v-500h100zM100 1300h100v100h100v100h600v-100h100v-100h100v-1000h-100v-100h-100v-100h-600v100h-100v100h-100v1000zM400 400v-100h400v100h100v500h-100v-100h-100v-100h-100v-100h-100v-100
h-200v-100h100z" />
    <glyph glyph-name="one" unicode="1" horiz-adv-x="800" 
d="M500 300h200v-200h-600v200h200v800h-200v200h100v100h100v100h200v-1200z" />
    <glyph glyph-name="two" unicode="2" 
d="M300 300h800v-200h-1000v600h100v100h100v100h500v100h100v200h-100v100h-400v-100h-100v-100h-200v200h100v100h100v100h600v-100h100v-100h100v-400h-100v-100h-100v-100h-500v-100h-100v-300z" />
    <glyph glyph-name="three" unicode="3" 
d="M200 300h-100v200h200v-100h100v-100h400v100h100v200h-100v100h-300v200h300v100h100v200h-100v100h-400v-100h-100v-100h-200v200h100v100h100v100h600v-100h100v-100h100v-400h-100v-200h100v-400h-100v-100h-100v-100h-600v100h-100v100z" />
    <glyph glyph-name="four" unicode="4" 
d="M700 1400v100h200v-800h200v-200h-200v-400h-200v400h-600v400h100v100h100v100h100v100h100v100h100v100h100zM700 700v400h-100v-100h-100v-100h-100v-100h-100v-100h400z" />
    <glyph glyph-name="five" unicode="5" 
d="M100 1500h1000v-200h-800v-200h600v-100h100v-100h100v-600h-100v-100h-100v-100h-600v100h-100v100h-100v200h200v-100h100v-100h400v100h100v400h-100v100h-700v600z" />
    <glyph glyph-name="six" unicode="6" 
d="M900 200v-100h-600v100h-100v100h-100v1000h100v100h100v100h600v-100h100v-100h100v-200h-200v100h-100v100h-400v-100h-100v-300h600v-100h100v-100h100v-400h-100v-100h-100zM400 400v-100h400v100h100v200h-100v100h-500v-300h100z" />
    <glyph glyph-name="seven" unicode="7" 
d="M900 1300h-800v200h1000v-500h-100v-100h-100v-100h-100v-100h-100v-600h-200v700h100v100h100v100h100v100h100v200z" />
    <glyph glyph-name="eight" unicode="8" 
d="M400 300h400v100h100v200h-100v100h-400v-100h-100v-200h100v-100zM100 700h100v200h-100v400h100v100h100v100h600v-100h100v-100h100v-400h-100v-200h100v-400h-100v-100h-100v-100h-600v100h-100v100h-100v400zM400 1000v-100h400v100h100v200h-100v100h-400v-100
h-100v-200h100z" />
    <glyph glyph-name="nine" unicode="9" 
d="M200 300h-100v200h200v-100h100v-100h400v100h100v300h-600v100h-100v100h-100v400h100v100h100v100h600v-100h100v-100h100v-1000h-100v-100h-100v-100h-600v100h-100v100zM400 999v-99h500v300h-100v100h-400v-100h-100v-201h100z" />
    <glyph glyph-name="colon" unicode=":" horiz-adv-x="400" 
d="M300 400v-200h-200v200h200zM100 1100h200v-200h-200v200z" />
    <glyph glyph-name="semicolon" unicode=";" horiz-adv-x="600" 
d="M500 1200v-200h-200v200h200zM100 100h100v100h100v200h200v-200h-100v-100h-100v-100h-200v100z" />
    <glyph glyph-name="semicolon" unicode="&#x37e;" horiz-adv-x="600" 
d="M500 1200v-200h-200v200h200zM100 100h100v100h100v200h200v-200h-100v-100h-100v-100h-200v100z" />
    <glyph glyph-name="less" unicode="&#x3c;" horiz-adv-x="1000" 
d="M600 200v100h-100v100h-100v100h-100v100h-100v100h-100v300h100v100h100v100h100v100h100v100h100v100h100v100h200v-200h-100v-100h-100v-100h-100v-100h-100v-100h-100v-100h-100v-100h100v-100h100v-100h100v-100h100v-100h100v-100h100v-200h-200v100h-100z" />
    <glyph glyph-name="equal" unicode="=" 
d="M1100 1100v-200h-1000v200h1000zM100 700h1000v-200h-1000v200z" />
    <glyph glyph-name="greater" unicode="&#x3e;" horiz-adv-x="1000" 
d="M300 200v-100h-200v200h100v100h100v100h100v100h100v100h100v100h100v100h-100v100h-100v100h-100v100h-100v100h-100v100h-100v200h200v-100h100v-100h100v-100h100v-100h100v-100h100v-100h100v-300h-100v-100h-100v-100h-100v-100h-100v-100h-100v-100h-100z" />
    <glyph glyph-name="question" unicode="?" 
d="M700 300v-200h-200v200h200zM100 1400h100v100h100v100h600v-100h100v-100h100v-400h-100v-100h-100v-100h-100v-100h-100v-200h-200v300h100v100h100v100h100v100h100v200h-100v100h-400v-100h-100v-100h-200v200z" />
    <glyph glyph-name="at" unicode="@" 
d="M600 1000h-100v-400h100v400zM100 1200h100v100h100v100h600v-100h100v-100h100v-600h-100v-100h-200v100h-100v-100h-300v100h-100v400h100v100h200v-100h100v100h100v-500h100v100h100v400h-100v100h-100v100h-400v-100h-100v-100h-100v-600h100v-100h100v-100h400v100
h200v-100h-100v-100h-600v100h-100v100h-100v800z" />
    <glyph glyph-name="A" unicode="A" 
d="M300 700h600v300h-100v100h-100v100h-200v-100h-100v-100h-100v-300zM100 1100h100v100h100v100h100v100h100v100h200v-100h100v-100h100v-100h100v-100h100v-1000h-200v400h-600v-400h-200v1000z" />
    <glyph glyph-name="B" unicode="B" 
d="M300 900h500v100h100v200h-100v100h-500v-400zM100 1500h800v-100h100v-100h100v-400h-100v-200h100v-400h-100v-100h-100v-100h-800v1400zM800 300v100h100v200h-100v100h-500v-400h500z" />
    <glyph glyph-name="C" unicode="C" 
d="M400 300h400v100h100v100h200v-200h-100v-100h-100v-100h-600v100h-100v100h-100v1000h100v100h100v100h600v-100h100v-100h100v-200h-200v100h-100v100h-400v-100h-100v-800h100v-100z" />
    <glyph glyph-name="D" unicode="D" 
d="M300 1300v-1000h500v100h100v800h-100v100h-500zM100 1500h800v-100h100v-100h100v-1000h-100v-100h-100v-100h-800v1400z" />
    <glyph glyph-name="E" unicode="E" 
d="M1100 1500v-200h-800v-400h600v-200h-600v-400h800v-200h-1000v1400h1000z" />
    <glyph glyph-name="F" unicode="F" 
d="M1100 1500v-200h-800v-400h600v-200h-600v-600h-200v1400h1000z" />
    <glyph glyph-name="G" unicode="G" 
d="M1000 1300h100v-200h-200v100h-100v100h-400v-100h-100v-800h100v-100h400v100h100v300h-300v200h500v-600h-100v-100h-100v-100h-600v100h-100v100h-100v1000h100v100h100v100h600v-100h100v-100z" />
    <glyph glyph-name="H" unicode="H" 
d="M300 700v-600h-200v1400h200v-600h600v600h200v-1400h-200v600h-600z" />
    <glyph glyph-name="I" unicode="I" horiz-adv-x="800" 
d="M100 100v200h200v1000h-200v200h600v-200h-200v-1000h200v-200h-600z" />
    <glyph glyph-name="J" unicode="J" 
d="M200 300h-100v200h200v-100h100v-100h200v100h100v900h-200v200h600v-200h-200v-1000h-100v-100h-100v-100h-400v100h-100v100z" />
    <glyph glyph-name="K" unicode="K" 
d="M300 700v-600h-200v1400h200v-600h100v100h100v100h100v100h100v100h100v100h100v100h200v-200h-100v-100h-100v-100h-100v-100h-100v-100h-100v-200h100v-100h100v-100h100v-100h100v-100h100v-200h-200v100h-100v100h-100v100h-100v100h-100v100h-100v100h-100z" />
    <glyph glyph-name="L" unicode="L" 
d="M100 100v1400h200v-1200h800v-200h-1000z" />
    <glyph glyph-name="M" unicode="M" 
d="M300 100h-200v1400h200v-200h100v-100h100v-100h200v100h100v100h100v200h200v-1400h-200v900h-100v-100h-100v-200h-200v200h-100v100h-100v-900z" />
    <glyph glyph-name="N" unicode="N" 
d="M300 900v-800h-200v1400h200v-300h100v-100h100v-100h100v-100h100v-100h100v-100h100v800h200v-1400h-200v300h-100v100h-100v100h-100v100h-100v100h-100v100h-100z" />
    <glyph glyph-name="O" unicode="O" 
d="M800 1300h-400v-100h-100v-800h100v-100h400v100h100v800h-100v100zM100 1300h100v100h100v100h600v-100h100v-100h100v-1000h-100v-100h-100v-100h-600v100h-100v100h-100v1000z" />
    <glyph glyph-name="P" unicode="P" 
d="M300 1300v-400h500v100h100v200h-100v100h-500zM100 1500h800v-100h100v-100h100v-400h-100v-100h-100v-100h-600v-600h-200v1400z" />
    <glyph glyph-name="Q" unicode="Q" 
d="M300 1200v-800h100v-100h300v100h-100v100h-100v200h200v-100h100v-100h100v700h-100v100h-400v-100h-100zM100 1300h100v100h100v100h600v-100h100v-100h100v-900h-100v-100h100v-200h-200v100h-200v-100h-400v100h-100v100h-100v1000z" />
    <glyph glyph-name="R" unicode="R" 
d="M300 1300v-400h500v100h100v200h-100v100h-500zM100 1500h800v-100h100v-100h100v-400h-100v-100h-100v-100h-200v-100h100v-100h100v-100h100v-100h100v-200h-200v100h-100v100h-100v100h-100v100h-100v100h-100v100h-100v-600h-200v1400z" />
    <glyph glyph-name="S" unicode="S" 
d="M1000 1300h100v-200h-200v100h-100v100h-400v-100h-100v-200h100v-100h500v-100h100v-100h100v-400h-100v-100h-100v-100h-600v100h-100v100h-100v200h200v-100h100v-100h400v100h100v200h-100v100h-500v100h-100v100h-100v400h100v100h100v100h600v-100h100v-100z" />
    <glyph glyph-name="T" unicode="T" 
d="M500 1300h-400v200h1000v-200h-400v-1200h-200v1200z" />
    <glyph glyph-name="U" unicode="U" 
d="M200 300h-100v1200h200v-1100h100v-100h400v100h100v1100h200v-1200h-100v-100h-100v-100h-600v100h-100v100z" />
    <glyph glyph-name="V" unicode="V" 
d="M200 500h-100v1000h200v-900h100v-100h100v-100h200v100h100v100h100v900h200v-1000h-100v-100h-100v-100h-100v-100h-100v-100h-200v100h-100v100h-100v100h-100v100z" />
    <glyph glyph-name="W" unicode="W" 
d="M100 1500h200v-1100h200v500h200v-500h200v1100h200v-1200h-100v-100h-100v-100h-200v100h-200v-100h-200v100h-100v100h-100v1200z" />
    <glyph glyph-name="X" unicode="X" 
d="M300 400v-300h-200v400h100v100h100v100h100v200h-100v100h-100v100h-100v400h200v-300h100v-100h100v-100h200v100h100v100h100v300h200v-400h-100v-100h-100v-100h-100v-200h100v-100h100v-100h100v-400h-200v300h-100v100h-100v100h-200v-100h-100v-100h-100z" />
    <glyph glyph-name="Y" unicode="Y" 
d="M700 100h-200v500h-100v100h-100v100h-100v100h-100v600h200v-500h100v-100h100v-100h200v100h100v100h100v500h200v-600h-100v-100h-100v-100h-100v-100h-100v-500z" />
    <glyph glyph-name="Z" unicode="Z" 
d="M900 1200v100h-800v200h1000v-400h-100v-100h-100v-100h-100v-100h-100v-100h-100v-100h-100v-100h-100v-100h-100v-100h800v-200h-1000v400h100v100h100v100h100v100h100v100h100v100h100v100h100v100h100z" />
    <glyph glyph-name="bracketleft" unicode="[" horiz-adv-x="800" 
d="M700 1700v-200h-400v-1200h400v-200h-600v1600h600z" />
    <glyph glyph-name="backslash" unicode="\" 
d="M300 1200h100v-100h100v-100h100v-100h100v-100h100v-100h100v-100h100v-100h100v-400h-200v300h-100v100h-100v100h-100v100h-100v100h-100v100h-100v100h-100v100h-100v400h200v-300z" />
    <glyph glyph-name="bracketright" unicode="]" horiz-adv-x="800" 
d="M500 1500h-400v200h600v-1600h-600v200h400v1200z" />
    <glyph glyph-name="asciicircum" unicode="^" 
d="M700 1500v-100h100v-100h100v-100h100v-100h100v-100h-300v100h-100v100h-200v-100h-100v-100h-300v100h100v100h100v100h100v100h100v100h200z" />
    <glyph glyph-name="underscore" unicode="_" 
d="M0 0v200h1200v-200h-1200z" />
    <glyph glyph-name="grave" unicode="`" horiz-adv-x="700" 
d="M400 1500v-100h100v-100h100v-100h-200v100h-200v100h-100v100h300z" />
    <glyph glyph-name="a" unicode="a" 
d="M400 300h400v100h100v100h-100v100h-400v-100h-100v-100h100v-100zM100 600h100v100h100v100h500v-100h100v200h-100v100h-500v200h600v-100h100v-100h100v-900h-200v100h-100v-100h-500v100h-100v100h-100v300z" />
    <glyph glyph-name="b" unicode="b" 
d="M600 300h100v100h100v100h100v300h-100v100h-100v100h-100v-100h-100v-100h-100v-300h100v-100h100v-100zM100 1600h200v-600h100v100h100v100h300v-100h100v-100h100v-100h100v-500h-100v-100h-100v-100h-100v-100h-300v100h-100v100h-100v-200h-200v1500z" />
    <glyph glyph-name="c" unicode="c" 
d="M900 400v100h200v-200h-100v-100h-100v-100h-600v100h-100v100h-100v700h100v100h100v100h600v-100h100v-100h100v-200h-200v100h-100v100h-400v-100h-100v-500h100v-100h400v100h100z" />
    <glyph glyph-name="d" unicode="d" 
d="M900 1000v600h200v-1500h-200v200h-100v-100h-100v-100h-300v100h-100v100h-100v100h-100v500h100v100h100v100h100v100h300v-100h100v-100h100zM400 500v-100h100v-100h100v100h100v100h100v300h-100v100h-100v100h-100v-100h-100v-100h-100v-300h100z" />
    <glyph glyph-name="e" unicode="e" 
d="M300 900v-100h600v100h-100v100h-400v-100h-100zM100 1000h100v100h100v100h600v-100h100v-100h100v-300h-100v-100h-700v-200h100v-100h400v100h300v-100h-100v-100h-100v-100h-600v100h-100v100h-100v700z" />
    <glyph glyph-name="f" unicode="f" horiz-adv-x="1000" 
d="M600 100h-200v900h-300v200h300v300h100v100h400v-200h-300v-200h300v-200h-300v-900z" />
    <glyph glyph-name="g" unicode="g" 
d="M900 500v400h-100v100h-400v-100h-100v-400h100v-100h400v100h100zM100 1000h100v100h100v100h600v-100h100v-100h100v-1000h-100v-100h-100v-100h-600v100h-100v200h200v-100h400v100h100v200h-100v-100h-500v100h-100v100h-100v600z" />
    <glyph glyph-name="h" unicode="h" 
d="M300 700v-600h-200v1500h200v-600h100v100h100v100h300v-100h100v-100h100v-100h100v-800h-200v700h-100v100h-100v100h-100v-100h-100v-100h-100v-100h-100z" />
    <glyph glyph-name="i" unicode="i" horiz-adv-x="800" 
d="M500 1600v-200h-200v200h200zM100 1200h400v-800h100v-100h100v-200h-200v100h-100v100h-100v700h-200v200z" />
    <glyph glyph-name="j" unicode="j" horiz-adv-x="800" 
d="M700 1600v-200h-200v200h200zM100 0h300v100h100v900h-200v200h400v-1200h-100v-100h-100v-100h-400v200z" />
    <glyph glyph-name="k" unicode="k" 
d="M300 300v-200h-200v1500h200v-1000h100v100h100v100h100v100h100v100h100v100h100v100h200v-200h-100v-100h-100v-100h-100v-100h-100v-100h100v-100h100v-100h100v-100h100v-200h-200v100h-100v100h-100v100h-100v100h-100v-100h-100v-100h-100z" />
    <glyph glyph-name="l" unicode="l" horiz-adv-x="400" 
d="M300 1600v-1500h-200v1500h200z" />
    <glyph glyph-name="m" unicode="m" 
d="M300 900v-800h-200v1100h200v-100h100v100h500v-100h100v-100h100v-900h-200v800h-100v100h-100v-900h-200v900h-100v-100h-100z" />
    <glyph glyph-name="n" unicode="n" 
d="M300 900v-800h-200v1100h200v-100h100v100h500v-100h100v-100h100v-900h-200v800h-100v100h-400v-100h-100z" />
    <glyph glyph-name="o" unicode="o" 
d="M400 300h400v100h100v500h-100v100h-400v-100h-100v-500h100v-100zM100 1000h100v100h100v100h600v-100h100v-100h100v-700h-100v-100h-100v-100h-600v100h-100v100h-100v700z" />
    <glyph glyph-name="p" unicode="p" 
d="M392 400h404v100h101v400h-101v100h-404v-100h-101v-400h101v-100zM392 1100v100h505v-100h101v-100h101v-600h-101v-100h-101v-100h-505v100h-101v-500h-202v1400h202v-100h101z" />
    <glyph glyph-name="q" unicode="q" 
d="M900 500v400h-100v100h-400v-100h-100v-400h100v-100h400v100h100zM900 1200h200v-1400h-200v500h-100v-100h-500v100h-100v100h-100v600h100v100h100v100h500v-100h100v100z" />
    <glyph glyph-name="r" unicode="r" 
d="M300 700v-600h-200v1100h200v-200h100v100h100v100h400v-100h100v-100h100v-200h-200v100h-100v100h-200v-100h-100v-100h-100v-100h-100z" />
    <glyph glyph-name="s" unicode="s" 
d="M200 300h-100v200h200v-100h100v-100h400v200h-200v100h-200v100h-200v100h-100v200h100v100h100v100h600v-100h100v-100h100v-200h-200v100h-100v100h-400v-200h300v-100h200v-100h100v-100h100v-200h-100v-100h-100v-100h-600v100h-100v100z" />
    <glyph glyph-name="t" unicode="t" horiz-adv-x="800" 
d="M600 300h100v-200h-200v100h-100v100h-100v700h-200v200h200v400h200v-400h200v-200h-200v-600h100v-100z" />
    <glyph glyph-name="u" unicode="u" 
d="M100 1200h200v-800h100v-100h400v100h100v800h200v-900h-100v-100h-100v-100h-600v100h-100v100h-100v900z" />
    <glyph glyph-name="v" unicode="v" 
d="M100 1200h200v-600h100v-100h100v-100h200v100h100v100h100v600h200v-700h-100v-100h-100v-100h-100v-100h-100v-100h-200v100h-100v100h-100v100h-100v100h-100v700z" />
    <glyph glyph-name="w" unicode="w" 
d="M100 1200h200v-800h100v-100h100v500h200v-500h100v100h100v800h200v-900h-100v-100h-100v-100h-200v100h-200v-100h-200v100h-100v100h-100v900z" />
    <glyph glyph-name="x" unicode="x" 
d="M300 200v-100h-200v200h100v100h100v100h100v100h100v100h-100v100h-100v100h-100v100h-100v200h200v-100h100v-100h100v-100h200v100h100v100h100v100h200v-200h-100v-100h-100v-100h-100v-100h-100v-100h100v-100h100v-100h100v-100h100v-200h-200v100h-100v100h-100
v100h-200v-100h-100v-100h-100z" />
    <glyph glyph-name="y" unicode="y" 
d="M300 -200v200h500v100h100v300h-100v-100h-100v-100h-400v100h-100v100h-100v800h200v-700h100v-100h200v100h100v100h100v200h100v400h200v-1200h-100v-100h-100v-100h-600z" />
    <glyph glyph-name="z" unicode="z" 
d="M500 300h600v-200h-1000v200h100v100h100v100h100v100h100v100h100v100h100v100h100v100h-700v200h1000v-300h-100v-100h-100v-100h-100v-100h-100v-100h-100v-100h-100v-100z" />
    <glyph glyph-name="braceleft" unicode="{" horiz-adv-x="800" 
d="M400 1500v200h300v-300h-200v-400h-100v-200h100v-400h200v-300h-300v200h-100v500h-200v200h200v500h100z" />
    <glyph glyph-name="bar" unicode="|" horiz-adv-x="400" 
d="M300 1700v-1600h-200v1600h200z" />
    <glyph glyph-name="braceright" unicode="}" horiz-adv-x="800" 
d="M500 1500v-500h200v-200h-200v-500h-100v-200h-300v300h200v400h100v200h-100v400h-200v300h300v-200h100z" />
    <glyph glyph-name="asciitilde" unicode="~" 
d="M300 900v100h300v-100h100v-100h200v100h100v100h100v-200h-100v-100h-100v-100h-300v100h-100v100h-200v-100h-100v-100h-100v200h100v100h100z" />
    <glyph glyph-name="exclamdown" unicode="&#xa1;" horiz-adv-x="400" 
d="M100 1300v200h200v-200h-200zM100 1100h200v-1000h-200v1000z" />
    <glyph glyph-name="cent" unicode="&#xa2;" 
d="M500 300h-200v100h-100v100h-100v600h100v100h100v100h200v200h200v-200h200v-100h100v-100h100v-200h-200v100h-100v100h-100v-600h100v100h100v100h200v-200h-100v-100h-100v-100h-200v-200h-200v200zM400 600v-100h100v600h-100v-100h-100v-400h100z" />
    <glyph glyph-name="sterling" unicode="&#xa3;" 
d="M400 300h700v-200h-1000v200h100v100h100v300h-200v200h200v400h100v100h100v100h400v-100h100v-100h100v-200h-200v100h-100v100h-200v-100h-100v-300h400v-200h-400v-300h-100v-100z" />
    <glyph glyph-name="yen" unicode="&#xa5;" 
d="M700 100h-200v500h-100v100h-100v100h-100v100h-100v600h200v-500h100v-100h100v-100h200v100h100v100h100v500h200v-600h-100v-100h-100v-100h-100v-100h-100v-500zM1000 500v-100h-800v100h800zM1000 300v-100h-800v100h800z" />
    <glyph glyph-name="brokenbar" unicode="&#xa6;" horiz-adv-x="400" 
d="M300 1700v-700h-200v700h200zM100 800h200v-700h-200v700z" />
    <glyph glyph-name="dieresis" unicode="&#xa8;" horiz-adv-x="800" 
d="M300 1500v-200h-200v200h200zM500 1500h200v-200h-200v200z" />
    <glyph glyph-name="copyright" unicode="&#xa9;" 
d="M400 400h400v100h-300v100h-100v500h100v100h300v100h-400v-100h-100v-100h-100v-500h100v-100h100v-100zM100 1200h100v100h100v100h600v-100h100v-100h100v-700h-100v-100h-100v-100h-600v100h-100v100h-100v700zM600 700v-100h200v-100h100v100h100v500h-100v100h-100
v-100h-200v-100h-100v-300h100z" />
    <glyph glyph-name="ordfeminine" unicode="&#xaa;" horiz-adv-x="900" 
d="M800 600v-200h-700v200h700zM100 1100h100v100h400v200h-300v-100h-200v100h100v100h500v-100h100v-700h-100v100h-100v300h-300v-300h300v-100h-400v100h-100v300z" />
    <glyph glyph-name="guillemotleft" unicode="&#xab;" horiz-adv-x="1300" 
d="M200 500h-100v100h100v100h100v100h100v100h100v100h200v-200h-100v-100h-100v-100h-100v-100h100v-100h100v-100h100v-200h-200v100h-100v100h-100v100h-100v100zM700 500h-100v100h100v100h100v100h100v100h100v100h200v-200h-100v-100h-100v-100h-100v-100h100v-100
h100v-100h100v-200h-200v100h-100v100h-100v100h-100v100z" />
    <glyph glyph-name="registered" unicode="&#xae;" 
d="M700 1300v-100h100v-200h-100v-100h100v-200h100v100h100v400h-100v100h-100v100h-400v-100h300zM100 1300h100v100h100v100h600v-100h100v-100h100v-600h-100v-100h-100v-100h-600v100h-100v100h-100v600zM300 800v-100h100v600h-100v-100h-100v-400h100zM800 600v100
h-100v200h-200v-200h-100v-100h400zM700 1000v200h-200v-200h200z" />
    <glyph glyph-name="degree" unicode="&#xb0;" horiz-adv-x="1000" 
d="M300 1400v100h400v-100h100v-100h100v-400h-100v-100h-100v-100h-400v100h-100v100h-100v400h100v100h100zM400 1000v-100h200v100h100v200h-100v100h-200v-100h-100v-200h100z" />
    <glyph glyph-name="uni00B2" unicode="&#xb2;" horiz-adv-x="700" 
d="M100 1500v100h100v100h300v-100h100v-200h-100v-100h-200v-200h300v-100h-500v300h100v100h200v200h-100v-100h-200z" />
    <glyph glyph-name="uni00B3" unicode="&#xb3;" horiz-adv-x="700" 
d="M500 1600h100v-200h-100v-100h100v-200h-100v-100h-300v100h-100v100h200v-100h100v200h-100v100h100v200h-100v-100h-200v100h100v100h300v-100z" />
    <glyph glyph-name="acute" unicode="&#xb4;" horiz-adv-x="700" 
d="M600 1500v-100h-100v-100h-200v-100h-200v100h100v100h100v100h300z" />
    <glyph glyph-name="uni00B9" unicode="&#xb9;" horiz-adv-x="600" 
d="M200 1500h-100v100h100v100h200v-600h100v-100h-400v100h100v400z" />
    <glyph glyph-name="ordmasculine" unicode="&#xba;" horiz-adv-x="900" 
d="M800 600v-200h-700v200h700zM100 1300h100v100h100v100h300v-100h100v-100h100v-400h-100v-100h-100v-100h-300v100h-100v100h-100v400zM600 900v400h-300v-400h300z" />
    <glyph glyph-name="guillemotright" unicode="&#xbb;" horiz-adv-x="1300" 
d="M1100 500h100v100h-100v100h-100v100h-100v100h-100v100h-200v-200h100v-100h100v-100h100v-100h-100v-100h-100v-100h-100v-200h200v100h100v100h100v100h100v100zM600 500h100v100h-100v100h-100v100h-100v100h-100v100h-200v-200h100v-100h100v-100h100v-100h-100
v-100h-100v-100h-100v-200h200v100h100v100h100v100h100v100z" />
    <glyph glyph-name="onequarter" unicode="&#xbc;" 
d="M200 1500h-100v100h100v100h200v-600h100v-100h-400v100h100v400zM100 300h100v200h100v200h100v200h100v100h100v200h100v200h100v200h100v100h100v-200h-100v-200h-100v-200h-100v-200h-100v-100h-100v-200h-100v-200h-100v-200h-100v-100h-100v200zM600 500h100v200
h100v100h200v-400h100v-100h-100v-200h-100v200h-300v200zM900 400v200h-100v-200h100z" />
    <glyph glyph-name="onehalf" unicode="&#xbd;" 
d="M200 1500h-100v100h100v100h200v-600h100v-100h-400v100h100v400zM100 300h100v200h100v200h100v200h100v100h100v200h100v200h100v200h100v100h100v-200h-100v-200h-100v-200h-100v-200h-100v-100h-100v-200h-100v-200h-100v-200h-100v-100h-100v200zM600 400h100v100
h200v200h-100v-100h-200v100h100v100h300v-100h100v-200h-100v-100h-200v-200h300v-100h-500v300z" />
    <glyph glyph-name="threequarters" unicode="&#xbe;" 
d="M500 1600h100v-200h-100v-100h100v-200h-100v-100h-300v100h-100v100h200v-100h100v200h-100v100h100v200h-100v-100h-200v100h100v100h300v-100zM200 300h100v200h100v200h100v200h100v100h100v200h100v200h100v200h100v100h100v-200h-100v-200h-100v-200h-100v-200
h-100v-100h-100v-200h-100v-200h-100v-200h-100v-100h-100v200zM600 500h100v200h100v100h200v-400h100v-100h-100v-200h-100v200h-300v200zM900 400v200h-100v-200h100z" />
    <glyph glyph-name="questiondown" unicode="&#xbf;" 
d="M500 1400v200h200v-200h-200zM100 700h100v100h100v100h100v100h100v200h200v-300h-100v-100h-100v-100h-100v-100h-100v-200h100v-100h400v100h100v100h200v-200h-100v-100h-100v-100h-600v100h-100v100h-100v400z" />
    <glyph glyph-name="Agrave" unicode="&#xc0;" 
d="M300 1900h300v-100h100v-100h100v-100h-200v100h-200v100h-100v100zM300 700h600v300h-100v100h-100v100h-200v-100h-100v-100h-100v-300zM100 1100h100v100h100v100h100v100h100v100h200v-100h100v-100h100v-100h100v-100h100v-1000h-200v400h-600v-400h-200v1000z" />
    <glyph glyph-name="Aacute" unicode="&#xc1;" 
d="M400 1700h100v100h100v100h300v-100h-100v-100h-200v-100h-200v100zM300 700h600v300h-100v100h-100v100h-200v-100h-100v-100h-100v-300zM100 1100h100v100h100v100h100v100h100v100h200v-100h100v-100h100v-100h100v-100h100v-1000h-200v400h-600v-400h-200v1000z" />
    <glyph glyph-name="Acircumflex" unicode="&#xc2;" 
d="M700 1900v-100h100v-100h100v-100h-200v100h-200v-100h-200v100h100v100h100v100h200zM100 1100h100v100h100v100h100v100h100v100h200v-100h100v-100h100v-100h100v-100h100v-1000h-200v400h-600v-400h-200v1000zM900 700v300h-100v100h-100v100h-200v-100h-100v-100
h-100v-300h600z" />
    <glyph glyph-name="Atilde" unicode="&#xc3;" 
d="M800 1700v-100h-200v100h-200v-100h-100v200h100v100h200v-100h200v100h100v-200h-100zM100 1100h100v100h100v100h100v100h100v100h200v-100h100v-100h100v-100h100v-100h100v-1000h-200v400h-600v-400h-200v1000zM900 700v300h-100v100h-100v100h-200v-100h-100v-100
h-100v-300h600z" />
    <glyph glyph-name="Adieresis" unicode="&#xc4;" 
d="M300 100h-200v1000h100v100h100v100h100v100h100v100h200v-100h100v-100h100v-100h100v-100h100v-1000h-200v400h-600v-400zM900 700v300h-100v100h-100v100h-200v-100h-100v-100h-100v-300h600zM300 1900h200v-200h-200v200zM700 1900h200v-200h-200v200z" />
    <glyph glyph-name="Aring" unicode="&#xc5;" 
d="M300 700h600v300h-100v100h-100v100h-200v-100h-100v-100h-100v-300zM100 1100h100v100h100v100h100v100h100v100h200v-100h100v-100h100v-100h100v-100h100v-1000h-200v400h-600v-400h-200v1000zM700 1900v-200h100v100h-400v-100h100v200h200zM700 1700h-200v-100h200
v100z" />
    <glyph glyph-name="AE" unicode="&#xc6;" horiz-adv-x="1800" 
d="M300 700h500v600h-200v-100h-100v-100h-100v-100h-100v-300zM100 1100h100v100h100v100h100v100h100v100h500v-400v-1000h-200v400h-500v-400h-200v1000zM1700 1500v-200h-700v-400h500v-200h-500v-400h700v-200h-900v1400h900z" />
    <glyph glyph-name="Ccedilla" unicode="&#xc7;" 
d="M1000 1300h100v-200h-200v100h-100v100h-400v-100h-100v-800h100v-100h400v100h100v100h200v-200h-100v-100h-100v-100h-100v-100h-100v-100h-100v-100h-300v100h100v100h100v100h-200v100h-100v100h-100v1000h100v100h100v100h600v-100h100v-100z" />
    <glyph glyph-name="Egrave" unicode="&#xc8;" 
d="M1100 1500v-200h-800v-400h600v-200h-600v-400h800v-200h-1000v1400h1000zM300 1900h300v-100h100v-100h100v-100h-200v100h-200v100h-100v100z" />
    <glyph glyph-name="Eacute" unicode="&#xc9;" 
d="M600 1800v100h300v-100h-100v-100h-200v-100h-200v100h100v100h100zM100 1500h1000v-200h-800v-400h600v-200h-600v-400h800v-200h-1000v1400z" />
    <glyph glyph-name="Ecircumflex" unicode="&#xca;" 
d="M1100 1500v-200h-800v-400h600v-200h-600v-400h800v-200h-1000v1400h1000zM300 1700h100v100h100v100h200v-100h100v-100h100v-100h-200v100h-200v-100h-200v100z" />
    <glyph glyph-name="Edieresis" unicode="&#xcb;" 
d="M300 1700v200h200v-200h-200zM100 1500h1000v-200h-800v-400h600v-200h-600v-400h800v-200h-1000v1400zM700 1900h200v-200h-200v200z" />
    <glyph glyph-name="Igrave" unicode="&#xcc;" horiz-adv-x="800" 
d="M100 100v200h200v1000h-200v200h600v-200h-200v-1000h200v-200h-600zM100 1900h300v-100h100v-100h100v-100h-200v100h-200v100h-100v100z" />
    <glyph glyph-name="Iacute" unicode="&#xcd;" horiz-adv-x="800" 
d="M100 100v200h200v1000h-200v200h600v-200h-200v-1000h200v-200h-600zM200 1700h100v100h100v100h300v-100h-100v-100h-200v-100h-200v100z" />
    <glyph glyph-name="Icircumflex" unicode="&#xce;" horiz-adv-x="800" 
d="M100 100v200h200v1000h-200v200h600v-200h-200v-1000h200v-200h-600zM100 1700h100v100h100v100h200v-100h100v-100h100v-100h-200v100h-200v-100h-200v100z" />
    <glyph glyph-name="Idieresis" unicode="&#xcf;" horiz-adv-x="800" 
d="M100 100v200h200v1000h-200v200h600v-200h-200v-1000h200v-200h-600zM100 1800h200v-200h-200v200zM500 1800h200v-200h-200v200z" />
    <glyph glyph-name="Eth" unicode="&#xd0;" horiz-adv-x="1300" 
d="M200 900v600h800v-100h100v-100h100v-1000h-100v-100h-100v-100h-800v600h-100v200h100zM900 300v100h100v800h-100v100h-500v-400h200v-200h-200v-400h500z" />
    <glyph glyph-name="Ntilde" unicode="&#xd1;" 
d="M400 1800v100h200v-100h200v100h100v-200h-100v-100h-200v100h-200v-100h-100v200h100zM100 1500h200v-300h100v-100h100v-100h100v-100h100v-100h100v-100h100v800h200v-1400h-200v300h-100v100h-100v100h-100v100h-100v100h-100v100h-100v-800h-200v1400z" />
    <glyph glyph-name="Ograve" unicode="&#xd2;" 
d="M600 1900v-100h100v-100h100v-100h-200v100h-200v100h-100v100h300zM100 1300h100v100h100v100h600v-100h100v-100h100v-1000h-100v-100h-100v-100h-600v100h-100v100h-100v1000zM400 400v-100h400v100h100v800h-100v100h-400v-100h-100v-800h100z" />
    <glyph glyph-name="Oacute" unicode="&#xd3;" 
d="M600 1800v100h300v-100h-100v-100h-200v-100h-200v100h100v100h100zM100 1300h100v100h100v100h600v-100h100v-100h100v-1000h-100v-100h-100v-100h-600v100h-100v100h-100v1000zM400 400v-100h400v100h100v800h-100v100h-400v-100h-100v-800h100z" />
    <glyph glyph-name="Ocircumflex" unicode="&#xd4;" 
d="M400 300h400v100h100v800h-100v100h-400v-100h-100v-800h100v-100zM100 1300h100v100h100v100h600v-100h100v-100h100v-1000h-100v-100h-100v-100h-600v100h-100v100h-100v1000zM300 1700h100v100h100v100h200v-100h100v-100h100v-100h-200v100h-200v-100h-200v100z" />
    <glyph glyph-name="Otilde" unicode="&#xd5;" 
d="M400 300h400v100h100v800h-100v100h-400v-100h-100v-800h100v-100zM100 1300h100v100h100v100h600v-100h100v-100h100v-1000h-100v-100h-100v-100h-600v100h-100v100h-100v1000zM300 1800h100v100h200v-100h200v100h100v-200h-100v-100h-200v100h-200v-100h-100v200z" />
    <glyph glyph-name="Odieresis" unicode="&#xd6;" 
d="M400 300h400v100h100v800h-100v100h-400v-100h-100v-800h100v-100zM100 1300h100v100h100v100h600v-100h100v-100h100v-1000h-100v-100h-100v-100h-600v100h-100v100h-100v1000zM300 1800h200v-200h-200v200zM700 1800h200v-200h-200v200z" />
    <glyph glyph-name="Oslash" unicode="&#xd8;" 
d="M500 300h300v100h100v700h-100v-200h-100v-200h-100v-200h-100v-200zM100 300h100v100h-100v900h100v100h100v100h500v-100h100v100h200v-200h-100v-100h100v-900h-100v-100h-100v-100h-500v100h-100v-100h-200v200zM400 500v200h100v200h100v200h100v200h-300v-100h-100
v-700h100z" />
    <glyph glyph-name="Ugrave" unicode="&#xd9;" 
d="M600 1900v-100h100v-100h100v-100h-200v100h-200v100h-100v100h300zM100 1500h200v-1100h100v-100h400v100h100v1100h200v-1200h-100v-100h-100v-100h-600v100h-100v100h-100v1200z" />
    <glyph glyph-name="Uacute" unicode="&#xda;" 
d="M900 1900v-100h-100v-100h-200v-100h-200v100h100v100h100v100h300zM100 1500h200v-1100h100v-100h400v100h100v1100h200v-1200h-100v-100h-100v-100h-600v100h-100v100h-100v1200z" />
    <glyph glyph-name="Ucircumflex" unicode="&#xdb;" 
d="M200 300h-100v1200h200v-1100h100v-100h400v100h100v1100h200v-1200h-100v-100h-100v-100h-600v100h-100v100zM300 1700h100v100h100v100h200v-100h100v-100h100v-100h-200v100h-200v-100h-200v100z" />
    <glyph glyph-name="Udieresis" unicode="&#xdc;" 
d="M200 300h-100v1200h200v-1100h100v-100h400v100h100v1100h200v-1200h-100v-100h-100v-100h-600v100h-100v100zM300 1800h200v-200h-200v200zM700 1800h200v-200h-200v200z" />
    <glyph glyph-name="Yacute" unicode="&#xdd;" 
d="M100 1500h200v-500h100v-100h100v-100h200v100h100v100h100v500h200v-600h-100v-100h-100v-100h-100v-100h-100v-500h-200v500h-100v100h-100v100h-100v100h-100v600zM400 1700h100v100h100v100h300v-100h-100v-100h-200v-100h-200v100z" />
    <glyph glyph-name="Thorn" unicode="&#xde;" 
d="M300 400v-300h-200v1500h200v-300h600v-100h100v-100h100v-500h-100v-100h-100v-100h-600zM800 600v100h100v300h-100v100h-500v-500h500z" />
    <glyph glyph-name="germandbls" unicode="&#xdf;" 
d="M300 1400v-1300h-200v1400h100v100h100v100h200v-100h200v-100h100v-400h-100v-300h100v-100h100v-100h100v-400h-100v-100h-500v200h400v200h-100v100h-100v100h-100v400h100v300h-100v100h-100v-100h-100z" />
    <glyph glyph-name="agrave" unicode="&#xe0;" 
d="M300 1600h300v-100h100v-100h100v-100h-200v100h-200v100h-100v100zM400 300h400v100h100v100h-100v100h-400v-100h-100v-100h100v-100zM100 600h100v100h100v100h500v-100h100v200h-100v100h-500v200h600v-100h100v-100h100v-900h-200v100h-100v-100h-500v100h-100v100
h-100v300z" />
    <glyph glyph-name="aacute" unicode="&#xe1;" 
d="M400 1400h100v100h100v100h300v-100h-100v-100h-200v-100h-200v100zM400 300h400v100h100v100h-100v100h-400v-100h-100v-100h100v-100zM100 600h100v100h100v100h500v-100h100v200h-100v100h-500v200h600v-100h100v-100h100v-900h-200v100h-100v-100h-500v100h-100v100
h-100v300z" />
    <glyph glyph-name="acircumflex" unicode="&#xe2;" 
d="M300 1400h100v100h100v100h200v-100h100v-100h100v-100h-200v100h-200v-100h-200v100zM400 300h400v100h100v100h-100v100h-400v-100h-100v-100h100v-100zM100 600h100v100h100v100h500v-100h100v200h-100v100h-500v200h600v-100h100v-100h100v-900h-200v100h-100v-100
h-500v100h-100v100h-100v300z" />
    <glyph glyph-name="atilde" unicode="&#xe3;" 
d="M300 1500h100v100h200v-100h200v100h100v-200h-100v-100h-200v100h-200v-100h-100v200zM400 300h400v100h100v100h-100v100h-400v-100h-100v-100h100v-100zM100 600h100v100h100v100h500v-100h100v200h-100v100h-500v200h600v-100h100v-100h100v-900h-200v100h-100v-100
h-500v100h-100v100h-100v300z" />
    <glyph glyph-name="adieresis" unicode="&#xe4;" 
d="M300 1300v200h200v-200h-200zM700 1500h200v-200h-200v200zM400 300h400v100h100v100h-100v100h-400v-100h-100v-100h100v-100zM100 600h100v100h100v100h500v-100h100v200h-100v100h-500v200h600v-100h100v-100h100v-900h-200v100h-100v-100h-500v100h-100v100h-100v300
z" />
    <glyph glyph-name="aring" unicode="&#xe5;" 
d="M400 300h400v100h100v100h-100v100h-400v-100h-100v-100h100v-100zM100 600h100v100h100v100h500v-100h100v204l-100 -4l6 100h-506v200h200v100h-100v200h100v100h200v-100h100v-200h-100v-100h200v-100h100v-100h100v-900h-200v100h-100v-100h-500v100h-100v100h-100
v300zM700 1300v200h-200v-200h200z" />
    <glyph glyph-name="ae" unicode="&#xe6;" horiz-adv-x="2000" 
d="M400 300h400v0h100v300h-100v0h-400v-100h-100v-100h100v-100zM100 600h100v100h100v100h500v0h100v100h-100v100h-500v200h600v-100h100v-100h100v-900h-200v0h-100v0h-500v100h-100v100h-100v300zM1100 900v-100h600v100h-100v100h-400v-100h-100zM900 1000h100v100
h100v100h600v-100h100v-100h100v-300h-100v-100h-700v-200h100v-100h400v100h300v-100h-100v-100h-100v-100h-600v100h-100v100h-100v700z" />
    <glyph glyph-name="ccedilla" unicode="&#xe7;" 
d="M500 100h-200v100h-100v100h-100v700h100v100h100v100h600v-100h100v-100h100v-200h-200v100h-100v100h-400v-100h-100v-500h100v-100h400v100h100v100h200v-200h-100v-100h-100v-100h-100v-100h-100v-100h-100v-100h-300v100h100v100h100v100z" />
    <glyph glyph-name="egrave" unicode="&#xe8;" 
d="M300 1600h300v-100h100v-100h100v-100h-200v100h-200v100h-100v100zM300 900v-100h600v100h-100v100h-400v-100h-100zM100 1000h100v100h100v100h600v-100h100v-100h100v-300h-100v-100h-700v-200h100v-100h400v100h300v-100h-100v-100h-100v-100h-600v100h-100v100h-100
v700z" />
    <glyph glyph-name="eacute" unicode="&#xe9;" 
d="M1100 400v-100h-100v-100h-100v-100h-600v100h-100v100h-100v700h100v100h100v100h600v-100h100v-100h100v-300h-100v-100h-700v-200h100v-100h400v100h300zM900 800v100h-100v100h-400v-100h-100v-100h600zM400 1400h100v100h100v100h300v-100h-100v-100h-200v-100h-200
v100z" />
    <glyph glyph-name="ecircumflex" unicode="&#xea;" 
d="M1100 400v-100h-100v-100h-100v-100h-600v100h-100v100h-100v700h100v100h100v100h600v-100h100v-100h100v-300h-100v-100h-700v-200h100v-100h400v100h300zM900 800v100h-100v100h-400v-100h-100v-100h600zM300 1400h100v100h100v100h200v-100h100v-100h100v-100h-200
v100h-200v-100h-200v100z" />
    <glyph glyph-name="edieresis" unicode="&#xeb;" 
d="M1100 400v-100h-100v-100h-100v-100h-600v100h-100v100h-100v700h100v100h100v100h600v-100h100v-100h100v-300h-100v-100h-700v-200h100v-100h400v100h300zM900 800v100h-100v100h-400v-100h-100v-100h600zM300 1600h200v-200h-200v200zM700 1600h200v-200h-200v200z
" />
    <glyph glyph-name="igrave" unicode="&#xec;" horiz-adv-x="800" 
d="M600 300h100v-200h-200v100h-100v100h-100v700h-200v200h400v-800h100v-100zM0 1700h300v-100h100v-100h100v-100h-200v100h-200v100h-100v100z" />
    <glyph glyph-name="iacute" unicode="&#xed;" horiz-adv-x="800" 
d="M600 300h100v-200h-200v100h-100v100h-100v700h-200v200h400v-800h100v-100zM200 1500h100v100h100v100h300v-100h-100v-100h-200v-100h-200v100z" />
    <glyph glyph-name="icircumflex" unicode="&#xee;" horiz-adv-x="800" 
d="M600 300h100v-200h-200v100h-100v100h-100v700h-200v200h400v-800h100v-100zM100 1500h100v100h100v100h200v-100h100v-100h100v-100h-200v100h-200v-100h-200v100z" />
    <glyph glyph-name="idieresis" unicode="&#xef;" horiz-adv-x="800" 
d="M600 300h100v-200h-200v100h-100v100h-100v700h-200v200h400v-800h100v-100zM100 1600h200v-200h-200v200zM500 1600h200v-200h-200v200z" />
    <glyph glyph-name="eth" unicode="&#xf0;" 
d="M300 400h100v-100h200v100h100v600h-300v-100h-100v-500zM100 1000h100v100h100v100h400v100h-400v200h400v200h200v-200h200v-200h-200v-1000h-100v-100h-100v-100h-400v100h-100v100h-100v700z" />
    <glyph glyph-name="ntilde" unicode="&#xf1;" 
d="M300 900v-800h-200v1100h200v-100h100v100h500v-100h100v-100h100v-900h-200v800h-100v100h-400v-100h-100zM300 1500h100v100h200v-100h200v100h100v-200h-100v-100h-200v100h-200v-100h-100v200z" />
    <glyph glyph-name="ograve" unicode="&#xf2;" 
d="M600 1600v-100h100v-100h100v-100h-200v100h-200v100h-100v100h300zM100 1000h100v100h100v100h600v-100h100v-100h100v-700h-100v-100h-100v-100h-600v100h-100v100h-100v700zM400 400v-100h400v100h100v500h-100v100h-400v-100h-100v-500h100z" />
    <glyph glyph-name="oacute" unicode="&#xf3;" 
d="M900 1600v-100h-100v-100h-200v-100h-200v100h100v100h100v100h300zM100 1000h100v100h100v100h600v-100h100v-100h100v-700h-100v-100h-100v-100h-600v100h-100v100h-100v700zM400 400v-100h400v100h100v500h-100v100h-400v-100h-100v-500h100z" />
    <glyph glyph-name="ocircumflex" unicode="&#xf4;" 
d="M400 300h400v100h100v500h-100v100h-400v-100h-100v-500h100v-100zM100 1000h100v100h100v100h600v-100h100v-100h100v-700h-100v-100h-100v-100h-600v100h-100v100h-100v700zM300 1400h100v100h100v100h200v-100h100v-100h100v-100h-200v100h-200v-100h-200v100z" />
    <glyph glyph-name="otilde" unicode="&#xf5;" 
d="M400 300h400v100h100v500h-100v100h-400v-100h-100v-500h100v-100zM100 1000h100v100h100v100h600v-100h100v-100h100v-700h-100v-100h-100v-100h-600v100h-100v100h-100v700zM300 1500h100v100h200v-100h200v100h100v-200h-100v-100h-200v100h-200v-100h-100v200z" />
    <glyph glyph-name="odieresis" unicode="&#xf6;" 
d="M400 300h400v100h100v500h-100v100h-400v-100h-100v-500h100v-100zM100 1000h100v100h100v100h600v-100h100v-100h100v-700h-100v-100h-100v-100h-600v100h-100v100h-100v700zM300 1600h200v-200h-200v200zM700 1600h200v-200h-200v200z" />
    <glyph glyph-name="oslash" unicode="&#xf8;" 
d="M800 1000h-400v-100h-100v-400h100v100h100v100h100v100h100v100h100v100zM100 300h100v100h-100v600h100v100h100v100h500v-100h100v100h200v-200h-100v-100h100v-600h-100v-100h-100v-100h-500v100h-100v-100h-200v200zM800 300v100h100v400h-100v-100h-100v-100h-100
v-100h-100v-100h-100v-100h400z" />
    <glyph glyph-name="ugrave" unicode="&#xf9;" 
d="M100 1200h200v-800h100v-100h400v100h100v800h200v-900h-100v-100h-100v-100h-600v100h-100v100h-100v900zM300 1600h300v-100h100v-100h100v-100h-200v100h-200v100h-100v100z" />
    <glyph glyph-name="uacute" unicode="&#xfa;" 
d="M100 1200h200v-800h100v-100h400v100h100v800h200v-900h-100v-100h-100v-100h-600v100h-100v100h-100v900zM400 1400h100v100h100v100h300v-100h-100v-100h-200v-100h-200v100z" />
    <glyph glyph-name="ucircumflex" unicode="&#xfb;" 
d="M700 1600v-100h100v-100h100v-100h-200v100h-200v-100h-200v100h100v100h100v100h200zM100 1200h200v-800h100v-100h400v100h100v800h200v-900h-100v-100h-100v-100h-600v100h-100v100h-100v900z" />
    <glyph glyph-name="udieresis" unicode="&#xfc;" 
d="M100 1200h200v-800h100v-100h400v100h100v800h200v-900h-100v-100h-100v-100h-600v100h-100v100h-100v900zM300 1600h200v-200h-200v200zM700 1600h200v-200h-200v200z" />
    <glyph glyph-name="yacute" unicode="&#xfd;" 
d="M400 1400h100v100h100v100h300v-100h-100v-100h-200v-100h-200v100zM300 -200v200h500v100h100v300h-100v-100h-100v-100h-400v100h-100v100h-100v800h200v-700h100v-100h200v100h100v100h100v200h100v400h200v-1200h-100v-100h-100v-100h-600z" />
    <glyph glyph-name="thorn" unicode="&#xfe;" 
d="M300 400v-300h-200v1300h200v-300h200v100h400v-100h100v-100h100v-500h-100v-100h-100v-100h-400v100h-200zM500 600v-100h300v100h100v300h-100v100h-300v-100h-200v-300h200z" />
    <glyph glyph-name="ydieresis" unicode="&#xff;" 
d="M300 1300v200h200v-200h-200zM700 1500h200v-200h-200v200zM300 -200v200h500v100h100v300h-100v-100h-100v-100h-400v100h-100v100h-100v800h200v-700h100v-100h200v100h100v100h100v200h100v400h200v-1200h-100v-100h-100v-100h-600z" />
    <glyph glyph-name="Abreve" unicode="&#x102;" 
d="M300 100h-200v1000h100v100h100v100h100v100h100v100h200v-100h100v-100h100v-100h100v-100h100v-1000h-200v400h-600v-400zM900 700v300h-100v100h-100v100h-200v-100h-100v-100h-100v-300h600zM400 1700v-100h400v100h100v100h-200v-100h-200v100h-200v-100h100z" />
    <glyph glyph-name="abreve" unicode="&#x103;" 
d="M400 300h400v100h100v100h-100v100h-400v-100h-100v-100h100v-100zM100 600h100v100h100v100h500v-100h100v200h-100v100h-500v200h600v-100h100v-100h100v-900h-200v100h-100v-100h-500v100h-100v100h-100v300zM500 1400h200v100h200v-100h-100v-100h-400v100h-100v100
h200v-100z" />
    <glyph glyph-name="Dcroat" unicode="&#x110;" horiz-adv-x="1300" 
d="M200 900v600h800v-100h100v-100h100v-1000h-100v-100h-100v-100h-800v600h-100v200h100zM900 300v100h100v800h-100v100h-500v-400h200v-200h-200v-400h500z" />
    <glyph glyph-name="dcroat" unicode="&#x111;" horiz-adv-x="1300" 
d="M900 1000v600h200v-1500h-200v200h-100v-100h-100v-100h-300v100h-100v100h-100v100h-100v500h100v100h100v100h100v100h300v-100h100v-100h100zM400 500v-100h100v-100h100v100h100v100h100v300h-100v100h-100v100h-100v-100h-100v-100h-100v-300h100zM1200 1300h-700
v200h700v-200z" />
    <glyph glyph-name="Itilde" unicode="&#x128;" horiz-adv-x="800" 
d="M100 100v200h200v1000h-200v200h600v-200h-200v-1000h200v-200h-600zM100 1800h100v100h200v-100h200v100h100v-200h-100v-100h-200v100h-200v-100h-100v200z" />
    <glyph glyph-name="itilde" unicode="&#x129;" horiz-adv-x="800" 
d="M600 300h100v-200h-200v100h-100v100h-100v700h-200v200h400v-800h100v-100zM100 1600h100v100h200v-100h200v100h100v-200h-100v-100h-200v100h-200v-100h-100v200z" />
    <glyph glyph-name="Utilde" unicode="&#x168;" 
d="M200 300h-100v1200h200v-1100h100v-100h400v100h100v1100h200v-1200h-100v-100h-100v-100h-600v100h-100v100zM300 1800h100v100h200v-100h200v100h100v-200h-100v-100h-200v100h-200v-100h-100v200z" />
    <glyph glyph-name="utilde" unicode="&#x169;" 
d="M100 1200h200v-800h100v-100h400v100h100v800h200v-900h-100v-100h-100v-100h-600v100h-100v100h-100v900zM300 1500h100v100h200v-100h200v100h100v-200h-100v-100h-200v100h-200v-100h-100v200z" />
    <glyph glyph-name="Ohorn" unicode="&#x1a0;" 
d="M800 1300h-400v-100h-100v-800h100v-100h400v100h100v800h-100v100zM100 1300h100v100h100v100h600v-100h100v-100h100v-1000h-100v-100h-100v-100h-600v100h-100v100h-100v1000zM1200 1700v-200h-100v-100h-200v100h100v200h200z" />
    <glyph glyph-name="ohorn" unicode="&#x1a1;" 
d="M400 300h400v100h100v500h-100v100h-400v-100h-100v-500h100v-100zM100 1000h100v100h100v100h600v-100h100v-100h100v-700h-100v-100h-100v-100h-600v100h-100v100h-100v700zM1200 1400v-200h-100v-100h-200v100h100v200h200z" />
    <glyph glyph-name="Uhorn" unicode="&#x1af;" 
d="M200 300h-100v1200h200v-1100h100v-100h400v100h100v1100h200v-1200h-100v-100h-100v-100h-600v100h-100v100zM1300 1700v-200h-100v-100h-200v100h100v200h200z" />
    <glyph glyph-name="uhorn" unicode="&#x1b0;" 
d="M100 1200h200v-800h100v-100h400v100h100v800h200v-900h-100v-100h-100v-100h-600v100h-100v100h-100v900zM1300 1400v-200h-100v-100h-200v100h100v200h200z" />
    <glyph glyph-name="uni1EA0" unicode="&#x1ea0;" 
d="M300 100h-200v1000h100v100h100v100h100v100h100v100h200v-100h100v-100h100v-100h100v-100h100v-1000h-200v400h-600v-400zM900 700v300h-100v100h-100v100h-200v-100h-100v-100h-100v-300h600zM700 -200v200h-200v-200h200z" />
    <glyph glyph-name="uni1EA1" unicode="&#x1ea1;" 
d="M400 300h400v100h100v100h-100v100h-400v-100h-100v-100h100v-100zM100 600h100v100h100v100h500v-100h100v200h-100v100h-500v200h600v-100h100v-100h100v-900h-200v100h-100v-100h-500v100h-100v100h-100v300zM700 -200h-200v200h200v-200z" />
    <glyph glyph-name="uni1EA2" unicode="&#x1ea2;" 
d="M300 100h-200v1000h100v100h100v100h100v100h100v100h200v-100h100v-100h100v-100h100v-100h100v-1000h-200v400h-600v-400zM900 700v300h-100v100h-100v100h-200v-100h-100v-100h-100v-300h600zM600 1800v-100h-100v-100h200v100h100v100h-100v100h-300v-100h200z" />
    <glyph glyph-name="uni1EA3" unicode="&#x1ea3;" 
d="M400 300h400v100h100v100h-100v100h-400v-100h-100v-100h100v-100zM100 600h100v100h100v100h500v-100h100v200h-100v100h-500v200h600v-100h100v-100h100v-900h-200v100h-100v-100h-500v100h-100v100h-100v300zM600 1500v-100h-100v-100h200v100h100v100h-100v100h-300
v-100h200z" />
    <glyph glyph-name="uni1EA4" unicode="&#x1ea4;" 
d="M700 1900v-100h100v-100h100v-100h-200v100h-200v-100h-200v100h100v100h100v100h200zM100 1100h100v100h100v100h100v100h100v100h200v-100h100v-100h100v-100h100v-100h100v-1000h-200v400h-600v-400h-200v1000zM900 700v300h-100v100h-100v100h-200v-100h-100v-100
h-100v-300h600zM1300 2100v-100h-100v-100h-200v-100h-200v100h100v100h100v100h300z" />
    <glyph glyph-name="uni1EA5" unicode="&#x1ea5;" 
d="M300 1400h100v100h100v100h200v-100h100v-100h100v-100h-200v100h-200v-100h-200v100zM400 300h400v100h100v100h-100v100h-400v-100h-100v-100h100v-100zM100 600h100v100h100v100h500v-100h100v200h-100v100h-500v200h600v-100h100v-100h100v-900h-200v100h-100v-100
h-500v100h-100v100h-100v300zM1300 1800v-100h-100v-100h-200v-100h-200v100h100v100h100v100h300z" />
    <glyph glyph-name="uni1EA6" unicode="&#x1ea6;" 
d="M700 1900v-100h100v-100h100v-100h-200v100h-200v-100h-200v100h100v100h100v100h200zM100 1100h100v100h100v100h100v100h100v100h200v-100h100v-100h100v-100h100v-100h100v-1000h-200v400h-600v-400h-200v1000zM900 700v300h-100v100h-100v100h-200v-100h-100v-100
h-100v-300h600zM200 2000h100v-100h100v-100h-200v100h-200v100h-100v100h300v-100z" />
    <glyph glyph-name="uni1EA7" unicode="&#x1ea7;" 
d="M300 1400h100v100h100v100h200v-100h100v-100h100v-100h-200v100h-200v-100h-200v100zM400 300h400v100h100v100h-100v100h-400v-100h-100v-100h100v-100zM100 600h100v100h100v100h500v-100h100v200h-100v100h-500v200h600v-100h100v-100h100v-900h-200v100h-100v-100
h-500v100h-100v100h-100v300zM200 1800v-100h100v-100h100v-100h-200v100h-200v100h-100v100h300z" />
    <glyph glyph-name="uni1EA8" unicode="&#x1ea8;" 
d="M700 1900v-100h100v-100h100v-100h-200v100h-200v-100h-200v100h100v100h100v100h200zM100 1100h100v100h100v100h100v100h100v100h200v-100h100v-100h100v-100h100v-100h100v-1000h-200v400h-600v-400h-200v1000zM900 700v300h-100v100h-100v100h-200v-100h-100v-100
h-100v-300h600zM900 2000v-100h-100v-100h200v100h100v100h-100v100h-300v-100h200z" />
    <glyph glyph-name="uni1EA9" unicode="&#x1ea9;" 
d="M300 1400h100v100h100v100h200v-100h100v-100h100v-100h-200v100h-200v-100h-200v100zM400 300h400v100h100v100h-100v100h-400v-100h-100v-100h100v-100zM100 600h100v100h100v100h500v-100h100v200h-100v100h-500v200h600v-100h100v-100h100v-900h-200v100h-100v-100
h-500v100h-100v100h-100v300zM900 1700v-100h-100v-100h200v100h100v100h-100v100h-300v-100h200z" />
    <glyph glyph-name="uni1EAA" unicode="&#x1eaa;" 
d="M700 1900v-100h100v-100h100v-100h-200v100h-200v-100h-200v100h100v100h100v100h200zM100 1100h100v100h100v100h100v100h100v100h200v-100h100v-100h100v-100h100v-100h100v-1000h-200v400h-600v-400h-200v1000zM900 700v300h-100v100h-100v100h-200v-100h-100v-100
h-100v-300h600zM800 2000v-100h-200v100h-200v-100h-100v200h100v100h200v-100h200v100h100v-200h-100z" />
    <glyph glyph-name="uni1EAB" unicode="&#x1eab;" 
d="M300 1400h100v100h100v100h200v-100h100v-100h100v-100h-200v100h-200v-100h-200v100zM400 300h400v100h100v100h-100v100h-400v-100h-100v-100h100v-100zM100 600h100v100h100v100h500v-100h100v200h-100v100h-500v200h600v-100h100v-100h100v-900h-200v100h-100v-100
h-500v100h-100v100h-100v300zM300 1800h100v100h200v-100h200v100h100v-200h-100v-100h-200v100h-200v-100h-100v200z" />
    <glyph glyph-name="uni1EAC" unicode="&#x1eac;" 
d="M700 1900v-100h100v-100h100v-100h-200v100h-200v-100h-200v100h100v100h100v100h200zM100 1100h100v100h100v100h100v100h100v100h200v-100h100v-100h100v-100h100v-100h100v-1000h-200v400h-600v-400h-200v1000zM900 700v300h-100v100h-100v100h-200v-100h-100v-100
h-100v-300h600zM700 -200v200h-200v-200h200z" />
    <glyph glyph-name="uni1EAD" unicode="&#x1ead;" 
d="M300 1400h100v100h100v100h200v-100h100v-100h100v-100h-200v100h-200v-100h-200v100zM400 300h400v100h100v100h-100v100h-400v-100h-100v-100h100v-100zM100 600h100v100h100v100h500v-100h100v200h-100v100h-500v200h600v-100h100v-100h100v-900h-200v100h-100v-100
h-500v100h-100v100h-100v300zM700 -200h-200v200h100h100v-200z" />
    <glyph glyph-name="uni1EAE" unicode="&#x1eae;" 
d="M300 100h-200v1000h100v100h100v100h100v100h100v100h200v-100h100v-100h100v-100h100v-100h100v-1000h-200v400h-600v-400zM900 700v300h-100v100h-100v100h-200v-100h-100v-100h-100v-300h600zM400 1700v-100h400v100h100v100h-200v-100h-200v100h-200v-100h100z
M1000 2100v-100h-100v-100h-200v-100h-200v100h100v100h100v100h300z" />
    <glyph glyph-name="uni1EAF" unicode="&#x1eaf;" 
d="M400 300h400v100h100v100h-100v100h-400v-100h-100v-100h100v-100zM100 600h100v100h100v100h500v-100h100v200h-100v100h-500v200h600v-100h100v-100h100v-900h-200v100h-100v-100h-500v100h-100v100h-100v300zM500 1400h200v100h200v-100h-100v-100h-400v100h-100v100
h200v-100zM1000 1800v-100h-100v-100h-200v-100h-200v100h100v100h100v100h300z" />
    <glyph glyph-name="uni1EB0" unicode="&#x1eb0;" 
d="M300 100h-200v1000h100v100h100v100h100v100h100v100h200v-100h100v-100h100v-100h100v-100h100v-1000h-200v400h-600v-400zM900 700v300h-100v100h-100v100h-200v-100h-100v-100h-100v-300h600zM400 1700v-100h400v100h100v100h-200v-100h-200v100h-200v-100h100z
M500 2000h100v-100h100v-100h-200v100h-200v100h-100v100h300v-100z" />
    <glyph glyph-name="uni1EB1" unicode="&#x1eb1;" 
d="M400 300h400v100h100v100h-100v100h-400v-100h-100v-100h100v-100zM100 600h100v100h100v100h500v-100h100v200h-100v100h-500v200h600v-100h100v-100h100v-900h-200v100h-100v-100h-500v100h-100v100h-100v300zM500 1400h200v100h200v-100h-100v-100h-400v100h-100v100
h200v-100zM500 1800v-100h100v-100h100v-100h-200v100h-200v100h-100v100h300z" />
    <glyph glyph-name="uni1EB2" unicode="&#x1eb2;" 
d="M400 1700v-100h400v100h100v100h-200v100h100v100h-100v100h-300v-100h200v-100h-100v-100h-200v-100h100zM500 1800h200v-100h-200v100zM300 700h600v300h-100v100h-100v100h-200v-100h-100v-100h-100v-300zM100 1100h100v100h100v100h100v100h100v100h200v-100h100
v-100h100v-100h100v-100h100v-1000h-200v400h-600v-400h-200v1000z" />
    <glyph glyph-name="uni1EB3" unicode="&#x1eb3;" 
d="M400 1400v-100h400v100h100v100h-200v-100h-200v100h-200v-100h100zM600 1700v-100h-100v-100h200v100h100v100h-100v100h-300v-100h200zM400 300h400v100h100v100h-100v100h-400v-100h-100v-100h100v-100zM100 600h100v100h100v100h500v-100h100v200h-100v100h-500v200
h600v-100h100v-100h100v-900h-200v100h-100v-100h-500v100h-100v100h-100v300z" />
    <glyph glyph-name="uni1EB4" unicode="&#x1eb4;" 
d="M300 100h-200v1000h100v100h100v100h100v100h100v100h200v-100h100v-100h100v-100h100v-100h100v-1000h-200v400h-600v-400zM900 700v300h-100v100h-100v100h-200v-100h-100v-100h-100v-300h600zM400 1700v-100h400v100h100v100h-200v-100h-200v100h-200v-100h100z
M800 2000v-100h-200v100h-200v-100h-100v200h100v100h200v-100h200v100h100v-200h-100z" />
    <glyph glyph-name="uni1EB5" unicode="&#x1eb5;" 
d="M400 300h400v100h100v100h-100v100h-400v-100h-100v-100h100v-100zM100 600h100v100h100v100h500v-100h100v200h-100v100h-500v200h600v-100h100v-100h100v-900h-200v100h-100v-100h-500v100h-100v100h-100v300zM500 1400h200v100h200v-100h-100v-100h-400v100h-100v100
h200v-100zM300 1800h100v100h200v-100h200v100h100v-200h-100v-100h-200v100h-200v-100h-100v200z" />
    <glyph glyph-name="uni1EB6" unicode="&#x1eb6;" 
d="M300 100h-200v1000h100v100h100v100h100v100h100v100h200v-100h100v-100h100v-100h100v-100h100v-1000h-200v400h-600v-400zM900 700v300h-100v100h-100v100h-200v-100h-100v-100h-100v-300h600zM400 1700v-100h400v100h100v100h-200v-100h-200v100h-200v-100h100zM700 0
v-200h-200v200h200z" />
    <glyph glyph-name="uni1EB7" unicode="&#x1eb7;" 
d="M400 300h400v100h100v100h-100v100h-400v-100h-100v-100h100v-100zM100 600h100v100h100v100h500v-100h100v200h-100v100h-500v200h600v-100h100v-100h100v-900h-200v100h-100v-100h-500v100h-100v100h-100v300zM500 1400h200v100h200v-100h-100v-100h-400v100h-100v100
h200v-100zM700 -200h-200v200h200v-200z" />
    <glyph glyph-name="uni1EB8" unicode="&#x1eb8;" 
d="M1100 1500v-200h-800v-400h600v-200h-600v-400h800v-200h-1000v1400h1000zM700 -200v200h-200v-200h200z" />
    <glyph glyph-name="uni1EB9" unicode="&#x1eb9;" 
d="M1100 400v-100h-100v-100h-100v-100h-600v100h-100v100h-100v700h100v100h100v100h600v-100h100v-100h100v-300h-100v-100h-700v-200h100v-100h400v100h300zM900 800v100h-100v100h-400v-100h-100v-100h600zM700 -200v200h-200v-200h200z" />
    <glyph glyph-name="uni1EBA" unicode="&#x1eba;" 
d="M1100 1500v-200h-800v-400h600v-200h-600v-400h800v-200h-1000v1400h1000zM600 1800v-100h-100v-100h200v100h100v100h-100v100h-300v-100h200z" />
    <glyph glyph-name="uni1EBB" unicode="&#x1ebb;" 
d="M1100 400v-100h-100v-100h-100v-100h-600v100h-100v100h-100v700h100v100h100v100h600v-100h100v-100h100v-300h-100v-100h-700v-200h100v-100h400v100h300zM900 800v100h-100v100h-400v-100h-100v-100h600zM600 1500v-100h-100v-100h200v100h100v100h-100v100h-300v-100
h200z" />
    <glyph glyph-name="uni1EBC" unicode="&#x1ebc;" 
d="M1100 1500v-200h-800v-400h600v-200h-600v-400h800v-200h-1000v1400h1000zM300 1800h100v100h200v-100h200v100h100v-200h-100v-100h-200v100h-200v-100h-100v200z" />
    <glyph glyph-name="uni1EBD" unicode="&#x1ebd;" 
d="M1100 400v-100h-100v-100h-100v-100h-600v100h-100v100h-100v700h100v100h100v100h600v-100h100v-100h100v-300h-100v-100h-700v-200h100v-100h400v100h300zM900 800v100h-100v100h-400v-100h-100v-100h600zM300 1500h100v100h200v-100h200v100h100v-200h-100v-100h-200
v100h-200v-100h-100v200z" />
    <glyph glyph-name="uni1EBE" unicode="&#x1ebe;" 
d="M1100 1500v-200h-800v-400h600v-200h-600v-400h800v-200h-1000v1400h1000zM300 1700h100v100h100v100h200v-100h100v-100h100v-100h-200v100h-200v-100h-200v100zM1300 2100v-100h-100v-100h-200v-100h-200v100h100v100h100v100h300z" />
    <glyph glyph-name="uni1EBF" unicode="&#x1ebf;" 
d="M1100 400v-100h-100v-100h-100v-100h-600v100h-100v100h-100v700h100v100h100v100h600v-100h100v-100h100v-300h-100v-100h-700v-200h100v-100h400v100h300zM900 800v100h-100v100h-400v-100h-100v-100h600zM300 1400h100v100h100v100h200v-100h100v-100h100v-100h-200
v100h-200v-100h-200v100zM1300 1800v-100h-100v-100h-200v-100h-200v100h100v100h100v100h300z" />
    <glyph glyph-name="uni1EC0" unicode="&#x1ec0;" 
d="M1100 1500v-200h-800v-400h600v-200h-600v-400h800v-200h-1000v1400h1000zM300 1700h100v100h100v100h200v-100h100v-100h100v-100h-200v100h-200v-100h-200v100zM200 2100v-100h100v-100h100v-100h-200v100h-200v100h-100v100h300z" />
    <glyph glyph-name="uni1EC1" unicode="&#x1ec1;" 
d="M1100 400v-100h-100v-100h-100v-100h-600v100h-100v100h-100v700h100v100h100v100h600v-100h100v-100h100v-300h-100v-100h-700v-200h100v-100h400v100h300zM900 800v100h-100v100h-400v-100h-100v-100h600zM300 1400h100v100h100v100h200v-100h100v-100h100v-100h-200
v100h-200v-100h-200v100zM200 1800v-100h100v-100h100v-100h-200v100h-200v100h-100v100h300z" />
    <glyph glyph-name="uni1EC2" unicode="&#x1ec2;" 
d="M1100 1500v-200h-800v-400h600v-200h-600v-400h800v-200h-1000v1400h1000zM300 1700h100v100h100v100h200v-100h100v-100h100v-100h-200v100h-200v-100h-200v100zM900 2000v-100h-100v-100h200v100h100v100h-100v100h-300v-100h200z" />
    <glyph glyph-name="uni1EC3" unicode="&#x1ec3;" 
d="M700 1700v100h300v-100h100v-100h-100v-100h-200v100h100v100h-200zM300 1400h100v100h100v100h200v-100h100v-100h100v-100h-200v100h-200v-100h-200v100zM1100 400v-100h-100v-100h-100v-100h-600v100h-100v100h-100v700h100v100h100v100h600v-100h100v-100h100v-300
h-100v-100h-700v-200h100v-100h400v100h300zM900 800v100h-100v100h-400v-100h-100v-100h600z" />
    <glyph glyph-name="uni1EC4" unicode="&#x1ec4;" 
d="M1100 1500v-200h-800v-400h600v-200h-600v-400h800v-200h-1000v1400h1000zM300 1700h100v100h100v100h200v-100h100v-100h100v-100h-200v100h-200v-100h-200v100zM800 2000v-100h-200v100h-200v-100h-100v200h100v100h200v-100h200v100h100v-200h-100z" />
    <glyph glyph-name="uni1EC5" unicode="&#x1ec5;" 
d="M1100 400v-100h-100v-100h-100v-100h-600v100h-100v100h-100v700h100v100h100v100h600v-100h100v-100h100v-300h-100v-100h-700v-200h100v-100h400v100h300zM900 800v100h-100v100h-400v-100h-100v-100h600zM300 1400h100v100h100v100h200v-100h100v-100h100v-100h-200
v100h-200v-100h-200v100zM300 1800h100v100h200v-100h200v100h100v-200h-100v-100h-200v100h-200v-100h-100v200z" />
    <glyph glyph-name="uni1EC6" unicode="&#x1ec6;" 
d="M1100 1500v-200h-800v-400h600v-200h-600v-400h800v-200h-1000v1400h1000zM300 1700h100v100h100v100h200v-100h100v-100h100v-100h-200v100h-200v-100h-200v100zM700 0v-200h-200v200h200z" />
    <glyph glyph-name="uni1EC7" unicode="&#x1ec7;" 
d="M1100 400v-100h-100v-100h-100v-100h-600v100h-100v100h-100v700h100v100h100v100h600v-100h100v-100h100v-300h-100v-100h-700v-200h100v-100h400v100h300zM900 800v100h-100v100h-400v-100h-100v-100h600zM300 1400h100v100h100v100h200v-100h100v-100h100v-100h-200
v100h-200v-100h-200v100zM700 -200h-200v200h200v-200z" />
    <glyph glyph-name="uni1EC8" unicode="&#x1ec8;" horiz-adv-x="800" 
d="M100 100v200h200v1000h-200v200h600v-200h-200v-1000h200v-200h-600zM400 1800v-100h-100v-100h200v100h100v100h-100v100h-300v-100h200z" />
    <glyph glyph-name="uni1EC9" unicode="&#x1ec9;" horiz-adv-x="800" 
d="M100 1200h400v-800h100v-100h100v-200h-200v100h-100v100h-100v700h-200v200zM400 1500h-200v100h300v-100h100v-100h-100v-100h-200v100h100v100z" />
    <glyph glyph-name="uni1ECA" unicode="&#x1eca;" horiz-adv-x="800" 
d="M100 100v200h200v1000h-200v200h600v-200h-200v-1000h200v-200h-600zM500 -200v200h-200v-200h200z" />
    <glyph glyph-name="uni1ECB" unicode="&#x1ecb;" horiz-adv-x="800" 
d="M500 1600v-200h-200v200h200zM100 1200h400v-800h100v-100h100v-200h-200v100h-100v100h-100v700h-200v200zM500 -200h-200v200h200v-200z" />
    <glyph glyph-name="uni1ECC" unicode="&#x1ecc;" 
d="M400 300h400v100h100v800h-100v100h-400v-100h-100v-800h100v-100zM100 1300h100v100h100v100h600v-100h100v-100h100v-1000h-100v-100h-100v-100h-600v100h-100v100h-100v1000zM700 -200v200h-200v-200h200z" />
    <glyph glyph-name="uni1ECD" unicode="&#x1ecd;" 
d="M400 300h400v100h100v500h-100v100h-400v-100h-100v-500h100v-100zM100 1000h100v100h100v100h600v-100h100v-100h100v-700h-100v-100h-100v-100h-600v100h-100v100h-100v700zM700 -200v200h-200v-200h200z" />
    <glyph glyph-name="uni1ECE" unicode="&#x1ece;" 
d="M400 300h400v100h100v800h-100v100h-400v-100h-100v-800h100v-100zM100 1300h100v100h100v100h600v-100h100v-100h100v-1000h-100v-100h-100v-100h-600v100h-100v100h-100v1000zM600 1800v-100h-100v-100h200v100h100v100h-100v100h-300v-100h200z" />
    <glyph glyph-name="uni1ECF" unicode="&#x1ecf;" 
d="M400 300h400v100h100v500h-100v100h-400v-100h-100v-500h100v-100zM100 1000h100v100h100v100h600v-100h100v-100h100v-700h-100v-100h-100v-100h-600v100h-100v100h-100v700zM600 1500v-100h-100v-100h200v100h100v100h-100v100h-300v-100h200z" />
    <glyph glyph-name="uni1ED0" unicode="&#x1ed0;" 
d="M400 300h400v100h100v800h-100v100h-400v-100h-100v-800h100v-100zM100 1300h100v100h100v100h600v-100h100v-100h100v-1000h-100v-100h-100v-100h-600v100h-100v100h-100v1000zM300 1700h100v100h100v100h200v-100h100v-100h100v-100h-200v100h-200v-100h-200v100z
M1300 2100v-100h-100v-100h-200v-100h-200v100h100v100h100v100h300z" />
    <glyph glyph-name="uni1ED1" unicode="&#x1ed1;" 
d="M400 300h400v100h100v500h-100v100h-400v-100h-100v-500h100v-100zM100 1000h100v100h100v100h600v-100h100v-100h100v-700h-100v-100h-100v-100h-600v100h-100v100h-100v700zM300 1400h100v100h100v100h200v-100h100v-100h100v-100h-200v100h-200v-100h-200v100z
M1300 1800v-100h-100v-100h-200v-100h-200v100h100v100h100v100h300z" />
    <glyph glyph-name="uni1ED2" unicode="&#x1ed2;" 
d="M400 300h400v100h100v800h-100v100h-400v-100h-100v-800h100v-100zM100 1300h100v100h100v100h600v-100h100v-100h100v-1000h-100v-100h-100v-100h-600v100h-100v100h-100v1000zM300 1700h100v100h100v100h200v-100h100v-100h100v-100h-200v100h-200v-100h-200v100z
M200 2100v-100h100v-100h100v-100h-200v100h-200v100h-100v100h300z" />
    <glyph glyph-name="uni1ED3" unicode="&#x1ed3;" 
d="M400 300h400v100h100v500h-100v100h-400v-100h-100v-500h100v-100zM100 1000h100v100h100v100h600v-100h100v-100h100v-700h-100v-100h-100v-100h-600v100h-100v100h-100v700zM300 1400h100v100h100v100h200v-100h100v-100h100v-100h-200v100h-200v-100h-200v100z
M200 1800v-100h100v-100h100v-100h-200v100h-200v100h-100v100h300z" />
    <glyph glyph-name="uni1ED4" unicode="&#x1ed4;" 
d="M400 300h400v100h100v800h-100v100h-400v-100h-100v-800h100v-100zM100 1300h100v100h100v100h600v-100h100v-100h100v-1000h-100v-100h-100v-100h-600v100h-100v100h-100v1000zM300 1700h100v100h100v100h200v-100h100v-100h100v-100h-200v100h-200v-100h-200v100z
M900 2000v-100h-100v-100h200v100h100v100h-100v100h-300v-100h200z" />
    <glyph glyph-name="uni1ED5" unicode="&#x1ed5;" 
d="M700 1700v100h300v-100h100v-100h-100v-100h-200v100h100v100h-200zM300 1400h100v100h100v100h200v-100h100v-100h100v-100h-200v100h-200v-100h-200v100zM100 1000h100v100h100v100h600v-100h100v-100h100v-700h-100v-100h-100v-100h-600v100h-100v100h-100v700z
M400 300h400v100h100v500h-100v100h-400v-100h-100v-500h100v-100z" />
    <glyph glyph-name="uni1ED6" unicode="&#x1ed6;" 
d="M300 1700h100v100h100v100h200v-100h100v-100h100v-100h-200v100h-200v-100h-200v100zM800 2000v-100h-200v100h-200v-100h-100v200h100v100h200v-100h200v100h100v-200h-100zM800 1300h-400v-100h-100v-800h100v-100h400v100h100v800h-100v100zM100 1300h100v100h100
v100h600v-100h100v-100h100v-1000h-100v-100h-100v-100h-600v100h-100v100h-100v1000z" />
    <glyph glyph-name="uni1ED7" unicode="&#x1ed7;" 
d="M400 300h400v100h100v500h-100v100h-400v-100h-100v-500h100v-100zM100 1000h100v100h100v100h600v-100h100v-100h100v-700h-100v-100h-100v-100h-600v100h-100v100h-100v700zM300 1400h100v100h100v100h200v-100h100v-100h100v-100h-200v100h-200v-100h-200v100z
M800 1700v-100h-200v100h-200v-100h-100v200h100v100h200v-100h200v100h100v-200h-100z" />
    <glyph glyph-name="uni1ED8" unicode="&#x1ed8;" 
d="M400 300h400v100h100v800h-100v100h-400v-100h-100v-800h100v-100zM100 1300h100v100h100v100h600v-100h100v-100h100v-1000h-100v-100h-100v-100h-600v100h-100v100h-100v1000zM300 1700h100v100h100v100h200v-100h100v-100h100v-100h-200v100h-200v-100h-200v100z
M700 0v-200h-200v200h200z" />
    <glyph glyph-name="uni1ED9" unicode="&#x1ed9;" 
d="M400 300h400v100h100v500h-100v100h-400v-100h-100v-500h100v-100zM100 1000h100v100h100v100h600v-100h100v-100h100v-700h-100v-100h-100v-100h-600v100h-100v100h-100v700zM300 1400h100v100h100v100h200v-100h100v-100h100v-100h-200v100h-200v-100h-200v100z
M700 -200h-200v200h200v-200z" />
    <glyph glyph-name="uni1EDA" unicode="&#x1eda;" 
d="M800 1300h-400v-100h-100v-800h100v-100h400v100h100v800h-100v100zM100 1300h100v100h100v100h600v-100h100v-100h100v-1000h-100v-100h-100v-100h-600v100h-100v100h-100v1000zM1200 1700v-200h-100v-100h-200v100h100v200h200zM900 1900v-100h-100v-100h-200v-100
h-200v100h100v100h100v100h300z" />
    <glyph glyph-name="uni1EDB" unicode="&#x1edb;" 
d="M400 300h400v100h100v500h-100v100h-400v-100h-100v-500h100v-100zM100 1000h100v100h100v100h600v-100h100v-100h100v-700h-100v-100h-100v-100h-600v100h-100v100h-100v700zM1200 1400v-200h-100v-100h-200v100h100v200h200zM900 1600v-100h-100v-100h-200v-100h-200
v100h100v100h100v100h300z" />
    <glyph glyph-name="uni1EDC" unicode="&#x1edc;" 
d="M800 1300h-400v-100h-100v-800h100v-100h400v100h100v800h-100v100zM100 1300h100v100h100v100h600v-100h100v-100h100v-1000h-100v-100h-100v-100h-600v100h-100v100h-100v1000zM1200 1700v-200h-100v-100h-200v100h100v200h200zM600 1900v-100h100v-100h100v-100h-200
v100h-200v100h-100v100h300z" />
    <glyph glyph-name="uni1EDD" unicode="&#x1edd;" 
d="M400 300h400v100h100v500h-100v100h-400v-100h-100v-500h100v-100zM100 1000h100v100h100v100h600v-100h100v-100h100v-700h-100v-100h-100v-100h-600v100h-100v100h-100v700zM1200 1400v-200h-100v-100h-200v100h100v200h200zM600 1600v-100h100v-100h100v-100h-200v100
h-200v100h-100v100h300z" />
    <glyph glyph-name="uni1EDE" unicode="&#x1ede;" 
d="M800 1300h-400v-100h-100v-800h100v-100h400v100h100v800h-100v100zM100 1300h100v100h100v100h600v-100h100v-100h100v-1000h-100v-100h-100v-100h-600v100h-100v100h-100v1000zM1200 1700v-200h-100v-100h-200v100h100v200h200zM600 1800v-100h-100v-100h200v100h100
v100h-100v100h-300v-100h200z" />
    <glyph glyph-name="uni1EDF" unicode="&#x1edf;" 
d="M400 300h400v100h100v500h-100v100h-400v-100h-100v-500h100v-100zM100 1000h100v100h100v100h600v-100h100v-100h100v-700h-100v-100h-100v-100h-600v100h-100v100h-100v700zM1200 1400v-200h-100v-100h-200v100h100v200h200zM600 1500v-100h-100v-100h200v100h100v100
h-100v100h-300v-100h200z" />
    <glyph glyph-name="uni1EE0" unicode="&#x1ee0;" 
d="M300 1800h100v100h200v-100h200v100h100v-200h-100v-100h-200v100h-200v-100h-100v200zM800 1300h-400v-100h-100v-800h100v-100h400v100h100v800h-100v100zM100 1300h100v100h100v100h600v-100h100v-100h100v-1000h-100v-100h-100v-100h-600v100h-100v100h-100v1000z
M1200 1700v-200h-100v-100h-200v100h100v200h200z" />
    <glyph glyph-name="uni1EE1" unicode="&#x1ee1;" 
d="M400 300h400v100h100v500h-100v100h-400v-100h-100v-500h100v-100zM100 1000h100v100h100v100h600v-100h100v-100h100v-700h-100v-100h-100v-100h-600v100h-100v100h-100v700zM1200 1400v-200h-100v-100h-200v100h100v200h200zM800 1400v-100h-200v100h-200v-100h-100
v200h100v100h200v-100h200v100h100v-200h-100z" />
    <glyph glyph-name="uni1EE2" unicode="&#x1ee2;" 
d="M800 1300h-400v-100h-100v-800h100v-100h400v100h100v800h-100v100zM100 1300h100v100h100v100h600v-100h100v-100h100v-1000h-100v-100h-100v-100h-600v100h-100v100h-100v1000zM1200 1700v-200h-100v-100h-200v100h100v200h200zM700 -300h-200v200h200v-200z" />
    <glyph glyph-name="uni1EE3" unicode="&#x1ee3;" 
d="M400 300h400v100h100v500h-100v100h-400v-100h-100v-500h100v-100zM100 1000h100v100h100v100h600v-100h100v-100h100v-700h-100v-100h-100v-100h-600v100h-100v100h-100v700zM1200 1400v-200h-100v-100h-200v100h100v200h200zM700 -200h-200v200h200v-200z" />
    <glyph glyph-name="uni1EE4" unicode="&#x1ee4;" 
d="M200 300h-100v1200h200v-1100h100v-100h400v100h100v1100h200v-1200h-100v-100h-100v-100h-600v100h-100v100zM700 -200v200h-200v-200h200z" />
    <glyph glyph-name="uni1EE5" unicode="&#x1ee5;" 
d="M100 1200h200v-800h100v-100h400v100h100v800h200v-900h-100v-100h-100v-100h-600v100h-100v100h-100v900zM700 -200v200h-200v-200h200z" />
    <glyph glyph-name="uni1EE6" unicode="&#x1ee6;" 
d="M200 300h-100v1200h200v-1100h100v-100h400v100h100v1100h200v-1200h-100v-100h-100v-100h-600v100h-100v100zM600 1800v-100h-100v-100h200v100h100v100h-100v100h-300v-100h200z" />
    <glyph glyph-name="uni1EE7" unicode="&#x1ee7;" 
d="M100 1200h200v-800h100v-100h400v100h100v800h200v-900h-100v-100h-100v-100h-600v100h-100v100h-100v900zM600 1500v-100h-100v-100h200v100h100v100h-100v100h-300v-100h200z" />
    <glyph glyph-name="uni1EE8" unicode="&#x1ee8;" 
d="M1300 1700v-200h-100v-100h-200v100h100v200h200zM900 1900v-100h-100v-100h-200v-100h-200v100h100v100h100v100h300zM100 1500h200v-1100h100v-100h400v100h100v1100h200v-1200h-100v-100h-100v-100h-600v100h-100v100h-100v1200z" />
    <glyph glyph-name="uni1EE9" unicode="&#x1ee9;" 
d="M100 1200h200v-800h100v-100h400v100h100v800h200v-900h-100v-100h-100v-100h-600v100h-100v100h-100v900zM1300 1400v-200h-100v-100h-200v100h100v200h200zM400 1400h100v100h100v100h300v-100h-100v-100h-200v-100h-200v100z" />
    <glyph glyph-name="uni1EEA" unicode="&#x1eea;" 
d="M300 1900h300v-100h100v-100h100v-100h-200v100h-200v100h-100v100zM200 300h-100v1200h200v-1100h100v-100h400v100h100v1100h200v-1200h-100v-100h-100v-100h-600v100h-100v100zM1300 1700v-200h-100v-100h-200v100h100v200h200z" />
    <glyph glyph-name="uni1EEB" unicode="&#x1eeb;" 
d="M100 1200h200v-800h100v-100h400v100h100v800h200v-900h-100v-100h-100v-100h-600v100h-100v100h-100v900zM1300 1400v-200h-100v-100h-200v100h100v200h200zM600 1600v-100h100v-100h100v-100h-200v100h-200v100h-100v100h300z" />
    <glyph glyph-name="uni1EEC" unicode="&#x1eec;" 
d="M600 1800h-200v100h300v-100h100v-100h-100v-100h-200v100h100v100zM200 300h-100v1200h200v-1100h100v-100h400v100h100v1100h200v-1200h-100v-100h-100v-100h-600v100h-100v100zM1300 1700v-200h-100v-100h-200v100h100v200h200z" />
    <glyph glyph-name="uni1EED" unicode="&#x1eed;" 
d="M100 1200h200v-800h100v-100h400v100h100v800h200v-900h-100v-100h-100v-100h-600v100h-100v100h-100v900zM1300 1400v-200h-100v-100h-200v100h100v200h200zM600 1500v-100h-100v-100h200v100h100v100h-100v100h-300v-100h200z" />
    <glyph glyph-name="uni1EEE" unicode="&#x1eee;" 
d="M300 1800h100v100h200v-100h200v100h100v-200h-100v-100h-200v100h-200v-100h-100v200zM200 300h-100v1200h200v-1100h100v-100h400v100h100v1100h200v-1200h-100v-100h-100v-100h-600v100h-100v100zM1300 1700v-200h-100v-100h-200v100h100v200h200z" />
    <glyph glyph-name="uni1EEF" unicode="&#x1eef;" 
d="M100 1200h200v-800h100v-100h400v100h100v800h200v-900h-100v-100h-100v-100h-600v100h-100v100h-100v900zM1300 1400v-200h-100v-100h-200v100h100v200h200zM300 1500h100v100h200v-100h200v100h100v-200h-100v-100h-200v100h-200v-100h-100v200z" />
    <glyph glyph-name="uni1EF0" unicode="&#x1ef0;" 
d="M200 300h-100v1200h200v-1100h100v-100h400v100h100v1100h200v-1200h-100v-100h-100v-100h-600v100h-100v100zM1300 1700v-200h-100v-100h-200v100h100v200h200zM700 -200h-200v200h200v-200z" />
    <glyph glyph-name="uni1EF1" unicode="&#x1ef1;" 
d="M100 1200h200v-800h100v-100h400v100h100v800h200v-900h-100v-100h-100v-100h-600v100h-100v100h-100v900zM1300 1400v-200h-100v-100h-200v100h100v200h200zM500 0h200v-200h-200v200z" />
    <glyph glyph-name="Ygrave" unicode="&#x1ef2;" 
d="M500 1900v-100h100v-100h100v-100h-200v100h-200v100h-100v100h300zM100 1500h200v-500h100v-100h100v-100h200v100h100v100h100v500h200v-600h-100v-100h-100v-100h-100v-100h-100v-500h-200v500h-100v100h-100v100h-100v100h-100v600z" />
    <glyph glyph-name="ygrave" unicode="&#x1ef3;" 
d="M600 1600v-100h100v-100h100v-100h-200v100h-200v100h-100v100h300zM300 -200v200h500v100h100v300h-100v-100h-100v-100h-400v100h-100v100h-100v800h200v-700h100v-100h200v100h100v100h100v200h100v400h200v-1200h-100v-100h-100v-100h-600z" />
    <glyph glyph-name="uni1EF4" unicode="&#x1ef4;" 
d="M700 100h-200v500h-100v100h-100v100h-100v100h-100v600h200v-500h100v-100h100v-100h200v100h100v100h100v500h200v-600h-100v-100h-100v-100h-100v-100h-100v-500zM700 -200h-200v200h200v-200z" />
    <glyph glyph-name="uni1EF5" unicode="&#x1ef5;" 
d="M300 -200v200h500v100h100v300h-100v-100h-100v-100h-400v100h-100v100h-100v800h200v-700h100v-100h200v100h100v100h100v200h100v400h200v-1200h-100v-100h-100v-100h-600zM1300 0v-200h-200v200h200z" />
    <glyph glyph-name="uni1EF6" unicode="&#x1ef6;" 
d="M100 1500h200v-500h100v-100h100v-100h200v100h100v100h100v500h200v-600h-100v-100h-100v-100h-100v-100h-100v-500h-200v500h-100v100h-100v100h-100v100h-100v600zM600 1800v-100h-100v-100h200v100h100v100h-100v100h-300v-100h200z" />
    <glyph glyph-name="uni1EF7" unicode="&#x1ef7;" 
d="M600 1500v-100h-100v-100h200v100h100v100h-100v100h-300v-100h200zM300 -200v200h500v100h100v300h-100v-100h-100v-100h-400v100h-100v100h-100v800h200v-700h100v-100h200v100h100v100h100v200h100v400h200v-1200h-100v-100h-100v-100h-600z" />
    <glyph glyph-name="uni1EF8" unicode="&#x1ef8;" 
d="M100 1500h200v-500h100v-100h100v-100h200v100h100v100h100v500h200v-600h-100v-100h-100v-100h-100v-100h-100v-500h-200v500h-100v100h-100v100h-100v100h-100v600zM300 1800h100v100h200v-100h200v100h100v-200h-100v-100h-200v100h-200v-100h-100v200z" />
    <glyph glyph-name="uni1EF9" unicode="&#x1ef9;" 
d="M300 1500h100v100h200v-100h200v100h100v-200h-100v-100h-200v100h-200v-100h-100v200zM300 -200v200h500v100h100v300h-100v-100h-100v-100h-400v100h-100v100h-100v800h200v-700h100v-100h200v100h100v100h100v200h100v400h200v-1200h-100v-100h-100v-100h-600z" />
    <glyph glyph-name="quoteleft" unicode="&#x2018;" horiz-adv-x="500" 
d="M400 1500v-100h-100v100h100zM100 1300h100v100h100v-200h100v-300h-300v400z" />
    <glyph glyph-name="quoteright" unicode="&#x2019;" horiz-adv-x="500" 
d="M100 900v100h100v-100h-100zM100 1500h300v-400h-100v-100h-100v200h-100v300z" />
    <glyph glyph-name="quotedblleft" unicode="&#x201c;" horiz-adv-x="1000" 
d="M400 1500v-100h-100v100h100zM100 1300h100v100h100v-200h100v-300h-300v400zM600 1300h100v100h100v-200h100v-300h-300v400zM800 1500h100v-100h-100v100z" />
    <glyph glyph-name="quotedblright" unicode="&#x201d;" horiz-adv-x="1000" 
d="M600 900v100h100v-100h-100zM100 1000h100v-100h-100v100zM100 1500h300v-400h-100v-100h-100v200h-100v300zM600 1500h300v-400h-100v-100h-100v200h-100v300z" />
    <glyph glyph-name="bullet" unicode="&#x2022;" horiz-adv-x="800" 
d="M200 1000v100h400v-100h100v-300h-100v-100h-400v100h-100v300h100z" />
    <glyph glyph-name="ellipsis" unicode="&#x2026;" 
d="M300 300v-200h-200v200h200zM500 300h200v-200h-200v200zM900 300h200v-200h-200v200z" />
    <glyph glyph-name="guilsinglleft" unicode="&#x2039;" horiz-adv-x="800" 
d="M200 500h-100v100h100v100h100v100h100v100h100v100h200v-200h-100v-100h-100v-100h-100v-100h100v-100h100v-100h100v-200h-200v100h-100v100h-100v100h-100v100z" />
    <glyph glyph-name="guilsinglright" unicode="&#x203a;" horiz-adv-x="800" 
d="M600 500h100v100h-100v100h-100v100h-100v100h-100v100h-200v-200h100v-100h100v-100h100v-100h-100v-100h-100v-100h-100v-200h200v100h100v100h100v100h100v100z" />
    <glyph glyph-name="fraction" unicode="&#x2044;" 
d="M900 1500h200v-400h-100v-100h-100v-100h-100v-100h-100v-100h-100v-100h-100v-100h-100v-100h-100v-300h-200v400h100v100h100v100h100v100h100v100h100v100h100v100h100v100h100v300z" />
    <glyph glyph-name="fraction" unicode="&#x2215;" 
d="M900 1500h200v-400h-100v-100h-100v-100h-100v-100h-100v-100h-100v-100h-100v-100h-100v-100h-100v-300h-200v400h100v100h100v100h100v100h100v100h100v100h100v100h100v100h100v300z" />
    <glyph glyph-name="franc" unicode="&#x20a3;" 
d="M200 500v1000h900v-200h-700v-400h500v-200h-500v-200h200v-100h-200v-300h-200v300h-100v100h100z" />
    <glyph glyph-name="lira" unicode="&#x20a4;" 
d="M400 300h700v-200h-1000v200h100v100h100v300h-200v100h200v100h-200v100h200v300h100v100h100v100h400v-100h100v-100h100v-200h-200v100h-100v100h-200v-100h-100v-200h400v-100h-400v-100h400v-100h-400v-300h-100v-100z" />
    <glyph glyph-name="peseta" unicode="&#x20a7;" horiz-adv-x="2700" 
d="M300 1300v-400h500v100h100v200h-100v100h-500zM100 1500h800v-100h100v-100h100v-400h-100v-100h-100v-100h-600v-600h-200v1400zM1500 300h100v-200h-200v100h-100v100h-100v700h-200v200h200v400h200v-400h200v-200h-200v-600h100v-100zM1600 300h-100v200h200v-100
h100v-100h400v200h-200v100h-200v100h-200v100h-100v200h100v100h100v100h600v-100h100v-100h100v-200h-200v100h-100v100h-400v-200h300v-100h200v-100h100v-100h100v-200h-100v-100h-100v-100h-600v100h-100v100z" />
    <glyph glyph-name="Euro" unicode="&#x20ac;" 
d="M1000 1300h100v-100h-200v100h-300v-100h-100v-100h-100v-100h300v-100h-300v-100h300v-100h-300v-200h100v-100h100v-100h300v100h200v-100h-100v-100h-100v-100h-400v100h-100v100h-100v100h-100v300h-100v100h100v100h-100v100h100v200h100v100h100v100h100v100h400
v-100h100v-100z" />
    <glyph glyph-name="trademark" unicode="&#x2122;" 
d="M700 1300v-400h-100v500h-200v-500h-100v500h-200v100h600v-100h100v-100h-100zM800 1300h100v-100h-100v100zM900 1400h100v100h100v-600h-100v400h-100v100z" />
    <glyph glyph-name="arrowleft" unicode="&#x2190;" 
d="M500 1200v100h200v-100h-100v-100h-100v-100h-100v-100h700v-200h-700v-100h100v-100h100v-100h100v-100h-200v100h-100v100h-100v100h-100v100h-100v200h100v100h100v100h100v100h100z" />
    <glyph glyph-name="arrowup" unicode="&#x2191;" 
d="M300 500v-200h-200v200h100v200h100v200h100v200h100v200h200v-200h100v-200h100v-200h100v-200h100v-200h-200v200h-100v200h-100v200h-200v-200h-100v-200h-100z" />
    <glyph glyph-name="arrowright" unicode="&#x2192;" 
d="M800 1200v-100h100v-100h100v-100h100v-200h-100v-100h-100v-100h-100v-100h-100v-100h-200v100h100v100h100v100h100v100h-700v200h700v100h-100v100h-100v100h-100v100h200v-100h100z" />
    <glyph glyph-name="arrowdown" unicode="&#x2193;" 
d="M900 1100v200h200v-200h-100v-200h-100v-200h-100v-200h-100v-200h-200v200h-100v200h-100v200h-100v200h-100v200h200v-200h100v-200h100v-200h200v200h100v200h100z" />
    <glyph glyph-name="arrowboth" unicode="&#x2194;" 
d="M100 900h500v300h100v-100h100v-100h100v-100h100v-100h100v-200h-100v-100h-100v-100h-100v-100h-100v-100h-100v300h-500v400z" />
    <glyph glyph-name="triagup" unicode="&#x25b2;" 
d="M1100 200h-1000v400h100v200h100v200h100v200h100v200h200v-200h100v-200h100v-200h100v-200h100v-400z" />
    <glyph glyph-name="triagrt" unicode="&#x25ba;" 
d="M200 200v1200h300v-100h100v-100h100v-100h100v-100h100v-100h100v-200h-100v-100h-100v-100h-100v-100h-100v-100h-100v-100h-300z" />
    <glyph glyph-name="triagdn" unicode="&#x25bc;" 
d="M1100 1000h-100v-200h-100v-200h-100v-200h-100v-200h-200v200h-100v200h-100v200h-100v200h-100v400h1000v-400z" />
    <glyph glyph-name="triaglf" unicode="&#x25c4;" 
d="M700 200v100h-100v100h-100v100h-100v100h-100v100h-100v200h100v100h100v100h100v100h100v100h100v100h300v-1200h-300z" />
    <glyph glyph-name="pixel" horiz-adv-x="600" 
d="M0 0v100h100v-100h-100z" />
    <glyph glyph-name="horn.1" horiz-adv-x="683" 
d="M900 900v400h200v-300h-100v-100h-100z" />
    <glyph glyph-name="horn.2" horiz-adv-x="683" 
d="M900 1000v100h100v200h100v-200h-100v-100h-100z" />
    <glyph glyph-name="hyphen.1" horiz-adv-x="700" 
 />
  </font>
</defs>
</svg>
