<?xml version="1.0" standalone="no"?>
<!DOCTYPE svg PUBLIC "-//W3C//DTD SVG 1.1//EN" "http://www.w3.org/Graphics/SVG/1.1/DTD/svg11.dtd" >
<svg xmlns="http://www.w3.org/2000/svg" xmlns:xlink="http://www.w3.org/1999/xlink" version="1.1">
<metadata>
Created by FontForge 20201107 at Tue Feb 20 10:45:06 2024
 By 
Copyright (c) 2012 by Bruno Mello. All rights reserved.
</metadata>
<defs>
<font id="SVN-KelsonSans" horiz-adv-x="1073" >
  <font-face 
    font-family="SVN-Kelson Sans"
    font-weight="400"
    font-stretch="normal"
    units-per-em="2048"
    panose-1="2 0 5 0 0 0 0 0 0 0"
    ascent="1536"
    descent="-512"
    x-height="1190"
    cap-height="1575"
    bbox="-272 -516.655 2271 2279"
    underline-thickness="102"
    underline-position="-204"
    unicode-range="U+000D-FB02"
  />
<missing-glyph horiz-adv-x="1286" 
d="M86 1583h1102v-1583h-1102v1583zM322 1032h145q0 111 40 154t144 43q96 0 137.5 -52.5t42.5 -183.5v19v1v1v1v1v0v1v0v0v0v-1v0v-1v-1v-1v-1v-1v-1v-1v-1v-1v-1v-1v-1v-1v-1v-1v-10q0 -61 -16.5 -102.5t-43 -64t-58.5 -40t-64.5 -38t-59 -49t-43 -82.5t-16.5 -130h148
q0 59 17 100t44 63.5t59.5 40t65.5 39t60 51t44 84t17 130.5v4q0 373 -330 373q-72 0 -127.5 -12.5t-91 -37.5t-59 -54.5t-35 -70.5t-16 -78t-4.5 -85zM512 297q0 -35 19 -58t46 -27.5t54 1.5t46 29t19 55q0 58 -46 80.5t-92 -1.5t-46 -79z" />
    <glyph glyph-name=".notdef" horiz-adv-x="1286" 
d="M86 1583h1102v-1583h-1102v1583zM322 1032h145q0 111 40 154t144 43q96 0 137.5 -52.5t42.5 -183.5v19v1v1v1v1v0v1v0v0v0v-1v0v-1v-1v-1v-1v-1v-1v-1v-1v-1v-1v-1v-1v-1v-1v-1v-10q0 -61 -16.5 -102.5t-43 -64t-58.5 -40t-64.5 -38t-59 -49t-43 -82.5t-16.5 -130h148
q0 59 17 100t44 63.5t59.5 40t65.5 39t60 51t44 84t17 130.5v4q0 373 -330 373q-72 0 -127.5 -12.5t-91 -37.5t-59 -54.5t-35 -70.5t-16 -78t-4.5 -85zM512 297q0 -35 19 -58t46 -27.5t54 1.5t46 29t19 55q0 58 -46 80.5t-92 -1.5t-46 -79z" />
    <glyph glyph-name=".null" horiz-adv-x="0" 
 />
    <glyph glyph-name="nonmarkingreturn" horiz-adv-x="682" 
 />
    <glyph glyph-name="CR" unicode="&#xd;" horiz-adv-x="548" 
 />
    <glyph glyph-name="space" unicode=" " horiz-adv-x="514" 
 />
    <glyph glyph-name="exclam" unicode="!" horiz-adv-x="466" 
d="M338 340h-195v1243h195v-1243zM123 100q0 53 36.5 84t81 31.5t81 -30t36.5 -85.5q0 -51 -36.5 -82t-81 -32t-81 29t-36.5 85z" />
    <glyph glyph-name="quotedbl" unicode="&#x22;" horiz-adv-x="542" 
d="M227 1206h-149l-6 375h161zM487 1206h-149l-6 375h162z" />
    <glyph glyph-name="numbersign" unicode="#" horiz-adv-x="1497" 
d="M174 893l43 172h254l127 518h170l-127 -518h358l127 518h170l-127 -518h277l-43 -172h-277l-67 -275h276l-43 -172h-274l-111 -450h-172l111 450h-359l-110 -450h-170l110 450h-251l43 172h251l68 275h-254zM598 893l-68 -275h359l67 275h-358z" />
    <glyph glyph-name="dollar" unicode="$" horiz-adv-x="1130" 
d="M678 -215h-182v211q-387 36 -406 422h211q8 -111 69 -173.5t203 -62.5h39q78 0 129.5 18t78.5 56.5t37.5 87.5t10.5 123q0 72 -20.5 123t-44 77.5t-81 44t-89 21.5t-110.5 10q-14 1 -21 2q-59 5 -112 18.5t-106.5 44t-91.5 74.5t-62 113t-24 156q0 205 93.5 315
t296.5 127v199h182v-203q172 -23 255.5 -123t92.5 -276h-203q-8 109 -61.5 165t-190.5 56q-80 0 -133 -17.5t-80.5 -53t-38 -79.5t-10.5 -108q0 -59 19.5 -100.5t48 -64.5t77.5 -37.5t91.5 -20t106.5 -11.5q30 -2 46 -4q371 -37 371 -438q0 -240 -91.5 -355t-299.5 -128
v-209z" />
    <glyph glyph-name="percent" unicode="%" horiz-adv-x="1611" 
d="M1227 0q-153 0 -226 73.5t-73 229.5v176q0 154 73.5 228.5t225.5 74.5q156 0 229.5 -73.5t73.5 -229.5v-176q0 -156 -73.5 -229.5t-229.5 -73.5zM1227 150q79 0 108 39.5t29 121.5v164q0 82 -29 120t-108 38q-75 0 -105 -38.5t-30 -119.5v-164q0 -81 30 -121t105 -40z
M938 1595h147l-460 -1624h-152zM360 809q-153 0 -226 73.5t-73 229.5v176q0 154 73.5 228.5t225.5 74.5q156 0 230 -73.5t74 -229.5v-176q0 -156 -74 -229.5t-230 -73.5zM360 958q79 0 108.5 40t29.5 122v164q0 82 -29.5 120t-108.5 38q-75 0 -105 -38.5t-30 -119.5v-164
q0 -81 30 -121.5t105 -40.5z" />
    <glyph glyph-name="ampersand" unicode="&#x26;" horiz-adv-x="1251" 
d="M1161 180l-4 -203q-102 0 -160.5 35.5t-95.5 128.5q-116 -166 -315 -166q-109 0 -195 26t-150.5 80.5t-98.5 145.5t-33 215q0 145 69 244.5t176 157.5q-184 121 -184 330q0 190 116 309t302 119q200 0 308.5 -107.5t96.5 -306.5h-178q12 235 -227 235q-97 0 -162.5 -67.5
t-65.5 -179.5q0 -95 66 -169.5t162 -74.5h604v-172h-191v-338q0 -242 160 -242zM811 424v336h-225q-120 0 -202.5 -91.5t-82.5 -234.5q0 -66 19 -117t48 -81t68.5 -48.5t75.5 -25t74 -6.5q95 0 160 79.5t65 188.5z" />
    <glyph glyph-name="quotesingle" unicode="'" horiz-adv-x="301" 
d="M227 1206h-149l-6 375h161z" />
    <glyph glyph-name="parenleft" unicode="(" horiz-adv-x="528" 
d="M317 1198v-1048q0 -110 33.5 -163t130.5 -53v-200q-187 0 -274.5 105t-87.5 308v1053q0 204 87.5 309t274.5 105v-201q-97 0 -130.5 -53t-33.5 -162z" />
    <glyph glyph-name="parenright" unicode=")" horiz-adv-x="546" 
d="M227 150v1048q0 109 -33.5 162t-130.5 53v201q187 0 275 -105.5t88 -308.5v-1053q0 -203 -87.5 -308t-275.5 -105v200q97 0 130.5 53t33.5 163z" />
    <glyph glyph-name="asterisk" unicode="*" horiz-adv-x="655" 
d="M614 1204l-161 -162l-95 154l-43 2l-94 -154l-160 160l150 94l2 43l-154 95l162 161l92 -151l45 -4l95 155l161 -159l-153 -95l-2 -43z" />
    <glyph glyph-name="plus" unicode="+" horiz-adv-x="927" 
d="M850 819v-160h-303v-315h-178v315h-301v160h301v307h178v-307h303z" />
    <glyph glyph-name="comma" unicode="," horiz-adv-x="387" 
d="M61 -311l-61 100q80 59 101.5 128.5t21.5 197.5h170q0 -172 -52 -265.5t-180 -160.5z" />
    <glyph glyph-name="hyphen" unicode="-" horiz-adv-x="1009" 
d="M895 705v-179h-770v179h770z" />
    <glyph glyph-name="period" unicode="." horiz-adv-x="411" 
d="M102 100q0 43 24.5 72.5t59 37t69 1t59 -36.5t24.5 -74q0 -41 -24.5 -70.5t-59 -37t-69 -1.5t-59 35.5t-24.5 73.5z" />
    <glyph glyph-name="slash" unicode="/" horiz-adv-x="761" 
d="M510 1577h164l-428 -1579h-164z" />
    <glyph glyph-name="zero" unicode="0" horiz-adv-x="1056" 
d="M541 158q114 0 168.5 61t54.5 217v715q0 80 -14 131.5t-44.5 79t-68.5 37.5t-96 10q-60 0 -100.5 -10t-74 -37t-49.5 -79.5t-16 -131.5v-715q0 -160 53.5 -219t186.5 -59zM541 -20q-231 0 -333 106t-102 350v715q0 430 435 430q417 0 417 -430v-715q0 -243 -98 -349.5
t-319 -106.5z" />
    <glyph glyph-name="one" unicode="1" horiz-adv-x="776" 
d="M49 0v166h256v1241h-201v174h396v-1415h243v-166h-694z" />
    <glyph glyph-name="two" unicode="2" horiz-adv-x="1052" 
d="M102 0v311q0 107 23 193.5t61.5 144t88.5 103.5t105.5 77t111 58.5t105.5 55.5t88.5 60t61.5 79.5t23 107.5q0 118 -58 174.5t-182 56.5q-235 0 -235 -264h-195q0 223 116.5 332.5t322.5 109.5q203 0 315.5 -101t112.5 -306q0 -91 -23 -161.5t-61.5 -115.5t-88.5 -80
t-105 -61l-110 -52t-105 -60t-88.5 -78t-61.5 -113t-23 -158v-120h653v-193h-852z" />
    <glyph glyph-name="three" unicode="3" horiz-adv-x="1060" 
d="M82 446h190q0 -140 55 -202t183 -62q131 0 194.5 65.5t63.5 219.5q0 159 -75 229t-199 70h-113v172h113q59 2 120 34.5t104.5 93.5t43.5 132q0 109 -60 168t-176 59q-241 0 -241 -264h-185q0 214 108 323.5t320 112.5q188 0 305 -102.5t117 -298.5q0 -66 -18.5 -128.5
t-68 -123.5t-124.5 -92q122 -47 178 -135t56 -248q0 -225 -118 -351t-343 -126q-231 0 -330.5 110t-99.5 344z" />
    <glyph glyph-name="four" unicode="4" horiz-adv-x="1120" 
d="M668 342h-643l-29 158l684 1083h182v-1063h139v-178h-139v-342h-194v342zM668 520v719l-445 -719h445z" />
    <glyph glyph-name="five" unicode="5" horiz-adv-x="1062" 
d="M82 467h192q0 -152 62.5 -222.5t185.5 -70.5q264 0 264 318v55q0 72 -7.5 120t-23.5 82.5t-45.5 53.5t-70.5 27t-102 8h-428v741h821v-182h-631v-375h242q245 0 342.5 -107t97.5 -364v-62q0 -254 -124 -378.5t-335 -124.5q-103 0 -181 25t-137.5 80t-90.5 149.5
t-31 226.5z" />
    <glyph glyph-name="six" unicode="6" horiz-adv-x="1118" 
d="M860 1583l4 -14q-151 -104 -275.5 -222t-180.5 -227q98 25 210 25q185 0 288.5 -103t103.5 -315v-291q0 -245 -103.5 -350.5t-345.5 -105.5t-345 105.5t-103 350.5v291q0 138 38.5 267.5t107.5 237t155 195t188 156.5h258zM561 166q137 0 195.5 56.5t58.5 213.5v291
q0 144 -59 197t-195 53t-195 -53t-59 -197v-291q0 -157 58.5 -213.5t195.5 -56.5z" />
    <glyph glyph-name="seven" unicode="7" horiz-adv-x="921" 
d="M879 1581v-47l-533 -1534h-211l492 1397h-600v184h852z" />
    <glyph glyph-name="eight" unicode="8" horiz-adv-x="1122" 
d="M551 -18q-239 0 -354 119t-115 370q0 176 44.5 270t135.5 144q-149 97 -149 309q0 194 118 304t320 110q208 0 320 -118t112 -300q0 -194 -149 -297q65 -36 103.5 -82t60.5 -127t22 -203q0 -257 -116 -378t-353 -121zM551 168q142 0 197 76t55 233q0 161 -55.5 243
t-196.5 85q-142 -3 -197 -85.5t-55 -242.5q0 -157 55 -233t197 -76zM307 1188q0 -100 66.5 -156.5t175.5 -56.5q233 0 233 213q0 231 -231 231q-120 0 -182 -61.5t-62 -169.5z" />
    <glyph glyph-name="nine" unicode="9" horiz-adv-x="1118" 
d="M270 0l-4 14q147 101 270 220t179 229q-97 -25 -211 -25q-185 0 -288 103t-103 315v291q0 245 103 351t345 106t345.5 -106t103.5 -351v-291q0 -270 -131.5 -491.5t-343.5 -364.5h-265zM561 1417q-137 0 -195.5 -56.5t-58.5 -213.5v-291q0 -144 59 -197t195 -53t195 53
t59 197v291q0 157 -58.5 213.5t-195.5 56.5z" />
    <glyph glyph-name="colon" unicode=":" horiz-adv-x="428" 
d="M102 100q0 43 24.5 72.5t59 37t69 1t59 -36.5t24.5 -74q0 -41 -24.5 -70.5t-59 -37t-69 -1.5t-59 35.5t-24.5 73.5zM102 870q0 43 24.5 72.5t59 37t69 1t59 -36.5t24.5 -74q0 -41 -24.5 -70.5t-59 -37t-69 -1.5t-59 35.5t-24.5 73.5z" />
    <glyph glyph-name="semicolon" unicode=";" horiz-adv-x="456" 
d="M117 870q0 53 36.5 84t81 31.5t81 -30t36.5 -85.5q0 -51 -36.5 -82t-81 -32t-81 29t-36.5 85zM90 -311l-61 100q80 59 101.5 128.5t21.5 197.5h170q0 -172 -52 -265.5t-180 -160.5z" />
    <glyph glyph-name="less" unicode="&#x3c;" horiz-adv-x="786" 
d="M551 1096l106 -115l-360 -334l367 -332l-113 -116l-449 419v58z" />
    <glyph glyph-name="equal" unicode="=" horiz-adv-x="1167" 
d="M160 938h848v-158h-848v158zM160 506h848v-158h-848v158z" />
    <glyph glyph-name="greater" unicode="&#x3e;" horiz-adv-x="790" 
d="M688 676v-58l-450 -419l-111 110l367 338l-363 338l107 111z" />
    <glyph glyph-name="question" unicode="?" horiz-adv-x="1003" 
d="M250 1190h-189q0 57 3.5 101t15 91t30.5 81t51 65.5t76.5 51t107.5 31t142 11.5q414 0 414 -475v-90q0 -97 -21.5 -170t-56 -116.5t-76 -78t-83.5 -65t-76.5 -65t-56 -90.5t-21.5 -130h-184q0 96 21 168t54.5 114.5t74.5 76.5t81.5 64t74 65t54.5 91.5t21 133.5v86
q-3 165 -56 231t-174 66q-133 0 -180 -51t-47 -197zM313 100q0 43 24.5 72.5t59 37t69 1t59 -36.5t24.5 -74q0 -41 -24.5 -70.5t-59 -37t-69 -1.5t-59 35.5t-24.5 73.5z" />
    <glyph glyph-name="at" unicode="@" horiz-adv-x="1398" 
d="M688 604q103 0 103 139v267h-105q-53 0 -79.5 -29.5t-26.5 -83.5v-170q0 -123 108 -123zM856 1389h-330q-75 0 -124 -15t-74.5 -47.5t-35 -72.5t-9.5 -101v-729q0 -61 9.5 -101t35 -72.5t74.5 -47.5t124 -15h525v-190h-586q-95 0 -163 17t-108.5 46t-63.5 77t-30.5 99
t-7.5 123v752q0 88 7.5 151.5t26.5 119t51.5 91t83.5 61t121.5 37t166.5 11.5h295q115 0 195 -17.5t132.5 -51.5t82.5 -93t41.5 -131.5t11.5 -177.5v-395q0 -81 -16 -140.5t-41 -93.5t-62.5 -54.5t-73.5 -27t-82 -6.5q-137 0 -192 125q-20 -21 -32 -31.5t-36.5 -27t-56 -24
t-70.5 -7.5q-118 0 -184 65.5t-66 188.5v246q0 118 85.5 185t205.5 67h289v-477q0 -26 0.5 -37.5t2 -32.5t6 -30.5t11.5 -21t19.5 -16t29.5 -4.5q41 0 54.5 32t13.5 105v418q0 82 -9 129.5t-37 82t-77.5 47t-132.5 12.5z" />
    <glyph glyph-name="A" unicode="A" 
d="M1055 0h-201l-80 293h-473l-80 -293h-203l420 1575h199zM641 813l-104 508l-107 -514l-80 -330h373z" />
    <glyph glyph-name="B" unicode="B" horiz-adv-x="1173" 
d="M123 -2v1587h397q206 0 317 -110.5t111 -298.5q0 -97 -27 -167.5t-85 -129.5q128 -40 196 -142.5t68 -255.5q0 -483 -510 -483h-467zM322 184h272q169 0 238 75t69 220q0 144 -77.5 206.5t-223.5 62.5h-278v-564zM520 1403h-203v-469h183q67 0 117.5 21t78.5 57t41 77
t13 87q0 111 -63.5 169t-166.5 58z" />
    <glyph glyph-name="C" unicode="C" horiz-adv-x="1208" 
d="M1118 1135h-190q-1 78 -11.5 124.5t-42 83.5t-92 52.5t-157.5 15.5q-69 0 -118 -8t-83.5 -27.5t-55.5 -44.5t-32 -67.5t-15 -87.5t-4 -113v-541q0 -81 6.5 -133t25 -96.5t53 -68.5t89 -37t134.5 -13q69 0 115.5 5t82 20t56 35.5t33 57.5t16.5 80.5t4 110.5h186
q0 -57 -1.5 -97.5t-7.5 -87.5t-16.5 -79t-28.5 -66.5t-44 -57.5t-62.5 -44.5t-84.5 -33.5t-110 -19.5t-138 -7.5q-86 0 -154 8.5t-119 27t-89 42t-63 60.5t-41 74.5t-24 92.5t-11 106t-3 123v537q0 111 12 189t44 146.5t88 109.5t145.5 64t214.5 23q102 0 178.5 -12.5
t130.5 -39t89.5 -62.5t56 -90t29 -113.5t9.5 -140.5z" />
    <glyph glyph-name="D" unicode="D" horiz-adv-x="1230" 
d="M340 186h270q64 0 110.5 6.5t81 17t57 33t36 45.5t20.5 63.5t9 78.5t2 98v525q0 60 -2 98t-9 78.5t-20.5 63.5t-36 45.5t-57 33t-81 17t-110.5 6.5h-270v-1209zM610 0h-465v1579h480q125 0 213.5 -23t143.5 -63.5t86.5 -109t42.5 -145.5t11 -187v-521
q0 -111 -11.5 -188.5t-44 -146.5t-89 -110t-148 -63.5t-219.5 -21.5z" />
    <glyph glyph-name="E" unicode="E" horiz-adv-x="1067" 
d="M143 1581h797v-172h-602v-475h545v-182h-545v-570h653v-182h-848v1581z" />
    <glyph glyph-name="F" unicode="F" horiz-adv-x="1054" 
d="M989 1399h-653v-484h567v-182h-567v-735h-195v1581h848v-180z" />
    <glyph glyph-name="G" unicode="G" horiz-adv-x="1251" 
d="M1135 1155h-191q-2 73 -14.5 119t-46 81.5t-95.5 50.5t-159 15q-99 0 -160 -18.5t-96 -63.5t-47.5 -108t-12.5 -164v-553q0 -60 2 -98.5t9 -79.5t20.5 -64.5t36 -46.5t57 -34.5t81.5 -18t110 -6.5q76 0 126 4.5t86.5 20.5t56 35t30.5 58.5t13.5 80t2.5 110.5v215h-307
v176h504v-391q0 -57 -2 -97.5t-8 -87t-17 -79t-30 -66.5t-46 -57t-65 -44t-87.5 -33.5t-114 -19.5t-142.5 -7q-92 0 -165 11.5t-126.5 33t-92 56.5t-63.5 76t-39.5 98.5t-20 117.5t-5.5 139v549q0 79 5.5 139t20 117.5t39.5 98.5t63.5 76t92 56.5t126.5 33t165 11.5
q124 0 211 -17t143.5 -48.5t89 -87.5t46 -123t16.5 -166z" />
    <glyph glyph-name="H" unicode="H" horiz-adv-x="1206" 
d="M1065 0h-195v662h-528v-664h-199v1577h199v-727h528v727h195v-1575z" />
    <glyph glyph-name="I" unicode="I" horiz-adv-x="485" 
d="M342 -2h-199v1577h199v-1577z" />
    <glyph glyph-name="J" unicode="J" horiz-adv-x="989" 
d="M440 -12q-103 0 -177.5 22t-122 60.5t-75.5 100.5t-38.5 133.5t-10.5 168.5h185q0 -167 50 -233t193 -66q44 0 77 6.5t57.5 18t40.5 34t26.5 47t15.5 64.5t7 79.5t2 98.5v1059h196v-1057q0 -111 -9.5 -189.5t-36.5 -148t-74 -110.5t-123 -64.5t-183 -23.5z" />
    <glyph glyph-name="K" unicode="K" horiz-adv-x="1155" 
d="M1147 0h-240l-504 680h-75v-680h-195v1579h195v-696h75l471 696h230l-545 -791z" />
    <glyph glyph-name="L" unicode="L" horiz-adv-x="1005" 
d="M956 0h-813v1579h197v-1399h616v-180z" />
    <glyph glyph-name="M" unicode="M" horiz-adv-x="1288" 
d="M367 1581l278 -868l279 868h223v-1581h-195v743l29 433l-289 -887h-94l-289 887l29 -433v-743h-195v1581h224z" />
    <glyph glyph-name="N" unicode="N" horiz-adv-x="1167" 
d="M326 1579l534 -1208l-29 536v672h195v-1579h-182l-520 1135l12 -519v-616h-195v1579h185z" />
    <glyph glyph-name="O" unicode="O" horiz-adv-x="1271" 
d="M1145 1069v-551q0 -79 -5.5 -139t-20 -117.5t-39.5 -98.5t-63.5 -76t-92 -56.5t-126.5 -33t-165 -11.5t-165 11.5t-126.5 33t-92 56.5t-63.5 76t-39.5 98.5t-20 117.5t-5.5 139v551q0 111 11.5 189t44 147t89 110t147.5 64t220 23t220 -23t147.5 -64t89 -110t44 -147
t11.5 -189zM948 516v555q0 71 -3 113.5t-13.5 88t-30.5 69.5t-55 44.5t-87 28.5t-126 8q-63 0 -110.5 -7t-81.5 -18.5t-56.5 -35t-36 -47.5t-20.5 -65.5t-9 -80t-2 -98.5v-555q0 -60 2 -98.5t9 -79.5t20.5 -64.5t36 -46.5t57 -34.5t81.5 -18t110 -6.5q56 0 98.5 4.5t75 15.5
t55.5 24t39 36.5t25 47t14 61t6.5 72t1.5 87.5z" />
    <glyph glyph-name="P" unicode="P" horiz-adv-x="1101" 
d="M143 1579l424 2q218 0 333.5 -101t115.5 -329v-172q0 -245 -103.5 -351t-345.5 -106h-229v-524h-195v1581zM567 1397h-229v-688h229q137 0 195.5 56.5t58.5 213.5v172q0 54 -6 93t-21.5 65t-33.5 42.5t-50.5 25.5t-62.5 13t-80 7z" />
    <glyph glyph-name="Q" unicode="Q" horiz-adv-x="1267" 
d="M1145 1067v-539q0 -88 -7 -154t-26 -127.5t-51.5 -104.5t-84.5 -75t-124 -49q4 -57 17.5 -96.5t43 -71.5t83 -43.5t130.5 -1.5v-174q-457 -38 -469 365h-24q-92 0 -165 11.5t-126.5 33t-92 56.5t-63.5 76t-39.5 98.5t-20 117.5t-5.5 139v539q0 79 5.5 139t20 117.5
t39.5 98.5t63.5 76t92 56.5t126.5 33t165 11.5t165 -11.5t126.5 -33t92 -56.5t63.5 -76t39.5 -98.5t20 -117.5t5.5 -139zM948 526v543q0 53 -1.5 87.5t-6.5 72t-14 61t-25 47t-39 36.5t-55.5 24t-75 15.5t-98.5 4.5q-63 0 -110 -6.5t-81.5 -18t-57 -34.5t-36 -46.5
t-20.5 -64.5t-9 -79.5t-2 -98.5v-543q0 -60 2 -98.5t9 -79.5t20.5 -64.5t36 -46.5t57 -34.5t81.5 -18t110 -6.5q56 0 98.5 4.5t75 15.5t55.5 24t39 36.5t25 47t14 61t6.5 72t1.5 87.5z" />
    <glyph glyph-name="R" unicode="R" horiz-adv-x="1105" 
d="M1016 1040q0 -196 -68 -304.5t-227 -139.5l342 -596h-229l-318 584h-178v-586h-195v1583l424 2q218 0 333.5 -102t115.5 -330v-111zM567 1397h-229v-627h229q137 0 195.5 56.5t58.5 213.5v111q0 54 -6 93t-21.5 65t-33.5 42.5t-50.5 25.5t-62.5 13t-80 7z" />
    <glyph glyph-name="S" unicode="S" horiz-adv-x="1161" 
d="M1026 1190h-203q-8 109 -61.5 165t-190.5 56q-80 0 -133 -17.5t-80.5 -53t-38 -79.5t-10.5 -108q0 -59 19.5 -100.5t48 -64.5t77.5 -37.5t91.5 -20t106.5 -11.5q30 -2 46 -4q371 -37 371 -438q0 -256 -106 -370.5t-349 -114.5h-39q-463 0 -485 426h211q8 -111 69 -173.5
t203 -62.5h39q78 0 129.5 18t78.5 56.5t37.5 87.5t10.5 123q0 72 -20.5 123t-44 77.5t-81 44t-89 21.5t-110.5 10q-14 1 -21 2q-59 5 -112 18.5t-106.5 44t-91.5 74.5t-62 113t-24 156q0 224 110.5 334t354.5 110q228 0 336 -102t119 -303z" />
    <glyph glyph-name="T" unicode="T" horiz-adv-x="882" 
d="M866 1391h-327v-1391h-195v1391h-328v180h850v-180z" />
    <glyph glyph-name="U" unicode="U" horiz-adv-x="1232" 
d="M901 518v1063h197v-1061q0 -135 -23.5 -230t-78.5 -165t-150 -103.5t-234 -33.5t-234.5 33.5t-151 103.5t-79.5 165t-24 230v1059h196v-1061q0 -99 11.5 -160.5t43.5 -106t89 -63t149 -18.5q73 0 123.5 13t83.5 37t51 68t24.5 97t6.5 133z" />
    <glyph glyph-name="V" unicode="V" horiz-adv-x="1071" 
d="M377 993l160 -694l157 696l158 586h201l-428 -1583h-179l-428 1583h201z" />
    <glyph glyph-name="W" unicode="W" horiz-adv-x="1671" 
d="M485 324l271 1171h151l271 -1171l114 589l152 668h201l-377 -1583h-178l-134 530l-125 568l-124 -568l-134 -530h-178l-377 1583h201l152 -668z" />
    <glyph glyph-name="X" unicode="X" horiz-adv-x="999" 
d="M362 1282l138 -354l137 352l131 301h213l-346 -786l346 -797h-213l-86 197l-182 462l-181 -460l-88 -199h-213l347 797l-347 786h213z" />
    <glyph glyph-name="Y" unicode="Y" horiz-adv-x="944" 
d="M334 1274l139 -393l139 393l127 307h211l-381 -919v-664h-194v664l-379 919h211z" />
    <glyph glyph-name="Z" unicode="Z" horiz-adv-x="962" 
d="M936 1581l-631 -1403h608v-178h-884l630 1409h-546v172h823z" />
    <glyph glyph-name="bracketleft" unicode="[" horiz-adv-x="679" 
d="M186 1587h426v-153h-254v-1502h254v-155h-426v1810z" />
    <glyph glyph-name="backslash" unicode="\" horiz-adv-x="761" 
d="M92 1577h164l428 -1579h-164z" />
    <glyph glyph-name="bracketright" unicode="]" horiz-adv-x="698" 
d="M512 -217h-426v156h254v1501h-254v153h426v-1810z" />
    <glyph glyph-name="asciicircum" unicode="^" horiz-adv-x="1267" 
d="M113 885l-2 10l442 692h125l448 -692l-2 -10h-184l-324 516l-325 -516h-178z" />
    <glyph glyph-name="underscore" unicode="_" horiz-adv-x="1101" 
d="M72 -18h962v-164h-962v164z" />
    <glyph glyph-name="grave" unicode="`" horiz-adv-x="501" 
d="M203 1313l-146 264v6h199l109 -260v-10h-162z" />
    <glyph glyph-name="a" unicode="a" 
d="M944 809v-809h-176l-16 162q-34 -71 -118.5 -121.5t-187.5 -50.5q-79 0 -140.5 16.5t-99.5 43t-63.5 65.5t-36.5 77t-16 84q-15 158 84.5 265t284.5 133q93 14 289 18v117q0 110 -50.5 166.5t-177.5 56.5q-93 0 -141 -43.5t-47 -157.5h-191q-6 195 92 287t293 92
q205 0 311.5 -95t106.5 -306zM752 530q-188 0 -277 -20q-208 -45 -188 -209q6 -66 56 -95.5t124 -29.5q78 0 134 27t87.5 77t46.5 111t17 139z" />
    <glyph glyph-name="b" unicode="b" horiz-adv-x="1122" 
d="M309 754l-2 -318q0 -156 60 -213t194 -57t194 57t60 213v309q0 161 -58.5 220t-195.5 59q-57 0 -100 -12t-78.5 -41t-54 -83.5t-19.5 -133.5zM1010 750v-314q0 -245 -103.5 -350.5t-345.5 -105.5t-345 105.5t-103 350.5v1176h196v-522q37 55 109.5 87.5t173.5 32.5
q220 0 319 -115.5t99 -344.5z" />
    <glyph glyph-name="c" unicode="c" horiz-adv-x="1081" 
d="M805 406h184q-3 -235 -103 -330.5t-335 -95.5t-342 106.5t-107 349.5v340q0 229 116 332.5t333 103.5q104 0 180 -20t134 -65t89 -124t35 -192l-184 -2q-3 69 -20.5 114t-52 68.5t-76.5 32t-105 8.5q-66 0 -109.5 -9.5t-78 -36.5t-50.5 -78.5t-16 -131.5v-340
q0 -80 16 -133.5t49.5 -83t78 -41.5t110.5 -12q67 0 110 9t77 34t50 73t17 124z" />
    <glyph glyph-name="d" unicode="d" horiz-adv-x="1159" 
d="M1001 1602v-1602h-163l-25 158q-27 -77 -108.5 -120.5t-188.5 -43.5q-93 0 -165 22.5t-127 71.5t-84 134t-29 204v315q0 237 105 351t300 114q106 0 174.5 -21.5t114.5 -82.5v500h196zM805 748q0 151 -56.5 210.5t-189.5 59.5q-134 0 -194 -63t-60 -218v-313
q0 -142 57 -195t183 -53q132 5 196 74.5t64 238.5v259z" />
    <glyph glyph-name="e" unicode="e" horiz-adv-x="1101" 
d="M801 348h188q0 -178 -105 -269t-333 -91q-240 0 -341 99t-101 339v350q0 226 114 327t328 101q442 0 442 -428v-256h-692v-90q0 -154 57 -208t193 -54q129 0 189.5 44t60.5 136zM301 776v-86h506v86q0 77 -17.5 128.5t-53.5 79t-79.5 38t-105.5 10.5t-104.5 -10.5
t-77.5 -37.5t-51.5 -78.5t-16.5 -129.5z" />
    <glyph glyph-name="f" unicode="f" horiz-adv-x="655" 
d="M121 -2v1155q0 240 130.5 350.5t354.5 89.5v-178q-71 7 -121.5 -0.5t-90.5 -35t-59.5 -84t-19.5 -142.5v-41h256v-180h-256v-934h-194z" />
    <glyph glyph-name="g" unicode="g" horiz-adv-x="1089" 
d="M518 -6q-206 0 -311 104.5t-105 307.5v362q0 119 29 204t84.5 134t127.5 71.5t165 22.5q106 0 186 -43.5t107 -120.5l24 152h162v-1229q0 -235 -116.5 -346t-325.5 -111q-199 0 -304 83.5t-112 273.5h186q7 -100 66 -139t166 -39q126 0 192 62t66 216v197
q-24 -66 -100.5 -114t-186.5 -48zM518 176q66 0 114 14.5t85.5 49t56.5 96.5t19 153v232q-2 109 -33 174.5t-84.5 92.5t-138.5 30q-126 0 -183 -53t-57 -195v-342q0 -136 56 -194t165 -58z" />
    <glyph glyph-name="h" unicode="h" horiz-adv-x="1105" 
d="M993 0h-194v745q0 160 -54.5 219.5t-189.5 59.5q-124 0 -184.5 -64t-61.5 -206l-2 -754h-194v1612h196v-522q35 52 106.5 87t166.5 35q221 0 316 -115t95 -347v-750z" />
    <glyph glyph-name="i" unicode="i" horiz-adv-x="491" 
d="M342 0h-195v1190h195v-1190zM129 1413q0 43 24.5 72.5t59 37t69 1t59 -36.5t24.5 -74q0 -41 -24.5 -70.5t-59 -37t-69 -1.5t-59 35.5t-24.5 73.5z" />
    <glyph glyph-name="j" unicode="j" horiz-adv-x="495" 
d="M354 1188v-1243q0 -189 -84.5 -268t-267.5 -64v174q34 -5 63.5 -1.5t51.5 16t34.5 48.5t12.5 95v1243h190zM141 1413q0 43 24.5 72.5t59 37t69 1t59 -36.5t24.5 -74q0 -41 -24.5 -70.5t-59 -37t-69 -1.5t-59 35.5t-24.5 73.5z" />
    <glyph glyph-name="k" unicode="k" horiz-adv-x="1044" 
d="M1034 0h-233l-406 532h-88v-532h-194v1581h194v-864h78l371 481h237l-438 -563z" />
    <glyph glyph-name="l" unicode="l" horiz-adv-x="518" 
d="M143 311v1270h191v-1268q0 -70 28 -95t95 -25v-193q-91 0 -148 13t-96 48t-54.5 95t-15.5 155z" />
    <glyph glyph-name="m" unicode="m" horiz-adv-x="1888" 
d="M152 0v1198h163l15 -131q99 145 307 145q244 0 328 -147q119 147 366 147q102 0 174.5 -21t126 -71t79.5 -135.5t26 -210.5v-774h-197v778q0 127 -61.5 187.5t-171.5 60.5q-133 0 -199 -74t-66 -231v-721h-196v782q0 78 -16 129t-49.5 76t-73 34t-99.5 9
q-119 0 -189.5 -60.5t-70.5 -189.5v-780h-196z" />
    <glyph glyph-name="n" unicode="n" horiz-adv-x="1193" 
d="M162 0v1198h174l12 -127q50 81 127.5 111t179.5 30q204 0 301 -99.5t97 -332.5v-780h-197v778q0 125 -62.5 190.5t-170.5 65.5q-116 0 -190.5 -66t-74.5 -188v-780h-196z" />
    <glyph glyph-name="o" unicode="o" horiz-adv-x="1101" 
d="M551 150q138 0 196 63t58 223v342q0 80 -16 132t-51 79.5t-78.5 38t-108.5 10.5t-108.5 -10.5t-78.5 -38t-51 -79.5t-16 -132v-342q0 -159 60 -222.5t194 -63.5zM551 -20q-242 0 -345.5 105.5t-103.5 350.5v342q0 229 116 331.5t333 102.5t332.5 -102.5t115.5 -331.5
v-342q0 -244 -105 -350t-343 -106z" />
    <glyph glyph-name="p" unicode="p" horiz-adv-x="1150" 
d="M135 -403v1601h164l25 -158q27 77 108.5 120.5t188.5 43.5q93 0 165 -22.5t127 -71.5t84 -134t29 -204v-315q0 -237 -105 -351t-300 -114q-106 0 -174.5 21.5t-114.5 82.5v-499h-197zM332 451q0 -151 56.5 -211t189.5 -60q134 0 193.5 63t59.5 218v313q0 142 -56.5 195
t-182.5 53q-132 -5 -196 -74.5t-64 -238.5v-258z" />
    <glyph glyph-name="q" unicode="q" horiz-adv-x="1126" 
d="M809 442l2 318q0 156 -60 213t-194 57t-194 -57t-60 -213v-309q0 -161 58.5 -220t195.5 -59q57 0 100 12t78.5 41t54 83.5t19.5 133.5zM109 446v314q0 245 103 351t345 106t345.5 -106t103.5 -351v-1176h-197v522q-37 -55 -109.5 -87.5t-173.5 -32.5q-220 0 -318.5 115
t-98.5 345z" />
    <glyph glyph-name="r" unicode="r" horiz-adv-x="712" 
d="M653 1198v-199q-146 24 -241 -36.5t-95 -194.5v-770h-194v1200h178l8 -111q45 69 140.5 101.5t203.5 9.5z" />
    <glyph glyph-name="s" unicode="s" horiz-adv-x="999" 
d="M903 860h-186q0 176 -219 176q-103 0 -159 -47.5t-56 -142.5q0 -39 12 -65.5t29 -41.5t50.5 -24t60.5 -12t75 -7q18 -1 27 -2q37 -3 62 -6t61.5 -9t61.5 -14t56 -21t52 -30t42.5 -41.5t34.5 -54.5t21 -70.5t8 -87.5q0 -182 -115.5 -276t-308.5 -94q-206 0 -316.5 95.5
t-117.5 285.5h196q7 -107 71.5 -155t166.5 -48q109 0 169 51t60 139q0 29 -8.5 52.5t-21.5 39.5t-37 28.5t-44.5 19.5t-54.5 12t-57.5 7t-62.5 5q-367 25 -367 324q0 165 106 265.5t310 100.5q203 0 303.5 -91.5t95.5 -260.5z" />
    <glyph glyph-name="t" unicode="t" horiz-adv-x="600" 
d="M131 330v1077l191 23v-238h206v-184h-206v-672q0 -94 49 -132.5t166 -23.5v-180q-95 -13 -164 -0.5t-115.5 37.5t-74.5 70.5t-40 99t-12 123.5z" />
    <glyph glyph-name="u" unicode="u" horiz-adv-x="1169" 
d="M1026 1190v-1190h-174l-12 127q-50 -81 -128 -111t-180 -30q-204 0 -300.5 99.5t-96.5 332.5v772h197v-770q0 -125 62.5 -190.5t170.5 -65.5q116 0 190 65.5t74 188.5v772h197z" />
    <glyph glyph-name="v" unicode="v" horiz-adv-x="915" 
d="M209 1198l123 -399q62 -211 127 -529q74 374 127 533l123 395h202l-354 -1200h-197l-354 1200h203z" />
    <glyph glyph-name="w" unicode="w" horiz-adv-x="1521" 
d="M1176 799l122 399h205l-344 -1200h-194l-99 350l-106 465l-109 -471l-96 -344h-195l-344 1200h205l123 -399q24 -81 43.5 -168.5t42.5 -210t29 -150.5q56 283 119 533l110 395h143l113 -395q53 -211 117 -533q6 28 29 150.5t42.5 210t43.5 168.5z" />
    <glyph glyph-name="x" unicode="x" horiz-adv-x="972" 
d="M737 0l-121 209l-133 252l-133 -254l-119 -207h-213l355 604l-342 590h219l112 -190l123 -238l127 240l111 188h213l-340 -588l360 -606h-219z" />
    <glyph glyph-name="y" unicode="y" horiz-adv-x="1005" 
d="M358 813l154 -555q43 220 150 567l116 373h203l-375 -1200l-71 -227q-57 -180 -162 -229.5t-275 20.5l35 166q37 -15 65.5 -20.5t61 -0.5t58.5 35.5t44 85.5l50 170l-381 1200h213z" />
    <glyph glyph-name="z" unicode="z" horiz-adv-x="995" 
d="M63 0v31l590 989h-534v178h823v-35l-582 -981h594v-182h-891z" />
    <glyph glyph-name="braceleft" unicode="{" horiz-adv-x="655" 
d="M610 -268l-2 -2q-202 -33 -286 41.5t-84 263.5v452q0 209 -154 209v129q154 0 154 209v369q0 188 87 265t283 40v-137q-118 23 -160 -13t-42 -161v-363q0 -40 -0.5 -59t-4.5 -53.5t-13 -54t-24 -42.5t-41 -38.5t-61 -24.5q27 -7 48.5 -17.5t36.5 -26t26 -29.5t17.5 -36.5
t10 -37.5t5 -42t2 -41t0.5 -43v-446q0 -124 38 -155.5t162 -14.5z" />
    <glyph glyph-name="bar" unicode="|" horiz-adv-x="538" 
d="M352 1589v-1800h-166v1800h166z" />
    <glyph glyph-name="braceright" unicode="}" horiz-adv-x="694" 
d="M74 -270l-2 2l2 141q124 -17 162 14.5t38 155.5v446q0 29 0.5 43t2 41t5 42t10 37.5t17.5 36.5t26 29.5t36.5 26t48.5 17.5q-35 9 -61 24.5t-41 38.5t-24 42.5t-13 54t-4.5 53.5t-0.5 59v363q0 125 -42 161t-160 13v137q196 37 283 -40t87 -265v-369q0 -209 154 -209
v-129q-154 0 -154 -209v-452q0 -189 -84 -263.5t-286 -41.5z" />
    <glyph glyph-name="asciitilde" unicode="~" horiz-adv-x="1323" 
d="M1047 739l127 -49q-34 -94 -90.5 -151t-135 -71t-174.5 30l-264 129q-38 14 -68 17t-62 -5.5t-59.5 -41.5t-48.5 -89l-116 49q47 140 160.5 201t240.5 0l260 -127q154 -78 230 108z" />
    <glyph glyph-name="exclamdown" unicode="&#xa1;" horiz-adv-x="466" 
d="M141 870h195v-1243h-195v1243zM356 1110q0 -53 -36.5 -84t-81 -31.5t-81 30t-36.5 85.5q0 51 36.5 82t81 32t81 -29t36.5 -85z" />
    <glyph glyph-name="cent" unicode="&#xa2;" horiz-adv-x="1081" 
d="M637 -207h-186v193q-184 20 -266.5 126.5t-82.5 323.5v340q0 197 94.5 302t262.5 128v203h190v-201q88 -11 148.5 -33.5t108.5 -67t70.5 -118.5t22.5 -182h-194q0 72 -14.5 117.5t-48 70.5t-77.5 34t-114 9q-134 0 -194 -58t-60 -204v-340q0 -157 59 -215.5t195 -58.5
q71 0 114 9t77 35.5t48.5 76.5t14.5 131h194q0 -217 -84.5 -315t-277.5 -115v-191z" />
    <glyph glyph-name="sterling" unicode="&#xa3;" horiz-adv-x="1122" 
d="M1024 1206h-178q0 103 -52.5 158t-138.5 55q-95 0 -147.5 -60t-52.5 -177v-273h366v-188h-366v-537h575v-184h-962v186h196v535h-196v188h196v267q0 199 99 310t292 111q171 0 270 -101.5t99 -289.5z" />
    <glyph glyph-name="currency" unicode="&#xa4;" horiz-adv-x="1105" 
d="M559 393q110 0 172 72.5t62 185.5q0 120 -61 191t-173 71q-107 0 -170 -78t-63 -184q0 -105 63 -181.5t170 -76.5zM360 276l-112 -122l-137 151l108 117q-55 101 -55 225t57 232l-108 118l135 154l112 -125q92 55 201 55q113 0 199 -55l114 125l136 -154l-107 -116
q58 -104 58 -230q0 -119 -58 -229l107 -117l-136 -151l-114 122q-88 -53 -201 -53q-107 0 -199 53z" />
    <glyph glyph-name="yen" unicode="&#xa5;" horiz-adv-x="1036" 
d="M383 1274l139 -393l140 393l126 307h211l-329 -793h182v-149h-234v-78h236v-145h-236v-418h-194v418h-225v145h225v78h-225v149h172l-326 793h211z" />
    <glyph glyph-name="brokenbar" unicode="&#xa6;" horiz-adv-x="552" 
d="M188 836v743h177v-743h-177zM365 690v-743h-177v743h177z" />
    <glyph glyph-name="section" unicode="&#xa7;" horiz-adv-x="1024" 
d="M860 1270h-168q3 78 -44 119t-146 41q-94 0 -146 -43.5t-55 -129.5q-2 -57 29 -87t63.5 -36t111.5 -12q14 -1 21 -2q43 -4 71.5 -7.5t69.5 -12.5t68 -21.5t57.5 -35.5t47.5 -52.5t28 -73t9 -98.5q-3 -74 -41.5 -139.5t-104.5 -106.5q146 -65 141 -233
q-4 -163 -111.5 -248.5t-281.5 -85.5q-375 0 -381 344h178q3 -97 59 -140.5t148 -43.5q98 0 154 47t59 125q1 37 -13.5 63.5t-35 41t-58.5 24t-68 12.5t-79 6q-42 1 -84 10t-87 31.5t-78 56.5t-53.5 90t-18.5 126q2 73 33.5 129.5t105.5 107.5q-64 21 -100 78.5t-33 142.5
q5 149 103 239.5t280 90.5q184 0 271.5 -82.5t78.5 -234.5zM295 799q-3 -73 48 -113.5t144 -40.5q99 0 154.5 47t58.5 125q1 67 -58.5 107.5t-139.5 40.5q-89 0 -147.5 -42.5t-59.5 -123.5z" />
    <glyph glyph-name="dieresis" unicode="&#xa8;" horiz-adv-x="911" 
d="M119 1475q0 53 36.5 84t81 32t81 -30t36.5 -86q0 -51 -36.5 -82t-81 -32t-81 29t-36.5 85zM565 1475q0 43 24.5 72.5t59 37t69 1t59 -36.5t24.5 -74q0 -41 -24.5 -70.5t-59 -37t-69 -1.5t-59 35.5t-24.5 73.5z" />
    <glyph glyph-name="copyright" unicode="&#xa9;" horiz-adv-x="1724" 
d="M866 1520v-2q142 1 262.5 -38t206.5 -108t147 -162t90.5 -200.5t29.5 -223.5q0 -158 -46 -294t-135 -241t-231.5 -165.5t-323.5 -60.5t-323.5 57.5t-233 158.5t-137.5 235.5t-47 293.5q0 115 29 223.5t89.5 205t146.5 168.5t209 113.5t267 39.5zM866 1374
q-144 0 -257.5 -45.5t-185.5 -127.5t-109.5 -192t-37.5 -243q0 -129 37 -238t109 -191t186 -128.5t258 -46.5t256.5 45.5t183.5 129t107.5 196t36.5 249.5q0 172 -65.5 304.5t-199 210t-319.5 77.5zM1036 639h135q-3 -163 -74 -231t-233 -68t-238.5 77t-76.5 245v233
q0 158 83 232.5t232 74.5q296 0 307 -282l-135 -2q-3 91 -44 122t-128 31q-92 0 -133 -35t-41 -141v-233q0 -109 42 -149t132 -40q94 0 133 32.5t39 133.5z" />
    <glyph glyph-name="ordfeminine" unicode="&#xaa;" horiz-adv-x="919" 
d="M131 584h674v-158h-674v158zM807 1247v-516h-131l-21 127q-19 -53 -77.5 -92t-145.5 -39q-334 0 -334 330v190q0 91 27 158t76 106.5t113 58.5t143 19q350 0 350 -342zM651 1247q0 113 -51 155t-143 42q-97 0 -149 -49.5t-52 -147.5v-172q0 -109 44 -156t132 -47
q109 0 164 56t55 196v123z" />
    <glyph glyph-name="guillemotleft" unicode="&#xab;" horiz-adv-x="935" 
d="M383 1059h180l-280 -451l280 -452h-180l-283 452zM369 608l282 451h180l-280 -451l280 -452h-180z" />
    <glyph glyph-name="logicalnot" unicode="&#xac;" horiz-adv-x="1083" 
d="M913 365h-153v270h-600v153h753v-423z" />
    <glyph glyph-name="uni00AD" unicode="&#xad;" horiz-adv-x="968" 
d="M109 760h733v-160h-733v160z" />
    <glyph glyph-name="registered" unicode="&#xae;" horiz-adv-x="1716" 
d="M862 1483q175 0 318 -60t235.5 -164t142.5 -241t50 -293q0 -155 -50 -292t-142.5 -241t-235.5 -164.5t-318 -60.5q-173 0 -315.5 60.5t-235 164.5t-142.5 241t-50 292q0 156 50 293t142.5 241t234.5 164t316 60zM276 725v4q0 -174 67 -312.5t202 -222t317 -83.5
q138 0 250.5 48t186.5 132t113.5 195.5t39.5 240.5q0 130 -39.5 242t-113.5 196t-186.5 132.5t-250.5 48.5q-137 0 -249 -48.5t-185 -132.5t-112.5 -197t-39.5 -243zM1169 870q0 -114 -39.5 -177t-132.5 -81l181 -311h-160l-166 285h-107v-285h-135v875h269q65 0 114.5 -12
t90.5 -40.5t63 -83t22 -133.5v-37zM879 1042h-134v-327h134q80 0 113.5 31.5t33.5 123.5v37q0 38 -6.5 62.5t-15 38t-31 21t-39 9.5t-55.5 4z" />
    <glyph glyph-name="macron" unicode="&#xaf;" horiz-adv-x="788" 
d="M137 1587h502v-151h-502v151z" />
    <glyph glyph-name="degree" unicode="&#xb0;" horiz-adv-x="667" 
d="M319 1468q-38 0 -66.5 -17.5t-42 -44.5t-14 -57.5t12 -57.5t41.5 -44.5t69 -17.5q38 0 66 17.5t40.5 44.5t12.5 57.5t-13 57.5t-40.5 44.5t-65.5 17.5zM322 1591q53 0 97.5 -16.5t73.5 -44.5t49 -64t25 -76t1 -80.5t-24 -76.5t-48.5 -64t-73 -44.5t-98.5 -16.5
q-56 0 -102.5 16.5t-76 44.5t-50 64t-24.5 76.5t1 80.5t26.5 76t51 64t74.5 44.5t98 16.5z" />
    <glyph glyph-name="plusminus" unicode="&#xb1;" horiz-adv-x="1017" 
d="M119 840h315v321h164v-321h315v-156h-315v-324h-164v324h-315v156zM127 225h780v-155h-780v155z" />
    <glyph glyph-name="twosuperior" unicode="&#xb2;" horiz-adv-x="649" 
d="M80 739v181q0 60 14.5 108t32.5 77t52.5 56t56 39t61.5 31q111 55 111 133q0 90 -89 90q-98 0 -90 -123h-139q-16 266 234 266q110 0 171.5 -59t61.5 -174q0 -55 -15 -97.5t-44 -71.5t-56 -47t-67 -36q-5 -2 -23.5 -11t-24 -12t-21 -11.5t-21 -15t-16.5 -17t-15.5 -22
t-10.5 -27t-8 -34t-2 -40.5v-31h322v-152h-475z" />
    <glyph glyph-name="threesuperior" unicode="&#xb3;" horiz-adv-x="638" 
d="M57 995h152q3 -123 98 -123q99 0 99 119q0 63 -26 88t-73 25h-65v145h65q92 4 92 109q0 44 -23 67t-65 23t-69 -30.5t-27 -92.5h-147q0 135 60.5 198.5t184.5 65.5q109 0 175.5 -56.5t66.5 -174.5q0 -47 -25 -98.5t-69 -73.5q56 -24 80 -71t24 -124q0 -126 -67 -197
t-193 -71q-130 0 -189 67t-59 205z" />
    <glyph glyph-name="acute" unicode="&#xb4;" horiz-adv-x="501" 
d="M266 1313h-155v10l108 260h193v-6z" />
    <glyph glyph-name="_181" unicode="&#xb5;" horiz-adv-x="1112" 
d="M121 -453v2v1641h203v-756q0 -147 60 -213.5t179 -66.5q118 0 177 69.5t59 235.5v729h194v-1188h-166l-20 113q-29 -78 -96.5 -122t-153.5 -44q-194 0 -246 141v-541h-190z" />
    <glyph glyph-name="paragraph" unicode="&#xb6;" horiz-adv-x="1323" 
d="M674 1389v-1817h-203v954q-93 7 -163.5 41t-112 82.5t-67 117t-34.5 136t-8 148.5q1 85 12.5 158t42 144t78.5 120t126 79.5t179 30.5h746v-194h-178v-1815h-199v1815h-219z" />
    <glyph glyph-name="periodcentered" unicode="&#xb7;" horiz-adv-x="411" 
d="M96 678q0 43 24.5 72.5t59 37t69 1t59 -36.5t24.5 -74q0 -41 -24.5 -70.5t-59 -37t-69 -1.5t-59 35.5t-24.5 73.5z" />
    <glyph glyph-name="cedilla" unicode="&#xb8;" horiz-adv-x="602" 
d="M168 -145l-4 -2l45 186h133l-23 -102q54 4 93 -17.5t55 -55.5t23.5 -74t-1.5 -75q-19 -92 -86.5 -144t-158.5 -46q-133 8 -189 104l70 109q18 -31 52 -52.5t71 -21.5q80 0 98 70q13 58 -33.5 91.5t-115.5 2.5z" />
    <glyph glyph-name="onesuperior" unicode="&#xb9;" horiz-adv-x="542" 
d="M78 735v131h131v588h-98v129h237v-717h123v-131h-393z" />
    <glyph glyph-name="ordmasculine" unicode="&#xba;" horiz-adv-x="894" 
d="M446 897q-152 0 -251 93t-99 255q0 161 98 252.5t250 91.5q151 0 250 -91.5t99 -250.5q0 -161 -99.5 -255.5t-247.5 -94.5zM446 1042q88 0 142.5 55.5t54.5 147.5q0 91 -57 149t-142 58q-84 0 -139 -57.5t-55 -147.5q0 -93 53.5 -149t142.5 -56zM133 768h627v-158h-627
v158z" />
    <glyph glyph-name="guillemotright" unicode="&#xbb;" horiz-adv-x="935" 
d="M285 160h-179l279 450l-279 451h179l282 -451zM836 610l-283 -450h-178l278 450l-278 451h178z" />
    <glyph glyph-name="onequarter" unicode="&#xbc;" horiz-adv-x="1550" 
d="M317 -4l758 1589h164l-762 -1589h-160zM1225 170h-330l-18 109l331 550h168v-516h82v-143h-82v-172h-151v172zM1227 313v133l20 197l-180 -330h160zM106 735v131h132v588h-99v129h238v-717h123v-131h-394z" />
    <glyph glyph-name="onehalf" unicode="&#xbd;" horiz-adv-x="1660" 
d="M317 -4l758 1589h164l-762 -1589h-160zM106 735v131h132v588h-99v129h238v-717h123v-131h-394zM1006 0v180q0 60 14.5 108t32.5 77.5t52.5 56.5t56 39t61.5 31q110 54 110 133q0 90 -88 90q-98 0 -90 -123h-139q-16 266 233 266q110 0 172 -59t62 -174q0 -55 -15 -97.5
t-44.5 -72t-56.5 -46.5t-67 -36q-5 -2 -21.5 -10t-21.5 -10.5t-19 -10.5t-19 -12.5t-16 -14t-15.5 -18t-11.5 -21t-9.5 -26t-5 -31t-2.5 -37.5v-30h328v-152h-481z" />
    <glyph glyph-name="threequarters" unicode="&#xbe;" horiz-adv-x="1648" 
d="M379 -4l758 1589h163l-761 -1589h-160zM1286 170h-330l-18 109l332 550h168v-516h82v-143h-82v-172h-152v172zM1288 313v133l21 197l-181 -330h160zM119 995h151q3 -123 99 -123q98 0 98 119q0 63 -25.5 88t-72.5 25h-66v145h66q92 4 92 109q0 44 -23 67t-65 23
t-69.5 -30.5t-27.5 -92.5h-147q0 135 61 198.5t185 65.5q109 0 175 -56.5t66 -174.5q0 -47 -25 -98.5t-69 -73.5q56 -24 80.5 -71t24.5 -124q0 -126 -67 -197t-193 -71q-130 0 -189 67t-59 205z" />
    <glyph glyph-name="questiondown" unicode="&#xbf;" horiz-adv-x="1003" 
d="M743 14h189q0 -57 -3.5 -101t-15 -91t-30.5 -81t-51 -65.5t-76.5 -51t-107.5 -31t-142 -11.5q-414 0 -414 475v72q0 97 21.5 171t56 119t76 81.5t83.5 69t76.5 68.5t56 93t21.5 131h185q0 -96 -21 -169t-54.5 -117.5t-74.5 -80t-81.5 -67.5t-74 -68.5t-54.5 -94
t-21 -134.5v-68q3 -165 55.5 -230.5t173.5 -65.5q133 0 180 50.5t47 196.5zM680 1104q0 -43 -24.5 -72.5t-59 -37t-69 -1t-59 36.5t-24.5 74q0 41 24.5 70.5t59 37t69 1.5t59 -35.5t24.5 -73.5z" />
    <glyph glyph-name="Agrave" unicode="&#xc0;" 
d="M1055 0h-201l-80 293h-473l-80 -293h-203l420 1575h199zM641 813l-104 508l-107 -514l-80 -330h373zM479 1665l-188 238v18h192l138 -240v-16h-142z" />
    <glyph glyph-name="Aacute" unicode="&#xc1;" 
d="M1055 0h-201l-80 293h-473l-80 -293h-203l420 1575h199zM641 813l-104 508l-107 -514l-80 -330h373zM784 1903l-188 -238h-141v16l137 240h192v-18z" />
    <glyph glyph-name="Acircumflex" unicode="&#xc2;" 
d="M1055 0h-201l-80 293h-473l-80 -293h-203l420 1575h199zM641 813l-104 508l-107 -514l-80 -330h373zM461 1921h145l209 -242v-14h-174l-102 117l-105 -117h-174v14z" />
    <glyph glyph-name="Atilde" unicode="&#xc3;" 
d="M1055 0h-201l-80 293h-473l-80 -293h-203l420 1575h199zM641 813l-104 508l-107 -514l-80 -330h373zM371 1667l-113 53q22 93 93 135t157 11l92 -43q79 -29 105 53l116 -47q-21 -104 -90.5 -143.5t-146.5 -8.5l-90 41q-91 32 -123 -51z" />
    <glyph glyph-name="Adieresis" unicode="&#xc4;" 
d="M1055 0h-201l-80 293h-473l-80 -293h-203l420 1575h199zM641 813l-104 508l-107 -514l-80 -330h373zM195 1761q0 53 36.5 84t81 31.5t81 -30t36.5 -85.5q0 -51 -36.5 -82t-81 -32t-81 29t-36.5 85zM641 1761q0 43 24.5 72.5t59 37t69 1t59 -36.5t24.5 -74
q0 -41 -24.5 -70.5t-59 -37t-69 -1.5t-59 35.5t-24.5 73.5z" />
    <glyph glyph-name="Aring" unicode="&#xc5;" 
d="M315 1688h2q0 99 65 156t155 57q89 0 155 -56.5t66 -154.5q0 -63 -28 -111t-75 -74l400 -1505h-201l-80 293h-473l-80 -293h-203l400 1501q-103 59 -103 187zM641 813l-104 508l-107 -514l-80 -330h373zM537 1780q-44 0 -69.5 -29t-25.5 -63.5t25.5 -63.5t69.5 -29
q46 0 72 29t25.5 63.5t-26.5 63.5t-71 29z" />
    <glyph glyph-name="AE" unicode="&#xc6;" horiz-adv-x="1536" 
d="M633 1581h815v-166h-537v-481h504v-174h-504v-586h555v-174h-735v377h-385l-143 -377h-199zM412 551h319v852l-123 -352z" />
    <glyph glyph-name="Ccedilla" unicode="&#xc7;" horiz-adv-x="1187" 
d="M485 -186l-4 -2l43 180q-72 4 -129.5 15t-100.5 31.5t-74.5 44.5t-52.5 60.5t-34.5 73.5t-20.5 89.5t-9.5 101.5t-2.5 116v537q0 111 12 189t44 146.5t88 109.5t145.5 64t214.5 23q102 0 178.5 -12.5t131 -39t90 -62.5t56 -90t29 -113.5t9.5 -140.5h-191
q-1 78 -11.5 124.5t-42 83.5t-92 52.5t-157.5 15.5q-82 0 -137 -13t-89 -36.5t-52 -69t-23.5 -96.5t-5.5 -133v-541q0 -81 6.5 -133t25 -96.5t53 -68.5t88.5 -37t134 -13q69 0 115.5 5t82 20t56 35.5t33 57.5t16.5 80.5t4 110.5h187q0 -71 -3 -119.5t-13 -103.5t-28.5 -90.5
t-51 -71t-79 -56t-113 -34t-153.5 -16.5l-20 -96q44 3 78 -10.5t53.5 -37.5t32 -54.5t13 -62t-2.5 -59.5q-20 -96 -88.5 -145t-161.5 -43q-132 8 -188 104l69 109q18 -31 52 -52.5t71 -21.5q81 0 99 70q13 58 -34 91.5t-116 2.5z" />
    <glyph glyph-name="Egrave" unicode="&#xc8;" horiz-adv-x="1042" 
d="M119 1581h796v-172h-602v-475h545v-182h-545v-570h654v-182h-848v1581zM489 1665l-188 238v18h193l137 -240v-16h-142z" />
    <glyph glyph-name="Eacute" unicode="&#xc9;" horiz-adv-x="1042" 
d="M119 1581h796v-172h-602v-475h545v-182h-545v-570h654v-182h-848v1581zM770 1903l-188 -238h-142v16l138 240h192v-18z" />
    <glyph glyph-name="Ecircumflex" unicode="&#xca;" horiz-adv-x="1042" 
d="M119 1581h796v-172h-602v-475h545v-182h-545v-570h654v-182h-848v1581zM449 1921h145l209 -242v-14h-174l-103 117l-104 -117h-174v14z" />
    <glyph glyph-name="Edieresis" unicode="&#xcb;" horiz-adv-x="1042" 
d="M119 1581h796v-172h-602v-475h545v-182h-545v-570h654v-182h-848v1581zM197 1817q0 53 36.5 84t81 32t81 -30t36.5 -86q0 -51 -36.5 -82t-81 -32t-81 29t-36.5 85zM643 1817q0 43 24.5 72.5t59 37t69 1t59 -36.5t24.5 -74q0 -41 -24.5 -70.5t-59 -37t-69 -1.5t-59 35.5
t-24.5 73.5z" />
    <glyph glyph-name="Igrave" unicode="&#xcc;" horiz-adv-x="481" 
d="M342 -2h-199v1577h199v-1577zM201 1665l-189 238v18h193l137 -240v-16h-141z" />
    <glyph glyph-name="Iacute" unicode="&#xcd;" horiz-adv-x="485" 
d="M342 -2h-199v1577h199v-1577zM473 1903l-188 -238h-142v16l138 240h192v-18z" />
    <glyph glyph-name="Icircumflex" unicode="&#xce;" horiz-adv-x="485" 
d="M342 -2h-199v1577h199v-1577zM184 1946h117l254 -250v-15h-190l-117 117l-119 -117h-190v15z" />
    <glyph glyph-name="Idieresis" unicode="&#xcf;" horiz-adv-x="485" 
d="M-61 1782q0 53 36.5 84t81 31.5t81 -30t36.5 -85.5q0 -51 -36.5 -82t-81 -32t-81 29t-36.5 85zM336 1782q0 53 36.5 84t81 31.5t81 -30t36.5 -85.5q0 -51 -36.5 -82t-81 -32t-81 29t-36.5 85zM342 -2h-199v1577h199v-1577z" />
    <glyph glyph-name="Eth" unicode="&#xd0;" horiz-adv-x="1241" 
d="M621 0h-465v702h-150v160h150v717h479q105 0 183.5 -15t133 -46.5t90.5 -73.5t56 -104.5t27.5 -130t7.5 -158.5v-521q0 -111 -11.5 -188.5t-44 -146.5t-89 -110t-148 -63.5t-219.5 -21.5zM350 186h271q56 0 98.5 4t75 14.5t55.5 23t39 36t25 46t14 60t6.5 71.5t1.5 87
v525q0 53 -1.5 87t-6.5 71.5t-14 60t-25 46t-39 36t-55.5 23t-75 14.5t-98.5 4h-271v-533h244v-160h-244v-516z" />
    <glyph glyph-name="Ntilde" unicode="&#xd1;" horiz-adv-x="1126" 
d="M313 1579l535 -1208l-29 536v672h195v-1579h-183l-520 1135l13 -519v-616h-195v1579h184zM401 1718l-112 54q22 93 93 134.5t157 10.5l92 -43q78 -29 104 53l117 -47q-21 -104 -91 -143t-147 -8l-90 40q-91 32 -123 -51z" />
    <glyph glyph-name="Ograve" unicode="&#xd2;" horiz-adv-x="1220" 
d="M1128 1069v-551q0 -79 -5.5 -139t-20 -117.5t-39.5 -98.5t-63.5 -76t-92 -56.5t-126.5 -33t-165 -11.5t-165 11.5t-126.5 33t-92 56.5t-63.5 76t-39.5 98.5t-20 117.5t-5.5 139v551q0 111 11.5 189t44 147t89 110t147.5 64t220 23t220 -23t147.5 -64t89 -110t44 -147
t11.5 -189zM932 516v555q0 60 -2 98.5t-9 80t-20.5 65.5t-36 47.5t-56.5 35t-81.5 18.5t-110.5 7q-74 0 -126 -8t-87 -28.5t-55 -44.5t-30.5 -69.5t-13.5 -88t-3 -113.5v-555q0 -53 1.5 -87.5t6.5 -72t14 -61t25 -47t39 -36.5t55.5 -24t75 -15.5t98.5 -4.5q63 0 110 6.5
t81.5 18t57 34.5t36 46.5t20.5 64.5t9 79.5t2 98.5zM608 1665l-188 238v18h192l138 -240v-16h-142z" />
    <glyph glyph-name="Oacute" unicode="&#xd3;" horiz-adv-x="1220" 
d="M1128 1069v-551q0 -79 -5.5 -139t-20 -117.5t-39.5 -98.5t-63.5 -76t-92 -56.5t-126.5 -33t-165 -11.5t-165 11.5t-126.5 33t-92 56.5t-63.5 76t-39.5 98.5t-20 117.5t-5.5 139v551q0 111 11.5 189t44 147t89 110t147.5 64t220 23t220 -23t147.5 -64t89 -110t44 -147
t11.5 -189zM932 516v555q0 60 -2 98.5t-9 80t-20.5 65.5t-36 47.5t-56.5 35t-81.5 18.5t-110.5 7q-74 0 -126 -8t-87 -28.5t-55 -44.5t-30.5 -69.5t-13.5 -88t-3 -113.5v-555q0 -53 1.5 -87.5t6.5 -72t14 -61t25 -47t39 -36.5t55.5 -24t75 -15.5t98.5 -4.5q63 0 110 6.5
t81.5 18t57 34.5t36 46.5t20.5 64.5t9 79.5t2 98.5zM887 1903l-189 -238h-141v16l137 240h193v-18z" />
    <glyph glyph-name="Ocircumflex" unicode="&#xd4;" horiz-adv-x="1220" 
d="M1128 1069v-551q0 -79 -5.5 -139t-20 -117.5t-39.5 -98.5t-63.5 -76t-92 -56.5t-126.5 -33t-165 -11.5t-165 11.5t-126.5 33t-92 56.5t-63.5 76t-39.5 98.5t-20 117.5t-5.5 139v551q0 111 11.5 189t44 147t89 110t147.5 64t220 23t220 -23t147.5 -64t89 -110t44 -147
t11.5 -189zM932 516v555q0 60 -2 98.5t-9 80t-20.5 65.5t-36 47.5t-56.5 35t-81.5 18.5t-110.5 7q-74 0 -126 -8t-87 -28.5t-55 -44.5t-30.5 -69.5t-13.5 -88t-3 -113.5v-555q0 -53 1.5 -87.5t6.5 -72t14 -61t25 -47t39 -36.5t55.5 -24t75 -15.5t98.5 -4.5q63 0 110 6.5
t81.5 18t57 34.5t36 46.5t20.5 64.5t9 79.5t2 98.5zM559 1921h146l208 -242v-14h-174l-102 117l-105 -117h-174v14z" />
    <glyph glyph-name="Otilde" unicode="&#xd5;" horiz-adv-x="1220" 
d="M1128 1069v-551q0 -79 -5.5 -139t-20 -117.5t-39.5 -98.5t-63.5 -76t-92 -56.5t-126.5 -33t-165 -11.5t-165 11.5t-126.5 33t-92 56.5t-63.5 76t-39.5 98.5t-20 117.5t-5.5 139v551q0 111 11.5 189t44 147t89 110t147.5 64t220 23t220 -23t147.5 -64t89 -110t44 -147
t11.5 -189zM932 516v555q0 60 -2 98.5t-9 80t-20.5 65.5t-36 47.5t-56.5 35t-81.5 18.5t-110.5 7q-74 0 -126 -8t-87 -28.5t-55 -44.5t-30.5 -69.5t-13.5 -88t-3 -113.5v-555q0 -53 1.5 -87.5t6.5 -72t14 -61t25 -47t39 -36.5t55.5 -24t75 -15.5t98.5 -4.5q63 0 110 6.5
t81.5 18t57 34.5t36 46.5t20.5 64.5t9 79.5t2 98.5zM465 1667l-113 53q22 93 93 135t157 11l92 -43q79 -29 105 53l116 -47q-21 -104 -90.5 -143.5t-146.5 -8.5l-90 41q-91 32 -123 -51z" />
    <glyph glyph-name="Odieresis" unicode="&#xd6;" horiz-adv-x="1220" 
d="M1128 1069v-551q0 -79 -5.5 -139t-20 -117.5t-39.5 -98.5t-63.5 -76t-92 -56.5t-126.5 -33t-165 -11.5t-165 11.5t-126.5 33t-92 56.5t-63.5 76t-39.5 98.5t-20 117.5t-5.5 139v551q0 111 11.5 189t44 147t89 110t147.5 64t220 23t220 -23t147.5 -64t89 -110t44 -147
t11.5 -189zM932 516v555q0 60 -2 98.5t-9 80t-20.5 65.5t-36 47.5t-56.5 35t-81.5 18.5t-110.5 7q-74 0 -126 -8t-87 -28.5t-55 -44.5t-30.5 -69.5t-13.5 -88t-3 -113.5v-555q0 -53 1.5 -87.5t6.5 -72t14 -61t25 -47t39 -36.5t55.5 -24t75 -15.5t98.5 -4.5q63 0 110 6.5
t81.5 18t57 34.5t36 46.5t20.5 64.5t9 79.5t2 98.5zM289 1815q0 53 36.5 84t81 32t81 -30t36.5 -86q0 -51 -36.5 -82t-81 -32t-81 29t-36.5 85zM735 1815q0 43 24.5 72.5t59 37t69 1t59 -36.5t24.5 -74q0 -41 -24.5 -70.5t-59 -37t-69 -1.5t-59 35.5t-24.5 73.5z" />
    <glyph glyph-name="multiply" unicode="&#xd7;" horiz-adv-x="962" 
d="M254 991l225 -227l228 227l108 -106l-231 -234l235 -233l-106 -103l-232 234l-231 -234l-111 109l234 233l-230 228z" />
    <glyph glyph-name="Oslash" unicode="&#xd8;" horiz-adv-x="1220" 
d="M1128 1069v-551q0 -79 -5.5 -139t-20 -117.5t-39.5 -98.5t-63.5 -76t-92 -56.5t-126.5 -33t-165 -11.5q-129 0 -225 22l-61 -164h-164l86 228q-84 61 -116 168t-32 278v551q0 111 11.5 189t44 147t89 110t147.5 64t220 23q105 0 205 -21l66 172h164l-86 -225
q94 -59 128.5 -169.5t34.5 -289.5zM932 516v555q0 98 -8.5 159t-32.5 101l-434 -1149q57 -14 159 -14q63 0 110 6.5t81.5 18t57 34.5t36 46.5t20.5 64.5t9 79.5t2 98.5zM301 516q0 -92 5.5 -145.5t23.5 -91.5l428 1132q-59 12 -142 12q-74 0 -126 -8t-87 -28.5t-55 -44.5
t-30.5 -69.5t-13.5 -88t-3 -113.5v-555z" />
    <glyph glyph-name="Ugrave" unicode="&#xd9;" horiz-adv-x="1232" 
d="M901 518v1063h197v-1061q0 -135 -23.5 -230t-78.5 -165t-150 -103.5t-234 -33.5t-234.5 33.5t-151 103.5t-79.5 165t-24 230v1059h196v-1061q0 -99 11.5 -160.5t43.5 -106t89 -63t149 -18.5q73 0 123.5 13t83.5 37t51 68t24.5 97t6.5 133zM592 1665l-189 238v18h193
l137 -240v-16h-141z" />
    <glyph glyph-name="Uacute" unicode="&#xda;" horiz-adv-x="1232" 
d="M901 518v1063h197v-1061q0 -135 -23.5 -230t-78.5 -165t-150 -103.5t-234 -33.5t-234.5 33.5t-151 103.5t-79.5 165t-24 230v1059h196v-1061q0 -99 11.5 -160.5t43.5 -106t89 -63t149 -18.5q73 0 123.5 13t83.5 37t51 68t24.5 97t6.5 133zM868 1903l-188 -238h-141v16
l137 240h192v-18z" />
    <glyph glyph-name="Ucircumflex" unicode="&#xdb;" horiz-adv-x="1232" 
d="M901 518v1063h197v-1061q0 -135 -23.5 -230t-78.5 -165t-150 -103.5t-234 -33.5t-234.5 33.5t-151 103.5t-79.5 165t-24 230v1059h196v-1061q0 -99 11.5 -160.5t43.5 -106t89 -63t149 -18.5q73 0 123.5 13t83.5 37t51 68t24.5 97t6.5 133zM569 1960h117l254 -250v-14
h-190l-117 116l-119 -116h-190v14z" />
    <glyph glyph-name="Udieresis" unicode="&#xdc;" horiz-adv-x="1232" 
d="M901 518v1063h197v-1061q0 -135 -23.5 -230t-78.5 -165t-150 -103.5t-234 -33.5t-234.5 33.5t-151 103.5t-79.5 165t-24 230v1059h196v-1061q0 -99 11.5 -160.5t43.5 -106t89 -63t149 -18.5q73 0 123.5 13t83.5 37t51 68t24.5 97t6.5 133zM279 1825q0 53 36.5 84t81 32
t81 -30t36.5 -86q0 -51 -36.5 -82t-81 -32t-81 29t-36.5 85zM725 1825q0 43 24.5 72.5t59 37t69 1t59 -36.5t24.5 -74q0 -41 -24.5 -70.5t-59 -37t-69 -1.5t-59 35.5t-24.5 73.5z" />
    <glyph glyph-name="Yacute" unicode="&#xdd;" horiz-adv-x="944" 
d="M334 1274l139 -393l139 393l127 307h211l-381 -919v-664h-194v664l-379 919h211zM731 1903l-188 -238h-142v16l138 240h192v-18z" />
    <glyph glyph-name="Thorn" unicode="&#xde;" horiz-adv-x="1085" 
d="M143 1579h195v-250h229q218 0 333.5 -101t115.5 -329v-172q0 -245 -103.5 -351t-345.5 -106h-229v-270h-195v1579zM567 1145h-229v-688h229q137 0 195.5 56.5t58.5 213.5v172q0 81 -14 130t-48 74.5t-77 33.5t-115 8z" />
    <glyph glyph-name="germandbls" unicode="&#xdf;" horiz-adv-x="1058" 
d="M299 1196v-1196h-195v1196q0 94 17.5 164.5t58.5 128t116.5 87.5t182.5 30t181.5 -30t115 -87.5t57.5 -128t17 -164.5q0 -215 -133 -313q140 -41 203 -142.5t63 -259.5q0 -255 -108 -368t-365 -113h-119v172h123q70 0 120 15.5t79.5 40.5t46.5 66t22.5 83.5t5.5 101.5
q0 148 -63.5 208.5t-204.5 60.5h-125v186h49q54 0 93.5 17t61.5 41.5t34.5 62t16 69.5t3.5 72q0 119 -38.5 177.5t-139.5 58.5q-97 0 -136.5 -59.5t-39.5 -176.5z" />
    <glyph glyph-name="agrave" unicode="&#xe0;" 
d="M944 809v-809h-176l-16 162q-34 -71 -118.5 -121.5t-187.5 -50.5q-79 0 -140.5 16.5t-99.5 43t-63.5 65.5t-36.5 77t-16 84q-15 158 84.5 265t284.5 133q93 14 289 18v117q0 110 -50.5 166.5t-177.5 56.5q-93 0 -141 -43.5t-47 -157.5h-191q-6 195 92 287t293 92
q205 0 311.5 -95t106.5 -306zM752 530q-188 0 -277 -20q-208 -45 -188 -209q6 -66 56 -95.5t124 -29.5q78 0 134 27t87.5 77t46.5 111t17 139zM545 1298l-189 238v18h193l137 -239v-17h-141z" />
    <glyph glyph-name="aacute" unicode="&#xe1;" 
d="M944 809v-809h-176l-16 162q-34 -71 -118.5 -121.5t-187.5 -50.5q-79 0 -140.5 16.5t-99.5 43t-63.5 65.5t-36.5 77t-16 84q-15 158 84.5 265t284.5 133q93 14 289 18v117q0 110 -50.5 166.5t-177.5 56.5q-93 0 -141 -43.5t-47 -157.5h-191q-6 195 92 287t293 92
q205 0 311.5 -95t106.5 -306zM752 530q-188 0 -277 -20q-208 -45 -188 -209q6 -66 56 -95.5t124 -29.5q78 0 134 27t87.5 77t46.5 111t17 139zM809 1536l-188 -238h-142v17l137 239h193v-18z" />
    <glyph glyph-name="acircumflex" unicode="&#xe2;" 
d="M944 809v-809h-176l-16 162q-34 -71 -118.5 -121.5t-187.5 -50.5q-79 0 -140.5 16.5t-99.5 43t-63.5 65.5t-36.5 77t-16 84q-15 158 84.5 265t284.5 133q93 14 289 18v117q0 110 -50.5 166.5t-177.5 56.5q-93 0 -141 -43.5t-47 -157.5h-191q-6 195 92 287t293 92
q205 0 311.5 -95t106.5 -306zM752 530q-188 0 -277 -20q-208 -45 -188 -209q6 -66 56 -95.5t124 -29.5q78 0 134 27t87.5 77t46.5 111t17 139zM489 1554h146l209 -241v-15h-174l-103 117l-104 -117h-174v15z" />
    <glyph glyph-name="atilde" unicode="&#xe3;" 
d="M944 809v-809h-176l-16 162q-34 -71 -118.5 -121.5t-187.5 -50.5q-79 0 -140.5 16.5t-99.5 43t-63.5 65.5t-36.5 77t-16 84q-15 158 84.5 265t284.5 133q93 14 289 18v117q0 110 -50.5 166.5t-177.5 56.5q-93 0 -141 -43.5t-47 -157.5h-191q-6 195 92 287t293 92
q205 0 311.5 -95t106.5 -306zM752 530q-188 0 -277 -20q-208 -45 -188 -209q6 -66 56 -95.5t124 -29.5q78 0 134 27t87.5 77t46.5 111t17 139zM408 1315l-113 53q22 93 93 134.5t157 10.5l92 -43q78 -29 104 54l117 -47q-21 -104 -90.5 -143.5t-146.5 -8.5l-91 41
q-90 32 -122 -51z" />
    <glyph glyph-name="adieresis" unicode="&#xe4;" 
d="M254 1475q0 53 36.5 84t81 32t81 -30t36.5 -86q0 -51 -36.5 -82t-81 -32t-81 29t-36.5 85zM657 1475q0 43 24.5 72.5t59 37t69 1t59 -36.5t24.5 -74q0 -41 -24.5 -70.5t-59 -37t-69 -1.5t-59 35.5t-24.5 73.5zM944 809v-809h-176l-16 162q-34 -71 -118.5 -121.5
t-187.5 -50.5q-79 0 -140.5 16.5t-99.5 43t-63.5 65.5t-36.5 77t-16 84q-15 158 84.5 265t284.5 133q93 14 289 18v117q0 110 -50.5 166.5t-177.5 56.5q-93 0 -141 -43.5t-47 -157.5h-191q-6 195 92 287t293 92q205 0 311.5 -95t106.5 -306zM752 530q-188 0 -277 -20
q-208 -45 -188 -209q6 -66 56 -95.5t124 -29.5q78 0 134 27t87.5 77t46.5 111t17 139z" />
    <glyph glyph-name="aring" unicode="&#xe5;" 
d="M944 809v-809h-176l-16 162q-34 -71 -118.5 -121.5t-187.5 -50.5q-79 0 -140.5 16.5t-99.5 43t-63.5 65.5t-36.5 77t-16 84q-15 158 84.5 265t284.5 133q93 14 289 18v117q0 110 -50.5 166.5t-177.5 56.5q-93 0 -141 -43.5t-47 -157.5h-191q-6 195 92 287t293 92
q205 0 311.5 -95t106.5 -306zM752 530q-188 0 -277 -20q-208 -45 -188 -209q6 -66 56 -95.5t124 -29.5q78 0 134 27t87.5 77t46.5 111t17 139zM330 1487q0 90 64.5 141t156.5 51q89 0 156 -51t67 -139q0 -90 -65.5 -141.5t-159.5 -51.5q-96 0 -158 51t-61 140zM551 1571
q-45 0 -70.5 -26t-25.5 -57t25.5 -57t70.5 -26q46 0 72 26t25.5 57t-26.5 57t-71 26z" />
    <glyph glyph-name="ae" unicode="&#xe6;" horiz-adv-x="1687" 
d="M1397 344h190q0 -181 -101.5 -272.5t-330.5 -91.5q-146 0 -228.5 43t-129.5 135q-76 -95 -160.5 -136.5t-200.5 -41.5q-327 0 -356 296q-15 160 81.5 266t287.5 132q92 14 294 18v117q0 109 -52.5 166t-180.5 57q-93 0 -141 -43.5t-47 -157.5h-191q-6 195 92 287t293 92
q115 0 193 -32.5t120 -110.5q50 77 129.5 111t196.5 34q213 0 324.5 -103t111.5 -331v-260h-680v-90q0 -108 26 -166t76 -79t142 -21q129 0 185.5 44t56.5 138zM911 778v-86h492v86q0 79 -16 131t-50 80t-76.5 38.5t-105.5 10.5t-104.5 -10.5t-75 -38t-49 -79.5t-15.5 -132z
M748 524q-7 0 -51 1t-74.5 1t-76.5 -4t-81 -12q-209 -45 -189 -209q6 -66 57 -97.5t124 -31.5q280 0 291 352z" />
    <glyph glyph-name="ccedilla" unicode="&#xe7;" horiz-adv-x="1081" 
d="M430 -186l-4 -2l43 172q-191 15 -279 122.5t-88 329.5v340q0 229 116 332.5t333 103.5q104 0 180 -20t134 -65t89 -124t35 -192l-184 -2q-3 69 -20.5 114t-52 68.5t-76.5 32t-105 8.5q-66 0 -109.5 -9.5t-78 -36.5t-50.5 -78.5t-16 -131.5v-340q0 -80 16 -133.5t49.5 -83
t78 -41.5t110.5 -12q67 0 110 9t77 34t50 73t17 124h184q-3 -221 -92.5 -318t-294.5 -106l-20 -88q43 3 76.5 -10t52 -36t30.5 -52.5t12 -59.5t-3 -58q-19 -89 -86.5 -139.5t-157.5 -44.5q-130 8 -187 103l68 104q18 -30 52.5 -51t70.5 -21q79 0 98 68q11 57 -34.5 89
t-114.5 3z" />
    <glyph glyph-name="egrave" unicode="&#xe8;" horiz-adv-x="1085" 
d="M801 348h188q0 -178 -105 -269t-333 -91q-240 0 -341 99t-101 339v350q0 226 114 327t328 101q442 0 442 -428v-256h-692v-90q0 -154 57 -208t193 -54q129 0 189.5 44t60.5 136zM301 776v-86h506v86q0 77 -17.5 128.5t-53.5 79t-79.5 38t-105.5 10.5t-104.5 -10.5
t-77.5 -37.5t-51.5 -78.5t-16.5 -129.5zM541 1298l-189 238v18h193l137 -239v-17h-141z" />
    <glyph glyph-name="eacute" unicode="&#xe9;" horiz-adv-x="1085" 
d="M801 348h188q0 -178 -105 -269t-333 -91q-240 0 -341 99t-101 339v350q0 226 114 327t328 101q442 0 442 -428v-256h-692v-90q0 -154 57 -208t193 -54q129 0 189.5 44t60.5 136zM301 776v-86h506v86q0 77 -17.5 128.5t-53.5 79t-79.5 38t-105.5 10.5t-104.5 -10.5
t-77.5 -37.5t-51.5 -78.5t-16.5 -129.5zM799 1536l-189 -238h-141v17l137 239h193v-18z" />
    <glyph glyph-name="ecircumflex" unicode="&#xea;" horiz-adv-x="1085" 
d="M801 348h188q0 -178 -105 -269t-333 -91q-240 0 -341 99t-101 339v350q0 226 114 327t328 101q442 0 442 -428v-256h-692v-90q0 -154 57 -208t193 -54q129 0 189.5 44t60.5 136zM301 776v-86h506v86q0 77 -17.5 128.5t-53.5 79t-79.5 38t-105.5 10.5t-104.5 -10.5
t-77.5 -37.5t-51.5 -78.5t-16.5 -129.5zM496 1554h145l209 -241v-15h-174l-103 117l-104 -117h-174v15z" />
    <glyph glyph-name="edieresis" unicode="&#xeb;" horiz-adv-x="1085" 
d="M260 1475q0 43 24.5 72.5t59 37t69 1t59 -36.5t24.5 -74q0 -41 -24.5 -70.5t-59 -37t-69 -1.5t-59 35.5t-24.5 73.5zM655 1475q0 43 24.5 72.5t59 37t69 1t59 -36.5t24.5 -74q0 -41 -24.5 -70.5t-59 -37t-69 -1.5t-59 35.5t-24.5 73.5zM801 348h188q0 -178 -105 -269
t-333 -91q-240 0 -341 99t-101 339v350q0 226 114 327t328 101q442 0 442 -428v-256h-692v-90q0 -154 57 -208t193 -54q129 0 189.5 44t60.5 136zM301 776v-86h506v86q0 77 -17.5 128.5t-53.5 79t-79.5 38t-105.5 10.5t-104.5 -10.5t-77.5 -37.5t-51.5 -78.5t-16.5 -129.5z
" />
    <glyph glyph-name="igrave" unicode="&#xec;" horiz-adv-x="501" 
d="M356 0h-194v1190h194v-1190zM215 1298l-188 238v18h192l137 -239v-17h-141z" />
    <glyph glyph-name="iacute" unicode="&#xed;" horiz-adv-x="501" 
d="M356 0h-194v1190h194v-1190zM492 1536l-189 -238h-141v17l137 239h193v-18z" />
    <glyph glyph-name="icircumflex" unicode="&#xee;" horiz-adv-x="501" 
d="M207 1589h98l217 -262v-14h-162l-100 104l-100 -104h-162v14zM356 0h-194v1190h194v-1190z" />
    <glyph glyph-name="idieresis" unicode="&#xef;" horiz-adv-x="571" 
d="M-12 1475q0 53 36.5 84t81 32t81 -30t36.5 -86q0 -51 -36.5 -82t-81 -32t-81 29t-36.5 85zM354 1475q0 43 24.5 72.5t59 37t69 1t59 -36.5t24.5 -74q0 -41 -24.5 -70.5t-59 -37t-69 -1.5t-59 35.5t-24.5 73.5zM377 0h-195v1190h195v-1190z" />
    <glyph glyph-name="eth" unicode="&#xf0;" horiz-adv-x="1118" 
d="M440 1225l-63 96l108 72q-94 82 -225 176l4 14h258q63 -44 119 -92l133 90l66 -96l-113 -76q132 -140 208.5 -313t76.5 -369v-291q0 -245 -103.5 -350.5t-345.5 -105.5t-345 105.5t-103 350.5v291q0 212 103 315t288 103q114 0 211 -25q-51 94 -146 189zM563 166
q137 0 195.5 56.5t58.5 213.5v291q0 144 -59 197t-195 53t-195 -53t-59 -197v-291q0 -157 58.5 -213.5t195.5 -56.5z" />
    <glyph glyph-name="ntilde" unicode="&#xf1;" horiz-adv-x="1193" 
d="M162 0v1198h174l12 -127q50 81 127.5 111t179.5 30q204 0 301 -99.5t97 -332.5v-780h-197v778q0 125 -62.5 190.5t-170.5 65.5q-116 0 -190.5 -66t-74.5 -188v-780h-196zM455 1384l-113 54q22 93 93 134.5t157 10.5l92 -43q78 -29 104 53l117 -47q-21 -104 -90.5 -143
t-146.5 -8l-90 41q-91 32 -123 -52z" />
    <glyph glyph-name="ograve" unicode="&#xf2;" horiz-adv-x="1101" 
d="M551 150q138 0 196 63t58 223v342q0 80 -16 132t-51 79.5t-78.5 38t-108.5 10.5t-108.5 -10.5t-78.5 -38t-51 -79.5t-16 -132v-342q0 -159 60 -222.5t194 -63.5zM551 -20q-242 0 -345.5 105.5t-103.5 350.5v342q0 229 116 331.5t333 102.5t332.5 -102.5t115.5 -331.5
v-342q0 -244 -105 -350t-343 -106zM549 1298l-189 238v18h193l137 -239v-17h-141z" />
    <glyph glyph-name="oacute" unicode="&#xf3;" horiz-adv-x="1101" 
d="M551 150q138 0 196 63t58 223v342q0 80 -16 132t-51 79.5t-78.5 38t-108.5 10.5t-108.5 -10.5t-78.5 -38t-51 -79.5t-16 -132v-342q0 -159 60 -222.5t194 -63.5zM551 -20q-242 0 -345.5 105.5t-103.5 350.5v342q0 229 116 331.5t333 102.5t332.5 -102.5t115.5 -331.5
v-342q0 -244 -105 -350t-343 -106zM805 1536l-189 -238h-141v17l137 239h193v-18z" />
    <glyph glyph-name="ocircumflex" unicode="&#xf4;" horiz-adv-x="1101" 
d="M551 150q138 0 196 63t58 223v342q0 80 -16 132t-51 79.5t-78.5 38t-108.5 10.5t-108.5 -10.5t-78.5 -38t-51 -79.5t-16 -132v-342q0 -159 60 -222.5t194 -63.5zM551 -20q-242 0 -345.5 105.5t-103.5 350.5v342q0 229 116 331.5t333 102.5t332.5 -102.5t115.5 -331.5
v-342q0 -244 -105 -350t-343 -106zM487 1554h146l209 -241v-15h-174l-103 117l-104 -117h-174v15z" />
    <glyph glyph-name="otilde" unicode="&#xf5;" horiz-adv-x="1101" 
d="M551 150q138 0 196 63t58 223v342q0 80 -16 132t-51 79.5t-78.5 38t-108.5 10.5t-108.5 -10.5t-78.5 -38t-51 -79.5t-16 -132v-342q0 -159 60 -222.5t194 -63.5zM551 -20q-242 0 -345.5 105.5t-103.5 350.5v342q0 229 116 331.5t333 102.5t332.5 -102.5t115.5 -331.5
v-342q0 -244 -105 -350t-343 -106zM399 1315l-112 53q22 93 93 134.5t157 10.5l92 -43q78 -29 104 54l117 -47q-21 -104 -91 -143.5t-147 -8.5l-90 41q-91 32 -123 -51z" />
    <glyph glyph-name="odieresis" unicode="&#xf6;" horiz-adv-x="1101" 
d="M244 1475q0 53 36.5 84t81 32t81 -30t36.5 -86q0 -51 -36.5 -82t-81 -32t-81 29t-36.5 85zM639 1475q0 53 36.5 84t81 32t81 -30t36.5 -86q0 -51 -36.5 -82t-81 -32t-81 29t-36.5 85zM551 150q138 0 196 63t58 223v342q0 80 -16 132t-51 79.5t-78.5 38t-108.5 10.5
t-108.5 -10.5t-78.5 -38t-51 -79.5t-16 -132v-342q0 -159 60 -222.5t194 -63.5zM551 -20q-242 0 -345.5 105.5t-103.5 350.5v342q0 229 116 331.5t333 102.5t332.5 -102.5t115.5 -331.5v-342q0 -244 -105 -350t-343 -106z" />
    <glyph glyph-name="divide" unicode="&#xf7;" horiz-adv-x="1044" 
d="M399 1014q0 51 34 80.5t75.5 29.5t75.5 -29.5t34 -80.5t-34 -79.5t-75.5 -28.5t-75.5 28.5t-34 79.5zM72 592h868v166h-868v-166zM399 326q0 51 34 80.5t75.5 29.5t75.5 -29.5t34 -80.5t-34 -79.5t-75.5 -28.5t-75.5 28.5t-34 79.5z" />
    <glyph glyph-name="oslash" unicode="&#xf8;" horiz-adv-x="1101" 
d="M324 -150h-164l84 201q-74 53 -108 147t-34 238v342q0 229 116 331.5t333 102.5q93 0 170 -18l55 133h164l-82 -197q141 -107 141 -352v-342q0 -244 -105 -350t-343 -106q-90 0 -168 16zM297 436q0 -112 31 -182l323 774q-48 10 -100 10q-65 0 -108.5 -10.5t-78.5 -38
t-51 -79.5t-16 -132v-342zM551 150q138 0 196 63t58 223v342q0 98 -29 158l-323 -776q36 -10 98 -10z" />
    <glyph glyph-name="ugrave" unicode="&#xf9;" horiz-adv-x="1193" 
d="M1051 1190v-1190h-174l-13 127q-50 -81 -127.5 -111t-179.5 -30q-204 0 -300.5 99.5t-96.5 332.5v772h196v-770q0 -125 63 -190.5t171 -65.5q116 0 190 65.5t74 188.5v772h197zM584 1298l-189 238v18h193l137 -239v-17h-141z" />
    <glyph glyph-name="uacute" unicode="&#xfa;" horiz-adv-x="1193" 
d="M1051 1190v-1190h-174l-13 127q-50 -81 -127.5 -111t-179.5 -30q-204 0 -300.5 99.5t-96.5 332.5v772h196v-770q0 -125 63 -190.5t171 -65.5q116 0 190 65.5t74 188.5v772h197zM866 1536l-188 -238h-141v17l137 239h192v-18z" />
    <glyph glyph-name="ucircumflex" unicode="&#xfb;" horiz-adv-x="1193" 
d="M1051 1190v-1190h-174l-13 127q-50 -81 -127.5 -111t-179.5 -30q-204 0 -300.5 99.5t-96.5 332.5v772h196v-770q0 -125 63 -190.5t171 -65.5q116 0 190 65.5t74 188.5v772h197zM547 1589h117l254 -250v-14h-191l-117 117l-118 -117h-191v14z" />
    <glyph glyph-name="udieresis" unicode="&#xfc;" horiz-adv-x="1193" 
d="M1051 1190v-1190h-174l-13 127q-50 -81 -127.5 -111t-179.5 -30q-204 0 -300.5 99.5t-96.5 332.5v772h196v-770q0 -125 63 -190.5t171 -65.5q116 0 190 65.5t74 188.5v772h197zM291 1475q0 53 36.5 84t81 32t81 -30t36.5 -86q0 -51 -36.5 -82t-81 -32t-81 29t-36.5 85z
M737 1475q0 43 24.5 72.5t59 37t69 1t59 -36.5t24.5 -74q0 -41 -24.5 -70.5t-59 -37t-69 -1.5t-59 35.5t-24.5 73.5z" />
    <glyph glyph-name="yacute" unicode="&#xfd;" horiz-adv-x="1005" 
d="M358 813l154 -555q43 220 150 567l116 373h203l-375 -1200l-71 -227q-57 -180 -162 -229.5t-275 20.5l35 166q37 -15 65.5 -20.5t61 -0.5t58.5 35.5t44 85.5l50 170l-381 1200h213zM768 1536l-188 -238h-142v17l137 239h193v-18z" />
    <glyph glyph-name="thorn" unicode="&#xfe;" horiz-adv-x="1150" 
d="M135 -403v1986h195v-528q32 71 110.5 110t180.5 39q93 0 165 -22.5t127 -71.5t84 -134t29 -204v-315q0 -237 -105 -351t-300 -114q-106 0 -174.5 21.5t-114.5 82.5v-499h-197zM332 451q0 -151 56.5 -211t189.5 -60q134 0 193.5 63t59.5 218v313q0 142 -56.5 195
t-182.5 53q-132 -5 -196 -74.5t-64 -238.5v-258z" />
    <glyph glyph-name="ydieresis" unicode="&#xff;" horiz-adv-x="1005" 
d="M358 813l154 -555q43 220 150 567l116 373h203l-375 -1200l-71 -227q-57 -180 -162 -229.5t-275 20.5l35 166q37 -15 65.5 -20.5t61 -0.5t58.5 35.5t44 85.5l50 170l-381 1200h213zM174 1475q0 43 24.5 72.5t59 37t69 1t59 -36.5t24.5 -74q0 -41 -24.5 -70.5t-59 -37
t-69 -1.5t-59 35.5t-24.5 73.5zM621 1475q0 53 36.5 84t81 32t81 -30t36.5 -86q0 -51 -36.5 -82t-81 -32t-81 29t-36.5 85z" />
    <glyph glyph-name="Amacron" unicode="&#x100;" 
d="M311 1851h449v-151h-449v151zM1055 0h-201l-80 293h-473l-80 -293h-203l420 1575h199zM641 813l-104 508l-107 -514l-80 -330h373z" />
    <glyph glyph-name="amacron" unicode="&#x101;" 
d="M319 1548h449v-151h-449v151zM944 809v-809h-176l-16 162q-34 -71 -118.5 -121.5t-187.5 -50.5q-79 0 -140.5 16.5t-99.5 43t-63.5 65.5t-36.5 77t-16 84q-15 158 84.5 265t284.5 133q93 14 289 18v117q0 110 -50.5 166.5t-177.5 56.5q-93 0 -141 -43.5t-47 -157.5h-191
q-6 195 92 287t293 92q205 0 311.5 -95t106.5 -306zM752 530q-188 0 -277 -20q-208 -45 -188 -209q6 -66 56 -95.5t124 -29.5q78 0 134 27t87.5 77t46.5 111t17 139z" />
    <glyph glyph-name="Abreve" unicode="&#x102;" 
d="M1055 0h-201l-80 293h-473l-80 -293h-203l420 1575h199zM641 813l-104 508l-107 -514l-80 -330h373zM541 1651q-136 0 -196 56.5t-54 182.5h139q0 -60 21 -85t90 -25q68 0 87 24.5t19 85.5h139q6 -127 -52 -183t-193 -56z" />
    <glyph glyph-name="abreve" unicode="&#x103;" 
d="M944 809v-809h-176l-16 162q-34 -71 -118.5 -121.5t-187.5 -50.5q-79 0 -140.5 16.5t-99.5 43t-63.5 65.5t-36.5 77t-16 84q-15 158 84.5 265t284.5 133q93 14 289 18v117q0 110 -50.5 166.5t-177.5 56.5q-93 0 -141 -43.5t-47 -157.5h-191q-6 195 92 287t293 92
q205 0 311.5 -95t106.5 -306zM752 530q-188 0 -277 -20q-208 -45 -188 -209q6 -66 56 -95.5t124 -29.5q78 0 134 27t87.5 77t46.5 111t17 139zM588 1300q-136 0 -196 56.5t-54 183.5h139q0 -60 21 -85t90 -25q68 0 87 24.5t19 85.5h140q6 -127 -52.5 -183.5t-193.5 -56.5z
" />
    <glyph glyph-name="Aogonek" unicode="&#x104;" 
d="M1055 0q-69 -28 -107.5 -74t-38.5 -76q0 -67 72 -67q42 0 74 4v-174q-328 -18 -328 174q0 70 43 124t109 89h-25l-80 293h-473l-80 -293h-203l420 1575h199zM641 813l-104 508l-107 -514l-80 -330h373z" />
    <glyph glyph-name="aogonek" unicode="&#x105;" 
d="M944 809v-809q-69 -28 -107 -74t-38 -76q0 -67 71 -67q42 0 74 4v-174q-328 -18 -328 174q0 70 43 124t109 89l-16 162q-34 -71 -118.5 -121.5t-187.5 -50.5q-79 0 -140.5 16.5t-99.5 43t-63.5 65.5t-36.5 77t-16 84q-15 158 84.5 265t284.5 133q93 14 289 18v117
q0 110 -50.5 166.5t-177.5 56.5q-93 0 -141 -43.5t-47 -157.5h-191q-6 195 92 287t293 92q205 0 311.5 -95t106.5 -306zM752 530q-188 0 -277 -20q-208 -45 -188 -209q6 -66 56 -95.5t124 -29.5q78 0 134 27t87.5 77t46.5 111t17 139z" />
    <glyph glyph-name="Cacute" unicode="&#x106;" horiz-adv-x="1187" 
d="M1098 1135h-191q-1 78 -11.5 124.5t-42 83.5t-92 52.5t-157.5 15.5q-82 0 -137 -13t-89 -36.5t-52 -69t-23.5 -96.5t-5.5 -133v-541q0 -81 6.5 -133t25 -96.5t53 -68.5t88.5 -37t134 -13q69 0 115.5 5t82 20t56 35.5t33 57.5t16.5 80.5t4 110.5h187q0 -57 -1.5 -97.5
t-7.5 -87t-16.5 -79t-28.5 -67t-44 -57.5t-63 -44.5t-84.5 -33.5t-110 -19.5t-138.5 -7.5q-86 0 -154 8.5t-119 27t-89 42t-63 60.5t-41 74.5t-24 92.5t-11 106t-3 123v537q0 111 12 189t44 146.5t88 109.5t145.5 64t214.5 23q102 0 178.5 -12.5t131 -39t90 -62.5t56 -90
t29 -113.5t9.5 -140.5zM680 1710h-156v10l109 260h192v-6z" />
    <glyph glyph-name="cacute" unicode="&#x107;" horiz-adv-x="1081" 
d="M805 406h184q-3 -235 -103 -330.5t-335 -95.5t-342 106.5t-107 349.5v340q0 229 116 332.5t333 103.5q104 0 180 -20t134 -65t89 -124t35 -192l-184 -2q-3 69 -20.5 114t-52 68.5t-76.5 32t-105 8.5q-66 0 -109.5 -9.5t-78 -36.5t-50.5 -78.5t-16 -131.5v-340
q0 -80 16 -133.5t49.5 -83t78 -41.5t110.5 -12q67 0 110 9t77 34t50 73t17 124zM610 1325h-155v10l108 260h193v-6z" />
    <glyph glyph-name="Ccircumflex" unicode="&#x108;" horiz-adv-x="1187" 
d="M1098 1135h-191q-1 78 -11.5 124.5t-42 83.5t-92 52.5t-157.5 15.5q-82 0 -137 -13t-89 -36.5t-52 -69t-23.5 -96.5t-5.5 -133v-541q0 -81 6.5 -133t25 -96.5t53 -68.5t88.5 -37t134 -13q69 0 115.5 5t82 20t56 35.5t33 57.5t16.5 80.5t4 110.5h187q0 -57 -1.5 -97.5
t-7.5 -87t-16.5 -79t-28.5 -67t-44 -57.5t-63 -44.5t-84.5 -33.5t-110 -19.5t-138.5 -7.5q-86 0 -154 8.5t-119 27t-89 42t-63 60.5t-41 74.5t-24 92.5t-11 106t-3 123v537q0 111 12 189t44 146.5t88 109.5t145.5 64t214.5 23q102 0 178.5 -12.5t131 -39t90 -62.5t56 -90
t29 -113.5t9.5 -140.5zM551 1958h117l254 -250v-14h-191l-117 116l-118 -116h-191v14z" />
    <glyph glyph-name="ccircumflex" unicode="&#x109;" horiz-adv-x="1081" 
d="M805 406h184q-3 -235 -103 -330.5t-335 -95.5t-342 106.5t-107 349.5v340q0 229 116 332.5t333 103.5q104 0 180 -20t134 -65t89 -124t35 -192l-184 -2q-3 69 -20.5 114t-52 68.5t-76.5 32t-105 8.5q-66 0 -109.5 -9.5t-78 -36.5t-50.5 -78.5t-16 -131.5v-340
q0 -80 16 -133.5t49.5 -83t78 -41.5t110.5 -12q67 0 110 9t77 34t50 73t17 124zM512 1602h117l254 -250v-15h-191l-117 117l-118 -117h-191v15z" />
    <glyph glyph-name="Cdotaccent" unicode="&#x10a;" horiz-adv-x="1187" 
d="M516 1808q0 42 24 70.5t58 35.5t68 0.5t58 -35t24 -69.5q0 -42 -24 -70.5t-58 -35.5t-68 -0.5t-58 35t-24 69.5zM1098 1135h-191q-1 78 -11.5 124.5t-42 83.5t-92 52.5t-157.5 15.5q-82 0 -137 -13t-89 -36.5t-52 -69t-23.5 -96.5t-5.5 -133v-541q0 -81 6.5 -133
t25 -96.5t53 -68.5t88.5 -37t134 -13q69 0 115.5 5t82 20t56 35.5t33 57.5t16.5 80.5t4 110.5h187q0 -57 -1.5 -97.5t-7.5 -87t-16.5 -79t-28.5 -67t-44 -57.5t-63 -44.5t-84.5 -33.5t-110 -19.5t-138.5 -7.5q-86 0 -154 8.5t-119 27t-89 42t-63 60.5t-41 74.5t-24 92.5
t-11 106t-3 123v537q0 111 12 189t44 146.5t88 109.5t145.5 64t214.5 23q102 0 178.5 -12.5t131 -39t90 -62.5t56 -90t29 -113.5t9.5 -140.5z" />
    <glyph glyph-name="cdotaccent" unicode="&#x10b;" horiz-adv-x="1081" 
d="M444 1483q0 50 35.5 78.5t78.5 28.5t78.5 -28.5t35.5 -78.5t-35.5 -78.5t-78.5 -28.5t-78.5 28.5t-35.5 78.5zM805 406h184q-3 -235 -103 -330.5t-335 -95.5t-342 106.5t-107 349.5v340q0 229 116 332.5t333 103.5q104 0 180 -20t134 -65t89 -124t35 -192l-184 -2
q-3 69 -20.5 114t-52 68.5t-76.5 32t-105 8.5q-66 0 -109.5 -9.5t-78 -36.5t-50.5 -78.5t-16 -131.5v-340q0 -80 16 -133.5t49.5 -83t78 -41.5t110.5 -12q67 0 110 9t77 34t50 73t17 124z" />
    <glyph glyph-name="Ccaron" unicode="&#x10c;" horiz-adv-x="1187" 
d="M1098 1135h-191q-1 78 -11.5 124.5t-42 83.5t-92 52.5t-157.5 15.5q-82 0 -137 -13t-89 -36.5t-52 -69t-23.5 -96.5t-5.5 -133v-541q0 -81 6.5 -133t25 -96.5t53 -68.5t88.5 -37t134 -13q69 0 115.5 5t82 20t56 35.5t33 57.5t16.5 80.5t4 110.5h187q0 -57 -1.5 -97.5
t-7.5 -87t-16.5 -79t-28.5 -67t-44 -57.5t-63 -44.5t-84.5 -33.5t-110 -19.5t-138.5 -7.5q-86 0 -154 8.5t-119 27t-89 42t-63 60.5t-41 74.5t-24 92.5t-11 106t-3 123v537q0 111 12 189t44 146.5t88 109.5t145.5 64t214.5 23q102 0 178.5 -12.5t131 -39t90 -62.5t56 -90
t29 -113.5t9.5 -140.5zM686 1692h-119l-256 233v14h193l119 -108l120 108h193v-14z" />
    <glyph glyph-name="ccaron" unicode="&#x10d;" horiz-adv-x="1081" 
d="M805 406h184q-3 -235 -103 -330.5t-335 -95.5t-342 106.5t-107 349.5v340q0 229 116 332.5t333 103.5q104 0 180 -20t134 -65t89 -124t35 -192l-184 -2q-3 69 -20.5 114t-52 68.5t-76.5 32t-105 8.5q-66 0 -109.5 -9.5t-78 -36.5t-50.5 -78.5t-16 -131.5v-340
q0 -80 16 -133.5t49.5 -83t78 -41.5t110.5 -12q67 0 110 9t77 34t50 73t17 124zM606 1319h-117l-253 250v14h190l117 -117l119 117h190v-14z" />
    <glyph glyph-name="Dcaron" unicode="&#x10e;" horiz-adv-x="1218" 
d="M328 186h270q56 0 98.5 4t75 14.5t55.5 23t39 36t25 46t14 60t6.5 71.5t1.5 87v525q0 53 -1.5 87t-6.5 71.5t-14 60t-25 46t-39 36t-55.5 23t-75 14.5t-98.5 4h-270v-1209zM598 0h-465v1579h479q105 0 183.5 -15t133 -46.5t90.5 -73.5t56 -104.5t27.5 -130t7.5 -158.5
v-521q0 -111 -11.5 -188.5t-44 -146.5t-89 -110t-148 -63.5t-219.5 -21.5zM637 1675h-117l-254 250v14h191l116 -116l119 116h191v-14z" />
    <glyph glyph-name="dcaron" unicode="&#x10f;" horiz-adv-x="1370" 
d="M1198 1602h168l-92 -361h-141zM1001 1602v-1602h-163l-25 158q-27 -77 -108.5 -120.5t-188.5 -43.5q-93 0 -165 22.5t-127 71.5t-84 134t-29 204v315q0 237 105 351t300 114q106 0 174.5 -21.5t114.5 -82.5v500h196zM805 748q0 151 -56.5 210.5t-189.5 59.5
q-134 0 -194 -63t-60 -218v-313q0 -142 57 -195t183 -53q132 5 196 74.5t64 238.5v259z" />
    <glyph glyph-name="Dcroat" unicode="&#x110;" horiz-adv-x="1241" 
d="M621 0h-465v702h-150v160h150v717h479q105 0 183.5 -15t133 -46.5t90.5 -73.5t56 -104.5t27.5 -130t7.5 -158.5v-521q0 -111 -11.5 -188.5t-44 -146.5t-89 -110t-148 -63.5t-219.5 -21.5zM350 186h271q56 0 98.5 4t75 14.5t55.5 23t39 36t25 46t14 60t6.5 71.5t1.5 87
v525q0 53 -1.5 87t-6.5 71.5t-14 60t-25 46t-39 36t-55.5 23t-75 14.5t-98.5 4h-271v-533h244v-160h-244v-516z" />
    <glyph glyph-name="dcroat" unicode="&#x111;" horiz-adv-x="1132" 
d="M1001 1602v-142h125v-125h-125v-1335h-163l-25 158q-27 -77 -108.5 -120.5t-188.5 -43.5q-93 0 -165 22.5t-127 71.5t-84 134t-29 204v315q0 237 105 351t300 114q106 0 174.5 -21.5t114.5 -82.5v233h-162v125h162v142h196zM805 748q0 151 -56.5 210.5t-189.5 59.5
q-134 0 -194 -63t-60 -218v-313q0 -142 57 -195t183 -53q132 5 196 74.5t64 238.5v259z" />
    <glyph glyph-name="Emacron" unicode="&#x112;" horiz-adv-x="1042" 
d="M299 1872h457v-150h-457v150zM119 1581h796v-172h-602v-475h545v-182h-545v-570h654v-182h-848v1581z" />
    <glyph glyph-name="emacron" unicode="&#x113;" horiz-adv-x="1085" 
d="M342 1550h467v-153h-467v153zM801 348h188q0 -178 -105 -269t-333 -91q-240 0 -341 99t-101 339v350q0 226 114 327t328 101q442 0 442 -428v-256h-692v-90q0 -154 57 -208t193 -54q129 0 189.5 44t60.5 136zM301 776v-86h506v86q0 77 -17.5 128.5t-53.5 79t-79.5 38
t-105.5 10.5t-104.5 -10.5t-77.5 -37.5t-51.5 -78.5t-16.5 -129.5z" />
    <glyph glyph-name="Ebreve" unicode="&#x114;" horiz-adv-x="1042" 
d="M119 1581h796v-172h-602v-475h545v-182h-545v-570h654v-182h-848v1581zM535 1692q-273 0 -261 268h146q0 -66 22.5 -99.5t92.5 -33.5t91 33t21 100h146q6 -135 -57 -201.5t-201 -66.5z" />
    <glyph glyph-name="ebreve" unicode="&#x115;" horiz-adv-x="1085" 
d="M801 348h188q0 -178 -105 -269t-333 -91q-240 0 -341 99t-101 339v350q0 226 114 327t328 101q442 0 442 -428v-256h-692v-90q0 -154 57 -208t193 -54q129 0 189.5 44t60.5 136zM301 776v-86h506v86q0 77 -17.5 128.5t-53.5 79t-79.5 38t-105.5 10.5t-104.5 -10.5
t-77.5 -37.5t-51.5 -78.5t-16.5 -129.5zM551 1329q-139 0 -202.5 67t-57.5 201h145q0 -66 22.5 -99.5t92.5 -33.5t91.5 33t21.5 100h145q6 -135 -57 -201.5t-201 -66.5z" />
    <glyph glyph-name="Edotaccent" unicode="&#x116;" horiz-adv-x="1042" 
d="M426 1792q0 50 35 78.5t77.5 28.5t77.5 -28.5t35 -78.5t-35 -78.5t-77.5 -28.5t-77.5 28.5t-35 78.5zM119 1581h796v-172h-602v-475h545v-182h-545v-570h654v-182h-848v1581z" />
    <glyph glyph-name="edotaccent" unicode="&#x117;" horiz-adv-x="1085" 
d="M444 1481q0 30 13 54t34.5 36t47 18t51 0t47 -18t34.5 -36t13 -54q0 -51 -37.5 -80.5t-82.5 -29.5t-82.5 29.5t-37.5 80.5zM801 348h188q0 -178 -105 -269t-333 -91q-240 0 -341 99t-101 339v350q0 226 114 327t328 101q442 0 442 -428v-256h-692v-90q0 -154 57 -208
t193 -54q129 0 189.5 44t60.5 136zM301 776v-86h506v86q0 77 -17.5 128.5t-53.5 79t-79.5 38t-105.5 10.5t-104.5 -10.5t-77.5 -37.5t-51.5 -78.5t-16.5 -129.5z" />
    <glyph glyph-name="Eogonek" unicode="&#x118;" horiz-adv-x="1067" 
d="M143 1581h797v-172h-602v-475h545v-182h-545v-570h653v-182q-69 -28 -107 -74t-38 -76q0 -67 72 -67q41 0 73 4v-174q-327 -18 -327 174q0 70 43 124.5t108 88.5h-672v1581z" />
    <glyph glyph-name="eogonek" unicode="&#x119;" horiz-adv-x="1101" 
d="M801 348h188q0 -162 -94 -260q-68 -73 -103.5 -141t-35.5 -97q0 -67 71 -67q42 0 74 4v-174q-328 -18 -328 174q0 64 36.5 120.5t92.5 92.5q-68 -12 -151 -12q-240 0 -341 99t-101 339v350q0 226 114 327t328 101q442 0 442 -428v-256h-692v-90q0 -154 57 -208t193 -54
q129 0 189.5 44t60.5 136zM301 776v-86h506v86q0 77 -17.5 128.5t-53.5 79t-79.5 38t-105.5 10.5t-104.5 -10.5t-77.5 -37.5t-51.5 -78.5t-16.5 -129.5z" />
    <glyph glyph-name="Ecaron" unicode="&#x11a;" horiz-adv-x="1042" 
d="M119 1581h796v-172h-602v-475h545v-182h-545v-570h654v-182h-848v1581zM592 1683h-115l-248 234v14h187l114 -108l117 108h187v-14z" />
    <glyph glyph-name="ecaron" unicode="&#x11b;" horiz-adv-x="1085" 
d="M801 348h188q0 -178 -105 -269t-333 -91q-240 0 -341 99t-101 339v350q0 226 114 327t328 101q442 0 442 -428v-256h-692v-90q0 -154 57 -208t193 -54q129 0 189.5 44t60.5 136zM301 776v-86h506v86q0 77 -17.5 128.5t-53.5 79t-79.5 38t-105.5 10.5t-104.5 -10.5
t-77.5 -37.5t-51.5 -78.5t-16.5 -129.5zM623 1329h-117l-254 250v14h190l117 -116l119 116h190v-14z" />
    <glyph glyph-name="Gcircumflex" unicode="&#x11c;" horiz-adv-x="1230" 
d="M1126 1155h-190q-2 73 -14.5 119t-46 81.5t-95.5 50.5t-159 15q-99 0 -160 -18.5t-96 -63.5t-47.5 -108t-12.5 -164v-553q0 -60 2 -98.5t9 -79.5t20.5 -64.5t36 -46.5t57 -34.5t81.5 -18t110 -6.5q76 0 126 4.5t86.5 20.5t56 35t30.5 58.5t13.5 80t2.5 110.5v215h-307
v176h504v-391q0 -57 -2 -97.5t-8 -87t-17 -79t-30 -66.5t-46 -57t-65 -44t-87.5 -33.5t-114 -19.5t-142.5 -7q-92 0 -165 11.5t-126.5 33t-92 56.5t-63.5 76t-39.5 98.5t-20 117.5t-5.5 139v549q0 79 5.5 139t20 117.5t39.5 98.5t63.5 76t92 56.5t126.5 33t165 11.5
q104 0 181 -10.5t132.5 -35t91.5 -58t57.5 -86t31 -111.5t11.5 -141zM584 1942h116l254 -250v-15h-190l-117 117l-119 -117h-190v15z" />
    <glyph glyph-name="gcircumflex" unicode="&#x11d;" horiz-adv-x="1114" 
d="M518 -6q-206 0 -311 104.5t-105 307.5v362q0 119 29 204t84.5 134t127.5 71.5t165 22.5q106 0 186 -43.5t107 -120.5l24 152h162v-1229q0 -235 -116.5 -346t-325.5 -111q-199 0 -304 83.5t-112 273.5h186q7 -100 66 -139t166 -39q126 0 192 62t66 216v197
q-24 -66 -100.5 -114t-186.5 -48zM518 176q66 0 114 14.5t85.5 49t56.5 96.5t19 153v232q-2 109 -33 174.5t-84.5 92.5t-138.5 30q-126 0 -183 -53t-57 -195v-342q0 -136 56 -194t165 -58zM526 1589h117l254 -250v-14h-190l-117 117l-119 -117h-190v14z" />
    <glyph glyph-name="Gbreve" unicode="&#x11e;" horiz-adv-x="1222" 
d="M1130 1155h-190q-2 73 -14.5 119t-46 81.5t-95.5 50.5t-159 15q-99 0 -160 -18.5t-96 -63.5t-47.5 -108t-12.5 -164v-553q0 -60 2 -98.5t9 -79.5t20.5 -64.5t36 -46.5t57 -34.5t81.5 -18t110 -6.5q76 0 126 4.5t86.5 20.5t56 35t30.5 58.5t13.5 80t2.5 110.5v215h-307
v176h504v-391q0 -57 -2 -97.5t-8 -87t-17 -79t-30 -66.5t-46 -57t-65 -44t-87.5 -33.5t-114 -19.5t-142.5 -7q-92 0 -165 11.5t-126.5 33t-92 56.5t-63.5 76t-39.5 98.5t-20 117.5t-5.5 139v549q0 79 5.5 139t20 117.5t39.5 98.5t63.5 76t92 56.5t126.5 33t165 11.5
q104 0 181 -10.5t132.5 -35t91.5 -58t57.5 -86t31 -111.5t11.5 -141zM633 1688q-139 0 -202.5 67t-57.5 201h145q0 -66 22.5 -99.5t92.5 -33.5t91 33t21 100h146q6 -135 -57 -201.5t-201 -66.5z" />
    <glyph glyph-name="gbreve" unicode="&#x11f;" horiz-adv-x="1114" 
d="M518 -6q-206 0 -311 104.5t-105 307.5v362q0 119 29 204t84.5 134t127.5 71.5t165 22.5q106 0 186 -43.5t107 -120.5l24 152h162v-1229q0 -235 -116.5 -346t-325.5 -111q-199 0 -304 83.5t-112 273.5h186q7 -100 66 -139t166 -39q126 0 192 62t66 216v197
q-24 -66 -100.5 -114t-186.5 -48zM518 176q66 0 114 14.5t85.5 49t56.5 96.5t19 153v232q-2 109 -33 174.5t-84.5 92.5t-138.5 30q-126 0 -183 -53t-57 -195v-342q0 -136 56 -194t165 -58zM557 1327q-139 0 -202.5 67t-57.5 201h145q0 -66 22.5 -99.5t92.5 -33.5t91.5 33
t21.5 100h145q6 -135 -57 -201.5t-201 -66.5z" />
    <glyph glyph-name="Gdotaccent" unicode="&#x120;" horiz-adv-x="1230" 
d="M518 1806q0 40 23 67t56 33t65.5 0t55.5 -33t23 -67q0 -49 -35 -76.5t-76.5 -27.5t-76.5 27.5t-35 76.5zM1126 1155h-190q-2 73 -14.5 119t-46 81.5t-95.5 50.5t-159 15q-99 0 -160 -18.5t-96 -63.5t-47.5 -108t-12.5 -164v-553q0 -60 2 -98.5t9 -79.5t20.5 -64.5
t36 -46.5t57 -34.5t81.5 -18t110 -6.5q76 0 126 4.5t86.5 20.5t56 35t30.5 58.5t13.5 80t2.5 110.5v215h-307v176h504v-391q0 -57 -2 -97.5t-8 -87t-17 -79t-30 -66.5t-46 -57t-65 -44t-87.5 -33.5t-114 -19.5t-142.5 -7q-92 0 -165 11.5t-126.5 33t-92 56.5t-63.5 76
t-39.5 98.5t-20 117.5t-5.5 139v549q0 79 5.5 139t20 117.5t39.5 98.5t63.5 76t92 56.5t126.5 33t165 11.5q104 0 181 -10.5t132.5 -35t91.5 -58t57.5 -86t31 -111.5t11.5 -141z" />
    <glyph glyph-name="gdotaccent" unicode="&#x121;" horiz-adv-x="1097" 
d="M444 1483q0 43 25 72t60.5 36t71 0t60.5 -36t25 -72q0 -44 -25 -74t-60.5 -37t-71 0t-60.5 37t-25 74zM518 -6q-206 0 -311 104.5t-105 307.5v362q0 119 29 204t84.5 134t127.5 71.5t165 22.5q106 0 186 -43.5t107 -120.5l24 152h162v-1229q0 -235 -116.5 -346
t-325.5 -111q-199 0 -304 83.5t-112 273.5h186q7 -100 66 -139t166 -39q126 0 192 62t66 216v197q-24 -66 -100.5 -114t-186.5 -48zM518 176q66 0 114 14.5t85.5 49t56.5 96.5t19 153v232q-2 109 -33 174.5t-84.5 92.5t-138.5 30q-126 0 -183 -53t-57 -195v-342
q0 -136 56 -194t165 -58z" />
    <glyph glyph-name="Gcommaaccent" unicode="&#x122;" horiz-adv-x="1234" 
d="M1139 1155h-191q-2 73 -14.5 119t-46 81.5t-95.5 50.5t-159 15q-99 0 -160 -18.5t-96 -63.5t-47.5 -108t-12.5 -164v-553q0 -60 2 -98.5t9 -79.5t20.5 -64.5t36 -46.5t57 -34.5t81.5 -18t110 -6.5q76 0 126 4.5t86.5 20.5t56 35t30.5 58.5t13.5 80t2.5 110.5v215h-307
v176h504v-391q0 -57 -2 -97.5t-8 -87t-17 -79t-30 -66.5t-46 -57t-65 -44t-87.5 -33.5t-114 -19.5t-142.5 -7q-92 0 -165 11.5t-126.5 33t-92 56.5t-63.5 76t-39.5 98.5t-20 117.5t-5.5 139v549q0 79 5.5 139t20 117.5t39.5 98.5t63.5 76t92 56.5t126.5 33t165 11.5
q124 0 211 -17t143.5 -48.5t89 -87.5t46 -123t16.5 -166zM487 -506l-69 92q38 23 64.5 49t40.5 50t21.5 59.5t9 63.5t1.5 75h190q0 -157 -58 -242.5t-200 -146.5z" />
    <glyph glyph-name="gcommaaccent" unicode="&#x123;" horiz-adv-x="1271" 
d="M690 1661l64 -84q-82 -48 -103.5 -105t-21.5 -163h-170q0 143 51.5 220t179.5 132zM518 -6q-206 0 -311 104.5t-105 307.5v362q0 119 29 204t84.5 134t127.5 71.5t165 22.5q106 0 186 -43.5t107 -120.5l24 152h162v-1229q0 -235 -116.5 -346t-325.5 -111
q-199 0 -304 83.5t-112 273.5h186q7 -100 66 -139t166 -39q126 0 192 62t66 216v197q-24 -66 -100.5 -114t-186.5 -48zM518 176q66 0 114 14.5t85.5 49t56.5 96.5t19 153v232q-2 109 -33 174.5t-84.5 92.5t-138.5 30q-126 0 -183 -53t-57 -195v-342q0 -136 56 -194t165 -58z
" />
    <glyph glyph-name="Hcircumflex" unicode="&#x124;" horiz-adv-x="1189" 
d="M1065 0h-195v662h-528v-664h-199v1577h199v-727h528v727h195v-1575zM555 1952h117l254 -250v-14h-191l-117 116l-118 -116h-191v14z" />
    <glyph glyph-name="hcircumflex" unicode="&#x125;" horiz-adv-x="1118" 
d="M993 0h-194v745q0 160 -54.5 219.5t-189.5 59.5q-124 0 -184.5 -64t-61.5 -206l-2 -754h-194v1612h196v-522q35 52 106.5 87t166.5 35q221 0 316 -115t95 -347v-750zM469 1956h117l254 -250v-14h-191l-117 116l-118 -116h-191v14z" />
    <glyph glyph-name="Hbar" unicode="&#x126;" horiz-adv-x="1196" 
d="M1065 0h-195v662h-528v-664h-199v1149h-129v123h129v305h199v-305h528v305h195v-305h125v-123h-125v-1147zM342 848h528v299h-528v-299z" />
    <glyph glyph-name="hbar" unicode="&#x127;" horiz-adv-x="1114" 
d="M-2 1331v123h115v158h196v-158h154v-123h-154v-241q35 52 106.5 87t166.5 35q221 0 316 -115t95 -347v-750h-194v745q0 160 -54.5 219.5t-189.5 59.5q-124 0 -184.5 -64t-61.5 -206l-2 -754h-194v1331h-115z" />
    <glyph glyph-name="Itilde" unicode="&#x128;" horiz-adv-x="485" 
d="M342 -2h-199v1577h199v-1577zM90 1667l-102 53q20 93 84.5 135t140.5 11l84 -43q71 -29 94 53l107 -47q-19 -104 -82 -143.5t-133 -8.5l-82 41q-82 32 -111 -51z" />
    <glyph glyph-name="itilde" unicode="&#x129;" horiz-adv-x="491" 
d="M342 0h-195v1190h195v-1190zM111 1315l-95 53q19 92 79 134t132 11l78 -43q65 -28 88 54l99 -47q-18 -104 -77 -143.5t-124 -8.5l-76 41q-75 31 -104 -51z" />
    <glyph glyph-name="Imacron" unicode="&#x12a;" horiz-adv-x="485" 
d="M33 1860h413v-148h-413v148zM342 -2h-199v1577h199v-1577z" />
    <glyph glyph-name="imacron" unicode="&#x12b;" horiz-adv-x="487" 
d="M37 1552h407v-157h-407v157zM342 0h-195v1190h195v-1190z" />
    <glyph glyph-name="Ibreve" unicode="&#x12c;" horiz-adv-x="485" 
d="M342 -2h-199v1577h199v-1577zM252 1665q-137 0 -199.5 62.5t-56.5 189.5h141q0 -63 22.5 -94t92.5 -31q36 0 59 8.5t33.5 27.5t14 38.5t3.5 50.5h144q6 -127 -56 -189.5t-198 -62.5z" />
    <glyph glyph-name="ibreve" unicode="&#x12d;" horiz-adv-x="491" 
d="M342 0h-195v1190h195v-1190zM248 1315q-131 0 -191 66.5t-55 199.5h137q0 -66 21.5 -98.5t87.5 -32.5t86 32t20 99h138q6 -133 -53.5 -199.5t-190.5 -66.5z" />
    <glyph glyph-name="Iogonek" unicode="&#x12e;" horiz-adv-x="485" 
d="M342 -2h-63q-63 -9 -93 -40.5t-20 -68.5q7 -29 33.5 -43t60.5 -14q77 0 135 74l107 -76q-75 -149 -238 -156q-100 -3 -167 42.5t-85 123.5q-14 70 18 140.5t113 103.5v1491h199v-1577z" />
    <glyph glyph-name="iogonek" unicode="&#x12f;" horiz-adv-x="471" 
d="M129 1473q0 43 24.5 72.5t59 37t69 1t59 -36.5t24.5 -74q0 -41 -24.5 -70.5t-59 -37t-69 -1.5t-59 35.5t-24.5 73.5zM342 0h-2q-49 -1 -84 -14.5t-50.5 -34.5t-21 -45t-0.5 -45t17 -35q19 -24 50.5 -36t75.5 -1t83 53l94 -86q-43 -66 -108 -98t-128 -29t-119 31.5
t-86 75.5q-22 34 -31 74.5t-4 83t35.5 81t83.5 60.5v1155h195v-1190z" />
    <glyph glyph-name="Idotaccent" unicode="&#x130;" horiz-adv-x="485" 
d="M125 1786q0 42 24.5 70.5t60 35.5t71 0t60 -36t24.5 -72q0 -42 -24.5 -70.5t-60 -35.5t-71 0t-60 36t-24.5 72zM342 -2h-199v1577h199v-1577z" />
    <glyph glyph-name="dotlessi" unicode="&#x131;" horiz-adv-x="493" 
d="M356 0h-194v1190h194v-1190z" />
    <glyph glyph-name="IJ" unicode="&#x132;" horiz-adv-x="1540" 
d="M354 -2h-198v1577h198v-1577zM954 -12q-103 0 -177.5 22t-122 60.5t-75.5 100.5t-38.5 133.5t-10.5 168.5h185q0 -167 50 -233t193 -66q44 0 77 6.5t57.5 18t40.5 34t26.5 47t15.5 64.5t7 79.5t2 98.5v1059h196v-1057q0 -111 -9.5 -189.5t-36.5 -148t-74 -110.5
t-123 -64.5t-183 -23.5z" />
    <glyph glyph-name="ij" unicode="&#x133;" horiz-adv-x="907" 
d="M342 0h-195v1190h195v-1190zM129 1473q0 43 24.5 72.5t59 37t69 1t59 -36.5t24.5 -74q0 -41 -24.5 -70.5t-59 -37t-69 -1.5t-59 35.5t-24.5 73.5zM782 1188v-1243q0 -189 -84.5 -268t-267.5 -64v174q34 -5 63.5 -1.5t51.5 16t34.5 48.5t12.5 95v1243h190zM569 1473
q0 43 24.5 72.5t59 37t69 1t59 -36.5t24.5 -74q0 -41 -24.5 -70.5t-59 -37t-69 -1.5t-59 35.5t-24.5 73.5z" />
    <glyph glyph-name="Jcircumflex" unicode="&#x134;" horiz-adv-x="1021" 
d="M485 -12q-103 0 -177.5 22t-122 60.5t-75.5 100.5t-38.5 133.5t-10.5 168.5h185q0 -167 50 -233t193 -66q44 0 77 6.5t57.5 18t40.5 34t26.5 47t15.5 64.5t7 79.5t2 98.5v1059h196v-1057q0 -111 -9.5 -189.5t-36.5 -148t-74 -110.5t-123 -64.5t-183 -23.5zM750 1933h116
l254 -250v-14h-190l-117 117l-119 -117h-190v14z" />
    <glyph glyph-name="jcircumflex" unicode="&#x135;" horiz-adv-x="493" 
d="M354 1188v-1243q0 -189 -84.5 -268t-267.5 -64v174q34 -5 63.5 -1.5t51.5 16t34.5 48.5t12.5 95v1243h190zM209 1589h106l236 -264v-14h-176l-109 123l-108 -123h-176v14z" />
    <glyph glyph-name="Kcommaaccent" unicode="&#x136;" horiz-adv-x="1138" 
d="M1147 0h-240l-504 680h-75v-680h-195v1579h195v-696h75l471 696h230l-545 -791zM489 -422l-61 88q43 27 68.5 56t37 67t14.5 70t3 88h170q0 -148 -52 -229t-180 -140z" />
    <glyph glyph-name="kcommaaccent" unicode="&#x137;" horiz-adv-x="1036" 
d="M1034 0h-233l-406 532h-88v-532h-194v1581h194v-864h78l371 481h237l-438 -563zM397 -428l-61 88q43 27 68.5 56t37 67t14.5 70t3 88h170q0 -148 -52 -229t-180 -140z" />
    <glyph glyph-name="kgreenlandic" unicode="&#x138;" horiz-adv-x="1044" 
d="M1034 0h-233l-406 532h-88v-532h-194v1194h194v-477h78l371 481h237l-438 -563z" />
    <glyph glyph-name="Lacute" unicode="&#x139;" horiz-adv-x="1005" 
d="M956 0h-813v1579h197v-1399h616v-180zM315 1686h-155v10l108 260h193v-6z" />
    <glyph glyph-name="lacute" unicode="&#x13a;" horiz-adv-x="520" 
d="M143 311v1270h191v-1268q0 -70 28 -95t95 -25v-193q-91 0 -148 13t-96 48t-54.5 95t-15.5 155zM299 1681h-156v11l109 260h192v-6z" />
    <glyph glyph-name="Lcommaaccent" unicode="&#x13b;" horiz-adv-x="1005" 
d="M956 0h-813v1579h197v-1399h616v-180zM434 -465l-61 88q43 27 68.5 56t37 67t14.5 70t3 88h170q0 -148 -52 -229t-180 -140z" />
    <glyph glyph-name="lcommaaccent" unicode="&#x13c;" horiz-adv-x="520" 
d="M186 -469l-61 88q43 27 68.5 56t37 67t14.5 70t3 88h170q0 -148 -52 -229t-180 -140zM143 311v1270h191v-1268q0 -70 28 -95t95 -25v-193q-91 0 -148 13t-96 48t-54.5 95t-15.5 155z" />
    <glyph glyph-name="Lcaron" unicode="&#x13d;" horiz-adv-x="1005" 
d="M717 1577h174l-131 -363h-131zM956 0h-813v1579h197v-1399h616v-180z" />
    <glyph glyph-name="lcaron" unicode="&#x13e;" horiz-adv-x="684" 
d="M537 1581h168l-97 -362h-137zM143 311v1270h191v-1268q0 -70 28 -95t95 -25v-193q-91 0 -148 13t-96 48t-54.5 95t-15.5 155z" />
    <glyph glyph-name="Ldot" unicode="&#x13f;" horiz-adv-x="1005" 
d="M528 762q0 54 36 84.5t79 30.5t79 -30.5t36 -84.5t-36 -84.5t-79 -30.5t-79 30.5t-36 84.5zM956 0h-813v1579h197v-1399h616v-180z" />
    <glyph glyph-name="ldot" unicode="&#x140;" horiz-adv-x="765" 
d="M485 752q0 54 36 84.5t79 30.5t79 -30.5t36 -84.5t-36 -84.5t-79 -30.5t-79 30.5t-36 84.5zM143 311v1270h191v-1268q0 -70 28 -95t95 -25v-193q-91 0 -148 13t-96 48t-54.5 95t-15.5 155z" />
    <glyph glyph-name="Lslash" unicode="&#x141;" horiz-adv-x="1005" 
d="M25 567v150l118 53v809h197v-721l319 146v-150l-319 -145v-529h616v-180h-813v621z" />
    <glyph glyph-name="lslash" unicode="&#x142;" horiz-adv-x="514" 
d="M31 637v139l112 49v756h191v-672l137 62v-142l-137 -61v-455q0 -70 28 -95t95 -25v-193q-91 0 -148 13t-96 48t-54.5 95t-15.5 155v375z" />
    <glyph glyph-name="Nacute" unicode="&#x143;" horiz-adv-x="1126" 
d="M313 1579l535 -1208l-29 536v672h195v-1579h-183l-520 1135l13 -519v-616h-195v1579h184zM635 1657h-156v10l109 260h192v-6z" />
    <glyph glyph-name="nacute" unicode="&#x144;" horiz-adv-x="1193" 
d="M162 0v1198h174l12 -127q50 81 127.5 111t179.5 30q204 0 301 -99.5t97 -332.5v-780h-197v778q0 125 -62.5 190.5t-170.5 65.5q-116 0 -190.5 -66t-74.5 -188v-780h-196zM616 1329h-155v10l108 260h193v-6z" />
    <glyph glyph-name="Ncommaaccent" unicode="&#x145;" horiz-adv-x="1126" 
d="M313 1579l535 -1208l-29 536v672h195v-1579h-183l-520 1135l13 -519v-616h-195v1579h184zM455 -465l-62 88q43 27 68.5 56t37 67t14.5 70t3 88h170q0 -149 -51.5 -229.5t-179.5 -139.5z" />
    <glyph glyph-name="ncommaaccent" unicode="&#x146;" horiz-adv-x="1193" 
d="M162 0v1198h174l12 -127q50 81 127.5 111t179.5 30q204 0 301 -99.5t97 -332.5v-780h-197v778q0 125 -62.5 190.5t-170.5 65.5q-116 0 -190.5 -66t-74.5 -188v-780h-196zM471 -465l-61 88q34 22 57.5 46.5t36 47.5t19 56.5t8 59.5t1.5 71h170q0 -149 -51.5 -229.5
t-179.5 -139.5z" />
    <glyph glyph-name="Ncaron" unicode="&#x147;" horiz-adv-x="1126" 
d="M313 1579l535 -1208l-29 536v672h195v-1579h-183l-520 1135l13 -519v-616h-195v1579h184zM629 1671h-117l-254 250v14h191l116 -116l119 116h190v-14z" />
    <glyph glyph-name="ncaron" unicode="&#x148;" horiz-adv-x="1193" 
d="M162 0v1198h174l12 -127q50 81 127.5 111t179.5 30q204 0 301 -99.5t97 -332.5v-780h-197v778q0 125 -62.5 190.5t-170.5 65.5q-116 0 -190.5 -66t-74.5 -188v-780h-196zM670 1319h-117l-254 250v14h190l117 -117l119 117h190v-14z" />
    <glyph glyph-name="napostrophe" unicode="&#x149;" horiz-adv-x="1193" 
d="M162 0v1198h174l12 -127q50 81 127.5 111t179.5 30q204 0 301 -99.5t97 -332.5v-780h-197v778q0 125 -62.5 190.5t-170.5 65.5q-116 0 -190.5 -66t-74.5 -188v-780h-196z" />
    <glyph glyph-name="Eng" unicode="&#x14a;" horiz-adv-x="1128" 
d="M313 1579l535 -1208l-29 536v672h195v-1628q2 -183 -67.5 -278t-231.5 -95q-49 0 -92 12l36 150q32 -4 50 -4q45 1 74 16t43 45.5t19 65t5 86.5v35l-539 1151l13 -519v-616h-195v1579h184z" />
    <glyph glyph-name="eng" unicode="&#x14b;" horiz-adv-x="1196" 
d="M162 0v1198h174l12 -127q50 81 127.5 111t179.5 30q204 0 301 -99.5t97 -332.5v-760q3 -179 -68 -273.5t-233 -94.5q-52 0 -86 10l26 172q16 -4 51 -4q24 0 42 4t30.5 11.5t20.5 18.5t12 25t6 30.5t2 36.5v42v25v755q0 125 -62.5 190.5t-170.5 65.5q-116 0 -190.5 -66
t-74.5 -188v-780h-196z" />
    <glyph glyph-name="Omacron" unicode="&#x14c;" horiz-adv-x="1220" 
d="M397 1886h459v-149h-459v149zM1128 1069v-551q0 -79 -5.5 -139t-20 -117.5t-39.5 -98.5t-63.5 -76t-92 -56.5t-126.5 -33t-165 -11.5t-165 11.5t-126.5 33t-92 56.5t-63.5 76t-39.5 98.5t-20 117.5t-5.5 139v551q0 111 11.5 189t44 147t89 110t147.5 64t220 23t220 -23
t147.5 -64t89 -110t44 -147t11.5 -189zM932 516v555q0 60 -2 98.5t-9 80t-20.5 65.5t-36 47.5t-56.5 35t-81.5 18.5t-110.5 7q-74 0 -126 -8t-87 -28.5t-55 -44.5t-30.5 -69.5t-13.5 -88t-3 -113.5v-555q0 -53 1.5 -87.5t6.5 -72t14 -61t25 -47t39 -36.5t55.5 -24t75 -15.5
t98.5 -4.5q63 0 110 6.5t81.5 18t57 34.5t36 46.5t20.5 64.5t9 79.5t2 98.5z" />
    <glyph glyph-name="omacron" unicode="&#x14d;" horiz-adv-x="1101" 
d="M336 1546h448v-153h-448v153zM551 150q138 0 196 63t58 223v342q0 80 -16 132t-51 79.5t-78.5 38t-108.5 10.5t-108.5 -10.5t-78.5 -38t-51 -79.5t-16 -132v-342q0 -159 60 -222.5t194 -63.5zM551 -20q-242 0 -345.5 105.5t-103.5 350.5v342q0 229 116 331.5t333 102.5
t332.5 -102.5t115.5 -331.5v-342q0 -244 -105 -350t-343 -106z" />
    <glyph glyph-name="Obreve" unicode="&#x14e;" horiz-adv-x="1220" 
d="M1128 1069v-551q0 -79 -5.5 -139t-20 -117.5t-39.5 -98.5t-63.5 -76t-92 -56.5t-126.5 -33t-165 -11.5t-165 11.5t-126.5 33t-92 56.5t-63.5 76t-39.5 98.5t-20 117.5t-5.5 139v551q0 111 11.5 189t44 147t89 110t147.5 64t220 23t220 -23t147.5 -64t89 -110t44 -147
t11.5 -189zM932 516v555q0 60 -2 98.5t-9 80t-20.5 65.5t-36 47.5t-56.5 35t-81.5 18.5t-110.5 7q-74 0 -126 -8t-87 -28.5t-55 -44.5t-30.5 -69.5t-13.5 -88t-3 -113.5v-555q0 -53 1.5 -87.5t6.5 -72t14 -61t25 -47t39 -36.5t55.5 -24t75 -15.5t98.5 -4.5q63 0 110 6.5
t81.5 18t57 34.5t36 46.5t20.5 64.5t9 79.5t2 98.5zM629 1702q-139 0 -202.5 67t-57.5 201h145q0 -66 22.5 -99.5t92.5 -33.5t91 33t21 100h146q6 -135 -57 -201.5t-201 -66.5z" />
    <glyph glyph-name="obreve" unicode="&#x14f;" horiz-adv-x="1101" 
d="M551 150q138 0 196 63t58 223v342q0 80 -16 132t-51 79.5t-78.5 38t-108.5 10.5t-108.5 -10.5t-78.5 -38t-51 -79.5t-16 -132v-342q0 -159 60 -222.5t194 -63.5zM551 -20q-242 0 -345.5 105.5t-103.5 350.5v342q0 229 116 331.5t333 102.5t332.5 -102.5t115.5 -331.5
v-342q0 -244 -105 -350t-343 -106zM563 1329q-139 0 -202.5 67t-57.5 201h146q0 -67 22 -100t92 -33t91.5 33t21.5 100h145q6 -135 -57 -201.5t-201 -66.5z" />
    <glyph glyph-name="Ohungarumlaut" unicode="&#x150;" horiz-adv-x="1220" 
d="M1128 1069v-551q0 -79 -5.5 -139t-20 -117.5t-39.5 -98.5t-63.5 -76t-92 -56.5t-126.5 -33t-165 -11.5t-165 11.5t-126.5 33t-92 56.5t-63.5 76t-39.5 98.5t-20 117.5t-5.5 139v551q0 111 11.5 189t44 147t89 110t147.5 64t220 23t220 -23t147.5 -64t89 -110t44 -147
t11.5 -189zM932 516v555q0 60 -2 98.5t-9 80t-20.5 65.5t-36 47.5t-56.5 35t-81.5 18.5t-110.5 7q-74 0 -126 -8t-87 -28.5t-55 -44.5t-30.5 -69.5t-13.5 -88t-3 -113.5v-555q0 -53 1.5 -87.5t6.5 -72t14 -61t25 -47t39 -36.5t55.5 -24t75 -15.5t98.5 -4.5q63 0 110 6.5
t81.5 18t57 34.5t36 46.5t20.5 64.5t9 79.5t2 98.5zM393 1710l133 234h193v-5l-162 -229h-164zM709 1708l133 236h192v-5l-160 -231h-165z" />
    <glyph glyph-name="ohungarumlaut" unicode="&#x151;" horiz-adv-x="1101" 
d="M551 150q138 0 196 63t58 223v342q0 80 -16 132t-51 79.5t-78.5 38t-108.5 10.5t-108.5 -10.5t-78.5 -38t-51 -79.5t-16 -132v-342q0 -159 60 -222.5t194 -63.5zM551 -20q-242 0 -345.5 105.5t-103.5 350.5v342q0 229 116 331.5t333 102.5t332.5 -102.5t115.5 -331.5
v-342q0 -244 -105 -350t-343 -106zM295 1346l133 233h193v-4l-162 -229h-164zM610 1343l133 236h193v-4l-160 -232h-166z" />
    <glyph glyph-name="OE" unicode="&#x152;" horiz-adv-x="1523" 
d="M616 1581h801v-172h-506v-475h449v-182h-449v-570h527v-182h-822q-108 0 -188.5 14.5t-137 46t-93 73t-57 104t-28.5 130.5t-8 160v521q0 79 5.5 139t20 117.5t39.5 98.5t63.5 76t92 56.5t126.5 33t165 11.5zM301 526q0 -53 1.5 -87.5t6.5 -73t14 -62.5t25 -48.5t39 -38
t55.5 -25.5t75.5 -16.5t98 -4.5h111v1247h-111q-55 0 -98 -5t-75.5 -17.5t-55.5 -27t-39 -40t-25 -50.5t-14 -64t-6.5 -74t-1.5 -88v-525z" />
    <glyph glyph-name="oe" unicode="&#x153;" horiz-adv-x="1765" 
d="M1485 344h190q0 -180 -106.5 -272t-337.5 -92q-269 0 -336 188q-44 -93 -132.5 -140.5t-211.5 -47.5q-242 0 -345.5 105.5t-103.5 350.5v342q0 229 116 331.5t333 102.5q128 0 213.5 -39t128.5 -133q85 172 338 172q448 0 448 -434v-260h-702v-90q0 -81 14.5 -133
t47.5 -81.5t78 -40.5t114 -11q130 0 192 44.5t62 137.5zM551 150q135 0 193 62t61 224v342q0 80 -16 132t-51 79.5t-78.5 38t-108.5 10.5t-108.5 -10.5t-78.5 -38t-51 -79.5t-16 -132v-342q0 -159 60 -222.5t194 -63.5zM977 778v-86h514v86q0 78 -18 130.5t-54.5 80.5
t-80.5 38.5t-107 10.5q-62 0 -104 -10t-77.5 -37.5t-53.5 -80t-19 -132.5z" />
    <glyph glyph-name="Racute" unicode="&#x154;" horiz-adv-x="1105" 
d="M1016 1040q0 -196 -68 -304.5t-227 -139.5l342 -596h-229l-318 584h-178v-586h-195v1583l424 2q218 0 333.5 -102t115.5 -330v-111zM567 1397h-229v-627h229q137 0 195.5 56.5t58.5 213.5v111q0 54 -6 93t-21.5 65t-33.5 42.5t-50.5 25.5t-62.5 13t-80 7zM610 1708h-155
v10l108 260h193v-6z" />
    <glyph glyph-name="racute" unicode="&#x155;" horiz-adv-x="686" 
d="M653 1198v-199q-146 24 -241 -36.5t-95 -194.5v-770h-194v1200h178l8 -111q45 69 140.5 101.5t203.5 9.5zM436 1352h-147v10l102 242h182v-7z" />
    <glyph glyph-name="Rcommaaccent" unicode="&#x156;" horiz-adv-x="1105" 
d="M1016 1040q0 -196 -68 -304.5t-227 -139.5l342 -596h-229l-318 584h-178v-586h-195v1583l424 2q218 0 333.5 -102t115.5 -330v-111zM567 1397h-229v-627h229q137 0 195.5 56.5t58.5 213.5v111q0 54 -6 93t-21.5 65t-33.5 42.5t-50.5 25.5t-62.5 13t-80 7zM455 -465
l-62 88q43 27 68.5 56t37 67t14.5 70t3 88h170q0 -149 -51.5 -229.5t-179.5 -139.5z" />
    <glyph glyph-name="rcommaaccent" unicode="&#x157;" horiz-adv-x="686" 
d="M653 1198v-199q-146 24 -241 -36.5t-95 -194.5v-770h-194v1200h178l8 -111q45 69 140.5 101.5t203.5 9.5zM66 -438l-64 80q44 26 70.5 52.5t38.5 61t15 64t3 80.5h176q0 -136 -53 -209.5t-186 -128.5z" />
    <glyph glyph-name="Rcaron" unicode="&#x158;" horiz-adv-x="1105" 
d="M1016 1040q0 -196 -68 -304.5t-227 -139.5l342 -596h-229l-318 584h-178v-586h-195v1583l424 2q218 0 333.5 -102t115.5 -330v-111zM567 1397h-229v-627h229q137 0 195.5 56.5t58.5 213.5v111q0 54 -6 93t-21.5 65t-33.5 42.5t-50.5 25.5t-62.5 13t-80 7zM614 1690h-116
l-254 249v15h190l117 -117l119 117h190v-15z" />
    <glyph glyph-name="rcaron" unicode="&#x159;" horiz-adv-x="704" 
d="M653 1198v-199q-146 24 -241 -36.5t-95 -194.5v-770h-194v1200h178l8 -111q45 69 140.5 101.5t203.5 9.5zM469 1329h-117l-254 250v14h191l117 -116l118 116h191v-14z" />
    <glyph glyph-name="Sacute" unicode="&#x15a;" horiz-adv-x="1161" 
d="M1026 1190h-203q-8 109 -61.5 165t-190.5 56q-80 0 -133 -17.5t-80.5 -53t-38 -79.5t-10.5 -108q0 -59 19.5 -100.5t48 -64.5t77.5 -37.5t91.5 -20t106.5 -11.5q30 -2 46 -4q371 -37 371 -438q0 -256 -106 -370.5t-349 -114.5h-39q-463 0 -485 426h211q8 -111 69 -173.5
t203 -62.5h39q78 0 129.5 18t78.5 56.5t37.5 87.5t10.5 123q0 72 -20.5 123t-44 77.5t-81 44t-89 21.5t-110.5 10q-14 1 -21 2q-59 5 -112 18.5t-106.5 44t-91.5 74.5t-62 113t-24 156q0 224 110.5 334t354.5 110q228 0 336 -102t119 -303zM651 1702h-155v10l108 260h193v-6
z" />
    <glyph glyph-name="sacute" unicode="&#x15b;" horiz-adv-x="999" 
d="M903 860h-186q0 176 -219 176q-103 0 -159 -47.5t-56 -142.5q0 -39 12 -65.5t29 -41.5t50.5 -24t60.5 -12t75 -7q18 -1 27 -2q37 -3 62 -6t61.5 -9t61.5 -14t56 -21t52 -30t42.5 -41.5t34.5 -54.5t21 -70.5t8 -87.5q0 -182 -115.5 -276t-308.5 -94q-206 0 -316.5 95.5
t-117.5 285.5h196q7 -107 71.5 -155t166.5 -48q109 0 169 51t60 139q0 29 -8.5 52.5t-21.5 39.5t-37 28.5t-44.5 19.5t-54.5 12t-57.5 7t-62.5 5q-367 25 -367 324q0 165 106 265.5t310 100.5q203 0 303.5 -91.5t95.5 -260.5zM575 1317h-155v10l108 260h193v-6z" />
    <glyph glyph-name="Scircumflex" unicode="&#x15c;" horiz-adv-x="1161" 
d="M1026 1190h-203q-8 109 -61.5 165t-190.5 56q-80 0 -133 -17.5t-80.5 -53t-38 -79.5t-10.5 -108q0 -59 19.5 -100.5t48 -64.5t77.5 -37.5t91.5 -20t106.5 -11.5q30 -2 46 -4q371 -37 371 -438q0 -256 -106 -370.5t-349 -114.5h-39q-463 0 -485 426h211q8 -111 69 -173.5
t203 -62.5h39q78 0 129.5 18t78.5 56.5t37.5 87.5t10.5 123q0 72 -20.5 123t-44 77.5t-81 44t-89 21.5t-110.5 10q-14 1 -21 2q-59 5 -112 18.5t-106.5 44t-91.5 74.5t-62 113t-24 156q0 224 110.5 334t354.5 110q228 0 336 -102t119 -303zM532 1954h117l254 -250v-14h-190
l-117 116l-119 -116h-190v14z" />
    <glyph glyph-name="scircumflex" unicode="&#x15d;" horiz-adv-x="999" 
d="M903 860h-186q0 176 -219 176q-103 0 -159 -47.5t-56 -142.5q0 -39 12 -65.5t29 -41.5t50.5 -24t60.5 -12t75 -7q18 -1 27 -2q37 -3 62 -6t61.5 -9t61.5 -14t56 -21t52 -30t42.5 -41.5t34.5 -54.5t21 -70.5t8 -87.5q0 -182 -115.5 -276t-308.5 -94q-206 0 -316.5 95.5
t-117.5 285.5h196q7 -107 71.5 -155t166.5 -48q109 0 169 51t60 139q0 29 -8.5 52.5t-21.5 39.5t-37 28.5t-44.5 19.5t-54.5 12t-57.5 7t-62.5 5q-367 25 -367 324q0 165 106 265.5t310 100.5q203 0 303.5 -91.5t95.5 -260.5zM465 1604h117l254 -250v-15h-191l-117 117
l-118 -117h-191v15z" />
    <glyph glyph-name="Scedilla" unicode="&#x15e;" horiz-adv-x="1161" 
d="M477 -160l-4 -2l39 156q-205 13 -309 122.5t-113 301.5h211q8 -111 69 -173.5t203 -62.5h39q78 0 129.5 18t78.5 56.5t37.5 87.5t10.5 123q0 72 -20.5 123t-44 77.5t-81 44t-89 21.5t-110.5 10q-14 1 -21 2q-59 5 -112 18.5t-106.5 44t-91.5 74.5t-62 113t-24 156
q0 224 110.5 334t354.5 110q228 0 336 -102t119 -303h-203q-8 109 -61.5 165t-190.5 56q-80 0 -133 -17.5t-80.5 -53t-38 -79.5t-10.5 -108q0 -59 19.5 -100.5t48 -64.5t77.5 -37.5t91.5 -20t106.5 -11.5q30 -2 46 -4q371 -37 371 -438q0 -248 -99 -363t-323 -122l-16 -74
q55 4 94 -16t55.5 -52.5t24 -71t-1.5 -71.5q-19 -87 -88 -137.5t-160 -44.5q-135 8 -193 100l72 105q18 -31 52.5 -51.5t72.5 -20.5q79 0 98 68q13 55 -34 87t-117 3z" />
    <glyph glyph-name="scedilla" unicode="&#x15f;" horiz-adv-x="999" 
d="M403 -160l-4 -2l39 156q-171 15 -262.5 110t-97.5 267h196q7 -107 71.5 -155t166.5 -48q109 0 169 51t60 139q0 29 -8.5 52.5t-21.5 39.5t-37 28.5t-44.5 19.5t-54.5 12t-57.5 7t-62.5 5q-367 25 -367 324q0 165 106 265.5t310 100.5q203 0 303.5 -91.5t95.5 -260.5h-186
q0 176 -219 176q-103 0 -159 -47.5t-56 -142.5q0 -39 12 -65.5t29 -41.5t50.5 -24t60.5 -12t75 -7q18 -1 27 -2q37 -3 62 -6t61.5 -9t61.5 -14t56 -21t52 -30t42.5 -41.5t34.5 -54.5t21 -70.5t8 -87.5q0 -167 -99 -260.5t-268 -105.5l-16 -78q54 4 93 -16t55 -51.5
t23.5 -69.5t-1.5 -70q-19 -86 -86.5 -134.5t-159.5 -43.5q-131 8 -186 98l69 103q18 -29 52 -49.5t69 -20.5q81 0 99 66q13 54 -33.5 85t-114.5 3z" />
    <glyph glyph-name="Scaron" unicode="&#x160;" horiz-adv-x="1161" 
d="M655 1690h-116l-254 249v15h190l117 -117l119 117h190v-15zM1026 1190h-203q-8 109 -61.5 165t-190.5 56q-80 0 -133 -17.5t-80.5 -53t-38 -79.5t-10.5 -108q0 -59 19.5 -100.5t48 -64.5t77.5 -37.5t91.5 -20t106.5 -11.5q30 -2 46 -4q371 -37 371 -438
q0 -256 -106 -370.5t-349 -114.5h-39q-463 0 -485 426h211q8 -111 69 -173.5t203 -62.5h39q78 0 129.5 18t78.5 56.5t37.5 87.5t10.5 123q0 72 -20.5 123t-44 77.5t-81 44t-89 21.5t-110.5 10q-14 1 -21 2q-59 5 -112 18.5t-106.5 44t-91.5 74.5t-62 113t-24 156
q0 224 110.5 334t354.5 110q228 0 336 -102t119 -303z" />
    <glyph glyph-name="scaron" unicode="&#x161;" horiz-adv-x="999" 
d="M903 860h-186q0 176 -219 176q-103 0 -159 -47.5t-56 -142.5q0 -39 12 -65.5t29 -41.5t50.5 -24t60.5 -12t75 -7q18 -1 27 -2q37 -3 62 -6t61.5 -9t61.5 -14t56 -21t52 -30t42.5 -41.5t34.5 -54.5t21 -70.5t8 -87.5q0 -182 -115.5 -276t-308.5 -94q-206 0 -316.5 95.5
t-117.5 285.5h196q7 -107 71.5 -155t166.5 -48q109 0 169 51t60 139q0 29 -8.5 52.5t-21.5 39.5t-37 28.5t-44.5 19.5t-54.5 12t-57.5 7t-62.5 5q-367 25 -367 324q0 165 106 265.5t310 100.5q203 0 303.5 -91.5t95.5 -260.5zM561 1319h-117l-254 250v14h191l117 -117
l118 117h191v-14z" />
    <glyph glyph-name="Tcommaaccent" unicode="&#x162;" horiz-adv-x="882" 
d="M866 1391h-327v-1391h-52l-20 -90q54 4 93 -16t55 -51.5t23.5 -69.5t-1.5 -70q-19 -86 -86.5 -134.5t-159.5 -43.5q-135 8 -190 98l69 103q18 -29 52.5 -49.5t72.5 -20.5q81 0 99 65q13 54 -34.5 85.5t-117.5 3.5l-29 24l-4 -2l43 168h-8v1391h-328v180h850v-180z" />
    <glyph glyph-name="tcommaaccent" unicode="&#x163;" horiz-adv-x="600" 
d="M131 330v1077l191 23v-238h206v-184h-206v-672q0 -94 49 -132.5t166 -23.5v-180q-74 -8 -140 -2l-22 -72q48 4 83 -14t49.5 -47t21.5 -63.5t-1 -63.5q-17 -79 -78 -124.5t-143 -39.5q-49 2 -96 24t-74 66l62 92q16 -26 46.5 -44.5t63.5 -18.5q72 0 90 59q11 50 -31 79.5
t-104 2.5l-26 23l-5 -2l52 168q-84 35 -119 112t-35 195z" />
    <glyph glyph-name="Tcaron" unicode="&#x164;" horiz-adv-x="894" 
d="M866 1391h-327v-1391h-195v1391h-328v180h850v-180zM504 1688h-117l-254 249v15h191l116 -117l119 117h191v-15z" />
    <glyph glyph-name="tcaron" unicode="&#x165;" horiz-adv-x="815" 
d="M655 1438h170l-104 -340h-125zM131 330v1077l191 23v-238h149v-176h-149v-680q0 -94 49 -132.5t166 -23.5v-180q-95 -13 -164 -0.5t-115.5 37.5t-74.5 70.5t-40 99t-12 123.5z" />
    <glyph glyph-name="Tbar" unicode="&#x166;" horiz-adv-x="884" 
d="M866 1391h-327v-504h194v-137h-194v-750h-195v750h-190v137h190v504h-328v180h850v-180z" />
    <glyph glyph-name="tbar" unicode="&#x167;" horiz-adv-x="577" 
d="M27 637v123h104v647l191 23v-238h206v-184h-206v-248h143v-123h-143v-301q0 -94 49 -132.5t166 -23.5v-180q-95 -13 -164 -0.5t-115.5 37.5t-74.5 70.5t-40 99t-12 123.5v307h-104z" />
    <glyph glyph-name="Utilde" unicode="&#x168;" horiz-adv-x="1232" 
d="M901 518v1063h197v-1061q0 -135 -23.5 -230t-78.5 -165t-150 -103.5t-234 -33.5t-234.5 33.5t-151 103.5t-79.5 165t-24 230v1059h196v-1061q0 -99 11.5 -160.5t43.5 -106t89 -63t149 -18.5q73 0 123.5 13t83.5 37t51 68t24.5 97t6.5 133zM455 1667l-113 53q22 93 93 135
t157 11l92 -43q78 -29 104 53l117 -47q-21 -104 -90.5 -143.5t-146.5 -8.5l-90 41q-91 32 -123 -51z" />
    <glyph glyph-name="utilde" unicode="&#x169;" horiz-adv-x="1193" 
d="M1051 1190v-1190h-174l-13 127q-50 -81 -127.5 -111t-179.5 -30q-204 0 -300.5 99.5t-96.5 332.5v772h196v-770q0 -125 63 -190.5t171 -65.5q116 0 190 65.5t74 188.5v772h197zM438 1315l-112 53q22 93 92.5 134.5t156.5 10.5l93 -43q78 -29 104 54l117 -47
q-21 -104 -91 -143.5t-147 -8.5l-90 41q-91 32 -123 -51z" />
    <glyph glyph-name="Umacron" unicode="&#x16a;" horiz-adv-x="1232" 
d="M379 1868h463v-160h-463v160zM901 518v1063h197v-1061q0 -135 -23.5 -230t-78.5 -165t-150 -103.5t-234 -33.5t-234.5 33.5t-151 103.5t-79.5 165t-24 230v1059h196v-1061q0 -99 11.5 -160.5t43.5 -106t89 -63t149 -18.5q73 0 123.5 13t83.5 37t51 68t24.5 97t6.5 133z
" />
    <glyph glyph-name="umacron" unicode="&#x16b;" horiz-adv-x="1193" 
d="M389 1550h467v-155h-467v155zM1051 1190v-1190h-174l-13 127q-50 -81 -127.5 -111t-179.5 -30q-204 0 -300.5 99.5t-96.5 332.5v772h196v-770q0 -125 63 -190.5t171 -65.5q116 0 190 65.5t74 188.5v772h197z" />
    <glyph glyph-name="Ubreve" unicode="&#x16c;" horiz-adv-x="1232" 
d="M901 518v1063h197v-1061q0 -135 -23.5 -230t-78.5 -165t-150 -103.5t-234 -33.5t-234.5 33.5t-151 103.5t-79.5 165t-24 230v1059h196v-1061q0 -99 11.5 -160.5t43.5 -106t89 -63t149 -18.5q73 0 123.5 13t83.5 37t51 68t24.5 97t6.5 133zM627 1677q-272 0 -260 269h145
q0 -67 22.5 -100.5t92.5 -33.5q37 0 60.5 9.5t34 29.5t14 41t3.5 54h146q6 -135 -57 -202t-201 -67z" />
    <glyph glyph-name="ubreve" unicode="&#x16d;" horiz-adv-x="1193" 
d="M1051 1190v-1190h-174l-13 127q-50 -81 -127.5 -111t-179.5 -30q-204 0 -300.5 99.5t-96.5 332.5v772h196v-770q0 -125 63 -190.5t171 -65.5q116 0 190 65.5t74 188.5v772h197zM623 1315q-273 0 -261 268h146q0 -66 22.5 -99.5t92.5 -33.5t91 33t21 100h146
q6 -135 -57 -201.5t-201 -66.5z" />
    <glyph glyph-name="Uring" unicode="&#x16e;" horiz-adv-x="1232" 
d="M901 518v1063h197v-1061q0 -135 -23.5 -230t-78.5 -165t-150 -103.5t-234 -33.5t-234.5 33.5t-151 103.5t-79.5 165t-24 230v1059h196v-1061q0 -99 11.5 -160.5t43.5 -106t89 -63t149 -18.5q73 0 123.5 13t83.5 37t51 68t24.5 97t6.5 133zM403 1825q0 86 62.5 135
t150.5 49q86 0 150.5 -48t64.5 -134q0 -89 -62.5 -139t-154.5 -50t-152 49.5t-59 137.5zM616 1905q-43 0 -67.5 -25.5t-24.5 -55.5t24.5 -55.5t67.5 -25.5q46 0 71.5 25.5t25 55.5t-26.5 55.5t-70 25.5z" />
    <glyph glyph-name="uring" unicode="&#x16f;" horiz-adv-x="1193" 
d="M1051 1190v-1190h-174l-13 127q-50 -81 -127.5 -111t-179.5 -30q-204 0 -300.5 99.5t-96.5 332.5v772h196v-770q0 -125 63 -190.5t171 -65.5q116 0 190 65.5t74 188.5v772h197zM412 1442q0 86 62.5 135t150.5 49q86 0 150.5 -48t64.5 -134q0 -89 -62.5 -139t-154.5 -50
t-152 49.5t-59 137.5zM625 1522q-43 0 -67.5 -25.5t-24.5 -55.5t24.5 -55.5t67.5 -25.5q46 0 71.5 25.5t25 55.5t-26.5 55.5t-70 25.5z" />
    <glyph glyph-name="Uhungarumlaut" unicode="&#x170;" horiz-adv-x="1232" 
d="M901 518v1063h197v-1061q0 -135 -23.5 -230t-78.5 -165t-150 -103.5t-234 -33.5t-234.5 33.5t-151 103.5t-79.5 165t-24 230v1059h196v-1061q0 -99 11.5 -160.5t43.5 -106t89 -63t149 -18.5q73 0 123.5 13t83.5 37t51 68t24.5 97t6.5 133zM358 1694l134 233h192v-4
l-162 -229h-164zM674 1692l133 235h192v-4l-159 -231h-166z" />
    <glyph glyph-name="uhungarumlaut" unicode="&#x171;" horiz-adv-x="1193" 
d="M1051 1190v-1190h-174l-13 127q-50 -81 -127.5 -111t-179.5 -30q-204 0 -300.5 99.5t-96.5 332.5v772h196v-770q0 -125 63 -190.5t171 -65.5q116 0 190 65.5t74 188.5v772h197zM358 1354l134 233h192v-4l-162 -229h-164zM674 1352l133 235h192v-4l-159 -231h-166z" />
    <glyph glyph-name="Uogonek" unicode="&#x172;" horiz-adv-x="1232" 
d="M973 -117l88 -106q-42 -48 -96 -79t-109 -34q-67 -2 -121 10.5t-97.5 48t-59.5 93.5q-13 32 -1.5 87t44.5 85h-9q-139 0 -234.5 33.5t-151 103.5t-79.5 165t-24 230v1059h196v-1061q0 -99 11.5 -160.5t43.5 -106t89 -63t149 -18.5q73 0 123.5 13t83.5 37t51 68t24.5 97
t6.5 133v1063h197v-1061q0 -214 -64.5 -339t-216.5 -169q-45 -19 -66 -59t-6 -76q25 -58 103 -55q70 3 125 61z" />
    <glyph glyph-name="uogonek" unicode="&#x173;" horiz-adv-x="1198" 
d="M1051 1190v-1256q-87 14 -140.5 -34.5t-33.5 -108.5t90 -57q56 3 102 49l78 -90q-65 -77 -174 -84q-82 -3 -142 31t-83 104q-12 45 -7 93t41.5 93.5t94.5 65.5l-13 131q-50 -81 -127.5 -111t-179.5 -30q-204 0 -300.5 99.5t-96.5 332.5v772h196v-770q0 -125 63 -190.5
t171 -65.5q116 0 190 65.5t74 188.5v772h197z" />
    <glyph glyph-name="Wcircumflex" unicode="&#x174;" horiz-adv-x="1644" 
d="M485 324l271 1171h151l271 -1171l114 589l152 668h201l-377 -1583h-178l-134 530l-125 568l-124 -568l-134 -530h-178l-377 1583h201l152 -668zM772 1905h117l254 -250v-15h-191l-116 117l-119 -117h-191v15z" />
    <glyph glyph-name="wcircumflex" unicode="&#x175;" horiz-adv-x="1501" 
d="M1176 799l122 399h205l-344 -1200h-194l-99 350l-106 465l-109 -471l-96 -344h-195l-344 1200h205l123 -399q24 -81 43.5 -168.5t42.5 -210t29 -150.5q56 283 119 533l110 395h143l113 -395q53 -211 117 -533q6 28 29 150.5t42.5 210t43.5 168.5zM696 1597h117l254 -249
v-15h-190l-117 117l-119 -117h-190v15z" />
    <glyph glyph-name="Ycircumflex" unicode="&#x176;" horiz-adv-x="948" 
d="M334 1274l139 -393l139 393l127 307h211l-381 -919v-664h-194v664l-379 919h211zM412 1954h116l254 -250v-14h-190l-117 116l-119 -116h-190v14z" />
    <glyph glyph-name="ycircumflex" unicode="&#x177;" horiz-adv-x="980" 
d="M358 813l154 -555q43 220 150 567l116 373h203l-375 -1200l-71 -227q-57 -180 -162 -229.5t-275 20.5l35 166q37 -15 65.5 -20.5t61 -0.5t58.5 35.5t44 85.5l50 170l-381 1200h213zM446 1610h117l254 -250v-14h-190l-117 116l-119 -116h-190v14z" />
    <glyph glyph-name="Ydieresis" unicode="&#x178;" horiz-adv-x="944" 
d="M334 1274l139 -393l139 393l127 307h211l-381 -919v-664h-194v664l-379 919h211zM131 1821q0 43 24.5 72.5t59 37t69 1t59 -36.5t24.5 -74q0 -41 -24.5 -70.5t-59 -37t-69 -1.5t-59 35.5t-24.5 73.5zM578 1821q0 53 36.5 84t81 32t81 -30t36.5 -86q0 -51 -36.5 -82
t-81 -32t-81 29t-36.5 85z" />
    <glyph glyph-name="Zacute" unicode="&#x179;" horiz-adv-x="948" 
d="M936 1581l-631 -1403h608v-178h-884l630 1409h-546v172h823zM578 1694h-156v10l108 260h193v-6z" />
    <glyph glyph-name="zacute" unicode="&#x17a;" horiz-adv-x="985" 
d="M63 0v31l590 989h-534v178h823v-35l-582 -981h594v-182h-891zM586 1325h-156v10l109 260h192v-6z" />
    <glyph glyph-name="Zdotaccent" unicode="&#x17b;" horiz-adv-x="940" 
d="M418 1800q0 51 34.5 80.5t76 29.5t76 -29.5t34.5 -80.5t-34.5 -80.5t-76 -29.5t-76 29.5t-34.5 80.5zM936 1581l-631 -1403h608v-178h-884l630 1409h-546v172h823z" />
    <glyph glyph-name="zdotaccent" unicode="&#x17c;" horiz-adv-x="985" 
d="M63 0v31l590 989h-534v178h823v-35l-582 -981h594v-182h-891zM416 1473q0 53 36.5 84t81 32t81 -30t36.5 -86q0 -51 -36.5 -82t-81 -32t-81 29t-36.5 85z" />
    <glyph glyph-name="Zcaron" unicode="&#x17d;" horiz-adv-x="962" 
d="M936 1581l-631 -1403h608v-178h-884l630 1409h-546v172h823zM590 1679h-117l-254 250v15h191l116 -117l119 117h191v-15z" />
    <glyph glyph-name="zcaron" unicode="&#x17e;" horiz-adv-x="995" 
d="M63 0v31l590 989h-534v178h823v-35l-582 -981h594v-182h-891zM596 1319h-117l-254 250v14h191l116 -117l119 117h191v-14z" />
    <glyph glyph-name="longs" unicode="&#x17f;" horiz-adv-x="632" 
d="M121 -2v1155q0 240 130.5 350.5t354.5 89.5v-178q-71 7 -121.5 -0.5t-90.5 -35t-59.5 -84t-19.5 -142.5v-1155h-194z" />
    <glyph glyph-name="florin" unicode="&#x192;" horiz-adv-x="790" 
d="M55 932v180h211v41q0 240 130.5 350.5t355.5 89.5v-178q-71 7 -121.5 -0.5t-90.5 -35t-59.5 -84t-19.5 -142.5v-41h256v-180h-256v-864q0 -240 -131 -351t-355 -90v178q145 -15 218 40.5t73 222.5v864h-211z" />
    <glyph glyph-name="Ohorn" unicode="&#x1a0;" horiz-adv-x="1271" 
d="M1145 1069v-551q0 -79 -5.5 -139t-20 -117.5t-39.5 -98.5t-63.5 -76t-92 -56.5t-126.5 -33t-165 -11.5t-165 11.5t-126.5 33t-92 56.5t-63.5 76t-39.5 98.5t-20 117.5t-5.5 139v551q0 111 11.5 189t44 147t89 110t147.5 64t220 23q126 0 237 -27h41q67 -2 91 19t24 89v15
h162v-15q0 -92 -33.5 -145.5t-103.5 -73.5q53 -64 73.5 -160t20.5 -235zM948 516v555q0 71 -3 113.5t-13.5 88t-30.5 69.5t-55 44.5t-87 28.5t-126 8q-63 0 -110.5 -7t-81.5 -18.5t-56.5 -35t-36 -47.5t-20.5 -65.5t-9 -80t-2 -98.5v-555q0 -60 2 -98.5t9 -79.5t20.5 -64.5
t36 -46.5t57 -34.5t81.5 -18t110 -6.5q56 0 98.5 4.5t75 15.5t55.5 24t39 36.5t25 47t14 61t6.5 72t1.5 87.5z" />
    <glyph glyph-name="ohorn" unicode="&#x1a1;" horiz-adv-x="1101" 
d="M551 -20q-242 0 -345.5 105.5t-103.5 350.5v342q0 229 116 331.5t333 102.5q115 0 197 -26h36q66 0 89.5 20t23.5 88v15h162v-15q0 -182 -144 -219q84 -111 84 -297v-342q0 -244 -105 -350t-343 -106zM551 150q138 0 196 63t58 223v342q0 80 -16 132t-51 79.5t-78.5 38
t-108.5 10.5t-108.5 -10.5t-78.5 -38t-51 -79.5t-16 -132v-342q0 -159 60 -222.5t194 -63.5z" />
    <glyph glyph-name="Uhorn" unicode="&#x1af;" horiz-adv-x="1232" 
d="M901 518v1063h164q25 7 35 30.5t10 71.5v15h162v-15q0 -103 -42.5 -158t-131.5 -67v-938q0 -135 -23.5 -230t-78.5 -165t-150 -103.5t-234 -33.5t-234.5 33.5t-151 103.5t-79.5 165t-24 230v1059h196v-1061q0 -99 11.5 -160.5t43.5 -106t89 -63t149 -18.5q73 0 123.5 13
t83.5 37t51 68t24.5 97t6.5 133z" />
    <glyph glyph-name="uhorn" unicode="&#x1b0;" horiz-adv-x="1169" 
d="M1200 1309v-15q0 -103 -42.5 -158t-131.5 -67v-1069h-174l-12 127q-50 -81 -128 -111t-180 -30q-204 0 -300.5 99.5t-96.5 332.5v772h197v-770q0 -125 62.5 -190.5t170.5 -65.5q116 0 190 65.5t74 188.5v772h156q29 8 41 30.5t12 73.5v15h162z" />
    <glyph glyph-name="Aringacute" unicode="&#x1fa;" horiz-adv-x="1056" 
d="M602 2023h221l-207 -168h-161v9zM317 1599q0 99 64.5 153t155.5 54q90 0 155.5 -53t65.5 -151q0 -105 -84 -168l381 -1434h-201l-80 293h-473l-80 -293h-203l381 1432q-85 58 -82 167zM641 813l-104 508l-107 -514l-80 -330h373zM537 1686q-44 0 -69.5 -27t-25.5 -59.5
t25.5 -59.5t69.5 -27q46 0 72 27t25.5 59.5t-26.5 59.5t-71 27z" />
    <glyph glyph-name="aringacute" unicode="&#x1fb;" horiz-adv-x="1050" 
d="M588 1876h196l-176 -172h-149v6zM944 809v-809h-176l-16 162q-34 -71 -118.5 -121.5t-187.5 -50.5q-79 0 -140.5 16.5t-99.5 43t-63.5 65.5t-36.5 77t-16 84q-15 158 84.5 265t284.5 133q93 14 289 18v117q0 110 -50.5 166.5t-177.5 56.5q-93 0 -141 -43.5t-47 -157.5
h-191q-6 195 92 287t293 92q205 0 311.5 -95t106.5 -306zM752 530q-188 0 -277 -20q-208 -45 -188 -209q6 -66 56 -95.5t124 -29.5q78 0 134 27t87.5 77t46.5 111t17 139zM336 1456q0 88 62 138.5t149 50.5q84 0 147.5 -50t63.5 -137q0 -89 -61.5 -139.5t-151.5 -50.5
q-91 0 -150.5 50t-58.5 138zM547 1538q-56 0 -79 -40.5t0 -81t79 -40.5q44 0 69 25.5t24.5 55.5t-25.5 55.5t-68 25.5z" />
    <glyph glyph-name="AEacute" unicode="&#x1fc;" horiz-adv-x="1519" 
d="M979 1673h-156v8l109 240h192v-6zM633 1581h815v-166h-537v-481h504v-174h-504v-586h555v-174h-735v377h-385l-143 -377h-199zM412 551h319v852l-123 -352z" />
    <glyph glyph-name="aeacute" unicode="&#x1fd;" horiz-adv-x="1708" 
d="M1415 344h191q0 -181 -101.5 -272.5t-330.5 -91.5q-147 0 -229.5 43t-129.5 135q-76 -95 -160 -136.5t-200 -41.5q-328 0 -357 296q-15 160 81.5 266t287.5 132q92 14 295 18v117q0 109 -53 166t-181 57q-93 0 -141 -43.5t-47 -157.5h-190q-6 195 92 287t293 92
q115 0 193 -32.5t120 -110.5q50 77 129.5 111t196.5 34q213 0 324.5 -103t111.5 -331v-260h-680v-90q0 -108 26 -166t76 -79t142 -21q128 0 184.5 44t56.5 138zM930 778v-86h491v86q0 79 -16 131t-49.5 80t-76 38.5t-105.5 10.5t-104.5 -10.5t-75 -38t-49 -79.5t-15.5 -132z
M766 524q-7 0 -51 1t-74.5 1t-76.5 -4t-81 -12q-208 -45 -188 -209q6 -66 56.5 -97.5t123.5 -31.5q280 0 291 352zM932 1329h-156v10l109 260h192v-6z" />
    <glyph glyph-name="Oslashacute" unicode="&#x1fe;" horiz-adv-x="1220" 
d="M1128 1069v-551q0 -79 -5.5 -139t-20 -117.5t-39.5 -98.5t-63.5 -76t-92 -56.5t-126.5 -33t-165 -11.5q-129 0 -225 22l-61 -164h-164l86 228q-84 61 -116 168t-32 278v551q0 111 11.5 189t44 147t89 110t147.5 64t220 23q105 0 205 -21l66 172h164l-86 -225
q94 -59 128.5 -169.5t34.5 -289.5zM932 516v555q0 98 -8.5 159t-32.5 101l-434 -1149q57 -14 159 -14q63 0 110 6.5t81.5 18t57 34.5t36 46.5t20.5 64.5t9 79.5t2 98.5zM301 516q0 -92 5.5 -145.5t23.5 -91.5l428 1132q-59 12 -142 12q-74 0 -126 -8t-87 -28.5t-55 -44.5
t-30.5 -69.5t-13.5 -88t-3 -113.5v-555zM694 1720h-157v9l110 235h193v-6z" />
    <glyph glyph-name="oslashacute" unicode="&#x1ff;" horiz-adv-x="1101" 
d="M324 -150h-164l84 201q-74 53 -108 147t-34 238v342q0 229 116 331.5t333 102.5q93 0 170 -18l55 133h164l-82 -197q141 -107 141 -352v-342q0 -244 -105 -350t-343 -106q-90 0 -168 16zM297 436q0 -112 31 -182l323 774q-48 10 -100 10q-65 0 -108.5 -10.5t-78.5 -38
t-51 -79.5t-16 -132v-342zM551 150q138 0 196 63t58 223v342q0 98 -29 158l-323 -776q36 -10 98 -10zM610 1352h-157v8l110 235h193v-6z" />
    <glyph glyph-name="Scommaaccent" unicode="&#x218;" horiz-adv-x="1163" 
d="M459 -469l-80 98q44 27 70.5 55.5t38.5 66.5t15 69.5t3 87.5h176q0 -154 -48 -238.5t-175 -138.5zM1026 1190h-203q-8 109 -61.5 165t-190.5 56q-80 0 -133 -17.5t-80.5 -53t-38 -79.5t-10.5 -108q0 -59 19.5 -100.5t48 -64.5t77.5 -37.5t91.5 -20t106.5 -11.5
q30 -2 46 -4q371 -37 371 -438q0 -256 -106 -370.5t-349 -114.5h-39q-463 0 -485 426h211q8 -111 69 -173.5t203 -62.5h39q78 0 129.5 18t78.5 56.5t37.5 87.5t10.5 123q0 72 -20.5 123t-44 77.5t-81 44t-89 21.5t-110.5 10q-14 1 -21 2q-59 5 -112 18.5t-106.5 44
t-91.5 74.5t-62 113t-24 156q0 224 110.5 334t354.5 110q228 0 336 -102t119 -303z" />
    <glyph glyph-name="scommaaccent" unicode="&#x219;" horiz-adv-x="999" 
d="M391 -492l-80 99q44 27 70.5 55.5t38.5 66t15 69t3 87.5h176q0 -154 -48 -238.5t-175 -138.5zM903 860h-186q0 176 -219 176q-103 0 -159 -47.5t-56 -142.5q0 -39 12 -65.5t29 -41.5t50.5 -24t60.5 -12t75 -7q18 -1 27 -2q37 -3 62 -6t61.5 -9t61.5 -14t56 -21t52 -30
t42.5 -41.5t34.5 -54.5t21 -70.5t8 -87.5q0 -182 -115.5 -276t-308.5 -94q-206 0 -316.5 95.5t-117.5 285.5h196q7 -107 71.5 -155t166.5 -48q109 0 169 51t60 139q0 29 -8.5 52.5t-21.5 39.5t-37 28.5t-44.5 19.5t-54.5 12t-57.5 7t-62.5 5q-367 25 -367 324
q0 165 106 265.5t310 100.5q203 0 303.5 -91.5t95.5 -260.5z" />
    <glyph glyph-name="uni021A" unicode="&#x21a;" horiz-adv-x="886" 
d="M309 -492l-80 99q44 27 70.5 55.5t38.5 66t15 69t3 87.5h176q0 -154 -48 -238.5t-175 -138.5zM866 1391h-327v-1391h-195v1391h-328v180h850v-180z" />
    <glyph glyph-name="uni021B" unicode="&#x21b;" horiz-adv-x="595" 
d="M238 -492l-80 99q44 27 70.5 55.5t38.5 66t15 69t3 87.5h176q0 -154 -48 -238.5t-175 -138.5zM131 330v1077l191 23v-238h206v-184h-206v-672q0 -94 49 -132.5t166 -23.5v-180q-95 -13 -164 -0.5t-115.5 37.5t-74.5 70.5t-40 99t-12 123.5z" />
    <glyph glyph-name="dotlessj" unicode="&#x237;" horiz-adv-x="495" 
d="M354 1188v-1243q0 -189 -84.5 -268t-267.5 -64v174q34 -5 63.5 -1.5t51.5 16t34.5 48.5t12.5 95v1243h190z" />
    <glyph glyph-name="circumflex" unicode="&#x2c6;" horiz-adv-x="727" 
d="M299 1589h117l254 -250v-14h-191l-117 117l-118 -117h-191v14z" />
    <glyph glyph-name="caron" unicode="&#x2c7;" horiz-adv-x="847" 
d="M487 1319h-116l-254 250v14h190l117 -117l119 117h190v-14z" />
    <glyph glyph-name="breve" unicode="&#x2d8;" horiz-adv-x="643" 
d="M317 1315q-139 0 -202.5 67t-57.5 201h146q0 -67 22 -100t92 -33t91.5 33t21.5 100h145q6 -135 -57 -201.5t-201 -66.5z" />
    <glyph glyph-name="dotaccent" unicode="&#x2d9;" horiz-adv-x="434" 
d="M102 1485q0 43 24.5 72.5t59 37t69 1t59 -36.5t24.5 -74q0 -41 -24.5 -70.5t-59 -37t-69 -1.5t-59 35.5t-24.5 73.5z" />
    <glyph glyph-name="ring" unicode="&#x2da;" horiz-adv-x="655" 
d="M125 1378q0 99 64.5 156t154.5 57q89 0 155 -56.5t66 -154.5q0 -100 -64.5 -157.5t-158.5 -57.5q-95 0 -156.5 57t-60.5 156zM344 1470q-44 0 -69.5 -29t-25.5 -63t25.5 -63t69.5 -29q37 0 62.5 19t31 46t-1 54t-31.5 46t-61 19z" />
    <glyph glyph-name="ogonek" unicode="&#x2db;" horiz-adv-x="825" 
d="M446 0h175q-69 -28 -107.5 -74t-38.5 -76q0 -67 72 -67q42 0 74 4v-174q-328 -18 -328 174q0 70 43.5 124t109.5 89z" />
    <glyph glyph-name="tilde" unicode="&#x2dc;" horiz-adv-x="731" 
d="M195 1384l-113 54q22 93 93 134.5t157 10.5l92 -43q78 -29 104 53l117 -47q-21 -104 -90.5 -143t-146.5 -8l-91 41q-90 32 -122 -52z" />
    <glyph glyph-name="hungarumlaut" unicode="&#x2dd;" horiz-adv-x="755" 
d="M88 1354l133 233h193v-4l-162 -229h-164zM403 1352l134 235h192v-4l-160 -231h-166z" />
    <glyph glyph-name="mu" unicode="&#x3bc;" horiz-adv-x="1112" 
d="M121 -453v2v1641h203v-756q0 -147 60 -213.5t179 -66.5q118 0 177 69.5t59 235.5v729h194v-1188h-166l-20 113q-29 -78 -96.5 -122t-153.5 -44q-194 0 -246 141v-541h-190z" />
    <glyph glyph-name="Wgrave" unicode="&#x1e80;" horiz-adv-x="1669" 
d="M485 324l271 1171h151l271 -1171l114 589l152 668h201l-377 -1583h-178l-134 530l-125 568l-124 -568l-134 -530h-178l-377 1583h201l152 -668zM766 1661l-145 264v6h198l109 -260v-10h-162z" />
    <glyph glyph-name="wgrave" unicode="&#x1e81;" horiz-adv-x="1544" 
d="M686 1329l-145 264v6h198l109 -260v-10h-162zM1176 799l122 399h205l-344 -1200h-194l-99 350l-106 465l-109 -471l-96 -344h-195l-344 1200h205l123 -399q24 -81 43.5 -168.5t42.5 -210t29 -150.5q56 283 119 533l110 395h143l113 -395q53 -211 117 -533q6 28 29 150.5
t42.5 210t43.5 168.5z" />
    <glyph glyph-name="Wacute" unicode="&#x1e82;" horiz-adv-x="1673" 
d="M485 324l271 1171h151l271 -1171l114 589l152 668h201l-377 -1583h-178l-134 530l-125 568l-124 -568l-134 -530h-178l-377 1583h201l152 -668zM913 1640h-155v11l108 260h193v-6z" />
    <glyph glyph-name="wacute" unicode="&#x1e83;" horiz-adv-x="1529" 
d="M1176 799l122 399h205l-344 -1200h-194l-99 350l-106 465l-109 -471l-96 -344h-195l-344 1200h205l123 -399q24 -81 43.5 -168.5t42.5 -210t29 -150.5q56 283 119 533l110 395h143l113 -395q53 -211 117 -533q6 28 29 150.5t42.5 210t43.5 168.5zM834 1325h-156v10
l108 260h193v-6z" />
    <glyph glyph-name="Wdieresis" unicode="&#x1e84;" horiz-adv-x="1669" 
d="M485 324l271 1171h151l271 -1171l114 589l152 668h201l-377 -1583h-178l-134 530l-125 568l-124 -568l-134 -530h-178l-377 1583h201l152 -668zM485 1755q0 43 24.5 72.5t59 37t69 1t59 -36.5t24.5 -74q0 -41 -24.5 -70.5t-59 -37t-69 -1.5t-59 35.5t-24.5 73.5z
M932 1755q0 53 36.5 84t81 32t81 -30t36.5 -86q0 -51 -36.5 -82t-81 -32t-81 29t-36.5 85z" />
    <glyph glyph-name="wdieresis" unicode="&#x1e85;" horiz-adv-x="1523" 
d="M412 1473q0 43 23 72t56 36t65.5 0t55.5 -36t23 -72q0 -51 -35 -80.5t-76.5 -29.5t-76.5 29.5t-35 80.5zM891 1470q0 43 23 72t55.5 36t64.5 0.5t55 -35t23 -70.5q0 -41 -23 -69.5t-55 -35.5t-64.5 -0.5t-55.5 34t-23 68.5zM1176 799l122 399h205l-344 -1200h-194
l-99 350l-106 465l-109 -471l-96 -344h-195l-344 1200h205l123 -399q24 -81 43.5 -168.5t42.5 -210t29 -150.5q56 283 119 533l110 395h143l113 -395q53 -211 117 -533q6 28 29 150.5t42.5 210t43.5 168.5z" />
    <glyph glyph-name="uni1EA0" unicode="&#x1ea0;" 
d="M395 -248q0 43 24.5 72.5t59 37t69 1t59 -36.5t24.5 -74q0 -41 -24.5 -70.5t-59 -37t-69 -1.5t-59 35.5t-24.5 73.5zM1055 0h-201l-80 293h-473l-80 -293h-203l420 1575h199zM641 813l-104 508l-107 -514l-80 -330h373z" />
    <glyph glyph-name="uni1EA1" unicode="&#x1ea1;" 
d="M385 -248q0 43 24.5 72.5t59 37t69 1t59 -36.5t24.5 -74q0 -41 -24.5 -70.5t-59 -37t-69 -1.5t-59 35.5t-24.5 73.5zM944 809v-809h-176l-16 162q-34 -71 -118.5 -121.5t-187.5 -50.5q-79 0 -140.5 16.5t-99.5 43t-63.5 65.5t-36.5 77t-16 84q-15 158 84.5 265t284.5 133
q93 14 289 18v117q0 110 -50.5 166.5t-177.5 56.5q-93 0 -141 -43.5t-47 -157.5h-191q-6 195 92 287t293 92q205 0 311.5 -95t106.5 -306zM752 530q-188 0 -277 -20q-208 -45 -188 -209q6 -66 56 -95.5t124 -29.5q78 0 134 27t87.5 77t46.5 111t17 139z" />
    <glyph glyph-name="uni1EA2" unicode="&#x1ea2;" 
d="M481 1845h-125q0 83 37 127.5t142 44.5q176 0 176 -139q0 -53 -16.5 -79t-51.5 -48q-22 -13 -30 -30t-7 -56h-131q0 63 6 89.5t31 45.5q5 7 22 18t29 23.5t12 28.5q0 23 -10 31t-33 8q-51 0 -51 -64zM1055 0h-201l-80 293h-473l-80 -293h-203l420 1575h199zM641 813
l-104 508l-107 -514l-80 -330h373z" />
    <glyph glyph-name="uni1EA3" unicode="&#x1ea3;" 
d="M526 1479h-125q0 83 37 127.5t142 44.5q83 0 129.5 -34.5t46.5 -105.5q0 -53 -16.5 -79t-51.5 -48q-22 -13 -30 -30t-7 -56h-131q0 63 6 90t31 46q1 2 32.5 24.5t31.5 44.5q0 23 -10 31t-33 8q-52 0 -52 -63zM944 809v-809h-176l-16 162q-34 -71 -118.5 -121.5
t-187.5 -50.5q-79 0 -140.5 16.5t-99.5 43t-63.5 65.5t-36.5 77t-16 84q-15 158 84.5 265t284.5 133q93 14 289 18v117q0 110 -50.5 166.5t-177.5 56.5q-93 0 -141 -43.5t-47 -157.5h-191q-6 195 92 287t293 92q205 0 311.5 -95t106.5 -306zM752 530q-188 0 -277 -20
q-208 -45 -188 -209q6 -66 56 -95.5t124 -29.5q78 0 134 27t87.5 77t46.5 111t17 139z" />
    <glyph glyph-name="uni1EA4" unicode="&#x1ea4;" 
d="M1049 2091l-189 -238h-141v17l137 239h193v-18zM1055 0h-201l-80 293h-473l-80 -293h-203l420 1575h199zM641 813l-104 508l-107 -514l-80 -330h373zM461 1921h145l209 -242v-14h-174l-102 117l-105 -117h-174v14z" />
    <glyph glyph-name="uni1EA5" unicode="&#x1ea5;" 
d="M1077 1724l-188 -237h-141v16l137 240h192v-19zM944 809v-809h-176l-16 162q-34 -71 -118.5 -121.5t-187.5 -50.5q-79 0 -140.5 16.5t-99.5 43t-63.5 65.5t-36.5 77t-16 84q-15 158 84.5 265t284.5 133q93 14 289 18v117q0 110 -50.5 166.5t-177.5 56.5q-93 0 -141 -43.5
t-47 -157.5h-191q-6 195 92 287t293 92q205 0 311.5 -95t106.5 -306zM752 530q-188 0 -277 -20q-208 -45 -188 -209q6 -66 56 -95.5t124 -29.5q78 0 134 27t87.5 77t46.5 111t17 139zM489 1554h146l209 -241v-15h-174l-103 117l-104 -117h-174v15z" />
    <glyph glyph-name="uni1EA6" unicode="&#x1ea6;" 
d="M750 1853l-189 238v18h193l137 -239v-17h-141zM1055 0h-201l-80 293h-473l-80 -293h-203l420 1575h199zM641 813l-104 508l-107 -514l-80 -330h373zM461 1921h145l209 -242v-14h-174l-102 117l-105 -117h-174v14z" />
    <glyph glyph-name="uni1EA7" unicode="&#x1ea7;" 
d="M778 1487l-188 237v19h192l138 -240v-16h-142zM944 809v-809h-176l-16 162q-34 -71 -118.5 -121.5t-187.5 -50.5q-79 0 -140.5 16.5t-99.5 43t-63.5 65.5t-36.5 77t-16 84q-15 158 84.5 265t284.5 133q93 14 289 18v117q0 110 -50.5 166.5t-177.5 56.5q-93 0 -141 -43.5
t-47 -157.5h-191q-6 195 92 287t293 92q205 0 311.5 -95t106.5 -306zM752 530q-188 0 -277 -20q-208 -45 -188 -209q6 -66 56 -95.5t124 -29.5q78 0 134 27t87.5 77t46.5 111t17 139zM489 1554h146l209 -241v-15h-174l-103 117l-104 -117h-174v15z" />
    <glyph glyph-name="uni1EA8" unicode="&#x1ea8;" 
d="M725 2034h-125q0 83 36.5 127.5t141.5 44.5q83 0 129.5 -34.5t46.5 -105.5q0 -53 -16 -79t-51 -48q-22 -13 -30 -30t-7 -56h-131q0 63 6 90t31 46q5 7 22 17.5t29 23t12 28.5q0 23 -10 31t-33 8q-51 0 -51 -63zM1055 0h-201l-80 293h-473l-80 -293h-203l420 1575h199z
M641 813l-104 508l-107 -514l-80 -330h373zM461 1921h145l209 -242v-14h-174l-102 117l-105 -117h-174v14z" />
    <glyph glyph-name="uni1EA9" unicode="&#x1ea9;" 
d="M754 1667h-125q0 83 36.5 127.5t141.5 44.5q176 0 176 -139q0 -53 -16.5 -79t-51.5 -48q-22 -13 -29.5 -30t-6.5 -56h-131q0 46 1 63.5t9 38t26 33.5q5 7 22.5 17.5t29.5 23.5t12 29q0 23 -10 31t-33 8q-51 0 -51 -64zM944 809v-809h-176l-16 162q-34 -71 -118.5 -121.5
t-187.5 -50.5q-79 0 -140.5 16.5t-99.5 43t-63.5 65.5t-36.5 77t-16 84q-15 158 84.5 265t284.5 133q93 14 289 18v117q0 110 -50.5 166.5t-177.5 56.5q-93 0 -141 -43.5t-47 -157.5h-191q-6 195 92 287t293 92q205 0 311.5 -95t106.5 -306zM752 530q-188 0 -277 -20
q-208 -45 -188 -209q6 -66 56 -95.5t124 -29.5q78 0 134 27t87.5 77t46.5 111t17 139zM489 1554h146l209 -241v-15h-174l-103 117l-104 -117h-174v15z" />
    <glyph glyph-name="uni1EAA" unicode="&#x1eaa;" 
d="M381 1958l-109 51q22 90 90.5 130t151.5 11l90 -43q78 -29 103 52l112 -45q-21 -101 -88.5 -139.5t-142.5 -8.5l-86 43q-90 32 -121 -51zM1055 0h-201l-80 293h-473l-80 -293h-203l420 1575h199zM641 813l-104 508l-107 -514l-80 -330h373zM461 1921h145l209 -242v-14
h-174l-102 117l-105 -117h-174v14z" />
    <glyph glyph-name="uni1EAB" unicode="&#x1eab;" 
d="M410 1591l-109 51q22 90 90.5 130.5t151.5 11.5l90 -43q78 -29 102 51l113 -45q-21 -101 -89 -139.5t-143 -8.5l-86 43q-89 32 -120 -51zM944 809v-809h-176l-16 162q-34 -71 -118.5 -121.5t-187.5 -50.5q-79 0 -140.5 16.5t-99.5 43t-63.5 65.5t-36.5 77t-16 84
q-15 158 84.5 265t284.5 133q93 14 289 18v117q0 110 -50.5 166.5t-177.5 56.5q-93 0 -141 -43.5t-47 -157.5h-191q-6 195 92 287t293 92q205 0 311.5 -95t106.5 -306zM752 530q-188 0 -277 -20q-208 -45 -188 -209q6 -66 56 -95.5t124 -29.5q78 0 134 27t87.5 77t46.5 111
t17 139zM489 1554h146l209 -241v-15h-174l-103 117l-104 -117h-174v15z" />
    <glyph glyph-name="uni1EAC" unicode="&#x1eac;" 
d="M395 -248q0 43 24.5 72.5t59 37t69 1t59 -36.5t24.5 -74q0 -41 -24.5 -70.5t-59 -37t-69 -1.5t-59 35.5t-24.5 73.5zM1055 0h-201l-80 293h-473l-80 -293h-203l420 1575h199zM641 813l-104 508l-107 -514l-80 -330h373zM461 1921h145l209 -242v-14h-174l-102 117
l-105 -117h-174v14z" />
    <glyph glyph-name="uni1EAD" unicode="&#x1ead;" 
d="M385 -248q0 43 24.5 72.5t59 37t69 1t59 -36.5t24.5 -74q0 -41 -24.5 -70.5t-59 -37t-69 -1.5t-59 35.5t-24.5 73.5zM944 809v-809h-176l-16 162q-34 -71 -118.5 -121.5t-187.5 -50.5q-79 0 -140.5 16.5t-99.5 43t-63.5 65.5t-36.5 77t-16 84q-15 158 84.5 265t284.5 133
q93 14 289 18v117q0 110 -50.5 166.5t-177.5 56.5q-93 0 -141 -43.5t-47 -157.5h-191q-6 195 92 287t293 92q205 0 311.5 -95t106.5 -306zM752 530q-188 0 -277 -20q-208 -45 -188 -209q6 -66 56 -95.5t124 -29.5q78 0 134 27t87.5 77t46.5 111t17 139zM489 1554h146
l209 -241v-15h-174l-103 117l-104 -117h-174v15z" />
    <glyph glyph-name="uni1EAE" unicode="&#x1eae;" 
d="M795 2165l-189 -238h-141v17l137 239h193v-18zM1055 0h-201l-80 293h-473l-80 -293h-203l420 1575h199zM641 813l-104 508l-107 -514l-80 -330h373zM541 1651q-136 0 -196 56.5t-54 182.5h139q0 -60 21 -85t90 -25q68 0 87 24.5t19 85.5h139q6 -127 -52 -183t-193 -56z
" />
    <glyph glyph-name="uni1EAF" unicode="&#x1eaf;" 
d="M842 1815l-189 -238h-141v16l137 240h193v-18zM944 809v-809h-176l-16 162q-34 -71 -118.5 -121.5t-187.5 -50.5q-79 0 -140.5 16.5t-99.5 43t-63.5 65.5t-36.5 77t-16 84q-15 158 84.5 265t284.5 133q93 14 289 18v117q0 110 -50.5 166.5t-177.5 56.5q-93 0 -141 -43.5
t-47 -157.5h-191q-6 195 92 287t293 92q205 0 311.5 -95t106.5 -306zM752 530q-188 0 -277 -20q-208 -45 -188 -209q6 -66 56 -95.5t124 -29.5q78 0 134 27t87.5 77t46.5 111t17 139zM588 1300q-136 0 -196 56.5t-54 183.5h139q0 -60 21 -85t90 -25q68 0 87 24.5t19 85.5
h140q6 -127 -52.5 -183.5t-193.5 -56.5z" />
    <glyph glyph-name="uni1EB0" unicode="&#x1eb0;" 
d="M477 1927l-188 238v18h192l137 -239v-17h-141zM1055 0h-201l-80 293h-473l-80 -293h-203l420 1575h199zM641 813l-104 508l-107 -514l-80 -330h373zM541 1651q-136 0 -196 56.5t-54 182.5h139q0 -60 21 -85t90 -25q68 0 87 24.5t19 85.5h139q6 -127 -52 -183t-193 -56z
" />
    <glyph glyph-name="uni1EB1" unicode="&#x1eb1;" 
d="M524 1577l-188 238v18h192l138 -240v-16h-142zM944 809v-809h-176l-16 162q-34 -71 -118.5 -121.5t-187.5 -50.5q-79 0 -140.5 16.5t-99.5 43t-63.5 65.5t-36.5 77t-16 84q-15 158 84.5 265t284.5 133q93 14 289 18v117q0 110 -50.5 166.5t-177.5 56.5q-93 0 -141 -43.5
t-47 -157.5h-191q-6 195 92 287t293 92q205 0 311.5 -95t106.5 -306zM752 530q-188 0 -277 -20q-208 -45 -188 -209q6 -66 56 -95.5t124 -29.5q78 0 134 27t87.5 77t46.5 111t17 139zM588 1300q-136 0 -196 56.5t-54 183.5h139q0 -60 21 -85t90 -25q68 0 87 24.5t19 85.5
h140q6 -127 -52.5 -183.5t-193.5 -56.5z" />
    <glyph glyph-name="uni1EB2" unicode="&#x1eb2;" 
d="M483 2107h-125q0 83 37 127.5t142 44.5q176 0 176 -139q0 -53 -16.5 -79t-51.5 -48q-22 -13 -30 -30t-7 -56h-131q0 63 6 89.5t31 45.5q5 7 22.5 17.5t29.5 23.5t12 29q0 23 -10 31t-33 8q-52 0 -52 -64zM1055 0h-201l-80 293h-473l-80 -293h-203l420 1575h199zM641 813
l-104 508l-107 -514l-80 -330h373zM541 1651q-136 0 -196 56.5t-54 182.5h139q0 -60 21 -85t90 -25q68 0 87 24.5t19 85.5h139q6 -127 -52 -183t-193 -56z" />
    <glyph glyph-name="uni1EB3" unicode="&#x1eb3;" 
d="M530 1757h-124q0 83 36.5 127.5t141.5 44.5q176 0 176 -139q0 -53 -16.5 -79t-51.5 -48q-22 -13 -30 -30t-7 -56h-131q0 63 6 89.5t31 45.5q5 7 22.5 17.5t29.5 23.5t12 29q0 23 -10 31t-33 8q-52 0 -52 -64zM944 809v-809h-176l-16 162q-34 -71 -118.5 -121.5
t-187.5 -50.5q-79 0 -140.5 16.5t-99.5 43t-63.5 65.5t-36.5 77t-16 84q-15 158 84.5 265t284.5 133q93 14 289 18v117q0 110 -50.5 166.5t-177.5 56.5q-93 0 -141 -43.5t-47 -157.5h-191q-6 195 92 287t293 92q205 0 311.5 -95t106.5 -306zM752 530q-188 0 -277 -20
q-208 -45 -188 -209q6 -66 56 -95.5t124 -29.5q78 0 134 27t87.5 77t46.5 111t17 139zM588 1300q-136 0 -196 56.5t-54 183.5h139q0 -60 21 -85t90 -25q68 0 87 24.5t19 85.5h140q6 -127 -52.5 -183.5t-193.5 -56.5z" />
    <glyph glyph-name="uni1EB4" unicode="&#x1eb4;" 
d="M377 1939l-107 54q20 93 87.5 134.5t148.5 10.5l86 -43q75 -29 98 53l111 -47q-19 -104 -85 -143t-138 -8l-86 41q-85 33 -115 -52zM1055 0h-201l-80 293h-473l-80 -293h-203l420 1575h199zM641 813l-104 508l-107 -514l-80 -330h373zM541 1651q-136 0 -196 56.5
t-54 182.5h139q0 -60 21 -85t90 -25q68 0 87 24.5t19 85.5h139q6 -127 -52 -183t-193 -56z" />
    <glyph glyph-name="uni1EB5" unicode="&#x1eb5;" 
d="M424 1589l-107 53q20 93 87.5 135t148.5 11l86 -43q75 -29 98 53l111 -47q-19 -104 -85 -143.5t-138 -8.5l-86 41q-86 33 -115 -51zM944 809v-809h-176l-16 162q-34 -71 -118.5 -121.5t-187.5 -50.5q-79 0 -140.5 16.5t-99.5 43t-63.5 65.5t-36.5 77t-16 84
q-15 158 84.5 265t284.5 133q93 14 289 18v117q0 110 -50.5 166.5t-177.5 56.5q-93 0 -141 -43.5t-47 -157.5h-191q-6 195 92 287t293 92q205 0 311.5 -95t106.5 -306zM752 530q-188 0 -277 -20q-208 -45 -188 -209q6 -66 56 -95.5t124 -29.5q78 0 134 27t87.5 77t46.5 111
t17 139zM588 1300q-136 0 -196 56.5t-54 183.5h139q0 -60 21 -85t90 -25q68 0 87 24.5t19 85.5h140q6 -127 -52.5 -183.5t-193.5 -56.5z" />
    <glyph glyph-name="uni1EB6" unicode="&#x1eb6;" 
d="M395 -248q0 43 24.5 72.5t59 37t69 1t59 -36.5t24.5 -74q0 -41 -24.5 -70.5t-59 -37t-69 -1.5t-59 35.5t-24.5 73.5zM1055 0h-201l-80 293h-473l-80 -293h-203l420 1575h199zM641 813l-104 508l-107 -514l-80 -330h373zM541 1651q-136 0 -196 56.5t-54 182.5h139
q0 -60 21 -85t90 -25q68 0 87 24.5t19 85.5h139q6 -127 -52 -183t-193 -56z" />
    <glyph glyph-name="uni1EB7" unicode="&#x1eb7;" 
d="M385 -248q0 43 24.5 72.5t59 37t69 1t59 -36.5t24.5 -74q0 -41 -24.5 -70.5t-59 -37t-69 -1.5t-59 35.5t-24.5 73.5zM944 809v-809h-176l-16 162q-34 -71 -118.5 -121.5t-187.5 -50.5q-79 0 -140.5 16.5t-99.5 43t-63.5 65.5t-36.5 77t-16 84q-15 158 84.5 265t284.5 133
q93 14 289 18v117q0 110 -50.5 166.5t-177.5 56.5q-93 0 -141 -43.5t-47 -157.5h-191q-6 195 92 287t293 92q205 0 311.5 -95t106.5 -306zM752 530q-188 0 -277 -20q-208 -45 -188 -209q6 -66 56 -95.5t124 -29.5q78 0 134 27t87.5 77t46.5 111t17 139zM588 1300
q-136 0 -196 56.5t-54 183.5h139q0 -60 21 -85t90 -25q68 0 87 24.5t19 85.5h140q6 -127 -52.5 -183.5t-193.5 -56.5z" />
    <glyph glyph-name="uni1EB8" unicode="&#x1eb8;" horiz-adv-x="1067" 
d="M408 -248q0 53 36.5 84t81 31.5t81 -30t36.5 -85.5q0 -51 -36.5 -82t-81 -32t-81 29t-36.5 85zM143 1581h797v-172h-602v-475h545v-182h-545v-570h653v-182h-848v1581z" />
    <glyph glyph-name="uni1EB9" unicode="&#x1eb9;" horiz-adv-x="1101" 
d="M408 -248q0 53 36.5 84t81 31.5t81 -30t36.5 -85.5q0 -51 -36.5 -82t-81 -32t-81 29t-36.5 85zM801 348h188q0 -178 -105 -269t-333 -91q-240 0 -341 99t-101 339v350q0 226 114 327t328 101q442 0 442 -428v-256h-692v-90q0 -154 57 -208t193 -54q129 0 189.5 44
t60.5 136zM301 776v-86h506v86q0 77 -17.5 128.5t-53.5 79t-79.5 38t-105.5 10.5t-104.5 -10.5t-77.5 -37.5t-51.5 -78.5t-16.5 -129.5z" />
    <glyph glyph-name="uni1EBA" unicode="&#x1eba;" horiz-adv-x="1067" 
d="M500 1845h-125q0 83 36.5 127.5t141.5 44.5q176 0 176 -139q0 -53 -16 -79t-51 -48q-22 -13 -30 -30t-7 -56h-131q0 46 1 63.5t9 38t26 33.5q5 7 22.5 17.5t29.5 23.5t12 29q0 23 -10 31t-33 8q-51 0 -51 -64zM143 1581h797v-172h-602v-475h545v-182h-545v-570h653v-182
h-848v1581z" />
    <glyph glyph-name="uni1EBB" unicode="&#x1ebb;" horiz-adv-x="1101" 
d="M520 1479h-125q0 83 36.5 127.5t141.5 44.5q83 0 130 -34.5t47 -105.5q0 -53 -16.5 -79t-51.5 -48q-22 -13 -30 -30t-7 -56h-131q0 63 6 90t31 46q5 7 22 17.5t29 23t12 28.5q0 23 -10 31t-33 8q-51 0 -51 -63zM801 348h188q0 -178 -105 -269t-333 -91q-240 0 -341 99
t-101 339v350q0 226 114 327t328 101q442 0 442 -428v-256h-692v-90q0 -154 57 -208t193 -54q129 0 189.5 44t60.5 136zM301 776v-86h506v86q0 77 -17.5 128.5t-53.5 79t-79.5 38t-105.5 10.5t-104.5 -10.5t-77.5 -37.5t-51.5 -78.5t-16.5 -129.5z" />
    <glyph glyph-name="uni1EBC" unicode="&#x1ebc;" horiz-adv-x="1067" 
d="M381 1667l-113 53q22 93 93 135t157 11l92 -43q79 -29 105 53l116 -47q-21 -104 -90.5 -143.5t-146.5 -8.5l-90 41q-91 32 -123 -51zM143 1581h797v-172h-602v-475h545v-182h-545v-570h653v-182h-848v1581z" />
    <glyph glyph-name="uni1EBD" unicode="&#x1ebd;" horiz-adv-x="1101" 
d="M410 1315l-113 53q22 93 93 134.5t157 10.5l92 -43q78 -29 104 54l117 -47q-21 -104 -90.5 -143.5t-146.5 -8.5l-91 41q-90 32 -122 -51zM801 348h188q0 -178 -105 -269t-333 -91q-240 0 -341 99t-101 339v350q0 226 114 327t328 101q442 0 442 -428v-256h-692v-90
q0 -154 57 -208t193 -54q129 0 189.5 44t60.5 136zM301 776v-86h506v86q0 77 -17.5 128.5t-53.5 79t-79.5 38t-105.5 10.5t-104.5 -10.5t-77.5 -37.5t-51.5 -78.5t-16.5 -129.5z" />
    <glyph glyph-name="uni1EBE" unicode="&#x1ebe;" horiz-adv-x="1042" 
d="M1036 2091l-188 -238h-141v17l137 239h192v-18zM119 1581h796v-172h-602v-475h545v-182h-545v-570h654v-182h-848v1581zM449 1921h145l209 -242v-14h-174l-103 117l-104 -117h-174v14z" />
    <glyph glyph-name="uni1EBF" unicode="&#x1ebf;" horiz-adv-x="1085" 
d="M1083 1724l-188 -237h-141v16l137 240h192v-19zM801 348h188q0 -178 -105 -269t-333 -91q-240 0 -341 99t-101 339v350q0 226 114 327t328 101q442 0 442 -428v-256h-692v-90q0 -154 57 -208t193 -54q129 0 189.5 44t60.5 136zM301 776v-86h506v86q0 77 -17.5 128.5
t-53.5 79t-79.5 38t-105.5 10.5t-104.5 -10.5t-77.5 -37.5t-51.5 -78.5t-16.5 -129.5zM496 1554h145l209 -241v-15h-174l-103 117l-104 -117h-174v15z" />
    <glyph glyph-name="uni1EC0" unicode="&#x1ec0;" horiz-adv-x="1042" 
d="M737 1853l-188 238v18h192l138 -239v-17h-142zM119 1581h796v-172h-602v-475h545v-182h-545v-570h654v-182h-848v1581zM449 1921h145l209 -242v-14h-174l-103 117l-104 -117h-174v14z" />
    <glyph glyph-name="uni1EC1" unicode="&#x1ec1;" horiz-adv-x="1085" 
d="M784 1487l-188 237v19h192l138 -240v-16h-142zM801 348h188q0 -178 -105 -269t-333 -91q-240 0 -341 99t-101 339v350q0 226 114 327t328 101q442 0 442 -428v-256h-692v-90q0 -154 57 -208t193 -54q129 0 189.5 44t60.5 136zM301 776v-86h506v86q0 77 -17.5 128.5
t-53.5 79t-79.5 38t-105.5 10.5t-104.5 -10.5t-77.5 -37.5t-51.5 -78.5t-16.5 -129.5zM496 1554h145l209 -241v-15h-174l-103 117l-104 -117h-174v15z" />
    <glyph glyph-name="uni1EC2" unicode="&#x1ec2;" horiz-adv-x="1042" 
d="M713 2034h-125q0 83 36.5 127.5t141.5 44.5q83 0 129.5 -34.5t46.5 -105.5q0 -53 -16.5 -79t-51.5 -48q-22 -13 -29.5 -30t-6.5 -56h-131q0 46 1 64t9 38.5t26 33.5q1 2 32.5 24.5t31.5 44.5q0 23 -10 31t-33 8q-51 0 -51 -63zM119 1581h796v-172h-602v-475h545v-182
h-545v-570h654v-182h-848v1581zM449 1921h145l209 -242v-14h-174l-103 117l-104 -117h-174v14z" />
    <glyph glyph-name="uni1EC3" unicode="&#x1ec3;" horiz-adv-x="1085" 
d="M760 1667h-125q0 83 36.5 127.5t141.5 44.5q176 0 176 -139q0 -53 -16 -79t-51 -48q-22 -13 -30 -30t-7 -56h-131q0 63 6 89.5t31 45.5q5 7 22 18t29 23.5t12 28.5q0 23 -10 31t-33 8q-51 0 -51 -64zM801 348h188q0 -178 -105 -269t-333 -91q-240 0 -341 99t-101 339v350
q0 226 114 327t328 101q442 0 442 -428v-256h-692v-90q0 -154 57 -208t193 -54q129 0 189.5 44t60.5 136zM301 776v-86h506v86q0 77 -17.5 128.5t-53.5 79t-79.5 38t-105.5 10.5t-104.5 -10.5t-77.5 -37.5t-51.5 -78.5t-16.5 -129.5zM496 1554h145l209 -241v-15h-174
l-103 117l-104 -117h-174v15z" />
    <glyph glyph-name="uni1EC4" unicode="&#x1ec4;" horiz-adv-x="1042" 
d="M369 1958l-109 51q22 90 90.5 130t151.5 11l90 -43q78 -29 102 52l113 -45q-21 -101 -89 -139.5t-143 -8.5l-86 43q-89 32 -120 -51zM119 1581h796v-172h-602v-475h545v-182h-545v-570h654v-182h-848v1581zM449 1921h145l209 -242v-14h-174l-103 117l-104 -117h-174v14z
" />
    <glyph glyph-name="uni1EC5" unicode="&#x1ec5;" horiz-adv-x="1085" 
d="M416 1591l-109 51q22 90 90.5 130.5t151.5 11.5l90 -43q78 -29 102 51l113 -45q-21 -101 -88.5 -139.5t-142.5 -8.5l-86 43q-90 32 -121 -51zM801 348h188q0 -178 -105 -269t-333 -91q-240 0 -341 99t-101 339v350q0 226 114 327t328 101q442 0 442 -428v-256h-692v-90
q0 -154 57 -208t193 -54q129 0 189.5 44t60.5 136zM301 776v-86h506v86q0 77 -17.5 128.5t-53.5 79t-79.5 38t-105.5 10.5t-104.5 -10.5t-77.5 -37.5t-51.5 -78.5t-16.5 -129.5zM496 1554h145l209 -241v-15h-174l-103 117l-104 -117h-174v15z" />
    <glyph glyph-name="uni1EC6" unicode="&#x1ec6;" horiz-adv-x="1042" 
d="M408 -248q0 53 36.5 84t81 31.5t81 -30t36.5 -85.5q0 -51 -36.5 -82t-81 -32t-81 29t-36.5 85zM119 1581h796v-172h-602v-475h545v-182h-545v-570h654v-182h-848v1581zM449 1921h145l209 -242v-14h-174l-103 117l-104 -117h-174v14z" />
    <glyph glyph-name="uni1EC7" unicode="&#x1ec7;" horiz-adv-x="1085" 
d="M408 -248q0 53 36.5 84t81 31.5t81 -30t36.5 -85.5q0 -51 -36.5 -82t-81 -32t-81 29t-36.5 85zM801 348h188q0 -178 -105 -269t-333 -91q-240 0 -341 99t-101 339v350q0 226 114 327t328 101q442 0 442 -428v-256h-692v-90q0 -154 57 -208t193 -54q129 0 189.5 44
t60.5 136zM301 776v-86h506v86q0 77 -17.5 128.5t-53.5 79t-79.5 38t-105.5 10.5t-104.5 -10.5t-77.5 -37.5t-51.5 -78.5t-16.5 -129.5zM496 1554h145l209 -241v-15h-174l-103 117l-104 -117h-174v15z" />
    <glyph glyph-name="uni1EC8" unicode="&#x1ec8;" horiz-adv-x="485" 
d="M184 1845h-125q0 83 37 127.5t142 44.5q176 0 176 -139q0 -53 -16.5 -79t-51.5 -48q-22 -13 -30 -30t-7 -56h-131q0 63 6 89.5t31 45.5q5 7 22.5 17.5t29.5 23.5t12 29q0 23 -10 31t-33 8q-52 0 -52 -64zM342 -2h-199v1577h199v-1577z" />
    <glyph glyph-name="uni1EC9" unicode="&#x1ec9;" horiz-adv-x="491" 
d="M342 0h-195v1190h195v-1190zM186 1479h-125q0 83 37 127.5t142 44.5q83 0 129.5 -34.5t46.5 -105.5q0 -53 -16.5 -79t-51.5 -48q-22 -13 -30 -30t-7 -56h-131q0 63 6 90t31 46q1 2 32.5 24.5t31.5 44.5q0 23 -10 31t-33 8q-52 0 -52 -63z" />
    <glyph glyph-name="uni1ECA" unicode="&#x1eca;" horiz-adv-x="485" 
d="M127 -248q0 53 36.5 84t81 31.5t81 -30t36.5 -85.5q0 -51 -36.5 -82t-81 -32t-81 29t-36.5 85zM342 -2h-199v1577h199v-1577z" />
    <glyph glyph-name="uni1ECB" unicode="&#x1ecb;" horiz-adv-x="491" 
d="M123 -248q0 53 36.5 84t81 31.5t81 -30t36.5 -85.5q0 -51 -36.5 -82t-81 -32t-81 29t-36.5 85zM342 0h-195v1190h195v-1190zM129 1413q0 43 24.5 72.5t59 37t69 1t59 -36.5t24.5 -74q0 -41 -24.5 -70.5t-59 -37t-69 -1.5t-59 35.5t-24.5 73.5z" />
    <glyph glyph-name="uni1ECC" unicode="&#x1ecc;" horiz-adv-x="1271" 
d="M483 -248q0 43 24.5 72.5t59 37t69 1t59 -36.5t24.5 -74q0 -41 -24.5 -70.5t-59 -37t-69 -1.5t-59 35.5t-24.5 73.5zM1145 1069v-551q0 -79 -5.5 -139t-20 -117.5t-39.5 -98.5t-63.5 -76t-92 -56.5t-126.5 -33t-165 -11.5t-165 11.5t-126.5 33t-92 56.5t-63.5 76
t-39.5 98.5t-20 117.5t-5.5 139v551q0 111 11.5 189t44 147t89 110t147.5 64t220 23t220 -23t147.5 -64t89 -110t44 -147t11.5 -189zM948 516v555q0 71 -3 113.5t-13.5 88t-30.5 69.5t-55 44.5t-87 28.5t-126 8q-63 0 -110.5 -7t-81.5 -18.5t-56.5 -35t-36 -47.5
t-20.5 -65.5t-9 -80t-2 -98.5v-555q0 -60 2 -98.5t9 -79.5t20.5 -64.5t36 -46.5t57 -34.5t81.5 -18t110 -6.5q56 0 98.5 4.5t75 15.5t55.5 24t39 36.5t25 47t14 61t6.5 72t1.5 87.5z" />
    <glyph glyph-name="uni1ECD" unicode="&#x1ecd;" horiz-adv-x="1101" 
d="M410 -248q0 53 36.5 84t81 31.5t81 -30t36.5 -85.5q0 -51 -36.5 -82t-81 -32t-81 29t-36.5 85zM551 150q138 0 196 63t58 223v342q0 80 -16 132t-51 79.5t-78.5 38t-108.5 10.5t-108.5 -10.5t-78.5 -38t-51 -79.5t-16 -132v-342q0 -159 60 -222.5t194 -63.5zM551 -20
q-242 0 -345.5 105.5t-103.5 350.5v342q0 229 116 331.5t333 102.5t332.5 -102.5t115.5 -331.5v-342q0 -244 -105 -350t-343 -106z" />
    <glyph glyph-name="uni1ECE" unicode="&#x1ece;" horiz-adv-x="1271" 
d="M604 1845h-125q0 83 36.5 127.5t141.5 44.5q83 0 130 -34t47 -105q0 -53 -16.5 -79t-51.5 -48q-22 -13 -30 -30t-7 -56h-131q0 63 6 89.5t31 45.5q5 7 22 18t29 23.5t12 28.5q0 23 -10 31t-33 8q-51 0 -51 -64zM1145 1069v-551q0 -79 -5.5 -139t-20 -117.5t-39.5 -98.5
t-63.5 -76t-92 -56.5t-126.5 -33t-165 -11.5t-165 11.5t-126.5 33t-92 56.5t-63.5 76t-39.5 98.5t-20 117.5t-5.5 139v551q0 111 11.5 189t44 147t89 110t147.5 64t220 23t220 -23t147.5 -64t89 -110t44 -147t11.5 -189zM948 516v555q0 71 -3 113.5t-13.5 88t-30.5 69.5
t-55 44.5t-87 28.5t-126 8q-63 0 -110.5 -7t-81.5 -18.5t-56.5 -35t-36 -47.5t-20.5 -65.5t-9 -80t-2 -98.5v-555q0 -60 2 -98.5t9 -79.5t20.5 -64.5t36 -46.5t57 -34.5t81.5 -18t110 -6.5q56 0 98.5 4.5t75 15.5t55.5 24t39 36.5t25 47t14 61t6.5 72t1.5 87.5z" />
    <glyph glyph-name="uni1ECF" unicode="&#x1ecf;" horiz-adv-x="1101" 
d="M516 1479h-125q0 83 36.5 127.5t141.5 44.5q83 0 129.5 -34.5t46.5 -105.5q0 -53 -16 -79t-51 -48q-22 -13 -30 -30t-7 -56h-131q0 63 6 90t31 46q5 7 22 17.5t29 23t12 28.5q0 23 -10 31t-33 8q-51 0 -51 -63zM551 150q138 0 196 63t58 223v342q0 80 -16 132t-51 79.5
t-78.5 38t-108.5 10.5t-108.5 -10.5t-78.5 -38t-51 -79.5t-16 -132v-342q0 -159 60 -222.5t194 -63.5zM551 -20q-242 0 -345.5 105.5t-103.5 350.5v342q0 229 116 331.5t333 102.5t332.5 -102.5t115.5 -331.5v-342q0 -244 -105 -350t-343 -106z" />
    <glyph glyph-name="uni1ED0" unicode="&#x1ed0;" horiz-adv-x="1220" 
d="M1147 2091l-189 -238h-141v17l137 239h193v-18zM1128 1069v-551q0 -79 -5.5 -139t-20 -117.5t-39.5 -98.5t-63.5 -76t-92 -56.5t-126.5 -33t-165 -11.5t-165 11.5t-126.5 33t-92 56.5t-63.5 76t-39.5 98.5t-20 117.5t-5.5 139v551q0 111 11.5 189t44 147t89 110t147.5 64
t220 23t220 -23t147.5 -64t89 -110t44 -147t11.5 -189zM932 516v555q0 60 -2 98.5t-9 80t-20.5 65.5t-36 47.5t-56.5 35t-81.5 18.5t-110.5 7q-74 0 -126 -8t-87 -28.5t-55 -44.5t-30.5 -69.5t-13.5 -88t-3 -113.5v-555q0 -53 1.5 -87.5t6.5 -72t14 -61t25 -47t39 -36.5
t55.5 -24t75 -15.5t98.5 -4.5q63 0 110 6.5t81.5 18t57 34.5t36 46.5t20.5 64.5t9 79.5t2 98.5zM559 1921h146l208 -242v-14h-174l-102 117l-105 -117h-174v14z" />
    <glyph glyph-name="uni1ED1" unicode="&#x1ed1;" horiz-adv-x="1101" 
d="M1075 1724l-188 -237h-142v16l138 240h192v-19zM551 150q138 0 196 63t58 223v342q0 80 -16 132t-51 79.5t-78.5 38t-108.5 10.5t-108.5 -10.5t-78.5 -38t-51 -79.5t-16 -132v-342q0 -159 60 -222.5t194 -63.5zM551 -20q-242 0 -345.5 105.5t-103.5 350.5v342
q0 229 116 331.5t333 102.5t332.5 -102.5t115.5 -331.5v-342q0 -244 -105 -350t-343 -106zM487 1554h146l209 -241v-15h-174l-103 117l-104 -117h-174v15z" />
    <glyph glyph-name="uni1ED2" unicode="&#x1ed2;" horiz-adv-x="1220" 
d="M848 1853l-189 238v18h193l137 -239v-17h-141zM1128 1069v-551q0 -79 -5.5 -139t-20 -117.5t-39.5 -98.5t-63.5 -76t-92 -56.5t-126.5 -33t-165 -11.5t-165 11.5t-126.5 33t-92 56.5t-63.5 76t-39.5 98.5t-20 117.5t-5.5 139v551q0 111 11.5 189t44 147t89 110t147.5 64
t220 23t220 -23t147.5 -64t89 -110t44 -147t11.5 -189zM932 516v555q0 60 -2 98.5t-9 80t-20.5 65.5t-36 47.5t-56.5 35t-81.5 18.5t-110.5 7q-74 0 -126 -8t-87 -28.5t-55 -44.5t-30.5 -69.5t-13.5 -88t-3 -113.5v-555q0 -53 1.5 -87.5t6.5 -72t14 -61t25 -47t39 -36.5
t55.5 -24t75 -15.5t98.5 -4.5q63 0 110 6.5t81.5 18t57 34.5t36 46.5t20.5 64.5t9 79.5t2 98.5zM559 1921h146l208 -242v-14h-174l-102 117l-105 -117h-174v14z" />
    <glyph glyph-name="uni1ED3" unicode="&#x1ed3;" horiz-adv-x="1101" 
d="M776 1487l-188 237v19h192l138 -240v-16h-142zM551 150q138 0 196 63t58 223v342q0 80 -16 132t-51 79.5t-78.5 38t-108.5 10.5t-108.5 -10.5t-78.5 -38t-51 -79.5t-16 -132v-342q0 -159 60 -222.5t194 -63.5zM551 -20q-242 0 -345.5 105.5t-103.5 350.5v342
q0 229 116 331.5t333 102.5t332.5 -102.5t115.5 -331.5v-342q0 -244 -105 -350t-343 -106zM487 1554h146l209 -241v-15h-174l-103 117l-104 -117h-174v15z" />
    <glyph glyph-name="uni1ED4" unicode="&#x1ed4;" horiz-adv-x="1220" 
d="M823 2034h-125q0 83 37 127.5t142 44.5q83 0 129.5 -34.5t46.5 -105.5q0 -53 -16.5 -79t-51.5 -48q-22 -13 -30 -30t-7 -56h-131q0 63 6 90t31 46q1 2 32.5 24.5t31.5 44.5q0 23 -10 31t-34 8q-51 0 -51 -63zM1128 1069v-551q0 -79 -5.5 -139t-20 -117.5t-39.5 -98.5
t-63.5 -76t-92 -56.5t-126.5 -33t-165 -11.5t-165 11.5t-126.5 33t-92 56.5t-63.5 76t-39.5 98.5t-20 117.5t-5.5 139v551q0 111 11.5 189t44 147t89 110t147.5 64t220 23t220 -23t147.5 -64t89 -110t44 -147t11.5 -189zM932 516v555q0 60 -2 98.5t-9 80t-20.5 65.5
t-36 47.5t-56.5 35t-81.5 18.5t-110.5 7q-74 0 -126 -8t-87 -28.5t-55 -44.5t-30.5 -69.5t-13.5 -88t-3 -113.5v-555q0 -53 1.5 -87.5t6.5 -72t14 -61t25 -47t39 -36.5t55.5 -24t75 -15.5t98.5 -4.5q63 0 110 6.5t81.5 18t57 34.5t36 46.5t20.5 64.5t9 79.5t2 98.5z
M559 1921h146l208 -242v-14h-174l-102 117l-105 -117h-174v14z" />
    <glyph glyph-name="uni1ED5" unicode="&#x1ed5;" horiz-adv-x="1101" 
d="M752 1667h-125q0 83 36.5 127.5t141.5 44.5q176 0 176 -139q0 -53 -16.5 -79t-51.5 -48q-22 -13 -29.5 -30t-6.5 -56h-132q0 63 6 89.5t31 45.5q5 7 22.5 17.5t29.5 23.5t12 29q0 23 -10 31t-33 8q-51 0 -51 -64zM551 150q138 0 196 63t58 223v342q0 80 -16 132t-51 79.5
t-78.5 38t-108.5 10.5t-108.5 -10.5t-78.5 -38t-51 -79.5t-16 -132v-342q0 -159 60 -222.5t194 -63.5zM551 -20q-242 0 -345.5 105.5t-103.5 350.5v342q0 229 116 331.5t333 102.5t332.5 -102.5t115.5 -331.5v-342q0 -244 -105 -350t-343 -106zM487 1554h146l209 -241v-15
h-174l-103 117l-104 -117h-174v15z" />
    <glyph glyph-name="uni1ED6" unicode="&#x1ed6;" horiz-adv-x="1220" 
d="M479 1958l-108 51q22 90 90 130t151 11l90 -43q78 -29 103 52l113 -45q-21 -101 -89 -139.5t-143 -8.5l-86 43q-90 32 -121 -51zM1128 1069v-551q0 -79 -5.5 -139t-20 -117.5t-39.5 -98.5t-63.5 -76t-92 -56.5t-126.5 -33t-165 -11.5t-165 11.5t-126.5 33t-92 56.5
t-63.5 76t-39.5 98.5t-20 117.5t-5.5 139v551q0 111 11.5 189t44 147t89 110t147.5 64t220 23t220 -23t147.5 -64t89 -110t44 -147t11.5 -189zM932 516v555q0 60 -2 98.5t-9 80t-20.5 65.5t-36 47.5t-56.5 35t-81.5 18.5t-110.5 7q-74 0 -126 -8t-87 -28.5t-55 -44.5
t-30.5 -69.5t-13.5 -88t-3 -113.5v-555q0 -53 1.5 -87.5t6.5 -72t14 -61t25 -47t39 -36.5t55.5 -24t75 -15.5t98.5 -4.5q63 0 110 6.5t81.5 18t57 34.5t36 46.5t20.5 64.5t9 79.5t2 98.5zM559 1921h146l208 -242v-14h-174l-102 117l-105 -117h-174v14z" />
    <glyph glyph-name="uni1ED7" unicode="&#x1ed7;" horiz-adv-x="1101" 
d="M408 1591l-109 51q22 90 90.5 130.5t151.5 11.5l90 -43q78 -29 102 51l113 -45q-21 -101 -89 -139.5t-143 -8.5l-86 43q-89 32 -120 -51zM551 150q138 0 196 63t58 223v342q0 80 -16 132t-51 79.5t-78.5 38t-108.5 10.5t-108.5 -10.5t-78.5 -38t-51 -79.5t-16 -132v-342
q0 -159 60 -222.5t194 -63.5zM551 -20q-242 0 -345.5 105.5t-103.5 350.5v342q0 229 116 331.5t333 102.5t332.5 -102.5t115.5 -331.5v-342q0 -244 -105 -350t-343 -106zM487 1554h146l209 -241v-15h-174l-103 117l-104 -117h-174v15z" />
    <glyph glyph-name="uni1ED8" unicode="&#x1ed8;" horiz-adv-x="1220" 
d="M483 -248q0 43 24.5 72.5t59 37t69 1t59 -36.5t24.5 -74q0 -41 -24.5 -70.5t-59 -37t-69 -1.5t-59 35.5t-24.5 73.5zM1128 1069v-551q0 -79 -5.5 -139t-20 -117.5t-39.5 -98.5t-63.5 -76t-92 -56.5t-126.5 -33t-165 -11.5t-165 11.5t-126.5 33t-92 56.5t-63.5 76
t-39.5 98.5t-20 117.5t-5.5 139v551q0 111 11.5 189t44 147t89 110t147.5 64t220 23t220 -23t147.5 -64t89 -110t44 -147t11.5 -189zM932 516v555q0 60 -2 98.5t-9 80t-20.5 65.5t-36 47.5t-56.5 35t-81.5 18.5t-110.5 7q-74 0 -126 -8t-87 -28.5t-55 -44.5t-30.5 -69.5
t-13.5 -88t-3 -113.5v-555q0 -53 1.5 -87.5t6.5 -72t14 -61t25 -47t39 -36.5t55.5 -24t75 -15.5t98.5 -4.5q63 0 110 6.5t81.5 18t57 34.5t36 46.5t20.5 64.5t9 79.5t2 98.5zM559 1921h146l208 -242v-14h-174l-102 117l-105 -117h-174v14z" />
    <glyph glyph-name="uni1ED9" unicode="&#x1ed9;" horiz-adv-x="1101" 
d="M410 -248q0 53 36.5 84t81 31.5t81 -30t36.5 -85.5q0 -51 -36.5 -82t-81 -32t-81 29t-36.5 85zM551 150q138 0 196 63t58 223v342q0 80 -16 132t-51 79.5t-78.5 38t-108.5 10.5t-108.5 -10.5t-78.5 -38t-51 -79.5t-16 -132v-342q0 -159 60 -222.5t194 -63.5zM551 -20
q-242 0 -345.5 105.5t-103.5 350.5v342q0 229 116 331.5t333 102.5t332.5 -102.5t115.5 -331.5v-342q0 -244 -105 -350t-343 -106zM487 1554h146l209 -241v-15h-174l-103 117l-104 -117h-174v15z" />
    <glyph glyph-name="uni1EDA" unicode="&#x1eda;" horiz-adv-x="1271" 
d="M887 1903l-189 -238h-141v16l137 240h193v-18zM1145 1069v-551q0 -79 -5.5 -139t-20 -117.5t-39.5 -98.5t-63.5 -76t-92 -56.5t-126.5 -33t-165 -11.5t-165 11.5t-126.5 33t-92 56.5t-63.5 76t-39.5 98.5t-20 117.5t-5.5 139v551q0 111 11.5 189t44 147t89 110t147.5 64
t220 23q126 0 237 -27h41q67 -2 91 19t24 89v15h162v-15q0 -92 -33.5 -145.5t-103.5 -73.5q53 -64 73.5 -160t20.5 -235zM948 516v555q0 71 -3 113.5t-13.5 88t-30.5 69.5t-55 44.5t-87 28.5t-126 8q-63 0 -110.5 -7t-81.5 -18.5t-56.5 -35t-36 -47.5t-20.5 -65.5t-9 -80
t-2 -98.5v-555q0 -60 2 -98.5t9 -79.5t20.5 -64.5t36 -46.5t57 -34.5t81.5 -18t110 -6.5q56 0 98.5 4.5t75 15.5t55.5 24t39 36.5t25 47t14 61t6.5 72t1.5 87.5z" />
    <glyph glyph-name="uni1EDB" unicode="&#x1edb;" horiz-adv-x="1101" 
d="M805 1536l-189 -238h-141v17l137 239h193v-18zM551 -20q-242 0 -345.5 105.5t-103.5 350.5v342q0 229 116 331.5t333 102.5q115 0 197 -26h36q66 0 89.5 20t23.5 88v15h162v-15q0 -182 -144 -219q84 -111 84 -297v-342q0 -244 -105 -350t-343 -106zM551 150q138 0 196 63
t58 223v342q0 80 -16 132t-51 79.5t-78.5 38t-108.5 10.5t-108.5 -10.5t-78.5 -38t-51 -79.5t-16 -132v-342q0 -159 60 -222.5t194 -63.5z" />
    <glyph glyph-name="uni1EDC" unicode="&#x1edc;" horiz-adv-x="1271" 
d="M608 1665l-188 238v18h192l138 -240v-16h-142zM1145 1069v-551q0 -79 -5.5 -139t-20 -117.5t-39.5 -98.5t-63.5 -76t-92 -56.5t-126.5 -33t-165 -11.5t-165 11.5t-126.5 33t-92 56.5t-63.5 76t-39.5 98.5t-20 117.5t-5.5 139v551q0 111 11.5 189t44 147t89 110t147.5 64
t220 23q126 0 237 -27h41q67 -2 91 19t24 89v15h162v-15q0 -92 -33.5 -145.5t-103.5 -73.5q53 -64 73.5 -160t20.5 -235zM948 516v555q0 71 -3 113.5t-13.5 88t-30.5 69.5t-55 44.5t-87 28.5t-126 8q-63 0 -110.5 -7t-81.5 -18.5t-56.5 -35t-36 -47.5t-20.5 -65.5t-9 -80
t-2 -98.5v-555q0 -60 2 -98.5t9 -79.5t20.5 -64.5t36 -46.5t57 -34.5t81.5 -18t110 -6.5q56 0 98.5 4.5t75 15.5t55.5 24t39 36.5t25 47t14 61t6.5 72t1.5 87.5z" />
    <glyph glyph-name="uni1EDD" unicode="&#x1edd;" horiz-adv-x="1101" 
d="M549 1298l-189 238v18h193l137 -239v-17h-141zM551 -20q-242 0 -345.5 105.5t-103.5 350.5v342q0 229 116 331.5t333 102.5q115 0 197 -26h36q66 0 89.5 20t23.5 88v15h162v-15q0 -182 -144 -219q84 -111 84 -297v-342q0 -244 -105 -350t-343 -106zM551 150q138 0 196 63
t58 223v342q0 80 -16 132t-51 79.5t-78.5 38t-108.5 10.5t-108.5 -10.5t-78.5 -38t-51 -79.5t-16 -132v-342q0 -159 60 -222.5t194 -63.5z" />
    <glyph glyph-name="uni1EDE" unicode="&#x1ede;" horiz-adv-x="1271" 
d="M604 1845h-125q0 83 36.5 127.5t141.5 44.5q83 0 130 -34t47 -105q0 -53 -16.5 -79t-51.5 -48q-22 -13 -30 -30t-7 -56h-131q0 63 6 89.5t31 45.5q5 7 22 18t29 23.5t12 28.5q0 23 -10 31t-33 8q-51 0 -51 -64zM1145 1069v-551q0 -79 -5.5 -139t-20 -117.5t-39.5 -98.5
t-63.5 -76t-92 -56.5t-126.5 -33t-165 -11.5t-165 11.5t-126.5 33t-92 56.5t-63.5 76t-39.5 98.5t-20 117.5t-5.5 139v551q0 111 11.5 189t44 147t89 110t147.5 64t220 23q126 0 237 -27h41q67 -2 91 19t24 89v15h162v-15q0 -92 -33.5 -145.5t-103.5 -73.5q53 -64 73.5 -160
t20.5 -235zM948 516v555q0 71 -3 113.5t-13.5 88t-30.5 69.5t-55 44.5t-87 28.5t-126 8q-63 0 -110.5 -7t-81.5 -18.5t-56.5 -35t-36 -47.5t-20.5 -65.5t-9 -80t-2 -98.5v-555q0 -60 2 -98.5t9 -79.5t20.5 -64.5t36 -46.5t57 -34.5t81.5 -18t110 -6.5q56 0 98.5 4.5t75 15.5
t55.5 24t39 36.5t25 47t14 61t6.5 72t1.5 87.5z" />
    <glyph glyph-name="uni1EDF" unicode="&#x1edf;" horiz-adv-x="1101" 
d="M516 1479h-125q0 83 36.5 127.5t141.5 44.5q83 0 129.5 -34.5t46.5 -105.5q0 -53 -16 -79t-51 -48q-22 -13 -30 -30t-7 -56h-131q0 63 6 90t31 46q5 7 22 17.5t29 23t12 28.5q0 23 -10 31t-33 8q-51 0 -51 -63zM551 -20q-242 0 -345.5 105.5t-103.5 350.5v342
q0 229 116 331.5t333 102.5q115 0 197 -26h36q66 0 89.5 20t23.5 88v15h162v-15q0 -182 -144 -219q84 -111 84 -297v-342q0 -244 -105 -350t-343 -106zM551 150q138 0 196 63t58 223v342q0 80 -16 132t-51 79.5t-78.5 38t-108.5 10.5t-108.5 -10.5t-78.5 -38t-51 -79.5
t-16 -132v-342q0 -159 60 -222.5t194 -63.5z" />
    <glyph glyph-name="uni1EE0" unicode="&#x1ee0;" horiz-adv-x="1271" 
d="M465 1667l-113 53q22 93 93 135t157 11l92 -43q79 -29 105 53l116 -47q-21 -104 -90.5 -143.5t-146.5 -8.5l-90 41q-91 32 -123 -51zM1145 1069v-551q0 -79 -5.5 -139t-20 -117.5t-39.5 -98.5t-63.5 -76t-92 -56.5t-126.5 -33t-165 -11.5t-165 11.5t-126.5 33t-92 56.5
t-63.5 76t-39.5 98.5t-20 117.5t-5.5 139v551q0 111 11.5 189t44 147t89 110t147.5 64t220 23q126 0 237 -27h41q67 -2 91 19t24 89v15h162v-15q0 -92 -33.5 -145.5t-103.5 -73.5q53 -64 73.5 -160t20.5 -235zM948 516v555q0 71 -3 113.5t-13.5 88t-30.5 69.5t-55 44.5
t-87 28.5t-126 8q-63 0 -110.5 -7t-81.5 -18.5t-56.5 -35t-36 -47.5t-20.5 -65.5t-9 -80t-2 -98.5v-555q0 -60 2 -98.5t9 -79.5t20.5 -64.5t36 -46.5t57 -34.5t81.5 -18t110 -6.5q56 0 98.5 4.5t75 15.5t55.5 24t39 36.5t25 47t14 61t6.5 72t1.5 87.5z" />
    <glyph glyph-name="uni1EE1" unicode="&#x1ee1;" horiz-adv-x="1101" 
d="M399 1315l-112 53q22 93 93 134.5t157 10.5l92 -43q78 -29 104 54l117 -47q-21 -104 -91 -143.5t-147 -8.5l-90 41q-91 32 -123 -51zM551 -20q-242 0 -345.5 105.5t-103.5 350.5v342q0 229 116 331.5t333 102.5q115 0 197 -26h36q66 0 89.5 20t23.5 88v15h162v-15
q0 -182 -144 -219q84 -111 84 -297v-342q0 -244 -105 -350t-343 -106zM551 150q138 0 196 63t58 223v342q0 80 -16 132t-51 79.5t-78.5 38t-108.5 10.5t-108.5 -10.5t-78.5 -38t-51 -79.5t-16 -132v-342q0 -159 60 -222.5t194 -63.5z" />
    <glyph glyph-name="uni1EE2" unicode="&#x1ee2;" horiz-adv-x="1271" 
d="M483 -248q0 43 24.5 72.5t59 37t69 1t59 -36.5t24.5 -74q0 -41 -24.5 -70.5t-59 -37t-69 -1.5t-59 35.5t-24.5 73.5zM1145 1069v-551q0 -79 -5.5 -139t-20 -117.5t-39.5 -98.5t-63.5 -76t-92 -56.5t-126.5 -33t-165 -11.5t-165 11.5t-126.5 33t-92 56.5t-63.5 76
t-39.5 98.5t-20 117.5t-5.5 139v551q0 111 11.5 189t44 147t89 110t147.5 64t220 23q126 0 237 -27h41q67 -2 91 19t24 89v15h162v-15q0 -92 -33.5 -145.5t-103.5 -73.5q53 -64 73.5 -160t20.5 -235zM948 516v555q0 71 -3 113.5t-13.5 88t-30.5 69.5t-55 44.5t-87 28.5
t-126 8q-63 0 -110.5 -7t-81.5 -18.5t-56.5 -35t-36 -47.5t-20.5 -65.5t-9 -80t-2 -98.5v-555q0 -60 2 -98.5t9 -79.5t20.5 -64.5t36 -46.5t57 -34.5t81.5 -18t110 -6.5q56 0 98.5 4.5t75 15.5t55.5 24t39 36.5t25 47t14 61t6.5 72t1.5 87.5z" />
    <glyph glyph-name="uni1EE3" unicode="&#x1ee3;" horiz-adv-x="1101" 
d="M410 -248q0 53 36.5 84t81 31.5t81 -30t36.5 -85.5q0 -51 -36.5 -82t-81 -32t-81 29t-36.5 85zM551 -20q-242 0 -345.5 105.5t-103.5 350.5v342q0 229 116 331.5t333 102.5q115 0 197 -26h36q66 0 89.5 20t23.5 88v15h162v-15q0 -182 -144 -219q84 -111 84 -297v-342
q0 -244 -105 -350t-343 -106zM551 150q138 0 196 63t58 223v342q0 80 -16 132t-51 79.5t-78.5 38t-108.5 10.5t-108.5 -10.5t-78.5 -38t-51 -79.5t-16 -132v-342q0 -159 60 -222.5t194 -63.5z" />
    <glyph glyph-name="uni1EE4" unicode="&#x1ee4;" horiz-adv-x="1232" 
d="M473 -248q0 43 24.5 72.5t59 37t69 1t59 -36.5t24.5 -74q0 -41 -24.5 -70.5t-59 -37t-69 -1.5t-59 35.5t-24.5 73.5zM901 518v1063h197v-1061q0 -135 -23.5 -230t-78.5 -165t-150 -103.5t-234 -33.5t-234.5 33.5t-151 103.5t-79.5 165t-24 230v1059h196v-1061
q0 -99 11.5 -160.5t43.5 -106t89 -63t149 -18.5q73 0 123.5 13t83.5 37t51 68t24.5 97t6.5 133z" />
    <glyph glyph-name="uni1EE5" unicode="&#x1ee5;" horiz-adv-x="1169" 
d="M420 -248q0 53 36.5 84t81 31.5t81 -30t36.5 -85.5q0 -51 -36.5 -82t-81 -32t-81 29t-36.5 85zM1026 1190v-1190h-174l-12 127q-50 -81 -128 -111t-180 -30q-204 0 -300.5 99.5t-96.5 332.5v772h197v-770q0 -125 62.5 -190.5t170.5 -65.5q116 0 190 65.5t74 188.5v772
h197z" />
    <glyph glyph-name="uni1EE6" unicode="&#x1ee6;" horiz-adv-x="1232" 
d="M561 1845h-125q0 83 36.5 127.5t141.5 44.5q83 0 130 -34t47 -105q0 -53 -16.5 -79t-51.5 -48q-22 -13 -30 -30t-7 -56h-131q0 63 6 89.5t31 45.5q5 7 22 18t29 23.5t12 28.5q0 23 -10 31t-33 8q-51 0 -51 -64zM901 518v1063h197v-1061q0 -135 -23.5 -230t-78.5 -165
t-150 -103.5t-234 -33.5t-234.5 33.5t-151 103.5t-79.5 165t-24 230v1059h196v-1061q0 -99 11.5 -160.5t43.5 -106t89 -63t149 -18.5q73 0 123.5 13t83.5 37t51 68t24.5 97t6.5 133z" />
    <glyph glyph-name="uni1EE7" unicode="&#x1ee7;" horiz-adv-x="1169" 
d="M532 1479h-124q0 83 36.5 127.5t141.5 44.5q83 0 129.5 -34.5t46.5 -105.5q0 -53 -16.5 -79t-51.5 -48q-22 -13 -30 -30t-7 -56h-131q0 63 6 90t31 46q1 2 32.5 24.5t31.5 44.5q0 23 -10 31t-33 8q-52 0 -52 -63zM1026 1190v-1190h-174l-12 127q-50 -81 -128 -111
t-180 -30q-204 0 -300.5 99.5t-96.5 332.5v772h197v-770q0 -125 62.5 -190.5t170.5 -65.5q116 0 190 65.5t74 188.5v772h197z" />
    <glyph glyph-name="uni1EE8" unicode="&#x1ee8;" horiz-adv-x="1232" 
d="M868 1903l-188 -238h-141v16l137 240h192v-18zM901 518v1063h164q25 7 35 30.5t10 71.5v15h162v-15q0 -103 -42.5 -158t-131.5 -67v-938q0 -135 -23.5 -230t-78.5 -165t-150 -103.5t-234 -33.5t-234.5 33.5t-151 103.5t-79.5 165t-24 230v1059h196v-1061
q0 -99 11.5 -160.5t43.5 -106t89 -63t149 -18.5q73 0 123.5 13t83.5 37t51 68t24.5 97t6.5 133z" />
    <glyph glyph-name="uni1EE9" unicode="&#x1ee9;" horiz-adv-x="1169" 
d="M866 1536l-188 -238h-141v17l137 239h192v-18zM1200 1309v-15q0 -103 -42.5 -158t-131.5 -67v-1069h-174l-12 127q-50 -81 -128 -111t-180 -30q-204 0 -300.5 99.5t-96.5 332.5v772h197v-770q0 -125 62.5 -190.5t170.5 -65.5q116 0 190 65.5t74 188.5v772h156
q29 8 41 30.5t12 73.5v15h162z" />
    <glyph glyph-name="uni1EEA" unicode="&#x1eea;" horiz-adv-x="1232" 
d="M592 1665l-189 238v18h193l137 -240v-16h-141zM901 518v1063h164q25 7 35 30.5t10 71.5v15h162v-15q0 -103 -42.5 -158t-131.5 -67v-938q0 -135 -23.5 -230t-78.5 -165t-150 -103.5t-234 -33.5t-234.5 33.5t-151 103.5t-79.5 165t-24 230v1059h196v-1061
q0 -99 11.5 -160.5t43.5 -106t89 -63t149 -18.5q73 0 123.5 13t83.5 37t51 68t24.5 97t6.5 133z" />
    <glyph glyph-name="uni1EEB" unicode="&#x1eeb;" horiz-adv-x="1169" 
d="M584 1298l-189 238v18h193l137 -239v-17h-141zM1200 1309v-15q0 -103 -42.5 -158t-131.5 -67v-1069h-174l-12 127q-50 -81 -128 -111t-180 -30q-204 0 -300.5 99.5t-96.5 332.5v772h197v-770q0 -125 62.5 -190.5t170.5 -65.5q116 0 190 65.5t74 188.5v772h156
q29 8 41 30.5t12 73.5v15h162z" />
    <glyph glyph-name="uni1EEC" unicode="&#x1eec;" horiz-adv-x="1232" 
d="M561 1845h-125q0 83 36.5 127.5t141.5 44.5q83 0 130 -34t47 -105q0 -53 -16.5 -79t-51.5 -48q-22 -13 -30 -30t-7 -56h-131q0 63 6 89.5t31 45.5q5 7 22 18t29 23.5t12 28.5q0 23 -10 31t-33 8q-51 0 -51 -64zM901 518v1063h164q25 7 35 30.5t10 71.5v15h162v-15
q0 -103 -42.5 -158t-131.5 -67v-938q0 -135 -23.5 -230t-78.5 -165t-150 -103.5t-234 -33.5t-234.5 33.5t-151 103.5t-79.5 165t-24 230v1059h196v-1061q0 -99 11.5 -160.5t43.5 -106t89 -63t149 -18.5q73 0 123.5 13t83.5 37t51 68t24.5 97t6.5 133z" />
    <glyph glyph-name="uni1EED" unicode="&#x1eed;" horiz-adv-x="1169" 
d="M532 1479h-124q0 83 36.5 127.5t141.5 44.5q83 0 129.5 -34.5t46.5 -105.5q0 -53 -16.5 -79t-51.5 -48q-22 -13 -30 -30t-7 -56h-131q0 63 6 90t31 46q1 2 32.5 24.5t31.5 44.5q0 23 -10 31t-33 8q-52 0 -52 -63zM1200 1309v-15q0 -103 -42.5 -158t-131.5 -67v-1069h-174
l-12 127q-50 -81 -128 -111t-180 -30q-204 0 -300.5 99.5t-96.5 332.5v772h197v-770q0 -125 62.5 -190.5t170.5 -65.5q116 0 190 65.5t74 188.5v772h156q29 8 41 30.5t12 73.5v15h162z" />
    <glyph glyph-name="uni1EEE" unicode="&#x1eee;" horiz-adv-x="1232" 
d="M455 1667l-113 53q22 93 93 135t157 11l92 -43q78 -29 104 53l117 -47q-21 -104 -90.5 -143.5t-146.5 -8.5l-90 41q-91 32 -123 -51zM901 518v1063h164q25 7 35 30.5t10 71.5v15h162v-15q0 -103 -42.5 -158t-131.5 -67v-938q0 -135 -23.5 -230t-78.5 -165t-150 -103.5
t-234 -33.5t-234.5 33.5t-151 103.5t-79.5 165t-24 230v1059h196v-1061q0 -99 11.5 -160.5t43.5 -106t89 -63t149 -18.5q73 0 123.5 13t83.5 37t51 68t24.5 97t6.5 133z" />
    <glyph glyph-name="uni1EEF" unicode="&#x1eef;" horiz-adv-x="1169" 
d="M438 1315l-112 53q22 93 92.5 134.5t156.5 10.5l93 -43q78 -29 104 54l117 -47q-21 -104 -91 -143.5t-147 -8.5l-90 41q-91 32 -123 -51zM1200 1309v-15q0 -103 -42.5 -158t-131.5 -67v-1069h-174l-12 127q-50 -81 -128 -111t-180 -30q-204 0 -300.5 99.5t-96.5 332.5
v772h197v-770q0 -125 62.5 -190.5t170.5 -65.5q116 0 190 65.5t74 188.5v772h156q29 8 41 30.5t12 73.5v15h162z" />
    <glyph glyph-name="uni1EF0" unicode="&#x1ef0;" horiz-adv-x="1232" 
d="M473 -248q0 43 24.5 72.5t59 37t69 1t59 -36.5t24.5 -74q0 -41 -24.5 -70.5t-59 -37t-69 -1.5t-59 35.5t-24.5 73.5zM901 518v1063h164q25 7 35 30.5t10 71.5v15h162v-15q0 -103 -42.5 -158t-131.5 -67v-938q0 -135 -23.5 -230t-78.5 -165t-150 -103.5t-234 -33.5
t-234.5 33.5t-151 103.5t-79.5 165t-24 230v1059h196v-1061q0 -99 11.5 -160.5t43.5 -106t89 -63t149 -18.5q73 0 123.5 13t83.5 37t51 68t24.5 97t6.5 133z" />
    <glyph glyph-name="uni1EF1" unicode="&#x1ef1;" horiz-adv-x="1169" 
d="M420 -248q0 53 36.5 84t81 31.5t81 -30t36.5 -85.5q0 -51 -36.5 -82t-81 -32t-81 29t-36.5 85zM1200 1309v-15q0 -103 -42.5 -158t-131.5 -67v-1069h-174l-12 127q-50 -81 -128 -111t-180 -30q-204 0 -300.5 99.5t-96.5 332.5v772h197v-770q0 -125 62.5 -190.5
t170.5 -65.5q116 0 190 65.5t74 188.5v772h156q29 8 41 30.5t12 73.5v15h162z" />
    <glyph glyph-name="Ygrave" unicode="&#x1ef2;" horiz-adv-x="944" 
d="M444 1665l-188 238v18h193l137 -240v-16h-142zM334 1274l139 -393l139 393l127 307h211l-381 -919v-664h-194v664l-379 919h211z" />
    <glyph glyph-name="ygrave" unicode="&#x1ef3;" horiz-adv-x="1005" 
d="M477 1298l-188 238v18h192l137 -239v-17h-141zM358 813l154 -555q43 220 150 567l116 373h203l-375 -1200l-71 -227q-57 -180 -162 -229.5t-275 20.5l35 166q37 -15 65.5 -20.5t61 -0.5t58.5 35.5t44 85.5l50 170l-381 1200h213z" />
    <glyph glyph-name="uni1EF4" unicode="&#x1ef4;" horiz-adv-x="944" 
d="M356 -248q0 43 24.5 72.5t59 37t69 1t59 -36.5t24.5 -74q0 -41 -24.5 -70.5t-59 -37t-69 -1.5t-59 35.5t-24.5 73.5zM334 1274l139 -393l139 393l127 307h211l-381 -919v-664h-194v664l-379 919h211z" />
    <glyph glyph-name="uni1EF5" unicode="&#x1ef5;" horiz-adv-x="1005" 
d="M666 -248q0 53 36.5 84t81 31.5t81 -30t36.5 -85.5q0 -51 -36.5 -82t-81 -32t-81 29t-36.5 85zM358 813l154 -555q43 220 150 567l116 373h203l-375 -1200l-71 -227q-57 -180 -162 -229.5t-275 20.5l35 166q37 -15 65.5 -20.5t61 -0.5t58.5 35.5t44 85.5l50 170
l-381 1200h213z" />
    <glyph glyph-name="uni1EF6" unicode="&#x1ef6;" horiz-adv-x="944" 
d="M420 1845h-125q0 83 36.5 127.5t141.5 44.5q176 0 176 -139q0 -53 -16 -79t-51 -48q-22 -13 -30 -30t-7 -56h-131q0 63 6 89.5t31 45.5q5 7 22 18t29 23.5t12 28.5q0 23 -10 31t-33 8q-51 0 -51 -64zM334 1274l139 -393l139 393l127 307h211l-381 -919v-664h-194v664
l-379 919h211z" />
    <glyph glyph-name="uni1EF7" unicode="&#x1ef7;" horiz-adv-x="1005" 
d="M457 1479h-125q0 83 36.5 127.5t141.5 44.5q83 0 129.5 -34.5t46.5 -105.5q0 -53 -16.5 -79t-51.5 -48q-22 -13 -29.5 -30t-6.5 -56h-131q0 46 1 64t9 38.5t26 33.5q1 2 32.5 24.5t31.5 44.5q0 23 -10 31t-33 8q-51 0 -51 -63zM358 813l154 -555q43 220 150 567l116 373
h203l-375 -1200l-71 -227q-57 -180 -162 -229.5t-275 20.5l35 166q37 -15 65.5 -20.5t61 -0.5t58.5 35.5t44 85.5l50 170l-381 1200h213z" />
    <glyph glyph-name="uni1EF8" unicode="&#x1ef8;" horiz-adv-x="944" 
d="M307 1667l-112 53q22 93 92.5 135t156.5 11l93 -43q78 -29 104 53l117 -47q-21 -104 -91 -143.5t-147 -8.5l-90 41q-91 32 -123 -51zM334 1274l139 -393l139 393l127 307h211l-381 -919v-664h-194v664l-379 919h211z" />
    <glyph glyph-name="uni1EF9" unicode="&#x1ef9;" horiz-adv-x="1005" 
d="M344 1315l-113 53q22 93 93 134.5t157 10.5l92 -43q79 -29 105 54l117 -47q-21 -104 -91 -143.5t-147 -8.5l-90 41q-91 32 -123 -51zM358 813l154 -555q43 220 150 567l116 373h203l-375 -1200l-71 -227q-57 -180 -162 -229.5t-275 20.5l35 166q37 -15 65.5 -20.5
t61 -0.5t58.5 35.5t44 85.5l50 170l-381 1200h213z" />
    <glyph glyph-name="endash" unicode="&#x2013;" horiz-adv-x="1253" 
d="M158 770h938v-158h-938v158z" />
    <glyph glyph-name="emdash" unicode="&#x2014;" horiz-adv-x="1462" 
d="M158 774h1147v-158h-1147v158z" />
    <glyph glyph-name="quoteleft" unicode="&#x2018;" horiz-adv-x="501" 
d="M395 1581l-94 -391h-180l137 391h137z" />
    <glyph glyph-name="quoteright" unicode="&#x2019;" horiz-adv-x="491" 
d="M125 1188l96 399h180l-137 -399h-139z" />
    <glyph glyph-name="quotesinglbase" unicode="&#x201a;" horiz-adv-x="516" 
d="M88 -236l94 398h180l-137 -398h-137z" />
    <glyph glyph-name="quotedblleft" unicode="&#x201c;" horiz-adv-x="774" 
d="M369 1581l-97 -395h-180l139 395h138zM668 1581l-99 -395h-180l139 395h140z" />
    <glyph glyph-name="quotedblright" unicode="&#x201d;" horiz-adv-x="792" 
d="M129 1190l96 389h181l-138 -389h-139zM428 1190l94 389h180l-137 -389h-137z" />
    <glyph glyph-name="quotedblbase" unicode="&#x201e;" horiz-adv-x="813" 
d="M86 -236l96 398h180l-137 -398h-139zM385 -236l94 398h180l-137 -398h-137z" />
    <glyph glyph-name="dagger" unicode="&#x2020;" horiz-adv-x="1183" 
d="M1104 1038h-422v-1140h-178v1140h-424v154h424v395h178v-395h422v-154z" />
    <glyph glyph-name="daggerdbl" unicode="&#x2021;" horiz-adv-x="1275" 
d="M1151 1042h-424v-518h424v-153h-424v-480h-178v480h-424v153h424v518h-424v154h424v393h178v-393h424v-154z" />
    <glyph glyph-name="bullet" unicode="&#x2022;" horiz-adv-x="829" 
d="M416 428v2q-100 0 -165 61.5t-65 161.5t65.5 163t164.5 63q97 0 161 -63.5t64 -164.5q0 -100 -64 -161.5t-161 -61.5z" />
    <glyph glyph-name="ellipsis" unicode="&#x2026;" horiz-adv-x="1210" 
d="M102 100q0 43 24.5 72.5t59 37t69 1t59 -36.5t24.5 -74q0 -41 -24.5 -70.5t-59 -37t-69 -1.5t-59 35.5t-24.5 73.5zM494 100q0 53 36.5 84t81 31.5t81 -30t36.5 -85.5q0 -51 -36.5 -82t-81 -32t-81 29t-36.5 85zM885 100q0 53 36.5 84t81 31.5t81 -30t36.5 -85.5
q0 -51 -36.5 -82t-81 -32t-81 29t-36.5 85z" />
    <glyph glyph-name="perthousand" unicode="&#x2030;" horiz-adv-x="2336" 
d="M1227 0q-153 0 -226 73.5t-73 229.5v176q0 154 73.5 228.5t225.5 74.5q156 0 229.5 -73.5t73.5 -229.5v-176q0 -156 -73.5 -229.5t-229.5 -73.5zM1227 150q79 0 108 39.5t29 121.5v164q0 82 -29 120t-108 38q-75 0 -105 -38.5t-30 -119.5v-164q0 -81 30 -121t105 -40z
M938 1595h147l-460 -1624h-152zM360 809q-153 0 -226 73.5t-73 229.5v176q0 154 73.5 228.5t225.5 74.5q156 0 230 -73.5t74 -229.5v-176q0 -156 -74 -229.5t-230 -73.5zM360 958q79 0 108.5 40t29.5 122v164q0 82 -29.5 120t-108.5 38q-75 0 -105 -38.5t-30 -119.5v-164
q0 -81 30 -121.5t105 -40.5zM1968 0q-153 0 -226 73.5t-73 229.5v176q0 154 73.5 228.5t225.5 74.5q156 0 229.5 -73.5t73.5 -229.5v-176q0 -156 -73.5 -229.5t-229.5 -73.5zM1968 150q79 0 108 39.5t29 121.5v164q0 82 -29 120t-108 38q-75 0 -105 -38.5t-30 -119.5v-164
q0 -81 30 -121t105 -40z" />
    <glyph glyph-name="guilsinglleft" unicode="&#x2039;" horiz-adv-x="667" 
d="M100 610l283 451h180l-280 -451l280 -452h-180z" />
    <glyph glyph-name="guilsinglright" unicode="&#x203a;" horiz-adv-x="671" 
d="M389 608l-280 451h180l282 -451l-282 -452h-180z" />
    <glyph glyph-name="fraction" unicode="&#x2044;" horiz-adv-x="333" 
d="M-272 -6l729 1593h192l-729 -1593h-192z" />
    <glyph glyph-name="Euro" unicode="&#x20ac;" horiz-adv-x="1099" 
d="M1032 23v-7q-109 -45 -209 -45q-125 0 -223 28.5t-164.5 77.5t-114.5 125.5t-76 162.5t-46 198h-140v156h121q-2 8 -2 59q0 45 2 68h-123v158h142q20 131 66.5 236.5t121 187t185 126.5t249.5 45q88 0 180 -36l-45 -164q-59 22 -131 22q-86 0 -153 -20t-113 -54
t-80.5 -88t-55.5 -114t-38 -141h442l-30 -158h-443v-64v-57h416l-25 -156h-362q15 -81 34 -140t52.5 -113.5t79.5 -88t115.5 -53.5t160.5 -20q85 0 164 39z" />
    <glyph glyph-name="trademark" unicode="&#x2122;" horiz-adv-x="1028" 
d="M418 1573v-111h-125v-536h-117v536h-125v111h367zM500 924v651h141l86 -254l86 254h141v-651h-114v217l10 186l-96 -289h-54l-96 289l10 -186v-217h-114z" />
    <glyph glyph-name="fi" unicode="&#xfb01;" horiz-adv-x="1112" 
d="M6 967v174h166v45q0 123 32.5 207.5t95 130t142.5 62t187 9.5v-178q-61 7 -109.5 1t-82.5 -27.5t-52 -72t-18 -132.5v-41h600v-1145h-195v967h-405v-969h-195v969h-166zM756 1413q0 53 36.5 84t81 32t81 -30t36.5 -86q0 -51 -36.5 -82t-81 -32t-81 29t-36.5 85z" />
    <glyph glyph-name="fl" unicode="&#xfb02;" horiz-adv-x="1136" 
d="M121 -2v1155q0 240 130.5 350.5t354.5 89.5v-178q-71 7 -121.5 -0.5t-90.5 -35t-59.5 -84t-19.5 -142.5v-41h256v-180h-256v-934h-194zM762 311v1270h190v-1268q0 -70 28 -95t95 -25v-193q-91 0 -147.5 13t-95.5 48t-54.5 94.5t-15.5 155.5z" />
    <glyph glyph-name="a.alt" horiz-adv-x="1138" 
d="M1014 778v-778h-164l-25 158q-24 -67 -97.5 -115.5t-182.5 -48.5q-206 0 -311 104.5t-105 307.5v372q0 220 120.5 323t325.5 103q439 0 439 -426zM819 778q0 73 -18.5 123t-53.5 76t-76 36.5t-96 10.5q-120 0 -184.5 -62t-64.5 -184v-350q0 -136 55 -194t164 -58
q66 0 114 14.5t85.5 49t56 96.5t18.5 153v289z" />
    <glyph glyph-name="aacute.alt" horiz-adv-x="1138" 
d="M1014 778v-778h-164l-25 158q-24 -67 -97.5 -115.5t-182.5 -48.5q-206 0 -311 104.5t-105 307.5v372q0 220 120.5 323t325.5 103q439 0 439 -426zM819 778q0 73 -18.5 123t-53.5 76t-76 36.5t-96 10.5q-120 0 -184.5 -62t-64.5 -184v-350q0 -136 55 -194t164 -58
q66 0 114 14.5t85.5 49t56 96.5t18.5 153v289zM844 1536l-189 -238h-141v17l137 239h193v-18z" />
    <glyph glyph-name="abreve.alt" horiz-adv-x="1138" 
d="M1014 778v-778h-164l-25 158q-24 -67 -97.5 -115.5t-182.5 -48.5q-206 0 -311 104.5t-105 307.5v372q0 220 120.5 323t325.5 103q439 0 439 -426zM819 778q0 73 -18.5 123t-53.5 76t-76 36.5t-96 10.5q-120 0 -184.5 -62t-64.5 -184v-350q0 -136 55 -194t164 -58
q66 0 114 14.5t85.5 49t56 96.5t18.5 153v289zM631 1300q-136 0 -196 56.5t-54 183.5h139q0 -60 21 -85t90 -25q68 0 87 24.5t19 85.5h140q6 -127 -52.5 -183.5t-193.5 -56.5z" />
    <glyph glyph-name="acircumflex.alt" horiz-adv-x="1136" 
d="M1014 778v-778h-164l-25 158q-24 -67 -97.5 -115.5t-182.5 -48.5q-206 0 -311 104.5t-105 307.5v372q0 220 120.5 323t325.5 103q439 0 439 -426zM819 778q0 73 -18.5 123t-53.5 76t-76 36.5t-96 10.5q-120 0 -184.5 -62t-64.5 -184v-350q0 -136 55 -194t164 -58
q66 0 114 14.5t85.5 49t56 96.5t18.5 153v289zM535 1554h145l209 -241v-15h-174l-103 117l-104 -117h-174v15z" />
    <glyph glyph-name="adieresis.alt" horiz-adv-x="1134" 
d="M1014 778v-778h-164l-25 158q-24 -67 -97.5 -115.5t-182.5 -48.5q-206 0 -311 104.5t-105 307.5v372q0 220 120.5 323t325.5 103q439 0 439 -426zM819 778q0 73 -18.5 123t-53.5 76t-76 36.5t-96 10.5q-120 0 -184.5 -62t-64.5 -184v-350q0 -136 55 -194t164 -58
q66 0 114 14.5t85.5 49t56 96.5t18.5 153v289zM254 1475q0 53 36.5 84t81 32t81 -30t36.5 -86q0 -51 -36.5 -82t-81 -32t-81 29t-36.5 85zM700 1475q0 43 24.5 72.5t59 37t69 1t59 -36.5t24.5 -74q0 -41 -24.5 -70.5t-59 -37t-69 -1.5t-59 35.5t-24.5 73.5z" />
    <glyph glyph-name="agrave.alt" horiz-adv-x="1138" 
d="M1014 778v-778h-164l-25 158q-24 -67 -97.5 -115.5t-182.5 -48.5q-206 0 -311 104.5t-105 307.5v372q0 220 120.5 323t325.5 103q439 0 439 -426zM819 778q0 73 -18.5 123t-53.5 76t-76 36.5t-96 10.5q-120 0 -184.5 -62t-64.5 -184v-350q0 -136 55 -194t164 -58
q66 0 114 14.5t85.5 49t56 96.5t18.5 153v289zM571 1298l-188 238v18h192l138 -239v-17h-142z" />
    <glyph glyph-name="amacron.alt" horiz-adv-x="1134" 
d="M1014 778v-778h-164l-25 158q-24 -67 -97.5 -115.5t-182.5 -48.5q-206 0 -311 104.5t-105 307.5v372q0 220 120.5 323t325.5 103q439 0 439 -426zM819 778q0 73 -18.5 123t-53.5 76t-76 36.5t-96 10.5q-120 0 -184.5 -62t-64.5 -184v-350q0 -136 55 -194t164 -58
q66 0 114 14.5t85.5 49t56 96.5t18.5 153v289zM348 1587h504v-162h-504v162z" />
    <glyph glyph-name="aogonek.alt" horiz-adv-x="1136" 
d="M850 0l-25 158q-24 -67 -97.5 -115.5t-182.5 -48.5q-206 0 -311 104.5t-105 307.5v372q0 220 120.5 323t325.5 103q439 0 439 -426v-778q-69 -28 -107.5 -74t-38.5 -76q0 -67 72 -67q42 0 74 4v-174q-328 -18 -328 174q0 68 47.5 122.5t116.5 90.5zM819 778
q0 73 -18.5 123t-53.5 76t-76 36.5t-96 10.5q-120 0 -184.5 -62t-64.5 -184v-350q0 -136 55 -194t164 -58q66 0 114 14.5t85.5 49t56 96.5t18.5 153v289z" />
    <glyph glyph-name="aring.alt" horiz-adv-x="1138" 
d="M1014 778v-778h-164l-25 158q-24 -67 -97.5 -115.5t-182.5 -48.5q-206 0 -311 104.5t-105 307.5v372q0 220 120.5 323t325.5 103q439 0 439 -426zM819 778q0 73 -18.5 123t-53.5 76t-76 36.5t-96 10.5q-120 0 -184.5 -62t-64.5 -184v-350q0 -136 55 -194t164 -58
q66 0 114 14.5t85.5 49t56 96.5t18.5 153v289zM381 1495q0 90 63.5 141.5t153.5 51.5q89 0 155 -51.5t66 -141.5t-64.5 -142.5t-158.5 -52.5t-155 52t-60 143zM598 1577q-44 0 -68.5 -26t-24.5 -57t24.5 -57t68.5 -26q46 0 72 26t25.5 57t-26.5 57t-71 26z" />
    <glyph glyph-name="aringacute.alt" horiz-adv-x="1136" 
d="M623 1853h194l-129 -172h-149v7zM385 1450v-4q0 -85 60 -132.5t153 -47.5q90 0 151.5 48.5t61.5 133.5q0 84 -63.5 132t-149.5 48q-88 0 -150.5 -47.5t-62.5 -130.5zM596 1524h-2q36 0 60.5 -16.5t30.5 -39.5t1 -46t-29.5 -39.5t-60.5 -16.5q-44 0 -68.5 24.5t-24.5 54.5
t24.5 54.5t68.5 24.5zM1014 778v-778h-164l-25 158q-24 -67 -97.5 -115.5t-182.5 -48.5q-206 0 -311 104.5t-105 307.5v372q0 220 120.5 323t325.5 103q439 0 439 -426zM819 778q0 73 -18.5 123t-53.5 76t-76 36.5t-96 10.5q-120 0 -184.5 -62t-64.5 -184v-350
q0 -136 55 -194t164 -58q66 0 114 14.5t85.5 49t56 96.5t18.5 153v289z" />
    <glyph glyph-name="atilde.alt" horiz-adv-x="1132" 
d="M1014 778v-778h-164l-25 158q-24 -67 -97.5 -115.5t-182.5 -48.5q-206 0 -311 104.5t-105 307.5v372q0 220 120.5 323t325.5 103q439 0 439 -426zM819 778q0 73 -18.5 123t-53.5 76t-76 36.5t-96 10.5q-120 0 -184.5 -62t-64.5 -184v-350q0 -136 55 -194t164 -58
q66 0 114 14.5t85.5 49t56 96.5t18.5 153v289zM444 1315l-112 53q22 93 93 134.5t157 10.5l92 -43q78 -29 104 54l117 -47q-21 -104 -91 -143.5t-147 -8.5l-90 41q-91 32 -123 -51z" />
    <glyph glyph-name="g.alt" horiz-adv-x="1200" 
d="M121 -215l100 145q128 -153 336 -153q65 0 120.5 12t103 37.5t75 72t27.5 109.5q0 34 -2.5 56.5t-14.5 55t-35 62.5q-125 -38 -233.5 -46t-199.5 18t-156 85.5t-101.5 161.5t-36.5 240v59q0 265 114.5 387.5t354.5 122.5q196 0 308 -75q35 47 101.5 75.5t141.5 28.5
l29 -170q-55 -9 -88.5 -26t-65.5 -50q43 -101 43 -299v-51q0 -205 -86 -340q72 -66 99.5 -136t27.5 -153q0 -424 -524 -424q-146 0 -252.5 48t-185.5 147zM573 319q153 0 213 85.5t60 259.5v24q0 174 -60 259t-213 85t-212.5 -85t-59.5 -259v-24q0 -174 59.5 -259.5
t212.5 -85.5z" />
    <glyph glyph-name="gbreve.alt" horiz-adv-x="1198" 
d="M121 -215l100 145q128 -153 336 -153q65 0 120.5 12t103 37.5t75 72t27.5 109.5q0 34 -2.5 56.5t-14.5 55t-35 62.5q-125 -38 -233.5 -46t-199.5 18t-156 85.5t-101.5 161.5t-36.5 240v59q0 265 114.5 387.5t354.5 122.5q196 0 308 -75q35 47 101.5 75.5t141.5 28.5
l29 -170q-55 -9 -88.5 -26t-65.5 -50q43 -101 43 -299v-51q0 -205 -86 -340q72 -66 99.5 -136t27.5 -153q0 -424 -524 -424q-146 0 -252.5 48t-185.5 147zM573 319q153 0 213 85.5t60 259.5v24q0 174 -60 259t-213 85t-212.5 -85t-59.5 -259v-24q0 -174 59.5 -259.5
t212.5 -85.5zM590 1327q-139 0 -202.5 67t-57.5 201h145q0 -66 22.5 -99.5t92.5 -33.5t91 33t21 100h146q6 -135 -57 -201.5t-201 -66.5z" />
    <glyph glyph-name="gcircumflex.alt" horiz-adv-x="1198" 
d="M121 -215l100 145q128 -153 336 -153q65 0 120.5 12t103 37.5t75 72t27.5 109.5q0 34 -2.5 56.5t-14.5 55t-35 62.5q-125 -38 -233.5 -46t-199.5 18t-156 85.5t-101.5 161.5t-36.5 240v59q0 265 114.5 387.5t354.5 122.5q196 0 308 -75q35 47 101.5 75.5t141.5 28.5
l29 -170q-55 -9 -88.5 -26t-65.5 -50q43 -101 43 -299v-51q0 -205 -86 -340q72 -66 99.5 -136t27.5 -153q0 -424 -524 -424q-146 0 -252.5 48t-185.5 147zM573 319q153 0 213 85.5t60 259.5v24q0 174 -60 259t-213 85t-212.5 -85t-59.5 -259v-24q0 -174 59.5 -259.5
t212.5 -85.5zM528 1597h117l254 -249v-15h-190l-117 117l-119 -117h-190v15z" />
    <glyph glyph-name="gcommaaccent.alt" horiz-adv-x="1198" 
d="M121 -215l100 145q128 -153 336 -153q65 0 120.5 12t103 37.5t75 72t27.5 109.5q0 34 -2.5 56.5t-14.5 55t-35 62.5q-125 -38 -233.5 -46t-199.5 18t-156 85.5t-101.5 161.5t-36.5 240v59q0 265 114.5 387.5t354.5 122.5q196 0 308 -75q35 47 101.5 75.5t141.5 28.5
l29 -170q-55 -9 -88.5 -26t-65.5 -50q43 -101 43 -299v-51q0 -205 -86 -340q72 -66 99.5 -136t27.5 -153q0 -424 -524 -424q-146 0 -252.5 48t-185.5 147zM573 319q153 0 213 85.5t60 259.5v24q0 174 -60 259t-213 85t-212.5 -85t-59.5 -259v-24q0 -174 59.5 -259.5
t212.5 -85.5zM748 1702l67 -86q-48 -26 -76.5 -54.5t-41.5 -65.5t-16 -68.5t-3 -86.5h-191q0 146 59 225.5t202 135.5z" />
    <glyph glyph-name="gdotaccent.alt" horiz-adv-x="1198" 
d="M469 1481q0 44 25.5 74t61.5 37t72 -0.5t61.5 -38t25.5 -74.5t-25.5 -74t-61.5 -37t-72 0.5t-61.5 38t-25.5 74.5zM121 -215l100 145q128 -153 336 -153q65 0 120.5 12t103 37.5t75 72t27.5 109.5q0 34 -2.5 56.5t-14.5 55t-35 62.5q-125 -38 -233.5 -46t-199.5 18
t-156 85.5t-101.5 161.5t-36.5 240v59q0 265 114.5 387.5t354.5 122.5q196 0 308 -75q35 47 101.5 75.5t141.5 28.5l29 -170q-55 -9 -88.5 -26t-65.5 -50q43 -101 43 -299v-51q0 -205 -86 -340q72 -66 99.5 -136t27.5 -153q0 -424 -524 -424q-146 0 -252.5 48t-185.5 147z
M573 319q153 0 213 85.5t60 259.5v24q0 174 -60 259t-213 85t-212.5 -85t-59.5 -259v-24q0 -174 59.5 -259.5t212.5 -85.5z" />
    <glyph glyph-name="y.alt" horiz-adv-x="1193" 
d="M827 1196h195v-1237q0 -235 -116.5 -346t-325.5 -111q-199 0 -304 83.5t-112 273.5h184q7 -100 67 -139t167 -39q126 0 192 62t66 216v197q-24 -66 -100.5 -114t-186.5 -48q-206 0 -311 104.5t-105 307.5v790h197v-768q0 -136 55 -194t164 -58q66 0 114 14.5t85.5 49
t56 96.5t18.5 153v707z" />
    <glyph glyph-name="yacute.alt" horiz-adv-x="1193" 
d="M827 1196h195v-1237q0 -235 -116.5 -346t-325.5 -111q-199 0 -304 83.5t-112 273.5h184q7 -100 67 -139t167 -39q126 0 192 62t66 216v197q-24 -66 -100.5 -114t-186.5 -48q-206 0 -311 104.5t-105 307.5v790h197v-768q0 -136 55 -194t164 -58q66 0 114 14.5t85.5 49
t56 96.5t18.5 153v707zM844 1536l-189 -238h-141v17l137 239h193v-18z" />
    <glyph glyph-name="ycircumflex.alt" horiz-adv-x="1189" 
d="M827 1196h195v-1237q0 -235 -116.5 -346t-325.5 -111q-199 0 -304 83.5t-112 273.5h184q7 -100 67 -139t167 -39q126 0 192 62t66 216v197q-24 -66 -100.5 -114t-186.5 -48q-206 0 -311 104.5t-105 307.5v790h197v-768q0 -136 55 -194t164 -58q66 0 114 14.5t85.5 49
t56 96.5t18.5 153v707zM518 1589h117l254 -250v-14h-191l-116 117l-119 -117h-191v14z" />
    <glyph glyph-name="ydieresis.alt" horiz-adv-x="1193" 
d="M827 1196h195v-1237q0 -235 -116.5 -346t-325.5 -111q-199 0 -304 83.5t-112 273.5h184q7 -100 67 -139t167 -39q126 0 192 62t66 216v197q-24 -66 -100.5 -114t-186.5 -48q-206 0 -311 104.5t-105 307.5v790h197v-768q0 -136 55 -194t164 -58q66 0 114 14.5t85.5 49
t56 96.5t18.5 153v707zM262 1475q0 43 24.5 72.5t59 37t69 1t59 -36.5t24.5 -74q0 -41 -24.5 -70.5t-59 -37t-69 -1.5t-59 35.5t-24.5 73.5zM709 1475q0 53 36.5 84t81 32t81 -30t36.5 -86q0 -51 -36.5 -82t-81 -32t-81 29t-36.5 85z" />
    <glyph glyph-name="ygrave.alt" horiz-adv-x="1193" 
d="M827 1196h195v-1237q0 -235 -116.5 -346t-325.5 -111q-199 0 -304 83.5t-112 273.5h184q7 -100 67 -139t167 -39q126 0 192 62t66 216v197q-24 -66 -100.5 -114t-186.5 -48q-206 0 -311 104.5t-105 307.5v790h197v-768q0 -136 55 -194t164 -58q66 0 114 14.5t85.5 49
t56 96.5t18.5 153v707zM565 1298l-188 238v18h192l138 -239v-17h-142z" />
    <glyph glyph-name="_0004" horiz-adv-x="0" 
 />
    <glyph glyph-name="uni1EA1.alt" horiz-adv-x="1138" 
d="M1014 778v-778h-164l-25 158q-24 -67 -97.5 -115.5t-182.5 -48.5q-206 0 -311 104.5t-105 307.5v372q0 220 120.5 323t325.5 103q439 0 439 -426zM819 778q0 73 -18.5 123t-53.5 76t-76 36.5t-96 10.5q-120 0 -184.5 -62t-64.5 -184v-350q0 -136 55 -194t164 -58
q66 0 114 14.5t85.5 49t56 96.5t18.5 153v289zM440 -248q0 43 24.5 72.5t59 37t69 1t59 -36.5t24.5 -74q0 -41 -24.5 -70.5t-59 -37t-69 -1.5t-59 35.5t-24.5 73.5z" />
    <glyph glyph-name="uni1EA3.alt" horiz-adv-x="1138" 
d="M1014 778v-778h-164l-25 158q-24 -67 -97.5 -115.5t-182.5 -48.5q-206 0 -311 104.5t-105 307.5v372q0 220 120.5 323t325.5 103q439 0 439 -426zM819 778q0 73 -18.5 123t-53.5 76t-76 36.5t-96 10.5q-120 0 -184.5 -62t-64.5 -184v-350q0 -136 55 -194t164 -58
q66 0 114 14.5t85.5 49t56 96.5t18.5 153v289zM549 1479h-125q0 83 36.5 127.5t141.5 44.5q83 0 129.5 -34.5t46.5 -105.5q0 -53 -16 -79t-51 -48q-22 -13 -30 -30t-7 -56h-131q0 63 6 90t31 46q5 7 22 17.5t29 23t12 28.5q0 23 -10 31t-33 8q-51 0 -51 -63z" />
    <glyph glyph-name="uni1EA5.alt" horiz-adv-x="1136" 
d="M1014 778v-778h-164l-25 158q-24 -67 -97.5 -115.5t-182.5 -48.5q-206 0 -311 104.5t-105 307.5v372q0 220 120.5 323t325.5 103q439 0 439 -426zM819 778q0 73 -18.5 123t-53.5 76t-76 36.5t-96 10.5q-120 0 -184.5 -62t-64.5 -184v-350q0 -136 55 -194t164 -58
q66 0 114 14.5t85.5 49t56 96.5t18.5 153v289zM535 1554h145l209 -241v-15h-174l-103 117l-104 -117h-174v15zM1122 1724l-188 -237h-141v16l137 240h192v-19z" />
    <glyph glyph-name="uni1EA7.alt" horiz-adv-x="1136" 
d="M1014 778v-778h-164l-25 158q-24 -67 -97.5 -115.5t-182.5 -48.5q-206 0 -311 104.5t-105 307.5v372q0 220 120.5 323t325.5 103q439 0 439 -426zM819 778q0 73 -18.5 123t-53.5 76t-76 36.5t-96 10.5q-120 0 -184.5 -62t-64.5 -184v-350q0 -136 55 -194t164 -58
q66 0 114 14.5t85.5 49t56 96.5t18.5 153v289zM535 1554h145l209 -241v-15h-174l-103 117l-104 -117h-174v15zM823 1487l-188 237v19h192l138 -240v-16h-142z" />
    <glyph glyph-name="uni1EA9.alt" horiz-adv-x="1136" 
d="M1014 778v-778h-164l-25 158q-24 -67 -97.5 -115.5t-182.5 -48.5q-206 0 -311 104.5t-105 307.5v372q0 220 120.5 323t325.5 103q439 0 439 -426zM819 778q0 73 -18.5 123t-53.5 76t-76 36.5t-96 10.5q-120 0 -184.5 -62t-64.5 -184v-350q0 -136 55 -194t164 -58
q66 0 114 14.5t85.5 49t56 96.5t18.5 153v289zM535 1554h145l209 -241v-15h-174l-103 117l-104 -117h-174v15zM799 1667h-125q0 83 36.5 127.5t141.5 44.5q176 0 176 -139q0 -53 -16 -79t-51 -48q-22 -13 -30 -30t-7 -56h-131q0 46 1 63.5t9 38t26 33.5q5 7 22.5 17.5
t29.5 23.5t12 29q0 23 -10 31t-33 8q-51 0 -51 -64z" />
    <glyph glyph-name="uni1EAB.alt" horiz-adv-x="1136" 
d="M1014 778v-778h-164l-25 158q-24 -67 -97.5 -115.5t-182.5 -48.5q-206 0 -311 104.5t-105 307.5v372q0 220 120.5 323t325.5 103q439 0 439 -426zM819 778q0 73 -18.5 123t-53.5 76t-76 36.5t-96 10.5q-120 0 -184.5 -62t-64.5 -184v-350q0 -136 55 -194t164 -58
q66 0 114 14.5t85.5 49t56 96.5t18.5 153v289zM535 1554h145l209 -241v-15h-174l-103 117l-104 -117h-174v15zM455 1591l-109 51q22 90 90.5 130.5t151.5 11.5l90 -43q78 -29 102 51l113 -45q-21 -101 -88.5 -139.5t-142.5 -8.5l-87 43q-89 32 -120 -51z" />
    <glyph glyph-name="uni1EAD.alt" horiz-adv-x="1136" 
d="M1014 778v-778h-164l-25 158q-24 -67 -97.5 -115.5t-182.5 -48.5q-206 0 -311 104.5t-105 307.5v372q0 220 120.5 323t325.5 103q439 0 439 -426zM819 778q0 73 -18.5 123t-53.5 76t-76 36.5t-96 10.5q-120 0 -184.5 -62t-64.5 -184v-350q0 -136 55 -194t164 -58
q66 0 114 14.5t85.5 49t56 96.5t18.5 153v289zM535 1554h145l209 -241v-15h-174l-103 117l-104 -117h-174v15zM440 -248q0 43 24.5 72.5t59 37t69 1t59 -36.5t24.5 -74q0 -41 -24.5 -70.5t-59 -37t-69 -1.5t-59 35.5t-24.5 73.5z" />
    <glyph glyph-name="uni1EAF.alt" horiz-adv-x="1138" 
d="M1014 778v-778h-164l-25 158q-24 -67 -97.5 -115.5t-182.5 -48.5q-206 0 -311 104.5t-105 307.5v372q0 220 120.5 323t325.5 103q439 0 439 -426zM819 778q0 73 -18.5 123t-53.5 76t-76 36.5t-96 10.5q-120 0 -184.5 -62t-64.5 -184v-350q0 -136 55 -194t164 -58
q66 0 114 14.5t85.5 49t56 96.5t18.5 153v289zM631 1300q-136 0 -196 56.5t-54 183.5h139q0 -60 21 -85t90 -25q68 0 87 24.5t19 85.5h140q6 -127 -52.5 -183.5t-193.5 -56.5zM885 1815l-189 -238h-141v16l137 240h193v-18z" />
    <glyph glyph-name="uni1EB1.alt" horiz-adv-x="1138" 
d="M1014 778v-778h-164l-25 158q-24 -67 -97.5 -115.5t-182.5 -48.5q-206 0 -311 104.5t-105 307.5v372q0 220 120.5 323t325.5 103q439 0 439 -426zM819 778q0 73 -18.5 123t-53.5 76t-76 36.5t-96 10.5q-120 0 -184.5 -62t-64.5 -184v-350q0 -136 55 -194t164 -58
q66 0 114 14.5t85.5 49t56 96.5t18.5 153v289zM631 1300q-136 0 -196 56.5t-54 183.5h139q0 -60 21 -85t90 -25q68 0 87 24.5t19 85.5h140q6 -127 -52.5 -183.5t-193.5 -56.5zM567 1577l-188 238v18h192l138 -240v-16h-142z" />
    <glyph glyph-name="uni1EB3.alt" horiz-adv-x="1138" 
d="M1014 778v-778h-164l-25 158q-24 -67 -97.5 -115.5t-182.5 -48.5q-206 0 -311 104.5t-105 307.5v372q0 220 120.5 323t325.5 103q439 0 439 -426zM819 778q0 73 -18.5 123t-53.5 76t-76 36.5t-96 10.5q-120 0 -184.5 -62t-64.5 -184v-350q0 -136 55 -194t164 -58
q66 0 114 14.5t85.5 49t56 96.5t18.5 153v289zM631 1300q-136 0 -196 56.5t-54 183.5h139q0 -60 21 -85t90 -25q68 0 87 24.5t19 85.5h140q6 -127 -52.5 -183.5t-193.5 -56.5zM573 1757h-124q0 83 36.5 127.5t141.5 44.5q176 0 176 -139q0 -53 -16.5 -79t-51.5 -48
q-22 -13 -30 -30t-7 -56h-131q0 63 6 89.5t31 45.5q5 7 22.5 17.5t29.5 23.5t12 29q0 23 -10 31t-33 8q-52 0 -52 -64z" />
    <glyph glyph-name="uni1EB5.alt" horiz-adv-x="1138" 
d="M1014 778v-778h-164l-25 158q-24 -67 -97.5 -115.5t-182.5 -48.5q-206 0 -311 104.5t-105 307.5v372q0 220 120.5 323t325.5 103q439 0 439 -426zM819 778q0 73 -18.5 123t-53.5 76t-76 36.5t-96 10.5q-120 0 -184.5 -62t-64.5 -184v-350q0 -136 55 -194t164 -58
q66 0 114 14.5t85.5 49t56 96.5t18.5 153v289zM631 1300q-136 0 -196 56.5t-54 183.5h139q0 -60 21 -85t90 -25q68 0 87 24.5t19 85.5h140q6 -127 -52.5 -183.5t-193.5 -56.5zM467 1589l-107 53q20 93 87.5 135t148.5 11l86 -43q75 -29 98 53l111 -47q-19 -104 -85 -143.5
t-138 -8.5l-86 41q-86 33 -115 -51z" />
    <glyph glyph-name="uni1EB7.alt" horiz-adv-x="1138" 
d="M1014 778v-778h-164l-25 158q-24 -67 -97.5 -115.5t-182.5 -48.5q-206 0 -311 104.5t-105 307.5v372q0 220 120.5 323t325.5 103q439 0 439 -426zM819 778q0 73 -18.5 123t-53.5 76t-76 36.5t-96 10.5q-120 0 -184.5 -62t-64.5 -184v-350q0 -136 55 -194t164 -58
q66 0 114 14.5t85.5 49t56 96.5t18.5 153v289zM631 1300q-136 0 -196 56.5t-54 183.5h139q0 -60 21 -85t90 -25q68 0 87 24.5t19 85.5h140q6 -127 -52.5 -183.5t-193.5 -56.5zM440 -248q0 43 24.5 72.5t59 37t69 1t59 -36.5t24.5 -74q0 -41 -24.5 -70.5t-59 -37t-69 -1.5
t-59 35.5t-24.5 73.5z" />
    <glyph glyph-name="uni1EF5.alt" horiz-adv-x="1193" 
d="M827 1196h195v-1237q0 -235 -116.5 -346t-325.5 -111q-199 0 -304 83.5t-112 273.5h184q7 -100 67 -139t167 -39q126 0 192 62t66 216v197q-24 -66 -100.5 -114t-186.5 -48q-206 0 -311 104.5t-105 307.5v790h197v-768q0 -136 55 -194t164 -58q66 0 114 14.5t85.5 49
t56 96.5t18.5 153v707zM1118 -248q0 43 24.5 72.5t59 37t69 1t59 -36.5t24.5 -74q0 -41 -24.5 -70.5t-59 -37t-69 -1.5t-59 35.5t-24.5 73.5z" />
    <glyph glyph-name="uni1EF7.alt" horiz-adv-x="1193" 
d="M827 1196h195v-1237q0 -235 -116.5 -346t-325.5 -111q-199 0 -304 83.5t-112 273.5h184q7 -100 67 -139t167 -39q126 0 192 62t66 216v197q-24 -66 -100.5 -114t-186.5 -48q-206 0 -311 104.5t-105 307.5v790h197v-768q0 -136 55 -194t164 -58q66 0 114 14.5t85.5 49
t56 96.5t18.5 153v707zM537 1479h-125q0 83 36.5 127.5t141.5 44.5q83 0 129.5 -34.5t46.5 -105.5q0 -53 -16.5 -79t-51.5 -48q-22 -13 -29.5 -30t-6.5 -56h-132q0 63 6 90t31 46q1 2 32.5 24.5t31.5 44.5q0 23 -10 31t-33 8q-51 0 -51 -63z" />
    <glyph glyph-name="uni1EF9.alt" horiz-adv-x="1193" 
d="M827 1196h195v-1237q0 -235 -116.5 -346t-325.5 -111q-199 0 -304 83.5t-112 273.5h184q7 -100 67 -139t167 -39q126 0 192 62t66 216v197q-24 -66 -100.5 -114t-186.5 -48q-206 0 -311 104.5t-105 307.5v790h197v-768q0 -136 55 -194t164 -58q66 0 114 14.5t85.5 49
t56 96.5t18.5 153v707zM426 1315l-113 53q22 93 93 134.5t157 10.5l92 -43q79 -29 105 54l117 -47q-21 -104 -91 -143.5t-147 -8.5l-90 41q-91 32 -123 -51z" />
    </font>
</defs>
</svg>
