<?xml version="1.0" standalone="no"?>
<!DOCTYPE svg PUBLIC "-//W3C//DTD SVG 1.1//EN" "http://www.w3.org/Graphics/SVG/1.1/DTD/svg11.dtd" >
<svg xmlns="http://www.w3.org/2000/svg" xmlns:xlink="http://www.w3.org/1999/xlink" version="1.1">
<metadata>
Created by FontForge 20201107 at Mon Jan 22 12:21:23 2024
 By 
Copyright (c) 2023 by Allmostudio. All Rights Reserved
</metadata>
<defs>
<font id="TPCreation-Regular" horiz-adv-x="295" >
  <font-face 
    font-family="TP Creation"
    font-weight="400"
    font-stretch="normal"
    units-per-em="1000"
    panose-1="0 0 0 0 0 0 0 0 0 0"
    ascent="800"
    descent="-200"
    x-height="428"
    cap-height="690"
    bbox="-179.861 -464 874 915"
    underline-thickness="50"
    underline-position="-125"
    unicode-range="U+000D-FB00"
  />
<missing-glyph horiz-adv-x="140" 
 />
    <glyph glyph-name="b_r.liga" unicode="br" horiz-adv-x="530" 
d="M118 27q28 0 46 31t26 85q-9 14 -9 30q0 25 14 35v5q1 83 -14.5 133t-39.5 50q-20 0 -35 -27t-25 -63t-16.5 -72.5t-9.5 -54.5v-22q1 -11 1.5 -20.5t1.5 -20.5q4 -13 9 -28.5t12 -29t16.5 -22.5t22.5 -9zM549 168q1 3 7 0.5t4 -11.5q0 -1 -1.5 -13t-5 -29.5t-9.5 -37.5
t-15.5 -37t-23.5 -28.5t-33 -11.5q-21 0 -35.5 10t-24 35t-14.5 66t-5 102q-1 66 2.5 115t5.5 72q-13 -5 -26 -11t-20 -10q-3 -26 -9 -53.5t-16 -54t-25 -49t-37 -39.5q-3 -53 -14 -88t-28.5 -56t-39.5 -30t-46 -9q-29 0 -46 14t-28 33q3 -21 4 -34.5t-1 -15.5t-10.5 -1
t-18 4t-19 7t-14.5 8q-3 2 -4 12t-1 30.5t1.5 53t2.5 78.5q1 50 0.5 125.5t-0.5 169.5q0 83 -2 135.5t5 60.5q2 2 8.5 4.5t15.5 4.5t19 3.5t18 1.5q15 0 17 -5q1 -3 -2 -17t-8 -42t-10 -71t-8 -104q-2 -54 -3.5 -97.5t-2.5 -87.5q5 29 13.5 57.5t22 51t31.5 36.5t41 14
q49 -1 78.5 -52t29.5 -164q15 15 26.5 34t19.5 40t12.5 42.5t5.5 41.5q-10 -4 -20 -4q-8 0 -16 3t-14.5 11t-9.5 22t0 36q3 30 10.5 49t16 29.5t17.5 14t16 3.5q16 -1 23 -36t1 -104q23 11 33.5 15t15.5 6q7 3 23 7t27 5q19 1 19 -3q0 -2 -4 -18t-8.5 -44t-7.5 -66t-2 -85
q1 -39 6 -64.5t12 -41t14 -21.5t12 -6q12 0 26.5 20t25.5 69z" />
    <glyph glyph-name="f_t.liga" unicode="ft" horiz-adv-x="414" 
d="M235 -13q-3 61 -13.5 128.5t-28.5 129t-43.5 112t-58.5 77.5q-3 -43 -5 -89t-3 -91.5t-0.5 -89.5t2.5 -83q4 -72 16.5 -121t28 -79.5t33 -43.5t32.5 -13q10 0 18 5t14 22t8 49t0 87zM531 476q2 0 1.5 -5.5t-7.5 -7.5q-30 -5 -77.5 -9t-101.5 -6q-1 -34 -2.5 -61t-2 -53
t0 -53.5t1.5 -62.5q1 -30 3 -55t6.5 -44t11 -29.5t15.5 -10.5q12 0 21 12t15 27.5t9.5 30t4.5 19.5q3 3 7.5 0t5.5 -11q-1 -6 -4.5 -31.5t-12 -53.5t-24 -50t-39.5 -22q-27 0 -41.5 19t-22 59t-8.5 100.5t-1 142.5q1 35 1 66.5v58.5q-6 -1 -11.5 -1h-11.5q-35 -2 -72.5 -2.5
t-73.5 -0.5q31 -16 55 -48.5t42 -74t30 -88.5t19 -92t9.5 -85t1.5 -67q-2 -39 -9 -75.5t-22 -65t-39.5 -45.5t-62.5 -17q-42 0 -67.5 32.5t-39.5 85.5t-18 122t-3 141.5t5.5 143.5t7.5 129q0 2 0.5 3.5t0.5 3.5q-35 2 -56 3.5t-23 3.5q0 2 4 8.5t10 13t12.5 12t10.5 6.5
q8 -2 19.5 -4t24.5 -4q5 89 8 132t4 55q1 13 14 16.5t30 5.5q10 2 21 3t16 -1q5 -1 0 -18t-15 -67q-9 -55 -17 -134q14 -2 27.5 -3t25.5 -2q8 0 14.5 -0.5t14.5 -0.5q33 -2 64 -2t50 -1q0 60 0.5 100t1 64t1.5 35.5t4 14.5q2 2 8.5 4.5t15.5 4.5t19 3.5t18 1.5q15 0 17 -5
q1 -3 -2 -18t-8 -42t-10 -67.5t-8 -95.5q38 1 71 2t58 2.5t39.5 3t15.5 1.5z" />
    <glyph glyph-name="f_t_f.liga" unicode="ftf" horiz-adv-x="712" 
d="M242 -13q-3 61 -13.5 128.5t-28.5 129t-44 112t-59 77.5q-3 -43 -5 -89t-2.5 -91.5t0 -89.5t2.5 -83q4 -72 16 -121t28 -79.5t33.5 -43.5t32.5 -13q10 0 18 5t14 22t8 49t0 87zM385 79q9 0 16 6.5t12.5 16t9.5 21t7 21.5q0 78 4.5 154.5t8.5 139.5v5q-23 -1 -45.5 -1.5
t-44.5 -1.5q-2 -31 -3 -57.5t-1.5 -52t-0.5 -52.5t1 -60q1 -30 3.5 -55t6.5 -44t10.5 -29.5t15.5 -10.5zM648 -13q-3 61 -13.5 128.5t-28.5 129t-43.5 112t-58.5 77.5q-3 -43 -5.5 -89t-3 -91.5t0 -89.5t2.5 -83q4 -72 16.5 -121t28 -79.5t33 -43.5t32.5 -13q10 0 18 5
t14 22t8 49t0 87zM757 476q2 0 1 -5.5t-7 -7.5q-32 -5 -92 -9.5t-132 -7.5q32 -14 57 -46t44 -74t31.5 -90t20 -94t10 -87t1.5 -68q-2 -39 -9 -75.5t-22 -65t-40 -45.5t-62 -17q-35 0 -58.5 22.5t-38 61.5t-21.5 91t-9 110q-9 -27 -24 -48t-39 -21q-27 0 -41.5 19t-21.5 59
t-8.5 100.5t-0.5 142.5v118q-54 -1 -97 -1t-66 1q30 -17 53 -50t40.5 -74.5t29 -88t18.5 -91t9.5 -83.5t1.5 -65q-2 -39 -9.5 -75.5t-22.5 -65t-39.5 -45.5t-61.5 -17q-42 0 -68 32.5t-39.5 85.5t-18 122t-3 141.5t6 143.5t7.5 129v3q-37 2 -59.5 3t-24.5 3q-2 3 2 9.5
t10.5 14t13.5 13t11 6.5l24 -4t25 -4q5 90 8 133.5t4 55.5q1 13 14.5 16.5t30.5 5.5q9 2 20.5 3t16.5 -1q5 -1 -0.5 -18t-14.5 -67q-5 -27 -9.5 -61t-7.5 -74q49 -4 97.5 -5t98.5 -3v100t0.5 64t1.5 35.5t4 14.5q4 5 24.5 9.5t37.5 4.5q14 0 16 -5q1 -3 -2 -18t-7.5 -42
t-9.5 -67.5t-8 -95.5h91q5 98 8.5 145t4.5 59q1 13 14 16.5t30 5.5q10 2 21 3t16 -1q5 -1 0 -18t-15 -67q-5 -28 -9.5 -64.5t-8.5 -78.5h18q47 0 88.5 1.5t73 3t51 3t20.5 1.5z" />
    <glyph glyph-name="g_r.liga" unicode="gr" horiz-adv-x="509" 
d="M130 45q9 0 17 13.5t14.5 35t12.5 47t10.5 50t7.5 44.5t4 30q0 11 0.5 20.5t0.5 17.5q-4 17 -9.5 34t-11 30t-11.5 21t-12 8q-11 0 -21.5 -12.5t-19 -34.5t-14.5 -51.5t-8 -63.5q-2 -33 -1.5 -67t4.5 -61t13 -44t24 -17zM299 280q6 19 12 42.5t9 48.5q-7 -3 -20 -3
q-11 0 -22 5t-17 20q0 -3 -1 -10t-2.5 -21t-3 -36.5t-2.5 -55.5v-64q11 11 23.5 28.5t23.5 45.5zM92 -325q32 0 51 25t28.5 64t13 85t4.5 88v23q-14 -4 -28.5 -10.5t-28.5 -16.5q-23 -16 -39.5 -41t-26.5 -53.5t-12.5 -57.5t0.5 -52.5t12.5 -38.5t25.5 -15zM534 168
q1 3 6.5 0.5t3.5 -11.5q0 -1 -1 -13t-4.5 -29.5t-9.5 -37.5t-16 -37t-23.5 -28.5t-32.5 -11.5q-21 0 -36 10t-24.5 35t-14 66t-4.5 102q-1 66 2.5 115t5.5 72q-13 -5 -26.5 -11t-19.5 -10q-7 -61 -29.5 -118t-56.5 -108q2 -39 3.5 -80t3.5 -86q37 -6 65.5 -18t39.5 -23
q5 -6 9 -15.5t5.5 -18.5t0.5 -15t-6 -4q-29 26 -56.5 43.5t-56.5 24.5q0 -13 0.5 -25.5t0.5 -25.5q1 -77 -6.5 -128t-24.5 -81t-43.5 -42.5t-63.5 -12.5q-33 0 -57 14.5t-38.5 38t-20 53t-2 61t16 61t33.5 52.5q29 31 63.5 45t69.5 18q2 45 2.5 87.5t1.5 82.5
q-6 -28 -13.5 -56t-18 -51t-25 -37.5t-34.5 -14.5q-15 0 -30.5 10.5t-28 33t-20 59t-6.5 87.5q1 47 8.5 90t22.5 76t37 52.5t52 19.5q22 0 36.5 -18t23.5 -44v16q0 4 6.5 7t16 4.5t20 2t17.5 0.5h2q-6 15 -3 43q4 30 11 49t16 29.5t17.5 14t15.5 3.5q17 -1 24 -36t1 -104
q22 11 32.5 15t15.5 6q8 3 23.5 7t26.5 5t15 0t4 -3t-4 -18t-8 -44t-7 -66t-2 -85q1 -39 6 -64.5t11.5 -41t13.5 -21.5t13 -6q11 0 25.5 20t26.5 69z" />
    <glyph glyph-name="j_r.liga" unicode="jr" horiz-adv-x="352" 
d="M-94 -325q32 0 51 25t28.5 64t13 85t4.5 88q0 5 0.5 11t0.5 12q-28 -7 -58 -27q-23 -16 -39.5 -41t-26 -53.5t-12.5 -57.5t0 -52.5t13 -38.5t25 -15zM374 168q1 3 7 0.5t4 -11.5q0 -1 -1.5 -13t-5 -29.5t-9.5 -37.5t-15.5 -37t-23.5 -28.5t-33 -11.5q-21 0 -35.5 10
t-24 35t-14.5 66t-5 102q-1 66 2.5 115t5.5 72q-13 -5 -26 -11t-20 -10q-3 -28 -11 -60.5t-20 -64t-27.5 -60t-35.5 -50.5q-5 -2 -9 0.5t-6 7.5q1 -44 2.5 -90.5t2.5 -75.5q37 -5 65 -17t39 -23q5 -6 8.5 -15t5.5 -17.5t1.5 -14.5t-3.5 -6q-31 26 -59 43.5t-57 24.5
q0 -13 0.5 -25.5t0.5 -25.5q1 -77 -6.5 -128t-24 -81t-43 -42.5t-63.5 -12.5q-33 0 -57 14.5t-39 38t-20.5 53t-2 61t16 61t33.5 52.5q29 31 63.5 45t69.5 18q2 67 3 130t3 115q0 27 -0.5 53t-1 47.5t-0.5 38v23.5q-1 16 8 20t27 8q8 2 15.5 3t13.5 1q13 0 12 -7
q-1 -3 -3.5 -15.5t-5 -36t-4.5 -60t-2 -88.5q0 -9 0.5 -21t0.5 -26q3 11 8 16q8 9 26.5 29.5t34.5 60.5q7 19 13 42.5t8 48.5q-7 -3 -20 -3q-8 0 -17 3t-15.5 10.5t-10 21.5t-0.5 36q4 30 11 49t16 29.5t18 14t16 3.5q16 -1 23 -36t1 -104q23 11 33.5 15t15.5 6q7 3 23 7
t27 5t14.5 0t3.5 -3t-4 -18t-8 -44t-7 -66t-2 -85q1 -39 6 -64.5t11.5 -41t13.5 -21.5t13 -6q12 0 26.5 20t25.5 69zM46 494q-19 0 -32.5 13t-13.5 32q0 18 13.5 31t32.5 13q20 0 33 -13t13 -31q0 -19 -13 -32t-33 -13z" />
    <glyph glyph-name="k_r.liga" unicode="kr" horiz-adv-x="552" 
d="M274 40q10 10 16.5 21.5t9.5 6.5q2 -34 -14.5 -56t-38.5 -22q-36 0 -66 21.5t-53.5 52t-41 65t-27.5 60.5q0 -8 0.5 -16t0.5 -16q1 -29 4 -56.5t6 -50t4.5 -37t-0.5 -16.5t-10.5 -1t-18.5 4t-19.5 7t-14.5 8q-3 2 -4 12t-0.5 30.5t1.5 53t2 78.5q2 50 1.5 125.5
t-0.5 169.5q0 83 -2 135.5t4 60.5q4 5 24.5 9.5t37.5 4.5q14 0 16 -5q2 -3 -1.5 -17t-8.5 -42t-10 -71t-7 -104q-3 -63 -4.5 -113t-1.5 -104q13 20 35.5 51t46.5 61t46 53t34 26q32 0 43.5 -11t6.5 -13q-22 -7 -49 -28t-54 -47.5t-50 -53t-38 -44.5q18 -46 46.5 -80
t57 -57.5t54 -36.5t37.5 -18zM581 157q0 -1 -1.5 -13t-5 -29.5t-9.5 -37.5t-16 -37t-23.5 -28.5t-32.5 -11.5q-21 0 -35.5 10t-24 35t-14.5 66t-5 102q-1 66 2.5 115t5.5 72q-13 -5 -26.5 -11t-19.5 -10q-3 -27 -11 -59.5t-20.5 -64.5t-28.5 -61t-34 -50q-6 -3 -11.5 3
t-6.5 11q-1 11 3 19.5t6 12.5q8 9 26.5 29.5t35.5 60.5q6 19 12 42.5t9 48.5q-7 -3 -20 -3q-8 0 -17 3t-15.5 10.5t-10 21.5t-0.5 36q4 30 11 49t16 29.5t17.5 14t15.5 3.5q17 -1 24 -36t1 -104q22 11 32.5 15t15.5 6q8 3 23.5 7t26.5 5t15 0t4 -3t-4 -18t-8 -44t-7 -66
t-2 -85q1 -39 6 -64.5t11.5 -41t13.5 -21.5t13 -6q11 0 25.5 20t26.5 69q1 3 6.5 0.5t4.5 -11.5z" />
    <glyph glyph-name="o_r.liga" unicode="or" horiz-adv-x="587" 
d="M184 34q20 0 38 15t29 45h-1q1 1 1 1.5t1 1.5q0 2 1 4q-4 -1 -10 -1q-36 0 -63 11.5t-46 30.5t-30 43t-15 48q-2 -42 4.5 -78t19 -63t31 -42.5t40.5 -15.5zM163 405q-17 0 -28.5 -11.5t-18 -30t-7.5 -42.5t3 -49q3 -19 13.5 -45.5t26.5 -49.5t37 -39.5t46 -16.5
q12 0 23 4h1q3 14 5 30t2 34q0 35 -8 73.5t-22.5 70t-33 52t-39.5 20.5zM595 168q1 3 7 0.5t4 -11.5q0 -1 -1.5 -13t-5 -29.5t-9.5 -37.5t-15.5 -37t-23.5 -28.5t-33 -11.5q-21 0 -35.5 10t-24 35t-14.5 66t-5 102q-1 66 2.5 115t5.5 72q-13 -5 -25.5 -11t-18.5 -10
q-2 -23 -5.5 -65.5t-20.5 -96.5q-1 -12 -7.5 -28t-18.5 -32t-29.5 -30t-40.5 -21q-15 -51 -47.5 -80.5t-77.5 -29.5q-31 0 -56.5 15t-43.5 41.5t-28 63t-10 79.5q0 44 6.5 78.5t15.5 59.5t19 41t16 22q5 3 20.5 6.5t26.5 2.5q11 12 25.5 19t34.5 7q30 0 51 -21.5t35 -55.5
t20 -77t6 -86q0 -13 -1 -25t-3 -24q24 19 40.5 45t25.5 47q6 18 10.5 37.5t7 38.5t4 35t1.5 26q-10 -4 -20 -4q-8 0 -16.5 3t-15 11t-9.5 22t0 36q4 30 11 49t16 29.5t17.5 14t15.5 3.5q17 -1 24 -36t1 -104q22 11 33 15.5t16 6.5q7 2 23 6t27 5t14.5 0t3.5 -3t-4 -18
t-8 -44t-7 -66t-2 -85q1 -39 6 -64.5t11.5 -41t13.5 -21.5t13 -6q11 0 26 20t26 69z" />
    <glyph glyph-name="o_s.liga" unicode="os" horiz-adv-x="598" 
d="M165 35q46 0 69 67q-3 -1 -10 -1q-36 0 -63 11.5t-46 30.5t-30 43t-15 48q-2 -42 4.5 -78t19 -63t31 -42.5t40.5 -15.5zM144 405q-17 0 -28.5 -11.5t-18 -30t-7.5 -42t3 -48.5q3 -19 13.5 -45.5t27 -50t37.5 -40t46 -16.5q12 0 23 4q7 27 7 65q0 35 -8 73t-22.5 69.5
t-33 52t-39.5 20.5zM466 212q-20 47 -40.5 85.5t-34.5 64.5q-5 -30 -13.5 -70.5t-27.5 -80.5q-1 -4 -5 -12q45 16 85 16q20 0 36 -3zM492 36q3 1 6 11.5t2.5 29.5t-5.5 46t-18 62q-46 9 -76 9q-32 0 -47.5 -6.5t-22.5 -14.5q-1 -4 -5 -8q0 -1 -0.5 -1.5t-0.5 -1.5v-1
q1 -4 2 -12t6 -19.5t16 -24.5t30 -28q29 -22 60.5 -32t46.5 -10q2 0 3.5 0.5t2.5 0.5zM556 164q9 -22 14.5 -42.5t5.5 -37.5q1 -24 -6.5 -40t-19 -25.5t-26.5 -13.5t-29 -4q-50 0 -86.5 14.5t-61 34t-37.5 39.5t-16 32q0 2 -0.5 3t-0.5 3q-5 -4 -11 -8t-11 -7l-4 -2l-4 -2
q-15 -51 -47.5 -81t-78.5 -30q-31 0 -56.5 15t-43.5 41.5t-28 63t-10 79.5q0 44 6.5 78.5t15.5 59.5t19 40.5t17 21.5q4 4 19.5 7.5t26.5 2.5q11 12 25.5 19t35.5 7q29 0 50.5 -21.5t35 -56t19.5 -77t6 -85.5q0 -13 -1 -25.5t-3 -23.5q2 1 6 5q40 37 63 103t31 148h1
q1 8 9.5 13.5t20 9t22.5 5.5t18 2q13 0 13 -4q-2 -11 11 -49.5t39 -95.5q11 -25 21.5 -48t20.5 -45q7 -4 13 -13t-2 -10h-2z" />
    <glyph glyph-name="o_s_r.liga" unicode="osr" horiz-adv-x="847" 
d="M173 34q21 0 39.5 17t29.5 50q-4 -1 -11 -1q-36 0 -63 11.5t-45.5 30.5t-29.5 43t-16 48q-1 -42 5.5 -78t19 -63t31 -42.5t40.5 -15.5zM152 405q-17 0 -28.5 -11.5t-18.5 -30t-8 -42.5t3 -49q3 -19 13.5 -45.5t26.5 -49.5t37 -39.5t46 -16.5q13 0 24 4h1q3 14 4.5 30
t2.5 34q0 35 -8 73.5t-22.5 70t-33 52t-39.5 20.5zM477 211q-20 47 -40.5 85.5t-34.5 64.5q-5 -32 -15 -76.5t-31 -86.5q23 9 43.5 12.5t39.5 3.5q20 0 38 -3zM503 36q3 1 6 11.5t2.5 29t-5.5 45.5t-18 62q-46 9 -76 9q-25 0 -40.5 -5t-23 -11t-10 -11t-2.5 -6q1 -4 2 -12
t6 -19t16 -24.5t30 -28.5q29 -21 59.5 -31t45.5 -10q6 0 8 1zM859 168q2 3 7.5 0.5t3.5 -11.5q0 -1 -1.5 -13t-5 -29.5t-9.5 -37.5t-15.5 -37t-23 -28.5t-32.5 -11.5q-21 0 -36 10t-24.5 35t-14.5 66t-5 102q0 66 3 115t5 72q-13 -5 -25 -11t-19 -10q-2 -34 -7.5 -83.5
t-16 -99.5t-27 -94.5t-41.5 -69.5q-12 -18 -31 -25t-38 -7q-50 0 -86.5 14.5t-61 34t-37.5 39.5t-16 32q0 2 -0.5 4t-0.5 4q-15 -13 -34 -23q-16 -50 -48 -79.5t-78 -29.5q-31 0 -56.5 15t-43.5 41.5t-27.5 63t-9.5 79.5q0 44 6.5 78.5t15.5 59.5t19 41t16 22q5 3 20 6.5
t26 2.5q23 26 61 26q30 0 51 -21.5t34.5 -55.5t20 -77t6.5 -86q-1 -13 -2 -25t-3 -24q27 21 45 51.5t30 66t19 71.5t11 67q1 8 10 13.5t20 9.5t22.5 6t17.5 2q13 0 13 -5q-2 -11 11 -49.5t39 -95.5q11 -24 21.5 -47.5t20.5 -45.5q7 -4 13 -13t-2 -10h-2q11 -24 15 -46
q28 64 42.5 128t18.5 121v5q-10 -4 -20 -4q-8 0 -16 3t-14.5 11t-9.5 22t0 36q3 30 10.5 49t16 29.5t17.5 14t16 3.5q16 -1 23.5 -36t0.5 -104q23 11 33.5 15t15.5 6q8 3 23.5 7t26.5 5t15 0t4 -3t-4 -18t-8.5 -44t-7.5 -66t-2 -85q2 -39 7 -64.5t11.5 -41t13.5 -21.5t13 -6
q11 0 25.5 20t25.5 69z" />
    <glyph glyph-name="p_r.liga" unicode="pr" horiz-adv-x="508" 
d="M98 27q27 0 45.5 30t26.5 84q-12 12 -12 32q0 13 4.5 23t12.5 14v3q1 83 -14.5 133t-40.5 50q-17 0 -30.5 -21t-23 -51t-16.5 -63.5t-11 -57.5q0 -10 -1 -15q-1 -17 -1.5 -34t-1.5 -33q3 -14 8.5 -30.5t13.5 -30.5t18 -23.5t23 -9.5zM526 168q2 3 7.5 0.5t3.5 -11.5
q0 -1 -1.5 -13t-5 -29.5t-9.5 -37.5t-15.5 -37t-23 -28.5t-32.5 -11.5q-21 0 -36 10t-24.5 35t-14.5 66t-5 102q0 66 3 115t5 72q-13 -5 -26 -11t-19 -10q-3 -26 -9 -53t-15.5 -52.5t-24.5 -48t-36 -40.5q-3 -53 -14 -88.5t-28.5 -57t-40 -30.5t-46.5 -9q-18 0 -32 6.5
t-24 17t-16.5 22.5t-11.5 24q1 -48 3.5 -95t4.5 -101t5 -90t6 -57t4 -30.5t-1 -11.5t-12 -1t-22 4t-23 7t-16 7q-3 2 -4 6t-1 17t1 38t2 69t2.5 110.5t1.5 161.5q0 73 -0.5 123.5t-1 84.5t-0.5 53.5v29.5t1 14t3 6q3 4 22.5 8.5t34.5 4.5q12 0 13 -4q1 -3 0 -7.5t-3.5 -15
t-5 -29.5t-4.5 -51q6 22 15 41.5t21 34.5t27 23.5t33 8.5q49 -1 78 -52t29 -162q14 14 25 33t19 40t12.5 42.5t5.5 40.5q-10 -4 -20 -4q-8 0 -16 3t-14.5 11t-9.5 22t0 36q3 30 10.5 49t16 29.5t17.5 14t16 3.5q16 -1 23.5 -36t0.5 -104q23 11 33.5 15t15.5 6q8 3 23.5 7
t26.5 5t15 0t4 -3t-4 -18t-8.5 -44t-7.5 -66t-2 -85q2 -39 7 -64.5t11.5 -41t13.5 -21.5t13 -6q11 0 25.5 20t25.5 69z" />
    <glyph glyph-name="q_r.liga" unicode="qr" horiz-adv-x="511" 
d="M128 45q9 0 17.5 13.5t16 34t14 46.5t11.5 50.5t8.5 45t5.5 31.5q0 6 1 9q-5 20 -11 41.5t-12.5 39t-13 29t-13.5 11.5q-10 0 -20 -12.5t-19 -34.5t-15.5 -51.5t-8.5 -63.5q-2 -33 -2 -67t4 -61t13 -44t24 -17zM244 193q40 40 56.5 82t23.5 96q-3 -1 -8.5 -2t-11.5 -1
q-11 0 -21.5 4.5t-16.5 18.5q-2 -24 -9.5 -73.5t-12.5 -124.5zM538 168q1 3 7 0.5t4 -11.5q0 -1 -1.5 -13t-5 -29.5t-9.5 -37.5t-16 -37t-23.5 -28.5t-32.5 -11.5q-21 0 -35.5 10t-24 35t-14.5 66t-5 102q-1 66 2.5 115t5.5 72q-13 -5 -26 -11t-20 -10q-3 -27 -11 -59.5
t-20.5 -64.5t-28.5 -61t-34 -50q-3 -2 -8 0v-65q1 -57 5.5 -111.5t14 -100t25.5 -79.5t40 -52q2 -17 -15.5 -29t-40.5 -12q-14 0 -26.5 5t-22.5 17q-18 22 -25.5 66t-8.5 97.5t1.5 110t4.5 102.5q1 23 1.5 41.5t1.5 35.5q-6 -29 -13.5 -59t-19 -55t-26.5 -40.5t-36 -15.5
q-15 0 -31 10.5t-28.5 33t-20 59t-6.5 87.5q1 47 8.5 90t22.5 76t37 52.5t52 19.5q23 0 38 -21t25 -50q-5 34 -10 47.5t-3 17.5q2 3 8.5 4.5t14.5 1.5q14 0 28.5 -3.5t22.5 -11.5q0 14 3 35t9.5 40.5t18.5 33t30 13.5q17 -1 24 -36t1 -104q22 11 32.5 15t15.5 6q8 3 24 7
t27 5t14.5 0t3.5 -3t-4 -18t-8 -44t-7 -66t-2 -85q1 -39 6 -64.5t11.5 -41t13.5 -21.5t13 -6q11 0 25.5 20t26.5 69z" />
    <glyph glyph-name="s_r.liga" unicode="sr" horiz-adv-x="525" 
d="M88 364q-4 -29 -12.5 -72t-22.5 -91q20 8 39 10.5t36 2.5q19 0 37 -3q-20 48 -41.5 87.5t-35.5 65.5zM191 36q3 1 6 11.5t2.5 29t-5.5 45.5t-18 62q-23 5 -42 7t-33 2q-20 0 -33 -2.5t-21 -6.5q-4 -12 -8 -24.5t-9 -24.5q6 -19 23.5 -37.5t40 -32t46.5 -22t43 -8.5
q6 0 8 1zM547 168q2 3 7.5 0.5t3.5 -11.5q0 -1 -1.5 -13t-5 -29.5t-9.5 -37.5t-15.5 -37t-23 -28.5t-32.5 -11.5q-21 0 -36 10t-24.5 35t-14.5 66t-5 102q0 66 3 115t5 72q-13 -5 -25 -11t-19 -10q-2 -34 -7.5 -83.5t-16 -99.5t-27 -94.5t-41.5 -69.5q-12 -18 -31 -25
t-38 -7q-38 0 -68 8.5t-52.5 21.5t-38.5 29t-26 30q-10 -18 -21 -34.5t-23 -30.5q-5 -5 -9.5 -2t-2.5 6q22 37 43 84q-2 6 -3 8q-6 26 0.5 39t14.5 23q5 2 8.5 4t8.5 4q15 47 27 99t19 109q1 8 10 13.5t20 9.5t22.5 6t17.5 2q13 0 13 -5q-2 -11 11 -49.5t39 -95.5
q11 -24 21.5 -47.5t20.5 -45.5q7 -4 13 -13t-2 -10h-2q11 -24 15 -46q28 64 42.5 128t18.5 121v5q-10 -4 -20 -4q-8 0 -16 3t-14.5 11t-9.5 22t0 36q3 30 10.5 49t16 29.5t17.5 14t16 3.5q16 -1 23.5 -36t0.5 -104q23 11 33.5 15t15.5 6q8 3 23.5 7t26.5 5t15 0t4 -3t-4 -18
t-8.5 -44t-7.5 -66t-2 -85q2 -39 7 -64.5t11.5 -41t13.5 -21.5t13 -6q11 0 25.5 20t25.5 69z" />
    <glyph glyph-name="t_f.liga" unicode="tf" horiz-adv-x="429" 
d="M109 79q8 0 15 6.5t12.5 16t9.5 21t7 21.5q1 78 5.5 154.5t7.5 139.5l1 5q-23 0 -46 -0.5t-45 -0.5q-1 -32 -2.5 -58.5t-2 -52t-0.5 -52.5t1 -61q1 -30 3.5 -55t6.5 -44t10.5 -29.5t16.5 -10.5zM371 -13q-3 61 -13.5 128.5t-28.5 129t-43.5 112t-58.5 77.5q-3 -43 -5 -89
t-3 -91.5t-0.5 -89.5t2.5 -83q4 -72 16.5 -121t28 -79.5t33 -43.5t32.5 -13q10 0 18 5t14 22t8 49t0 87zM489 476q2 0 1.5 -5.5t-7.5 -7.5q-35 -6 -97.5 -10.5t-134.5 -6.5q32 -14 57 -46t43.5 -74t31 -90t20 -94t10 -87t1.5 -68q-2 -39 -9 -75.5t-22 -65t-40 -45.5t-62 -17
q-34 0 -57.5 22.5t-38.5 61.5t-22 91t-9 110q-9 -27 -24 -48t-39 -21q-27 0 -41.5 19t-21.5 59t-8.5 100.5t-0.5 142.5q0 35 0.5 65t0.5 56q-59 1 -99.5 2.5t-48.5 5.5q-2 2 2.5 8t11.5 13.5t13.5 13t9.5 5.5q29 -6 56.5 -10t54.5 -6v96.5t0.5 62t1.5 34.5t4 14
q4 5 24.5 9.5t37.5 4.5q14 0 16 -5q1 -3 -2 -17.5t-7.5 -41.5t-9.5 -67.5t-8 -94.5q25 -2 48 -2h43q5 98 8.5 145t4.5 59q1 13 14 16.5t30 5.5q10 2 21 3t16 -1q5 -1 0 -18t-15 -67q-5 -29 -9.5 -65t-8.5 -78h27q47 0 88.5 1.5t73 3t51 3t20.5 1.5z" />
    <glyph glyph-name="t_f_t.liga" unicode="tft" horiz-adv-x="559" 
d="M108 79q9 0 16.5 7.5t13 18t9.5 23.5t7 23q1 76 5 150.5t8 136.5v1q-56 -2 -93 0q-1 -31 -2 -57.5t-1.5 -51.5t-0.5 -52t1 -60q1 -30 3.5 -55t6.5 -44t10.5 -29.5t16.5 -10.5zM372 -13q-3 61 -13.5 128.5t-28.5 129t-44 112t-59 77.5q-3 -43 -5 -89t-2.5 -91.5t0 -89.5
t2.5 -83q4 -72 16 -121t28 -79.5t33.5 -43.5t32.5 -13q10 0 18 5t14 22t8 49t0 87zM675 476q1 0 0.5 -5.5t-7.5 -7.5q-26 -5 -73.5 -8.5t-104.5 -6.5q-2 -34 -3 -61t-2 -53t-0.5 -53.5t1.5 -62.5q1 -30 3.5 -55t6.5 -44t10.5 -29.5t15.5 -10.5q12 0 21 12t15 27.5t9.5 30
t4.5 19.5q3 3 7.5 0t5.5 -11q-1 -6 -4.5 -31.5t-12 -53.5t-24 -50t-39.5 -22q-27 0 -41.5 19t-21.5 59t-8.5 100.5t-0.5 142.5v124q-42 -2 -85.5 -3t-85.5 -2q30 -17 53.5 -50t41 -74.5t29 -88t18.5 -91t9.5 -83.5t1.5 -66q-2 -39 -9.5 -75.5t-22.5 -65t-39.5 -45.5
t-61.5 -17q-35 0 -59 23t-38.5 62.5t-21.5 92.5t-9 112q-8 -29 -23.5 -51.5t-40.5 -22.5q-27 0 -41.5 19t-21.5 59t-8.5 100.5t-0.5 142.5v119q-62 1 -103.5 3t-43.5 4t1.5 8.5t9.5 13t12.5 12.5t11.5 8q0 1 2 1q26 -5 54 -8.5t57 -6.5v95.5t0.5 62t1.5 34.5t4 14
q4 5 24.5 9.5t37.5 4.5q14 0 16 -5q2 -7 -9.5 -59t-17.5 -159q17 -1 41 -1.5t52 -1.5q5 97 8 143.5t4 58.5q1 13 14.5 16.5t30.5 5.5q9 2 20.5 3t16.5 -1q5 -1 -0.5 -18t-14.5 -67q-5 -28 -9.5 -64t-8.5 -78q32 0 63 -0.5t58 -0.5h48.5h33.5q0 60 0.5 100t1 64t1.5 35.5
t4 14.5q4 5 24.5 9.5t37.5 4.5q14 0 16 -5q1 -3 -2 -18t-7.5 -42t-9.5 -67.5t-8 -95.5q38 1 71 2t57.5 2.5t39.5 3t16 1.5z" />
    <glyph glyph-name="v_r.liga" unicode="vr" horiz-adv-x="531" 
d="M187 398q0 -12 1 -35t3 -49.5t5 -52t7 -42.5q1 -5 2 -8l2 -6q7 59 3 108.5t-23 84.5zM552 168q1 3 7 0.5t4 -11.5q0 -1 -1.5 -13t-5 -29.5t-9.5 -37.5t-15.5 -37t-23.5 -28.5t-33 -11.5q-21 0 -35.5 10t-24 35t-14.5 66t-5 102q-1 66 2.5 115t5.5 72q-13 -5 -26 -11
t-20 -10q-3 -31 -10.5 -63.5t-21.5 -62t-35.5 -53.5t-53.5 -37q-1 0 -2.5 -1t-4.5 -2q-3 -12 -10.5 -39.5t-18.5 -55.5t-26 -49.5t-33 -21.5q-24 0 -42.5 14t-32 37t-23 52.5t-16 59.5t-10.5 58l-7 49q-8 51 -8.5 89t-2.5 48q-1 11 6 15.5t24 8.5q6 2 13.5 3t13.5 1
q8 0 11 -3q2 -3 0.5 -17t-4 -36t-4 -51t1.5 -61q3 -43 12 -79.5t21 -63t26 -41.5t27 -15q9 0 17 9.5t14.5 23.5t12 31.5t8.5 33.5q-3 1 -9 7q-7 9 -13 27t-9.5 42t-4 52.5t2.5 57.5q4 33 7.5 47.5t6.5 19.5q2 4 8.5 8.5t15 8.5t17.5 6.5t16 2.5q11 0 14 -6q5 -12 5.5 -38.5
t-2.5 -61.5t-8.5 -74t-11.5 -75q23 14 41.5 35t31.5 46t20 52.5t8 53.5q-10 -4 -20 -4q-8 0 -16.5 3t-15 11t-9.5 22t0 36q4 30 11 49t16 29.5t18 14t16 3.5q16 -1 23 -36t1 -104q22 11 33 15t16 6q7 3 23 7t27 5t14.5 0t3.5 -3t-4 -18t-8 -44t-7 -66t-2 -85q1 -39 6 -64.5
t11.5 -41t13.5 -21.5t13 -6q12 0 26.5 20t25.5 69z" />
    <glyph glyph-name="w_r.liga" unicode="wr" horiz-adv-x="640" 
d="M296 397q0 -13 1 -36t3 -49t5 -51t7 -42q7 -26 15 -32t15 -5v4q1 67 -9.5 120.5t-36.5 90.5zM660 168q1 3 6.5 0.5t3.5 -11.5q0 -1 -1 -13t-4.5 -29.5t-9.5 -37.5t-16 -37t-23.5 -28.5t-32.5 -11.5q-21 0 -36 10t-24.5 35t-14 66t-5.5 102q0 66 3 115t5 72
q-13 -5 -26 -11t-19 -10q-3 -27 -9 -56t-17.5 -56t-28 -50.5t-40.5 -39.5q-1 -27 -5.5 -59t-14 -59.5t-24 -46t-36.5 -18.5q-21 0 -37.5 20.5t-29 50.5t-21.5 64.5t-15 62.5q-4 17 -7 33t-6 31q-1 -15 -3 -40t-6 -53.5t-10 -57.5t-16 -52.5t-23.5 -38t-31.5 -14.5
q-24 0 -39.5 14t-24.5 37t-13 51.5t-4.5 58.5t0 58t0.5 49q1 51 2 87t0 46q-1 11 6.5 16t27.5 8q8 1 17 2t17 1q9 0 10 -2q2 -3 -0.5 -10.5t-7.5 -24t-10.5 -46t-9.5 -77.5q-3 -42 -1 -78.5t8 -63t16 -41.5t23 -15q11 0 19.5 11t15.5 30t12 43.5t8 52.5q3 24 4 42t1.5 33.5
t1 29.5t0.5 29q1 4 8.5 10t17.5 10.5t19.5 7.5t13.5 1q2 -1 1.5 -7t-1 -20t-0.5 -37.5t3 -61.5q3 -29 9.5 -60.5t16.5 -57.5t21.5 -42.5t24.5 -16.5q11 0 18.5 8.5t12.5 22t8 30t4 33.5q-10 -4 -18 -4h-1q-12 0 -22 10q-7 9 -13 27t-9.5 42t-4 52.5t2.5 57.5q5 42 9.5 55.5
t8.5 14.5q8 8 23 14t27 6q11 0 14 -6q7 -11 10.5 -35t5 -55.5t1 -68t-2.5 -72.5q15 13 27.5 34.5t22 45.5t15 48.5t6.5 43.5q-10 -4 -20 -4q-8 0 -16 3t-14.5 11t-9.5 22t0 36q3 30 10.5 49t16 29.5t17.5 14t16 3.5q16 -1 23.5 -36t0.5 -104q23 11 33.5 15t15.5 6
q8 3 23.5 7t26.5 5t15 0t4 -3t-4 -18t-8 -44t-7 -66t-2 -85q1 -39 6 -64.5t11.5 -41t13.5 -21.5t13 -6q11 0 25.5 20t26.5 69z" />
    <glyph glyph-name="y_r.liga" unicode="yr" horiz-adv-x="502" 
d="M235 197q35 35 53 79.5t23 94.5q-7 -3 -20 -3q-14 0 -27.5 8.5t-15.5 35.5q-3 -16 -8.5 -60.5t-4.5 -130.5v-24zM72 -325q32 0 51 25t28.5 64t13 85t4.5 88v11t1 12q-28 -7 -58 -27q-23 -16 -39.5 -41t-26 -53.5t-12.5 -57.5t0 -52.5t13 -38.5t25 -15zM525 168q1 3 7 0.5
t4 -11.5q0 -1 -1.5 -13t-5 -29.5t-9.5 -37.5t-15.5 -37t-23.5 -28.5t-33 -11.5q-21 0 -35.5 10t-24 35t-14.5 66t-5 102q-1 66 2.5 115t5.5 72q-13 -5 -26 -11t-20 -10q-3 -28 -11 -60.5t-20 -64t-27.5 -60t-35.5 -50.5v-1q1 -42 2.5 -86t1.5 -71q38 -5 66 -17t39 -23
q5 -6 9 -15.5t5.5 -18.5t0.5 -15t-6 -4q-29 26 -56.5 43.5t-56.5 24.5q0 -13 0.5 -25.5t0.5 -25.5q1 -77 -6.5 -128t-24.5 -81t-43.5 -42.5t-63.5 -12.5q-33 0 -57 14.5t-38.5 38t-20 53t-2 61t16 61t33.5 52.5q29 31 63.5 45t69.5 18q2 40 2.5 78t1.5 74q-5 -30 -12 -55.5
t-16.5 -44.5t-21.5 -30t-28 -11q-24 0 -39.5 14t-24.5 37t-13 51.5t-4.5 58.5t0 58t0.5 49q1 51 2 87t0 46q-1 11 6.5 16t27.5 8q8 1 17 2t17 1q9 0 10 -2q2 -3 -0.5 -10.5t-7.5 -24t-10.5 -46t-9.5 -77.5q-3 -42 -1 -77.5t8 -61t16 -39.5t23 -14q14 0 23.5 14.5t16 37
t11 50t6.5 54t3 48.5t2 34q-1 29 -1 51v31q-1 16 8 20t27 8q11 2 22.5 3.5t16.5 -1.5v13q4 30 11 49t16 29.5t18 14t16 3.5q16 -1 23 -36t1 -104q23 11 33.5 15t15.5 6q7 3 23 7t27 5t14.5 0t3.5 -3t-4 -18t-8 -44t-7 -66t-2 -85q1 -39 6 -64.5t11.5 -41t13.5 -21.5t13 -6
q12 0 26.5 20t25.5 69z" />
    <glyph glyph-name="z_r.liga" unicode="zr" horiz-adv-x="550" 
d="M80 81q45 6 77 6q33 0 56 -5t37.5 -11.5t22.5 -13.5t12 -10q5 -4 9 -11.5t6.5 -15t2.5 -13t-4 -7.5q-29 15 -57 21t-54 6t-49 -4t-42 -9.5t-32.5 -9.5t-19.5 -4t-16.5 7t-20 15t-16 16t-4.5 11q26 35 61 81t71 94t69.5 93t57.5 77q-2 0 -4 -1q-48 -8 -83 -19t-67 -11
q-12 0 -26 3q-12 2 -19.5 12t-10.5 21.5t-2 20t5 8.5q8 -2 38 -6t68 -4q28 0 56.5 2t54.5 9q9 -5 16 -16.5t5 -16.5l-1 -1q-2 -4 -15.5 -26t-32.5 -53t-42 -67t-44.5 -69.5t-38 -60t-24.5 -38.5zM569 168q1 3 7 0.5t4 -11.5q0 -1 -1.5 -13t-5 -29.5t-9.5 -37.5t-15.5 -37
t-23.5 -28.5t-33 -11.5q-21 0 -35.5 10t-24 35t-14.5 66t-5 102q-1 66 2.5 115t5.5 72q-13 -5 -26 -11t-20 -10q-3 -28 -11 -60.5t-20 -64t-28 -60.5t-35 -50q-6 -3 -11.5 3t-5.5 11q-2 11 2 19.5t7 12.5q8 9 26.5 29.5t34.5 60.5q7 19 13 42.5t8 48.5q-7 -3 -20 -3
q-8 0 -17 3t-15.5 10.5t-10 21.5t-0.5 36q4 30 11 49t16 29.5t17.5 14t15.5 3.5q17 -1 24 -36t1 -104q22 11 33 15t16 6q7 3 23 7t27 5t14.5 0t3.5 -3t-4 -18t-8 -44t-7 -66t-2 -85q1 -39 6 -64.5t11.5 -41t13.5 -21.5t13 -6q11 0 25.5 20t26.5 69z" />
    <glyph glyph-name=".notdef" horiz-adv-x="140" 
 />
    <glyph glyph-name="uni0000" horiz-adv-x="0" 
 />
    <glyph glyph-name="uni0000" horiz-adv-x="0" 
 />
    <glyph glyph-name="uni000D" unicode="&#xd;" horiz-adv-x="250" 
 />
    <glyph glyph-name="space" unicode=" " horiz-adv-x="165" 
 />
    <glyph glyph-name="exclam" unicode="!" horiz-adv-x="231" 
d="M92 112q-1 7 -2.5 37.5t-2.5 72.5t-2.5 88t-2.5 85l-2 90t-2 82.5t-2 63.5t-2 33q-2 13 10 22.5t32 14.5q10 2 21 4t19 2q11 0 11 -6q-3 -13 -9 -37.5t-11.5 -63t-10 -90.5t-4.5 -120q0 -102 3.5 -159.5t6.5 -86t4.5 -36t-0.5 -11.5q-1 -2 -9.5 -1t-18 3.5t-17.5 6
t-9 6.5zM121 46q23 0 38.5 -15.5t15.5 -37.5q0 -23 -15.5 -38t-38.5 -15q-22 0 -37.5 15t-15.5 38q0 22 15.5 37.5t37.5 15.5z" />
    <glyph glyph-name="quotedbl" unicode="&#x22;" horiz-adv-x="304" 
d="M221 610q-10 -13 -23 -24.5t-25 -20t-21.5 -13.5t-14.5 -6q-5 -2 -10.5 4.5t0.5 11.5q8 5 22 22.5t27 40.5q17 30 23.5 55t10.5 27q5 2 12.5 -1.5t14 -9t12 -12t5.5 -11.5q1 -10 -6 -24t-27 -39zM163 673q1 -10 -6 -24t-27 -39q-10 -13 -23 -24.5t-25 -20t-21.5 -13.5
t-14.5 -6t-10.5 5.5t0.5 10.5q8 5 22 22.5t27 40.5q17 30 23.5 55t10.5 27q5 2 12.5 -1.5t14 -9t12 -12t5.5 -11.5z" />
    <glyph glyph-name="numbersign" unicode="#" horiz-adv-x="654" 
d="M365 324q7 17 13.5 35t11.5 35h-6.5t-7.5 -1q-19 -1 -37.5 -3t-38.5 -5q-5 -16 -9.5 -32t-9.5 -33l72 3q4 1 12 1zM572 439q7 -4 13 -11t10 -14.5t5 -13.5t-2 -8q-14 2 -55.5 4.5t-118.5 -0.5q-1 -2 -1 -3t-1 -3q-5 -15 -9.5 -31t-9.5 -32q64 5 102.5 9t43.5 2
q6 -4 12.5 -11t10.5 -14.5t5 -14t-3 -8.5q-13 2 -56.5 5.5t-122.5 -0.5q-9 -35 -16 -68t-11.5 -59.5t-7.5 -44.5t-5 -24q-3 -1 -10.5 2.5t-15.5 11t-14.5 17t-7.5 19.5q-2 13 12 52.5t34 90.5q-20 -2 -40.5 -4t-40.5 -4q-8 -34 -14 -65t-10.5 -55.5t-7.5 -41.5t-5 -23
q-3 -1 -10.5 2.5t-15.5 11t-14.5 17t-7.5 19.5q-2 11 10.5 46.5t29.5 81.5q-31 -5 -59.5 -11t-51 -10.5t-38 -8t-20.5 -4.5q-3 3 -2 11.5t5 18.5t10 19.5t15 14.5q6 3 20.5 5t35.5 3t47 2t54 2q6 15 12 30.5t11 30.5q-34 -5 -65 -11t-55.5 -11t-41 -9t-22.5 -5q-3 3 -2 11.5
t4.5 18.5t10 19.5t14.5 14.5q6 3 22 5t38.5 3.5t51 2t58.5 1.5q24 75 37 119.5t18 49.5q8 5 18.5 8t20.5 3q6 0 10.5 -1.5t4.5 -4.5q-7 -12 -27 -52.5t-48 -120.5q16 1 32 1.5t31 2.5q7 0 13 0.5t12 0.5q23 72 35.5 115t17.5 48q8 5 18.5 8t20.5 3q6 0 10.5 -1.5t4.5 -4.5
q-7 -11 -26.5 -50.5t-46.5 -114.5q61 5 96.5 8.5t40.5 1.5z" />
    <glyph glyph-name="dollar" unicode="$" horiz-adv-x="442" 
d="M234 148q21 2 41.5 7.5t36 13t25 15t9.5 13.5q0 11 -24 25t-89 25v-76q1 -6 1 -12v-11zM135 427q-2 -49 17 -81t57 -52q1 26 1.5 51t0.5 51q-1 65 -1.5 118.5t-1.5 88.5q-15 -16 -28 -37.5t-22.5 -45t-15.5 -47.5t-7 -46zM263 274q64 -17 89.5 -39.5t25.5 -42.5
q0 -9 -11.5 -22.5t-31 -26.5t-45 -23.5t-54.5 -14.5q2 -23 3 -39t-1 -19q-1 -2 -8 0t-15 7t-14.5 12t-7.5 14q2 8 3 24q-28 2 -48 9t-33 16.5t-20 20.5t-10 20q-1 4 4 12.5t13.5 16.5t19 13.5t20.5 4.5q3 -1 3.5 -10.5t4.5 -20.5t15 -22t35 -15q2 22 3.5 48t3.5 55
q-69 14 -105 59.5t-24 114.5q5 26 17 54t29 55.5t38.5 51.5t44.5 41q0 10 -0.5 16.5t-0.5 10.5t3.5 12t8.5 16.5t11.5 14.5t13.5 7q2 -1 0.5 -16t-3.5 -41q23 10 41 10q17 0 33.5 -14t29.5 -37t20.5 -52.5t6.5 -60.5q0 -19 -9 -33t-21 -22t-24 -11t-19 0q-2 1 2 6.5t9.5 16
t10.5 25.5t5 35q1 20 -2.5 42t-10.5 40.5t-17.5 30.5t-23.5 12q-16 0 -32 -8q-3 -29 -5 -65.5t-2 -77.5v-201q8 -3 15.5 -5.5t15.5 -4.5z" />
    <glyph glyph-name="percent" unicode="%" horiz-adv-x="592" 
d="M469 146q0 23 -3.5 50.5t-12 51.5t-21.5 40.5t-32 16.5q-17 0 -32 -13t-26.5 -36t-18.5 -54t-8 -67q-1 -62 21 -99.5t53 -37.5q17 0 31.5 12.5t25 33t16.5 47t7 55.5zM92 513q-2 -63 20 -100t54 -37q17 0 31 12.5t24.5 33t16.5 47t7 55.5q1 23 -3 50.5t-12 51.5
t-21.5 40.5t-31.5 16.5q-17 0 -32.5 -13t-27 -36t-18.5 -54t-7 -67zM418 691q-4 -7 -18 -43t-33 -86t-39 -106t-35 -104q-10 -32 -22.5 -71.5t-25.5 -80.5t-25.5 -80.5t-22.5 -71.5t-16.5 -53.5t-7.5 -26.5q-7 -3 -19 6t-10 23q1 5 8.5 26.5t19 54t26.5 71.5t29.5 78
t27.5 75.5t21 62.5q14 41 31 93.5t32 100.5t27 84t15 43q2 4 10.5 6.5t16.5 2.5q10 0 10 -4zM401 317q25 0 43.5 -16.5t31 -42t18.5 -57t5 -60.5q0 -34 -8.5 -60.5t-20 -46t-24.5 -31t-24 -15.5q-15 -5 -33 -5q-29 0 -49 13.5t-32.5 35t-18.5 47.5t-7 51q-1 32 6.5 65.5
t22.5 60.5t38 44t52 17zM199 366q-15 -5 -33 -5q-29 0 -49 13.5t-33 34.5t-18.5 47.5t-6.5 51.5q-1 32 6.5 65.5t22.5 60.5t38 44t52 17q25 0 43.5 -16.5t30.5 -42t18 -57t6 -60.5q0 -34 -8.5 -60.5t-20 -46t-24.5 -31t-24 -15.5z" />
    <glyph glyph-name="ampersand" unicode="&#x26;" horiz-adv-x="631" 
d="M375 350q33 6 60 6q34 0 59.5 -7t42 -16t25.5 -17t10 -10q2 -3 2 -7.5t-4 -3.5q-18 6 -35.5 8.5t-34.5 2.5q-27 0 -51.5 -5.5t-45.5 -13.5q35 -4 57.5 -21t34.5 -41t15 -52t0 -55q-3 -24 -15 -53t-31.5 -53t-44.5 -38.5t-54 -9.5q-70 18 -120 53.5t-83.5 78.5t-53 90.5
t-28 90.5t-8.5 77.5t5 51.5q6 20 19.5 37.5t34.5 29.5t48 18t60 4q-39 12 -63 29t-37 34t-17.5 33t-3.5 27q1 14 8 27.5t22.5 25t40.5 18.5t61 7q68 0 100 -29.5t43 -74.5q-2 41 -6 65t-2 32q0 2 7.5 5t17.5 6t20.5 5t17.5 2q10 0 10 -5q-1 -11 -7 -47.5t-8 -87.5
q-1 -35 0 -59.5t2 -40.5l1.5 -24t-0.5 -10q-2 -2 -11 0t-19.5 6t-19 8t-9.5 5q-2 2 -1 10t2 21.5t1 31t-4 39.5q-9 50 -35 80t-71 30q-3 0 -6 -0.5t-6 -0.5q-29 -2 -44 -19.5t-18.5 -40t4.5 -45t26 -36.5q32 -24 56.5 -27t35.5 -2q2 -3 4 -14.5t3 -24.5t0 -24.5t-6 -14.5
q-31 20 -65 29.5t-63 9.5q-43 0 -65 -16q-14 -10 -22 -28.5t-7 -46.5t13.5 -67.5t39.5 -91.5t66 -87t78 -57t71 -31.5t45 -9.5q6 0 14 3t13.5 15t7.5 35t-3 63q-4 35 -13.5 59.5t-19.5 41t-19.5 26.5t-14.5 16q-32 -14 -52 -28.5t-23 -16.5q-4 0 -12 7t-16.5 16t-14.5 18.5
t-6 14.5t9 13t24 17t36 17.5t46 13.5z" />
    <glyph glyph-name="quotesingle" unicode="'" horiz-adv-x="193" 
d="M108 708q5 2 12.5 -1t14.5 -8.5t12 -12t6 -11.5q1 -10 -6 -24.5t-27 -39.5q-10 -13 -23 -24t-25 -19.5t-22 -13.5t-15 -6q-5 -2 -10 4.5t1 10.5q7 5 21.5 23t27.5 41q8 15 14 29t9.5 25.5t6 18.5t3.5 8z" />
    <glyph glyph-name="parenleft" unicode="(" horiz-adv-x="226" 
d="M186 707q-16 -21 -35.5 -55.5t-35.5 -81t-27 -104t-11 -126.5v-44q0 -69 11 -127t27 -104.5t35.5 -80.5t35.5 -56q2 -2 -6.5 -2.5t-11.5 1.5t-22.5 24t-42 67t-41 113.5t-18.5 164.5v43q0 96 18.5 164.5t41 113.5t42 67t22.5 24q3 3 11.5 2.5t6.5 -3.5z" />
    <glyph glyph-name="parenright" unicode=")" horiz-adv-x="233" 
d="M61 721q2 -2 22 -24t42.5 -67t41 -113.5t18.5 -164.5v-43q0 -96 -18.5 -164.5t-41 -113.5t-42.5 -67t-22 -24q-4 -3 -12 -2.5t-7 3.5q17 22 36 56t35.5 80.5t27 104t10.5 126.5l1 22l-1 22q0 69 -10.5 127t-27 104.5t-35.5 80.5t-36 56q-1 2 7 2.5t12 -1.5z" />
    <glyph glyph-name="asterisk" unicode="*" horiz-adv-x="269" 
d="M145 665l39 -48l-26 -15l-24 57h-1l-26 -57l-23 14l38 50v1l-60 -8v27l60 -7l-38 50l24 14l25 -56h1l25 56l24 -13l-38 -51v-1l61 8v-27l-61 7v-1z" />
    <glyph glyph-name="plus" unicode="+" horiz-adv-x="459" 
d="M373 340q6 -2 11 -9t8 -14.5t3 -13.5t-3 -8q-7 1 -24.5 2.5t-39 3t-45.5 2.5t-44 1q0 -44 1.5 -73t3 -47.5t3.5 -28.5t3 -16q0 -4 -11 -4q-10 0 -21 4t-15 13q-3 7 -3.5 18t0.5 28.5t2.5 43.5t2.5 62q-21 0 -37.5 -0.5t-31 -1t-28.5 -2t-31 -3.5q-3 0 -7.5 6t-8 13.5
t-5 14.5t1.5 9q4 2 14 1.5t27.5 -2t43.5 -3t62 -1.5q0 20 -0.5 41t-1 40t-0.5 33t1 18q3 10 16 16t24 6q10 0 12 -5q-3 -12 -9 -51.5t-8 -96.5q60 2 93.5 5t40.5 -1z" />
    <glyph glyph-name="comma" unicode="," horiz-adv-x="192" 
d="M58 50q2 13 14.5 18.5t26.5 5.5q12 0 21 -3.5t9 -8.5q-4 -34 -16.5 -61.5t-28 -46.5t-32.5 -29t-31 -9q-5 0 -12.5 4t-4.5 7q13 7 22 20.5t15.5 30t10.5 35.5t6 37z" />
    <glyph glyph-name="hyphen" unicode="-" horiz-adv-x="454" 
d="M342 281q6 -3 11 -9.5t8 -14t3.5 -14t-3.5 -8.5q-12 2 -39.5 4.5t-59.5 2.5q-38 0 -76 -3t-76 -8q-2 0 -6.5 5.5t-8.5 13t-5.5 14.5t1.5 10q2 2 12 2q15 0 46.5 -3t77.5 -1q28 1 46.5 3t31 3.5t20 2.5t11.5 1t6 -1z" />
    <glyph glyph-name="period" unicode="." horiz-adv-x="198" 
d="M150 52q0 -23 -15.5 -38.5t-37.5 -15.5t-37.5 15.5t-15.5 38.5q0 22 15.5 37.5t37.5 15.5t37.5 -15.5t15.5 -37.5z" />
    <glyph glyph-name="slash" unicode="/" horiz-adv-x="196" 
d="M220 707q2 5 10.5 7.5t16.5 2.5q10 0 10 -5q-4 -7 -20 -45.5t-36.5 -92.5t-42 -114.5t-38.5 -112.5q-11 -35 -25.5 -77.5t-29 -86.5t-28.5 -86.5t-25.5 -77t-19 -57.5t-8.5 -29q-3 -2 -8.5 0t-10 6.5t-7.5 11t-2 13.5q1 5 9.5 28.5t21.5 58.5t29 77t32 84.5t30.5 82
t24.5 67.5q10 30 22 65.5t24.5 72t24 71.5t21 63.5t16.5 48t9 24.5z" />
    <glyph glyph-name="zero" unicode="0" horiz-adv-x="547" 
d="M276 19q36 0 65 25.5t49.5 68.5t31.5 99.5t11 117.5q0 49 -10 108t-29 110t-48.5 85.5t-68.5 34.5q-36 0 -67.5 -28t-54 -76.5t-35 -114.5t-11.5 -141q1 -66 14.5 -119.5t36.5 -91t53 -58t63 -20.5zM499 320q1 -72 -14.5 -128t-39 -96.5t-50.5 -65.5t-49 -33
q-15 -5 -33 -7.5t-38 -2.5q-17 0 -32.5 1.5t-28.5 5.5q-27 8 -56 30t-53.5 59.5t-42.5 91t-23 123.5q-4 68 9.5 138t44 127t77 93.5t108.5 36.5q53 0 93.5 -35t68.5 -89.5t43 -120.5t16 -128z" />
    <glyph glyph-name="one" unicode="1" horiz-adv-x="129" 
d="M40 663q1 7 10 12t20.5 8.5t23 5t17.5 1.5q12 0 11 -5q-4 -12 -11.5 -46.5t-16.5 -110.5q-9 -75 -12.5 -162t3.5 -196q3 -53 9.5 -86t12.5 -52t10.5 -27t2.5 -11q-4 -6 -25 -6q-16 0 -33.5 6.5t-25.5 25.5q-4 11 -6 33t-2 51.5t1 63t3 66.5t3.5 62.5t2.5 50.5
q2 51 2.5 90t1 67.5t1 48t1.5 32.5q-6 -12 -16 -25t-20 -24t-17.5 -19t-8.5 -8q-4 -3 -8 1t-1 9q4 5 15.5 21t22.5 36q6 12 11.5 25.5t9.5 26t6 22.5t2 13z" />
    <glyph glyph-name="two" unicode="2" horiz-adv-x="517" 
d="M440 67q16 -5 24 -18t10.5 -26t1.5 -23t-3 -10q-4 0 -21 6t-44 13.5t-62 13.5t-74 7q-22 0 -45.5 -2t-46.5 -7.5t-43.5 -13t-35.5 -17.5q-4 -2 -12 3.5t-16.5 13.5t-15.5 16t-9 11t3.5 8.5t21.5 17.5t42.5 34.5t65.5 59.5q36 35 71.5 73.5t65 78.5t49.5 81t25 81
q4 33 0.5 70t-18 67.5t-41 51t-67.5 20.5q-36 0 -74.5 -26.5t-64 -71.5t-31 -106t24.5 -130q2 -3 -2 -5t-11 -2q-28 0 -46 12t-23 40q-1 9 0 35t8.5 60t22 71.5t40.5 68.5t65 51.5t94 20.5q65 0 104 -28t58.5 -69.5t22.5 -89t-5 -86.5q-6 -29 -27.5 -73.5t-61 -96
t-98.5 -106t-141 -104.5q48 20 102.5 29.5t105.5 9.5q66 0 111 -14z" />
    <glyph glyph-name="three" unicode="3" horiz-adv-x="469" 
d="M271 269q28 0 55 -10t48.5 -28t35 -43.5t13.5 -55.5q0 -34 -16 -61t-43.5 -46t-65 -29t-79.5 -10t-80 13.5t-67 37t-46 55t-17 67.5q1 12 8.5 20.5t17.5 14.5t20.5 9t17.5 3q9 0 9 -4q0 -2 -1 -17.5t1.5 -37t9 -46.5t22 -45.5t40.5 -34.5t64 -14q43 0 71 12t44.5 31
t23 41t6.5 43q0 24 -8.5 46t-23.5 38.5t-35.5 26.5t-45.5 10q-30 0 -48 -12t-26 -17q-4 -3 -12 5t-15.5 19.5t-13 22.5t-3.5 15t10.5 6t22.5 4t32.5 6t38.5 11q51 17 85.5 58.5t42.5 101.5q5 33 -1 68.5t-22 65t-43.5 49t-66.5 19.5t-77 -23.5t-61.5 -67.5t-25.5 -106
t32 -140q-4 -7 -17 -7q-11 0 -24.5 3t-25.5 9.5t-20 16t-9 21.5q0 6 1 31t8 60t21.5 73.5t40 71.5t64.5 54.5t94 21.5q57 0 94 -22t58 -56t28.5 -75.5t4.5 -80.5q-5 -64 -41 -116t-105 -76z" />
    <glyph glyph-name="four" unicode="4" horiz-adv-x="483" 
d="M279 617q-15 -28 -35 -64q-17 -31 -41 -73.5t-54 -95.5q-21 -38 -36 -66.5t-26 -51.5q36 3 73 3q31 0 60.5 -2t55.5 -5v53q0 50 1 98t1.5 89t0.5 71.5v43.5zM382 245q14 -5 21.5 -13t3.5 -11q-5 1 -28 4.5t-58 5.5q2 -22 3 -48q4 -56 10.5 -90.5t13 -54t10.5 -27.5t3 -11
t-10.5 -6.5t-22.5 -3.5q-10 0 -20 3t-19 11q-19 19 -18 73.5t4 155.5q-19 1 -38.5 1t-40.5 -2q-63 -4 -95.5 -14t-43.5 -16q-7 -12 -12 -12t-16.5 7.5t-22.5 17t-18.5 18.5t-4.5 12q16 12 39.5 43.5t72.5 94.5q17 21 36 49t38 58.5t36.5 60.5t31.5 54.5t22.5 40t9.5 16.5
q1 2 9.5 5t19.5 6t23 5t21 2q16 0 14 -6q-1 -12 -10.5 -54.5t-15.5 -126.5q-5 -65 -8 -119.5t-2 -116.5q23 -4 39 -7t23 -5z" />
    <glyph glyph-name="five" unicode="5" horiz-adv-x="421" 
d="M152 487q88 0 137.5 -64t49.5 -179q0 -54 -14 -101t-39.5 -82t-62.5 -55t-83 -20q-55 0 -91 20.5t-56 47.5t-28 54.5t-8 42.5q0 14 6.5 24.5t16.5 18.5t22 12t23 4q10 0 14 -2q2 -2 -1 -7t-6.5 -15.5t-5.5 -27.5t2 -41q2 -13 9 -32t20.5 -37t34 -30.5t48.5 -12.5
q31 0 55.5 20.5t41 54t26 77.5t10.5 91q1 46 -8.5 85.5t-26.5 68t-40 45t-50 16.5q-22 0 -41.5 -12.5t-34.5 -29t-24.5 -34t-12.5 -27.5q-1 -4 -11 0.5t-22 13t-22.5 18.5t-13.5 16q-1 3 0.5 8t4.5 15.5t5.5 30.5t2.5 53q0 36 -3.5 66t-7 51.5t-6.5 34.5t-2 16t7 3
q14 0 50.5 -8.5t83.5 -9.5q69 -1 109.5 2t61.5 7.5t29 8t12 4.5q3 -1 3.5 -11t-4 -23t-15 -26t-31.5 -19q-9 -3 -38 -3q-21 0 -49 2t-55 6t-51 10t-38 15q-3 -21 -4 -52.5t-1.5 -65t0.5 -64.5t3 -51q17 30 47 54.5t72 24.5z" />
    <glyph glyph-name="six" unicode="6" horiz-adv-x="460" 
d="M204 6q33 0 60.5 19t47.5 52t32 76.5t13 91.5q1 57 -11.5 100.5t-33 72.5t-46 43.5t-51.5 14.5q-29 0 -51.5 -13t-38.5 -31t-27 -38t-17 -34q-2 -3 -9.5 2t-15.5 13q-4 -20 -6.5 -40.5t-2.5 -43.5q-1 -56 10 -107.5t32 -91t50.5 -63t64.5 -23.5zM218 491q36 0 72 -13.5
t65 -42.5t47 -76t18 -113q0 -52 -15.5 -99t-44 -82.5t-68.5 -56.5t-89 -21q-42 0 -82 17.5t-70.5 54.5t-49 94t-17.5 136q1 73 24.5 140t63.5 120.5t93 90.5t112 50q19 2 28 -5.5t7 -9.5q-11 0 -41.5 -14.5t-66.5 -43.5t-72 -74.5t-59 -108.5q19 21 53.5 39t91.5 18z" />
    <glyph glyph-name="seven" unicode="7" horiz-adv-x="343" 
d="M150 -5q-1 -6 -17 -6q-9 0 -19.5 2.5t-20.5 8t-17 13t-8 17.5q-1 14 7 46t22.5 75t33.5 93.5t39 101.5q22 56 40 100.5t33 81t27.5 65.5t23.5 54q-15 -10 -41 -19.5t-56.5 -17t-63 -11.5t-59.5 -4q-12 0 -23 1t-20 3q-21 5 -34.5 19t-20.5 29t-7 27.5t6 15.5
q42 -20 82 -26.5t85 -6.5q24 0 50 1.5t49.5 4.5t41 7t23.5 10q4 4 21 7t32 3q11 0 18 -2.5t5 -7.5q-13 -16 -32.5 -44.5t-43.5 -73.5t-50 -107.5t-51 -145.5q-24 -81 -35.5 -136.5t-15.5 -92.5t-4 -56.5v-28.5z" />
    <glyph glyph-name="eight" unicode="8" horiz-adv-x="522" 
d="M427 136q2 22 -6 45t-25.5 42.5t-46 32t-69.5 12.5q-32 0 -59.5 -9.5t-48 -27t-33 -41t-13.5 -51.5q-1 -25 7 -49t25.5 -43t45 -30.5t65.5 -11.5q33 0 61 10.5t49 28.5t33.5 41.5t14.5 50.5zM434 480q2 29 -5 63.5t-24 64.5t-44.5 50t-66.5 20q-36 0 -69.5 -17t-59 -46.5
t-41 -67.5t-15.5 -80q0 -85 40.5 -126t115.5 -41q38 0 68 14.5t52 39.5t34.5 57.5t14.5 68.5zM297 693q53 0 91.5 -20.5t64 -52.5t37 -71t9.5 -75q-2 -43 -20 -76.5t-42.5 -57.5t-52 -38.5t-48.5 -19.5q34 -1 63.5 -13.5t50.5 -33t33 -46t11 -52.5q-1 -25 -14.5 -51.5
t-41.5 -49t-70 -37t-99 -14.5t-98 13t-67.5 34.5t-38.5 48t-12 53.5t11.5 52t31 45t46 33t57.5 17q-27 4 -55 17.5t-51 36.5t-38.5 54.5t-15.5 71.5t16.5 81t49.5 74.5t81.5 55t110.5 21.5z" />
    <glyph glyph-name="nine" unicode="9" horiz-adv-x="493" 
d="M401 387q2 56 -9.5 107t-32.5 90.5t-50 63t-64 23.5q-33 0 -60.5 -19t-48 -52t-32 -76.5t-12.5 -91.5q-1 -57 11 -100.5t32.5 -72t46 -43t51.5 -14.5q29 0 51.5 12.5t39 30.5t27.5 38t18 35q3 0 10 -5t13 -11q4 20 6.5 41t2.5 44zM245 690q42 0 82 -17.5t70.5 -54.5
t49 -94t17.5 -136q-1 -73 -24.5 -140t-63.5 -120.5t-93 -90.5t-112 -50q-19 -2 -28 5.5t-7 10.5q11 0 41.5 14t66.5 43.5t72 74.5t59 108q-19 -20 -53.5 -38.5t-91.5 -18.5q-36 0 -72 13.5t-65 42.5t-47 76t-18 113q0 52 15.5 99t44 82.5t68.5 56.5t89 21z" />
    <glyph glyph-name="colon" unicode=":" horiz-adv-x="228" 
d="M113 336q22 0 37.5 -15.5t15.5 -37.5q0 -23 -15.5 -38.5t-37.5 -15.5q-23 0 -38 15.5t-15 38.5q0 22 15 37.5t38 15.5zM113 104q22 0 37.5 -15.5t15.5 -38.5q0 -22 -15.5 -37.5t-37.5 -15.5q-23 0 -38 15.5t-15 37.5q0 23 15 38.5t38 15.5z" />
    <glyph glyph-name="semicolon" unicode=";" horiz-adv-x="196" 
d="M87 337q23 0 38.5 -15.5t15.5 -37.5q0 -23 -15.5 -38t-38.5 -15q-22 0 -37.5 15t-15.5 38q0 22 15.5 37.5t37.5 15.5zM56 50q2 13 15 18.5t27 5.5q12 0 21 -3.5t8 -8.5q-4 -34 -16.5 -61.5t-28 -46.5t-32.5 -29t-31 -9q-5 0 -12 4t-5 7q13 7 22 20.5t15.5 30t10.5 35.5
t6 37z" />
    <glyph glyph-name="less" unicode="&#x3c;" horiz-adv-x="390" 
d="M217 283q28 -9 47 -13t31 -6.5t18 -3.5t8 -4q2 -4 1 -11t-3.5 -14t-5.5 -12.5t-5 -5.5q-51 23 -102 41t-107 23q-3 0 -6 1h-1q-8 4 -19.5 14.5t-8.5 16.5q3 7 37 16.5t88 35.5q30 15 49 25.5t30.5 18t17.5 11t10 3.5q6 0 11.5 -5.5t9 -12t4.5 -13t-2 -9.5
q-7 -2 -20.5 -6.5t-29.5 -11t-32.5 -13.5t-29.5 -13q-17 -9 -30 -15.5t-26 -12.5q10 -5 25 -10.5t41 -13.5z" />
    <glyph glyph-name="equal" unicode="=" horiz-adv-x="427" 
d="M233 351q-37 0 -73.5 -2.5t-73.5 -7.5q-3 0 -7.5 5.5t-8 13t-5.5 14.5t1 10q2 2 12 2q16 0 47.5 -3t77.5 -1q33 2 54 4t33 3.5t18 2.5t10 -1q6 -3 11 -10t8 -14.5t3 -13.5t-3 -8q-13 2 -41.5 4t-62.5 2zM330 269q6 -3 11 -9.5t8 -14t3 -14t-3 -8.5q-12 2 -40 4.5t-60 2.5
q-38 0 -75.5 -2.5t-75.5 -8.5q-3 0 -7.5 5.5t-8 13t-5.5 14.5t1 10q2 2 14 2q16 0 47 -2.5t76 -0.5q33 1 54 3t33 3.5t18 2.5t10 -1z" />
    <glyph glyph-name="greater" unicode="&#x3e;" horiz-adv-x="386" 
d="M203 355q54 -26 88.5 -35.5t37.5 -16.5q3 -6 -8.5 -16.5t-20.5 -14.5h-1q-4 -2 -5 -1q-56 -5 -107 -23t-102 -41q-2 0 -5 5.5t-5.5 12.5t-3.5 14t1 11q2 3 7.5 4t17.5 3.5t31.5 6.5t47.5 13q25 8 40.5 13.5t25.5 10.5q-14 6 -26.5 12.5t-29.5 14.5q-13 7 -29.5 14
t-32.5 13.5t-29.5 11t-20.5 6.5q-3 3 -2 9.5t4.5 13t9 12t11.5 5.5q4 0 10 -3.5t17 -11t30 -18t49 -25.5z" />
    <glyph glyph-name="question" unicode="?" horiz-adv-x="547" 
d="M208 704q35 12 71 12q48 0 92.5 -19.5t75 -55.5t40.5 -87t-11 -114q-8 -25 -28 -42.5t-46 -35t-54.5 -37t-53.5 -47.5q-14 -16 -18 -35.5t-3 -39t5.5 -36t8.5 -25.5q1 -4 -10 -4q-7 0 -17 2t-19.5 6.5t-16.5 12t-9 17.5q-1 9 -0.5 24t5.5 32.5t17 35t34 31.5
q64 41 101 87t45 103q8 53 -1 91.5t-28.5 63.5t-46.5 36.5t-56 11.5q-31 0 -58 -12q-54 -24 -76 -76t-15 -118q3 -29 10.5 -50.5t14.5 -36t11.5 -22.5t2.5 -10q-10 -4 -26 0.5t-32 16.5t-29 31t-16 46q-6 45 3 84t28 70.5t46.5 54t58.5 34.5zM251 56q23 0 38.5 -15.5
t15.5 -38.5q0 -22 -15.5 -37.5t-38.5 -15.5q-22 0 -37.5 15.5t-15.5 37.5q0 23 15.5 38.5t37.5 15.5z" />
    <glyph glyph-name="at" unicode="@" horiz-adv-x="672" 
d="M303 90q9 0 17 18t14.5 42.5t11 51t7.5 44.5v3q1 4 1 8v8q1 7 1 13v12q-7 28 -16 51t-17 23t-16 -10t-15 -27t-11.5 -40t-6.5 -49t-2 -52.5t3 -47.5t10 -34.5t19 -13.5zM324 485q41 0 81 -15.5t71.5 -47.5t50.5 -82t19 -118q0 -48 -12 -81t-29.5 -53.5t-37.5 -29
t-36 -8.5h-4q-41 2 -58 33.5t-19 78.5q-4 -20 -10 -39t-14 -34t-18.5 -24.5t-24.5 -9.5q-12 0 -24 8t-22 26t-16 46t-5 68q1 36 7 70t17 59.5t28.5 41t40.5 15.5q18 0 29.5 -15.5t18.5 -37.5v2q0 12 5 15.5t19 6.5q6 2 12 3t11 1q9 0 9 -6q-1 -4 -5 -15.5t-7.5 -27t-7 -33
t-4.5 -34.5v-18q0 -21 2 -44.5t7 -44t13.5 -36.5t20.5 -23l2 -2q1 0 2 -0.5t2 -0.5q1 -1 3 -1q2 -1 7 -1q15 0 26 14t18.5 35.5t11.5 47t4 48.5q0 31 -8 72.5t-29 78.5t-56 62.5t-89 25.5q-48 0 -81.5 -15.5t-55.5 -39.5t-34.5 -53.5t-19 -57t-8 -50t-1.5 -32.5
q0 -6 1 -25.5t7 -45.5t17.5 -54t32 -52t52 -39.5t76.5 -15.5q26 0 45.5 3.5t33 9t22 11t13.5 9.5q4 2 6 3.5t5 0.5q1 0 2 -1q2 -2 2 -6q-1 -5 -7 -15t-21 -20.5t-40 -18.5t-64 -8q-42 0 -83 17.5t-73.5 51.5t-52 85t-19.5 118q0 56 18.5 104.5t51 84t77 55.5t96.5 20z" />
    <glyph glyph-name="A" unicode="A" horiz-adv-x="395" 
d="M106 246q40 -1 71.5 0t51.5 3q-1 6 -1 12v11q-5 103 -6 187.5t4 143.5q-9 -18 -25.5 -54.5t-35 -84.5t-35 -104.5t-24.5 -113.5zM265 607q-2 -16 -1.5 -58.5t4.5 -98t12 -119.5t20 -124.5t29.5 -112t40.5 -81.5q1 -4 -2.5 -10.5t-10 -12.5t-16 -10.5t-21.5 -4.5
q-10 0 -23 5q-21 9 -34 33t-19.5 58.5t-9.5 77t-5 87.5q-28 -4 -60 -6.5t-66 -4.5q-8 -74 1 -127.5t28 -72.5q-4 -12 -16 -18.5t-27 -6.5q-16 0 -31.5 8.5t-23.5 27.5q-7 16 -8 37.5t3 46t11.5 51t15.5 52.5q-36 -1 -68.5 -1t-57.5 0.5t-40.5 2t-16.5 2.5q0 2 4 8.5t10 13
t12.5 12t10.5 6.5q26 -7 59 -12t68 -7q7 0 13.5 -0.5t13.5 -0.5q6 19 12 36t11 32q11 34 21 67.5t18.5 63.5t15 55.5t10.5 44.5q8 42 10.5 70.5t8.5 37.5q5 8 16.5 14.5t25.5 11.5t27.5 7.5t23.5 2.5q11 0 13 -2t-3 -23t-9 -58z" />
    <glyph glyph-name="B" unicode="B" horiz-adv-x="534" 
d="M380 25q29 18 45 46t14 69q-1 39 -14.5 65.5t-36 43t-52.5 23.5t-65 7q-36 0 -68 -6q-32 -10 -53 -13t-32 -3q1 -11 1 -21.5t1 -21.5q8 1 16.5 -1t10.5 -7q-14 -34 -13 -64.5t11.5 -55t28 -42.5t36.5 -27q15 -7 35.5 -11.5t43.5 -4.5t47 5.5t44 18.5zM470 546
q0 12 -10 29t-31 32.5t-52.5 26t-75.5 10.5q-32 0 -71 -7.5t-84 -24.5q-14 -75 -20 -149t-8 -149q10 1 27.5 3.5t40.5 8t51 15t59 23.5q85 40 129 89.5t45 92.5zM292 304q46 5 85 -5t67.5 -32.5t45.5 -55.5t18 -74q1 -37 -11.5 -70.5t-38.5 -58.5t-65 -40t-92 -15
t-87.5 18.5t-55.5 46.5q3 -6 5.5 -9.5t3.5 -5.5q-3 -5 -10.5 -9t-25.5 -4q-22 0 -34.5 11.5t-18.5 29t-7 38t-1 37.5v35.5t0.5 54t1 63.5t1 62.5t1 53t1.5 33.5q0 16 1 37.5t2 44t1.5 43.5t0.5 36v14q-63 -32 -106.5 -68.5t-65.5 -72.5q-1 -2 -4 -2q-6 0 -13 11t-10 27.5
t-0.5 34.5t16.5 33q27 28 75 54.5t106 46.5v6q-1 20 7.5 25t18.5 7t27.5 4.5t23.5 0.5q7 -1 3 -20q82 20 153 20q52 0 87.5 -16.5t57 -41t31 -52t9.5 -49.5q0 -62 -48.5 -121t-151.5 -104q-2 0 -4 -2z" />
    <glyph glyph-name="C" unicode="C" horiz-adv-x="404" 
d="M420 194q6 4 9 -1.5t0 -16.5q-1 -4 -6 -20.5t-14.5 -39t-25 -48t-36.5 -47t-49 -35.5t-63 -14q-55 0 -95.5 22t-66.5 61t-39 93.5t-14 120.5q-1 47 3.5 96.5t14.5 97t26.5 89.5t41.5 74t58 50.5t75 18.5q26 0 48.5 -9t38.5 -31.5t25 -60t9 -93.5q0 -36 1.5 -66.5t3 -53.5
t2 -37t-0.5 -17q-2 -2 -12 -2q-12 0 -29 6t-27 25q-7 13 -9 31t-0.5 37.5t7 38t14.5 31.5q2 29 -0.5 61t-11 59t-23 45t-36.5 18q-27 0 -47.5 -19.5t-35.5 -52t-24 -74.5t-14 -87t-6.5 -89.5t-0.5 -81.5q1 -49 9 -92t24.5 -75t42.5 -50.5t63 -18.5q27 0 52 13.5t46.5 36
t40 50.5t31.5 57z" />
    <glyph glyph-name="D" unicode="D" horiz-adv-x="557" 
d="M445 353q9 72 5.5 127.5t-15.5 93.5t-30.5 58.5t-40.5 24.5q-7 1 -13.5 1.5t-13.5 0.5q-53 0 -103.5 -21.5t-93.5 -50.5q-6 -32 -11.5 -77t-8.5 -102q-6 -97 -3 -171.5t11 -127.5q5 -28 11 -47.5t11.5 -32t9.5 -18.5t5 -8q-3 -5 -9 -8h9q32 0 75 15t84.5 55t74.5 109.5
t46 178.5zM327 690q47 0 86 -24t65.5 -67.5t39 -103.5t7.5 -133q-6 -84 -31.5 -157.5t-69 -127.5t-104.5 -85.5t-137 -31.5q-60 0 -93 12t-48.5 27t-18.5 28.5t-3 17.5q-2 8 2.5 26t15.5 26q5 0 12.5 -17t22.5 -37q-4 16 -4.5 32.5t-1.5 30.5q0 12 0.5 35.5t1 54t1 63.5
t1 62.5t1 53t0.5 33.5q1 26 2.5 65.5t2.5 71.5q-37 -26 -65.5 -51.5t-47.5 -48.5q-4 -4 -9 -4q-13 0 -11 40q0 13 2 24.5t9 23.5t19 24.5t33 26.5q14 9 31.5 19t38.5 21q-1 12 -1 19v14q-1 20 7.5 25t18.5 7q9 2 26.5 4.5t24.5 0.5q6 -1 5 -10t-6 -27q42 17 87 27t88 10z
" />
    <glyph glyph-name="E" unicode="E" horiz-adv-x="431" 
d="M452 199q5 2 8.5 -5.5t4.5 -10.5q-10 -50 -35.5 -90.5t-61.5 -69.5t-81 -45t-96 -16q-33 0 -62 8t-51 23t-34 36t-12 47q0 33 15 57.5t36 41.5t43 27.5t37 15.5q-28 2 -57.5 12.5t-53.5 32.5t-39.5 56.5t-15.5 85.5q0 63 22 115.5t57.5 90.5t79.5 59t87 21q42 0 64 -17
t32 -39t11.5 -44t1.5 -33q6 41 3 74.5t-6 51.5q2 4 9.5 7.5t17 6.5t19.5 5t17 2q10 0 12 -2t-0.5 -7.5t-7 -17t-10 -29.5t-10.5 -45q-7 -36 -11.5 -73t-6.5 -72.5t0 -68t9 -58.5q-4 -8 -22 -8q-14 0 -30 5t-23 13q2 15 6 41.5t7 58.5t4 66t-2 63t-11.5 51t-24.5 29
q-12 6 -27 6q-35 0 -77.5 -31t-75.5 -95q-17 -33 -26 -72t-8.5 -75.5t10.5 -67t31 -48.5q31 -25 69 -25q26 0 50 11t42 31q4 0 5.5 -9t1.5 -21t-0.5 -23t-0.5 -16q-1 -8 -14 -7t-34 1q-4 0 -8 -0.5t-9 -0.5q-18 -1 -39.5 -8t-39.5 -20t-29 -33t-8 -49q3 -23 14.5 -38.5
t28.5 -25t38 -13.5t42 -4q43 0 72 13q38 17 63.5 37t42 42t27.5 44.5t20 44.5z" />
    <glyph glyph-name="F" unicode="F" horiz-adv-x="463" 
d="M102 616q-15 -78 -22 -157.5t-7 -158.5q26 4 51 5t51 1q5 0 21.5 -0.5t39 -2t47.5 -4t45.5 -7.5t34 -12t13.5 -17q-1 0 -7 1.5t-17.5 3t-30 3.5t-46.5 2q-63 1 -111.5 -5.5t-90.5 -18.5q3 -83 12 -140q5 -28 11 -47.5t11.5 -32t9.5 -18.5t5 -8q-3 -5 -10.5 -9t-25.5 -4
q-22 0 -34.5 11.5t-18.5 29t-7.5 38t-1.5 37.5v24.5t0.5 35.5t1 43.5t0.5 47.5q-12 7 -20 15t-7 13q3 3 28 8q1 39 1.5 70.5t0.5 44.5q1 16 2 37.5t2 44t1.5 43.5t0.5 36q0 22 -0.5 35.5t-0.5 22.5q-13 11 -23 21.5t-7 14.5q2 2 10 3t20 2q3 9 10 12t15 5q9 2 26.5 4.5
t24.5 0.5q8 -1 3 -21h13q26 2 62.5 6l73 8t68 6.5t46.5 0.5q19 -2 32.5 -12t21 -21.5t9 -21.5t-3.5 -12q-36 8 -71 11.5t-78 3.5q-47 0 -93 -4t-91 -18z" />
    <glyph glyph-name="G" unicode="G" horiz-adv-x="400" 
d="M370 223q14 -5 20.5 -13.5t7.5 -11.5q-2 -2 -12 0.5t-36 4.5q-1 -11 -1.5 -22t-0.5 -25q-1 -56 6 -88t11 -50q-2 -3 -9.5 -4.5t-17.5 -1.5q-17 0 -33 4t-16 12q5 12 13 38t9 83q-5 -22 -19 -48.5t-37 -49t-54.5 -37.5t-72.5 -15q-29 0 -61.5 15.5t-58.5 52t-42.5 96.5
t-14.5 150q2 87 22.5 157t53 119t73.5 75t84 26q23 0 39.5 -11t27.5 -29.5t17 -41.5t7 -47q3 88 -4 131q2 8 18.5 13t31.5 5q12 0 16 -3q2 -3 -1 -14.5t-8 -32t-10.5 -50.5t-7.5 -70q-4 -52 -4.5 -105t9.5 -93q-2 -5 -18 -5q-8 0 -17 1.5t-17.5 3.5t-14.5 5.5t-7 6.5
q3 21 6 52.5t4 66.5t-1.5 70t-11 63t-23 45.5t-37.5 17.5q-19 0 -44.5 -21.5t-48.5 -65t-40 -109.5t-19 -156q-2 -70 10 -119.5t32 -80.5t45.5 -45t50.5 -14q31 0 56.5 12t44 32.5t28.5 47t10 55.5q-30 1 -71.5 -3t-86.5 -23q-7 0 -15.5 4.5t-15 11t-11 13.5t-3.5 11
q4 8 42.5 14.5t90.5 6.5q17 0 34.5 -1t34.5 -3q-2 12 -4 20t-3 14q1 5 17 8t31 3q17 0 20 -3q0 -6 -3 -18.5t-7 -32.5q5 -1 9 -1.5t8 -2.5z" />
    <glyph glyph-name="H" unicode="H" horiz-adv-x="451" 
d="M363 325q1 -45 3.5 -96.5t9 -100.5t17.5 -89.5t27 -62.5q-1 -9 -13 -15t-29 -6q-20 0 -40.5 12t-27.5 42q-8 33 -6 92.5t5 155.5q-24 4 -70.5 7.5t-101.5 -0.5q-11 -2 -22 -2.5t-21 -2.5q0 -30 2 -64t7 -67.5t14 -65.5t25 -59q-3 -5 -10.5 -9t-25.5 -4q-22 0 -34.5 11.5
t-18.5 29t-7 38t-1 37.5v57.5t1 86.5q-26 -6 -41 -11t-20 -7q-5 0 -14 6t-18.5 13.5t-16.5 14t-7 8.5q-1 5 29 10.5t81 9.5q5 0 8 1q1 38 1.5 69t1.5 44q0 16 1 37.5t2 44t1.5 43.5t0.5 36v34.5t-0.5 22.5t-1 15t-0.5 12q-1 20 7.5 25t18.5 7t27.5 4.5t23.5 0.5
q7 -1 5.5 -10.5t-6.5 -29.5q-5 -24 -15.5 -85.5t-16.5 -156.5q-2 -30 -2.5 -58t-1.5 -54q31 0 61.5 -1.5t57 -4.5t48 -6t33.5 -6q5 -1 8.5 -2t7.5 -3q1 14 1 28.5t1 31.5q2 97 2.5 165t2.5 122q1 25 1.5 40.5t3 25.5t8.5 15.5t17 9.5q17 6 32 11t23 5q6 0 7 -2
q2 -4 0.5 -10.5t-4.5 -19t-8.5 -33.5t-11.5 -56q-5 -29 -9 -65.5t-6.5 -75t-4 -75t-1.5 -65.5z" />
    <glyph glyph-name="I" unicode="I" horiz-adv-x="136" 
d="M70 408q-6 -97 -3 -171.5t12 -127.5q5 -28 10.5 -47.5t11 -32t9.5 -18.5t5 -8q-3 -5 -10.5 -9t-25.5 -4q-22 0 -34.5 11.5t-18.5 29t-7 38t-1 37.5v35.5t0.5 54t1 63.5t1 62.5t1 53t1.5 33.5q0 16 1 37.5t2 44t1.5 43.5t0.5 36v34.5t-0.5 22.5t-1 15t-0.5 12
q-1 20 7.5 25t18.5 7t27.5 4.5t23.5 0.5q7 -1 5 -10.5t-6 -29.5q-5 -24 -16 -85.5t-16 -156.5z" />
    <glyph glyph-name="J" unicode="J" horiz-adv-x="339" 
d="M147 690q85 0 132 -89.5t42 -268.5q-3 -90 -21.5 -159t-47.5 -116.5t-66.5 -71.5t-78.5 -24q-27 0 -45.5 13.5t-28.5 35t-13 49t0.5 55.5t14 54t25.5 45q12 6 28 6q11 0 20 -3t12 -9q-14 -12 -27 -33.5t-21.5 -46.5t-12.5 -51.5t-0.5 -47.5t15 -34.5t33.5 -13.5
q12 0 34.5 16.5t45.5 56.5t41.5 106.5t21.5 166.5q5 166 -22.5 251t-76.5 85q-23 0 -52.5 -22.5t-52 -61.5t-31.5 -90.5t9 -109.5q-3 -8 -17 -8q-8 0 -18 3.5t-19 10t-16 17.5t-8 26q-4 35 8.5 80.5t38.5 86t65 68.5t89 28z" />
    <glyph glyph-name="K" unicode="K" horiz-adv-x="503" 
d="M97 367q7 -16 22.5 -44.5t39 -63.5t55 -72.5t72 -71.5t89.5 -61.5t106 -41.5q2 -14 -3.5 -27t-16 -23t-24.5 -16t-29 -6q-22 0 -62 28t-87 80t-94.5 126t-85.5 165q-7 -12 -12 -18q-1 -66 2.5 -119t10.5 -93q5 -28 10.5 -47.5t11 -32t9.5 -18.5t5 -8q-3 -5 -10.5 -9
t-25.5 -4q-22 0 -34.5 11.5t-18.5 29t-7 38t-1 37.5v35.5t0.5 54t1 63.5t1 62.5t1 53t1.5 33.5q0 16 1 37.5t2 44t1.5 43.5t0.5 36q0 21 -0.5 34.5t-0.5 22.5t-0.5 15t-0.5 12q-1 20 7.5 25t18.5 7t27.5 4.5t23.5 0.5q7 -1 5 -10.5t-6 -29.5q-5 -24 -16 -85.5t-16 -156.5
q-1 -10 -1.5 -19.5t-0.5 -19.5q13 22 31.5 52.5t39.5 64.5t43.5 68.5t42.5 63.5t36 49.5t25 27.5q9 8 28 12t37 4q17 0 29 -3.5t12 -11.5q-41 -24 -84 -66t-83 -89.5t-73.5 -94t-55.5 -79.5z" />
    <glyph glyph-name="L" unicode="L" horiz-adv-x="430" 
d="M369 60q12 -1 22.5 -11.5t16.5 -22.5t7 -23t-6 -14q-18 4 -45 9.5t-61.5 10t-74.5 7t-85 2.5q8 -13 10 -15q-3 -5 -11 -9t-26 -4q-17 0 -27.5 7t-17.5 18q-37 -3 -75 -9q-5 -1 -10.5 1t-3.5 4q1 2 21.5 9.5t58.5 17.5q-5 17 -6 34.5t-1 33.5v35.5t0.5 54t1 63.5t1.5 62.5
t1.5 53t0.5 33.5q0 16 1 37.5t2 44t1.5 43.5t0.5 36v34.5t-0.5 22.5t-1 15t-0.5 12q0 20 8.5 25t18.5 7q9 2 26.5 4.5t24.5 0.5q7 -1 5 -10.5t-7 -29.5q-5 -24 -15.5 -85.5t-16.5 -156.5q-5 -97 -2 -171.5t11 -127.5q3 -18 6.5 -32t7.5 -25q32 5 70.5 8.5t81.5 3.5
q21 0 42.5 -1t44.5 -3z" />
    <glyph glyph-name="M" unicode="M" horiz-adv-x="614" 
d="M503 350q-2 -57 0.5 -112.5t12.5 -102t28.5 -81t49.5 -50.5q0 -14 -21 -26t-48 -12q-17 0 -33 6.5t-28 23.5q-18 25 -24.5 66.5t-6.5 90.5t5 101t11 98q3 26 6 58t5.5 62t4 53t0.5 31q-3 -20 -10 -57t-17 -82.5t-23 -96t-29 -98t-34.5 -87.5t-39.5 -64q2 -1 5.5 -1.5
t5.5 -1.5q-1 -4 -12 -11t-29 -7q-10 0 -21.5 3.5t-23.5 13.5q-13 11 -35 44.5t-45 92.5t-44 146t-32 204q-2 -22 -4 -63.5t-3 -94t1 -110t9 -111t19.5 -98.5t33.5 -71q-2 -7 -14 -12t-28 -5q-19 0 -37 9.5t-27 32.5q-11 32 -7.5 88t4.5 132q1 43 2 94.5t1 105t-1.5 105.5
t-5.5 95q-1 7 10.5 14.5t28.5 13.5t36 9.5t33 3.5q12 0 16 -2q3 -1 1 -13t-4.5 -37t-4.5 -63t0 -91q2 -34 7.5 -84.5t19 -104.5t37 -105.5t60.5 -87.5q9 12 34.5 49.5t53.5 100.5t53 151t32 202q2 40 -2 61.5t-1 27.5q6 8 32 8q20 0 42.5 -6.5t33.5 -21.5q2 -9 -3 -34.5
t-12.5 -66.5t-14.5 -97.5t-9 -127.5z" />
    <glyph glyph-name="N" unicode="N" horiz-adv-x="428" 
d="M365 714q19 4 36.5 -1.5t31 -14.5t20.5 -20t5 -17q-39 -22 -60 -70t-31.5 -106t-12.5 -119t-3 -108q0 -41 1 -85.5t2.5 -82t2 -63t-1.5 -29.5q-3 -5 -11.5 -7t-19.5 -2q-18 0 -36 4t-20 7q-58 93 -94.5 187t-57 171.5t-28.5 131t-9 66.5q-1 -4 -1 -8v-9q-2 -27 -4 -70
t-2.5 -93.5t2 -105.5t9.5 -105t19.5 -92t31.5 -67q-2 -7 -14 -12t-28 -5q-18 0 -36 9.5t-27 32.5q-11 32 -7.5 88t4.5 132q1 43 1.5 94.5t0.5 105t-1.5 105.5t-5.5 95q0 5 7 10.5t17.5 11t22.5 9.5t21 5q14 3 26 3q11 0 19.5 -3t13.5 -9q-13 -68 -11 -139t14.5 -138.5
t32.5 -128.5t43 -110.5t45.5 -85t40.5 -50.5q-1 16 -4 46t-6.5 69.5t-7.5 86.5t-7 98q-6 86 -2.5 155.5t14 119t27.5 78.5t38 35z" />
    <glyph glyph-name="O" unicode="O" horiz-adv-x="484" 
d="M396 176q5 23 7.5 54t1.5 56q-1 89 -17.5 159t-42 119t-56.5 74.5t-61 25.5q-20 0 -37.5 -16t-29.5 -46t-17 -74t0 -100q4 -46 17.5 -79.5t30 -55t32 -32t24.5 -11.5q2 -9 -7.5 -21t-31.5 -12q-29 1 -49 21.5t-32.5 51t-17.5 67.5t-5 71q-4 -42 -5 -76t2 -73
q8 -128 47 -185t102 -57q55 0 92.5 35.5t52.5 103.5zM262 708q51 0 89.5 -39.5t63 -102.5t35 -140.5t5.5 -152.5q-4 -68 -20 -123.5t-43.5 -95t-68 -61t-93.5 -21.5q-54 0 -92.5 25t-63.5 66.5t-37.5 95t-15.5 109.5q-3 68 -0.5 138.5t16 127t40.5 91.5t73 32q13 17 30 27
t33.5 15.5t29.5 7t19 1.5z" />
    <glyph glyph-name="P" unicode="P" horiz-adv-x="464" 
d="M82 227q76 3 130.5 31t89 70.5t49.5 93.5t10 99q-7 72 -52.5 115.5t-120.5 43.5q-17 0 -33.5 -1.5t-32.5 -3.5q-1 -5 -2 -11t-3 -14q-5 -24 -16 -85.5t-17 -156.5q-3 -52 -3.5 -97t1.5 -84zM225 704q21 0 57.5 -8t71.5 -29.5t61 -60.5t27 -102q1 -82 -34 -138.5
t-88.5 -92t-117 -52t-119.5 -18.5q1 -21 4 -48.5t8.5 -56t14 -54t20.5 -41.5q-3 -5 -10.5 -9t-26.5 -4q-22 0 -34 11.5t-18 29t-7.5 38t-1.5 37.5v39.5t1 59.5q-40 3 -60 12t-34 18q-9 6 -13 16t-4 19t5 16t14 8q16 -23 40 -39.5t52 -23.5q1 27 1.5 55t1 52t1 42.5t0.5 27.5
q0 16 1 37.5t2 44t1.5 43.5t0.5 36v34.5t-0.5 22.5t-0.5 15v12v1q-39 -14 -70.5 -32.5t-55 -36.5t-38.5 -33t-21 -22q-6 0 -9 8t-2 19t4.5 23.5t11.5 21.5q18 17 53.5 35t84 33t106.5 24.5t120 9.5z" />
    <glyph glyph-name="Q" unicode="Q" horiz-adv-x="490" 
d="M253 37q55 0 92.5 35.5t52.5 103.5q5 23 7.5 54t1.5 56q-2 89 -18.5 159t-41.5 119t-56 74.5t-61 25.5q-20 0 -37.5 -16t-29.5 -46t-17 -74t-1 -100q4 -46 17.5 -79.5t30 -55t32.5 -32t24 -11.5q2 -9 -7 -21t-31 -12q-29 1 -49 21.5t-32.5 51t-17.5 67.5t-5 71
q-5 -42 -5.5 -76t1.5 -73q9 -128 48 -185t102 -57zM457 273q-4 -60 -17 -110.5t-35 -89t-54 -63t-74 -33.5q42 0 80.5 -5.5t70.5 -16.5q1 -1 -1.5 -5t-7.5 -9t-11.5 -9t-12.5 -4q-20 3 -38.5 4t-35.5 1q-42 0 -77 -6t-63 -15t-48.5 -19t-34.5 -17q-6 1 -7 11t3.5 23.5
t14 26.5t25.5 19q40 13 80 17q-49 4 -84.5 30.5t-58 67.5t-34 92t-14.5 105q-3 68 -0.5 138.5t16 127t40 91.5t72.5 32q13 17 30 27t33.5 15.5t30 7t19.5 1.5q51 0 89 -39.5t63 -102.5t35.5 -140.5t5.5 -152.5z" />
    <glyph glyph-name="R" unicode="R" horiz-adv-x="519" 
d="M188 680q-17 0 -33.5 -1.5t-32.5 -3.5q-1 -5 -2 -11t-3 -14q-5 -24 -16 -85.5t-16 -156.5q-6 -103 -3 -181q76 3 130.5 31t89 70.5t49.5 93.5t10 99q-7 72 -52.5 115.5t-120.5 43.5zM498 17q4 -13 1.5 -28t-10 -27t-20.5 -19.5t-30 -7.5q-36 0 -72 13.5t-71 35.5
t-67 49.5t-59.5 56t-49.5 54.5t-36 45q3 -48 11.5 -96t34.5 -90q-3 -5 -10.5 -9t-25.5 -4q-22 0 -34.5 11.5t-18.5 29t-7.5 38t-1.5 37.5q0 13 0.5 39.5t0.5 59.5q-40 3 -60 12t-33 18q-9 6 -13.5 16t-4.5 19t5 16t14 8q17 -23 41 -39.5t52 -23.5q0 27 0.5 55t1 52t1 42.5
t0.5 27.5q1 16 2 37.5t2 44t1.5 43.5t0.5 36q0 21 -0.5 34.5t-0.5 22.5t-0.5 15t-0.5 12v1q-39 -14 -70.5 -32.5t-55 -36.5t-38.5 -33t-21 -22q-6 0 -9 8t-2 19t5 23.5t12 21.5q17 17 53 35t84 33t106 24.5t120 9.5q21 0 57.5 -8t71.5 -29.5t61 -60.5t27 -102
q1 -78 -30.5 -133t-81 -91t-109.5 -54t-115 -22q48 -49 106 -85.5t113.5 -60.5t101.5 -34t71 -7z" />
    <glyph glyph-name="S" unicode="S" horiz-adv-x="479" 
d="M284 225q26 -13 55 -23t53.5 -21t41 -27t16.5 -41q0 -18 -15 -41t-44 -44t-72 -35.5t-100 -14.5q-48 0 -81 11t-54 26t-31 30t-12 24q-3 17 9.5 32t28.5 25t30 14t13 0q-3 -11 1.5 -28t18.5 -33t38 -27.5t60 -11.5q37 0 67.5 6.5t52.5 17t34.5 24t12.5 27.5q1 14 -6.5 24
t-23 18t-38.5 15.5t-53 17.5q-48 15 -92.5 30t-80 39.5t-59.5 62t-31 96.5q-7 57 8 108.5t46.5 89.5t78 60.5t103.5 22.5h12t13 -1q26 -3 50 -13.5t41.5 -33.5t27 -60.5t7.5 -93.5q-3 -72 -0.5 -120.5t-0.5 -53.5q-1 -3 -13 -3t-28.5 6.5t-25.5 24.5q-6 14 -7.5 32t1 37.5
t8.5 38t15 31.5q3 27 2.5 59t-7.5 59.5t-23 46t-44 18.5q-34 0 -68 -16.5t-60.5 -47t-42.5 -72.5t-15 -93q2 -52 21 -88t46.5 -60.5t59 -41t56.5 -29.5z" />
    <glyph glyph-name="T" unicode="T" horiz-adv-x="402" 
d="M576 705q12 1 22.5 -9t18 -23.5t11.5 -26t2 -15.5t-17 1t-47 9.5t-84 10t-128 1.5q0 -1 -0.5 -1.5t-0.5 -1.5q-5 -24 -15.5 -85.5t-16.5 -156.5q-6 -97 -3 -171.5t12 -127.5q5 -28 11 -47.5t11 -32t9 -18.5t5 -8q-3 -5 -10.5 -9t-25.5 -4q-22 0 -34.5 11.5t-18.5 29
t-7 38t-1 37.5v35.5t0.5 54t1 63.5t1.5 62.5t1.5 53t0.5 33.5q0 16 1 37.5t2 44t1.5 43.5t0.5 36q0 37 -0.5 52.5t-1.5 25.5q-33 -3 -60 -6t-50.5 -7.5t-46 -10t-46.5 -12.5q-7 -2 -16.5 7.5t-18 23t-14 27.5t-4.5 21q0 4 20 4q23 0 70 -3t113 -3h44t47 2q109 6 173 9t88 6z
" />
    <glyph glyph-name="U" unicode="U" horiz-adv-x="402" 
d="M284 690q6 5 17.5 8t25.5 3q22 0 42 -6.5t23 -19.5q-29 -61 -44 -131t-19.5 -139.5t-0.5 -135t12 -118t19 -88t21 -45.5q1 -8 -13.5 -13t-31.5 -5q-15 0 -28.5 4.5t-19.5 15.5t-8 54t-3 110q-8 -42 -18.5 -78t-27 -61.5t-40.5 -40t-58 -14.5q-30 0 -49 20t-30 54t-15 78
t-4 93t3 99t6 95q4 59 2.5 102t-6 72.5t-9.5 47t-9 24.5q0 5 13.5 11t30.5 6q12 0 25 -5q26 -10 34 -44t7.5 -80t-6.5 -99.5t-9 -103.5q-3 -55 -2 -111.5t8 -101.5t21 -73.5t37 -28.5q13 0 25.5 17t22.5 42.5t18 55.5t12 56q4 23 6.5 55t5 68t4 72t3 65.5t2.5 49.5t2 24
q1 35 1.5 70t1.5 70z" />
    <glyph glyph-name="V" unicode="V" horiz-adv-x="557" 
d="M263 48q0 32 3 94.5t11.5 138t23 155t37.5 145t55.5 107t76.5 41.5q17 0 30 -5t22.5 -12.5t15.5 -15t7 -13.5q-21 -7 -56 -40t-73.5 -108t-74 -199.5t-56.5 -312.5q0 -3 -3 -9t-10 -11.5t-18.5 -9.5t-28.5 -3q-29 1 -44 36t-23.5 88.5t-15 118.5t-18.5 127
q-15 78 -30 129t-29 84t-26 52t-21 32q1 10 14 21.5t34 11.5q9 0 18 -3q18 -6 30 -23t20.5 -42t14 -55.5t11.5 -62.5q7 -40 13 -76.5t11.5 -70.5t11 -67.5t11.5 -69.5q12 -74 26.5 -113t29.5 -59z" />
    <glyph glyph-name="W" unicode="W" horiz-adv-x="864" 
d="M760 727q17 7 35 7q27 0 47 -15t25 -37q-10 -5 -33 -19.5t-52 -45t-59.5 -79.5t-57 -122t-44.5 -174t-21 -234q-4 -15 -23 -22.5t-39 -7.5q-12 0 -22 2.5t-15 8.5q-6 7 -16 36t-21 72.5t-23 98t-21 112.5t-14.5 115.5t-4.5 107.5q-19 -44 -38.5 -101.5t-36.5 -123.5
t-29 -137.5t-15 -144.5q1 -1 -1 -7t-9 -12.5t-19 -11t-30 -3.5q-29 1 -44 36t-23.5 88.5t-15 118.5t-18.5 127q-15 78 -30 129t-28.5 84t-25.5 52t-21 32q0 10 13 21.5t34 11.5q9 0 18 -3q18 -6 30 -23t20.5 -42t14 -55.5t11.5 -62.5q7 -40 13 -76.5t11.5 -70.5t11 -67.5
t11.5 -69.5q12 -73 26.5 -112t28.5 -59q0 34 3.5 78.5t9.5 93.5t15.5 100.5t22.5 100.5t29.5 93t37.5 77q7 10 25 14.5t35 4.5q10 0 17 -1.5t9 -5.5q-5 -14 -8.5 -47.5t-3 -79.5t7 -101.5t20.5 -113.5t36.5 -114.5t56.5 -105.5q-1 37 -1.5 96t4 128t15.5 141.5t32.5 136.5
t54.5 113t82 70z" />
    <glyph glyph-name="X" unicode="X" horiz-adv-x="591" 
d="M269 404q60 -120 106.5 -194t83 -114.5t64 -55t48.5 -16.5q-1 -13 -6.5 -25.5t-16 -22.5t-27 -15.5t-39.5 -4.5q-33 1 -58.5 23t-48 59.5t-44.5 88.5t-48 109q-12 28 -24.5 56t-26.5 55q-38 -63 -64 -122.5t-41.5 -107.5t-22 -81t-6.5 -45q-6 -4 -19 -4q-10 0 -22 3
t-22 9t-16 16t-4 25q3 22 19.5 58.5t43 83t60.5 100t73 107.5q-31 60 -60 105t-53.5 76.5t-43 51t-30.5 29.5q-1 5 4 12.5t14 14.5t20.5 11.5t22.5 4.5q5 0 8.5 -1t7.5 -3q17 -9 36 -35t38.5 -61.5t38.5 -75t36 -75.5q62 82 118.5 152t102.5 118q3 3 13 3q7 0 15.5 -1.5
t16 -3.5t12 -5t3.5 -5q-7 -5 -31.5 -26.5t-60 -59t-79.5 -90.5t-91 -121z" />
    <glyph glyph-name="Y" unicode="Y" horiz-adv-x="465" 
d="M221 -201q24 17 41.5 41.5t30.5 53.5q-29 1 -60.5 -1t-65.5 -7q-73 -11 -116 -28.5t-63.5 -36.5t-23.5 -36.5t4 -28.5q4 -8 23.5 -14t50.5 -6q35 0 82 13.5t97 49.5zM498 -93q11 -5 18 -14.5t10 -19t1.5 -17t-7.5 -7.5q-8 3 -42 15.5t-90 21.5q-12 -50 -40 -87t-66 -61.5
t-84.5 -36.5t-95.5 -12q-43 0 -82 8.5t-68.5 23t-48 32.5t-19.5 37q-2 22 16.5 39t54 31t87.5 25t116 21q37 6 73.5 9t71.5 5q20 57 25 123.5t3 125.5q-17 -78 -37 -124t-42 -69t-44.5 -29.5t-45.5 -6.5q-48 0 -80 43.5t-37 126.5q-3 38 -3 86.5t2 105.5q3 95 -4.5 162.5
t-18 111t-21 66t-13.5 28.5q0 3 6 6.5t15.5 7t21.5 5.5t23 2q15 0 24 -4q21 -9 31 -37t14 -68.5t2.5 -91.5t-3.5 -105.5t-3.5 -109.5t2.5 -105q5 -75 26.5 -114.5t62.5 -39.5q32 0 52.5 33.5t33 85.5t17.5 116t5 125q-7 155 2.5 229t45.5 85q12 4 27 4q27 0 49.5 -13
t24.5 -30q-20 -25 -35 -57t-25 -73.5t-15.5 -94t-6.5 -120.5q0 -46 4 -96t8 -99.5t5 -98t-6 -93.5q41 -2 68 -5.5t35 -6.5z" />
    <glyph glyph-name="Z" unicode="Z" horiz-adv-x="557" 
d="M362 94q38 0 77.5 -9t66.5 -24t35 -35.5t-16 -43.5q-1 0 -3 2.5t-6.5 6.5t-14 9.5t-26.5 11.5q-25 9 -75 9q-33 0 -74 -5t-84.5 -16t-88 -28.5t-85.5 -42.5q-1 -2 -3 -2q-6 0 -21.5 6.5t-31 16t-27.5 20t-10 19.5q9 12 30 41t50.5 70t64.5 90t72.5 100.5t74 101.5
t68 93.5t56 77.5t37.5 51h-6q-37 -3 -74.5 -11.5t-72 -17t-65.5 -15t-55 -6.5q-14 0 -26 3q-17 5 -29.5 19.5t-17 33.5t-1 39.5t18.5 35.5q8 -5 23.5 -13t43.5 -15t70 -12t102 -5q41 0 92 3q22 2 32.5 -1.5t14 -9.5t1.5 -13.5t-6 -14.5q-59 -76 -119 -166
q-25 -38 -53.5 -82.5t-58 -94.5t-58 -104t-55.5 -111q38 13 98 25.5t135 12.5z" />
    <glyph glyph-name="bracketleft" unicode="[" horiz-adv-x="188" 
d="M112 701q-9 -9 -14.5 -27.5t-8 -42.5t-3.5 -52t-2 -57v-401q1 -29 2 -57.5t3.5 -52.5t8 -42t14.5 -27q8 -9 21 -9q9 0 15.5 2.5t8.5 2.5q2 -4 4 -15.5t-6 -16.5q-4 -2 -9 -2q-11 0 -27 9.5t-27 24.5q-25 33 -35.5 87.5t-11.5 120.5q-1 29 -1 76.5v99v99.5t1 76
q1 66 11.5 120t35.5 88q11 14 27 24t27 10q6 0 9 -3q8 -5 6 -16.5t-4 -14.5q-2 0 -9 2t-15 2q-13 0 -21 -8z" />
    <glyph glyph-name="backslash" unicode="\" horiz-adv-x="231" 
d="M86 345q10 -28 24.5 -67t30.5 -81.5t32 -84.5t29 -77t21.5 -58.5t9.5 -28.5q2 -14 -9.5 -24.5t-18.5 -7.5q-1 6 -8.5 29t-19 57.5t-25.5 77t-28.5 86.5t-28.5 87t-26 78q-11 34 -24.5 73t-28 78t-28.5 75.5t-25.5 66t-20 48.5t-10.5 24q0 5 10 5q8 0 16.5 -2.5t10.5 -7.5
q4 -8 17 -46.5t30 -90t36 -108.5t34 -101z" />
    <glyph glyph-name="bracketright" unicode="]" horiz-adv-x="193" 
d="M104 694q25 -34 35.5 -88t11.5 -120q1 -28 1.5 -76t0.5 -99.5t-0.5 -99t-1.5 -76.5q-1 -66 -11.5 -120t-35.5 -88q-11 -14 -27 -24t-27 -10q-6 0 -9 3q-8 5 -6 16t5 15q2 0 8.5 -2t14.5 -2q13 0 21 8q9 9 14.5 27.5t8 42.5t3.5 52t2 57v401q-1 29 -2 57t-3.5 52t-8 42.5
t-14.5 27.5q-5 5 -10.5 6.5t-11.5 1.5q-8 0 -14 -2t-8 -2q-3 4 -4.5 15.5t5.5 16.5q4 2 9 2q11 0 27 -9.5t27 -24.5z" />
    <glyph glyph-name="asciicircum" unicode="^" horiz-adv-x="335" 
d="M271 594q7 0 9 -7q1 -4 -0.5 -11.5t-6.5 -14t-14 -11.5t-22 -5q-17 0 -28.5 11t-18.5 27t-10.5 33t-4.5 30h-5q-7 -25 -20 -44t-29 -31.5t-32.5 -18.5t-29.5 -6q-5 0 -13 2q-2 1 0.5 6.5t7 12t10 12t8.5 5.5q28 0 50 20t33 52q2 8 4.5 17t2.5 17q-1 2 9 3.5t19 1.5
q5 0 8.5 -0.5t3.5 -1.5q0 -25 3.5 -46.5t9.5 -37.5t13.5 -25.5t16.5 -9.5q8 0 16 5t10 15z" />
    <glyph glyph-name="underscore" unicode="_" horiz-adv-x="442" 
d="M334 42q6 -2 11 -9t8 -14.5t3 -14t-3 -7.5q-13 2 -41.5 4t-62.5 2q-37 0 -74 -2.5t-74 -7.5q-2 0 -6.5 5.5t-8 13t-5.5 14.5t1 10q2 2 12 2q16 0 47.5 -3t76.5 -1q53 2 76 5.5t32 3.5q6 0 8 -1z" />
    <glyph glyph-name="grave" unicode="`" horiz-adv-x="190" 
d="M124 647q6 -3 10.5 -9.5t6.5 -14t1.5 -13t-3.5 -5.5q-20 7 -38 17t-31 21t-20.5 21.5t-7.5 16.5q0 2 1.5 8.5t3.5 4.5q9 -11 31.5 -25t45.5 -22z" />
    <glyph glyph-name="a" unicode="a" 
d="M116 45q12 0 22 23t18.5 55t14.5 66t9 57v3q3 26 3 53q-4 18 -9.5 34.5t-11 30t-11 21.5t-11.5 8q-10 0 -20 -12.5t-19 -34.5t-15.5 -51.5t-8.5 -63.5q-2 -33 -1.5 -67t4.5 -61t12.5 -44t23.5 -17zM316 168q3 3 7.5 0t4.5 -11q0 -6 -6 -31.5t-17.5 -53.5t-27.5 -50
t-37 -22q-24 0 -37.5 20.5t-19.5 51t-7 66.5q-6 -25 -13 -50t-17.5 -44.5t-24 -31.5t-31.5 -12q-15 0 -31 10.5t-28.5 33t-20 59t-6.5 87.5q1 47 8.5 90t22.5 76t37 52.5t52 19.5q23 0 37.5 -20t24.5 -48v3q-1 16 5.5 20.5t24.5 8.5q8 2 15.5 3t13.5 1q13 0 12 -7
q-1 -6 -5.5 -20.5t-10 -34t-9.5 -42.5t-6 -44v-24q0 -31 2 -58t6.5 -46.5t11 -30.5t15.5 -11q12 0 21.5 12t16.5 27.5t11.5 30.5t5.5 20z" />
    <glyph glyph-name="b" unicode="b" horiz-adv-x="279" 
d="M118 27q35 0 55.5 50.5t21.5 135.5q1 83 -14.5 133t-39.5 50q-20 0 -35 -27t-25 -63t-16.5 -72.5t-9.5 -54.5v-22q1 -11 1.5 -20.5t1.5 -20.5q4 -13 9 -28.5t12 -29t16.5 -22.5t22.5 -9zM161 429q50 -1 80 -54.5t28 -169.5q-1 -59 -12 -98.5t-28.5 -63t-40.5 -33.5
t-48 -10q-29 0 -46 14t-28 33q3 -21 4 -34.5t-1 -15.5t-10.5 -1t-18 4t-19 7t-14.5 8q-3 2 -4 12t-1 30.5t1.5 53t2.5 78.5q1 50 0.5 125.5t-0.5 169.5q1 83 -1.5 135.5t4.5 60.5q2 2 8.5 4.5t15.5 4.5t19 3.5t18 1.5q15 0 17 -5q1 -3 -2 -17t-8 -42t-10 -71t-8 -104
q-2 -54 -3.5 -97.5t-2.5 -87.5q5 29 13.5 57.5t22 51t31.5 36.5t41 14z" />
    <glyph glyph-name="c" unicode="c" horiz-adv-x="257" 
d="M269 168q2 4 8.5 0t5.5 -12q-15 -47 -32.5 -77t-36.5 -47.5t-38.5 -24.5t-39.5 -7q-27 0 -52 13t-43.5 40t-27.5 69t-4 100q6 60 21.5 99.5t36 63t41.5 33.5t37 10q17 0 32 -5t26 -17t18 -33.5t7 -54.5q0 -41 0.5 -66.5t-0.5 -33.5q0 -3 -6 -1q-4 0 -11 1t-14 3t-13 6
t-8 11q-5 15 -0.5 38t13.5 37q4 33 3.5 58t-17.5 25q-12 0 -27 -10t-29 -31.5t-24.5 -55t-13.5 -81.5q-3 -51 4 -84t20 -53t30 -28t32 -8q24 0 42 17t30.5 38.5t20 41.5t9.5 26z" />
    <glyph glyph-name="d" unicode="d" horiz-adv-x="307" 
d="M112 45q13 0 23.5 26.5t19 62t14 71t8.5 54.5v47q-4 17 -9 33t-10.5 29t-11 20.5t-10.5 7.5q-10 0 -20.5 -12.5t-19.5 -34.5t-15.5 -51.5t-8.5 -63.5q-2 -33 -1.5 -67t4.5 -61t13 -44t24 -17zM317 168q3 3 7.5 0t5.5 -11q-1 -6 -4.5 -31.5t-12 -53.5t-24 -50t-39.5 -22
q-40 0 -54.5 41.5t-17.5 129.5q-5 -29 -12.5 -59.5t-18.5 -55t-26 -40.5t-36 -16q-15 0 -30.5 10.5t-28 33t-20 59t-6.5 87.5q1 47 8.5 90t22.5 76t37 52.5t52 19.5q20 0 34 -17t24 -42v148.5t0.5 94t2 51t4.5 18.5q2 2 8.5 4.5t15.5 4.5t19 3.5t18 1.5q15 0 17 -5
q1 -3 -2 -18t-8 -42.5t-10 -68.5t-8 -97q-2 -37 -3 -66.5t-2 -57.5t-0.5 -57t1.5 -65q1 -30 3 -55t6.5 -44t11 -29.5t15.5 -10.5q12 0 21 12t15 27.5t9.5 30t4.5 19.5z" />
    <glyph glyph-name="e" unicode="e" horiz-adv-x="267" 
d="M142 413q-12 0 -25 -14t-23.5 -38.5t-18 -58t-9.5 -72.5q3 -11 9.5 -25t15.5 -26t20 -20.5t22 -8.5q21 0 30.5 33.5t11.5 88.5q1 25 1 50t-3.5 45.5t-10.5 33t-20 12.5zM275 168q2 4 8 0t4 -11q-6 -27 -19 -54.5t-33 -50.5t-46 -37.5t-56 -14.5q-35 0 -61 17.5t-43 45
t-25 63t-8 71.5q0 41 8 82t24 74t41.5 54t61.5 21q46 0 74 -41.5t26 -118.5q-2 -70 -26.5 -102t-64.5 -32q-13 0 -24.5 6t-21 15t-16.5 20t-12 20q1 -41 11 -70.5t25 -48t33 -27t34 -8.5q24 0 43 19t33 42.5t21.5 43.5t8.5 22z" />
    <glyph glyph-name="f" unicode="f" horiz-adv-x="259" 
d="M182 -176q10 0 18.5 5t14 22t8 49t-0.5 87q-2 61 -13 129t-29.5 129t-44.5 107t-58 62q-5 -83 -7 -171t3 -162q4 -72 16 -121t28 -79.5t33.5 -43.5t31.5 -13zM78 428q37 -7 65 -35t48.5 -68t34.5 -87t22.5 -93.5t12.5 -88t5 -69.5q1 -39 -6 -75.5t-22.5 -65t-41.5 -45.5
t-63 -17q-41 0 -66.5 31t-40 83t-19 118.5t-3.5 137.5t5.5 141.5t7.5 128.5q-15 0 -25 -2.5l-14 -3.5q-2 0 -3 5.5t-0.5 12t2.5 12t6 5.5q11 -2 35 -4q6 107 9.5 158t4.5 64t14.5 16.5t30.5 5.5q9 2 20.5 3t16.5 -1q5 -1 -0.5 -18t-15.5 -67q-5 -32 -10 -73t-9 -89
q14 1 28 1t31 1q42 2 64 9t26 12q5 -3 6.5 -9t1 -13t-3 -12.5t-5.5 -8.5q-5 -3 -18.5 -4.5t-33.5 -1.5q-22 0 -48 1.5t-49 4.5z" />
    <glyph glyph-name="g" unicode="g" horiz-adv-x="278" 
d="M130 45q9 0 17 13.5t14.5 35t12.5 47t10.5 50t7.5 44.5t4 30q0 11 0.5 20.5t0.5 17.5q-4 17 -9.5 34t-11 30t-11.5 21t-12 8q-11 0 -21.5 -12.5t-19 -34.5t-14.5 -51.5t-8 -63.5q-2 -33 -1.5 -67t4.5 -61t13 -44t24 -17zM92 -325q32 0 51 25t28.5 64t13 85t4.5 88v23
q-27 -8 -57 -27q-23 -16 -39.5 -41t-26.5 -53.5t-12.5 -57.5t0.5 -52.5t12.5 -38.5t25.5 -15zM366 -54q5 -6 9 -15.5t5.5 -18.5t0.5 -15t-6 -4q-29 26 -56.5 43.5t-56.5 24.5q0 -13 0.5 -25.5t0.5 -25.5q1 -77 -6.5 -128t-24.5 -81t-43.5 -42.5t-63.5 -12.5q-33 0 -57 14.5
t-38.5 38t-20 53t-2 61t16 61t33.5 52.5q29 31 63.5 45t69.5 18q2 45 2.5 87.5t1.5 82.5q-6 -28 -13.5 -56t-18 -51t-25 -37.5t-34.5 -14.5q-15 0 -30.5 10.5t-28 33t-20 59t-6.5 87.5q1 47 8.5 90t22.5 76t37 52.5t52 19.5q22 0 36.5 -18t23.5 -44v16q0 4 6.5 7t16 4.5
t20 2t17.5 0.5q3 0 3 -3t-1.5 -15t-3.5 -37.5t-4 -70.5q-2 -60 2 -131.5t7 -151.5q38 -6 66 -18t39 -23z" />
    <glyph glyph-name="h" unicode="h" horiz-adv-x="314" 
d="M340 169q2 3 6 -1.5t3 -9.5q0 -3 -4 -29.5t-14 -57.5t-27 -56.5t-44 -25.5q-31 0 -47.5 25t-23.5 62t-6.5 80t2.5 80q5 74 13.5 110.5t9.5 49.5q-28 -18 -55.5 -64t-47.5 -125q-19 -72 -22 -117.5t-2 -65.5q2 -25 0 -27t-10.5 -1t-18 4t-19 7t-14.5 8q-3 2 -4 12t-1 30.5
t1.5 53t2.5 78.5q1 50 0.5 125.5t-0.5 169.5q0 83 -2 135.5t5 60.5q2 2 8.5 4.5t15.5 4.5t19 3.5t18 1.5q15 0 17 -5q1 -3 -2 -17t-8 -42t-10 -71t-8 -104q-2 -42 -3 -77t-2 -69t-0.5 -68.5t1.5 -74.5q25 83 60 151.5t83 110.5q10 1 20.5 0t19 -2.5t13.5 -3.5t4 -4
q-7 -18 -12.5 -51t-8.5 -72t-2.5 -79t5.5 -72.5t14.5 -53.5t24.5 -21q9 0 18 13.5t15.5 30.5t11.5 33.5t7 22.5z" />
    <glyph glyph-name="i" unicode="i" horiz-adv-x="139" 
d="M57 494q-19 0 -32.5 13t-13.5 32q0 18 13.5 31t32.5 13q20 0 33 -13t13 -31q0 -19 -13 -32t-33 -13zM166 157q-1 -6 -6.5 -31.5t-17 -53.5t-27.5 -50t-38 -22q-24 0 -37 18.5t-19 50.5t-6.5 75t-0.5 92q0 23 0.5 49t1 48.5t0.5 39.5v23q-1 16 8.5 20t26.5 8q8 2 16 3.5
t15 1.5q11 0 10 -7q-1 -5 -5 -17.5t-8.5 -34.5t-8.5 -55.5t-6 -81.5q-1 -31 0.5 -59t6 -49.5t11.5 -34t16 -12.5q12 0 21.5 12t17 27.5t12 30.5t5.5 20q2 3 6.5 0t5.5 -11z" />
    <glyph glyph-name="j" unicode="j" horiz-adv-x="102" 
d="M-90 -325q32 0 50.5 25t28.5 64t13.5 85t4.5 88v23q-29 -8 -57 -27q-24 -16 -40 -41t-26 -53.5t-12.5 -57.5t0.5 -52.5t13 -38.5t25 -15zM79 -14q37 -5 65.5 -17t39.5 -23q5 -6 8.5 -15t5 -17.5t1 -14.5t-3.5 -6q-30 26 -58.5 43.5t-57.5 24.5q1 -13 1 -25.5v-25.5
q1 -77 -6.5 -128t-24 -81t-43 -42.5t-63.5 -12.5q-33 0 -57 14.5t-38.5 38t-20.5 53t-2.5 61t16 61t34.5 52.5q29 31 63.5 45t69.5 18q2 67 3 130t2 115q0 27 -0.5 53t-0.5 47.5t-0.5 38t-0.5 23.5q-1 16 8.5 20t26.5 8q8 2 15.5 3t13.5 1q13 0 12 -7q0 -3 -2.5 -15.5
t-5 -36t-4.5 -60t-2 -88.5q0 -19 1 -50.5t2 -65.5t2 -66t1 -53zM50 494q-20 0 -33 13t-13 32q0 18 13 31t33 13q19 0 32.5 -13t13.5 -31q0 -19 -13.5 -32t-32.5 -13z" />
    <glyph glyph-name="k" unicode="k" horiz-adv-x="294" 
d="M247 -10q-35 0 -65 21.5t-54 52t-41.5 65t-27.5 60.5q1 -8 1 -16v-16q1 -29 4 -56.5t6 -50t4.5 -37t-0.5 -16.5t-10.5 -1t-18 4t-19.5 7t-15 8q-3 2 -4 12t-0.5 30.5t1.5 53t2 78.5q2 50 1.5 125.5t-0.5 169.5q0 83 -2 135.5t5 60.5q2 2 8.5 4.5t15.5 4.5t19 3.5t18 1.5
q15 0 17 -5q1 -3 -2 -17t-8 -42t-10 -71t-8 -104q-3 -63 -4.5 -113t-1.5 -104q13 20 35.5 51t46.5 61t46 53t34 26q16 0 27 -3.5t17 -7.5t7.5 -8t-0.5 -5q-22 -7 -49.5 -28t-54.5 -47.5t-50 -53t-38 -44.5q18 -46 46.5 -80t57 -57.5t54 -36.5t37.5 -18q11 10 17 21.5t9 6.5
q2 -34 -14.5 -56t-38.5 -22z" />
    <glyph glyph-name="l" unicode="l" horiz-adv-x="128" 
d="M140 168q3 3 7.5 0t4.5 -11q0 -6 -3.5 -31.5t-12.5 -53.5t-24.5 -50t-39.5 -22q-27 0 -41.5 19t-21.5 59t-8 100.5t-1 142.5q1 105 1 172.5t0.5 108t2 58t4.5 21.5q2 2 8.5 4.5t15.5 4.5t19 3.5t18 1.5q15 0 17 -5q1 -3 -2 -18t-8 -42.5t-10 -68.5t-8 -97
q-2 -37 -3 -66.5t-2 -57.5t-0.5 -57t1.5 -65q1 -30 3 -55t6.5 -44t11 -29.5t15.5 -10.5q12 0 21 12t15 27.5t9.5 30t4.5 19.5z" />
    <glyph glyph-name="m" unicode="m" horiz-adv-x="418" 
d="M438 168q3 3 7.5 0t4.5 -11q0 -4 -2.5 -19t-7 -35t-11.5 -42.5t-17 -41t-22 -30.5t-28 -12q-23 0 -36 20.5t-19 55t-7 79.5t-1 94v38t0.5 40t1 38t0.5 31q-11 -26 -24 -70t-27 -109q-10 -49 -16.5 -83.5t-13 -56t-14.5 -31.5t-23 -10q-28 0 -38 38.5t-11 118.5
q-1 77 1.5 133t4.5 78q-25 -50 -40 -107t-23.5 -108t-11.5 -90.5t-3 -54.5q2 -17 -2 -19q-6 -3 -16.5 -1t-20 6t-16.5 9t-6 8q5 32 5.5 75t-0.5 100q-2 79 -3 128.5t-2 66.5q0 17 9 21.5t28 9.5q8 2 16 3.5t15 1.5q12 0 11 -8q-19 -59 -24.5 -123.5t-5.5 -125.5
q11 42 23.5 81t24.5 70.5t23 53t18 30.5q7 5 25.5 8t32.5 3q17 0 17 -4q-15 -37 -20.5 -86t-5 -96t5.5 -85.5t9 -55.5q17 81 32.5 137.5t28.5 93.5t23 57t15 28q2 5 10 9t18.5 6.5t20.5 4t16 1.5q11 0 10 -7q-1 -5 -5.5 -22t-9 -41.5t-8.5 -56t-5 -66.5q-1 -77 10 -117.5
t28 -40.5q12 0 21.5 12t15.5 27.5t9.5 30.5t4.5 20z" />
    <glyph glyph-name="n" unicode="n" horiz-adv-x="270" 
d="M280 168q3 3 7.5 0t5.5 -11q-1 -6 -6 -34.5t-15 -59.5t-25.5 -56t-38.5 -25q-25 0 -39.5 19t-21 52t-8 77t-0.5 94q1 35 0.5 67t-1.5 52q-28 -69 -43 -129t-22 -106q-8 -53 -9 -98q0 -7 -3.5 -8.5t-8.5 -1.5q-7 0 -16 2.5t-16.5 6.5t-12.5 8t-5 7q5 32 6 75t-1 100
q-1 79 -2 128.5t-2 66.5t8 21.5t29 9.5q8 2 16 3.5t15 1.5q11 0 10 -8q-7 -24 -17.5 -83t-12.5 -145v-34.5t1 -30.5q14 56 28 99t26 74t21 48.5t11 21.5q2 7 9.5 11.5t18 7.5t20.5 4t16 1q13 0 12 -7q-3 -11 -11.5 -53t-11.5 -111q-1 -31 1 -58t6.5 -46.5t11 -31t15.5 -11.5
q12 0 21.5 12t16.5 27.5t11.5 30.5t5.5 20z" />
    <glyph glyph-name="o" unicode="o" horiz-adv-x="312" 
d="M165 34q43 0 66 58h-5q-36 0 -63.5 12.5t-46.5 33t-30 45.5t-16 50q-2 -42 4.5 -78t19 -63t31 -42.5t40.5 -15.5zM144 405q-17 0 -28.5 -11.5t-18 -30t-7.5 -42.5t3 -49q4 -22 14.5 -48t28.5 -49t44 -38.5t60 -15.5q3 14 5 31t2 37q0 35 -8 73.5t-22.5 70t-33 52
t-39.5 20.5zM352 169q3 2 7.5 0t2.5 -7q-2 -4 -9.5 -13.5t-20 -20t-31 -19.5t-42.5 -14q-16 -46 -47.5 -72.5t-74.5 -26.5q-31 0 -56.5 15t-43.5 41.5t-28 63t-10 79.5q0 44 6.5 78.5t15.5 59.5t19 41t17 22q4 3 19.5 6.5t26.5 2.5q11 12 25.5 19t35.5 7q29 0 50.5 -21.5
t35 -55.5t19.5 -77t6 -86q0 -34 -8 -68q21 3 36.5 10t26 14.5t16 14t6.5 7.5z" />
    <glyph glyph-name="p" unicode="p" horiz-adv-x="276" 
d="M98 27q35 0 55.5 50.5t21.5 135.5q1 83 -14.5 133t-40.5 50q-17 0 -30.5 -21t-23 -51t-16.5 -63.5t-11 -57.5q0 -10 -1 -15q-1 -17 -1.5 -34t-1.5 -33q3 -14 8.5 -30.5t13.5 -30.5t18 -23.5t23 -9.5zM141 429q50 -1 79.5 -54t27.5 -170q-1 -59 -11.5 -98.5t-28 -63
t-40.5 -33.5t-49 -10q-18 0 -32 6.5t-24 17t-16.5 22.5t-11.5 24q1 -48 3.5 -95t4.5 -101t5 -90t6 -57t4 -30.5t-1 -11.5t-12 -1t-22 4t-23 7t-16 7q-3 2 -4 6t-1 17t1 38t2 69t2.5 110.5t1.5 161.5q0 73 -0.5 123.5t-1 84.5t-0.5 53.5v29.5t1 14t3 6q3 4 22.5 8.5t34.5 4.5
q12 0 13 -4q1 -3 0 -7.5t-3.5 -15t-5 -29.5t-4.5 -51q6 22 15 41.5t21 34.5t27 23.5t33 8.5z" />
    <glyph glyph-name="q" unicode="q" horiz-adv-x="283" 
d="M128 45q9 0 17.5 13.5t16 34t14 46.5t11.5 50.5t8.5 45t5.5 31.5q0 6 1 9q-5 20 -11 41.5t-12.5 39t-13 29t-13.5 11.5q-10 0 -20 -12.5t-19 -34.5t-15.5 -51.5t-8.5 -63.5q-2 -33 -2 -67t4 -61t13 -44t24 -17zM242 79q1 -57 5.5 -111.5t14 -100t25.5 -79.5t40 -52
q2 -17 -15.5 -29t-40.5 -12q-14 0 -26.5 5t-22.5 17q-18 22 -25.5 66t-8.5 97.5t1.5 110t4.5 102.5q1 23 1.5 41.5t1.5 35.5q-6 -29 -13.5 -59t-19 -55t-26.5 -40.5t-36 -15.5q-15 0 -31 10.5t-28.5 33t-20 59t-6.5 87.5q1 47 8.5 90t22.5 76t37 52.5t52 19.5q23 0 38 -21
t25 -50q-5 34 -10 47.5t-3 17.5q2 3 8.5 4t14.5 1q17 0 34 -4.5t22 -15.5q3 -9 -1 -35t-9.5 -67.5t-9.5 -98t-3 -127.5z" />
    <glyph glyph-name="r" unicode="r" horiz-adv-x="231" 
d="M253 168q2 3 7.5 0.5t3.5 -11.5q0 -1 -1.5 -13t-5 -29.5t-9.5 -37.5t-15.5 -37t-23 -28.5t-32.5 -11.5q-21 0 -36 10t-24.5 35t-14.5 66t-5 102q-1 66 2.5 115t5.5 72q-13 -5 -25.5 -11t-18.5 -10q-2 -34 -7.5 -84.5t-17 -102t-29 -96.5t-43.5 -69q-10 -2 -13 3.5t0 8.5
q4 4 24.5 39t37.5 107q8 35 13 67t7.5 57t3 41.5t0.5 20.5q-10 -4 -20 -4q-8 0 -16 3t-14.5 11t-9.5 22t0 36q3 30 10.5 49t16 29.5t17.5 14t16 3.5q16 -1 23 -36t1 -104q23 11 33.5 15t15.5 6q7 3 23 7t27 5t15 0t4 -3t-4 -18t-8.5 -44t-7.5 -66t-2 -85q2 -39 7 -64.5
t11.5 -41t13.5 -21.5t12 -6q12 0 26.5 20t25.5 69z" />
    <glyph glyph-name="s" unicode="s" horiz-adv-x="298" 
d="M84 369q-4 -29 -12 -75t-23 -97q31 11 63.5 13.5t62.5 0.5q-23 55 -48.5 95t-42.5 63zM200 36q14 9 12.5 47t-29.5 110q-12 2 -23.5 2h-21.5q-32 0 -55.5 -4.5t-38.5 -10.5q-4 -13 -8 -25t-9 -24q11 -16 29.5 -33t41 -31.5t45.5 -24t42 -9.5q11 0 15 3zM315 182
q4 -1 8 -5t7 -8.5t3.5 -8t-4.5 -3.5q-18 7 -34.5 11.5t-32.5 9.5q11 -25 18 -48.5t9 -47.5t-5 -40t-19 -25t-26.5 -13t-29.5 -4q-41 0 -72.5 12.5t-55 30.5t-38.5 37t-24 32q-11 -25 -24.5 -47.5t-29.5 -40.5q-5 -5 -9.5 -2t-2.5 6q29 39 53 106q-7 16 -4 28t11 20
q2 1 4.5 2t5.5 3q14 47 24 100.5t17 110.5q1 7 10 13t20 10t22.5 6t17.5 2q13 0 13 -5q-1 -11 17.5 -49.5t47.5 -95.5q11 -21 21 -40.5t19 -38.5q23 -5 39 -10t24 -8z" />
    <glyph glyph-name="t" unicode="t" horiz-adv-x="143" 
d="M247 475q2 0 1 -5.5t-7 -7.5q-35 -6 -80.5 -9.5t-91.5 -5.5q-2 -33 -3 -60.5t-2 -53.5t-0.5 -53.5t1.5 -61.5q1 -30 3.5 -55t6.5 -44t10.5 -29.5t15.5 -10.5q12 0 21 12t15 27.5t10 30t5 19.5q2 3 6.5 0t5.5 -11q-1 -6 -4.5 -31.5t-12 -53.5t-24 -50t-39.5 -22
q-27 0 -41.5 19t-21.5 59t-8.5 100.5t-0.5 142.5v124h-56.5t-46.5 0.5t-31.5 2t-12.5 2.5q0 2 4 8.5t10 13t12.5 12t9.5 6.5q48 -12 111 -17q0 58 0.5 96.5t1 62.5t1.5 35t4 14q4 5 24.5 9.5t37.5 4.5q14 0 16 -5q1 -3 -2 -17.5t-7.5 -41.5t-9.5 -67.5t-8 -94.5
q75 -2 124.5 1.5t52.5 4.5z" />
    <glyph glyph-name="u" unicode="u" horiz-adv-x="285" 
d="M306 168q3 3 7.5 0t5.5 -11q-1 -6 -5.5 -31.5t-14.5 -53.5t-25.5 -50t-38.5 -22q-22 0 -36 14.5t-21.5 40.5t-10 61t-2.5 77q-7 -42 -14 -77t-16 -61t-22 -40.5t-32 -14.5q-24 0 -39.5 14t-24.5 37t-12.5 51.5t-4.5 58.5t0 58t1 49q0 51 1 87t1 46q-1 11 6.5 16t26.5 8
q8 1 17 2t17 1q9 0 10 -2q2 -3 -0.5 -10.5t-7.5 -24t-10.5 -46t-8.5 -77.5q-3 -42 -1.5 -77.5t7.5 -61t16 -39.5t23 -14q20 0 33 38t23 93q5 27 7 47.5t3.5 37.5t2 31.5t1.5 30.5v42q-1 16 8.5 20t26.5 8q8 2 16 3.5t15 1.5q11 0 10 -7q-1 -5 -5.5 -21.5t-9 -41t-8 -56
t-4.5 -67.5q-1 -31 1 -59.5t6.5 -50.5t11 -35t15.5 -13q12 0 21.5 12t16.5 27.5t11.5 30.5t5.5 20z" />
    <glyph glyph-name="v" unicode="v" horiz-adv-x="266" 
d="M180 409q-1 4 5 9.5t15 10t19.5 7.5t18.5 3q11 0 14 -6q6 -12 6 -40t-3 -64t-9 -76t-13 -76q-6 -36 -17.5 -75t-28.5 -67q-8 -14 -20 -27.5t-25 -13.5q-24 0 -42.5 14t-32 37t-23 52.5t-16 59.5t-10.5 58l-7 49q-8 51 -8.5 89t-2.5 48q-1 11 6 15.5t24 8.5q6 2 13.5 3
t13.5 1q8 0 11 -3q2 -3 0.5 -17t-4 -36t-4 -51t1.5 -61q3 -43 12 -79.5t21 -63t26 -41.5t27 -15q11 0 20.5 13.5t17 33t12.5 40.5t7 37q10 70 5 128t-30 95z" />
    <glyph glyph-name="w" unicode="w" horiz-adv-x="385" 
d="M358 430q7 -12 10.5 -38.5t4.5 -61.5t0.5 -75t-2.5 -78q-1 -27 -5.5 -59t-14 -59.5t-24 -46t-36.5 -18.5q-21 0 -37.5 20.5t-29 50.5t-21.5 64.5t-15 62.5q-4 17 -7 33t-6 31q-1 -15 -3 -40t-6 -53.5t-10 -57.5t-16 -52.5t-23.5 -38t-31.5 -14.5q-24 0 -39.5 14t-24.5 37
t-13 51.5t-4.5 58.5t0 58t0.5 49q1 51 2 87t0 46q-1 11 6.5 16t27.5 8q8 1 17 2t17 1q9 0 10 -2q2 -3 -0.5 -10.5t-7.5 -24t-10.5 -46t-9.5 -77.5q-3 -42 -1 -78.5t8 -63t16 -41.5t23 -15q11 0 19.5 11t15.5 30t12 43.5t8 52.5q3 24 4 42t1.5 33.5t1 29.5t0.5 29q1 4 8.5 10
t17.5 10.5t19.5 7.5t13.5 1q2 -1 1.5 -7t-1 -20t-0.5 -37.5t3 -61.5q3 -29 9.5 -60.5t16.5 -57.5t21.5 -42.5t24.5 -16.5t21 11.5t13 29.5t7.5 39t2.5 39q1 72 -11.5 128t-41.5 92q-1 4 4.5 9.5t14 10t18.5 7.5t18 3q11 0 14 -6z" />
    <glyph glyph-name="x" unicode="x" horiz-adv-x="332" 
d="M164 236q23 -50 44 -84t40 -55.5t37 -32t35 -12.5q1 -4 -1 -12.5t-8 -17.5t-16.5 -15.5t-26.5 -6.5q-20 0 -36 15.5t-31 42t-30.5 61t-33.5 72.5q-15 -27 -29.5 -54t-25 -52.5t-16.5 -49t-5 -41.5q-4 -3 -11 -3q-13 0 -28.5 9.5t-17.5 23.5q-1 10 10 32t28.5 49.5t39 58
t40.5 57.5q-27 53 -46.5 86.5t-32.5 53t-19 27.5t-6 11q0 7 8 12.5t19 9t22 5.5t17 2q10 0 10 -4q4 -20 19 -63.5t39 -97.5q18 26 33.5 51.5t28 48t21.5 39.5t13 26q3 5 17 5t28 -4t12 -9q-2 -4 -14.5 -18t-32 -37t-44 -55t-50.5 -74z" />
    <glyph glyph-name="y" unicode="y" horiz-adv-x="266" 
d="M72 -325q32 0 51 25t28.5 64t13 85t4.5 88v11t1 12q-28 -7 -58 -27q-23 -16 -39.5 -41t-26 -53.5t-12.5 -57.5t0 -52.5t13 -38.5t25 -15zM242 -39q0 -13 0.5 -25.5t0.5 -25.5q1 -77 -6.5 -128t-24.5 -81t-43.5 -42.5t-63.5 -12.5q-33 0 -57 14.5t-38.5 38t-20 53t-2 61
t16 61t33.5 52.5q29 31 63.5 45t69.5 18q2 40 2.5 78t1.5 74q-5 -30 -12 -55.5t-16.5 -44.5t-21.5 -30t-28 -11q-24 0 -39.5 14t-24.5 37t-13 51.5t-4.5 58.5t0 58t0.5 49q1 51 2 87t0 46q-1 11 6.5 16t27.5 8q8 1 17 2t17 1q9 0 10 -2q2 -3 -0.5 -10.5t-7.5 -24t-10.5 -46
t-9.5 -77.5q-3 -42 -1 -77.5t8 -61t16 -39.5t23 -14q14 0 23.5 14.5t16 37t11 50t6.5 54t3 48.5t2 34q-1 29 -1 51v31q-1 16 8 20t27 8q7 2 14.5 3t14.5 1q13 0 12 -7q-1 -3 -3.5 -15.5t-5 -36t-4.5 -60t-2 -88.5q0 -19 1 -50.5t2 -65.5t2 -66t1 -53q38 -5 66 -17t39 -23
q5 -6 9 -15.5t5.5 -18.5t0.5 -15t-6 -4q-29 26 -56.5 43.5t-56.5 24.5z" />
    <glyph glyph-name="z" unicode="z" horiz-adv-x="324" 
d="M294 47q5 -4 9 -11.5t6 -15t2 -13t-4 -7.5q-29 15 -56.5 21t-53.5 6t-49.5 -4t-42 -9.5t-32 -9.5t-19.5 -4t-16.5 7t-20 15t-16 16t-4.5 11q26 35 61 81t71 94t69.5 93t57.5 77q-3 0 -4 -1q-48 -8 -83.5 -19t-67.5 -11q-12 0 -26 3q-12 2 -19 12t-10 21.5t-2 20t5 8.5
q8 -2 37.5 -6t68.5 -4q28 0 56 2.5t55 8.5q9 -5 16 -16.5t5 -16.5t-16 -26.5t-33.5 -52.5t-42 -67.5t-44 -70t-38.5 -60t-24 -38.5q45 6 77 6q33 0 56 -5t37.5 -11.5t22.5 -13.5t12 -10z" />
    <glyph glyph-name="braceleft" unicode="{" horiz-adv-x="220" 
d="M107 511q0 -24 -1.5 -52.5t-7.5 -56t-17.5 -51.5t-31.5 -40q20 -16 31.5 -40.5t17.5 -52t7.5 -56t1.5 -52.5q1 -29 2 -57t3.5 -52t8 -42.5t14.5 -27.5q8 -8 21 -8q8 0 14.5 2t8.5 2q3 -4 5 -15t-6 -16q-3 -3 -9 -3q-11 0 -27 10t-27 24q-25 34 -35.5 88t-11.5 120
q-1 29 -4.5 56t-9.5 50.5t-14.5 41.5t-17.5 28q9 10 17.5 28t14.5 41t9.5 50.5t4.5 55.5q1 66 11.5 120t35.5 88q11 15 27 24.5t27 9.5q5 0 9 -2q4 -3 5 -7.5t0.5 -9.5t-1.5 -9t-3 -6q-2 0 -8 2t-14 2q-6 0 -11.5 -1.5t-10.5 -6.5q-9 -9 -14.5 -27.5t-8 -42.5t-3.5 -52
t-2 -57z" />
    <glyph glyph-name="bar" unicode="|" horiz-adv-x="205" 
d="M115 498q0 -14 0.5 -50t1.5 -83t2 -99.5t2.5 -100t2 -84t1.5 -50.5q0 -22 1.5 -44.5t2.5 -40.5t1.5 -30.5t-0.5 -14.5t-8 0t-15 7t-14.5 12t-7.5 14q1 7 2 35.5t2 70t2 92l2 101t1 96.5v80q0 51 -0.5 102t-1.5 93.5t-1.5 72t-1.5 36.5q0 5 3.5 13t8.5 16t11.5 14.5
t13.5 6.5q2 -1 0.5 -26t-4 -63t-5 -85t-2.5 -91z" />
    <glyph glyph-name="braceright" unicode="}" horiz-adv-x="231" 
d="M153 486q0 -28 4 -55.5t10 -50.5t14.5 -41t17.5 -28q-9 -10 -17.5 -28t-14.5 -41.5t-10 -50.5t-4 -56q-1 -66 -11.5 -120t-35.5 -88q-11 -14 -27 -24t-27 -10q-6 0 -9 3q-8 5 -6 16t4 15q2 0 9 -2t15 -2q13 0 21 8q9 9 14.5 27.5t8 42.5t3 52t1.5 57q1 14 1.5 27t0.5 27
q3 56 20 93t36 54q-19 16 -36 53t-20 93q0 14 -0.5 27t-1.5 27q-1 29 -1.5 57t-3 52t-8 42.5t-14.5 27.5q-5 5 -10.5 6.5t-11.5 1.5q-8 0 -14.5 -2t-8.5 -2q-2 4 -4 15.5t6 16.5q4 2 9 2q11 0 27 -9.5t27 -24.5q25 -34 35.5 -88t11.5 -120z" />
    <glyph glyph-name="asciitilde" unicode="~" horiz-adv-x="469" 
d="M350 306q-1 3 7 3q6 0 14 -3.5t8 -11.5q0 -48 -19.5 -64.5t-46.5 -16.5q-15 0 -29 4t-33 12q-12 5 -27 12q-4 2 -8.5 4.5t-9.5 4.5q-19 9 -40 18t-36 9q-10 0 -15 -4q-8 -5 -7.5 -19.5t5.5 -37.5q2 -3 -7 -3q-7 0 -15 3.5t-8 11.5q0 48 20 64.5t47 16.5q23 0 46 -9
t43 -19q9 -5 21.5 -11.5t26 -12t26 -9.5t21.5 -4q10 0 14 4q8 6 7.5 20.5t-5.5 37.5z" />
    <glyph glyph-name="exclamdown" unicode="&#xa1;" horiz-adv-x="341" 
d="M169 388q2 -7 3 -37.5t2.5 -72t2.5 -87.5t2 -85q2 -45 3 -90t2 -82.5t2 -63.5t1 -33q2 -14 -9.5 -23t-31.5 -14q-10 -2 -21 -4.5t-19 -2.5q-12 0 -11 7q3 13 8.5 37.5t11.5 62.5t10.5 90.5t4.5 119.5q0 102 -3.5 159.5t-6.5 86t-4.5 36.5t0.5 12q1 2 9.5 1t18 -4
t17.5 -6.5t8 -6.5zM141 454q-23 0 -38.5 15.5t-15.5 37.5q0 23 15.5 38.5t38.5 15.5q22 0 37.5 -15.5t15.5 -38.5q0 -22 -15.5 -37.5t-37.5 -15.5z" />
    <glyph glyph-name="cent" unicode="&#xa2;" horiz-adv-x="400" 
d="M147 404q-10 -16 -17 -40t-9.5 -51.5t0 -55t12 -51t26.5 -39.5t43 -21l-1 303q-34 -11 -54 -45zM326 209q-1 -10 -7 -26.5t-18 -34.5t-31 -33.5t-46 -23.5v-34l-22 -18v48q-5 -1 -9.5 -1h-9.5q-30 0 -52 12.5t-36 31.5t-21 42t-9 43q-9 112 58 203q31 44 78 67v43l21 22
l1 -56q14 5 30 8.5t33 3.5q24 0 54 -8q5 -1 1 -10.5t-12 -20t-17.5 -19.5t-14.5 -9h-1q-41 16 -73 13v-307q62 2 89 84q0 2 2.5 0t5 -5.5t4.5 -7.5t2 -7z" />
    <glyph glyph-name="sterling" unicode="&#xa3;" horiz-adv-x="517" 
d="M259 122q37 0 69.5 5.5t58.5 14.5t44.5 21.5t27.5 26.5q3 0 4.5 -6.5t-0.5 -17t-9 -23t-21 -25.5q-29 -26 -69 -38.5t-78 -12.5q-25 0 -58 2t-65.5 4.5t-58.5 5t-37 3.5q-7 1 -5.5 10.5t8.5 21t18 20.5t22 9q2 0 10 -2.5t18 -4.5q12 -3 26 -6q50 51 35 176l-2 13h-111
l25 29h82q-3 92 53 151q57 60 146 60q20 0 37 -2.5t24 -5.5q6 -3 1.5 -13t-14 -20.5t-20.5 -18t-18 -4.5q-10 4 -30.5 10t-43.5 6q-17 0 -32.5 -5t-27.5 -17q-17 -17 -17 -46.5t5 -66.5l3 -28h131l-24 -29h-103l1 -9q8 -59 -5 -93q-3 -9 -10.5 -22t-17.5 -26t-21 -24.5
t-19 -17.5q17 -2 34 -3.5t34 -1.5z" />
    <glyph glyph-name="yen" unicode="&#xa5;" horiz-adv-x="517" 
d="M483 538q4 -1 0 -10t-11.5 -19.5t-16.5 -19t-16 -8.5q-7 1 -13 1.5t-11 0.5q-48 0 -79.5 -37.5t-54.5 -105.5h129l-21 -25h-113q-2 -11 -3 -24.5t-2 -30.5h139l-20 -24h-120q0 -16 -6 -45t-17.5 -57t-27.5 -49t-36 -21q-11 0 -26 3.5t-27.5 8t-19 9t-2.5 7.5
q32 19 51.5 38.5t30 38t14.5 35.5t4 32h-138l18 24h119q0 30 -7 55h-131l20 25h102l-4 10q-29 75 -56 107.5t-53 32.5q-18 0 -24.5 -12t-10.5 -37q-14 1 -17 14q-3 12 -1 27.5t10.5 29.5t24 24t38.5 10q41 0 86 -65q23 -33 39 -66t26 -75h8l5 13q14 43 32 78.5t40.5 61
t48.5 39.5t56 14q20 0 44 -8z" />
    <glyph glyph-name="brokenbar" unicode="&#xa6;" horiz-adv-x="159" 
d="M71 421q0 43 -0.5 84.5t-1.5 76t-1.5 58.5t-0.5 30q0 4 3 11t8.5 14.5t12 13t12.5 5.5q2 -1 0.5 -23t-3.5 -56.5t-4.5 -76t-2.5 -80.5v-57h-22zM98 281q1 -31 1.5 -59.5t1 -52.5t1 -42t0.5 -27q0 -20 1.5 -40t2.5 -36.5t1.5 -28t-0.5 -13.5t-8 -0.5t-15 6t-14.5 11
t-7.5 13.5q1 6 2 32t2 63.5t2 82.5t2 91h28z" />
    <glyph glyph-name="dieresis" unicode="&#xa8;" horiz-adv-x="309" 
d="M101 694q19 0 31.5 -12.5t12.5 -31.5q0 -18 -12.5 -31t-31.5 -13q-18 0 -31 13t-13 31q0 19 13 31.5t31 12.5zM213 694q18 0 31 -12.5t13 -31.5q0 -18 -13 -31t-31 -13t-31 13t-13 31q0 19 13 31.5t31 12.5z" />
    <glyph glyph-name="copyright" unicode="&#xa9;" horiz-adv-x="533" 
d="M274 115q37 0 69.5 14t56.5 38t38 56.5t14 69.5t-14 69.5t-38 57t-56.5 38.5t-69.5 14t-69.5 -14t-57 -38.5t-38.5 -57t-14 -69.5t14 -69.5t38.5 -56.5t57 -38t69.5 -14zM325 390q-27 9 -46 9q-20 0 -34.5 -9t-23.5 -24q-10 -18 -15.5 -48t-1.5 -59t20 -50t47 -21
q45 0 64 57q1 3 5.5 -2.5t3.5 -10.5q-1 -8 -6 -22t-16.5 -28t-30 -24.5t-45.5 -10.5q-21 0 -36 8.5t-24.5 22t-14.5 29t-6 29.5q-6 78 40 140q19 26 47.5 43t64.5 17q9 0 18 -1.5t19 -3.5q3 -1 0.5 -7.5t-8 -14t-12 -13.5t-9.5 -6zM274 490q41 0 76.5 -15.5t62 -42t42 -62.5
t15.5 -77q0 -40 -15.5 -76t-42 -62.5t-62 -42t-76.5 -15.5t-77 15.5t-62.5 42t-42 62.5t-15.5 76q0 41 15.5 77t42 62.5t62.5 42t77 15.5z" />
    <glyph glyph-name="guillemotleft" unicode="&#xab;" horiz-adv-x="512" 
d="M270 278q12 -8 29.5 -17.5t36.5 -18t38 -14t34 -5.5t30 3.5t21 10.5q4 -14 3 -25q-1 -10 -6.5 -18t-21.5 -9q-15 0 -41 9.5t-65 28.5q-9 4 -22.5 11t-27 13.5t-25.5 12t-18 7.5q-5 2 -10 7.5t-9 12.5t-7 16q52 4 91.5 18t66.5 30t40.5 30.5t13.5 18.5q3 3 9 3
q9 0 20.5 -9t10.5 -26q-2 -27 -50.5 -47t-140.5 -43zM90 278q12 -8 29 -17.5t36 -18t38 -14t34 -5.5t30 3.5t22 10.5q4 -14 3 -25q-1 -10 -6.5 -18t-21.5 -9q-15 0 -41 9.5t-66 28.5q-9 4 -22 11t-26.5 13.5t-25.5 12t-19 7.5q-5 2 -9.5 7.5t-8.5 12.5t-8 16q52 4 92 18
t67 30t40.5 30.5t12.5 18.5q3 3 9 3q10 0 21.5 -9t9.5 -26q-1 -27 -50 -47t-140 -43z" />
    <glyph glyph-name="registered" unicode="&#xae;" horiz-adv-x="557" 
d="M281 109q39 0 73.5 15t60 40.5t40 59.5t14.5 73t-14.5 73.5t-40 60t-60 40.5t-73.5 15t-73.5 -15t-60 -40.5t-40.5 -60t-15 -73.5t15 -73t40.5 -59.5t60 -40.5t73.5 -15zM293 302q32 24 27 59q-6 51 -81 51l1 -110q8 -1 15 -1.5t13 -0.5t12 0.5t13 1.5zM281 505
q43 0 80.5 -16.5t65.5 -44.5t44.5 -66t16.5 -81t-16.5 -80.5t-44.5 -65.5t-65.5 -44.5t-80.5 -16.5t-81 16.5t-66 44.5t-44.5 65.5t-16.5 80.5t16.5 81t44.5 66t66 44.5t81 16.5zM304 296q33 -51 57 -70t38 -19q11 0 13 9q7 -4 7 -8q0 -3 -1.5 -11t-6 -16t-11.5 -14.5
t-18 -6.5q-12 0 -28 16t-31.5 37.5t-28.5 42t-18 29.5h-36v-12l1 -22q0 -7 -0.5 -21t-1.5 -29t-3 -27t-6 -14q-2 -1 -9.5 0t-15 3.5t-13.5 5t-5 4.5q15 32 20 73t5 78q0 43 -4 87q-6 -2 -14 -6q-3 -1 -6 8.5t-1 10.5q11 4 30 5.5t33 1.5q94 0 101 -60q5 -44 -47 -75z" />
    <glyph glyph-name="macron" unicode="&#xaf;" horiz-adv-x="327" 
d="M82 672h167l-14 -30h-167z" />
    <glyph glyph-name="degree" unicode="&#xb0;" horiz-adv-x="273" 
d="M136 692q32 0 52 -20t20 -50q0 -32 -20 -51t-52 -19t-52 19t-20 51q0 30 20 50t52 20zM136 574q23 0 34.5 11t11.5 37q0 48 -46 48q-47 0 -47 -48q0 -26 12 -37t35 -11z" />
    <glyph glyph-name="acute" unicode="&#xb4;" horiz-adv-x="181" 
d="M132 694q2 2 3.5 -4.5t1.5 -8.5q0 -6 -7.5 -16.5t-20.5 -21.5t-31 -21t-38 -17q-3 0 -3 5.5t2 13t6.5 14t10.5 9.5q22 8 44.5 22t31.5 25z" />
    <glyph glyph-name="periodcentered" unicode="&#xb7;" horiz-adv-x="231" 
d="M116 259q22 0 37.5 -15.5t15.5 -37.5q0 -23 -15.5 -38.5t-37.5 -15.5q-23 0 -38.5 15.5t-15.5 38.5q0 22 15.5 37.5t38.5 15.5z" />
    <glyph glyph-name="cedilla" unicode="&#xb8;" horiz-adv-x="292" 
d="M132 -72q29 -6 46.5 -22t17.5 -42t-28.5 -51t-91.5 -34q-6 3 -8 9t-2 12t1.5 11t3.5 6q14 -9 36 -9q19 0 35 9.5t16 34.5q0 15 -7 24t-17 13.5t-20.5 5.5t-18.5 0l-2 1l47 77h21z" />
    <glyph glyph-name="guillemotright" unicode="&#xbb;" horiz-adv-x="541" 
d="M320 303q-3 -9 -7 -16t-8.5 -12.5t-9.5 -7.5q-7 -2 -19 -7.5t-25.5 -12t-27 -13.5t-22.5 -11q-39 -19 -65 -28.5t-41 -9.5q-15 1 -21 9t-7 18q-1 11 3 25q6 -7 21 -10.5t30 -3.5t34 5.5t38 14t36.5 18t29.5 17.5q-91 23 -140 43t-51 47q-1 17 10.5 26t20.5 9q6 0 9 -3
q0 -4 13.5 -18.5t40.5 -30.5t66.5 -30t91.5 -18zM289 400q-1 -4 12.5 -18.5t40.5 -30.5t67 -30t92 -18q-4 -9 -8 -16q-3 -7 -8 -12.5t-10 -7.5q-7 -2 -19 -7.5t-25.5 -12t-26.5 -13.5t-22 -11q-40 -19 -66 -28.5t-41 -9.5q-15 1 -21 9t-7 18q-1 11 3 25q7 -7 22 -10.5
t30 -3.5t34 5.5t38 14t36.5 18t29.5 17.5q-92 23 -141 43t-50 47q-2 17 9.5 26t21.5 9q6 0 9 -3z" />
    <glyph glyph-name="questiondown" unicode="&#xbf;" horiz-adv-x="494" 
d="M349 188q10 4 26 -0.5t32.5 -16.5t29.5 -31t16 -46q5 -45 -3.5 -84t-27.5 -70.5t-46 -54t-59 -34.5q-34 -12 -71 -12q-48 0 -92.5 19.5t-75 56t-41 87.5t11.5 114q8 24 28 42t45.5 35t54 36.5t53.5 47.5q14 16 18.5 35.5t3 39t-6 36t-7.5 25.5q-2 5 10 5q7 0 17 -2.5
t19 -7t16.5 -11.5t8.5 -17q1 -9 1 -24t-5.5 -32.5t-17 -35.5t-33.5 -32q-64 -41 -101 -87t-46 -103q-8 -53 1 -91.5t29 -63t47.5 -36.5t56.5 -12q30 0 57 12q54 24 76 76t14 119q-3 29 -10.5 50.5t-14.5 36t-11.5 22t-2.5 9.5zM273 500q-22 0 -37.5 15t-15.5 38
q0 22 15.5 37.5t37.5 15.5q23 0 38 -15.5t15 -37.5q0 -23 -15 -38t-38 -15z" />
    <glyph glyph-name="Agrave" unicode="&#xc0;" horiz-adv-x="395" 
d="M106 246q40 -1 71.5 0t51.5 3q-1 6 -1 12v11q-5 103 -6 187.5t4 143.5q-9 -18 -25.5 -54.5t-35 -84.5t-35 -104.5t-24.5 -113.5zM265 607q-2 -16 -1.5 -58.5t4.5 -98t12 -119.5t20 -124.5t29.5 -112t40.5 -81.5q1 -4 -2.5 -10.5t-10 -12.5t-16 -10.5t-21.5 -4.5
q-10 0 -23 5q-21 9 -34 33t-19.5 58.5t-9.5 77t-5 87.5q-28 -4 -60 -6.5t-66 -4.5q-8 -74 1 -127.5t28 -72.5q-4 -12 -16 -18.5t-27 -6.5q-16 0 -31.5 8.5t-23.5 27.5q-7 16 -8 37.5t3 46t11.5 51t15.5 52.5q-36 -1 -68.5 -1t-57.5 0.5t-40.5 2t-16.5 2.5q0 2 4 8.5t10 13
t12.5 12t10.5 6.5q26 -7 59 -12t68 -7q7 0 13.5 -0.5t13.5 -0.5q6 19 12 36t11 32q11 34 21 67.5t18.5 63.5t15 55.5t10.5 44.5q8 42 10.5 70.5t8.5 37.5q5 8 16.5 14.5t25.5 11.5t27.5 7.5t23.5 2.5q11 0 13 -2t-3 -23t-9 -58zM198 795q8 -22 22 -44.5t25 -31.5
q2 -2 -4.5 -3.5t-8.5 -1.5q-6 0 -16.5 7.5t-21.5 20.5t-21 31t-17 38q0 3 7 3q8 0 19.5 -5t15.5 -14z" />
    <glyph glyph-name="Aacute" unicode="&#xc1;" horiz-adv-x="395" 
d="M106 246q40 -1 71.5 0t51.5 3q-1 6 -1 12v11q-5 103 -6 187.5t4 143.5q-9 -18 -25.5 -54.5t-35 -84.5t-35 -104.5t-24.5 -113.5zM265 607q-2 -16 -1.5 -58.5t4.5 -98t12 -119.5t20 -124.5t29.5 -112t40.5 -81.5q1 -4 -2.5 -10.5t-10 -12.5t-16 -10.5t-21.5 -4.5
q-10 0 -23 5q-21 9 -34 33t-19.5 58.5t-9.5 77t-5 87.5q-28 -4 -60 -6.5t-66 -4.5q-8 -74 1 -127.5t28 -72.5q-4 -12 -16 -18.5t-27 -6.5q-16 0 -31.5 8.5t-23.5 27.5q-7 16 -8 37.5t3 46t11.5 51t15.5 52.5q-36 -1 -68.5 -1t-57.5 0.5t-40.5 2t-16.5 2.5q0 2 4 8.5t10 13
t12.5 12t10.5 6.5q26 -7 59 -12t68 -7q7 0 13.5 -0.5t13.5 -0.5q6 19 12 36t11 32q11 34 21 67.5t18.5 63.5t15 55.5t10.5 44.5q8 42 10.5 70.5t8.5 37.5q5 8 16.5 14.5t25.5 11.5t27.5 7.5t23.5 2.5q11 0 13 -2t-3 -23t-9 -58zM228 756q22 8 44.5 22t31.5 25q2 2 3.5 -4
t1.5 -9q0 -6 -7.5 -16.5t-20.5 -21.5t-31 -21t-38 -17q-3 0 -3 5.5t2 13t6.5 14t10.5 9.5z" />
    <glyph glyph-name="Acircumflex" unicode="&#xc2;" horiz-adv-x="395" 
d="M106 246q40 -1 71.5 0t51.5 3q-1 6 -1 12v11q-5 103 -6 187.5t4 143.5q-9 -18 -25.5 -54.5t-35 -84.5t-35 -104.5t-24.5 -113.5zM265 607q-2 -16 -1.5 -58.5t4.5 -98t12 -119.5t20 -124.5t29.5 -112t40.5 -81.5q1 -4 -2.5 -10.5t-10 -12.5t-16 -10.5t-21.5 -4.5
q-10 0 -23 5q-21 9 -34 33t-19.5 58.5t-9.5 77t-5 87.5q-28 -4 -60 -6.5t-66 -4.5q-8 -74 1 -127.5t28 -72.5q-4 -12 -16 -18.5t-27 -6.5q-16 0 -31.5 8.5t-23.5 27.5q-7 16 -8 37.5t3 46t11.5 51t15.5 52.5q-36 -1 -68.5 -1t-57.5 0.5t-40.5 2t-16.5 2.5q0 2 4 8.5t10 13
t12.5 12t10.5 6.5q26 -7 59 -12t68 -7q7 0 13.5 -0.5t13.5 -0.5q6 19 12 36t11 32q11 34 21 67.5t18.5 63.5t15 55.5t10.5 44.5q8 42 10.5 70.5t8.5 37.5q5 8 16.5 14.5t25.5 11.5t27.5 7.5t23.5 2.5q11 0 13 -2t-3 -23t-9 -58zM285 714q-24 0 -33 16.5t-11 37.5h-4
q-7 -23 -28 -38t-44 -15q-13 0 -22 4q-1 1 0.5 6t5 10.5t7.5 10t7 4.5q9 -2 21 0.5t22.5 8.5t17 16.5t4.5 23.5q0 2 4.5 2.5t10 1t10 0t4.5 -1.5q0 -30 11 -41.5t22 -11.5q6 0 11 3t6 8q4 0 6 -7t0.5 -15.5t-8 -15.5t-20.5 -7z" />
    <glyph glyph-name="Atilde" unicode="&#xc3;" horiz-adv-x="395" 
d="M106 246q40 -1 71.5 0t51.5 3q-1 6 -1 12v11q-5 103 -6 187.5t4 143.5q-9 -18 -25.5 -54.5t-35 -84.5t-35 -104.5t-24.5 -113.5zM265 607q-2 -16 -1.5 -58.5t4.5 -98t12 -119.5t20 -124.5t29.5 -112t40.5 -81.5q1 -4 -2.5 -10.5t-10 -12.5t-16 -10.5t-21.5 -4.5
q-10 0 -23 5q-21 9 -34 33t-19.5 58.5t-9.5 77t-5 87.5q-28 -4 -60 -6.5t-66 -4.5q-8 -74 1 -127.5t28 -72.5q-4 -12 -16 -18.5t-27 -6.5q-16 0 -31.5 8.5t-23.5 27.5q-7 16 -8 37.5t3 46t11.5 51t15.5 52.5q-36 -1 -68.5 -1t-57.5 0.5t-40.5 2t-16.5 2.5q0 2 4 8.5t10 13
t12.5 12t10.5 6.5q26 -7 59 -12t68 -7q7 0 13.5 -0.5t13.5 -0.5q6 19 12 36t11 32q11 34 21 67.5t18.5 63.5t15 55.5t10.5 44.5q8 42 10.5 70.5t8.5 37.5q5 8 16.5 14.5t25.5 11.5t27.5 7.5t23.5 2.5q11 0 13 -2t-3 -23t-9 -58zM299 782q0 1 2.5 1.5t6 -0.5t6.5 -3t3 -7
q0 -35 -12 -47t-29 -12q-12 0 -27.5 7.5t-31.5 16t-30.5 16t-23.5 7.5q-5 0 -8 -3q-7 -7 -1 -42q0 -1 -2.5 -1.5t-6 0t-6.5 3t-3 6.5q0 35 12 47t29 12q12 0 27 -7t31 -16t30 -16t24 -7q6 0 9 3q5 4 4.5 14.5t-3.5 27.5z" />
    <glyph glyph-name="Adieresis" unicode="&#xc4;" horiz-adv-x="395" 
d="M106 246q40 -1 71.5 0t51.5 3q-1 6 -1 12v11q-5 103 -6 187.5t4 143.5q-9 -18 -25.5 -54.5t-35 -84.5t-35 -104.5t-24.5 -113.5zM265 607q-2 -16 -1.5 -58.5t4.5 -98t12 -119.5t20 -124.5t29.5 -112t40.5 -81.5q1 -4 -2.5 -10.5t-10 -12.5t-16 -10.5t-21.5 -4.5
q-10 0 -23 5q-21 9 -34 33t-19.5 58.5t-9.5 77t-5 87.5q-28 -4 -60 -6.5t-66 -4.5q-8 -74 1 -127.5t28 -72.5q-4 -12 -16 -18.5t-27 -6.5q-16 0 -31.5 8.5t-23.5 27.5q-7 16 -8 37.5t3 46t11.5 51t15.5 52.5q-36 -1 -68.5 -1t-57.5 0.5t-40.5 2t-16.5 2.5q0 2 4 8.5t10 13
t12.5 12t10.5 6.5q26 -7 59 -12t68 -7q7 0 13.5 -0.5t13.5 -0.5q6 19 12 36t11 32q11 34 21 67.5t18.5 63.5t15 55.5t10.5 44.5q8 42 10.5 70.5t8.5 37.5q5 8 16.5 14.5t25.5 11.5t27.5 7.5t23.5 2.5q11 0 13 -2t-3 -23t-9 -58zM166 805q19 0 31.5 -13t12.5 -31
q0 -19 -12.5 -31.5t-31.5 -12.5q-18 0 -31 12.5t-13 31.5q0 18 13 31t31 13zM278 805q18 0 31 -13t13 -31q0 -19 -13 -31.5t-31 -12.5t-31 12.5t-13 31.5q0 18 13 31t31 13z" />
    <glyph glyph-name="Aring" unicode="&#xc5;" horiz-adv-x="395" 
d="M106 246q40 -1 71.5 0t51.5 3q-1 6 -1 12v11q-5 103 -6 187.5t4 143.5q-9 -18 -25.5 -54.5t-35 -84.5t-35 -104.5t-24.5 -113.5zM226 730q32 0 32 33q0 34 -32 34t-32 -34q0 -33 32 -33zM265 607q-2 -16 -1.5 -58.5t4.5 -98t12 -119.5t20 -124.5t29.5 -112t40.5 -81.5
q1 -4 -2.5 -10.5t-10 -12.5t-16 -10.5t-21.5 -4.5q-10 0 -23 5q-21 9 -34 33t-19.5 58.5t-9.5 77t-5 87.5q-28 -4 -60 -6.5t-66 -4.5q-8 -74 1 -127.5t28 -72.5q-4 -12 -16 -18.5t-27 -6.5q-16 0 -31.5 8.5t-23.5 27.5q-7 16 -8 37.5t3 46t11.5 51t15.5 52.5
q-36 -1 -68.5 -1t-57.5 0.5t-40.5 2t-16.5 2.5q0 2 4 8.5t10 13t12.5 12t10.5 6.5q26 -7 59 -12t68 -7q7 0 13.5 -0.5t13.5 -0.5q6 19 12 36t11 32q11 34 21 67.5t18.5 63.5t15 55.5t10.5 44.5q8 42 10.5 70.5t8.5 37.5q5 8 16.5 14.5t25.5 11.5t27.5 7.5t23.5 2.5
q11 0 13 -2t-3 -23t-9 -58zM226 812q23 0 36.5 -14t13.5 -35q0 -22 -13.5 -35t-36.5 -13q-22 0 -36 13t-14 35q0 21 14 35t36 14z" />
    <glyph glyph-name="AE" unicode="&#xc6;" horiz-adv-x="692" 
d="M283 309q6 -45 14 -88.5t19 -82.5q11 17 26 30t30.5 23t30.5 16.5t26 10.5q-20 1 -41 6.5t-40.5 16.5t-36 27.5t-28.5 40.5zM106 245q40 -1 71.5 0t51.5 3q-1 6 -1 12v12q-5 103 -6 187.5t4 143.5q-9 -18 -25.5 -54.5t-35 -85t-35 -105t-24.5 -113.5zM718 198
q5 2 8.5 -5.5t4.5 -10.5q-11 -50 -36 -90.5t-61 -69.5t-81 -44.5t-95 -15.5q-30 0 -57 6t-48 18q-14 -11 -34 -11q-11 0 -22 4q-21 9 -34 33t-19.5 58.5t-9.5 77t-5 88.5q-28 -5 -60 -7.5t-66 -4.5q-8 -74 1 -127.5t28 -72.5q-4 -11 -16.5 -18t-26.5 -7q-16 0 -31.5 8.5
t-23.5 27.5q-7 16 -8 37.5t3 46t11.5 51t15.5 52.5q-36 -1 -68.5 -1t-57.5 0.5t-40.5 2t-16.5 2.5q0 2 4 8.5t10 13t12.5 12t10.5 6.5q26 -6 59 -11t68 -7q7 -1 13.5 -1t13.5 -1q6 19 12 36t11 32q21 69 39 131t26 100q8 42 10.5 70.5t8.5 37.5q5 8 17 14.5t25.5 11.5
t27.5 8t24 3t12 -2q2 -3 -3 -24t-9 -58q-2 -16 -1.5 -55.5t4.5 -93.5q9 53 33 95.5t57 73.5t72.5 47.5t78.5 16.5q42 0 64 -17t32 -39t11.5 -44t1.5 -33q6 41 3 74.5t-6 52.5q5 8 25.5 14.5t36.5 6.5q9 0 13 -3q3 -3 -8 -24t-20 -75q-7 -36 -11.5 -73t-6.5 -72.5t0 -68
t9 -58.5q-5 -8 -22 -8q-14 0 -30 5.5t-23 13.5q2 15 6 41.5t7 58t4 65.5t-2 63.5t-11.5 51t-24.5 29.5q-10 5 -27 5q-35 0 -77.5 -31t-75.5 -94q-17 -34 -26 -72.5t-8.5 -75.5t10.5 -67.5t31 -47.5q30 -26 70 -26q25 0 49 11t42 32q4 0 5.5 -9.5t1.5 -21.5t-0.5 -23
t-0.5 -16q-1 -7 -12.5 -6.5t-30.5 0.5h-10.5t-11.5 -1q-18 -1 -39.5 -8t-39.5 -20t-29 -33t-8 -48q3 -23 14.5 -38.5t29 -25.5t38 -14t41.5 -4q43 0 72 13q38 17 63.5 37t42 42t27.5 44.5t20 44.5z" />
    <glyph glyph-name="Ccedilla" unicode="&#xc7;" horiz-adv-x="404" 
d="M208 -64q29 -6 46 -21.5t17 -41.5t-28 -51.5t-91 -34.5q-6 3 -8.5 9t-2.5 12.5t2 11.5t4 5q14 -9 36 -9q19 0 35 9.5t16 34.5q0 15 -7 24t-17 13.5t-20.5 5.5t-18.5 0l-2 2l42 68q-49 5 -84.5 28.5t-59 62.5t-35 91t-12.5 114q-1 47 3.5 96.5t14.5 97t26.5 89.5t41.5 74
t58 50.5t75 18.5q26 0 48.5 -9t38.5 -31.5t25 -60t9 -93.5q0 -36 1.5 -66.5t3 -53.5t2 -37t-0.5 -17q-2 -2 -12 -2q-12 0 -29 6t-27 25q-7 13 -9 31t-0.5 37.5t7 38t14.5 31.5q2 29 -0.5 61t-11 59t-23 45t-36.5 18q-27 0 -47.5 -19.5t-35.5 -52t-24 -74.5t-14 -87
t-6.5 -89.5t-0.5 -81.5q1 -49 9 -92t24.5 -75t42.5 -50.5t63 -18.5q27 0 52 13.5t46.5 36t40 50.5t31.5 57q6 4 9 -1.5t0 -16.5q-1 -4 -6 -20.5t-14.5 -39t-25 -48t-36.5 -47t-49 -35.5t-63 -14h-4z" />
    <glyph glyph-name="Egrave" unicode="&#xc8;" horiz-adv-x="431" 
d="M452 199q5 2 8.5 -5.5t4.5 -10.5q-10 -50 -35.5 -90.5t-61.5 -69.5t-81 -45t-96 -16q-33 0 -62 8t-51 23t-34 36t-12 47q0 33 15 57.5t36 41.5t43 27.5t37 15.5q-28 2 -57.5 12.5t-53.5 32.5t-39.5 56.5t-15.5 85.5q0 63 22 115.5t57.5 90.5t79.5 59t87 21q42 0 64 -17
t32 -39t11.5 -44t1.5 -33q6 41 3 74.5t-6 51.5q2 4 9.5 7.5t17 6.5t19.5 5t17 2q10 0 12 -2t-0.5 -7.5t-7 -17t-10 -29.5t-10.5 -45q-7 -36 -11.5 -73t-6.5 -72.5t0 -68t9 -58.5q-4 -8 -22 -8q-14 0 -30 5t-23 13q2 15 6 41.5t7 58.5t4 66t-2 63t-11.5 51t-24.5 29
q-12 6 -27 6q-35 0 -77.5 -31t-75.5 -95q-17 -33 -26 -72t-8.5 -75.5t10.5 -67t31 -48.5q31 -25 69 -25q26 0 50 11t42 31q4 0 5.5 -9t1.5 -21t-0.5 -23t-0.5 -16q-1 -8 -14 -7t-34 1q-4 0 -8 -0.5t-9 -0.5q-18 -1 -39.5 -8t-39.5 -20t-29 -33t-8 -49q3 -23 14.5 -38.5
t28.5 -25t38 -13.5t42 -4q43 0 72 13q38 17 63.5 37t42 42t27.5 44.5t20 44.5zM208 795q8 -22 22 -44.5t25 -31.5q2 -2 -4.5 -3.5t-8.5 -1.5q-6 0 -16.5 7.5t-21.5 20.5t-21 31t-17 38q0 3 7 3q8 0 19.5 -5t15.5 -14z" />
    <glyph glyph-name="Eacute" unicode="&#xc9;" horiz-adv-x="431" 
d="M452 199q5 2 8.5 -5.5t4.5 -10.5q-10 -50 -35.5 -90.5t-61.5 -69.5t-81 -45t-96 -16q-33 0 -62 8t-51 23t-34 36t-12 47q0 33 15 57.5t36 41.5t43 27.5t37 15.5q-28 2 -57.5 12.5t-53.5 32.5t-39.5 56.5t-15.5 85.5q0 63 22 115.5t57.5 90.5t79.5 59t87 21q42 0 64 -17
t32 -39t11.5 -44t1.5 -33q6 41 3 74.5t-6 51.5q2 4 9.5 7.5t17 6.5t19.5 5t17 2q10 0 12 -2t-0.5 -7.5t-7 -17t-10 -29.5t-10.5 -45q-7 -36 -11.5 -73t-6.5 -72.5t0 -68t9 -58.5q-4 -8 -22 -8q-14 0 -30 5t-23 13q2 15 6 41.5t7 58.5t4 66t-2 63t-11.5 51t-24.5 29
q-12 6 -27 6q-35 0 -77.5 -31t-75.5 -95q-17 -33 -26 -72t-8.5 -75.5t10.5 -67t31 -48.5q31 -25 69 -25q26 0 50 11t42 31q4 0 5.5 -9t1.5 -21t-0.5 -23t-0.5 -16q-1 -8 -14 -7t-34 1q-4 0 -8 -0.5t-9 -0.5q-18 -1 -39.5 -8t-39.5 -20t-29 -33t-8 -49q3 -23 14.5 -38.5
t28.5 -25t38 -13.5t42 -4q43 0 72 13q38 17 63.5 37t42 42t27.5 44.5t20 44.5zM295 803q2 2 3 -4.5t1 -8.5q0 -6 -7.5 -16.5t-20.5 -21.5t-31 -21t-38 -17q-3 0 -3 5.5t2 13t6.5 14t10.5 9.5q22 8 44.5 22t32.5 25z" />
    <glyph glyph-name="Ecircumflex" unicode="&#xca;" horiz-adv-x="431" 
d="M452 199q5 2 8.5 -5.5t4.5 -10.5q-10 -50 -35.5 -90.5t-61.5 -69.5t-81 -45t-96 -16q-33 0 -62 8t-51 23t-34 36t-12 47q0 33 15 57.5t36 41.5t43 27.5t37 15.5q-28 2 -57.5 12.5t-53.5 32.5t-39.5 56.5t-15.5 85.5q0 63 22 115.5t57.5 90.5t79.5 59t87 21q42 0 64 -17
t32 -39t11.5 -44t1.5 -33q6 41 3 74.5t-6 51.5q2 4 9.5 7.5t17 6.5t19.5 5t17 2q10 0 12 -2t-0.5 -7.5t-7 -17t-10 -29.5t-10.5 -45q-7 -36 -11.5 -73t-6.5 -72.5t0 -68t9 -58.5q-4 -8 -22 -8q-14 0 -30 5t-23 13q2 15 6 41.5t7 58.5t4 66t-2 63t-11.5 51t-24.5 29
q-12 6 -27 6q-35 0 -77.5 -31t-75.5 -95q-17 -33 -26 -72t-8.5 -75.5t10.5 -67t31 -48.5q31 -25 69 -25q26 0 50 11t42 31q4 0 5.5 -9t1.5 -21t-0.5 -23t-0.5 -16q-1 -8 -14 -7t-34 1q-4 0 -8 -0.5t-9 -0.5q-18 -1 -39.5 -8t-39.5 -20t-29 -33t-8 -49q3 -23 14.5 -38.5
t28.5 -25t38 -13.5t42 -4q43 0 72 13q38 17 63.5 37t42 42t27.5 44.5t20 44.5zM295 714q-24 0 -33 16.5t-11 37.5h-4q-7 -23 -28 -38t-44 -15q-13 0 -22 4q-1 1 0.5 6t5 10.5t7.5 10t7 4.5q9 -2 21 0.5t22.5 8.5t17 16.5t4.5 23.5q0 2 4.5 2.5t10 1t10 0t4.5 -1.5
q0 -30 11 -41.5t22 -11.5q6 0 11 3t6 8q4 0 6 -7t0.5 -15.5t-8 -15.5t-20.5 -7z" />
    <glyph glyph-name="Edieresis" unicode="&#xcb;" horiz-adv-x="431" 
d="M452 199q5 2 8.5 -5.5t4.5 -10.5q-10 -50 -35.5 -90.5t-61.5 -69.5t-81 -45t-96 -16q-33 0 -62 8t-51 23t-34 36t-12 47q0 33 15 57.5t36 41.5t43 27.5t37 15.5q-28 2 -57.5 12.5t-53.5 32.5t-39.5 56.5t-15.5 85.5q0 63 22 115.5t57.5 90.5t79.5 59t87 21q42 0 64 -17
t32 -39t11.5 -44t1.5 -33q6 41 3 74.5t-6 51.5q2 4 9.5 7.5t17 6.5t19.5 5t17 2q10 0 12 -2t-0.5 -7.5t-7 -17t-10 -29.5t-10.5 -45q-7 -36 -11.5 -73t-6.5 -72.5t0 -68t9 -58.5q-4 -8 -22 -8q-14 0 -30 5t-23 13q2 15 6 41.5t7 58.5t4 66t-2 63t-11.5 51t-24.5 29
q-12 6 -27 6q-35 0 -77.5 -31t-75.5 -95q-17 -33 -26 -72t-8.5 -75.5t10.5 -67t31 -48.5q31 -25 69 -25q26 0 50 11t42 31q4 0 5.5 -9t1.5 -21t-0.5 -23t-0.5 -16q-1 -8 -14 -7t-34 1q-4 0 -8 -0.5t-9 -0.5q-18 -1 -39.5 -8t-39.5 -20t-29 -33t-8 -49q3 -23 14.5 -38.5
t28.5 -25t38 -13.5t42 -4q43 0 72 13q38 17 63.5 37t42 42t27.5 44.5t20 44.5zM187 799q18 0 31 -13t13 -31q0 -19 -13 -31.5t-31 -12.5q-19 0 -32 12.5t-13 31.5q0 18 13 31t32 13zM298 799q19 0 31.5 -13t12.5 -31q0 -19 -12.5 -31.5t-31.5 -12.5q-18 0 -31 12.5t-13 31.5
q0 18 13 31t31 13z" />
    <glyph glyph-name="Igrave" unicode="&#xcc;" horiz-adv-x="136" 
d="M70 408q-6 -97 -3 -171.5t12 -127.5q5 -28 10.5 -47.5t11 -32t9.5 -18.5t5 -8q-3 -5 -10.5 -9t-25.5 -4q-22 0 -34.5 11.5t-18.5 29t-7 38t-1 37.5v35.5t0.5 54t1 63.5t1 62.5t1 53t1.5 33.5q0 16 1 37.5t2 44t1.5 43.5t0.5 36v34.5t-0.5 22.5t-1 15t-0.5 12
q-1 20 7.5 25t18.5 7t27.5 4.5t23.5 0.5q7 -1 5 -10.5t-6 -29.5q-5 -24 -16 -85.5t-16 -156.5zM51 809q8 -22 22 -44.5t25 -31.5q2 -2 -4.5 -3.5t-8.5 -1.5q-6 0 -16.5 7.5t-21.5 20.5t-21 31t-17 38q0 3 7 3q8 0 19.5 -5t15.5 -14z" />
    <glyph glyph-name="Iacute" unicode="&#xcd;" horiz-adv-x="136" 
d="M70 408q-6 -97 -3 -171.5t12 -127.5q5 -28 10.5 -47.5t11 -32t9.5 -18.5t5 -8q-3 -5 -10.5 -9t-25.5 -4q-22 0 -34.5 11.5t-18.5 29t-7 38t-1 37.5v35.5t0.5 54t1 63.5t1 62.5t1 53t1.5 33.5q0 16 1 37.5t2 44t1.5 43.5t0.5 36v34.5t-0.5 22.5t-1 15t-0.5 12
q-1 20 7.5 25t18.5 7t27.5 4.5t23.5 0.5q7 -1 5 -10.5t-6 -29.5q-5 -24 -16 -85.5t-16 -156.5zM147 817q2 2 3 -4.5t1 -8.5q0 -6 -7.5 -16.5t-20.5 -21.5t-31 -21t-38 -17q-3 0 -3 5.5t2 13t6.5 14t10.5 9.5q22 8 44.5 22t32.5 25z" />
    <glyph glyph-name="Icircumflex" unicode="&#xce;" horiz-adv-x="136" 
d="M70 408q-6 -97 -3 -171.5t12 -127.5q5 -28 10.5 -47.5t11 -32t9.5 -18.5t5 -8q-3 -5 -10.5 -9t-25.5 -4q-22 0 -34.5 11.5t-18.5 29t-7 38t-1 37.5v35.5t0.5 54t1 63.5t1 62.5t1 53t1.5 33.5q0 16 1 37.5t2 44t1.5 43.5t0.5 36v34.5t-0.5 22.5t-1 15t-0.5 12
q-1 20 7.5 25t18.5 7t27.5 4.5t23.5 0.5q7 -1 5 -10.5t-6 -29.5q-5 -24 -16 -85.5t-16 -156.5zM113 714q-5 1 -11.5 3t-13 8t-11.5 16t-7 27h-3q-9 -30 -30 -40.5t-40 -10.5q-14 0 -21 3q-2 0 0 3.5t5.5 7.5t7.5 7t7 3q16 -2 33 3t27 32q5 12 5 24q0 1 4.5 2t10 1.5t10 0
t4.5 -1.5q0 -35 9.5 -52t21.5 -17q6 0 11.5 5t7.5 12q6 -1 6 -6q1 -3 -0.5 -8.5t-5 -10.5t-10.5 -8.5t-17 -2.5z" />
    <glyph glyph-name="Idieresis" unicode="&#xcf;" horiz-adv-x="136" 
d="M70 408q-6 -97 -3 -171.5t12 -127.5q5 -28 10.5 -47.5t11 -32t9.5 -18.5t5 -8q-3 -5 -10.5 -9t-25.5 -4q-22 0 -34.5 11.5t-18.5 29t-7 38t-1 37.5v35.5t0.5 54t1 63.5t1 62.5t1 53t1.5 33.5q0 16 1 37.5t2 44t1.5 43.5t0.5 36v34.5t-0.5 22.5t-1 15t-0.5 12
q-1 20 7.5 25t18.5 7t27.5 4.5t23.5 0.5q7 -1 5 -10.5t-6 -29.5q-5 -24 -16 -85.5t-16 -156.5zM15 799q18 0 31 -13t13 -31q0 -19 -13 -31.5t-31 -12.5q-19 0 -31.5 12.5t-12.5 31.5q0 18 12.5 31t31.5 13zM127 799q18 0 31 -13t13 -31q0 -19 -13 -31.5t-31 -12.5
q-19 0 -32 12.5t-13 31.5q0 18 13 31t32 13z" />
    <glyph glyph-name="Eth" unicode="&#xd0;" horiz-adv-x="557" 
d="M209 311q6 -3 10.5 -9.5t7.5 -14t3.5 -14t-3.5 -8.5q-13 2 -44 4.5t-67 2.5q0 -33 1.5 -68.5t6 -70.5t14.5 -68t27 -62q-3 -5 -9 -8h9q32 0 75 15t84.5 55t74.5 109.5t46 178.5q9 72 5.5 127.5t-15.5 93.5t-30.5 58.5t-40.5 24.5q-7 1 -13.5 1.5t-13.5 0.5
q-53 0 -103.5 -21.5t-93.5 -50.5q-13 -69 -18.5 -140.5t-5.5 -142.5q26 2 42.5 3.5t26.5 3t15 2t9 -1.5zM70 302q1 36 1.5 65t0.5 41q1 26 2.5 65.5t2.5 71.5q-37 -26 -65.5 -51.5t-47.5 -48.5q-4 -4 -9 -4q-13 0 -11 40q0 13 2 24.5t9 23.5t19 24.5t33 26.5q14 9 31.5 19
t38.5 21q-1 12 -1 19v14q-1 20 7.5 25t18.5 7q9 2 26.5 4.5t24.5 0.5q6 -1 5 -10t-6 -27q42 17 87 27t88 10q47 0 86 -24t65.5 -67.5t39 -103.5t7.5 -133q-6 -84 -31.5 -157.5t-69 -127.5t-104.5 -85.5t-137 -31.5q-60 0 -93 12t-48.5 27t-18.5 28.5t-3 17.5q-2 8 2.5 26
t15.5 26q5 0 12.5 -17t22.5 -37q-4 16 -4.5 32.5t-1.5 30.5v26t0.5 39.5t1 48t0.5 50.5q-23 -1 -43 -2.5t-49 -6.5q-3 0 -7.5 5.5t-8 13t-5.5 14.5t1 10q2 2 13 2q14 0 39.5 -2t60.5 -2z" />
    <glyph glyph-name="Ntilde" unicode="&#xd1;" horiz-adv-x="428" 
d="M365 714q19 4 36.5 -1.5t31 -14.5t20.5 -20t5 -17q-39 -22 -60 -70t-31.5 -106t-12.5 -119t-3 -108q0 -41 1 -85.5t2.5 -82t2 -63t-1.5 -29.5q-3 -5 -11.5 -7t-19.5 -2q-18 0 -36 4t-20 7q-58 93 -94.5 187t-57 171.5t-28.5 131t-9 66.5q-1 -4 -1 -8v-9q-2 -27 -4 -70
t-2.5 -93.5t2 -105.5t9.5 -105t19.5 -92t31.5 -67q-2 -7 -14 -12t-28 -5q-18 0 -36 9.5t-27 32.5q-11 32 -7.5 88t4.5 132q1 43 1.5 94.5t0.5 105t-1.5 105.5t-5.5 95q0 5 7 10.5t17.5 11t22.5 9.5t21 5q14 3 26 3q11 0 19.5 -3t13.5 -9q-13 -68 -11 -139t14.5 -138.5
t32.5 -128.5t43 -110.5t45.5 -85t40.5 -50.5q-1 16 -4 46t-6.5 69.5t-7.5 86.5t-7 98q-6 86 -2.5 155.5t14 119t27.5 78.5t38 35zM289 801q0 2 2.5 2t6 -0.5t6.5 -3t3 -7.5q0 -35 -12 -47t-29 -12q-9 0 -17.5 3t-20.5 10q-4 2 -7.5 3.5t-8.5 4.5l-5 2.5t-6 3.5
q-11 7 -24 13.5t-23 6.5q-6 0 -9 -3q-5 -4 -4.5 -14.5t3.5 -27.5q0 -1 -2.5 -1.5t-6 0.5t-6.5 3.5t-3 6.5q0 35 12 47t29 12q9 0 17.5 -3t20.5 -9q4 -2 7.5 -4t8.5 -4q2 -2 5 -3.5t6 -3.5q11 -7 24.5 -13.5t22.5 -6.5q6 0 9 3q5 5 4.5 15t-3.5 27z" />
    <glyph glyph-name="Ograve" unicode="&#xd2;" horiz-adv-x="484" 
d="M396 176q5 23 7.5 54t1.5 56q-1 89 -17.5 159t-42 119t-56.5 74.5t-61 25.5q-20 0 -37.5 -16t-29.5 -46t-17 -74t0 -100q4 -46 17.5 -79.5t30 -55t32 -32t24.5 -11.5q2 -9 -7.5 -21t-31.5 -12q-29 1 -49 21.5t-32.5 51t-17.5 67.5t-5 71q-4 -42 -5 -76t2 -73
q8 -128 47 -185t102 -57q55 0 92.5 35.5t52.5 103.5zM262 708q51 0 89.5 -39.5t63 -102.5t35 -140.5t5.5 -152.5q-4 -68 -20 -123.5t-43.5 -95t-68 -61t-93.5 -21.5q-54 0 -92.5 25t-63.5 66.5t-37.5 95t-15.5 109.5q-3 68 -0.5 138.5t16 127t40.5 91.5t73 32q13 17 30 27
t33.5 15.5t29.5 7t19 1.5zM228 809q8 -22 22 -44.5t25 -31.5q2 -2 -4.5 -3.5t-8.5 -1.5q-6 0 -16.5 7.5t-21.5 20.5t-21 31t-17 38q0 3 7 3q8 0 19.5 -5t15.5 -14z" />
    <glyph glyph-name="Oacute" unicode="&#xd3;" horiz-adv-x="484" 
d="M396 176q5 23 7.5 54t1.5 56q-1 89 -17.5 159t-42 119t-56.5 74.5t-61 25.5q-20 0 -37.5 -16t-29.5 -46t-17 -74t0 -100q4 -46 17.5 -79.5t30 -55t32 -32t24.5 -11.5q2 -9 -7.5 -21t-31.5 -12q-29 1 -49 21.5t-32.5 51t-17.5 67.5t-5 71q-4 -42 -5 -76t2 -73
q8 -128 47 -185t102 -57q55 0 92.5 35.5t52.5 103.5zM262 708q51 0 89.5 -39.5t63 -102.5t35 -140.5t5.5 -152.5q-4 -68 -20 -123.5t-43.5 -95t-68 -61t-93.5 -21.5q-54 0 -92.5 25t-63.5 66.5t-37.5 95t-15.5 109.5q-3 68 -0.5 138.5t16 127t40.5 91.5t73 32q13 17 30 27
t33.5 15.5t29.5 7t19 1.5zM305 817q2 2 3 -4.5t1 -8.5q0 -6 -7.5 -16.5t-20.5 -21.5t-31 -21t-38 -17q-3 0 -3 5.5t2 13t6.5 14t10.5 9.5q22 8 44.5 22t32.5 25z" />
    <glyph glyph-name="Ocircumflex" unicode="&#xd4;" horiz-adv-x="484" 
d="M396 176q5 23 7.5 54t1.5 56q-1 89 -17.5 159t-42 119t-56.5 74.5t-61 25.5q-20 0 -37.5 -16t-29.5 -46t-17 -74t0 -100q4 -46 17.5 -79.5t30 -55t32 -32t24.5 -11.5q2 -9 -7.5 -21t-31.5 -12q-29 1 -49 21.5t-32.5 51t-17.5 67.5t-5 71q-4 -42 -5 -76t2 -73
q8 -128 47 -185t102 -57q55 0 92.5 35.5t52.5 103.5zM262 708q51 0 89.5 -39.5t63 -102.5t35 -140.5t5.5 -152.5q-4 -68 -20 -123.5t-43.5 -95t-68 -61t-93.5 -21.5q-54 0 -92.5 25t-63.5 66.5t-37.5 95t-15.5 109.5q-3 68 -0.5 138.5t16 127t40.5 91.5t73 32q13 17 30 27
t33.5 15.5t29.5 7t19 1.5zM305 728q-24 0 -33 16.5t-11 37.5h-4q-7 -23 -28 -38t-44 -15q-13 0 -22 4q-1 1 0.5 6t5 10.5t7.5 10t7 4.5q9 -2 21 0.5t22.5 8.5t17 16.5t4.5 23.5q0 2 4.5 2.5t10 1t10 0t4.5 -1.5q0 -30 11 -41.5t22 -11.5q6 0 11 3t6 8q4 0 6 -7t0.5 -15.5
t-8 -15.5t-20.5 -7z" />
    <glyph glyph-name="Otilde" unicode="&#xd5;" horiz-adv-x="484" 
d="M396 176q5 23 7.5 54t1.5 56q-1 89 -17.5 159t-42 119t-56.5 74.5t-61 25.5q-20 0 -37.5 -16t-29.5 -46t-17 -74t0 -100q4 -46 17.5 -79.5t30 -55t32 -32t24.5 -11.5q2 -9 -7.5 -21t-31.5 -12q-29 1 -49 21.5t-32.5 51t-17.5 67.5t-5 71q-4 -42 -5 -76t2 -73
q8 -128 47 -185t102 -57q55 0 92.5 35.5t52.5 103.5zM262 708q51 0 89.5 -39.5t63 -102.5t35 -140.5t5.5 -152.5q-4 -68 -20 -123.5t-43.5 -95t-68 -61t-93.5 -21.5q-54 0 -92.5 25t-63.5 66.5t-37.5 95t-15.5 109.5q-3 68 -0.5 138.5t16 127t40.5 91.5t73 32q13 17 30 27
t33.5 15.5t29.5 7t19 1.5zM312 796q0 1 2.5 1.5t6 -0.5t6.5 -3t3 -7q0 -35 -12 -47t-29 -12q-9 0 -18 2.5t-21 9.5q-3 2 -6.5 4t-8.5 4q-2 2 -5 3.5t-6 3.5h-1q-11 7 -24 13.5t-23 6.5q-6 0 -9 -3q-5 -5 -4 -15t4 -27q0 -3 -9.5 -1.5t-9.5 9.5q0 35 12 47t29 12
q10 0 18.5 -2.5t20.5 -9.5q4 -2 7.5 -4t8.5 -4q11 -7 29 -16.5t29 -9.5q6 0 9 3q5 4 4 14.5t-3 27.5z" />
    <glyph glyph-name="Odieresis" unicode="&#xd6;" horiz-adv-x="484" 
d="M396 176q5 23 7.5 54t1.5 56q-1 89 -17.5 159t-42 119t-56.5 74.5t-61 25.5q-20 0 -37.5 -16t-29.5 -46t-17 -74t0 -100q4 -46 17.5 -79.5t30 -55t32 -32t24.5 -11.5q2 -9 -7.5 -21t-31.5 -12q-29 1 -49 21.5t-32.5 51t-17.5 67.5t-5 71q-4 -42 -5 -76t2 -73
q8 -128 47 -185t102 -57q55 0 92.5 35.5t52.5 103.5zM262 708q51 0 89.5 -39.5t63 -102.5t35 -140.5t5.5 -152.5q-4 -68 -20 -123.5t-43.5 -95t-68 -61t-93.5 -21.5q-54 0 -92.5 25t-63.5 66.5t-37.5 95t-15.5 109.5q-3 68 -0.5 138.5t16 127t40.5 91.5t73 32q13 17 30 27
t33.5 15.5t29.5 7t19 1.5zM184 824q18 0 31 -12.5t13 -31.5q0 -18 -13 -31t-31 -13t-31 13t-13 31q0 19 13 31.5t31 12.5zM296 824q18 0 31 -12.5t13 -31.5q0 -18 -13 -31t-31 -13q-19 0 -32 13t-13 31q0 19 13 31.5t32 12.5z" />
    <glyph glyph-name="multiply" unicode="&#xd7;" horiz-adv-x="368" 
d="M274 444q3 2 10 2t14.5 -3t13.5 -7t9.5 -8.5t1.5 -7.5q-11 -7 -43.5 -31t-73.5 -62q44 -42 69.5 -63t28.5 -29q2 -6 1 -13.5t-4 -14.5t-7 -12t-7 -5q-5 6 -16.5 19t-26 29.5t-31 34t-30.5 31.5q-31 -31 -50.5 -52.5t-31.5 -36t-18 -23t-10 -13.5q-3 0 -7.5 4.5t-9 11
t-6.5 14t0 13.5q3 7 10.5 15t20.5 20t32.5 29t45.5 42l-26.5 26.5t-22.5 21t-21.5 18.5t-24.5 19q-2 2 -1 9t3 14.5t6 14t8 6.5q5 -1 11.5 -8t18 -20.5t29 -33t43.5 -45.5q14 14 28.5 29.5t27 29t22.5 23.5t14 12z" />
    <glyph glyph-name="Oslash" unicode="&#xd8;" horiz-adv-x="484" 
d="M192 220q-24 7 -41 28.5t-27.5 51t-14.5 63.5t-4 65q-4 -42 -5 -76t2 -73q4 -62 15 -106t29 -74q11 29 22.5 59.5t23.5 61.5zM324 600q-46 64 -96 64q-20 0 -37.5 -16t-29.5 -46t-17 -74t0 -100q5 -61 25.5 -99t41.5 -58q10 26 18 49t15 42q9 25 19 55l20.5 61.5t21 62.5
t19.5 59zM169 69q32 -32 82 -32q55 0 92.5 35.5t52.5 103.5q5 23 7.5 54t1.5 56q-2 94 -19.5 165.5t-44.5 120.5q-30 -78 -57.5 -156.5t-52.5 -158.5q10 -7 17 -7q2 -8 -5.5 -19t-24.5 -13q-13 -38 -25.5 -76t-23.5 -73zM361 707q2 5 10.5 7.5t16.5 2.5q10 0 10 -5
q-3 -5 -10 -22t-18 -43q24 -31 41.5 -74t28.5 -92.5t14.5 -102.5t0.5 -105q-4 -68 -20 -123.5t-43.5 -95t-68 -61t-93.5 -21.5q-48 0 -86 22q-8 -25 -13 -40.5t-6 -20.5q-3 -2 -8.5 0t-10 6.5t-7.5 11t-2 13.5q0 4 4.5 17.5t12.5 33.5q-46 41 -67.5 109t-25.5 144
q-3 68 -0.5 138.5t16 127t40.5 91.5t73 32q13 17 30 27t33.5 15.5t29.5 7t19 1.5q47 0 86 -36q9 27 13 35z" />
    <glyph glyph-name="Ugrave" unicode="&#xd9;" horiz-adv-x="402" 
d="M284 690q6 5 17.5 8t25.5 3q22 0 42 -6.5t23 -19.5q-29 -61 -44 -131t-19.5 -139.5t-0.5 -135t12 -118t19 -88t21 -45.5q1 -8 -13.5 -13t-31.5 -5q-15 0 -28.5 4.5t-19.5 15.5t-8 54t-3 110q-8 -42 -18.5 -78t-27 -61.5t-40.5 -40t-58 -14.5q-30 0 -49 20t-30 54t-15 78
t-4 93t3 99t6 95q4 59 2.5 102t-6 72.5t-9.5 47t-9 24.5q0 5 13.5 11t30.5 6q12 0 25 -5q26 -10 34 -44t7.5 -80t-6.5 -99.5t-9 -103.5q-3 -55 -2 -111.5t8 -101.5t21 -73.5t37 -28.5q13 0 25.5 17t22.5 42.5t18 55.5t12 56q4 23 6.5 55t5 68t4 72t3 65.5t2.5 49.5t2 24
q1 35 1.5 70t1.5 70zM168 809q8 -22 22 -44.5t25 -31.5q2 -2 -4.5 -3.5t-8.5 -1.5q-6 0 -16.5 7.5t-21.5 20.5t-21 31t-17 38q0 3 7 3q8 0 19.5 -5t15.5 -14z" />
    <glyph glyph-name="Uacute" unicode="&#xda;" horiz-adv-x="402" 
d="M284 690q6 5 17.5 8t25.5 3q22 0 42 -6.5t23 -19.5q-29 -61 -44 -131t-19.5 -139.5t-0.5 -135t12 -118t19 -88t21 -45.5q1 -8 -13.5 -13t-31.5 -5q-15 0 -28.5 4.5t-19.5 15.5t-8 54t-3 110q-8 -42 -18.5 -78t-27 -61.5t-40.5 -40t-58 -14.5q-30 0 -49 20t-30 54t-15 78
t-4 93t3 99t6 95q4 59 2.5 102t-6 72.5t-9.5 47t-9 24.5q0 5 13.5 11t30.5 6q12 0 25 -5q26 -10 34 -44t7.5 -80t-6.5 -99.5t-9 -103.5q-3 -55 -2 -111.5t8 -101.5t21 -73.5t37 -28.5q13 0 25.5 17t22.5 42.5t18 55.5t12 56q4 23 6.5 55t5 68t4 72t3 65.5t2.5 49.5t2 24
q1 35 1.5 70t1.5 70zM275 817q2 2 3 -4.5t1 -8.5q0 -6 -7.5 -16.5t-20.5 -21.5t-31 -21t-38 -17q-3 0 -3 5.5t2 13t6.5 14t10.5 9.5q22 8 44.5 22t32.5 25z" />
    <glyph glyph-name="Ucircumflex" unicode="&#xdb;" horiz-adv-x="402" 
d="M284 690q6 5 17.5 8t25.5 3q22 0 42 -6.5t23 -19.5q-29 -61 -44 -131t-19.5 -139.5t-0.5 -135t12 -118t19 -88t21 -45.5q1 -8 -13.5 -13t-31.5 -5q-15 0 -28.5 4.5t-19.5 15.5t-8 54t-3 110q-8 -42 -18.5 -78t-27 -61.5t-40.5 -40t-58 -14.5q-30 0 -49 20t-30 54t-15 78
t-4 93t3 99t6 95q4 59 2.5 102t-6 72.5t-9.5 47t-9 24.5q0 5 13.5 11t30.5 6q12 0 25 -5q26 -10 34 -44t7.5 -80t-6.5 -99.5t-9 -103.5q-3 -55 -2 -111.5t8 -101.5t21 -73.5t37 -28.5q13 0 25.5 17t22.5 42.5t18 55.5t12 56q4 23 6.5 55t5 68t4 72t3 65.5t2.5 49.5t2 24
q1 35 1.5 70t1.5 70zM254 714q-5 1 -11.5 3t-13 8t-11.5 16t-7 27h-3q-9 -30 -30 -40.5t-40 -10.5q-13 0 -21 3q-1 0 0.5 3.5t5 7.5t7.5 7t7 3q16 -2 32.5 3t27.5 32q5 12 5 24q0 1 4.5 2t10 1.5t10 0t4.5 -1.5q0 -35 9.5 -52t21.5 -17q6 0 11.5 5t7.5 12q6 -2 6 -6
q1 -3 -0.5 -8.5t-5 -10.5t-10.5 -8.5t-17 -2.5z" />
    <glyph glyph-name="Udieresis" unicode="&#xdc;" horiz-adv-x="402" 
d="M284 690q6 5 17.5 8t25.5 3q22 0 42 -6.5t23 -19.5q-29 -61 -44 -131t-19.5 -139.5t-0.5 -135t12 -118t19 -88t21 -45.5q1 -8 -13.5 -13t-31.5 -5q-15 0 -28.5 4.5t-19.5 15.5t-8 54t-3 110q-8 -42 -18.5 -78t-27 -61.5t-40.5 -40t-58 -14.5q-30 0 -49 20t-30 54t-15 78
t-4 93t3 99t6 95q4 59 2.5 102t-6 72.5t-9.5 47t-9 24.5q0 5 13.5 11t30.5 6q12 0 25 -5q26 -10 34 -44t7.5 -80t-6.5 -99.5t-9 -103.5q-3 -55 -2 -111.5t8 -101.5t21 -73.5t37 -28.5q13 0 25.5 17t22.5 42.5t18 55.5t12 56q4 23 6.5 55t5 68t4 72t3 65.5t2.5 49.5t2 24
q1 35 1.5 70t1.5 70zM145 824q18 0 31 -12.5t13 -31.5q0 -18 -13 -31t-31 -13q-19 0 -32 13t-13 31q0 19 13 31.5t32 12.5zM256 824q19 0 31.5 -12.5t12.5 -31.5q0 -18 -12.5 -31t-31.5 -13q-18 0 -31 13t-13 31q0 19 13 31.5t31 12.5z" />
    <glyph glyph-name="Yacute" unicode="&#xdd;" horiz-adv-x="465" 
d="M221 -201q24 17 41.5 41.5t30.5 53.5q-29 1 -60.5 -1t-65.5 -7q-73 -11 -116 -28.5t-63.5 -36.5t-23.5 -36.5t4 -28.5q4 -8 23.5 -14t50.5 -6q35 0 82 13.5t97 49.5zM498 -93q11 -5 18 -14.5t10 -19t1.5 -17t-7.5 -7.5q-8 3 -42 15.5t-90 21.5q-12 -50 -40 -87t-66 -61.5
t-84.5 -36.5t-95.5 -12q-43 0 -82 8.5t-68.5 23t-48 32.5t-19.5 37q-2 22 16.5 39t54 31t87.5 25t116 21q37 6 73.5 9t71.5 5q20 57 25 123.5t3 125.5q-17 -78 -37 -124t-42 -69t-44.5 -29.5t-45.5 -6.5q-48 0 -80 43.5t-37 126.5q-3 38 -3 86.5t2 105.5q3 95 -4.5 162.5
t-18 111t-21 66t-13.5 28.5q0 3 6 6.5t15.5 7t21.5 5.5t23 2q15 0 24 -4q21 -9 31 -37t14 -68.5t2.5 -91.5t-3.5 -105.5t-3.5 -109.5t2.5 -105q5 -75 26.5 -114.5t62.5 -39.5q32 0 52.5 33.5t33 85.5t17.5 116t5 125q-7 155 2.5 229t45.5 85q12 4 27 4q27 0 49.5 -13
t24.5 -30q-20 -25 -35 -57t-25 -73.5t-15.5 -94t-6.5 -120.5q0 -46 4 -96t8 -99.5t5 -98t-6 -93.5q41 -2 68 -5.5t35 -6.5zM228 770q22 8 44.5 22t31.5 25q2 2 3.5 -4t1.5 -9q0 -6 -7.5 -16.5t-20.5 -21.5t-31 -21t-38 -17q-3 0 -3 5.5t2 13t6.5 14t10.5 9.5z" />
    <glyph glyph-name="agrave" unicode="&#xe0;" 
d="M116 45q12 0 22 23t18.5 55t14.5 66t9 57v3q3 26 3 53q-4 18 -9.5 34.5t-11 30t-11 21.5t-11.5 8q-10 0 -20 -12.5t-19 -34.5t-15.5 -51.5t-8.5 -63.5q-2 -33 -1.5 -67t4.5 -61t12.5 -44t23.5 -17zM316 168q3 3 7.5 0t4.5 -11q0 -6 -6 -31.5t-17.5 -53.5t-27.5 -50
t-37 -22q-24 0 -37.5 20.5t-19.5 51t-7 66.5q-6 -25 -13 -50t-17.5 -44.5t-24 -31.5t-31.5 -12q-15 0 -31 10.5t-28.5 33t-20 59t-6.5 87.5q1 47 8.5 90t22.5 76t37 52.5t52 19.5q23 0 37.5 -20t24.5 -48v3q-1 16 5.5 20.5t24.5 8.5q8 2 15.5 3t13.5 1q13 0 12 -7
q-1 -6 -5.5 -20.5t-10 -34t-9.5 -42.5t-6 -44v-24q0 -31 2 -58t6.5 -46.5t11 -30.5t15.5 -11q12 0 21.5 12t16.5 27.5t11.5 30.5t5.5 20zM148 537q8 -22 22 -44.5t25 -31.5q2 -2 -4.5 -3.5t-8.5 -1.5q-6 0 -16.5 7.5t-21.5 20.5t-21 31t-17 38q0 3 7 3q8 0 19.5 -5t15.5 -14
z" />
    <glyph glyph-name="aacute" unicode="&#xe1;" 
d="M116 45q12 0 22 23t18.5 55t14.5 66t9 57v3q3 26 3 53q-4 18 -9.5 34.5t-11 30t-11 21.5t-11.5 8q-10 0 -20 -12.5t-19 -34.5t-15.5 -51.5t-8.5 -63.5q-2 -33 -1.5 -67t4.5 -61t12.5 -44t23.5 -17zM316 168q3 3 7.5 0t4.5 -11q0 -6 -6 -31.5t-17.5 -53.5t-27.5 -50
t-37 -22q-24 0 -37.5 20.5t-19.5 51t-7 66.5q-6 -25 -13 -50t-17.5 -44.5t-24 -31.5t-31.5 -12q-15 0 -31 10.5t-28.5 33t-20 59t-6.5 87.5q1 47 8.5 90t22.5 76t37 52.5t52 19.5q23 0 37.5 -20t24.5 -48v3q-1 16 5.5 20.5t24.5 8.5q8 2 15.5 3t13.5 1q13 0 12 -7
q-1 -6 -5.5 -20.5t-10 -34t-9.5 -42.5t-6 -44v-24q0 -31 2 -58t6.5 -46.5t11 -30.5t15.5 -11q12 0 21.5 12t16.5 27.5t11.5 30.5t5.5 20zM234 545q2 2 3 -4.5t1 -8.5q0 -6 -7.5 -16.5t-20.5 -21.5t-31 -21t-38 -17q-3 0 -3 5.5t2 13t6.5 14t10.5 9.5q22 8 44.5 22t32.5 25z
" />
    <glyph glyph-name="acircumflex" unicode="&#xe2;" 
d="M116 45q12 0 22 23t18.5 55t14.5 66t9 57v3q3 26 3 53q-4 18 -9.5 34.5t-11 30t-11 21.5t-11.5 8q-10 0 -20 -12.5t-19 -34.5t-15.5 -51.5t-8.5 -63.5q-2 -33 -1.5 -67t4.5 -61t12.5 -44t23.5 -17zM316 168q3 3 7.5 0t4.5 -11q0 -6 -6 -31.5t-17.5 -53.5t-27.5 -50
t-37 -22q-24 0 -37.5 20.5t-19.5 51t-7 66.5q-6 -25 -13 -50t-17.5 -44.5t-24 -31.5t-31.5 -12q-15 0 -31 10.5t-28.5 33t-20 59t-6.5 87.5q1 47 8.5 90t22.5 76t37 52.5t52 19.5q23 0 37.5 -20t24.5 -48v3q-1 16 5.5 20.5t24.5 8.5q8 2 15.5 3t13.5 1q13 0 12 -7
q-1 -6 -5.5 -20.5t-10 -34t-9.5 -42.5t-6 -44v-24q0 -31 2 -58t6.5 -46.5t11 -30.5t15.5 -11q12 0 21.5 12t16.5 27.5t11.5 30.5t5.5 20zM211 456q-24 0 -33 16.5t-11 37.5h-4q-7 -23 -28 -38t-44 -15q-13 0 -22 4q-1 1 0.5 6t5 10.5t7.5 10t7 4.5q9 -2 21 0.5t22.5 8.5
t17 16.5t4.5 23.5q0 2 4.5 2.5t10 1t10 0t4.5 -1.5q0 -30 11 -41.5t22 -11.5q6 0 11 3t6 8q4 0 6 -7t0.5 -15.5t-8 -15.5t-20.5 -7z" />
    <glyph glyph-name="atilde" unicode="&#xe3;" 
d="M116 45q12 0 22 23t18.5 55t14.5 66t9 57v3q3 26 3 53q-4 18 -9.5 34.5t-11 30t-11 21.5t-11.5 8q-10 0 -20 -12.5t-19 -34.5t-15.5 -51.5t-8.5 -63.5q-2 -33 -1.5 -67t4.5 -61t12.5 -44t23.5 -17zM316 168q3 3 7.5 0t4.5 -11q0 -6 -6 -31.5t-17.5 -53.5t-27.5 -50
t-37 -22q-24 0 -37.5 20.5t-19.5 51t-7 66.5q-6 -25 -13 -50t-17.5 -44.5t-24 -31.5t-31.5 -12q-15 0 -31 10.5t-28.5 33t-20 59t-6.5 87.5q1 47 8.5 90t22.5 76t37 52.5t52 19.5q23 0 37.5 -20t24.5 -48v3q-1 16 5.5 20.5t24.5 8.5q8 2 15.5 3t13.5 1q13 0 12 -7
q-1 -6 -5.5 -20.5t-10 -34t-9.5 -42.5t-6 -44v-24q0 -31 2 -58t6.5 -46.5t11 -30.5t15.5 -11q12 0 21.5 12t16.5 27.5t11.5 30.5t5.5 20zM217 524q0 3 9.5 1.5t9.5 -10.5q0 -35 -12 -47t-29 -12q-10 0 -18.5 3t-20.5 10q-4 2 -7.5 3.5t-8.5 4.5q-2 1 -4.5 2.5t-5.5 3.5h-1
q-11 7 -24 13.5t-23 6.5q-6 0 -9 -3q-5 -4 -4 -14.5t3 -27.5q0 -1 -2.5 -1.5t-6 0.5t-6.5 3.5t-3 6.5q0 35 12 47t29 12q9 0 18 -3t21 -9q3 -2 6.5 -4t8.5 -4q2 -2 5 -3.5t6 -3.5h1q11 -7 24 -13.5t23 -6.5q6 0 9 3q5 5 4 15t-4 27z" />
    <glyph glyph-name="adieresis" unicode="&#xe4;" 
d="M116 45q12 0 22 23t18.5 55t14.5 66t9 57v3q3 26 3 53q-4 18 -9.5 34.5t-11 30t-11 21.5t-11.5 8q-10 0 -20 -12.5t-19 -34.5t-15.5 -51.5t-8.5 -63.5q-2 -33 -1.5 -67t4.5 -61t12.5 -44t23.5 -17zM316 168q3 3 7.5 0t4.5 -11q0 -6 -6 -31.5t-17.5 -53.5t-27.5 -50
t-37 -22q-24 0 -37.5 20.5t-19.5 51t-7 66.5q-6 -25 -13 -50t-17.5 -44.5t-24 -31.5t-31.5 -12q-15 0 -31 10.5t-28.5 33t-20 59t-6.5 87.5q1 47 8.5 90t22.5 76t37 52.5t52 19.5q23 0 37.5 -20t24.5 -48v3q-1 16 5.5 20.5t24.5 8.5q8 2 15.5 3t13.5 1q13 0 12 -7
q-1 -6 -5.5 -20.5t-10 -34t-9.5 -42.5t-6 -44v-24q0 -31 2 -58t6.5 -46.5t11 -30.5t15.5 -11q12 0 21.5 12t16.5 27.5t11.5 30.5t5.5 20zM92 551q18 0 31 -13t13 -32q0 -18 -13 -31t-31 -13t-31 13t-13 31q0 19 13 32t31 13zM204 551q18 0 31 -13t13 -32q0 -18 -13 -31
t-31 -13q-19 0 -32 13t-13 31q0 19 13 32t32 13z" />
    <glyph glyph-name="aring" unicode="&#xe5;" 
d="M116 45q12 0 22 23t18.5 55t14.5 66t9 57v3q3 26 3 53q-4 18 -9.5 34.5t-11 30t-11 21.5t-11.5 8q-10 0 -20 -12.5t-19 -34.5t-15.5 -51.5t-8.5 -63.5q-2 -33 -1.5 -67t4.5 -61t12.5 -44t23.5 -17zM132 473q32 0 32 33q0 34 -32 34t-32 -34q0 -33 32 -33zM316 168
q3 3 7.5 0t4.5 -11q0 -6 -6 -31.5t-17.5 -53.5t-27.5 -50t-37 -22q-24 0 -37.5 20.5t-19.5 51t-7 66.5q-6 -25 -13 -50t-17.5 -44.5t-24 -31.5t-31.5 -12q-15 0 -31 10.5t-28.5 33t-20 59t-6.5 87.5q1 47 8.5 90t22.5 76t37 52.5t52 19.5q23 0 37.5 -20t24.5 -48v3
q-1 16 5.5 20.5t24.5 8.5q8 2 15.5 3t13.5 1q13 0 12 -7q-1 -6 -5.5 -20.5t-10 -34t-9.5 -42.5t-6 -44v-24q0 -31 2 -58t6.5 -46.5t11 -30.5t15.5 -11q12 0 21.5 12t16.5 27.5t11.5 30.5t5.5 20zM132 555q23 0 36.5 -14t13.5 -35q0 -22 -13.5 -35t-36.5 -13q-22 0 -36 13
t-14 35q0 21 14 35t36 14z" />
    <glyph glyph-name="ae" unicode="&#xe6;" 
d="M116 45q12 0 22 23t18.5 55t14.5 66t9 57v3q3 26 3 53q-4 18 -9.5 34.5t-11 30t-11 21.5t-11.5 8q-10 0 -20 -12.5t-19 -34.5t-15.5 -51.5t-8.5 -63.5q-2 -33 -1.5 -67t4.5 -61t12.5 -44t23.5 -17zM316 168q3 3 7.5 0t4.5 -11q0 -6 -6 -31.5t-17.5 -53.5t-27.5 -50
t-37 -22q-24 0 -37.5 20.5t-19.5 51t-7 66.5q-6 -25 -13 -50t-17.5 -44.5t-24 -31.5t-31.5 -12q-15 0 -31 10.5t-28.5 33t-20 59t-6.5 87.5q1 47 8.5 90t22.5 76t37 52.5t52 19.5q23 0 37.5 -20t24.5 -48v3q-1 16 5.5 20.5t24.5 8.5q8 2 15.5 3t13.5 1q13 0 12 -7
q-1 -6 -5.5 -20.5t-10 -34t-9.5 -42.5t-6 -44v-24q0 -31 2 -58t6.5 -46.5t11 -30.5t15.5 -11q12 0 21.5 12t16.5 27.5t11.5 30.5t5.5 20z" />
    <glyph glyph-name="ccedilla" unicode="&#xe7;" horiz-adv-x="257" 
d="M129 -32q29 -7 46 -22.5t17 -41.5t-28 -51.5t-91 -34.5q-6 3 -8 9t-2 12.5t1.5 11.5t3.5 6q14 -9 36 -9q19 0 35 9.5t16 34.5q0 15 -7 24t-17 13.5t-20.5 5.5t-18.5 0l-2 1l21 35l19 29q-26 2 -50 15.5t-41.5 40.5t-26 68t-3.5 98q6 60 21.5 99.5t36 63t41.5 33.5t37 10
q17 0 32 -5t26 -17t18 -33.5t7 -54.5q0 -41 0.5 -66.5t-0.5 -33.5q0 -3 -6 -1q-4 0 -11 1t-14 3t-13 6t-8 11q-5 15 -0.5 38t13.5 37q4 33 3.5 58t-17.5 25q-12 0 -27 -10t-29 -31.5t-24.5 -55t-13.5 -81.5q-3 -51 4 -84t20 -53t30 -28t32 -8q24 0 42 17t30.5 38.5t20 41.5
t9.5 26q2 4 8.5 0t5.5 -12q-13 -42 -28.5 -71t-32.5 -47t-35 -26.5t-36 -10.5z" />
    <glyph glyph-name="egrave" unicode="&#xe8;" horiz-adv-x="267" 
d="M142 413q-12 0 -25 -14t-23.5 -38.5t-18 -58t-9.5 -72.5q3 -11 9.5 -25t15.5 -26t20 -20.5t22 -8.5q21 0 30.5 33.5t11.5 88.5q1 25 1 50t-3.5 45.5t-10.5 33t-20 12.5zM275 168q2 4 8 0t4 -11q-6 -27 -19 -54.5t-33 -50.5t-46 -37.5t-56 -14.5q-35 0 -61 17.5t-43 45
t-25 63t-8 71.5q0 41 8 82t24 74t41.5 54t61.5 21q46 0 74 -41.5t26 -118.5q-2 -70 -26.5 -102t-64.5 -32q-13 0 -24.5 6t-21 15t-16.5 20t-12 20q1 -41 11 -70.5t25 -48t33 -27t34 -8.5q24 0 43 19t33 42.5t21.5 43.5t8.5 22zM128 537q8 -22 22 -44.5t25 -31.5
q2 -2 -4.5 -3.5t-8.5 -1.5q-6 0 -16.5 7.5t-21.5 20.5t-21 31t-17 38q0 3 7 3q8 0 19.5 -5t15.5 -14z" />
    <glyph glyph-name="eacute" unicode="&#xe9;" horiz-adv-x="267" 
d="M142 413q-12 0 -25 -14t-23.5 -38.5t-18 -58t-9.5 -72.5q3 -11 9.5 -25t15.5 -26t20 -20.5t22 -8.5q21 0 30.5 33.5t11.5 88.5q1 25 1 50t-3.5 45.5t-10.5 33t-20 12.5zM275 168q2 4 8 0t4 -11q-6 -27 -19 -54.5t-33 -50.5t-46 -37.5t-56 -14.5q-35 0 -61 17.5t-43 45
t-25 63t-8 71.5q0 41 8 82t24 74t41.5 54t61.5 21q46 0 74 -41.5t26 -118.5q-2 -70 -26.5 -102t-64.5 -32q-13 0 -24.5 6t-21 15t-16.5 20t-12 20q1 -41 11 -70.5t25 -48t33 -27t34 -8.5q24 0 43 19t33 42.5t21.5 43.5t8.5 22zM204 545q2 2 3 -4.5t1 -8.5q0 -6 -7.5 -16.5
t-20.5 -21.5t-31 -21t-38 -17q-3 0 -3 5.5t2 13t6.5 14t10.5 9.5q22 8 44.5 22t32.5 25z" />
    <glyph glyph-name="ecircumflex" unicode="&#xea;" horiz-adv-x="267" 
d="M142 413q-12 0 -25 -14t-23.5 -38.5t-18 -58t-9.5 -72.5q3 -11 9.5 -25t15.5 -26t20 -20.5t22 -8.5q21 0 30.5 33.5t11.5 88.5q1 25 1 50t-3.5 45.5t-10.5 33t-20 12.5zM275 168q2 4 8 0t4 -11q-6 -27 -19 -54.5t-33 -50.5t-46 -37.5t-56 -14.5q-35 0 -61 17.5t-43 45
t-25 63t-8 71.5q0 41 8 82t24 74t41.5 54t61.5 21q46 0 74 -41.5t26 -118.5q-2 -70 -26.5 -102t-64.5 -32q-13 0 -24.5 6t-21 15t-16.5 20t-12 20q1 -41 11 -70.5t25 -48t33 -27t34 -8.5q24 0 43 19t33 42.5t21.5 43.5t8.5 22zM191 456q-24 0 -33 16.5t-11 37.5h-4
q-7 -23 -28 -38t-44 -15q-13 0 -22 4q-1 1 0.5 6t5 10.5t7.5 10t7 4.5q9 -2 21 0.5t22.5 8.5t17 16.5t4.5 23.5q0 2 4.5 2.5t10 1t10 0t4.5 -1.5q0 -30 11 -41.5t22 -11.5q6 0 11 3t6 8q4 0 6 -7t0.5 -15.5t-8 -15.5t-20.5 -7z" />
    <glyph glyph-name="edieresis" unicode="&#xeb;" horiz-adv-x="267" 
d="M142 413q-12 0 -25 -14t-23.5 -38.5t-18 -58t-9.5 -72.5q3 -11 9.5 -25t15.5 -26t20 -20.5t22 -8.5q21 0 30.5 33.5t11.5 88.5q1 25 1 50t-3.5 45.5t-10.5 33t-20 12.5zM275 168q2 4 8 0t4 -11q-6 -27 -19 -54.5t-33 -50.5t-46 -37.5t-56 -14.5q-35 0 -61 17.5t-43 45
t-25 63t-8 71.5q0 41 8 82t24 74t41.5 54t61.5 21q46 0 74 -41.5t26 -118.5q-2 -70 -26.5 -102t-64.5 -32q-13 0 -24.5 6t-21 15t-16.5 20t-12 20q1 -41 11 -70.5t25 -48t33 -27t34 -8.5q24 0 43 19t33 42.5t21.5 43.5t8.5 22zM92 551q18 0 31 -13t13 -32q0 -18 -13 -31
t-31 -13t-31 13t-13 31q0 19 13 32t31 13zM204 551q18 0 31 -13t13 -32q0 -18 -13 -31t-31 -13q-19 0 -32 13t-13 31q0 19 13 32t32 13z" />
    <glyph glyph-name="igrave" unicode="&#xec;" horiz-adv-x="139" 
d="M166 157q-1 -6 -6.5 -31.5t-17 -53.5t-27.5 -50t-38 -22q-24 0 -37 18.5t-19 50.5t-6.5 75t-0.5 92q0 23 0.5 49t1 48.5t0.5 39.5v23q-1 16 8.5 20t26.5 8q8 2 16 3.5t15 1.5q11 0 10 -7q-1 -5 -5 -17.5t-8.5 -34.5t-8.5 -55.5t-6 -81.5q-1 -31 0.5 -59t6 -49.5t11.5 -34
t16 -12.5q12 0 21.5 12t17 27.5t12 30.5t5.5 20q2 3 6.5 0t5.5 -11zM38 537q8 -22 22 -44.5t25 -31.5q2 -2 -4.5 -3.5t-8.5 -1.5q-6 0 -16.5 7.5t-21.5 20.5t-21 31t-17 38q0 3 7 3q8 0 19.5 -5t15.5 -14z" />
    <glyph glyph-name="iacute" unicode="&#xed;" horiz-adv-x="139" 
d="M166 157q-1 -6 -6.5 -31.5t-17 -53.5t-27.5 -50t-38 -22q-24 0 -37 18.5t-19 50.5t-6.5 75t-0.5 92q0 23 0.5 49t1 48.5t0.5 39.5v23q-1 16 8.5 20t26.5 8q8 2 16 3.5t15 1.5q11 0 10 -7q-1 -5 -5 -17.5t-8.5 -34.5t-8.5 -55.5t-6 -81.5q-1 -31 0.5 -59t6 -49.5t11.5 -34
t16 -12.5q12 0 21.5 12t17 27.5t12 30.5t5.5 20q2 3 6.5 0t5.5 -11zM134 545q2 2 3 -4.5t1 -8.5q0 -6 -7.5 -16.5t-20.5 -21.5t-31 -21t-38 -17q-3 0 -3 5.5t2 13t6.5 14t10.5 9.5q22 8 44.5 22t32.5 25z" />
    <glyph glyph-name="icircumflex" unicode="&#xee;" horiz-adv-x="139" 
d="M166 157q-1 -6 -6.5 -31.5t-17 -53.5t-27.5 -50t-38 -22q-24 0 -37 18.5t-19 50.5t-6.5 75t-0.5 92q0 23 0.5 49t1 48.5t0.5 39.5v23q-1 16 8.5 20t26.5 8q8 2 16 3.5t15 1.5q11 0 10 -7q-1 -5 -5 -17.5t-8.5 -34.5t-8.5 -55.5t-6 -81.5q-1 -31 0.5 -59t6 -49.5t11.5 -34
t16 -12.5q12 0 21.5 12t17 27.5t12 30.5t5.5 20q2 3 6.5 0t5.5 -11zM115 466q-24 0 -34.5 16.5t-12.5 37.5h-3q-9 -31 -30 -41.5t-41 -10.5q-12 0 -21 3q-2 1 0 4.5t5.5 7t7.5 6.5t7 3q16 -2 33 3t27 32q2 6 4 12.5t1 11.5q0 2 4.5 2.5t10 1t10 0t4.5 -1.5q0 -35 9.5 -51.5
t21.5 -16.5q6 0 11.5 4.5t7.5 11.5q6 0 6 -5q2 -6 -4.5 -18t-23.5 -12z" />
    <glyph glyph-name="idieresis" unicode="&#xef;" horiz-adv-x="139" 
d="M166 157q-1 -6 -6.5 -31.5t-17 -53.5t-27.5 -50t-38 -22q-24 0 -37 18.5t-19 50.5t-6.5 75t-0.5 92q0 23 0.5 49t1 48.5t0.5 39.5v23q-1 16 8.5 20t26.5 8q8 2 16 3.5t15 1.5q11 0 10 -7q-1 -5 -5 -17.5t-8.5 -34.5t-8.5 -55.5t-6 -81.5q-1 -31 0.5 -59t6 -49.5t11.5 -34
t16 -12.5q12 0 21.5 12t17 27.5t12 30.5t5.5 20q2 3 6.5 0t5.5 -11zM14 551q18 0 31 -13t13 -32q0 -18 -13 -31t-31 -13q-19 0 -32 13t-13 31q0 19 13 32t32 13zM125 551q19 0 31.5 -13t12.5 -32q0 -18 -12.5 -31t-31.5 -13q-18 0 -31 13t-13 31q0 19 13 32t31 13z" />
    <glyph glyph-name="ntilde" unicode="&#xf1;" horiz-adv-x="270" 
d="M280 168q3 3 7.5 0t5.5 -11q-1 -6 -6 -34.5t-15 -59.5t-25.5 -56t-38.5 -25q-25 0 -39.5 19t-21 52t-8 77t-0.5 94q1 35 0.5 67t-1.5 52q-28 -69 -43 -129t-22 -106q-8 -53 -9 -98q0 -7 -3.5 -8.5t-8.5 -1.5q-7 0 -16 2.5t-16.5 6.5t-12.5 8t-5 7q5 32 6 75t-1 100
q-1 79 -2 128.5t-2 66.5t8 21.5t29 9.5q8 2 16 3.5t15 1.5q11 0 10 -8q-7 -24 -17.5 -83t-12.5 -145v-34.5t1 -30.5q14 56 28 99t26 74t21 48.5t11 21.5q2 7 9.5 11.5t18 7.5t20.5 4t16 1q13 0 12 -7q-3 -11 -11.5 -53t-11.5 -111q-1 -31 1 -58t6.5 -46.5t11 -31t15.5 -11.5
q12 0 21.5 12t16.5 27.5t11.5 30.5t5.5 20zM188 542q0 1 2.5 1.5t6 -0.5t6.5 -3t3 -7q0 -35 -12 -47t-29 -12q-9 0 -17.5 3t-21.5 9q-3 2 -6.5 4t-8.5 4q-2 2 -5 3.5t-6 3.5q-12 7 -25 13.5t-23 6.5q-5 0 -8 -3q-7 -7 -1 -42q0 -1 -2.5 -1.5t-6 0t-6.5 3.5t-3 7q0 35 12 47
t29 12q9 0 17.5 -3t20.5 -10q4 -2 7.5 -3.5t8.5 -4.5l5 -2.5t6 -3.5q11 -7 24 -13.5t23 -6.5q6 0 9 3q5 4 4.5 14.5t-3.5 27.5z" />
    <glyph glyph-name="ograve" unicode="&#xf2;" horiz-adv-x="312" 
d="M165 34q43 0 66 58h-5q-36 0 -63.5 12.5t-46.5 33t-30 45.5t-16 50q-2 -42 4.5 -78t19 -63t31 -42.5t40.5 -15.5zM144 405q-17 0 -28.5 -11.5t-18 -30t-7.5 -42.5t3 -49q4 -22 14.5 -48t28.5 -49t44 -38.5t60 -15.5q3 14 5 31t2 37q0 35 -8 73.5t-22.5 70t-33 52
t-39.5 20.5zM352 169q3 2 7.5 0t2.5 -7q-2 -4 -9.5 -13.5t-20 -20t-31 -19.5t-42.5 -14q-16 -46 -47.5 -72.5t-74.5 -26.5q-31 0 -56.5 15t-43.5 41.5t-28 63t-10 79.5q0 44 6.5 78.5t15.5 59.5t19 41t17 22q4 3 19.5 6.5t26.5 2.5q11 12 25.5 19t35.5 7q29 0 50.5 -21.5
t35 -55.5t19.5 -77t6 -86q0 -34 -8 -68q21 3 36.5 10t26 14.5t16 14t6.5 7.5zM138 537q8 -22 22 -44.5t25 -31.5q2 -2 -4.5 -3.5t-8.5 -1.5q-6 0 -16.5 7.5t-21.5 20.5t-21 31t-17 38q0 3 7 3q8 0 19.5 -5t15.5 -14z" />
    <glyph glyph-name="oacute" unicode="&#xf3;" horiz-adv-x="312" 
d="M165 34q43 0 66 58h-5q-36 0 -63.5 12.5t-46.5 33t-30 45.5t-16 50q-2 -42 4.5 -78t19 -63t31 -42.5t40.5 -15.5zM144 405q-17 0 -28.5 -11.5t-18 -30t-7.5 -42.5t3 -49q4 -22 14.5 -48t28.5 -49t44 -38.5t60 -15.5q3 14 5 31t2 37q0 35 -8 73.5t-22.5 70t-33 52
t-39.5 20.5zM352 169q3 2 7.5 0t2.5 -7q-2 -4 -9.5 -13.5t-20 -20t-31 -19.5t-42.5 -14q-16 -46 -47.5 -72.5t-74.5 -26.5q-31 0 -56.5 15t-43.5 41.5t-28 63t-10 79.5q0 44 6.5 78.5t15.5 59.5t19 41t17 22q4 3 19.5 6.5t26.5 2.5q11 12 25.5 19t35.5 7q29 0 50.5 -21.5
t35 -55.5t19.5 -77t6 -86q0 -34 -8 -68q21 3 36.5 10t26 14.5t16 14t6.5 7.5zM204 545q2 2 3 -4.5t1 -8.5q0 -6 -7.5 -16.5t-20.5 -21.5t-31 -21t-38 -17q-3 0 -3 5.5t2 13t6.5 14t10.5 9.5q22 8 44.5 22t32.5 25z" />
    <glyph glyph-name="ocircumflex" unicode="&#xf4;" horiz-adv-x="312" 
d="M165 34q43 0 66 58h-5q-36 0 -63.5 12.5t-46.5 33t-30 45.5t-16 50q-2 -42 4.5 -78t19 -63t31 -42.5t40.5 -15.5zM144 405q-17 0 -28.5 -11.5t-18 -30t-7.5 -42.5t3 -49q4 -22 14.5 -48t28.5 -49t44 -38.5t60 -15.5q3 14 5 31t2 37q0 35 -8 73.5t-22.5 70t-33 52
t-39.5 20.5zM352 169q3 2 7.5 0t2.5 -7q-2 -4 -9.5 -13.5t-20 -20t-31 -19.5t-42.5 -14q-16 -46 -47.5 -72.5t-74.5 -26.5q-31 0 -56.5 15t-43.5 41.5t-28 63t-10 79.5q0 44 6.5 78.5t15.5 59.5t19 41t17 22q4 3 19.5 6.5t26.5 2.5q11 12 25.5 19t35.5 7q29 0 50.5 -21.5
t35 -55.5t19.5 -77t6 -86q0 -34 -8 -68q21 3 36.5 10t26 14.5t16 14t6.5 7.5zM191 456q-24 0 -33 16.5t-11 37.5h-4q-7 -23 -28 -38t-44 -15q-13 0 -22 4q-1 1 0.5 6t5 10.5t7.5 10t7 4.5q9 -2 21 0.5t22.5 8.5t17 16.5t4.5 23.5q0 2 4.5 2.5t10 1t10 0t4.5 -1.5
q0 -30 11 -41.5t22 -11.5q6 0 11 3t6 8q4 0 6 -7t0.5 -15.5t-8 -15.5t-20.5 -7z" />
    <glyph glyph-name="otilde" unicode="&#xf5;" horiz-adv-x="312" 
d="M165 34q43 0 66 58h-5q-36 0 -63.5 12.5t-46.5 33t-30 45.5t-16 50q-2 -42 4.5 -78t19 -63t31 -42.5t40.5 -15.5zM144 405q-17 0 -28.5 -11.5t-18 -30t-7.5 -42.5t3 -49q4 -22 14.5 -48t28.5 -49t44 -38.5t60 -15.5q3 14 5 31t2 37q0 35 -8 73.5t-22.5 70t-33 52
t-39.5 20.5zM352 169q3 2 7.5 0t2.5 -7q-2 -4 -9.5 -13.5t-20 -20t-31 -19.5t-42.5 -14q-16 -46 -47.5 -72.5t-74.5 -26.5q-31 0 -56.5 15t-43.5 41.5t-28 63t-10 79.5q0 44 6.5 78.5t15.5 59.5t19 41t17 22q4 3 19.5 6.5t26.5 2.5q11 12 25.5 19t35.5 7q29 0 50.5 -21.5
t35 -55.5t19.5 -77t6 -86q0 -34 -8 -68q21 3 36.5 10t26 14.5t16 14t6.5 7.5zM217 524q0 3 9.5 1.5t9.5 -10.5q0 -35 -12 -47t-29 -12q-10 0 -18.5 3t-20.5 10q-4 2 -7.5 3.5t-8.5 4.5q-2 1 -4.5 2.5t-5.5 3.5h-1q-11 7 -24 13.5t-23 6.5q-6 0 -9 -3q-5 -4 -4 -14.5t3 -27.5
q0 -1 -2.5 -1.5t-6 0.5t-6.5 3.5t-3 6.5q0 35 12 47t29 12q7 0 16 -2.5t18 -6.5t17 -9t14 -9h1q11 -7 24 -13.5t23 -6.5q6 0 9 3q5 5 4 15t-4 27z" />
    <glyph glyph-name="odieresis" unicode="&#xf6;" horiz-adv-x="312" 
d="M165 34q43 0 66 58h-5q-36 0 -63.5 12.5t-46.5 33t-30 45.5t-16 50q-2 -42 4.5 -78t19 -63t31 -42.5t40.5 -15.5zM144 405q-17 0 -28.5 -11.5t-18 -30t-7.5 -42.5t3 -49q4 -22 14.5 -48t28.5 -49t44 -38.5t60 -15.5q3 14 5 31t2 37q0 35 -8 73.5t-22.5 70t-33 52
t-39.5 20.5zM352 169q3 2 7.5 0t2.5 -7q-2 -4 -9.5 -13.5t-20 -20t-31 -19.5t-42.5 -14q-16 -46 -47.5 -72.5t-74.5 -26.5q-31 0 -56.5 15t-43.5 41.5t-28 63t-10 79.5q0 44 6.5 78.5t15.5 59.5t19 41t17 22q4 3 19.5 6.5t26.5 2.5q11 12 25.5 19t35.5 7q29 0 50.5 -21.5
t35 -55.5t19.5 -77t6 -86q0 -34 -8 -68q21 3 36.5 10t26 14.5t16 14t6.5 7.5zM92 551q18 0 31 -13t13 -32q0 -18 -13 -31t-31 -13t-31 13t-13 31q0 19 13 32t31 13zM204 551q18 0 31 -13t13 -32q0 -18 -13 -31t-31 -13q-19 0 -32 13t-13 31q0 19 13 32t32 13z" />
    <glyph glyph-name="divide" unicode="&#xf7;" horiz-adv-x="459" 
d="M394 310q-7 1 -26 2.5t-43 3t-49.5 2.5t-45.5 1q-27 0 -47 -0.5t-36.5 -1t-32.5 -2t-35 -4.5q-3 0 -7.5 6t-8 13.5t-5 15t1.5 9.5q4 2 11 2q16 0 52.5 -4.5t102.5 -2.5q51 2 84 4.5t50 2.5q10 0 16 -2t10.5 -9t7.5 -14.5t3 -13.5t-3 -8zM230 285q23 0 38 -15.5t15 -37.5
q0 -23 -15 -38.5t-38 -15.5q-22 0 -37.5 15.5t-15.5 38.5q0 22 15.5 37.5t37.5 15.5zM230 380q-22 0 -37.5 15.5t-15.5 37.5q0 23 15.5 38t37.5 15q23 0 38 -15t15 -38q0 -22 -15 -37.5t-38 -15.5z" />
    <glyph glyph-name="oslash" unicode="&#xf8;" horiz-adv-x="312" 
d="M110 144q-17 20 -26.5 43t-13.5 46q-2 -39 4 -74t17 -61q5 11 9.5 23t9.5 23zM105 73q25 -39 60 -39q43 0 66 58h-5q-32 0 -57.5 10t-43.5 27l-10 -28zM194 371q-11 16 -23.5 25t-26.5 9q-17 0 -28.5 -11.5t-18 -30t-7.5 -42.5t3 -49q3 -19 11.5 -41.5t22.5 -43.5
q6 15 11 28t9 24q11 28 23 63t24 69zM139 170q18 -21 43 -35t58 -14q3 14 5 31t2 37q1 42 -10.5 86.5t-30.5 77.5l-24 -64t-22 -60q-5 -14 -10 -28.5t-11 -30.5zM236 484q2 3 8 5t12 2q8 0 8 -3q-3 -5 -14 -30t-25 -60q26 -34 38.5 -90.5t11.5 -116.5q0 -34 -8 -68
q21 3 36.5 10t26 14.5t16 14t6.5 7.5q3 2 7.5 0t2.5 -7q-2 -4 -9.5 -13.5t-20 -20t-31 -19.5t-42.5 -14q-16 -46 -47.5 -72.5t-74.5 -26.5q-29 0 -55 14q-11 -30 -17.5 -50.5t-7.5 -25.5q-5 -2 -14.5 5t-7.5 18q1 4 8 22.5t18 45.5q-29 26 -45 69.5t-17 100.5q0 44 6.5 78.5
t15.5 59.5t19 41t17 22q4 3 19.5 6.5t26.5 2.5q11 12 25.5 19t35.5 7q24 0 46 -17q10 27 17 46t9 24z" />
    <glyph glyph-name="ugrave" unicode="&#xf9;" horiz-adv-x="285" 
d="M306 168q3 3 7.5 0t5.5 -11q-1 -6 -5.5 -31.5t-14.5 -53.5t-25.5 -50t-38.5 -22q-22 0 -36 14.5t-21.5 40.5t-10 61t-2.5 77q-7 -42 -14 -77t-16 -61t-22 -40.5t-32 -14.5q-24 0 -39.5 14t-24.5 37t-12.5 51.5t-4.5 58.5t0 58t1 49q0 51 1 87t1 46q-1 11 6.5 16t26.5 8
q8 1 17 2t17 1q9 0 10 -2q2 -3 -0.5 -10.5t-7.5 -24t-10.5 -46t-8.5 -77.5q-3 -42 -1.5 -77.5t7.5 -61t16 -39.5t23 -14q20 0 33 38t23 93q5 27 7 47.5t3.5 37.5t2 31.5t1.5 30.5v42q-1 16 8.5 20t26.5 8q8 2 16 3.5t15 1.5q11 0 10 -7q-1 -5 -5.5 -21.5t-9 -41t-8 -56
t-4.5 -67.5q-1 -31 1 -59.5t6.5 -50.5t11 -35t15.5 -13q12 0 21.5 12t16.5 27.5t11.5 30.5t5.5 20zM108 537q8 -22 22 -44.5t25 -31.5q2 -2 -4.5 -3.5t-8.5 -1.5q-6 0 -16.5 7.5t-21.5 20.5t-21 31t-17 38q0 3 7 3q8 0 19.5 -5t15.5 -14z" />
    <glyph glyph-name="uacute" unicode="&#xfa;" horiz-adv-x="285" 
d="M306 168q3 3 7.5 0t5.5 -11q-1 -6 -5.5 -31.5t-14.5 -53.5t-25.5 -50t-38.5 -22q-22 0 -36 14.5t-21.5 40.5t-10 61t-2.5 77q-7 -42 -14 -77t-16 -61t-22 -40.5t-32 -14.5q-24 0 -39.5 14t-24.5 37t-12.5 51.5t-4.5 58.5t0 58t1 49q0 51 1 87t1 46q-1 11 6.5 16t26.5 8
q8 1 17 2t17 1q9 0 10 -2q2 -3 -0.5 -10.5t-7.5 -24t-10.5 -46t-8.5 -77.5q-3 -42 -1.5 -77.5t7.5 -61t16 -39.5t23 -14q20 0 33 38t23 93q5 27 7 47.5t3.5 37.5t2 31.5t1.5 30.5v42q-1 16 8.5 20t26.5 8q8 2 16 3.5t15 1.5q11 0 10 -7q-1 -5 -5.5 -21.5t-9 -41t-8 -56
t-4.5 -67.5q-1 -31 1 -59.5t6.5 -50.5t11 -35t15.5 -13q12 0 21.5 12t16.5 27.5t11.5 30.5t5.5 20zM224 545q2 2 3 -4.5t1 -8.5q0 -6 -7.5 -16.5t-20.5 -21.5t-31 -21t-38 -17q-3 0 -3 5.5t2 13t6.5 14t10.5 9.5q22 8 44.5 22t32.5 25z" />
    <glyph glyph-name="ucircumflex" unicode="&#xfb;" horiz-adv-x="285" 
d="M306 168q3 3 7.5 0t5.5 -11q-1 -6 -5.5 -31.5t-14.5 -53.5t-25.5 -50t-38.5 -22q-22 0 -36 14.5t-21.5 40.5t-10 61t-2.5 77q-7 -42 -14 -77t-16 -61t-22 -40.5t-32 -14.5q-24 0 -39.5 14t-24.5 37t-12.5 51.5t-4.5 58.5t0 58t1 49q0 51 1 87t1 46q-1 11 6.5 16t26.5 8
q8 1 17 2t17 1q9 0 10 -2q2 -3 -0.5 -10.5t-7.5 -24t-10.5 -46t-8.5 -77.5q-3 -42 -1.5 -77.5t7.5 -61t16 -39.5t23 -14q20 0 33 38t23 93q5 27 7 47.5t3.5 37.5t2 31.5t1.5 30.5v42q-1 16 8.5 20t26.5 8q8 2 16 3.5t15 1.5q11 0 10 -7q-1 -5 -5.5 -21.5t-9 -41t-8 -56
t-4.5 -67.5q-1 -31 1 -59.5t6.5 -50.5t11 -35t15.5 -13q12 0 21.5 12t16.5 27.5t11.5 30.5t5.5 20zM191 466q-24 0 -34.5 16.5t-12.5 37.5h-4q-9 -31 -30 -41.5t-40 -10.5q-13 0 -21 3q-1 1 0.5 4.5t5 7t7.5 6.5t7 3q16 -2 33 3t27 32q2 6 4 12.5t1 11.5q0 2 4.5 2.5t10 1
t10 0t4.5 -1.5q0 -35 9.5 -51.5t21.5 -16.5q6 0 11.5 4.5t7.5 11.5q6 0 6 -5q2 -6 -4.5 -18t-23.5 -12z" />
    <glyph glyph-name="udieresis" unicode="&#xfc;" horiz-adv-x="285" 
d="M306 168q3 3 7.5 0t5.5 -11q-1 -6 -5.5 -31.5t-14.5 -53.5t-25.5 -50t-38.5 -22q-22 0 -36 14.5t-21.5 40.5t-10 61t-2.5 77q-7 -42 -14 -77t-16 -61t-22 -40.5t-32 -14.5q-24 0 -39.5 14t-24.5 37t-12.5 51.5t-4.5 58.5t0 58t1 49q0 51 1 87t1 46q-1 11 6.5 16t26.5 8
q8 1 17 2t17 1q9 0 10 -2q2 -3 -0.5 -10.5t-7.5 -24t-10.5 -46t-8.5 -77.5q-3 -42 -1.5 -77.5t7.5 -61t16 -39.5t23 -14q20 0 33 38t23 93q5 27 7 47.5t3.5 37.5t2 31.5t1.5 30.5v42q-1 16 8.5 20t26.5 8q8 2 16 3.5t15 1.5q11 0 10 -7q-1 -5 -5.5 -21.5t-9 -41t-8 -56
t-4.5 -67.5q-1 -31 1 -59.5t6.5 -50.5t11 -35t15.5 -13q12 0 21.5 12t16.5 27.5t11.5 30.5t5.5 20zM78 551q19 0 31.5 -13t12.5 -32q0 -18 -12.5 -31t-31.5 -13q-18 0 -31 13t-13 31q0 19 13 32t31 13zM190 551q18 0 31 -13t13 -32q0 -18 -13 -31t-31 -13t-31 13t-13 31
q0 19 13 32t31 13z" />
    <glyph glyph-name="yacute" unicode="&#xfd;" horiz-adv-x="266" 
d="M72 -325q32 0 51 25t28.5 64t13 85t4.5 88v11t1 12q-28 -7 -58 -27q-23 -16 -39.5 -41t-26 -53.5t-12.5 -57.5t0 -52.5t13 -38.5t25 -15zM242 -39q0 -13 0.5 -25.5t0.5 -25.5q1 -77 -6.5 -128t-24.5 -81t-43.5 -42.5t-63.5 -12.5q-33 0 -57 14.5t-38.5 38t-20 53t-2 61
t16 61t33.5 52.5q29 31 63.5 45t69.5 18q2 40 2.5 78t1.5 74q-5 -30 -12 -55.5t-16.5 -44.5t-21.5 -30t-28 -11q-24 0 -39.5 14t-24.5 37t-13 51.5t-4.5 58.5t0 58t0.5 49q1 51 2 87t0 46q-1 11 6.5 16t27.5 8q8 1 17 2t17 1q9 0 10 -2q2 -3 -0.5 -10.5t-7.5 -24t-10.5 -46
t-9.5 -77.5q-3 -42 -1 -77.5t8 -61t16 -39.5t23 -14q14 0 23.5 14.5t16 37t11 50t6.5 54t3 48.5t2 34q-1 29 -1 51v31q-1 16 8 20t27 8q7 2 14.5 3t14.5 1q13 0 12 -7q-1 -3 -3.5 -15.5t-5 -36t-4.5 -60t-2 -88.5q0 -19 1 -50.5t2 -65.5t2 -66t1 -53q38 -5 66 -17t39 -23
q5 -6 9 -15.5t5.5 -18.5t0.5 -15t-6 -4q-29 26 -56.5 43.5t-56.5 24.5zM214 545q2 2 3 -4.5t1 -8.5q0 -6 -7.5 -16.5t-20.5 -21.5t-31 -21t-38 -17q-3 0 -3 5.5t2 13t6.5 14t10.5 9.5q22 8 44.5 22t32.5 25z" />
    <glyph glyph-name="ydieresis" unicode="&#xff;" horiz-adv-x="266" 
d="M72 -325q32 0 51 25t28.5 64t13 85t4.5 88v11t1 12q-28 -7 -58 -27q-23 -16 -39.5 -41t-26 -53.5t-12.5 -57.5t0 -52.5t13 -38.5t25 -15zM242 -39q0 -13 0.5 -25.5t0.5 -25.5q1 -77 -6.5 -128t-24.5 -81t-43.5 -42.5t-63.5 -12.5q-33 0 -57 14.5t-38.5 38t-20 53t-2 61
t16 61t33.5 52.5q29 31 63.5 45t69.5 18q2 40 2.5 78t1.5 74q-5 -30 -12 -55.5t-16.5 -44.5t-21.5 -30t-28 -11q-24 0 -39.5 14t-24.5 37t-13 51.5t-4.5 58.5t0 58t0.5 49q1 51 2 87t0 46q-1 11 6.5 16t27.5 8q8 1 17 2t17 1q9 0 10 -2q2 -3 -0.5 -10.5t-7.5 -24t-10.5 -46
t-9.5 -77.5q-3 -42 -1 -77.5t8 -61t16 -39.5t23 -14q14 0 23.5 14.5t16 37t11 50t6.5 54t3 48.5t2 34q-1 29 -1 51v31q-1 16 8 20t27 8q7 2 14.5 3t14.5 1q13 0 12 -7q-1 -3 -3.5 -15.5t-5 -36t-4.5 -60t-2 -88.5q0 -19 1 -50.5t2 -65.5t2 -66t1 -53q38 -5 66 -17t39 -23
q5 -6 9 -15.5t5.5 -18.5t0.5 -15t-6 -4q-29 26 -56.5 43.5t-56.5 24.5zM92 551q18 0 31 -13t13 -32q0 -18 -13 -31t-31 -13t-31 13t-13 31q0 19 13 32t31 13zM204 551q18 0 31 -13t13 -32q0 -18 -13 -31t-31 -13q-19 0 -32 13t-13 31q0 19 13 32t32 13z" />
    <glyph glyph-name="Amacron" unicode="&#x100;" horiz-adv-x="395" 
d="M106 246q40 -1 71.5 0t51.5 3q-1 6 -1 12v11q-5 103 -6 187.5t4 143.5q-9 -18 -25.5 -54.5t-35 -84.5t-35 -104.5t-24.5 -113.5zM265 607q-2 -16 -1.5 -58.5t4.5 -98t12 -119.5t20 -124.5t29.5 -112t40.5 -81.5q1 -4 -2.5 -10.5t-10 -12.5t-16 -10.5t-21.5 -4.5
q-10 0 -23 5q-21 9 -34 33t-19.5 58.5t-9.5 77t-5 87.5q-28 -4 -60 -6.5t-66 -4.5q-8 -74 1 -127.5t28 -72.5q-4 -12 -16 -18.5t-27 -6.5q-16 0 -31.5 8.5t-23.5 27.5q-7 16 -8 37.5t3 46t11.5 51t15.5 52.5q-36 -1 -68.5 -1t-57.5 0.5t-40.5 2t-16.5 2.5q0 2 4 8.5t10 13
t12.5 12t10.5 6.5q26 -7 59 -12t68 -7q7 0 13.5 -0.5t13.5 -0.5q6 19 12 36t11 32q11 34 21 67.5t18.5 63.5t15 55.5t10.5 44.5q8 42 10.5 70.5t8.5 37.5q5 8 16.5 14.5t25.5 11.5t27.5 7.5t23.5 2.5q11 0 13 -2t-3 -23t-9 -58zM304 720h-167l15 30h166z" />
    <glyph glyph-name="amacron" unicode="&#x101;" 
d="M116 45q12 0 22 23t18.5 55t14.5 66t9 57v3q3 26 3 53q-4 18 -9.5 34.5t-11 30t-11 21.5t-11.5 8q-10 0 -20 -12.5t-19 -34.5t-15.5 -51.5t-8.5 -63.5q-2 -33 -1.5 -67t4.5 -61t12.5 -44t23.5 -17zM316 168q3 3 7.5 0t4.5 -11q0 -6 -6 -31.5t-17.5 -53.5t-27.5 -50
t-37 -22q-24 0 -37.5 20.5t-19.5 51t-7 66.5q-6 -25 -13 -50t-17.5 -44.5t-24 -31.5t-31.5 -12q-15 0 -31 10.5t-28.5 33t-20 59t-6.5 87.5q1 47 8.5 90t22.5 76t37 52.5t52 19.5q23 0 37.5 -20t24.5 -48v3q-1 16 5.5 20.5t24.5 8.5q8 2 15.5 3t13.5 1q13 0 12 -7
q-1 -6 -5.5 -20.5t-10 -34t-9.5 -42.5t-6 -44v-24q0 -31 2 -58t6.5 -46.5t11 -30.5t15.5 -11q12 0 21.5 12t16.5 27.5t11.5 30.5t5.5 20zM38 467l15 30h166l-14 -30h-167z" />
    <glyph glyph-name="Abreve" unicode="&#x102;" horiz-adv-x="395" 
d="M106 246q40 -1 71.5 0t51.5 3q-1 6 -1 12v11q-5 103 -6 187.5t4 143.5q-9 -18 -25.5 -54.5t-35 -84.5t-35 -104.5t-24.5 -113.5zM265 607q-2 -16 -1.5 -58.5t4.5 -98t12 -119.5t20 -124.5t29.5 -112t40.5 -81.5q1 -4 -2.5 -10.5t-10 -12.5t-16 -10.5t-21.5 -4.5
q-10 0 -23 5q-21 9 -34 33t-19.5 58.5t-9.5 77t-5 87.5q-28 -4 -60 -6.5t-66 -4.5q-8 -74 1 -127.5t28 -72.5q-4 -12 -16 -18.5t-27 -6.5q-16 0 -31.5 8.5t-23.5 27.5q-7 16 -8 37.5t3 46t11.5 51t15.5 52.5q-36 -1 -68.5 -1t-57.5 0.5t-40.5 2t-16.5 2.5q0 2 4 8.5t10 13
t12.5 12t10.5 6.5q26 -7 59 -12t68 -7q7 0 13.5 -0.5t13.5 -0.5q6 19 12 36t11 32q11 34 21 67.5t18.5 63.5t15 55.5t10.5 44.5q8 42 10.5 70.5t8.5 37.5q5 8 16.5 14.5t25.5 11.5t27.5 7.5t23.5 2.5q11 0 13 -2t-3 -23t-9 -58zM226 749q36 0 47.5 16t11.5 36q0 4 2 4
q3 0 7.5 -6.5t7 -17t2 -22t-8.5 -22t-24.5 -17t-45.5 -6.5q-24 0 -38 7.5t-21.5 19t-8.5 25t2 26.5q2 1 5.5 2l7 2t6 0t2.5 -5q-3 -23 11.5 -32.5t34.5 -9.5z" />
    <glyph glyph-name="abreve" unicode="&#x103;" 
d="M116 45q12 0 22 23t18.5 55t14.5 66t9 57v3q3 26 3 53q-4 18 -9.5 34.5t-11 30t-11 21.5t-11.5 8q-10 0 -20 -12.5t-19 -34.5t-15.5 -51.5t-8.5 -63.5q-2 -33 -1.5 -67t4.5 -61t12.5 -44t23.5 -17zM316 168q3 3 7.5 0t4.5 -11q0 -6 -6 -31.5t-17.5 -53.5t-27.5 -50
t-37 -22q-24 0 -37.5 20.5t-19.5 51t-7 66.5q-6 -25 -13 -50t-17.5 -44.5t-24 -31.5t-31.5 -12q-15 0 -31 10.5t-28.5 33t-20 59t-6.5 87.5q1 47 8.5 90t22.5 76t37 52.5t52 19.5q23 0 37.5 -20t24.5 -48v3q-1 16 5.5 20.5t24.5 8.5q8 2 15.5 3t13.5 1q13 0 12 -7
q-1 -6 -5.5 -20.5t-10 -34t-9.5 -42.5t-6 -44v-24q0 -31 2 -58t6.5 -46.5t11 -30.5t15.5 -11q12 0 21.5 12t16.5 27.5t11.5 30.5t5.5 20zM162 491q36 0 47.5 16t11.5 36q0 4 2 4q3 0 7.5 -6.5t7 -17t2 -22t-8.5 -22t-24.5 -17t-45.5 -6.5q-24 0 -38 7.5t-21.5 19t-8.5 25
t2 26.5q2 1 5.5 2l7 2t6 0t2.5 -5q-3 -23 11.5 -32.5t34.5 -9.5z" />
    <glyph glyph-name="Aogonek" unicode="&#x104;" horiz-adv-x="396" 
d="M106 246q40 -1 71.5 0t51.5 3q-1 6 -1 12v11q-5 103 -6 187.5t4 143.5q-9 -18 -25.5 -54.5t-35 -84.5t-35 -104.5t-24.5 -113.5zM299 -164q17 0 33 13t21 39q2 0 6 -2.5t7 -6.5t4 -9.5t-1 -11.5q-24 -40 -87 -40q-30 0 -49.5 15.5t-19.5 40.5q0 31 22.5 54.5t59.5 52.5
q-21 9 -33 33.5t-18.5 58.5t-9.5 76t-5 87q-28 -4 -60 -6.5t-66 -4.5q-8 -74 1 -127.5t28 -72.5q-4 -12 -16 -18.5t-27 -6.5q-16 0 -31.5 8.5t-23.5 27.5q-7 16 -8 37.5t3 46t11.5 51t15.5 52.5q-36 -1 -68.5 -1t-57.5 0.5t-40.5 2t-16.5 2.5q0 2 4 8.5t10 13t12.5 12
t10.5 6.5q26 -7 59 -12t68 -7q7 0 13.5 -0.5t13.5 -0.5q6 19 12 36t11 32q11 34 21 67.5t18.5 63.5t15 55.5t10.5 44.5q8 42 10.5 70.5t8.5 37.5q5 8 16.5 14.5t25.5 11.5t27.5 7.5t23.5 2.5q11 0 13 -2t-3 -23t-9 -58q-2 -16 -1.5 -58.5t4.5 -98t12 -119.5t20 -124.5
t29.5 -112t40.5 -81.5q0 -4 -4.5 -11.5t-12.5 -14t-20 -10t-26 -0.5q-29 -25 -41 -48.5t-12 -43.5q0 -24 14 -36.5t31 -12.5z" />
    <glyph glyph-name="aogonek" unicode="&#x105;" 
d="M116 45q12 0 22 23t18.5 55t14.5 66t9 57v3q3 26 3 53q-4 18 -9.5 34.5t-11 30t-11 21.5t-11.5 8q-10 0 -20 -12.5t-19 -34.5t-15.5 -51.5t-8.5 -63.5q-2 -33 -1.5 -67t4.5 -61t12.5 -44t23.5 -17zM316 168q3 3 7.5 0t4.5 -11q-1 -15 -8 -41.5t-19 -52t-28 -44.5t-35 -19
q-29 -23 -40.5 -46.5t-11.5 -43.5q0 -24 13.5 -36.5t30.5 -12.5q18 0 33.5 13.5t20.5 39.5q5 0 13.5 -9.5t3.5 -20.5q-23 -41 -86 -41q-31 0 -50.5 15.5t-19.5 40.5q0 32 22 54.5t57 49.5q-13 5 -22 18.5t-14.5 32t-8 40.5t-3.5 44q-6 -25 -13 -50t-17.5 -44.5t-24 -31.5
t-31.5 -12q-15 0 -31 10.5t-28.5 33t-20 59t-6.5 87.5q1 47 8.5 90t22.5 76t37 52.5t52 19.5q23 0 37.5 -20t24.5 -48v3q-1 16 5.5 20.5t24.5 8.5q8 2 15.5 3t13.5 1q13 0 12 -7q-1 -6 -5.5 -20.5t-10 -34t-9.5 -42.5t-6 -44v-24q0 -31 2 -58t6.5 -46.5t11 -30.5t15.5 -11
q12 0 21.5 12t16.5 27.5t11.5 30.5t5.5 20z" />
    <glyph glyph-name="Cacute" unicode="&#x106;" horiz-adv-x="404" 
d="M420 194q6 4 9 -1.5t0 -16.5q-1 -4 -6 -20.5t-14.5 -39t-25 -48t-36.5 -47t-49 -35.5t-63 -14q-55 0 -95.5 22t-66.5 61t-39 93.5t-14 120.5q-1 47 3.5 96.5t14.5 97t26.5 89.5t41.5 74t58 50.5t75 18.5q26 0 48.5 -9t38.5 -31.5t25 -60t9 -93.5q0 -36 1.5 -66.5t3 -53.5
t2 -37t-0.5 -17q-2 -2 -12 -2q-12 0 -29 6t-27 25q-7 13 -9 31t-0.5 37.5t7 38t14.5 31.5q2 29 -0.5 61t-11 59t-23 45t-36.5 18q-27 0 -47.5 -19.5t-35.5 -52t-24 -74.5t-14 -87t-6.5 -89.5t-0.5 -81.5q1 -49 9 -92t24.5 -75t42.5 -50.5t63 -18.5q27 0 52 13.5t46.5 36
t40 50.5t31.5 57zM305 807q2 2 3.5 -4t1.5 -9q0 -6 -7.5 -16.5t-20.5 -21.5t-31 -21t-38 -17q-3 0 -3 5.5t2 13t6.5 14t10.5 9.5q22 8 44.5 22t31.5 25z" />
    <glyph glyph-name="cacute" unicode="&#x107;" horiz-adv-x="257" 
d="M269 168q2 4 8.5 0t5.5 -12q-15 -47 -32.5 -77t-36.5 -47.5t-38.5 -24.5t-39.5 -7q-27 0 -52 13t-43.5 40t-27.5 69t-4 100q6 60 21.5 99.5t36 63t41.5 33.5t37 10q17 0 32 -5t26 -17t18 -33.5t7 -54.5q0 -41 0.5 -66.5t-0.5 -33.5q0 -3 -6 -1q-4 0 -11 1t-14 3t-13 6
t-8 11q-5 15 -0.5 38t13.5 37q4 33 3.5 58t-17.5 25q-12 0 -27 -10t-29 -31.5t-24.5 -55t-13.5 -81.5q-3 -51 4 -84t20 -53t30 -28t32 -8q24 0 42 17t30.5 38.5t20 41.5t9.5 26zM212 555q2 2 3 -4.5t1 -8.5q0 -6 -7.5 -16.5t-20.5 -21.5t-31 -21t-38 -17q-3 0 -3 5.5t2 13
t6.5 14t10.5 9.5q22 8 44.5 22t32.5 25z" />
    <glyph glyph-name="Ccircumflex" unicode="&#x108;" horiz-adv-x="404" 
d="M420 194q6 4 9 -1.5t0 -16.5q-1 -4 -6 -20.5t-14.5 -39t-25 -48t-36.5 -47t-49 -35.5t-63 -14q-55 0 -95.5 22t-66.5 61t-39 93.5t-14 120.5q-1 47 3.5 96.5t14.5 97t26.5 89.5t41.5 74t58 50.5t75 18.5q26 0 48.5 -9t38.5 -31.5t25 -60t9 -93.5q0 -36 1.5 -66.5t3 -53.5
t2 -37t-0.5 -17q-2 -2 -12 -2q-12 0 -29 6t-27 25q-7 13 -9 31t-0.5 37.5t7 38t14.5 31.5q2 29 -0.5 61t-11 59t-23 45t-36.5 18q-27 0 -47.5 -19.5t-35.5 -52t-24 -74.5t-14 -87t-6.5 -89.5t-0.5 -81.5q1 -49 9 -92t24.5 -75t42.5 -50.5t63 -18.5q27 0 52 13.5t46.5 36
t40 50.5t31.5 57zM285 716q-23 0 -33.5 16.5t-12.5 37.5h-3q-9 -30 -30 -40.5t-40 -10.5q-13 0 -22 3q-1 0 0.5 3.5t5 7t7 6.5t6.5 3h1q2 0 5 -0.5t5 -0.5q14 0 28 7t22 29q2 6 4 13t1 12q0 1 4.5 2t10 1.5t10 0t4.5 -1.5q0 -35 9.5 -52t21.5 -17q16 0 19 17q5 -1 7 -6
q1 -6 -5.5 -18t-24.5 -12z" />
    <glyph glyph-name="ccircumflex" unicode="&#x109;" horiz-adv-x="257" 
d="M269 168q2 4 8.5 0t5.5 -12q-15 -47 -32.5 -77t-36.5 -47.5t-38.5 -24.5t-39.5 -7q-27 0 -52 13t-43.5 40t-27.5 69t-4 100q6 60 21.5 99.5t36 63t41.5 33.5t37 10q17 0 32 -5t26 -17t18 -33.5t7 -54.5q0 -41 0.5 -66.5t-0.5 -33.5q0 -3 -6 -1q-4 0 -11 1t-14 3t-13 6
t-8 11q-5 15 -0.5 38t13.5 37q4 33 3.5 58t-17.5 25q-12 0 -27 -10t-29 -31.5t-24.5 -55t-13.5 -81.5q-3 -51 4 -84t20 -53t30 -28t32 -8q24 0 42 17t30.5 38.5t20 41.5t9.5 26zM191 466q-24 0 -34.5 16.5t-12.5 37.5h-4q-9 -31 -30 -41.5t-40 -10.5q-13 0 -21 3
q-1 1 0.5 4.5t5 7t7.5 6.5t7 3q16 -2 33 3t27 32q2 6 4 12.5t1 11.5q0 2 4.5 2.5t10 1t10 0t4.5 -1.5q0 -35 9.5 -51.5t21.5 -16.5q6 0 11.5 4.5t7.5 11.5q6 0 6 -5q2 -6 -4.5 -18t-23.5 -12z" />
    <glyph glyph-name="Cdotaccent" unicode="&#x10a;" horiz-adv-x="404" 
d="M420 194q6 4 9 -1.5t0 -16.5q-1 -4 -6 -20.5t-14.5 -39t-25 -48t-36.5 -47t-49 -35.5t-63 -14q-55 0 -95.5 22t-66.5 61t-39 93.5t-14 120.5q-1 47 3.5 96.5t14.5 97t26.5 89.5t41.5 74t58 50.5t75 18.5q26 0 48.5 -9t38.5 -31.5t25 -60t9 -93.5q0 -36 1.5 -66.5t3 -53.5
t2 -37t-0.5 -17q-2 -2 -12 -2q-12 0 -29 6t-27 25q-7 13 -9 31t-0.5 37.5t7 38t14.5 31.5q2 29 -0.5 61t-11 59t-23 45t-36.5 18q-27 0 -47.5 -19.5t-35.5 -52t-24 -74.5t-14 -87t-6.5 -89.5t-0.5 -81.5q1 -49 9 -92t24.5 -75t42.5 -50.5t63 -18.5q27 0 52 13.5t46.5 36
t40 50.5t31.5 57zM239 807q19 0 32 -12.5t13 -31.5q0 -18 -13 -31t-32 -13q-18 0 -31 13t-13 31q0 19 13 31.5t31 12.5z" />
    <glyph glyph-name="cdotaccent" unicode="&#x10b;" horiz-adv-x="257" 
d="M269 168q2 4 8.5 0t5.5 -12q-15 -47 -32.5 -77t-36.5 -47.5t-38.5 -24.5t-39.5 -7q-27 0 -52 13t-43.5 40t-27.5 69t-4 100q6 60 21.5 99.5t36 63t41.5 33.5t37 10q17 0 32 -5t26 -17t18 -33.5t7 -54.5q0 -41 0.5 -66.5t-0.5 -33.5q0 -3 -6 -1q-4 0 -11 1t-14 3t-13 6
t-8 11q-5 15 -0.5 38t13.5 37q4 33 3.5 58t-17.5 25q-12 0 -27 -10t-29 -31.5t-24.5 -55t-13.5 -81.5q-3 -51 4 -84t20 -53t30 -28t32 -8q24 0 42 17t30.5 38.5t20 41.5t9.5 26zM148 550q18 0 31 -12.5t13 -31.5q0 -18 -13 -31t-31 -13q-19 0 -32 13t-13 31q0 19 13 31.5
t32 12.5z" />
    <glyph glyph-name="Ccaron" unicode="&#x10c;" horiz-adv-x="404" 
d="M420 194q6 4 9 -1.5t0 -16.5q-1 -4 -6 -20.5t-14.5 -39t-25 -48t-36.5 -47t-49 -35.5t-63 -14q-55 0 -95.5 22t-66.5 61t-39 93.5t-14 120.5q-1 47 3.5 96.5t14.5 97t26.5 89.5t41.5 74t58 50.5t75 18.5q26 0 48.5 -9t38.5 -31.5t25 -60t9 -93.5q0 -36 1.5 -66.5t3 -53.5
t2 -37t-0.5 -17q-2 -2 -12 -2q-12 0 -29 6t-27 25q-7 13 -9 31t-0.5 37.5t7 38t14.5 31.5q2 29 -0.5 61t-11 59t-23 45t-36.5 18q-27 0 -47.5 -19.5t-35.5 -52t-24 -74.5t-14 -87t-6.5 -89.5t-0.5 -81.5q1 -49 9 -92t24.5 -75t42.5 -50.5t63 -18.5q27 0 52 13.5t46.5 36
t40 50.5t31.5 57zM250 754q8 30 29 40.5t41 10.5q12 0 21 -3q2 0 0 -3.5t-5.5 -7.5t-7.5 -7t-7 -3q-16 2 -33 -3t-27 -31q-2 -6 -4 -13t-1 -12q0 -1 -4.5 -2t-10 -1.5t-10 0t-4.5 1.5q0 35 -9.5 52t-21.5 17q-6 0 -11.5 -4.5t-7.5 -12.5q-6 2 -6 6q-2 6 4.5 18t24.5 12
q23 0 33.5 -16.5t12.5 -37.5h4z" />
    <glyph glyph-name="ccaron" unicode="&#x10d;" horiz-adv-x="257" 
d="M269 168q2 4 8.5 0t5.5 -12q-15 -47 -32.5 -77t-36.5 -47.5t-38.5 -24.5t-39.5 -7q-27 0 -52 13t-43.5 40t-27.5 69t-4 100q6 60 21.5 99.5t36 63t41.5 33.5t37 10q17 0 32 -5t26 -17t18 -33.5t7 -54.5q0 -41 0.5 -66.5t-0.5 -33.5q0 -3 -6 -1q-4 0 -11 1t-14 3t-13 6
t-8 11q-5 15 -0.5 38t13.5 37q4 33 3.5 58t-17.5 25q-12 0 -27 -10t-29 -31.5t-24.5 -55t-13.5 -81.5q-3 -51 4 -84t20 -53t30 -28t32 -8q24 0 42 17t30.5 38.5t20 41.5t9.5 26zM153 496q9 30 30.5 41t40.5 11q13 0 20 -3q2 -1 0 -4t-5.5 -7t-7.5 -7t-7 -3q-16 2 -32.5 -3.5
t-27.5 -31.5q-5 -13 -5 -24q0 -1 -4.5 -2t-10 -1.5t-10 0t-4.5 1.5q0 35 -9 51.5t-22 16.5q-6 0 -11.5 -4.5t-7.5 -12.5q-6 2 -6 6q-2 6 4.5 18t23.5 12q24 0 35 -16t13 -38h3z" />
    <glyph glyph-name="Dcaron" unicode="&#x10e;" horiz-adv-x="557" 
d="M445 353q9 72 5.5 127.5t-15.5 93.5t-30.5 58.5t-40.5 24.5q-7 1 -13.5 1.5t-13.5 0.5q-53 0 -103.5 -21.5t-93.5 -50.5q-6 -32 -11.5 -77t-8.5 -102q-6 -97 -3 -171.5t11 -127.5q5 -28 11 -47.5t11.5 -32t9.5 -18.5t5 -8q-3 -5 -9 -8h9q32 0 75 15t84.5 55t74.5 109.5
t46 178.5zM327 690q47 0 86 -24t65.5 -67.5t39 -103.5t7.5 -133q-6 -84 -31.5 -157.5t-69 -127.5t-104.5 -85.5t-137 -31.5q-60 0 -93 12t-48.5 27t-18.5 28.5t-3 17.5q-2 8 2.5 26t15.5 26q5 0 12.5 -17t22.5 -37q-4 16 -4.5 32.5t-1.5 30.5q0 12 0.5 35.5t1 54t1 63.5
t1 62.5t1 53t0.5 33.5q1 26 2.5 65.5t2.5 71.5q-37 -26 -65.5 -51.5t-47.5 -48.5q-4 -4 -9 -4q-13 0 -11 40q0 13 2 24.5t9 23.5t19 24.5t33 26.5q14 9 31.5 19t38.5 21q-1 12 -1 19v14q-1 20 7.5 25t18.5 7q9 2 26.5 4.5t24.5 0.5q6 -1 5 -10t-6 -27q42 17 87 27t88 10z
M269 753q9 30 30 40.5t40 10.5q14 0 21 -3q2 0 0 -3.5t-5.5 -7.5t-7.5 -7t-7 -3q-16 2 -32.5 -3t-27.5 -31q-5 -13 -5 -25q0 -1 -4.5 -2t-10 -1.5t-10 0t-4.5 1.5q0 35 -9 52t-22 17q-6 0 -11.5 -4.5t-7.5 -12.5q-6 2 -6 6q-2 6 4.5 18t24.5 12q23 0 34 -16.5t13 -37.5h3z
" />
    <glyph glyph-name="Dcroat" unicode="&#x110;" horiz-adv-x="557" 
d="M209 311q6 -3 10.5 -9.5t7.5 -14t3.5 -11t0.5 -4.5q0 -5 -4 -7q-13 2 -44 4.5t-67 2.5q0 -33 1.5 -68.5t6 -70.5t14.5 -68t27 -62q-3 -5 -9 -8h9q32 0 75 15t84.5 55t74.5 109.5t46 178.5q6 52 6 95q0 17 -2 52.5t-14 73.5t-30.5 58.5t-40.5 24.5q-7 1 -13.5 1.5
t-13.5 0.5q-53 0 -103.5 -21.5t-93.5 -50.5q-13 -69 -18.5 -140.5t-5.5 -142.5q26 2 42.5 3.5t26.5 3t13 2t4 0.5q4 0 7 -2zM70 302q1 36 1.5 65t0.5 41q1 26 2.5 65.5t2.5 71.5q-37 -26 -65.5 -51.5t-47.5 -48.5q-4 -4 -9 -4q-11 0 -11 30v10q0 13 2 24.5t9 23.5t19 24.5
t33 26.5q14 9 31.5 19t38.5 21q-1 12 -1 33v4q0 17 8 21.5t18 6.5q9 2 22.5 4t20.5 2q5 0 8 -1q5 -1 5 -8q0 -1 -0.5 -6t-5.5 -23q42 17 87 27t88 10q47 0 86 -24t65.5 -67.5t37 -95t10.5 -100.5q0 -20 -1 -41q-6 -84 -31.5 -157.5t-69 -127.5t-104.5 -85.5t-137 -31.5
q-60 0 -93 12t-48.5 27t-18.5 28.5t-3 17.5q-1 2 -1 6q0 8 4 23t15 23q5 0 12.5 -17t22.5 -37q-4 16 -4.5 32.5t-1.5 30.5v26q0 17 0.5 39.5t1 48t0.5 50.5q-23 -1 -43 -2.5t-49 -6.5q-3 0 -7.5 5.5t-8 13t-5 12.5t-1.5 7q0 3 2 5t13 2q14 0 39.5 -2t60.5 -2z" />
    <glyph glyph-name="dcroat" unicode="&#x111;" horiz-adv-x="307" 
d="M317 168q2 2 3 2q2 0 5.5 -2.5t4.5 -10.5q-1 -6 -4.5 -31.5t-12 -53.5t-24 -50t-39.5 -22q-40 0 -54.5 41.5t-17.5 129.5q-5 -29 -12.5 -59.5t-18.5 -55t-26 -40.5t-36 -16q-15 0 -30.5 10.5t-28 33t-19.5 57t-7 77.5v12q1 47 8.5 90t22.5 76t37 52.5t52 19.5
q20 0 34 -17t24 -42v149v42h-4q-38 -3 -76 -8q-2 0 -6.5 5.5t-8.5 13t-5 12t-1 6.5q0 4 2 6t12 2q15 0 47 -3q18 -2 40 -2q0 11 1 20q0 35 1.5 50.5t4.5 18.5q2 2 8.5 4.5t15.5 4.5t19 3.5t18 1.5q15 0 17 -5v-2q0 -5 -2.5 -18t-7.5 -40q-3 -16 -6 -35q8 0 14 1
q19 2 31.5 3.5t20 2.5t11.5 1t6 -1q6 -3 11 -9.5t8 -14t3.5 -11t0.5 -4.5q0 -5 -4 -7q-12 2 -39.5 4.5t-59.5 2.5h-7v-2q-5 -41 -8 -97q-2 -37 -3 -66.5t-2 -53t-1 -42.5q0 -9 0.5 -28.5t1.5 -55.5q1 -30 3 -55t6.5 -44t11 -29.5t15.5 -10.5q12 0 21 12t15 27.5t9.5 30
t4.5 19.5zM112 45q13 0 23.5 26.5t19 62t14 71t8.5 54.5v47q-4 17 -9 33t-10.5 29t-11 20.5t-10.5 7.5q-10 0 -20.5 -12.5t-19.5 -34.5t-15.5 -51.5t-8.5 -63.5q-2 -26 -2 -53q0 -7 0.5 -27.5t4.5 -47.5t13 -44t24 -17z" />
    <glyph glyph-name="Emacron" unicode="&#x112;" horiz-adv-x="431" 
d="M452 199q5 2 8.5 -5.5t4.5 -10.5q-10 -50 -35.5 -90.5t-61.5 -69.5t-81 -45t-96 -16q-33 0 -62 8t-51 23t-34 36t-12 47q0 33 15 57.5t36 41.5t43 27.5t37 15.5q-28 2 -57.5 12.5t-53.5 32.5t-39.5 56.5t-15.5 85.5q0 63 22 115.5t57.5 90.5t79.5 59t87 21q42 0 64 -17
t32 -39t11.5 -44t1.5 -33q6 41 3 74.5t-6 51.5q2 4 9.5 7.5t17 6.5t19.5 5t17 2q10 0 12 -2t-0.5 -7.5t-7 -17t-10 -29.5t-10.5 -45q-7 -36 -11.5 -73t-6.5 -72.5t0 -68t9 -58.5q-4 -8 -22 -8q-14 0 -30 5t-23 13q2 15 6 41.5t7 58.5t4 66t-2 63t-11.5 51t-24.5 29
q-12 6 -27 6q-35 0 -77.5 -31t-75.5 -95q-17 -33 -26 -72t-8.5 -75.5t10.5 -67t31 -48.5q31 -25 69 -25q26 0 50 11t42 31q4 0 5.5 -9t1.5 -21t-0.5 -23t-0.5 -16q-1 -8 -14 -7t-34 1q-4 0 -8 -0.5t-9 -0.5q-18 -1 -39.5 -8t-39.5 -20t-29 -33t-8 -49q3 -23 14.5 -38.5
t28.5 -25t38 -13.5t42 -4q43 0 72 13q38 17 63.5 37t42 42t27.5 44.5t20 44.5zM152 750h166l-14 -30h-167z" />
    <glyph glyph-name="emacron" unicode="&#x113;" horiz-adv-x="267" 
d="M142 413q-12 0 -25 -14t-23.5 -38.5t-18 -58t-9.5 -72.5q3 -11 9.5 -25t15.5 -26t20 -20.5t22 -8.5q21 0 30.5 33.5t11.5 88.5q1 25 1 50t-3.5 45.5t-10.5 33t-20 12.5zM275 168q2 4 8 0t4 -11q-6 -27 -19 -54.5t-33 -50.5t-46 -37.5t-56 -14.5q-35 0 -61 17.5t-43 45
t-25 63t-8 71.5q0 41 8 82t24 74t41.5 54t61.5 21q46 0 74 -41.5t26 -118.5q-2 -70 -26.5 -102t-64.5 -32q-13 0 -24.5 6t-21 15t-16.5 20t-12 20q1 -41 11 -70.5t25 -48t33 -27t34 -8.5q24 0 43 19t33 42.5t21.5 43.5t8.5 22zM205 467h-167l15 30h166z" />
    <glyph glyph-name="Ebreve" unicode="&#x114;" horiz-adv-x="431" 
d="M452 199q5 2 8.5 -5.5t4.5 -10.5q-10 -50 -35.5 -90.5t-61.5 -69.5t-81 -45t-96 -16q-33 0 -62 8t-51 23t-34 36t-12 47q0 33 15 57.5t36 41.5t43 27.5t37 15.5q-28 2 -57.5 12.5t-53.5 32.5t-39.5 56.5t-15.5 85.5q0 63 22 115.5t57.5 90.5t79.5 59t87 21q42 0 64 -17
t32 -39t11.5 -44t1.5 -33q6 41 3 74.5t-6 51.5q2 4 9.5 7.5t17 6.5t19.5 5t17 2q10 0 12 -2t-0.5 -7.5t-7 -17t-10 -29.5t-10.5 -45q-7 -36 -11.5 -73t-6.5 -72.5t0 -68t9 -58.5q-4 -8 -22 -8q-14 0 -30 5t-23 13q2 15 6 41.5t7 58.5t4 66t-2 63t-11.5 51t-24.5 29
q-12 6 -27 6q-35 0 -77.5 -31t-75.5 -95q-17 -33 -26 -72t-8.5 -75.5t10.5 -67t31 -48.5q31 -25 69 -25q26 0 50 11t42 31q4 0 5.5 -9t1.5 -21t-0.5 -23t-0.5 -16q-1 -8 -14 -7t-34 1q-4 0 -8 -0.5t-9 -0.5q-18 -1 -39.5 -8t-39.5 -20t-29 -33t-8 -49q3 -23 14.5 -38.5
t28.5 -25t38 -13.5t42 -4q43 0 72 13q38 17 63.5 37t42 42t27.5 44.5t20 44.5zM226 752q32 0 46.5 14t22.5 38h13q-1 -13 -5 -28t-13 -28t-24.5 -22t-39.5 -9t-39 9t-24 22t-13 28t-5 28h13q8 -24 22.5 -38t45.5 -14z" />
    <glyph glyph-name="ebreve" unicode="&#x115;" horiz-adv-x="267" 
d="M142 413q-12 0 -25 -14t-23.5 -38.5t-18 -58t-9.5 -72.5q3 -11 9.5 -25t15.5 -26t20 -20.5t22 -8.5q21 0 30.5 33.5t11.5 88.5q1 25 1 50t-3.5 45.5t-10.5 33t-20 12.5zM275 168q2 4 8 0t4 -11q-6 -27 -19 -54.5t-33 -50.5t-46 -37.5t-56 -14.5q-35 0 -61 17.5t-43 45
t-25 63t-8 71.5q0 41 8 82t24 74t41.5 54t61.5 21q46 0 74 -41.5t26 -118.5q-2 -70 -26.5 -102t-64.5 -32q-13 0 -24.5 6t-21 15t-16.5 20t-12 20q1 -41 11 -70.5t25 -48t33 -27t34 -8.5q24 0 43 19t33 42.5t21.5 43.5t8.5 22zM138 496q31 0 46 14t23 39h13q-1 -13 -5 -28
t-13 -28.5t-25 -22.5t-40 -9t-39 9t-24 22.5t-12.5 28.5t-4.5 28h13q8 -25 22.5 -39t45.5 -14z" />
    <glyph glyph-name="Edotaccent" unicode="&#x116;" horiz-adv-x="431" 
d="M452 199q5 2 8.5 -5.5t4.5 -10.5q-10 -50 -35.5 -90.5t-61.5 -69.5t-81 -45t-96 -16q-33 0 -62 8t-51 23t-34 36t-12 47q0 33 15 57.5t36 41.5t43 27.5t37 15.5q-28 2 -57.5 12.5t-53.5 32.5t-39.5 56.5t-15.5 85.5q0 63 22 115.5t57.5 90.5t79.5 59t87 21q42 0 64 -17
t32 -39t11.5 -44t1.5 -33q6 41 3 74.5t-6 51.5q2 4 9.5 7.5t17 6.5t19.5 5t17 2q10 0 12 -2t-0.5 -7.5t-7 -17t-10 -29.5t-10.5 -45q-7 -36 -11.5 -73t-6.5 -72.5t0 -68t9 -58.5q-4 -8 -22 -8q-14 0 -30 5t-23 13q2 15 6 41.5t7 58.5t4 66t-2 63t-11.5 51t-24.5 29
q-12 6 -27 6q-35 0 -77.5 -31t-75.5 -95q-17 -33 -26 -72t-8.5 -75.5t10.5 -67t31 -48.5q31 -25 69 -25q26 0 50 11t42 31q4 0 5.5 -9t1.5 -21t-0.5 -23t-0.5 -16q-1 -8 -14 -7t-34 1q-4 0 -8 -0.5t-9 -0.5q-18 -1 -39.5 -8t-39.5 -20t-29 -33t-8 -49q3 -23 14.5 -38.5
t28.5 -25t38 -13.5t42 -4q43 0 72 13q38 17 63.5 37t42 42t27.5 44.5t20 44.5zM239 807q19 0 32 -12.5t13 -31.5q0 -18 -13 -31t-32 -13q-18 0 -31 13t-13 31q0 19 13 31.5t31 12.5z" />
    <glyph glyph-name="edotaccent" unicode="&#x117;" horiz-adv-x="267" 
d="M142 413q-12 0 -25 -14t-23.5 -38.5t-18 -58t-9.5 -72.5q3 -11 9.5 -25t15.5 -26t20 -20.5t22 -8.5q21 0 30.5 33.5t11.5 88.5q1 25 1 50t-3.5 45.5t-10.5 33t-20 12.5zM275 168q2 4 8 0t4 -11q-6 -27 -19 -54.5t-33 -50.5t-46 -37.5t-56 -14.5q-35 0 -61 17.5t-43 45
t-25 63t-8 71.5q0 41 8 82t24 74t41.5 54t61.5 21q46 0 74 -41.5t26 -118.5q-2 -70 -26.5 -102t-64.5 -32q-13 0 -24.5 6t-21 15t-16.5 20t-12 20q1 -41 11 -70.5t25 -48t33 -27t34 -8.5q24 0 43 19t33 42.5t21.5 43.5t8.5 22zM139 550q18 0 31 -12.5t13 -31.5
q0 -18 -13 -31t-31 -13q-19 0 -32 13t-13 31q0 19 13 31.5t32 12.5z" />
    <glyph glyph-name="Eogonek" unicode="&#x118;" horiz-adv-x="431" 
d="M217 -178q17 0 32.5 13t20.5 39q3 0 6.5 -2.5t6.5 -7t4.5 -9.5t-0.5 -11q-23 -41 -86 -41q-31 0 -50.5 16t-19.5 41q0 31 21 53t56 50q-36 -2 -68 5t-56 21.5t-38 36.5t-14 50q0 33 15 57.5t36 41.5t43 27.5t37 15.5q-28 2 -57.5 12.5t-53.5 32.5t-39.5 56.5t-15.5 85.5
q0 63 22 115.5t57.5 90.5t79.5 59t87 21q42 0 64 -17t32 -39t11.5 -44t1.5 -33q6 41 3 74.5t-6 51.5q2 4 9.5 7.5t17 6.5t19.5 5t17 2q10 0 12 -2t-0.5 -7.5t-7 -17t-10 -29.5t-10.5 -45q-7 -36 -11.5 -73t-6.5 -72.5t0 -68t9 -58.5q-4 -8 -22 -8q-14 0 -30 5t-23 13
q2 15 6 41.5t7 58.5t4 66t-2 63t-11.5 51t-24.5 29q-12 6 -27 6q-35 0 -77.5 -31t-75.5 -95q-17 -33 -26 -72t-8.5 -75.5t10.5 -67t31 -48.5q31 -25 69 -25q26 0 50 11t42 31q4 0 5.5 -9t1.5 -21t-0.5 -23t-0.5 -16q-1 -8 -14 -7t-34 1q-4 0 -8 -0.5t-9 -0.5
q-18 -1 -39.5 -8t-39.5 -20t-29 -33t-8 -49q3 -23 14.5 -38.5t28.5 -25t38 -13.5t42 -4q43 0 72 13q38 17 63.5 37t42 42t27.5 44.5t20 44.5q5 2 8.5 -5.5t4.5 -10.5q-20 -93 -83 -149t-154 -70q-31 -25 -43.5 -48.5t-12.5 -44.5q0 -24 14 -36.5t31 -12.5z" />
    <glyph glyph-name="eogonek" unicode="&#x119;" horiz-adv-x="267" 
d="M142 413q-12 0 -25 -14t-23.5 -38.5t-18 -58t-9.5 -72.5q3 -11 9.5 -25t15.5 -26t20 -20.5t22 -8.5q21 0 30.5 33.5t11.5 88.5q1 25 1 50t-3.5 45.5t-10.5 33t-20 12.5zM134 -139q18 0 33.5 13t20.5 39q5 0 13.5 -9.5t3.5 -20.5q-24 -41 -87 -41q-30 0 -49.5 15.5
t-19.5 40.5q0 31 20.5 53t54.5 49q-33 2 -57 20t-40 46t-23.5 62t-7.5 69q0 41 8 82t24 74t41.5 54t61.5 21q46 0 74 -41.5t26 -118.5q-2 -70 -26.5 -102t-64.5 -32q-13 0 -24.5 6t-21 15t-16.5 20t-12 20q1 -41 11 -70.5t25 -48t33 -27t34 -8.5q24 0 43 19t33 42.5
t21.5 43.5t8.5 22q2 4 8 0t4 -11q-5 -25 -17.5 -52t-31.5 -49.5t-43 -38t-53 -17.5q-29 -24 -40.5 -47t-11.5 -43q0 -25 13.5 -37t30.5 -12z" />
    <glyph glyph-name="Ecaron" unicode="&#x11a;" horiz-adv-x="431" 
d="M452 199q5 2 8.5 -5.5t4.5 -10.5q-10 -50 -35.5 -90.5t-61.5 -69.5t-81 -45t-96 -16q-33 0 -62 8t-51 23t-34 36t-12 47q0 33 15 57.5t36 41.5t43 27.5t37 15.5q-28 2 -57.5 12.5t-53.5 32.5t-39.5 56.5t-15.5 85.5q0 63 22 115.5t57.5 90.5t79.5 59t87 21q42 0 64 -17
t32 -39t11.5 -44t1.5 -33q6 41 3 74.5t-6 51.5q2 4 9.5 7.5t17 6.5t19.5 5t17 2q10 0 12 -2t-0.5 -7.5t-7 -17t-10 -29.5t-10.5 -45q-7 -36 -11.5 -73t-6.5 -72.5t0 -68t9 -58.5q-4 -8 -22 -8q-14 0 -30 5t-23 13q2 15 6 41.5t7 58.5t4 66t-2 63t-11.5 51t-24.5 29
q-12 6 -27 6q-35 0 -77.5 -31t-75.5 -95q-17 -33 -26 -72t-8.5 -75.5t10.5 -67t31 -48.5q31 -25 69 -25q26 0 50 11t42 31q4 0 5.5 -9t1.5 -21t-0.5 -23t-0.5 -16q-1 -8 -14 -7t-34 1q-4 0 -8 -0.5t-9 -0.5q-18 -1 -39.5 -8t-39.5 -20t-29 -33t-8 -49q3 -23 14.5 -38.5
t28.5 -25t38 -13.5t42 -4q43 0 72 13q38 17 63.5 37t42 42t27.5 44.5t20 44.5zM250 754q8 30 29 40.5t41 10.5q12 0 21 -3q2 0 0 -3.5t-5.5 -7.5t-7.5 -7t-7 -3q-16 2 -33 -3t-27 -31q-2 -6 -4 -13t-1 -12q0 -1 -4.5 -2t-10 -1.5t-10 0t-4.5 1.5q0 35 -9.5 52t-21.5 17
q-6 0 -11.5 -4.5t-7.5 -12.5q-6 2 -6 6q-2 6 4.5 18t24.5 12q23 0 33.5 -16.5t12.5 -37.5h4z" />
    <glyph glyph-name="ecaron" unicode="&#x11b;" horiz-adv-x="267" 
d="M142 413q-12 0 -25 -14t-23.5 -38.5t-18 -58t-9.5 -72.5q3 -11 9.5 -25t15.5 -26t20 -20.5t22 -8.5q21 0 30.5 33.5t11.5 88.5q1 25 1 50t-3.5 45.5t-10.5 33t-20 12.5zM275 168q2 4 8 0t4 -11q-6 -27 -19 -54.5t-33 -50.5t-46 -37.5t-56 -14.5q-35 0 -61 17.5t-43 45
t-25 63t-8 71.5q0 41 8 82t24 74t41.5 54t61.5 21q46 0 74 -41.5t26 -118.5q-2 -70 -26.5 -102t-64.5 -32q-13 0 -24.5 6t-21 15t-16.5 20t-12 20q1 -41 11 -70.5t25 -48t33 -27t34 -8.5q24 0 43 19t33 42.5t21.5 43.5t8.5 22zM141 496q9 30 30.5 41t40.5 11q13 0 20 -3
q2 -1 0 -4t-5.5 -7t-7.5 -7t-7 -3q-16 2 -32.5 -3.5t-27.5 -31.5q-5 -13 -5 -24q0 -1 -4.5 -2t-10 -1.5t-10 0t-4.5 1.5q0 35 -9 51.5t-22 16.5q-6 0 -11.5 -4.5t-6.5 -12.5q-5 1 -7 6q-2 6 4.5 18t24.5 12q23 0 34 -16.5t13 -37.5h3z" />
    <glyph glyph-name="Gcircumflex" unicode="&#x11c;" horiz-adv-x="400" 
d="M370 223q14 -5 20.5 -13.5t7.5 -11.5q-2 -2 -12 0.5t-36 4.5q-1 -11 -1.5 -22t-0.5 -25q-1 -56 6 -88t11 -50q-2 -3 -9.5 -4.5t-17.5 -1.5q-17 0 -33 4t-16 12q5 12 13 38t9 83q-5 -22 -19 -48.5t-37 -49t-54.5 -37.5t-72.5 -15q-29 0 -61.5 15.5t-58.5 52t-42.5 96.5
t-14.5 150q2 87 22.5 157t53 119t73.5 75t84 26q23 0 39.5 -11t27.5 -29.5t17 -41.5t7 -47q3 88 -4 131q2 8 18.5 13t31.5 5q12 0 16 -3q2 -3 -1 -14.5t-8 -32t-10.5 -50.5t-7.5 -70q-4 -52 -4.5 -105t9.5 -93q-2 -5 -18 -5q-8 0 -17 1.5t-17.5 3.5t-14.5 5.5t-7 6.5
q3 21 6 52.5t4 66.5t-1.5 70t-11 63t-23 45.5t-37.5 17.5q-19 0 -44.5 -21.5t-48.5 -65t-40 -109.5t-19 -156q-2 -70 10 -119.5t32 -80.5t45.5 -45t50.5 -14q31 0 56.5 12t44 32.5t28.5 47t10 55.5q-30 1 -71.5 -3t-86.5 -23q-7 0 -15.5 4.5t-15 11t-11 13.5t-3.5 11
q4 8 42.5 14.5t90.5 6.5q17 0 34.5 -1t34.5 -3q-2 12 -4 20t-3 14q1 5 17 8t31 3q17 0 20 -3q0 -6 -3 -18.5t-7 -32.5q5 -1 9 -1.5t8 -2.5zM222 714q-5 1 -11.5 3t-13 8t-11.5 16t-7 27h-3q-9 -30 -30 -40.5t-40 -10.5q-13 0 -21 3q-1 0 0.5 3.5t5 7.5t7.5 7t7 3
q16 -2 32.5 3t27.5 32q5 12 5 24q0 1 4.5 2t10 1.5t10 0t4.5 -1.5q0 -35 9 -52t22 -17q6 0 11.5 5t7.5 12q6 -2 6 -6q1 -3 -0.5 -8.5t-5 -10.5t-10.5 -8.5t-17 -2.5z" />
    <glyph glyph-name="gcircumflex" unicode="&#x11d;" horiz-adv-x="278" 
d="M130 45q9 0 17 13.5t14.5 35t12.5 47t10.5 50t7.5 44.5t4 30q0 11 0.5 20.5t0.5 17.5q-4 17 -9.5 34t-11 30t-11.5 21t-12 8q-11 0 -21.5 -12.5t-19 -34.5t-14.5 -51.5t-8 -63.5q-2 -33 -1.5 -67t4.5 -61t13 -44t24 -17zM92 -325q32 0 51 25t28.5 64t13 85t4.5 88v23
q-27 -8 -57 -27q-23 -16 -39.5 -41t-26.5 -53.5t-12.5 -57.5t0.5 -52.5t12.5 -38.5t25.5 -15zM366 -54q5 -6 9 -15.5t5.5 -18.5t0.5 -15t-6 -4q-29 26 -56.5 43.5t-56.5 24.5q0 -13 0.5 -25.5t0.5 -25.5q1 -77 -6.5 -128t-24.5 -81t-43.5 -42.5t-63.5 -12.5q-33 0 -57 14.5
t-38.5 38t-20 53t-2 61t16 61t33.5 52.5q29 31 63.5 45t69.5 18q2 45 2.5 87.5t1.5 82.5q-6 -28 -13.5 -56t-18 -51t-25 -37.5t-34.5 -14.5q-15 0 -30.5 10.5t-28 33t-20 59t-6.5 87.5q1 47 8.5 90t22.5 76t37 52.5t52 19.5q22 0 36.5 -18t23.5 -44v16q0 4 6.5 7t16 4.5
t20 2t17.5 0.5q3 0 3 -3t-1.5 -15t-3.5 -37.5t-4 -70.5q-2 -60 2 -131.5t7 -151.5q38 -6 66 -18t39 -23zM202 466q-24 0 -34.5 16.5t-12.5 37.5h-4q-9 -31 -30 -41.5t-40 -10.5q-13 0 -21 3q-1 1 0.5 4.5t5 7t7.5 6.5t7 3q16 -2 33 3t27 32q2 6 4 12.5t1 11.5q0 2 4.5 2.5
t10 1t10 0t4.5 -1.5q0 -35 9.5 -51.5t21.5 -16.5q6 0 11.5 4.5t7.5 11.5q6 0 6 -5q2 -6 -4.5 -18t-23.5 -12z" />
    <glyph glyph-name="Gbreve" unicode="&#x11e;" horiz-adv-x="400" 
d="M370 223q14 -5 20.5 -13.5t7.5 -11.5q-2 -2 -12 0.5t-36 4.5q-1 -11 -1.5 -22t-0.5 -25q-1 -56 6 -88t11 -50q-2 -3 -9.5 -4.5t-17.5 -1.5q-17 0 -33 4t-16 12q5 12 13 38t9 83q-5 -22 -19 -48.5t-37 -49t-54.5 -37.5t-72.5 -15q-29 0 -61.5 15.5t-58.5 52t-42.5 96.5
t-14.5 150q2 87 22.5 157t53 119t73.5 75t84 26q23 0 39.5 -11t27.5 -29.5t17 -41.5t7 -47q3 88 -4 131q2 8 18.5 13t31.5 5q12 0 16 -3q2 -3 -1 -14.5t-8 -32t-10.5 -50.5t-7.5 -70q-4 -52 -4.5 -105t9.5 -93q-2 -5 -18 -5q-8 0 -17 1.5t-17.5 3.5t-14.5 5.5t-7 6.5
q3 21 6 52.5t4 66.5t-1.5 70t-11 63t-23 45.5t-37.5 17.5q-19 0 -44.5 -21.5t-48.5 -65t-40 -109.5t-19 -156q-2 -70 10 -119.5t32 -80.5t45.5 -45t50.5 -14q31 0 56.5 12t44 32.5t28.5 47t10 55.5q-30 1 -71.5 -3t-86.5 -23q-7 0 -15.5 4.5t-15 11t-11 13.5t-3.5 11
q4 8 42.5 14.5t90.5 6.5q17 0 34.5 -1t34.5 -3q-2 12 -4 20t-3 14q1 5 17 8t31 3q17 0 20 -3q0 -6 -3 -18.5t-7 -32.5q5 -1 9 -1.5t8 -2.5zM180 752q31 0 45.5 14t22.5 38h13q-1 -13 -4.5 -28t-12.5 -28t-25 -22t-40 -9t-39 9t-24 22t-13 28t-5 28h14q8 -24 22 -38t46 -14z
" />
    <glyph glyph-name="gbreve" unicode="&#x11f;" horiz-adv-x="278" 
d="M130 45q9 0 17 13.5t14.5 35t12.5 47t10.5 50t7.5 44.5t4 30q0 11 0.5 20.5t0.5 17.5q-4 17 -9.5 34t-11 30t-11.5 21t-12 8q-11 0 -21.5 -12.5t-19 -34.5t-14.5 -51.5t-8 -63.5q-2 -33 -1.5 -67t4.5 -61t13 -44t24 -17zM92 -325q32 0 51 25t28.5 64t13 85t4.5 88v23
q-27 -8 -57 -27q-23 -16 -39.5 -41t-26.5 -53.5t-12.5 -57.5t0.5 -52.5t12.5 -38.5t25.5 -15zM366 -54q5 -6 9 -15.5t5.5 -18.5t0.5 -15t-6 -4q-29 26 -56.5 43.5t-56.5 24.5q0 -13 0.5 -25.5t0.5 -25.5q1 -77 -6.5 -128t-24.5 -81t-43.5 -42.5t-63.5 -12.5q-33 0 -57 14.5
t-38.5 38t-20 53t-2 61t16 61t33.5 52.5q29 31 63.5 45t69.5 18q2 45 2.5 87.5t1.5 82.5q-6 -28 -13.5 -56t-18 -51t-25 -37.5t-34.5 -14.5q-15 0 -30.5 10.5t-28 33t-20 59t-6.5 87.5q1 47 8.5 90t22.5 76t37 52.5t52 19.5q22 0 36.5 -18t23.5 -44v16q0 4 6.5 7t16 4.5
t20 2t17.5 0.5q3 0 3 -3t-1.5 -15t-3.5 -37.5t-4 -70.5q-2 -60 2 -131.5t7 -151.5q38 -6 66 -18t39 -23zM150 496q32 0 46.5 14t22.5 39h13q-1 -13 -5 -28t-13 -28.5t-24.5 -22.5t-39.5 -9t-39 9t-24 22.5t-13 28.5t-5 28h13q8 -25 22.5 -39t45.5 -14z" />
    <glyph glyph-name="Gdotaccent" unicode="&#x120;" horiz-adv-x="400" 
d="M370 223q14 -5 20.5 -13.5t7.5 -11.5q-2 -2 -12 0.5t-36 4.5q-1 -11 -1.5 -22t-0.5 -25q-1 -56 6 -88t11 -50q-2 -3 -9.5 -4.5t-17.5 -1.5q-17 0 -33 4t-16 12q5 12 13 38t9 83q-5 -22 -19 -48.5t-37 -49t-54.5 -37.5t-72.5 -15q-29 0 -61.5 15.5t-58.5 52t-42.5 96.5
t-14.5 150q2 87 22.5 157t53 119t73.5 75t84 26q23 0 39.5 -11t27.5 -29.5t17 -41.5t7 -47q3 88 -4 131q2 8 18.5 13t31.5 5q12 0 16 -3q2 -3 -1 -14.5t-8 -32t-10.5 -50.5t-7.5 -70q-4 -52 -4.5 -105t9.5 -93q-2 -5 -18 -5q-8 0 -17 1.5t-17.5 3.5t-14.5 5.5t-7 6.5
q3 21 6 52.5t4 66.5t-1.5 70t-11 63t-23 45.5t-37.5 17.5q-19 0 -44.5 -21.5t-48.5 -65t-40 -109.5t-19 -156q-2 -70 10 -119.5t32 -80.5t45.5 -45t50.5 -14q31 0 56.5 12t44 32.5t28.5 47t10 55.5q-30 1 -71.5 -3t-86.5 -23q-7 0 -15.5 4.5t-15 11t-11 13.5t-3.5 11
q4 8 42.5 14.5t90.5 6.5q17 0 34.5 -1t34.5 -3q-2 12 -4 20t-3 14q1 5 17 8t31 3q17 0 20 -3q0 -6 -3 -18.5t-7 -32.5q5 -1 9 -1.5t8 -2.5zM184 807q18 0 31 -12.5t13 -31.5q0 -18 -13 -31t-31 -13q-19 0 -31.5 13t-12.5 31q0 19 12.5 31.5t31.5 12.5z" />
    <glyph glyph-name="gdotaccent" unicode="&#x121;" horiz-adv-x="278" 
d="M130 45q9 0 17 13.5t14.5 35t12.5 47t10.5 50t7.5 44.5t4 30q0 11 0.5 20.5t0.5 17.5q-4 17 -9.5 34t-11 30t-11.5 21t-12 8q-11 0 -21.5 -12.5t-19 -34.5t-14.5 -51.5t-8 -63.5q-2 -33 -1.5 -67t4.5 -61t13 -44t24 -17zM92 -325q32 0 51 25t28.5 64t13 85t4.5 88v23
q-27 -8 -57 -27q-23 -16 -39.5 -41t-26.5 -53.5t-12.5 -57.5t0.5 -52.5t12.5 -38.5t25.5 -15zM366 -54q5 -6 9 -15.5t5.5 -18.5t0.5 -15t-6 -4q-29 26 -56.5 43.5t-56.5 24.5q0 -13 0.5 -25.5t0.5 -25.5q1 -77 -6.5 -128t-24.5 -81t-43.5 -42.5t-63.5 -12.5q-33 0 -57 14.5
t-38.5 38t-20 53t-2 61t16 61t33.5 52.5q29 31 63.5 45t69.5 18q2 45 2.5 87.5t1.5 82.5q-6 -28 -13.5 -56t-18 -51t-25 -37.5t-34.5 -14.5q-15 0 -30.5 10.5t-28 33t-20 59t-6.5 87.5q1 47 8.5 90t22.5 76t37 52.5t52 19.5q22 0 36.5 -18t23.5 -44v16q0 4 6.5 7t16 4.5
t20 2t17.5 0.5q3 0 3 -3t-1.5 -15t-3.5 -37.5t-4 -70.5q-2 -60 2 -131.5t7 -151.5q38 -6 66 -18t39 -23zM151 550q19 0 31.5 -12.5t12.5 -31.5q0 -18 -12.5 -31t-31.5 -13q-18 0 -31 13t-13 31q0 19 13 31.5t31 12.5z" />
    <glyph glyph-name="Hcircumflex" unicode="&#x124;" horiz-adv-x="451" 
d="M363 325q1 -45 3.5 -96.5t9 -100.5t17.5 -89.5t27 -62.5q-1 -9 -13 -15t-29 -6q-20 0 -40.5 12t-27.5 42q-8 33 -6 92.5t5 155.5q-24 4 -70.5 7.5t-101.5 -0.5q-11 -2 -22 -2.5t-21 -2.5q0 -30 2 -64t7 -67.5t14 -65.5t25 -59q-3 -5 -10.5 -9t-25.5 -4q-22 0 -34.5 11.5
t-18.5 29t-7 38t-1 37.5v57.5t1 86.5q-26 -6 -41 -11t-20 -7q-5 0 -14 6t-18.5 13.5t-16.5 14t-7 8.5q-1 5 29 10.5t81 9.5q5 0 8 1q1 38 1.5 69t1.5 44q0 16 1 37.5t2 44t1.5 43.5t0.5 36v34.5t-0.5 22.5t-1 15t-0.5 12q-1 20 7.5 25t18.5 7t27.5 4.5t23.5 0.5
q7 -1 5.5 -10.5t-6.5 -29.5q-5 -24 -15.5 -85.5t-16.5 -156.5q-2 -30 -2.5 -58t-1.5 -54q31 0 61.5 -1.5t57 -4.5t48 -6t33.5 -6q5 -1 8.5 -2t7.5 -3q1 14 1 28.5t1 31.5q2 97 2.5 165t2.5 122q1 25 1.5 40.5t3 25.5t8.5 15.5t17 9.5q17 6 32 11t23 5q6 0 7 -2
q2 -4 0.5 -10.5t-4.5 -19t-8.5 -33.5t-11.5 -56q-5 -29 -9 -65.5t-6.5 -75t-4 -75t-1.5 -65.5zM270 714q-5 1 -11.5 3t-13 8t-11.5 16t-7 27h-3q-9 -30 -30 -40.5t-40 -10.5q-13 0 -21 3q-1 0 0.5 3.5t5 7.5t7.5 7t7 3q16 -2 33 3t27 32q5 12 5 24q0 1 4.5 2t10 1.5t10 0
t4.5 -1.5q0 -35 9.5 -52t21.5 -17q6 0 11.5 5t7.5 12q6 -1 6 -6q1 -3 -0.5 -8.5t-5 -10.5t-10.5 -8.5t-17 -2.5z" />
    <glyph glyph-name="hcircumflex" unicode="&#x125;" horiz-adv-x="314" 
d="M340 169q2 3 6 -1.5t3 -9.5q0 -3 -4 -29.5t-14 -57.5t-27 -56.5t-44 -25.5q-31 0 -47.5 25t-23.5 62t-6.5 80t2.5 80q5 74 13.5 110.5t9.5 49.5q-28 -18 -55.5 -64t-47.5 -125q-19 -72 -22 -117.5t-2 -65.5q2 -25 0 -27t-10.5 -1t-18 4t-19 7t-14.5 8q-3 2 -4 12t-1 30.5
t1.5 53t2.5 78.5q1 50 0.5 125.5t-0.5 169.5q0 83 -2 135.5t5 60.5q2 2 8.5 4.5t15.5 4.5t19 3.5t18 1.5q15 0 17 -5q1 -3 -2 -17t-8 -42t-10 -71t-8 -104q-2 -42 -3 -77t-2 -69t-0.5 -68.5t1.5 -74.5q25 83 60 151.5t83 110.5q10 1 20.5 0t19 -2.5t13.5 -3.5t4 -4
q-7 -18 -12.5 -51t-8.5 -72t-2.5 -79t5.5 -72.5t14.5 -53.5t24.5 -21q9 0 18 13.5t15.5 30.5t11.5 33.5t7 22.5zM123 722q-4 1 -11 3t-13 8t-11 16.5t-7 27.5h-3q-9 -31 -30 -41.5t-40 -10.5q-14 0 -21 3q-2 0 0 3.5t5.5 7.5t7.5 7t7 3q16 -2 32.5 3t27.5 32q5 13 5 24
q0 2 4.5 2.5t10 1t10 0t4.5 -1.5q0 -35 9 -52t22 -17q6 0 11 5t7 12q5 0 7 -5q2 -7 -5.5 -19.5t-28.5 -11.5z" />
    <glyph glyph-name="hbar" unicode="&#x127;" horiz-adv-x="314" 
d="M185 512q5 -2 9 -8.5t6.5 -13.5t3 -13t-2.5 -8q-12 2 -43.5 5t-65.5 1q-5 -1 -10 -1h-10q-1 -5 -1 -9.5v-9.5q-2 -42 -3 -77t-2 -69t-0.5 -68.5t1.5 -74.5q25 83 60 151.5t83 110.5q10 1 20.5 0t19 -2.5t13.5 -3.5t4 -4q-7 -18 -12.5 -51t-8.5 -72t-2.5 -79t5.5 -72.5
t14.5 -53.5t24.5 -21q9 0 18 13.5t15.5 30.5t11.5 33.5t7 22.5q2 3 6 -1.5t3 -9.5q0 -3 -4 -29.5t-14 -57.5t-27 -56.5t-44 -25.5q-31 0 -47.5 25t-23.5 62t-6.5 80t2.5 80q5 74 13.5 110.5t9.5 49.5q-28 -18 -55.5 -64t-47.5 -125q-19 -72 -22 -117.5t-2 -65.5q2 -25 0 -27
t-10.5 -1t-18 4t-19 7t-14.5 8q-3 2 -4 12t-1 30.5t1.5 53t2.5 78.5q1 48 0.5 120t-0.5 160q-7 -1 -14 -1.5t-16 -2.5q-2 0 -6 5.5t-7 12.5t-4.5 13.5t1.5 9.5q1 2 11 2q6 0 15 -0.5t20 -1.5q0 74 -2 120.5t5 53.5q2 2 8.5 4.5t15.5 4.5t19 3.5t18 1.5q15 0 17 -5
q1 -3 -1.5 -14.5t-6.5 -33.5t-9 -55.5t-8 -81.5h6.5t7.5 1q29 1 46.5 3t27.5 3.5t15 2t8 -1.5z" />
    <glyph glyph-name="Itilde" unicode="&#x128;" horiz-adv-x="136" 
d="M70 408q-6 -97 -3 -171.5t12 -127.5q5 -28 10.5 -47.5t11 -32t9.5 -18.5t5 -8q-3 -5 -10.5 -9t-25.5 -4q-22 0 -34.5 11.5t-18.5 29t-7 38t-1 37.5v35.5t0.5 54t1 63.5t1 62.5t1 53t1.5 33.5q0 16 1 37.5t2 44t1.5 43.5t0.5 36v34.5t-0.5 22.5t-1 15t-0.5 12
q-1 20 7.5 25t18.5 7t27.5 4.5t23.5 0.5q7 -1 5 -10.5t-6 -29.5q-5 -24 -16 -85.5t-16 -156.5zM144 796q0 1 2.5 1.5t6 -0.5t6.5 -3t3 -7q0 -35 -12 -47t-29 -12q-9 0 -17.5 2.5t-20.5 9.5q-4 2 -7.5 4t-8.5 4q-2 2 -5 3.5t-6 3.5q-11 7 -24.5 13.5t-22.5 6.5q-6 0 -9 -3
q-7 -7 -1 -42q0 -1 -2.5 -1.5t-6 0t-6.5 3t-3 6.5q0 35 12 47t29 12q9 0 17.5 -2.5t20.5 -9.5q4 -2 7.5 -4t8.5 -4q3 -2 11 -6v-1q11 -6 24 -12.5t23 -6.5q6 0 9 3q5 4 4.5 14.5t-3.5 27.5z" />
    <glyph glyph-name="itilde" unicode="&#x129;" horiz-adv-x="139" 
d="M166 157q-1 -6 -6.5 -31.5t-17 -53.5t-27.5 -50t-38 -22q-24 0 -37 18.5t-19 50.5t-6.5 75t-0.5 92q0 23 0.5 49t1 48.5t0.5 39.5v23q-1 16 8.5 20t26.5 8q8 2 16 3.5t15 1.5q11 0 10 -7q-1 -5 -5 -17.5t-8.5 -34.5t-8.5 -55.5t-6 -81.5q-1 -31 0.5 -59t6 -49.5t11.5 -34
t16 -12.5q12 0 21.5 12t17 27.5t12 30.5t5.5 20q2 3 6.5 0t5.5 -11zM137 524q0 3 9.5 1.5t9.5 -10.5q0 -35 -12 -47t-29 -12q-10 0 -18.5 3t-20.5 10q-4 2 -7.5 3.5t-8.5 4.5q-2 1 -4.5 2.5t-5.5 3.5h-1q-11 7 -24 13.5t-23 6.5q-6 0 -9 -3q-5 -4 -4 -14.5t3 -27.5
q0 -1 -2.5 -1.5t-6 0.5t-6.5 3.5t-3 6.5q0 35 12 47t29 12q9 0 18 -3t21 -9q3 -2 6.5 -4t8.5 -4q2 -2 5 -3.5t6 -3.5h1q11 -7 24 -13.5t23 -6.5q6 0 9 3q5 5 4 15t-4 27z" />
    <glyph glyph-name="Imacron" unicode="&#x12a;" horiz-adv-x="136" 
d="M70 408q-6 -97 -3 -171.5t12 -127.5q5 -28 10.5 -47.5t11 -32t9.5 -18.5t5 -8q-3 -5 -10.5 -9t-25.5 -4q-22 0 -34.5 11.5t-18.5 29t-7 38t-1 37.5v35.5t0.5 54t1 63.5t1 62.5t1 53t1.5 33.5q0 16 1 37.5t2 44t1.5 43.5t0.5 36v34.5t-0.5 22.5t-1 15t-0.5 12
q-1 20 7.5 25t18.5 7t27.5 4.5t23.5 0.5q7 -1 5 -10.5t-6 -29.5q-5 -24 -16 -85.5t-16 -156.5zM-9 750h167l-14 -30h-167z" />
    <glyph glyph-name="Ibreve" unicode="&#x12c;" horiz-adv-x="136" 
d="M70 408q-6 -97 -3 -171.5t12 -127.5q5 -28 10.5 -47.5t11 -32t9.5 -18.5t5 -8q-3 -5 -10.5 -9t-25.5 -4q-22 0 -34.5 11.5t-18.5 29t-7 38t-1 37.5v35.5t0.5 54t1 63.5t1 62.5t1 53t1.5 33.5q0 16 1 37.5t2 44t1.5 43.5t0.5 36v34.5t-0.5 22.5t-1 15t-0.5 12
q-1 20 7.5 25t18.5 7t27.5 4.5t23.5 0.5q7 -1 5 -10.5t-6 -29.5q-5 -24 -16 -85.5t-16 -156.5zM72 752q31 0 46 14t23 38h13q-1 -13 -5 -28t-13 -28t-25 -22t-40 -9t-39 9t-24 22t-12.5 28t-4.5 28h13q8 -24 22.5 -38t45.5 -14z" />
    <glyph glyph-name="ibreve" unicode="&#x12d;" horiz-adv-x="139" 
d="M166 157q-1 -6 -6.5 -31.5t-17 -53.5t-27.5 -50t-38 -22q-24 0 -37 18.5t-19 50.5t-6.5 75t-0.5 92q0 23 0.5 49t1 48.5t0.5 39.5v23q-1 16 8.5 20t26.5 8q8 2 16 3.5t15 1.5q11 0 10 -7q-1 -5 -5 -17.5t-8.5 -34.5t-8.5 -55.5t-6 -81.5q-1 -31 0.5 -59t6 -49.5t11.5 -34
t16 -12.5q12 0 21.5 12t17 27.5t12 30.5t5.5 20q2 3 6.5 0t5.5 -11zM64 496q31 0 45.5 14t22.5 39h13q-1 -13 -5 -28t-13 -28.5t-24.5 -22.5t-39.5 -9t-39 9t-24 22.5t-13 28.5t-5 28h13q8 -25 22.5 -39t46.5 -14z" />
    <glyph glyph-name="Iogonek" unicode="&#x12e;" horiz-adv-x="136" 
d="M85 -151q17 0 32.5 13.5t20.5 39.5q5 0 13.5 -9.5t3.5 -20.5q-24 -41 -86 -41q-31 0 -50.5 15.5t-19.5 40.5q0 31 21 53.5t55 49.5q-21 1 -32.5 13t-17 29t-6.5 37t-1 37v35.5t0.5 54t1 63.5t1 62.5t1 53t1.5 33.5q0 16 1 37.5t2 44t1.5 43.5t0.5 36v34.5t-0.5 22.5
t-1 15t-0.5 12q-1 20 7.5 25t18.5 7t27.5 4.5t23.5 0.5q7 -1 5 -10.5t-6 -29.5q-5 -24 -16 -85.5t-16 -156.5q-6 -97 -3 -171.5t12 -127.5q5 -28 10.5 -47.5t11 -32t9.5 -18.5t5 -8q-2 -4 -6.5 -7t-14.5 -5q-30 -25 -42 -48.5t-12 -43.5q0 -25 14 -37.5t31 -12.5z" />
    <glyph glyph-name="iogonek" unicode="&#x12f;" horiz-adv-x="139" 
d="M77 -138q17 0 32.5 13.5t20.5 39.5q5 0 13.5 -9.5t3.5 -20.5q-23 -41 -86 -41q-31 0 -50.5 15.5t-19.5 40.5q0 31 20.5 53t54.5 48q-20 5 -30.5 25t-15.5 51.5t-5.5 72t-0.5 86.5q0 23 0.5 49t1 48.5t0.5 39.5v23q-1 16 8.5 20t26.5 8q8 2 16 3.5t15 1.5q11 0 10 -7
q-1 -5 -5 -17t-8.5 -34t-8.5 -56t-6 -82q-1 -31 0.5 -59t6 -49.5t11.5 -34t16 -12.5q12 0 21.5 12t17 27.5t12 30.5t5.5 20q2 3 6.5 0t5.5 -11q-1 -6 -6.5 -30.5t-15.5 -51.5t-25.5 -49t-35.5 -25q-28 -24 -39.5 -46.5t-11.5 -42.5q0 -25 14 -37.5t31 -12.5z" />
    <glyph glyph-name="Idotaccent" unicode="&#x130;" horiz-adv-x="136" 
d="M70 408q-6 -97 -3 -171.5t12 -127.5q5 -28 10.5 -47.5t11 -32t9.5 -18.5t5 -8q-3 -5 -10.5 -9t-25.5 -4q-22 0 -34.5 11.5t-18.5 29t-7 38t-1 37.5v35.5t0.5 54t1 63.5t1 62.5t1 53t1.5 33.5q0 16 1 37.5t2 44t1.5 43.5t0.5 36v34.5t-0.5 22.5t-1 15t-0.5 12
q-1 20 7.5 25t18.5 7t27.5 4.5t23.5 0.5q7 -1 5 -10.5t-6 -29.5q-5 -24 -16 -85.5t-16 -156.5zM70 807q18 0 31 -12.5t13 -31.5q0 -18 -13 -31t-31 -13q-19 0 -31.5 13t-12.5 31q0 19 12.5 31.5t31.5 12.5z" />
    <glyph glyph-name="dotlessi" unicode="&#x131;" horiz-adv-x="139" 
d="M166 157q-1 -6 -6.5 -31.5t-17 -53.5t-27.5 -50t-38 -22q-24 0 -37 18.5t-19 50.5t-6.5 75t-0.5 92q0 23 0.5 49t1 48.5t0.5 39.5v23q-1 16 8.5 20t26.5 8q8 2 16 3.5t15 1.5q11 0 10 -7q-1 -5 -5 -17.5t-8.5 -34.5t-8.5 -55.5t-6 -81.5q-1 -31 0.5 -59t6 -49.5t11.5 -34
t16 -12.5q12 0 21.5 12t17 27.5t12 30.5t5.5 20q2 3 6.5 0t5.5 -11z" />
    <glyph glyph-name="Lacute" unicode="&#x139;" horiz-adv-x="430" 
d="M369 60q12 -1 22.5 -11.5t16.5 -22.5t7 -23t-6 -14q-18 4 -45 9.5t-61.5 10t-74.5 7t-85 2.5q8 -13 10 -15q-3 -5 -11 -9t-26 -4q-17 0 -27.5 7t-17.5 18q-37 -3 -75 -9q-5 -1 -10.5 1t-3.5 4q1 2 21.5 9.5t58.5 17.5q-5 17 -6 34.5t-1 33.5v35.5t0.5 54t1 63.5t1.5 62.5
t1.5 53t0.5 33.5q0 16 1 37.5t2 44t1.5 43.5t0.5 36v34.5t-0.5 22.5t-1 15t-0.5 12q0 20 8.5 25t18.5 7q9 2 26.5 4.5t24.5 0.5q7 -1 5 -10.5t-7 -29.5q-5 -24 -15.5 -85.5t-16.5 -156.5q-5 -97 -2 -171.5t11 -127.5q3 -18 6.5 -32t7.5 -25q32 5 70.5 8.5t81.5 3.5
q21 0 42.5 -1t44.5 -3zM130 750q22 8 44.5 22t31.5 25q2 2 3.5 -4t1.5 -9q0 -6 -7.5 -16.5t-20.5 -21.5t-31 -21t-38 -17q-3 0 -3 5.5t2 13t6.5 14t10.5 9.5z" />
    <glyph glyph-name="lacute" unicode="&#x13a;" horiz-adv-x="128" 
d="M140 168q3 3 7.5 0t4.5 -11q0 -6 -3.5 -31.5t-12.5 -53.5t-24.5 -50t-39.5 -22q-27 0 -41.5 19t-21.5 59t-8 100.5t-1 142.5q1 105 1 172.5t0.5 108t2 58t4.5 21.5q2 2 8.5 4.5t15.5 4.5t19 3.5t18 1.5q15 0 17 -5q1 -3 -2 -18t-8 -42.5t-10 -68.5t-8 -97
q-2 -37 -3 -66.5t-2 -57.5t-0.5 -57t1.5 -65q1 -30 3 -55t6.5 -44t11 -29.5t15.5 -10.5q12 0 21 12t15 27.5t9.5 30t4.5 19.5zM60 769q22 8 44.5 22t32.5 25q2 2 3.5 -4.5t1.5 -8.5q0 -6 -7.5 -16.5t-21 -21.5t-31.5 -21t-38 -17q-3 0 -3 5.5t2 13t6.5 14t10.5 9.5z" />
    <glyph glyph-name="Lslash" unicode="&#x141;" horiz-adv-x="430" 
d="M194 600q2 2 7 3.5t10 1.5q11 0 11 -4q-3 -4 -15.5 -27t-29.5 -56t-36 -70.5t-35 -72.5q-4 -86 -1 -152t11 -114q3 -18 6.5 -32t7.5 -25q32 5 70.5 8.5t81.5 3.5q21 0 42.5 -1t44.5 -3q12 -1 22.5 -11.5t16.5 -22.5t7 -23t-6 -14q-18 4 -45 9.5t-61.5 10t-74.5 7t-85 2.5
q8 -13 10 -15q-3 -5 -11 -9t-26 -4q-17 0 -27.5 7t-17.5 18q-37 -3 -75 -9q-5 0 -10.5 1.5t-3.5 3.5q1 2 21.5 9.5t58.5 17.5q-5 17 -6 34.5t-1 33.5v26t0.5 38.5t1 47t0.5 50.5q-15 -34 -30.5 -68t-28.5 -62t-21.5 -47t-9.5 -23q-6 -2 -14 6t-6 18q1 5 12.5 27.5t28 54
t35.5 68t35 69.5q1 33 1.5 59.5t0.5 37.5q0 16 1 37.5t2 44t1.5 43.5t0.5 36v34.5t-0.5 22.5t-1 15t-0.5 12q0 20 8.5 25t18.5 7q9 2 26.5 4.5t24.5 0.5q7 -1 5 -10.5t-7 -29.5q-5 -23 -15.5 -83t-15.5 -152q14 29 28 60t26 57.5t20.5 45t11.5 22.5z" />
    <glyph glyph-name="lslash" unicode="&#x142;" horiz-adv-x="128" 
d="M92 474q5 4 16 4q12 0 22.5 -4.5t9.5 -9.5q-4 -5 -14 -17t-22.5 -28t-26 -34t-24.5 -35q-1 -31 -1 -61.5t2 -70.5q1 -30 3 -55t6.5 -44t11 -29.5t15.5 -10.5q12 0 21 12t15 27.5t9.5 30t4.5 19.5q3 3 7.5 0t4.5 -11q0 -6 -3.5 -31.5t-12.5 -53.5t-24.5 -50t-39.5 -22
t-38 16t-21.5 49t-10 83t-2.5 119q-8 -14 -15.5 -27.5t-15.5 -30.5q-2 -3 -15 -3q-11 0 -21.5 2.5t-10.5 8.5q0 5 5.5 11.5t15 18.5t24 31t33.5 48q1 103 1 170t0.5 107t2 57t4.5 21q2 2 8.5 4.5t15.5 4.5t19 3.5t18 1.5q15 0 17 -5q1 -3 -2 -18t-8 -42.5t-10 -68.5t-8 -97
q-1 -13 -1 -24.5t-1 -22.5q29 53 36 57z" />
    <glyph glyph-name="Nacute" unicode="&#x143;" horiz-adv-x="428" 
d="M365 714q19 4 36.5 -1.5t31 -14.5t20.5 -20t5 -17q-39 -22 -60 -70t-31.5 -106t-12.5 -119t-3 -108q0 -41 1 -85.5t2.5 -82t2 -63t-1.5 -29.5q-3 -5 -11.5 -7t-19.5 -2q-18 0 -36 4t-20 7q-58 93 -94.5 187t-57 171.5t-28.5 131t-9 66.5q-1 -4 -1 -8v-9q-2 -27 -4 -70
t-2.5 -93.5t2 -105.5t9.5 -105t19.5 -92t31.5 -67q-2 -7 -14 -12t-28 -5q-18 0 -36 9.5t-27 32.5q-11 32 -7.5 88t4.5 132q1 43 1.5 94.5t0.5 105t-1.5 105.5t-5.5 95q0 5 7 10.5t17.5 11t22.5 9.5t21 5q14 3 26 3q11 0 19.5 -3t13.5 -9q-13 -68 -11 -139t14.5 -138.5
t32.5 -128.5t43 -110.5t45.5 -85t40.5 -50.5q-1 16 -4 46t-6.5 69.5t-7.5 86.5t-7 98q-6 86 -2.5 155.5t14 119t27.5 78.5t38 35zM219 750q22 8 44.5 22t32.5 25q2 2 3.5 -4t1.5 -9q0 -6 -7.5 -16.5t-21 -21.5t-31.5 -21t-38 -17q-3 0 -3 5.5t2 13t6.5 14t10.5 9.5z" />
    <glyph glyph-name="nacute" unicode="&#x144;" horiz-adv-x="270" 
d="M280 168q3 3 7.5 0t5.5 -11q-1 -6 -6 -34.5t-15 -59.5t-25.5 -56t-38.5 -25q-25 0 -39.5 19t-21 52t-8 77t-0.5 94q1 35 0.5 67t-1.5 52q-28 -69 -43 -129t-22 -106q-8 -53 -9 -98q0 -7 -3.5 -8.5t-8.5 -1.5q-7 0 -16 2.5t-16.5 6.5t-12.5 8t-5 7q5 32 6 75t-1 100
q-1 79 -2 128.5t-2 66.5t8 21.5t29 9.5q8 2 16 3.5t15 1.5q11 0 10 -8q-7 -24 -17.5 -83t-12.5 -145v-34.5t1 -30.5q14 56 28 99t26 74t21 48.5t11 21.5q2 7 9.5 11.5t18 7.5t20.5 4t16 1q13 0 12 -7q-3 -11 -11.5 -53t-11.5 -111q-1 -31 1 -58t6.5 -46.5t11 -31t15.5 -11.5
q12 0 21.5 12t16.5 27.5t11.5 30.5t5.5 20zM191 555q2 2 3.5 -4.5t1.5 -8.5q0 -6 -7.5 -16.5t-20.5 -21.5t-31 -21t-38 -17q-3 0 -3 5.5t2 13t6.5 14t10.5 9.5q22 8 44.5 22t31.5 25z" />
    <glyph glyph-name="Ncaron" unicode="&#x147;" horiz-adv-x="428" 
d="M365 714q19 4 36.5 -1.5t31 -14.5t20.5 -20t5 -17q-39 -22 -60 -70t-31.5 -106t-12.5 -119t-3 -108q0 -41 1 -85.5t2.5 -82t2 -63t-1.5 -29.5q-3 -5 -11.5 -7t-19.5 -2q-18 0 -36 4t-20 7q-58 93 -94.5 187t-57 171.5t-28.5 131t-9 66.5q-1 -4 -1 -8v-9q-2 -27 -4 -70
t-2.5 -93.5t2 -105.5t9.5 -105t19.5 -92t31.5 -67q-2 -7 -14 -12t-28 -5q-18 0 -36 9.5t-27 32.5q-11 32 -7.5 88t4.5 132q1 43 1.5 94.5t0.5 105t-1.5 105.5t-5.5 95q0 5 7 10.5t17.5 11t22.5 9.5t21 5q14 3 26 3q11 0 19.5 -3t13.5 -9q-13 -68 -11 -139t14.5 -138.5
t32.5 -128.5t43 -110.5t45.5 -85t40.5 -50.5q-1 16 -4 46t-6.5 69.5t-7.5 86.5t-7 98q-6 86 -2.5 155.5t14 119t27.5 78.5t38 35zM232 754q9 30 30 40.5t40 10.5q14 0 21 -3q2 0 0 -3.5t-5.5 -7.5t-7.5 -7t-7 -3q-16 2 -33 -3t-27 -31q-5 -13 -5 -25q0 -1 -4.5 -2t-10 -1.5
t-10 0t-4.5 1.5q0 35 -9.5 52t-21.5 17q-6 0 -11.5 -4.5t-7.5 -12.5q-6 2 -6 6q-2 6 4.5 18t24.5 12q23 0 34 -16.5t13 -37.5h3z" />
    <glyph glyph-name="ncaron" unicode="&#x148;" horiz-adv-x="270" 
d="M280 168q3 3 7.5 0t5.5 -11q-1 -6 -6 -34.5t-15 -59.5t-25.5 -56t-38.5 -25q-25 0 -39.5 19t-21 52t-8 77t-0.5 94q1 35 0.5 67t-1.5 52q-28 -69 -43 -129t-22 -106q-8 -53 -9 -98q0 -7 -3.5 -8.5t-8.5 -1.5q-7 0 -16 2.5t-16.5 6.5t-12.5 8t-5 7q5 32 6 75t-1 100
q-1 79 -2 128.5t-2 66.5t8 21.5t29 9.5q8 2 16 3.5t15 1.5q11 0 10 -8q-7 -24 -17.5 -83t-12.5 -145v-34.5t1 -30.5q14 56 28 99t26 74t21 48.5t11 21.5q2 7 9.5 11.5t18 7.5t20.5 4t16 1q13 0 12 -7q-3 -11 -11.5 -53t-11.5 -111q-1 -31 1 -58t6.5 -46.5t11 -31t15.5 -11.5
q12 0 21.5 12t16.5 27.5t11.5 30.5t5.5 20zM127 496q9 30 30.5 41t40.5 11q13 0 20 -3q2 -1 0 -4t-5.5 -7t-7 -7t-6.5 -3q-17 2 -33.5 -3.5t-26.5 -31.5q-2 -6 -4 -12.5t-1 -11.5q0 -1 -4.5 -2t-10 -1.5t-10 0t-4.5 1.5q0 35 -9.5 51.5t-21.5 16.5q-16 0 -19 -17q-5 1 -7 6
q-1 6 5.5 18t23.5 12q24 0 34.5 -16.5t12.5 -37.5h3z" />
    <glyph glyph-name="Omacron" unicode="&#x14c;" horiz-adv-x="484" 
d="M396 176q5 23 7.5 54t1.5 56q-1 89 -17.5 159t-42 119t-56.5 74.5t-61 25.5q-20 0 -37.5 -16t-29.5 -46t-17 -74t0 -100q4 -46 17.5 -79.5t30 -55t32 -32t24.5 -11.5q2 -9 -7.5 -21t-31.5 -12q-29 1 -49 21.5t-32.5 51t-17.5 67.5t-5 71q-4 -42 -5 -76t2 -73
q8 -128 47 -185t102 -57q55 0 92.5 35.5t52.5 103.5zM262 708q51 0 89.5 -39.5t63 -102.5t35 -140.5t5.5 -152.5q-4 -68 -20 -123.5t-43.5 -95t-68 -61t-93.5 -21.5q-54 0 -92.5 25t-63.5 66.5t-37.5 95t-15.5 109.5q-3 68 -0.5 138.5t16 127t40.5 91.5t73 32q13 17 30 27
t33.5 15.5t29.5 7t19 1.5zM331 730h-167l14 30h167z" />
    <glyph glyph-name="omacron" unicode="&#x14d;" horiz-adv-x="312" 
d="M165 34q43 0 66 58h-5q-36 0 -63.5 12.5t-46.5 33t-30 45.5t-16 50q-2 -42 4.5 -78t19 -63t31 -42.5t40.5 -15.5zM144 405q-17 0 -28.5 -11.5t-18 -30t-7.5 -42.5t3 -49q4 -22 14.5 -48t28.5 -49t44 -38.5t60 -15.5q3 14 5 31t2 37q0 35 -8 73.5t-22.5 70t-33 52
t-39.5 20.5zM352 169q3 2 7.5 0t2.5 -7q-2 -4 -9.5 -13.5t-20 -20t-31 -19.5t-42.5 -14q-16 -46 -47.5 -72.5t-74.5 -26.5q-31 0 -56.5 15t-43.5 41.5t-28 63t-10 79.5q0 44 6.5 78.5t15.5 59.5t19 41t17 22q4 3 19.5 6.5t26.5 2.5q11 12 25.5 19t35.5 7q29 0 50.5 -21.5
t35 -55.5t19.5 -77t6 -86q0 -34 -8 -68q21 3 36.5 10t26 14.5t16 14t6.5 7.5zM225 467h-168l15 30h167z" />
    <glyph glyph-name="Obreve" unicode="&#x14e;" horiz-adv-x="484" 
d="M396 176q5 23 7.5 54t1.5 56q-1 89 -17.5 159t-42 119t-56.5 74.5t-61 25.5q-20 0 -37.5 -16t-29.5 -46t-17 -74t0 -100q4 -46 17.5 -79.5t30 -55t32 -32t24.5 -11.5q2 -9 -7.5 -21t-31.5 -12q-29 1 -49 21.5t-32.5 51t-17.5 67.5t-5 71q-4 -42 -5 -76t2 -73
q8 -128 47 -185t102 -57q55 0 92.5 35.5t52.5 103.5zM262 708q51 0 89.5 -39.5t63 -102.5t35 -140.5t5.5 -152.5q-4 -68 -20 -123.5t-43.5 -95t-68 -61t-93.5 -21.5q-54 0 -92.5 25t-63.5 66.5t-37.5 95t-15.5 109.5q-3 68 -0.5 138.5t16 127t40.5 91.5t73 32q13 17 30 27
t33.5 15.5t29.5 7t19 1.5zM238 761q31 0 46 14t23 38h13q-1 -13 -5 -28t-13 -28t-25 -22t-40 -9t-39 9t-24 22t-12.5 28t-4.5 28h13q8 -24 22.5 -38t45.5 -14z" />
    <glyph glyph-name="obreve" unicode="&#x14f;" horiz-adv-x="312" 
d="M165 34q43 0 66 58h-5q-36 0 -63.5 12.5t-46.5 33t-30 45.5t-16 50q-2 -42 4.5 -78t19 -63t31 -42.5t40.5 -15.5zM144 405q-17 0 -28.5 -11.5t-18 -30t-7.5 -42.5t3 -49q4 -22 14.5 -48t28.5 -49t44 -38.5t60 -15.5q3 14 5 31t2 37q0 35 -8 73.5t-22.5 70t-33 52
t-39.5 20.5zM352 169q3 2 7.5 0t2.5 -7q-2 -4 -9.5 -13.5t-20 -20t-31 -19.5t-42.5 -14q-16 -46 -47.5 -72.5t-74.5 -26.5q-31 0 -56.5 15t-43.5 41.5t-28 63t-10 79.5q0 44 6.5 78.5t15.5 59.5t19 41t17 22q4 3 19.5 6.5t26.5 2.5q11 12 25.5 19t35.5 7q29 0 50.5 -21.5
t35 -55.5t19.5 -77t6 -86q0 -34 -8 -68q21 3 36.5 10t26 14.5t16 14t6.5 7.5zM149 496q32 0 46.5 14t22.5 39h13q-1 -13 -5 -28t-13 -28.5t-24.5 -22.5t-39.5 -9t-39.5 9t-24.5 22.5t-12.5 28.5t-4.5 28h13q8 -25 22.5 -39t45.5 -14z" />
    <glyph glyph-name="Ohungarumlaut" unicode="&#x150;" horiz-adv-x="484" 
d="M396 176q5 23 7.5 54t1.5 56q-1 89 -17.5 159t-42 119t-56.5 74.5t-61 25.5q-20 0 -37.5 -16t-29.5 -46t-17 -74t0 -100q4 -46 17.5 -79.5t30 -55t32 -32t24.5 -11.5q2 -9 -7.5 -21t-31.5 -12q-29 1 -49 21.5t-32.5 51t-17.5 67.5t-5 71q-4 -42 -5 -76t2 -73
q8 -128 47 -185t102 -57q55 0 92.5 35.5t52.5 103.5zM262 708q51 0 89.5 -39.5t63 -102.5t35 -140.5t5.5 -152.5q-4 -68 -20 -123.5t-43.5 -95t-68 -61t-93.5 -21.5q-54 0 -92.5 25t-63.5 66.5t-37.5 95t-15.5 109.5q-3 68 -0.5 138.5t16 127t40.5 91.5t73 32q13 17 30 27
t33.5 15.5t29.5 7t19 1.5zM281 805q0 -6 -7.5 -16.5t-21 -21.5t-31.5 -21t-38 -17q-3 0 -3 5.5t2 12.5t6.5 14t10.5 9q22 9 44.5 23t32.5 25q2 2 3.5 -4.5t1.5 -8.5zM350 818q2 2 3.5 -4.5t1.5 -8.5q0 -6 -7.5 -16.5t-20.5 -21.5t-31 -21t-38 -17q-3 0 -3 5.5t2 12.5t6.5 14
t10.5 9q22 9 44.5 23t31.5 25z" />
    <glyph glyph-name="ohungarumlaut" unicode="&#x151;" horiz-adv-x="312" 
d="M165 34q43 0 66 58h-5q-36 0 -63.5 12.5t-46.5 33t-30 45.5t-16 50q-2 -42 4.5 -78t19 -63t31 -42.5t40.5 -15.5zM144 405q-17 0 -28.5 -11.5t-18 -30t-7.5 -42.5t3 -49q4 -22 14.5 -48t28.5 -49t44 -38.5t60 -15.5q3 14 5 31t2 37q0 35 -8 73.5t-22.5 70t-33 52
t-39.5 20.5zM352 169q3 2 7.5 0t2.5 -7q-2 -4 -9.5 -13.5t-20 -20t-31 -19.5t-42.5 -14q-16 -46 -47.5 -72.5t-74.5 -26.5q-31 0 -56.5 15t-43.5 41.5t-28 63t-10 79.5q0 44 6.5 78.5t15.5 59.5t19 41t17 22q4 3 19.5 6.5t26.5 2.5q11 12 25.5 19t35.5 7q29 0 50.5 -21.5
t35 -55.5t19.5 -77t6 -86q0 -34 -8 -68q21 3 36.5 10t26 14.5t16 14t6.5 7.5zM176 538q0 -6 -7.5 -16.5t-21 -21.5t-31.5 -21t-38 -17q-3 0 -3 5.5t2 13t6.5 14t10.5 9.5q22 8 44.5 22t32.5 25q2 2 3.5 -4.5t1.5 -8.5zM246 551q2 2 3 -4.5t1 -8.5q0 -6 -7.5 -16.5
t-20.5 -21.5t-31 -21t-38 -17q-3 0 -3 5.5t2 13t6.5 14t10.5 9.5q22 8 44.5 22t32.5 25z" />
    <glyph glyph-name="OE" unicode="&#x152;" horiz-adv-x="840" 
d="M396 176q5 23 7.5 54t1.5 56q-1 89 -17.5 159t-42 119t-56.5 74.5t-61 25.5q-20 0 -37.5 -16t-29.5 -46t-17 -74t0 -100q4 -46 17.5 -79.5t30 -55t32 -32t24.5 -11.5q2 -9 -7.5 -21t-31.5 -12q-29 1 -49 21.5t-32.5 51t-17.5 67.5t-5 71q-4 -42 -5 -76t2 -73
q8 -128 47 -185t102 -57q55 0 92.5 35.5t52.5 103.5zM861 199q5 2 9 -5.5t4 -10.5q-10 -50 -35.5 -90.5t-61.5 -69.5t-81 -45t-96 -16q-33 0 -62 8t-51 23t-34 36t-12 47q0 33 15 57.5t36 41.5t43 27.5t37 15.5q-30 2 -61.5 14t-55.5 37q-5 -67 -21 -122t-44 -94t-67.5 -60
t-92.5 -21q-54 0 -92.5 25t-63.5 66.5t-37.5 95t-15.5 109.5q-3 68 -0.5 138.5t16 127t40.5 91.5t73 32q13 17 30 27t33.5 15.5t29.5 7t19 1.5q30 0 55.5 -14t46.5 -39t37 -59t28 -74q16 39 40.5 70.5t54 53t62.5 33.5t66 12q42 0 64 -17t32 -39t11.5 -44t1.5 -33
q6 41 3 74.5t-6 51.5q2 4 9.5 7.5t17 6.5t19.5 5t17 2q10 0 12 -2t-0.5 -7.5t-7 -17t-10 -29.5t-10.5 -45q-7 -36 -11.5 -73t-6.5 -72.5t0 -68t9 -58.5q-3 -8 -22 -8q-14 0 -30 5t-23 13q2 15 6 41.5t7 58.5t4 66t-2 63t-11.5 51t-24.5 29q-12 6 -27 6q-35 0 -77.5 -31
t-75.5 -95q-17 -33 -26 -72t-8.5 -75.5t10.5 -67t31 -48.5q31 -25 69 -25q26 0 50 11t42 31q4 0 5.5 -9t2 -21t-0.5 -23t-1 -16q-1 -8 -14 -7t-34 1q-4 0 -8 -0.5t-9 -0.5q-18 -1 -39.5 -8t-39.5 -20t-29 -33t-8 -49q3 -23 14.5 -38.5t29 -25t38 -13.5t41.5 -4q43 0 72 13
q38 17 63.5 37t42 42t27.5 44.5t20 44.5z" />
    <glyph glyph-name="oe" unicode="&#x153;" horiz-adv-x="522" 
d="M165 34q22 0 40.5 17.5t29.5 52.5q-37 0 -65.5 12t-49 31t-33 43t-17.5 48q-2 -42 4 -79.5t19 -65t31.5 -43.5t40.5 -16zM144 405q-17 0 -28.5 -11.5t-18 -30t-7.5 -42.5t3 -49q4 -22 14.5 -48t28.5 -49t44 -38.5t60 -15.5q3 14 5 31t2 37q0 35 -8 73.5t-22.5 70t-33 52
t-39.5 20.5zM397 413q-12 0 -25 -14t-23.5 -38.5t-18 -58t-9.5 -72.5q3 -11 9.5 -25t15.5 -26t20 -20.5t22 -8.5q21 0 30.5 33.5t11.5 88.5q1 25 1 50t-3.5 45.5t-10.5 33t-20 12.5zM530 168q2 4 8 0t4 -11q-6 -27 -19 -54.5t-33 -50.5t-46 -37.5t-56 -14.5q-48 0 -79 31.5
t-45 77.5q-15 -52 -48 -82.5t-79 -30.5q-31 0 -56.5 15t-43.5 41.5t-28 63t-10 79.5q0 44 6.5 78.5t15.5 59.5t19 41t17 22q4 3 19.5 6.5t26.5 2.5q11 12 25.5 19t35.5 7q39 0 64 -37.5t36 -91.5q7 26 18 49t26 40t34.5 27t43.5 10q46 0 74 -41.5t26 -118.5
q-2 -70 -26.5 -102t-64.5 -32q-13 0 -24.5 6t-21 15t-16.5 20t-12 20q1 -41 11 -70.5t25 -48t33 -27t34 -8.5q24 0 43 19t33 42.5t21.5 43.5t8.5 22z" />
    <glyph glyph-name="Racute" unicode="&#x154;" horiz-adv-x="519" 
d="M188 680q-17 0 -33.5 -1.5t-32.5 -3.5q-1 -5 -2 -11t-3 -14q-5 -24 -16 -85.5t-16 -156.5q-6 -103 -3 -181q76 3 130.5 31t89 70.5t49.5 93.5t10 99q-7 72 -52.5 115.5t-120.5 43.5zM498 17q4 -13 1.5 -28t-10 -27t-20.5 -19.5t-30 -7.5q-36 0 -72 13.5t-71 35.5
t-67 49.5t-59.5 56t-49.5 54.5t-36 45q3 -48 11.5 -96t34.5 -90q-3 -5 -10.5 -9t-25.5 -4q-22 0 -34.5 11.5t-18.5 29t-7.5 38t-1.5 37.5q0 13 0.5 39.5t0.5 59.5q-40 3 -60 12t-33 18q-9 6 -13.5 16t-4.5 19t5 16t14 8q17 -23 41 -39.5t52 -23.5q0 27 0.5 55t1 52t1 42.5
t0.5 27.5q1 16 2 37.5t2 44t1.5 43.5t0.5 36q0 21 -0.5 34.5t-0.5 22.5t-0.5 15t-0.5 12v1q-39 -14 -70.5 -32.5t-55 -36.5t-38.5 -33t-21 -22q-6 0 -9 8t-2 19t5 23.5t12 21.5q17 17 53 35t84 33t106 24.5t120 9.5q21 0 57.5 -8t71.5 -29.5t61 -60.5t27 -102
q1 -78 -30.5 -133t-81 -91t-109.5 -54t-115 -22q48 -49 106 -85.5t113.5 -60.5t101.5 -34t71 -7zM179 769q22 8 44.5 22t31.5 25q2 2 3.5 -4.5t1.5 -8.5q0 -6 -7.5 -16.5t-20.5 -21.5t-31 -21t-38 -17q-3 0 -3 5.5t2 13t6.5 14t10.5 9.5z" />
    <glyph glyph-name="racute" unicode="&#x155;" horiz-adv-x="231" 
d="M253 168q2 3 7.5 0.5t3.5 -11.5q0 -1 -1.5 -13t-5 -29.5t-9.5 -37.5t-15.5 -37t-23 -28.5t-32.5 -11.5q-21 0 -36 10t-24.5 35t-14.5 66t-5 102q-1 66 2.5 115t5.5 72q-13 -5 -25.5 -11t-18.5 -10q-2 -34 -7.5 -84.5t-17 -102t-29 -96.5t-43.5 -69q-10 -2 -13 3.5t0 8.5
q4 4 24.5 39t37.5 107q8 35 13 67t7.5 57t3 41.5t0.5 20.5q-10 -4 -20 -4q-8 0 -16 3t-14.5 11t-9.5 22t0 36q3 30 10.5 49t16 29.5t17.5 14t16 3.5q16 -1 23 -36t1 -104q23 11 33.5 15t15.5 6q7 3 23 7t27 5t15 0t4 -3t-4 -18t-8.5 -44t-7.5 -66t-2 -85q2 -39 7 -64.5
t11.5 -41t13.5 -21.5t12 -6q12 0 26.5 20t25.5 69zM191 555q2 2 3.5 -4.5t1.5 -8.5q0 -6 -7.5 -16.5t-20.5 -21.5t-31 -21t-38 -17q-3 0 -3 5.5t2 13t6.5 14t10.5 9.5q22 8 44.5 22t31.5 25z" />
    <glyph glyph-name="Rcaron" unicode="&#x158;" horiz-adv-x="519" 
d="M188 680q-17 0 -33.5 -1.5t-32.5 -3.5q-1 -5 -2 -11t-3 -14q-5 -24 -16 -85.5t-16 -156.5q-6 -103 -3 -181q76 3 130.5 31t89 70.5t49.5 93.5t10 99q-7 72 -52.5 115.5t-120.5 43.5zM498 17q4 -13 1.5 -28t-10 -27t-20.5 -19.5t-30 -7.5q-36 0 -72 13.5t-71 35.5
t-67 49.5t-59.5 56t-49.5 54.5t-36 45q3 -48 11.5 -96t34.5 -90q-3 -5 -10.5 -9t-25.5 -4q-22 0 -34.5 11.5t-18.5 29t-7.5 38t-1.5 37.5q0 13 0.5 39.5t0.5 59.5q-40 3 -60 12t-33 18q-9 6 -13.5 16t-4.5 19t5 16t14 8q17 -23 41 -39.5t52 -23.5q0 27 0.5 55t1 52t1 42.5
t0.5 27.5q1 16 2 37.5t2 44t1.5 43.5t0.5 36q0 21 -0.5 34.5t-0.5 22.5t-0.5 15t-0.5 12v1q-39 -14 -70.5 -32.5t-55 -36.5t-38.5 -33t-21 -22q-6 0 -9 8t-2 19t5 23.5t12 21.5q17 17 53 35t84 33t106 24.5t120 9.5q21 0 57.5 -8t71.5 -29.5t61 -60.5t27 -102
q1 -78 -30.5 -133t-81 -91t-109.5 -54t-115 -22q48 -49 106 -85.5t113.5 -60.5t101.5 -34t71 -7zM198 761q9 30 30 40.5t40 10.5q14 0 21 -3q2 0 0 -3.5t-5.5 -7.5t-7.5 -7t-6 -3q-17 2 -33.5 -3t-27.5 -31q-2 -6 -3.5 -13t-1.5 -12q0 -1 -4.5 -2t-10 -1.5t-10 0t-4.5 1.5
q0 35 -9 52t-21 17q-16 0 -19 -17q-5 1 -7 6q-2 6 5 18t25 12q23 0 33.5 -17t12.5 -37h3z" />
    <glyph glyph-name="rcaron" unicode="&#x159;" horiz-adv-x="231" 
d="M253 168q2 3 7.5 0.5t3.5 -11.5q0 -1 -1.5 -13t-5 -29.5t-9.5 -37.5t-15.5 -37t-23 -28.5t-32.5 -11.5q-21 0 -36 10t-24.5 35t-14.5 66t-5 102q-1 66 2.5 115t5.5 72q-13 -5 -25.5 -11t-18.5 -10q-2 -34 -7.5 -84.5t-17 -102t-29 -96.5t-43.5 -69q-10 -2 -13 3.5t0 8.5
q4 4 24.5 39t37.5 107q8 35 13 67t7.5 57t3 41.5t0.5 20.5q-10 -4 -20 -4q-8 0 -16 3t-14.5 11t-9.5 22t0 36q3 30 10.5 49t16 29.5t17.5 14t16 3.5q16 -1 23 -36t1 -104q23 11 33.5 15t15.5 6q7 3 23 7t27 5t15 0t4 -3t-4 -18t-8.5 -44t-7.5 -66t-2 -85q2 -39 7 -64.5
t11.5 -41t13.5 -21.5t12 -6q12 0 26.5 20t25.5 69zM110 550q9 30 30 40.5t40 10.5q14 0 21 -3q2 0 0 -3.5t-5.5 -7t-7.5 -6.5t-7 -3q-16 2 -32.5 -3.5t-27.5 -31.5q-5 -13 -5 -25q0 -1 -4.5 -2t-10 -1.5t-10 0t-4.5 1.5q0 36 -9 52.5t-22 16.5q-6 0 -11.5 -4.5t-7.5 -12.5
q-4 2 -6 6q-2 6 4.5 18t24.5 12q23 0 34 -16.5t13 -37.5h3z" />
    <glyph glyph-name="Sacute" unicode="&#x15a;" horiz-adv-x="479" 
d="M284 225q26 -13 55 -23t53.5 -21t41 -27t16.5 -41q0 -18 -15 -41t-44 -44t-72 -35.5t-100 -14.5q-48 0 -81 11t-54 26t-31 30t-12 24q-3 17 9.5 32t28.5 25t30 14t13 0q-3 -11 1.5 -28t18.5 -33t38 -27.5t60 -11.5q37 0 67.5 6.5t52.5 17t34.5 24t12.5 27.5q1 14 -6.5 24
t-23 18t-38.5 15.5t-53 17.5q-48 15 -92.5 30t-80 39.5t-59.5 62t-31 96.5q-7 57 8 108.5t46.5 89.5t78 60.5t103.5 22.5h12t13 -1q26 -3 50 -13.5t41.5 -33.5t27 -60.5t7.5 -93.5q-3 -72 -0.5 -120.5t-0.5 -53.5q-1 -3 -13 -3t-28.5 6.5t-25.5 24.5q-6 14 -7.5 32t1 37.5
t8.5 38t15 31.5q3 27 2.5 59t-7.5 59.5t-23 46t-44 18.5q-34 0 -68 -16.5t-60.5 -47t-42.5 -72.5t-15 -93q2 -52 21 -88t46.5 -60.5t59 -41t56.5 -29.5zM258 769q22 8 44.5 22t32.5 25q2 2 3.5 -4.5t1.5 -8.5q0 -6 -7.5 -16.5t-21 -21.5t-31.5 -21t-38 -17q-3 0 -3 5.5t2 13
t6.5 14t10.5 9.5z" />
    <glyph glyph-name="sacute" unicode="&#x15b;" horiz-adv-x="298" 
d="M84 369q-4 -29 -12 -75t-23 -97q31 11 63.5 13.5t62.5 0.5q-23 55 -48.5 95t-42.5 63zM200 36q14 9 12.5 47t-29.5 110q-12 2 -23.5 2h-21.5q-32 0 -55.5 -4.5t-38.5 -10.5q-4 -13 -8 -25t-9 -24q11 -16 29.5 -33t41 -31.5t45.5 -24t42 -9.5q11 0 15 3zM315 182
q4 -1 8 -5t7 -8.5t3.5 -8t-4.5 -3.5q-18 7 -34.5 11.5t-32.5 9.5q11 -25 18 -48.5t9 -47.5t-5 -40t-19 -25t-26.5 -13t-29.5 -4q-41 0 -72.5 12.5t-55 30.5t-38.5 37t-24 32q-11 -25 -24.5 -47.5t-29.5 -40.5q-5 -5 -9.5 -2t-2.5 6q29 39 53 106q-7 16 -4 28t11 20
q2 1 4.5 2t5.5 3q14 47 24 100.5t17 110.5q1 7 10 13t20 10t22.5 6t17.5 2q13 0 13 -5q-1 -11 17.5 -49.5t47.5 -95.5q11 -21 21 -40.5t19 -38.5q23 -5 39 -10t24 -8zM191 555q2 2 3.5 -4.5t1.5 -8.5q0 -6 -7.5 -16.5t-20.5 -21.5t-31 -21t-38 -17q-3 0 -3 5.5t2 13t6.5 14
t10.5 9.5q22 8 44.5 22t31.5 25z" />
    <glyph glyph-name="Scircumflex" unicode="&#x15c;" horiz-adv-x="479" 
d="M284 225q26 -13 55 -23t53.5 -21t41 -27t16.5 -41q0 -18 -15 -41t-44 -44t-72 -35.5t-100 -14.5q-48 0 -81 11t-54 26t-31 30t-12 24q-3 17 9.5 32t28.5 25t30 14t13 0q-3 -11 1.5 -28t18.5 -33t38 -27.5t60 -11.5q37 0 67.5 6.5t52.5 17t34.5 24t12.5 27.5q1 14 -6.5 24
t-23 18t-38.5 15.5t-53 17.5q-48 15 -92.5 30t-80 39.5t-59.5 62t-31 96.5q-7 57 8 108.5t46.5 89.5t78 60.5t103.5 22.5h12t13 -1q26 -3 50 -13.5t41.5 -33.5t27 -60.5t7.5 -93.5q-3 -72 -0.5 -120.5t-0.5 -53.5q-1 -3 -13 -3t-28.5 6.5t-25.5 24.5q-6 14 -7.5 32t1 37.5
t8.5 38t15 31.5q3 27 2.5 59t-7.5 59.5t-23 46t-44 18.5q-34 0 -68 -16.5t-60.5 -47t-42.5 -72.5t-15 -93q2 -52 21 -88t46.5 -60.5t59 -41t56.5 -29.5zM304 714q-5 1 -11.5 3t-13 8t-11.5 16t-7 27h-3q-9 -30 -30 -40.5t-40 -10.5q-13 0 -21 3q-1 0 0.5 3.5t5 7.5t7.5 7
t7 3q16 -2 32.5 3t27.5 32q5 12 5 24q0 1 4.5 2t10 1.5t10 0t4.5 -1.5q0 -35 9 -52t22 -17q6 0 11.5 5t7.5 12q6 -2 6 -6q1 -3 -0.5 -8.5t-5 -10.5t-10.5 -8.5t-17 -2.5z" />
    <glyph glyph-name="scircumflex" unicode="&#x15d;" horiz-adv-x="298" 
d="M84 369q-4 -29 -12 -75t-23 -97q31 11 63.5 13.5t62.5 0.5q-23 55 -48.5 95t-42.5 63zM200 36q14 9 12.5 47t-29.5 110q-12 2 -23.5 2h-21.5q-32 0 -55.5 -4.5t-38.5 -10.5q-4 -13 -8 -25t-9 -24q11 -16 29.5 -33t41 -31.5t45.5 -24t42 -9.5q11 0 15 3zM315 182
q4 -1 8 -5t7 -8.5t3.5 -8t-4.5 -3.5q-18 7 -34.5 11.5t-32.5 9.5q11 -25 18 -48.5t9 -47.5t-5 -40t-19 -25t-26.5 -13t-29.5 -4q-41 0 -72.5 12.5t-55 30.5t-38.5 37t-24 32q-11 -25 -24.5 -47.5t-29.5 -40.5q-5 -5 -9.5 -2t-2.5 6q29 39 53 106q-7 16 -4 28t11 20
q2 1 4.5 2t5.5 3q14 47 24 100.5t17 110.5q1 7 10 13t20 10t22.5 6t17.5 2q13 0 13 -5q-1 -11 17.5 -49.5t47.5 -95.5q11 -21 21 -40.5t19 -38.5q23 -5 39 -10t24 -8zM181 466q-24 0 -35 16t-13 38h-3q-9 -31 -30 -41.5t-40 -10.5q-13 0 -21 3q-1 1 0.5 4.5t5 7t7.5 6.5t7 3
q16 -2 32.5 3t27.5 32q5 13 5 24q0 2 4.5 2.5t10 1t10 0t4.5 -1.5q0 -35 9 -51.5t22 -16.5q6 0 11.5 4.5t7.5 11.5q6 0 6 -5q2 -6 -4.5 -18t-23.5 -12z" />
    <glyph glyph-name="Scedilla" unicode="&#x15e;" horiz-adv-x="479" 
d="M220 -54q29 -6 46.5 -21.5t17.5 -41.5t-28.5 -51.5t-91.5 -34.5q-6 3 -8 9t-2 12t2 11t4 6q14 -9 36 -9q18 0 34 9.5t16 34.5q0 15 -7 24t-17 13.5t-20.5 5.5t-18.5 0l-1 2l20 34l19 29h-2q-48 0 -81 11t-54 26t-31 30t-12 24q-3 17 9.5 32t28.5 25t30 14t13 0
q-3 -11 1.5 -28t18.5 -33t38 -27.5t60 -11.5q37 0 67.5 6.5t52.5 17t34.5 24t12.5 27.5q1 14 -6.5 24t-23 18t-38.5 15.5t-53 17.5q-48 15 -92.5 30t-80 39.5t-59.5 62t-31 96.5q-7 57 8 108.5t46.5 89.5t78 60.5t103.5 22.5h12t13 -1q26 -3 50 -13.5t41.5 -33.5t27 -60.5
t7.5 -93.5q-3 -72 -0.5 -120.5t-0.5 -53.5q-1 -3 -13 -3t-28.5 6.5t-25.5 24.5q-6 14 -7.5 32t1 37.5t8.5 38t15 31.5q3 27 2.5 59t-7.5 59.5t-23 46t-44 18.5q-34 0 -68 -16.5t-60.5 -47t-42.5 -72.5t-15 -93q2 -52 21 -88t46.5 -60.5t59 -41t56.5 -29.5q26 -13 55 -23
t53.5 -21t41 -27t16.5 -41q0 -16 -13.5 -38t-39.5 -42.5t-65 -35.5t-90 -18z" />
    <glyph glyph-name="scedilla" unicode="&#x15f;" horiz-adv-x="298" 
d="M84 369q-4 -29 -12 -75t-23 -97q31 11 63.5 13.5t62.5 0.5q-23 55 -48.5 95t-42.5 63zM200 36q14 9 12.5 47t-29.5 110q-12 2 -23.5 2h-21.5q-32 0 -55.5 -4.5t-38.5 -10.5q-4 -13 -8 -25t-9 -24q11 -16 29.5 -33t41 -31.5t45.5 -24t42 -9.5q11 0 15 3zM202 0l-24 -37
q29 -6 46.5 -21.5t17.5 -41.5t-28.5 -51.5t-91.5 -34.5q-6 3 -8 9t-2 12t1.5 11t3.5 6q14 -9 36 -9q19 0 35 9.5t16 34.5q0 15 -7 24t-17 13.5t-20.5 5.5t-18.5 0l-2 2l43 70q-34 4 -61 17.5t-47 30t-33.5 33.5t-21.5 29q-11 -25 -24.5 -47.5t-29.5 -40.5q-5 -5 -9.5 -2
t-2.5 6q29 39 53 106q-7 16 -4 28t11 20q2 1 4.5 2t5.5 3q14 47 24 100.5t17 110.5q1 7 10 13t20 10t22.5 6t17.5 2q13 0 13 -5q-1 -11 17.5 -49.5t47.5 -95.5q11 -21 21 -40.5t19 -38.5q23 -5 39 -10t24 -8q4 -1 8 -5t7 -8.5t3.5 -8t-4.5 -3.5q-18 7 -34.5 11.5t-32.5 9.5
q11 -25 18 -48.5t9 -47.5t-5 -40t-19 -25t-26.5 -13t-29.5 -4h-7z" />
    <glyph glyph-name="Scaron" unicode="&#x160;" horiz-adv-x="479" 
d="M284 225q26 -13 55 -23t53.5 -21t41 -27t16.5 -41q0 -18 -15 -41t-44 -44t-72 -35.5t-100 -14.5q-48 0 -81 11t-54 26t-31 30t-12 24q-3 17 9.5 32t28.5 25t30 14t13 0q-3 -11 1.5 -28t18.5 -33t38 -27.5t60 -11.5q37 0 67.5 6.5t52.5 17t34.5 24t12.5 27.5q1 14 -6.5 24
t-23 18t-38.5 15.5t-53 17.5q-48 15 -92.5 30t-80 39.5t-59.5 62t-31 96.5q-7 57 8 108.5t46.5 89.5t78 60.5t103.5 22.5h12t13 -1q26 -3 50 -13.5t41.5 -33.5t27 -60.5t7.5 -93.5q-3 -72 -0.5 -120.5t-0.5 -53.5q-1 -3 -13 -3t-28.5 6.5t-25.5 24.5q-6 14 -7.5 32t1 37.5
t8.5 38t15 31.5q3 27 2.5 59t-7.5 59.5t-23 46t-44 18.5q-34 0 -68 -16.5t-60.5 -47t-42.5 -72.5t-15 -93q2 -52 21 -88t46.5 -60.5t59 -41t56.5 -29.5zM257 761q9 30 30 40.5t40 10.5q13 0 22 -3q2 0 0 -3.5t-5.5 -7.5t-7.5 -7t-7 -3q-16 2 -33 -3t-27 -31q-2 -6 -4 -13
t-1 -12q0 -1 -4.5 -2t-10 -1.5t-10 0t-4.5 1.5q0 35 -9.5 52t-21.5 17q-6 0 -11.5 -4.5t-7.5 -12.5q-5 1 -7 6q-1 6 5.5 18t24.5 12q23 0 33.5 -16.5t12.5 -37.5h3z" />
    <glyph glyph-name="scaron" unicode="&#x161;" horiz-adv-x="298" 
d="M84 369q-4 -29 -12 -75t-23 -97q31 11 63.5 13.5t62.5 0.5q-23 55 -48.5 95t-42.5 63zM200 36q14 9 12.5 47t-29.5 110q-12 2 -23.5 2h-21.5q-32 0 -55.5 -4.5t-38.5 -10.5q-4 -13 -8 -25t-9 -24q11 -16 29.5 -33t41 -31.5t45.5 -24t42 -9.5q11 0 15 3zM315 182
q4 -1 8 -5t7 -8.5t3.5 -8t-4.5 -3.5q-18 7 -34.5 11.5t-32.5 9.5q11 -25 18 -48.5t9 -47.5t-5 -40t-19 -25t-26.5 -13t-29.5 -4q-41 0 -72.5 12.5t-55 30.5t-38.5 37t-24 32q-11 -25 -24.5 -47.5t-29.5 -40.5q-5 -5 -9.5 -2t-2.5 6q29 39 53 106q-7 16 -4 28t11 20
q2 1 4.5 2t5.5 3q14 47 24 100.5t17 110.5q1 7 10 13t20 10t22.5 6t17.5 2q13 0 13 -5q-1 -11 17.5 -49.5t47.5 -95.5q11 -21 21 -40.5t19 -38.5q23 -5 39 -10t24 -8zM133 510q9 30 30 40.5t40 10.5q14 0 21 -3q2 0 0 -3.5t-5 -7t-7 -6.5t-7 -3q-17 2 -33.5 -3.5
t-26.5 -31.5q-2 -6 -4 -12.5t-1 -12.5q0 -2 -6 -2.5t-13 -0.5q-10 0 -10 2q0 35 -9.5 51.5t-21.5 16.5q-16 0 -19 -17q-5 1 -7 6q-1 6 5.5 18t24.5 12q23 0 33.5 -16.5t12.5 -37.5h3z" />
    <glyph glyph-name="uni0162" unicode="&#x162;" horiz-adv-x="402" 
d="M304 -51q29 -7 46 -22.5t17 -41.5t-28.5 -51.5t-90.5 -34.5q-6 3 -8.5 9t-2.5 12.5t2 11.5t4 6q14 -9 36 -9q19 0 35 9.5t16 34.5q0 15 -7 24t-17 13.5t-20.5 5.5t-18.5 0l-2 1l46 75q-15 5 -23.5 18t-12.5 29t-5 34t-1 33v35.5t0.5 54t1 63.5t1.5 62.5t1.5 53t0.5 33.5
q0 16 1 37.5t2 44t1.5 43.5t0.5 36q0 37 -0.5 52.5t-1.5 26.5q-33 -3 -60 -6.5t-50.5 -8t-46 -10t-46.5 -12.5q-7 -2 -16.5 7.5t-18 23t-14 27.5t-4.5 21q0 4 20 4q23 0 70 -3t113 -3h44t47 2q109 6 173 9t88 6q12 1 22.5 -9t18 -23.5t11.5 -26t2 -15.5t-17 1t-47 9.5
t-84 10t-128 1.5q0 -1 -0.5 -1.5t-0.5 -1.5q-5 -24 -15.5 -85.5t-16.5 -156.5q-6 -97 -3 -171.5t12 -127.5q5 -28 11 -47.5t11 -32t9 -18.5t5 -8q-3 -5 -10.5 -9t-25.5 -4z" />
    </font>
</defs>
</svg>
